<?xml version="1.0" encoding="UTF-8"?>
<svg id="Calque_1" data-name="Calque 1" xmlns="http://www.w3.org/2000/svg" viewBox="0 0 409.5 805.5">
  <defs>
    <style>
      .cls-1 {
        fill: #f0f0f0;
      }

      .cls-2 {
        fill: #6c6c6c;
      }

      .cls-3 {
        fill: #090909;
      }

      .cls-4 {
        fill: #cbcbcb;
      }

      .cls-5 {
        fill: #fafafa;
      }

      .cls-6 {
        fill: #f6f6f6;
      }

      .cls-7 {
        fill: #0c0c0c;
      }

      .cls-8 {
        fill: #f5f5f5;
      }

      .cls-9 {
        fill: #040404;
      }

      .cls-10 {
        fill: #020202;
      }

      .cls-11 {
        fill: #151515;
      }

      .cls-12 {
        fill: #d6d6d6;
      }

      .cls-13 {
        fill: #0a0a0a;
      }

      .cls-14 {
        fill: #2f2f2f;
      }

      .cls-15 {
        fill: #dedede;
      }

      .cls-16 {
        fill: #313131;
      }

      .cls-17 {
        fill: #e6e6e6;
      }

      .cls-18 {
        fill: #e7e7e7;
      }

      .cls-19 {
        fill: #030303;
      }

      .cls-20 {
        fill: #fdfdfd;
      }

      .cls-21 {
        fill: #e4e4e4;
      }

      .cls-22 {
        fill: #fbfbfb;
      }

      .cls-23 {
        fill: #f9f9f9;
      }

      .cls-24 {
        fill: #e5e5e5;
      }

      .cls-25 {
        fill: #171717;
      }

      .cls-26 {
        fill: #0e0e0e;
      }

      .cls-27 {
        fill: #bebebe;
      }

      .cls-28 {
        fill: #202020;
      }

      .cls-29 {
        fill: #050505;
      }

      .cls-30 {
        fill: #353535;
      }

      .cls-31 {
        fill: #292929;
      }

      .cls-32 {
        fill: #0b0b0b;
      }

      .cls-33 {
        fill: #efefef;
      }

      .cls-34 {
        fill: #191919;
      }

      .cls-35 {
        fill: #bfbebe;
      }

      .cls-36 {
        fill: #070707;
      }

      .cls-37 {
        fill: #b5b5b5;
      }

      .cls-38 {
        fill: #f8f8f8;
      }

      .cls-39 {
        fill: #d2d2d2;
      }

      .cls-40 {
        fill: #010101;
      }

      .cls-41 {
        fill: #c0bfbf;
      }

      .cls-42 {
        fill: #fefefe;
      }

      .cls-43 {
        fill: #060606;
      }

      .cls-44 {
        fill: #fcfcfc;
      }

      .cls-45 {
        fill: #ededed;
      }
    </style>
  </defs>
  <path class="cls-42" d="M144.25,.04C232.1,.04,319.94,.04,407.78,0c1.4,0,1.72,.32,1.72,1.72-.04,267.35-.04,534.7,0,802.05,0,1.41-.32,1.72-1.72,1.72-135.35-.04-270.71-.04-406.06,0-1.4,0-1.72-.32-1.72-1.72C.04,572.6,.03,341.41,.03,110.23c.26-.11,.47-.06,.65,.16,1.31,1.84,1.9,3.85,1.85,6.14-.1,4.62-.04,9.24-.02,13.87,0,1.33-.13,2.61-.88,3.77-.56,.88-.62,1.88-.62,2.89,0,13.55,0,27.11,0,40.66,0,1.08,.14,2.11,.78,3.03,.68,.97,.72,2.11,.72,3.24,0,1.75,0,3.5,0,5.25,0,1.08-.12,2.12-.91,2.97-.61,.65-.57,1.5-.58,2.3-.02,13.99-.02,27.98,0,41.97,0,.75-.05,1.55,.37,2.19,1.21,1.85,1.12,3.91,1.12,5.97,0,37.85,.33,75.7-.09,113.55-.46,41.47-.2,82.94-.19,124.4,0,11.48,.06,22.97,.3,34.46,.79,37.53,.54,75.07,.23,112.6-.33,39.16-.01,78.31-.26,117.47-.04,6.69,.05,13.36,1.17,19.98,1.44,8.45,4.72,16.07,10.51,22.43,5.48,6.02,12.4,9.79,20.22,11.92,5.57,1.52,11.24,2.17,17.01,2.33,46.3,1.33,92.62,.88,138.93,.6,37.89-.23,75.78-.03,113.66-.25,.75,0,1.5-.04,2.24,.05,.24,0,.48,0,.72,0,.87-.1,1.75-.06,2.62-.04,13.17,.24,26.33-.36,39.49-.47,9.4-.08,18.83-.39,28.18-1.68,10.48-1.45,17.95-7.31,23.23-16.23,3.62-6.13,4.69-12.95,5.4-19.9,.69-6.79,.71-13.58,.75-20.39,.13-18.67,.15-37.34,.47-56,.3-17.11,.21-34.22,.23-51.32,.08-57.83,.36-115.67-.06-173.5-.47-64.76,.15-129.52-.39-194.28-.19-23.48-.05-46.95-.28-70.43-.02-1.89-.04-3.73,1.41-5.26,.58-.61,.46-1.53,.46-2.34,.01-13.3,0-26.61,.01-39.91,0-1.22-.19-2.35-1.04-3.3-.62-.68-.79-1.54-.81-2.44-.03-.87-.02-1.75-.02-2.62,0-31.6,.07-63.2-.04-94.81-.03-9.15-1.67-18.04-6.27-26.14-6.46-11.37-16.47-17.79-29.03-20.54-4.89-1.07-9.84-1.58-14.86-1.58-69.41,.02-138.83,.01-208.24,0-1.25,0-2.53,.21-3.72-.36-.24-.15-.3-.35-.19-.61Z"/>
  <path class="cls-42" d="M.03,87.37C.03,58.79,.05,30.22,0,1.64,0,.32,.23,0,1.61,0,23.94,.06,46.26,.04,68.59,.04c.12,.22,.07,.41-.13,.56-.81,.46-1.7,.34-2.56,.35-5.74,.01-11.48-.14-17.21,.05-4.65,.16-9.41,.07-13.81,1.95-9.15,3.89-17.79,8.56-23.79,16.89-4.41,6.12-6.55,13.13-7.83,20.45-.56,3.2-.84,6.42-.83,9.68,.04,11.04,0,22.09,.04,33.13,0,1.76-.37,3.19-1.83,4.24-.19,.14-.4,.15-.6,.03Z"/>
  <path class="cls-27" d="M75.7,.04h42.33c.11,.26,.05,.46-.19,.6-1.18,.56-2.44,.34-3.67,.35-3.04,0-6.07,.07-9.11-.03-.24,0-.48,0-.72,0-8.87,.11-17.75,.03-26.62,.04-.62,0-1.24-.03-1.81-.34-.25-.15-.32-.35-.21-.62Z"/>
  <path class="cls-15" d="M118.04,.36c-.01-.11-.02-.21,0-.32h26.22c0,.11,0,.21,0,.32-.67,.76-1.59,.65-2.44,.65-7.11,.02-14.22,.02-21.34,0-.86,0-1.77,.1-2.44-.65Z"/>
  <path class="cls-15" d="M.34,110.24l-.15,.02-.15-.03v-19.86c.27-.11,.47-.04,.62,.21,.4,.75,.35,1.56,.35,2.36,.01,4.9,.02,9.79,0,14.69,0,.91,.16,1.89-.66,2.61Z"/>
  <path class="cls-15" d="M75.7,.04c0,.1,0,.21-.01,.31-2.37,1.04-4.75,1.05-7.12,0,0-.1,0-.2,.01-.31h7.12Z"/>
  <path class="cls-37" d="M.34,90.38H.19s-.15-.01-.15-.01v-3c.11,0,.23,0,.34-.02,.78,1.02,.81,2.03-.03,3.03Z"/>
  <path class="cls-40" d="M118.04,.36c8.74,0,17.48,0,26.22,0,10.61,.03,21.22,.06,31.83,.07,30.34,.03,60.68,.05,91.01,.06,30.65,0,61.3-.09,91.95,.06,10.52,.05,20.51,2.53,29.34,8.6,9.48,6.52,14.85,15.73,17.31,26.8,1.05,4.71,1.47,9.5,1.48,14.31,.02,31.98,.01,63.96,0,95.93,0,1.17-.16,2.31,1.22,3,.71,.35,.69,1.25,.69,2.02,0,14.05,0,28.11,0,42.16,0,.7,.07,1.57-.56,1.89-1.53,.75-1.3,2.02-1.3,3.31,.04,22.36,.06,44.71,.1,67.07,.04,26.73,.1,53.46,.15,80.19,.06,31.54,.04,63.08,.19,94.62,.26,52.9,.16,105.8,.17,158.7,0,28.73,.03,57.46-.09,86.19-.09,23.23-.29,46.46-.62,69.68-.11,7.48-.48,15.02-2.55,22.26-3.38,11.84-10.6,20.34-22.51,24.3-5.02,1.67-10.35,1.69-15.56,1.96-19.7,1.03-39.42,1.02-59.14,1.19-.19,0-.37-.03-.56-.05-.73-1.01-.67-2.03-.08-3.07,.59-.44,1.28-.45,1.97-.47,.81-.02,1.62-.03,2.43,0,9.11,.26,18.22-.21,27.31-.49,8.17-.25,16.34-.04,24.51-.28,4.24-.12,8.45-.54,12.66-1.11,7.4-1,12.83-5.2,17.55-10.57,5.73-6.5,8.11-14.34,8.95-22.79,.43-4.36,.37-8.73,.37-13.09,0-26.48-.29-52.95,.09-79.42,.31-21.66,.12-43.32,.29-64.98,0-.81,0-1.62,.17-2.43,.39-1.22,.25-2.48,.25-3.72,0-116.63,0-233.26,0-349.9,0-1-.05-2,.05-2.99,.08-.75,.28-1.42,1-1.35-.84,.03-.99-.8-1.03-1.68-.06-1.25-.03-2.5-.03-3.75,0-9.55,0-19.11,0-28.66,0-.94,.04-1.87-.26-2.78-.37-4.11-.07-8.24-.18-12.35-.81-31.71,.08-63.44-.47-95.15-.33-19.23-.22-38.46-.22-57.69,0-10.12-3.56-18.66-10.04-26.12-7.41-8.53-16.73-13.74-27.99-15.19-3.33-.43-6.7-.63-10.08-.63-81.77,0-163.53,0-245.3,0-1.29,0-2.63,.25-3.86-.43-.71-1.03-.73-2.07,0-3.1,4.37-.04,8.74-.07,13.1-.11Z"/>
  <path class="cls-40" d="M.34,90.38c0-1.01,.02-2.02,.03-3.03,2.52-2.87,1.46-6.35,1.5-9.59,.12-10.17-.22-20.35,.15-30.51,.37-10.17,2.88-19.84,8.99-28.25,4.32-5.95,10.41-9.68,16.62-13.36C34.97,1.28,42.92,.38,51.18,.44c5.8,.05,11.6-.06,17.4-.1,2.37,0,4.74,0,7.12,0,8.56,.02,17.12,.04,25.68,.06,1.05,0,2.11,.03,3.16,.05,.33,1.02,.31,2.04,0,3.07-.71,.52-1.54,.46-2.34,.46-15.35,0-30.71,.2-46.06-.1-5.55-.11-10.96,.17-16.3,1.52-16.3,4.11-26.39,14.66-31.27,30.49-1.33,4.31-1.83,8.77-1.99,13.29-.77,21.97-.52,43.95-.22,65.92,.28,20.29,.45,40.58,.14,60.86-.35,23.04-.04,46.07-.27,69.11,0,.87,.09,1.76-.37,2.56-.62,.63-1.47,.09-2.31,.44-.09,.02,.25,.35,.13,.12-.05-.1-.02-.16,.08-.16,.74-.04,1.53-.38,2.16,.34,.53,1.26,.33,2.59,.33,3.89,0,83.57-.27,167.13,.12,250.7,.2,43.84,.44,87.68,.14,131.51-.26,38.16-.03,76.31-.26,114.46,0,.87,.06,1.75-.29,2.59-.62,.86-1.46,.45-2.3,.41,.72,.32,1.56-.18,2.18,.41,.59,1.99,.64,4.06,.73,6.1,.47,10.61,3.57,20.24,10.57,28.39,5.38,6.26,12.26,10.14,20.14,12.31,4.71,1.3,9.51,1.98,14.42,1.98,83.62-.02,167.24-.01,250.86,0,1.29,0,2.63-.28,3.85,.44,.35,1.03,.32,2.07,.03,3.11-.56,.03-1.12,.07-1.68,.08-17.79,.02-35.58,.03-53.38,.05-18.1,.02-36.21,.05-54.31,.07-38.95,.05-77.91,.23-116.86,.09-11.72-.04-23.47-.14-35.17-1.02-9.4-.71-18.2-3.49-25.9-9.19-8.19-6.06-12.92-14.34-15.35-24.08-1.35-5.42-1.87-10.95-1.88-16.52-.02-35.92-.1-71.83,.07-107.75,.18-37.47,.57-74.95,.19-112.42-.44-44.03-.86-88.05-.67-132.08,.22-53.09,.48-106.18,.4-159.26,0-1.14-.01-2.19-.84-3.13-.59-.66-.68-1.56-.68-2.47,.02-14.49,.01-28.98,.01-43.47,0-.87-.14-1.8,1.05-2.1,.73-.18,.43-.81,.43-1.24,.03-2.56,.02-5.12,0-7.68,0-.42,.2-.99-.22-1.23-1.59-.92-1.24-2.43-1.24-3.83-.01-13.87-.01-27.73-.02-41.6,0-.56-.13-1.23,.34-1.59,1.5-1.15,1.14-2.75,1.15-4.26,.02-4.18-.21-8.38,.08-12.55,.19-2.69-.78-4.92-1.64-7.27,0-6.62,0-13.24,0-19.86Z"/>
  <path class="cls-16" d="M306.45,804.7c0-.97,0-1.95-.01-2.92,.14-.13,.27-.13,.41,0,0,.97,0,1.94-.01,2.91-.13,0-.26,0-.39,.01Z"/>
  <path class="cls-16" d="M104.53,3.37c0-.97,0-1.94,0-2.91,.14,0,.27,0,.41,0,0,.97,0,1.94,0,2.91-.13,.11-.27,.12-.4,0Z"/>
  <path class="cls-41" d="M104.53,3.37c.13,0,.27,0,.4,0,9.3,.03,18.6,.09,27.9,.1,66.74,.02,133.47,.04,200.21,.05,9.3,0,18.6-.29,27.89,.19,17.91,.94,34.26,13.15,40.12,30.09,1.58,4.56,1.76,9.3,1.77,14.05,.02,12.49-.02,24.98,.01,37.48,.06,20.36,.29,40.72,.18,61.08-.08,14.49-.11,28.98,.2,43.46,.15,7.05,.21,14.11,.33,21.16,.19,.68,.1,1.37,.1,2.05,0,130.32,0,260.64,0,390.96,0,.68,.11,1.37-.11,2.05-.04,10.99-.09,21.97-.13,32.96-.09,27.03-.17,54.05-.25,81.08-.04,13.54,.11,27.09-.12,40.63-.15,8.61-1.47,17.1-6.49,24.42-5.31,7.74-11.94,13.69-21.85,14.82-4.72,.54-9.43,.96-14.17,.94-17.9-.11-35.79,.87-53.69,.85h-.41c-.81-.02-1.62-.06-2.43-.06-83.77,0-167.53,0-251.3,0-8.41,0-16.52-1.39-24.06-5.25-11.86-6.06-18.59-16-21.49-28.81-1.16-5.09-1.21-10.27-1.48-15.43-.24-.12-.24-.24,0-.36,.03-.75,.09-1.49,.09-2.24,0-31.16-.03-62.32,.01-93.49,.05-36.22,.31-72.44,.25-108.65-.09-49.58-.61-99.16-.49-148.74,.08-32.53,.12-65.07,.18-97.6,.03-17.05,.04-34.1,.05-51.14,0-.62-.06-1.24-.09-1.87-.24-.12-.24-.24,0-.36,.03-.75,.09-1.49,.09-2.24,0-20.3-.17-40.59,.05-60.89,.23-21.1,.05-42.21,.08-63.31,.04-21.42-.11-42.84-.11-64.25,0-6.55,.12-13.1,1.71-19.53C12.1,18.86,26.18,6.24,45.22,3.71c3.74-.5,7.46-.39,11.2-.36,15.85,.09,31.71,.07,47.56,.08,.19,0,.37-.04,.56-.06Z"/>
  <path class="cls-16" d="M403.54,606.09c0-10.11,0-20.23,0-30.34,0-.75,.02-1.5,.02-2.25,0-110.15,0-220.29,0-330.44,0-9.99-.05-19.98-.08-29.97,0-.68,.05-1.37,.08-2.05,.5,.6,.28,1.32,.28,1.98,.03,10.56,.04,21.11,.06,31.67q0,2.86,2.61,3.28-2.61,.41-2.61,3.28c0,107.19,0,214.38,0,321.57,0,10.43-.03,20.86-.05,31.29,0,.67,.2,1.38-.3,1.98Z"/>
  <path class="cls-14" d="M5.67,247.78c0,.12,0,.24,0,.36-.76-.06-1.55,.17-2.37-.18,.82-.35,1.61-.12,2.37-.18Z"/>
  <path class="cls-14" d="M5.67,751.88c0,.12,0,.24,0,.36-.76-.06-1.55,.17-2.37-.18,.82-.35,1.61-.12,2.37-.18Z"/>
  <path class="cls-40" d="M17.32,751.85c-.02-.81-.06-1.62-.06-2.43,0-109.5,0-218.99,0-328.49,0-56.84-.02-113.68-.02-170.52,0-.75,.04-1.5,.06-2.24,.89-.42,1.83-.07,2.64-.2-.81-.12-1.75,.22-2.64-.2-.02-12.3-.07-24.61-.06-36.91,.01-12.87,.05-25.73,.14-38.6,.19-26.67,.34-53.33,.22-80-.05-11.61-.5-23.23-.27-34.84,.15-7.37,.11-14.9,3.31-21.85,4.76-10.32,12.48-16.97,23.73-19.58,3.66-.85,7.25-.93,10.91-.93,8.49,0,16.98,0,25.47,0,4.38,0,6.65,2.19,6.9,6.6,.1,1.68,.19,3.37,.37,5.04,.65,5.9,4.71,10.01,10.6,10.84,1.99,.28,3.98,.33,5.98,.33,67.79,0,135.59,0,203.38,0,.81,0,1.62-.02,2.43-.08,5.25-.41,7.86-2.52,9.54-7.49,1.25-3.7,1.01-7.52,1.13-11.31,.11-3.48,.19-3.57,3.61-3.6,11.55-.09,23.09-.17,34.64-.29,6.85-.07,13.47,.84,19.28,4.81,7.19,4.92,11.43,11.63,12.16,20.47,.65,7.92,.35,15.85,.38,23.78,.18,37.22,.27,74.44,.4,111.67,.09,23.29,.21,46.59,.31,69.88,0,.69-.04,1.37-.06,2.06-.88,.43-1.82,.07-2.62,.21,.8,.12,1.74-.23,2.62,.2,.04,9.24,.12,18.48,.11,27.73-.02,36.54-.06,73.08-.12,109.61-.05,28.29-.2,56.58-.23,84.87-.03,20.49,.06,40.97,.1,61.46,.03,16.93,.11,33.85,.08,50.78-.07,37.35-.07,74.7-.37,112.05-.17,21.79-.75,43.58-.67,65.38,.05,14.25-8.75,23.81-22.3,28.16-2.97,.95-5.97,1.52-9.15,1.53-10.55,.02-21.09,.25-31.64,.39-.68,0-1.37-.06-2.05-.09-.8-.24-1.61-.11-2.42-.11-90.32,0-180.64,0-270.96-.01-.81,0-1.62,.12-2.42-.11-13.61-.81-23.44-7.45-29.74-19.44-.77-1.46-1.06-3.16-2.05-4.56-.49-.7-.71-1.59-.71-2.49,.01-3.68,.03-7.36,.05-11.04,.88-.44,1.82-.04,2.56-.22-.74-.11-1.68,.24-2.56-.19Z"/>
  <path class="cls-40" d="M204.09,29.59c-5.36,0-10.72,0-16.08,0-.68,0-1.37-.03-2.05-.13-2.64-.4-3.31-1.02-3.45-3.1-.18-2.65,.77-4.22,3-4.94,1.39-.45,2.83-.43,4.26-.43,9.98-.01,19.96,0,29.93,0,1.19,0,2.38,.01,3.5,.47,1.68,.69,2.59,2.04,2.51,3.79-.08,1.68-1.08,2.87-2.78,3.37-.85,.25-1.71,.32-2.59,.3-5.43-.13-10.85,0-16.27,.69Z"/>
  <path class="cls-14" d="M49.76,789.79c1.06-.03,2.11-.09,3.17-.09,83.71,0,167.41,0,251.12-.04,.81,0,2.1,.76,2.43-.86,.04-.18,.25-.32,.31-.05,.35,1.75,1.72,.88,2.58,.9,4.74,.09,9.49,.03,14.23,.05,.66,0,1.38-.24,1.96,.32-6.99,.01-13.98,.03-20.97,.03-83.77,0-167.54,0-251.32,0-1.17,0-2.37,.18-3.51-.26Z"/>
  <path class="cls-40" d="M240.94,30.26c-3.77,.32-6.03-.85-6.8-3.27-.91-2.86,.48-7.17,2.76-8.55,2.33-1.42,5.31-.62,8.19,2.17,2.07,2.02,2.63,4.76,1.35,6.96-1.32,2.27-3.42,2.95-5.49,2.69Z"/>
  <path class="cls-16" d="M391.8,248.17h-2.54c0-.14,0-.28,0-.41h2.55c0,.14,0,.28,0,.41Z"/>
  <path class="cls-16" d="M17.31,247.76h2.55c0,.13,0,.27,.01,.4h-2.56c0-.13,0-.27,0-.4Z"/>
  <path class="cls-16" d="M17.32,751.85h2.54c0,.14,0,.28,0,.41h-2.55c0-.14,0-.28,0-.41Z"/>
  <path class="cls-42" d="M386.97,292.01c.03,.75,.08,1.49,.08,2.24,0,111.49,.01,222.97,0,334.45,0,20.05-.1,40.09-.17,60.14-.02,6.81-.14,13.61-.11,20.42,0,1.38-.36,1.54-1.65,1.46-9.78-.61-19.58-.41-29.38-.47-32.39-.19-64.79-.3-97.18-.48-77.84-.43-155.68-.19-233.52-.26q-2.93,0-2.93-2.93c0-138.03,0-276.06,.04-414.09,0-.67-.75-1.83,.74-2.05,.9-.46,1.86-.2,2.75-.09,3.43,.43,6.86,.26,10.28,.26,24.34,.02,48.68-.2,73.02,.05,75.2,.76,150.39,.09,225.59,.35,8.18,.03,16.36-.23,24.52,.11,8.61,.36,17.22,.07,25.82,.31,.74,.02,1.52-.06,2.1,.56Z"/>
  <path class="cls-42" d="M22.19,289.73c-.03-.68-.08-1.37-.08-2.05-.02-30.84,.06-61.68-.06-92.51-.12-31.52-.44-63.03-.65-94.55,0-.6-.57-1.6,.73-1.7,.36-.3,.79-.35,1.23-.34,27.4,.41,54.8-.08,82.2,.2,75.34,.78,150.67,.1,226.01,.36,8.55,.03,17.11-.27,25.65,.12,8.61,.4,17.21-.06,25.81,.34-8.11-.7-16.23-.23-24.35-.4-.44,0-.87-.02-1.31-.03-33.14-.39-66.28-.07-99.42-.37-77.58-.7-155.17-.08-232.75-.34-1.28,0-2.63,.26-3.78-.61-.2-11.74,.18-23.47,.36-35.21,.08-5.37,.08-10.74,.37-16.1,.66-11.84,6.2-20.59,17.02-25.67,4-1.88,8.41-2.21,12.8-2.21,8.8,0,17.6,0,26.4,.06,3.88,.02,4.99,1.15,5.18,5.13,.15,3.25,.36,6.48,1.86,9.47,.39,.78,.78,1.56,1.19,2.33,1.67,3.1,4.11,4.86,7.75,5.4,6.9,1.03,13.81,.73,20.73,.7,8.86-.04,17.73-.09,26.59-.11,23.97-.05,47.94,.09,71.91-.16,31.46-.33,62.92-.1,94.37-.3,8.1-.05,13.7-3.89,16.2-10.65,.93-2.51,.95-5.12,.97-7.75,.03-3.32,.64-3.92,3.96-3.93,10.61-.05,21.22-.11,31.83-.12,5.43,0,10.67,.82,15.3,3.93,5.73,3.85,8.63,9.49,10,16.07,.69,3.32,.83,6.68,.83,10.06,0,80.13,0,160.26,0,240.39,0,.68-.09,1.36-.14,2.05-.62,.48-1.34,.24-1.99,.2-11.6-.64-23.21-.16-34.81-.36-29.95-.51-59.91-.07-89.86-.36-77.26-.75-154.53-.09-231.79-.35-2.1,0-4.25,.3-6.27-.62Z"/>
  <path class="cls-42" d="M22.18,710.38c9,.86,17.93,.54,26.84,.59,20.6,.13,41.2,.13,61.8,.16,59.74,.09,119.48,.18,179.21,.26,23.22,.03,46.44,.06,69.66,.12,8.49,.02,16.97,.17,25.46,.19,1.34,0,1.61,.42,1.6,1.69-.09,14.55-.08,29.1-.18,43.65-.08,11.08-4.31,19.97-14.08,25.77-4.68,2.78-9.82,3.84-15.21,3.84-54,0-107.99,0-161.99,0-47.63,0-95.26,0-142.89,0-13.13,0-23.19-6.59-28.16-18.46-1.41-3.37-2.12-6.9-2.12-10.56,0-15.55,0-31.1,0-46.66,0-.18,.04-.36,.06-.6Z"/>
  <path class="cls-40" d="M21.42,97.85c28.9,0,57.81,0,86.71,.01,35.83,.01,71.67,0,107.5,.07,33.71,.07,67.41,.21,101.12,.37,20.72,.1,41.44,.31,62.16,.5,2.06,.02,4.14,.17,6.23,.81-.33,.68-.74,.5-1.05,.5-16.91-.1-33.83-.29-50.74-.31-47.07-.07-94.14-.07-141.21-.11-19.6-.02-39.2-.03-58.8-.09-32.02-.09-64.04-.19-96.07-.34-5.05-.02-10.11,.19-15.14-.36-.6-.62-1.15,.04-1.73,.05-.61,0-1.43,.14-1.45-.71-.02-.87,.81-.78,1.42-.74,.36,.03,.7,.22,1.05,.33Z"/>
  <path class="cls-40" d="M22.19,289.73c29.34,0,58.68,0,88.02,.02,36.14,.02,72.28,0,108.43,.07,33.7,.07,67.41,.21,101.11,.37,20.72,.1,41.44,.31,62.16,.51,1.67,.02,3.34,.33,5.01,.51,.45-.1,1.06-.38,1.08,.39,.02,.76-.55,.58-1.02,.4-16.66-.11-33.32-.28-49.98-.31-47.25-.07-94.49-.07-141.74-.1-19.66-.02-39.32-.03-58.98-.09-31.95-.09-63.9-.19-95.86-.34-5.05-.02-10.11,.11-15.15-.3-.8-.07-1.59-.27-2.39-.41,.01-.47-.99,.03-.69-.72Z"/>
  <path class="cls-41" d="M203.52,26.91c-4.86,0-9.72,.05-14.57-.04-.92-.02-2.56,.73-2.65-1.01-.1-1.85,1.55-1.64,2.75-1.64,5.73,0,11.46,.12,17.19,.11,4.17-.01,8.35,.19,12.52-.19,1.08-.1,2.81-.15,2.84,.99,.04,1.16-1.69,1.15-2.76,1.14-5.11-.01-10.22,0-15.32,.65Z"/>
  <path class="cls-35" d="M239.48,27.77c-1.75,0-2.27-.6-2.3-2.62-.03-2.1,1.85-4.59,3.4-4.51,1.35,.07,3.3,2.42,3.26,3.92-.04,1.34-2.57,3.21-4.35,3.21Z"/>
  <path d="M201.78,393.26c41.44,0,82.89-.02,124.33,.01,11.36,0,22.71,.18,34.07,.23,1.2,0,1.71,.3,1.87,1.59,.59,4.72,.7,9.47,.54,14.2-.22,6.62-.38,13.23,.03,19.84,.03,.44,.05,.88,0,1.31-.3,2.66-.46,2.74-3.1,2.55-1.62-.12-3.24-.09-4.87-.09-31.4,.03-62.8-.11-94.19,.14-25.84,.2-51.68,.17-77.52,.13-33.02-.05-66.03-.18-99.05-.32-13.73-.06-27.46-.25-41.19-.29-1.61,0-2.2-.45-2.15-2.05,.08-2.81-.09-5.62,.06-8.42,.45-8.55,.43-17.09,0-25.65-.15-2.93,.16-3.49,3.12-3.5,4.24-.02,8.49-.05,12.73-.05,47.44-.02,94.88-.04,142.32-.06,1,0,2,0,3,0,0,.15,0,.29,0,.44Z"/>
  <path d="M201.72,445.73c41.44,0,82.89-.02,124.33,.01,11.36,0,22.71,.18,34.07,.22,1.3,0,1.81,.35,1.96,1.71,.58,5.23,.69,10.47,.48,15.7-.24,5.87-.31,11.73,.05,17.59,.03,.56,.06,1.13,.03,1.68-.18,2.78-.45,2.97-3.23,2.79-1.68-.11-3.37-.08-5.05-.08-31.27,.03-62.55-.11-93.82,.14-26.46,.21-52.93,.17-79.39,.13-32.39-.04-64.79-.18-97.18-.32-13.73-.06-27.46-.25-41.19-.29-1.71,0-2.27-.56-2.23-2.17,.07-2.62-.1-5.25,.04-7.86,.48-8.74,.47-17.47,.02-26.21-.14-2.74,.17-3.38,3.06-3.38,4.24,0,8.49-.05,12.73-.05,47.5-.02,95-.04,142.51-.07,.94,0,1.87,0,2.81,0,0,.15,0,.29,0,.44Z"/>
  <path d="M201.54,339.29c41.51,0,83.01-.02,124.52,.01,11.36,0,22.71,.18,34.07,.22,1.31,0,1.8,.37,1.95,1.72,.58,5.23,.69,10.47,.48,15.7-.24,5.81-.31,11.61,.04,17.41,.03,.56,.07,1.12,.04,1.68-.11,2.86-.47,3.14-3.25,2.96-1.62-.1-3.24-.08-4.87-.07-31.33,.03-62.67-.11-94,.14-26.34,.21-52.68,.17-79.01,.13-32.52-.04-65.04-.18-97.55-.32-13.79-.06-27.58-.23-41.37-.31-1.33,0-2.05-.24-2-1.79,.08-2.74-.13-5.5,.02-8.24,.47-8.74,.46-17.47,.02-26.21-.14-2.75,.18-3.36,3.07-3.37,4.24,0,8.49-.05,12.73-.05,48.38,0,96.75,0,145.13,0,0,.12,0,.25,0,.37Z"/>
  <path d="M201.54,548.42c41.51,0,83.01-.02,124.52,.01,11.36,0,22.71,.18,34.07,.22,1.32,0,1.8,.38,1.95,1.73,.58,5.23,.69,10.47,.48,15.7-.24,5.81-.31,11.61,.04,17.41,.03,.56,.06,1.12,.04,1.68-.11,2.86-.47,3.14-3.25,2.96-1.62-.1-3.24-.08-4.87-.07-31.33,.03-62.67-.11-94,.14-26.34,.21-52.68,.17-79.01,.13-32.52-.04-65.04-.18-97.55-.32-13.79-.06-27.58-.23-41.37-.31-1.33,0-2.05-.25-2-1.79,.08-2.74-.13-5.5,.02-8.24,.47-8.74,.46-17.47,.02-26.21-.14-2.76,.18-3.36,3.08-3.37,4.24,0,8.49-.05,12.73-.05,48.38,0,96.75,0,145.13,0,0,.12,0,.25,0,.37Z"/>
  <path d="M201.54,495.95c41.51,0,83.01-.02,124.52,.01,11.36,0,22.71,.18,34.07,.22,1.32,0,1.8,.38,1.95,1.72,.58,5.23,.69,10.47,.48,15.7-.24,5.81-.31,11.61,.04,17.41,.03,.56,.06,1.12,.04,1.68-.11,2.86-.47,3.14-3.25,2.96-1.62-.1-3.24-.08-4.87-.07-31.33,.03-62.67-.11-94,.14-26.34,.21-52.68,.17-79.01,.13-32.52-.04-65.04-.18-97.55-.32-13.79-.06-27.58-.23-41.37-.31-1.33,0-2.05-.25-2-1.79,.08-2.74-.13-5.5,.02-8.24,.47-8.74,.46-17.47,.02-26.21-.14-2.76,.18-3.36,3.07-3.37,4.24,0,8.49-.05,12.73-.05,48.38,0,96.75,0,145.13,0,0,.12,0,.25,0,.37Z"/>
  <path d="M201.75,643.62c41.44,0,82.89-.02,124.33,.01,11.36,0,22.71,.18,34.07,.22,1.34,0,1.79,.42,1.93,1.74,.57,5.23,.7,10.47,.47,15.7-.25,5.87-.3,11.73,.05,17.59,.04,.68,.08,1.38-.01,2.06-.35,2.59-.43,2.6-3.04,2.4-1.49-.11-2.99-.09-4.49-.09-31.58,.03-63.17-.11-94.75,.14-26.28,.21-52.55,.16-78.83,.13-32.52-.04-65.04-.18-97.55-.32-13.79-.06-27.58-.23-41.37-.31-1.36,0-2.03-.3-1.98-1.81,.07-2.68-.14-5.37,.01-8.05,.48-8.8,.47-17.59,.03-26.39-.14-2.79,.21-3.34,3.09-3.35,4.24-.01,8.49-.05,12.73-.05,47.5-.02,95-.04,142.51-.06,.94,0,1.87,0,2.81,0,0,.15,0,.29,0,.44Z"/>
  <path class="cls-40" d="M200.21,316.36c1.01,2.32,3.01,2.96,5.53,1.96,.74-.29,1.58-.91,2.07,.18,.51,1.12-.46,1.55-1.26,1.88-4.8,1.97-9.24-1-8.71-5.8,.29-2.64,2.85-4.89,5.54-4.86,2.65,.02,4.92,2.01,5.31,4.62,.21,1.39-.2,2.12-1.77,2.05-2.17-.09-4.35-.02-6.7-.02Z"/>
  <path class="cls-10" d="M233.86,309.62c1.27,.08,2.79,.63,3.95,2.03,.45,.55,.69,1.06,.1,1.63-.58,.56-1.15,.38-1.62-.14-.84-.96-1.88-1.39-3.14-1.33-.59,.03-1.14,.1-1.25,.83-.11,.75,.4,.97,.98,1.11,1.02,.25,2.06,.45,3.08,.73,1.38,.39,2.29,1.27,2.39,2.76,.1,1.54-.82,2.41-2.13,2.95-1.4,.59-2.8,.85-4.35,.42-1.58-.43-2.2-1.47-2.5-2.91-.15-.71-.02-1.27,.72-1.49,.76-.23,1.12,.26,1.39,.88,.67,1.59,2.73,2.13,4.16,1.12,.34-.24,.57-.54,.52-.91-.06-.46-.41-.77-.86-.89-.96-.24-1.94-.4-2.89-.67-2.14-.62-2.96-1.68-2.67-3.39,.3-1.8,1.57-2.76,4.12-2.72Z"/>
  <path class="cls-10" d="M179.13,309.61c3.17,.05,5.22,2.15,5.2,5.33-.02,3.16-2.54,5.9-5.37,5.85-2.56-.05-4.73-2.7-4.71-5.77,.02-3.14,2.1-5.45,4.88-5.4Z"/>
  <path class="cls-10" d="M169.41,312.2c0-.62,0-1.24,0-1.87-.02-1.26,.3-2.73-1.89-2.34-.61,.11-1.19-.42-1.12-1.2,.06-.66,.52-.93,1.17-.93,1.68,0,3.36,0,5.04,0,.64,0,1.12,.21,1.2,.88,.09,.76-.42,1.29-1.07,1.24-1.46-.1-1.19,.83-1.18,1.67,.03,2.61,.21,5.24-.43,7.81-.57,2.29-2.48,3.58-4.89,3.38-1.86-.15-3.03-1.38-3.35-3.39-.12-.77-.1-1.4,.79-1.56,.74-.13,1.15,.25,1.26,1.01,.16,1.08,.58,1.89,1.9,1.8,1.33-.09,2.02-.79,2.23-2.07,.06-.37,.22-.72,.24-1.09,.08-1.12,.12-2.24,.18-3.36-.03,0-.06,0-.09,0Z"/>
  <path class="cls-10" d="M195.55,315.35c0,1.37,.02,2.75,0,4.12-.02,1.11-.84,1.91-1.62,1.16-.85-.82-1.28-.42-1.94-.11-1.68,.79-3.09,.27-4.12-1.1-2.05-2.75-1.58-5.91-1.17-9.01,.07-.5,.59-.86,1.14-.74,.6,.13,.96,.58,.92,1.23-.06,1.18-.23,2.36-.22,3.54,0,.8,.1,1.63,.36,2.38,.34,1.01,.83,1.97,2.23,1.81,1.4-.17,2.16-1,2.24-2.31,.1-1.74,.03-3.49,.02-5.23,0-.76,.14-1.44,1.05-1.44,.87,0,1.12,.63,1.12,1.4,0,1.44,0,2.87,0,4.31Z"/>
  <path class="cls-40" d="M219.59,315.36c0,1.43,.03,2.87,0,4.3-.02,.94-.86,1.65-1.41,1.05-.94-1.02-1.56-.39-2.34-.09-1.65,.64-2.96,.05-3.92-1.28-1.97-2.72-1.46-5.82-1.14-8.85,.05-.49,.52-.9,1.09-.84,.64,.08,.96,.5,.94,1.17-.04,1.25-.1,2.5-.12,3.74-.01,.81,.01,1.62,.35,2.39,.42,.94,.84,1.8,2.14,1.68,1.24-.12,1.92-.82,2.24-1.93,.39-1.35,.14-2.73,.12-4.1,0-.56-.04-1.12-.03-1.68,0-.68,.21-1.27,1.02-1.29,.79-.02,1.07,.52,1.07,1.23,0,1.5,0,2.99,0,4.49,0,0,0,0,0,0Z"/>
  <path class="cls-40" d="M222.41,315.2c0-1.43,0-2.86,0-4.29,0-.58,.12-1.14,.83-1.26,.55-.09,1.06,.09,1.15,.67,.16,.98,.52,.42,.9,.2,.77-.45,1.62-.62,2.51-.5,.62,.08,1.05,.39,1.07,1.07,.02,.7-.44,.98-1.05,1.08-.37,.06-.75,.03-1.11,.08-1.41,.18-2.26,.81-2.18,2.41,.08,1.61,.03,3.23,.02,4.85,0,.76-.21,1.41-1.14,1.34-.81-.06-.93-.68-.93-1.35,0-1.43,0-2.86,0-4.29h-.08Z"/>
  <path d="M201.77,147.4c41.44,0,82.89-.02,124.33,.01,11.36,0,22.71,.18,34.07,.23,1.18,0,1.72,.25,1.88,1.57,.63,5.22,.72,10.46,.51,15.7-.24,5.99-.3,11.98,.05,17.97,.04,.62,.07,1.26-.02,1.87-.36,2.58-.42,2.57-3.06,2.38-1.62-.12-3.24-.09-4.87-.09-31.4,.03-62.8-.11-94.19,.14-26.28,.21-52.55,.17-78.83,.13-32.58-.04-65.16-.18-97.74-.32-13.79-.06-27.58-.24-41.37-.3-1.4,0-2-.37-1.96-1.84,.06-2.62-.14-5.25,0-7.86,.49-8.86,.49-17.72,.03-26.58-.12-2.31,.04-3.35,2.93-3.32,4.3,.04,8.61-.06,12.92-.06,47.44-.03,94.88-.04,142.32-.07,1,0,2,0,3,0,0,.15,0,.29,0,.44Z"/>
  <path d="M200.43,274.2c-18.16,0-36.33,.04-54.49,0-22.72-.06-45.44-.18-68.15-.3-11.67-.06-23.34-.22-35.01-.24-1.7,0-2.28-.53-2.23-2.17,.07-2.62-.1-5.25,.04-7.86,.48-8.74,.47-17.47,.02-26.21-.14-2.74,.16-3.39,3.06-3.39,4.31,0,8.61-.05,12.92-.05,47.31-.02,94.63-.11,141.94-.05,42.57,.06,85.13,.26,127.7,.43,11.29,.04,22.59,.18,33.88,.23,1.29,0,1.81,.33,1.97,1.7,.58,5.23,.69,10.47,.48,15.7-.24,5.87-.31,11.73,.05,17.59,.03,.56,.06,1.13,.03,1.68-.18,2.79-.45,2.97-3.23,2.8-1.68-.11-3.37-.08-5.05-.08-31.27,.03-62.55-.06-93.82,.13-20.03,.12-40.07,.24-60.1,.09Z"/>
  <path d="M46.79,71.74c1.81,1.76,3.56,3.41,5.26,5.12,1.8,1.8,1.71,2.82-.32,4.87-1.99,2-3.04,2.08-4.87,.26-4.07-4.05-8.11-8.11-12.16-12.19-1.61-1.62-1.63-2.89-.04-4.49,4.09-4.11,8.19-8.22,12.31-12.29,1.77-1.75,2.79-1.59,5,.62,1.74,1.75,1.79,2.91,.1,4.61-1.7,1.72-3.46,3.4-5.57,5.47,2.63,0,4.77,0,6.91,0,2.24,0,4.49,0,6.73,0,.5,0,1.03-.03,1.48,.14,1.33,.49,1.87,2.72,1.41,5.4-.25,1.48-1.13,2.14-2.58,2.14-3.87,0-7.73-.01-11.6,.01-.59,0-1.22-.19-2.07,.32Z"/>
  <path d="M250.4,76.91c0,1.74,0,3.36,0,4.97,0,1.01-.41,1.73-1.51,1.72-1.23,0-1.56-.9-1.55-1.91,.04-6.11,.11-12.22,.16-18.33,0-.72,.14-1.39,.87-1.72,.77-.36,1.35-.03,1.72,.64,.28,.51,.5,.44,.99,.24,3.82-1.58,6.4-1.08,8.45,1.58,2.45,3.17,2.63,7.61,.44,10.63-1.9,2.62-5.44,3.51-8.85,2.23-.11-.04-.24-.02-.72-.04Z"/>
  <path d="M224.32,71.25c.53,2.13,1.72,3.09,4.01,3.34,1.65,.18,3.2-.17,4.67-.97,.79-.43,1.64-.33,2.11,.53,.45,.83,.14,1.55-.58,2.13-2.54,2.04-8.63,1.75-11.23-.53-2.77-2.43-3.35-6.77-1.36-10.08,1.69-2.81,5.15-4.35,8.35-3.71,3.19,.64,5.59,3.2,6.1,6.51,.31,2-.33,2.77-2.36,2.78-3.23,.01-6.46,0-9.72,0Z"/>
  <path d="M311.72,71.25c1.33,3.16,4.58,4.2,7.99,2.8,.4-.16,.77-.41,1.18-.54,.72-.23,1.37-.08,1.79,.59,.48,.76,.23,1.44-.35,2.02-1.78,1.78-7.31,2.05-10.13,.51-2.92-1.6-4.41-5.05-3.64-8.45,.79-3.47,3.68-6.07,6.98-6.29,4.34-.28,7.64,2.23,8.45,6.46,.39,2.02-.33,2.89-2.41,2.9-3.23,0-6.45,0-9.86,0Z"/>
  <path d="M159.75,71.25c-1.5,0-2.99-.02-4.49,.01-.4,0-.95-.22-1.19,.23-.27,.52,.18,.96,.48,1.32,1.61,1.9,3.74,2.05,5.97,1.62,.77-.15,1.5-.56,2.24-.86,.77-.31,1.53-.27,1.99,.46,.5,.78,.33,1.58-.42,2.15-2.53,1.93-9.08,2.31-11.89-1.01-2.92-3.47-2.54-8.63,.98-11.51,3.46-2.83,8.34-2.32,11.13,1.14,.98,1.22,1.37,2.66,1.63,4.12,.27,1.47-.56,2.3-2.13,2.33-1.43,.03-2.87,0-4.3,0Z"/>
  <path d="M111.57,76.12c-3.03,2.06-6.43,2.02-8.81-.06-2.42-2.12-2.95-5.18-1.34-8.52,1.52-3.16,3.59-5.78,7.42-6,3.06-.18,4.98,1.61,5.5,4.61,.57,3.29,.15,6.61,.36,9.9,.05,.78-.34,1.37-1.09,1.53-1.13,.24-1.71-.48-2.04-1.46Z"/>
  <path d="M274.85,76.13c-2.89,2.01-6.26,2.02-8.64,.04-2.49-2.07-3.12-5.18-1.55-8.48,1.52-3.21,3.58-5.94,7.52-6.16,3.06-.17,4.97,1.62,5.49,4.62,.57,3.29,.15,6.61,.36,9.91,.05,.78-.35,1.35-1.1,1.52-1.16,.26-1.67-.56-2.07-1.45Z"/>
  <path class="cls-40" d="M207.63,63.7c.57-.46,.93-.79,1.33-1.08,3.49-2.53,7.76-.95,8.7,3.24,.78,3.48,.11,6.96-.05,10.44-.04,.83-.64,1.35-1.53,1.3-.99-.05-1.46-.65-1.43-1.6,.06-1.56,.13-3.12,.28-4.67,.14-1.51,.09-3-.25-4.46-.48-2.05-1.97-2.79-3.96-2.03-2.34,.89-3.04,1.92-3,4.4,.04,2.06,.09,4.12,.1,6.17,0,1.04-.1,2.13-1.47,2.18-1.47,.05-1.64-1.01-1.65-2.17-.02-3.87-.06-7.74-.1-11.61-.01-1.04-.01-2.12,1.32-2.28,1.36-.16,1.79,.76,1.72,2.17Z"/>
  <path class="cls-40" d="M121.44,63.81c1.28-1.32,2.47-2.09,3.94-2.28,3.19-.41,5.5,1.33,6.12,4.61,.63,3.36,.03,6.71-.1,10.06-.03,.91-.65,1.49-1.63,1.41-1.12-.09-1.4-.88-1.37-1.85,.07-2.67,.53-5.33,.19-8.01-.28-2.24-1.38-3.4-3.08-3.22-2.12,.22-4.09,2.18-4.06,3.99,.05,2.37,.08,4.73,.09,7.1,0,.99-.16,1.96-1.43,1.99-1.32,.03-1.64-.85-1.64-1.99,0-3.93-.03-7.85-.06-11.78,0-1.02-.09-2.14,1.27-2.3,1.43-.17,1.79,.82,1.76,2.27Z"/>
  <path class="cls-40" d="M200.69,69.71c0,1.93,0,3.86,0,5.79,0,.86-.17,1.68-1.05,2.01-.87,.33-1.58,.08-1.9-.91-.18-.55-.48-.31-.85-.15-5.04,2.18-8.4,.1-9.13-5.74-.3-2.41-.14-4.85,.13-7.27,.12-1.05,.56-1.93,1.7-1.79,1.19,.14,1.53,1.09,1.38,2.24-.34,2.53-.61,5.08,.09,7.6,.61,2.16,1.77,3.25,3.18,3.09,1.95-.23,3.46-1.83,3.5-3.96,.05-2.36-.03-4.73-.11-7.1-.04-1.07,.2-1.92,1.41-1.98,1.19-.06,1.64,.8,1.66,1.82,.05,2.12,.02,4.24,.02,6.35h-.03Z"/>
  <path class="cls-40" d="M142.17,77.62c-5.31-.05-8.5-4.31-7.16-9.56,.98-3.86,3.88-6.59,6.92-6.56,2.32,.02,3.96,1.26,5.36,2.95,.44,.53,.48,1.14,.09,1.73-.45,.67-1.13,.76-1.82,.54-.34-.11-.63-.38-.91-.62-2.54-2.21-4.59-1.77-6.09,1.29-1.85,3.77-.41,6.86,3.34,7.21,2.04,.19,3.11-.6,3.42-2.64,.15-.98,.68-1.46,1.61-1.44,1.02,.03,1.32,.77,1.42,1.65,.33,3.02-2.46,5.48-6.17,5.45Z"/>
  <path class="cls-40" d="M85.84,66.76c0-2.93,0-5.86,0-8.79,0-1.11,.24-2.07,1.57-2.06,1.38,.01,1.46,1.04,1.47,2.12,.08,5.05,.24,10.09,.25,15.14,0,1.29,.43,1.52,1.58,1.49,2.55-.08,5.11,.02,7.66-.04,1.13-.03,1.89,.38,1.91,1.51,.01,1.16-.8,1.53-1.9,1.52-3.43-.03-6.86-.04-10.28,0-1.37,.02-1.93-.62-1.93-1.91,0-2.99,0-5.98,0-8.96-.11,0-.21,0-.32,0Z"/>
  <path class="cls-40" d="M290.78,62.86c1.69-.63,2.96-1.5,2.59-3.66-.19-1.08,.18-2.1,1.47-2.15,1.36-.06,1.54,.95,1.51,2.06-.03,1.2-.48,2.64,1.66,2.58,.55-.02,.98,.78,.88,1.47-.1,.73-.51,1.41-1.3,1.32-1.5-.18-1.4,.71-1.38,1.7,.05,1.93,.12,3.87,.05,5.8-.05,1.36,.45,2.07,1.81,2.31,1.02,.18,1.95,.63,1.78,1.94-.1,.79-.72,1.2-1.43,1.26-2.38,.23-4.78-1.82-5.08-4.23-.3-2.36-.25-4.73-.22-7.1,.02-1.68-1.32-1.64-2.38-2-.35-.45-.36-.88,.05-1.29Z"/>
  <path class="cls-10" d="M44.1,127c0,2.36,0,4.38,0,6.41,0,.62,.04,1.25,0,1.87-.04,.59-.19,1.16-.94,1.16-.76,0-.91-.57-.93-1.16-.07-3.37-.14-6.74-.16-10.11,0-.61,.09-1.3,.82-1.53,.75-.23,1.12,.34,1.52,.83,2.14,2.65,3.98,5.52,6.19,8.3,0-2.58-.01-5.17,0-7.75,0-.7-.24-1.68,.93-1.64,.96,.03,.89,.89,.89,1.57,0,3.31,0,6.62-.03,9.93,0,.61,0,1.32-.76,1.54-.74,.21-1.3-.07-1.73-.74-1.38-2.15-2.78-4.28-4.19-6.41-.46-.7-.97-1.37-1.61-2.26Z"/>
  <path class="cls-10" d="M42.05,217.57c0-1.62,.05-3.24-.02-4.85-.04-1.06,.37-1.68,1.39-1.84,2.77-.44,5.54-.5,7.66,1.67,1.97,2.01,2.13,4.54,1.34,7.15-.84,2.78-3.1,4.45-6.17,4.45-4.4,0-4.34,.72-4.14-4.14,.03-.81,0-1.62,0-2.43-.02,0-.04,0-.06,0Z"/>
  <path class="cls-40" d="M172.14,63.36c1.33-.93,2.61-1.63,4.21-1.49,1.03,.09,1.9,.34,1.94,1.54,.04,1.26-.8,1.51-1.88,1.48-1.07-.02-2.12,.17-3.03,.76-.88,.57-1.4,1.37-1.36,2.5,.09,2.37,.14,4.73,.19,7.1,.02,1.09-.03,2.27-1.49,2.34-1.49,.08-1.63-1.07-1.64-2.19-.03-3.93-.04-7.86-.08-11.79,0-1,.1-1.94,1.32-2.09,1.25-.16,1.67,.7,1.81,1.83Z"/>
  <path class="cls-40" d="M290.78,62.86c-.02,.43-.04,.86-.05,1.29-.3,1.05-1.19,.69-1.87,.73-2.57,.17-4.59,1.31-4.13,4.44,.3,2.01,.11,4.1,.13,6.16,0,1.06-.14,2.1-1.51,2.11-1.34,.01-1.57-.96-1.57-2.06,0-3.92-.03-7.85-.05-11.77,0-1.03-.06-2.1,1.33-2.25,1.28-.13,1.65,.77,1.78,1.84,2.76-1.9,4.55-2.04,5.94-.51Z"/>
  <path class="cls-10" d="M65.34,131.48c0-1.18,0-2.37,0-3.55,0-.6,.33-1.45,.85-1.14,1.79,1.05,4.09-1.31,5.65,.97,.35,.51,.7-.26,1.03-.45,2.51-1.48,4.86-.34,5.08,2.57,.14,1.8,.1,3.62,.13,5.43,0,.52-.08,1.04-.72,1.13-.73,.11-1.07-.39-1.1-.99-.08-1.62-.04-3.24-.11-4.86-.04-.9,.09-2.11-1.33-1.96-1.22,.13-2.29,.69-2.28,2.2,0,1.43,.04,2.87,.08,4.3,.02,.7-.14,1.3-.96,1.3-.73,0-.85-.59-.87-1.19-.06-1.68-.1-3.36-.2-5.04-.05-.81-.08-1.74-1.3-1.61-1.1,.12-1.9,.68-1.95,1.86-.06,1.31,.05,2.62,0,3.93-.03,.81,.25,2.03-1.03,2.01-1.2-.02-.79-1.18-.83-1.91-.06-1-.01-2-.01-3-.04,0-.07,0-.11,0Z"/>
  <path class="cls-40" d="M129.96,133.33c0-1.81-.04-3.62,.01-5.42,.03-1,.45-1.7,1.43-.73,.51,.51,.75,.13,1.08-.05,.87-.48,1.79-.56,2.7-.27,2.21,.7,3.65,3.8,3.01,6.37-.57,2.27-2.69,3.74-5.13,3.21-1.4-.31-1.29,.25-1.34,1.21-.04,.93,.56,2.54-1.05,2.46-1.39-.07-.72-1.59-.78-2.48-.1-1.42-.03-2.86-.03-4.29,.03,0,.06,0,.09,0Z"/>
  <path class="cls-10" d="M93.56,217.64c0,1.68,0,3.36,0,5.04,0,1.13-.29,2.02-1.6,1.12-.54-.37-.8,0-1.13,.11-1.77,.61-3.32,.3-4.53-1.14-1.37-1.62-1.56-4.26-.46-6.14,.97-1.66,2.47-2.58,4.36-2.11,1.33,.33,1.48-.11,1.36-1.18-.05-.43-.04-.87,0-1.31,.05-.54,.3-.97,.92-.97,.63,0,.86,.42,.86,.98,0,1.86,0,3.73,0,5.59,.07,0,.13,0,.2,0Z"/>
  <path class="cls-10" d="M119.4,217.7c0,1.74,.03,3.49,0,5.23-.02,1.01-.5,1.67-1.49,.95-.49-.35-.75-.16-1.11-.03-1.82,.7-3.43,.4-4.68-1.13-1.36-1.65-1.52-4.28-.39-6.14,1-1.65,2.51-2.53,4.4-2.05,1.23,.31,1.41-.03,1.3-1.06-.04-.37-.01-.75,0-1.12,0-.68,.15-1.3,.99-1.27,.76,.02,.81,.64,.82,1.22,0,1.8,0,3.6,0,5.41,.06,0,.13,0,.19,0Z"/>
  <path class="cls-10" d="M93.07,129.92c0,1.74,.02,3.49,0,5.23-.02,1.08-.4,1.84-1.55,.94-.46-.36-.69-.04-.96,.06-1.82,.67-3.43,.43-4.71-1.09-1.36-1.63-1.51-4.26-.43-6.14,.97-1.69,2.59-2.57,4.56-2.06,1.26,.33,1.2-.19,1.15-1.03-.02-.43,0-.87,0-1.31,0-.63,.22-1.14,.93-1.15,.73-.01,.89,.52,.89,1.14,0,1.8,0,3.61,0,5.41,.05,0,.09,0,.14,0Z"/>
  <path class="cls-10" d="M96.96,132.7c1.28,2,2.6,2.38,4.78,1.56,.69-.26,1.49-.78,1.86,.27,.35,.96-.52,1.3-1.22,1.53-2.1,.7-4.2,.79-5.97-.78-1.49-1.33-1.82-3.06-1.23-4.96,.67-2.17,2.61-3.4,5.06-3.24,2.05,.14,3.6,1.61,4.05,3.76,.26,1.28-.16,1.89-1.51,1.87-1.86-.03-3.72,0-5.81,0Z"/>
  <path class="cls-10" d="M132.51,217.61c0-1.74,0-3.48,0-5.22,0-.66,.12-1.31,.96-1.31,.71,0,.89,.56,.91,1.17,.01,.37,.06,.75,.04,1.12-.06,1-.05,1.57,1.36,1.16,1.66-.49,3.03,.41,3.91,1.85,1.22,1.99,1.5,4.07,.25,6.17-.97,1.63-2.55,1.83-4.24,1.6-.7-.09-1.3-.36-2.11-.08-1.1,.37-1.07-.68-1.08-1.42-.02-1.68,0-3.36,0-5.04h0Z"/>
  <path class="cls-40" d="M97.38,220.4c1.3,2,2.62,2.38,4.8,1.56,.7-.26,1.5-.78,1.87,.25,.34,.95-.53,1.26-1.22,1.55-2.46,1-5.31,.36-6.59-1.49-1.26-1.81-1.08-4.4,.43-6.04,1.37-1.48,3.12-1.81,4.96-1.31,1.85,.51,2.81,1.98,3.17,3.81,.21,1.05-.24,1.67-1.41,1.66-1.92-.02-3.85,0-6,0Z"/>
  <path class="cls-40" d="M71.58,220.4c1.21,1.99,2.54,2.38,4.72,1.58,.68-.25,1.5-.84,1.88,.21,.38,1.06-.59,1.33-1.35,1.62-2.47,.93-5.16,.3-6.43-1.49-1.23-1.75-1.12-4.25,.27-5.9,1.36-1.62,3.15-2,5.07-1.49,1.86,.49,2.83,1.95,3.2,3.78,.24,1.19-.33,1.73-1.55,1.71-1.87-.04-3.74,0-5.81,0Z"/>
  <path class="cls-40" d="M168.51,132.7c1.17,1.99,2.49,2.37,4.69,1.58,.65-.23,1.44-.87,1.85,.24,.37,.99-.5,1.26-1.17,1.54-2.91,1.22-6.09,.13-7.14-2.42-1.01-2.46,.22-5.29,2.74-6.29,2.83-1.12,5.9,.66,6.3,3.61,.16,1.16-.2,1.78-1.47,1.75-1.86-.04-3.73-.01-5.8-.01Z"/>
  <path class="cls-40" d="M123.19,220.42c1.28,1.87,2.72,2.36,4.86,1.75,.68-.19,1.4-.59,1.75,.26,.4,.98-.52,1.24-1.19,1.51-2.72,1.09-6.41-.41-7.18-2.88-.81-2.62,.71-5.29,3.47-6.06,2.47-.69,5.45,1.3,5.84,3.85,.18,1.14-.24,1.61-1.39,1.59-1.98-.04-3.95-.01-6.16-.01Z"/>
  <path class="cls-19" d="M305.16,69.72c0,1.93,0,3.87,0,5.8,0,1-.15,1.97-1.36,2.08-1.32,.12-1.74-.78-1.74-1.91,.03-4.18,.08-8.36,.15-12.54,.01-.91,.42-1.59,1.43-1.62,1.1-.04,1.59,.65,1.61,1.64,.04,2.18,.01,4.37,.01,6.55-.04,0-.07,0-.11,0Z"/>
  <path class="cls-10" d="M148.27,133.27c0,.62,.02,1.24,0,1.86-.05,1.24-.55,1.88-1.66,.87-.55-.5-.75-.04-1.07,.09-1.71,.73-3.31,.55-4.64-.73-1.37-1.31-1.44-2.94-.78-4.64,.63-1.61,1.59-2.93,3.22-3.67,2.18-.99,4.38,.18,4.67,2.51,.15,1.23,.22,2.47,.33,3.7-.02,0-.04,0-.06,0Z"/>
  <path class="cls-10" d="M62.47,220.91c0,.56,0,1.12,0,1.68,0,1.35-.3,2.24-1.75,1.02-.56-.47-.76,.13-1.09,.25-1.59,.6-3.06,.44-4.36-.63-1.37-1.12-1.59-2.67-1.17-4.24,.39-1.45,1.19-2.72,2.43-3.66,2.58-1.95,5.37-.79,5.75,2.42,.12,1.05,.17,2.1,.25,3.15-.02,0-.04,0-.06,0Z"/>
  <path class="cls-10" d="M122.78,133.2c0,.56,0,1.12,0,1.68,0,1.34-.28,2.26-1.74,1.04-.57-.48-.76,.12-1.09,.24-1.58,.6-3.06,.44-4.36-.62-1.37-1.11-1.59-2.66-1.18-4.24,.38-1.45,1.18-2.73,2.42-3.66,1.16-.87,2.37-1.22,3.81-.65,1.43,.56,1.9,1.64,1.96,3.06,.04,1.05,.15,2.1,.23,3.15-.02,0-.04,0-.06,0Z"/>
  <path class="cls-10" d="M58.94,126.71c2.76,.03,4.5,1.8,4.49,4.57,0,2.75-1.98,4.94-4.49,4.96-2.28,.02-4.16-2.13-4.14-4.82,.02-2.47,1.87-5.17,4.14-4.71Z"/>
  <path class="cls-10" d="M150.24,219.39c0,1.12,.01,2.24,0,3.36-.02,1.19-.39,2-1.64,.98-.51-.42-.74-.11-1.11,.03-2.09,.79-3.39,.27-4.39-1.75-1.02-2.07-.76-4.25-.54-6.42,.06-.59,.4-1.14,1.09-1,.66,.13,.77,.7,.73,1.32-.06,1.18-.25,2.38-.09,3.54,.17,1.23,.28,2.88,2.08,2.79,1.73-.09,2.12-1.45,2.06-2.98-.04-1.18-.03-2.37-.04-3.55,0-.68,.13-1.3,.98-1.26,.71,.03,.87,.59,.87,1.2,0,1.25,0,2.49,0,3.74Z"/>
  <path class="cls-19" d="M156.87,223.07c-.11,.56-.42,.9-.99,.95-1.31,.12-2.84-1.12-2.98-2.52-.11-1.17-.06-2.36-.09-3.55-.02-.66,.2-1.4-.72-1.7-.33-.11-.51-.61-.35-.76,.96-.92,1.2-2.09,1.39-3.32,.06-.38,.56-.46,.95-.37,.5,.12,.69,.5,.66,.98-.06,.87-.11,1.57,1.09,1.86,.67,.16,.55,1.04-.06,1.5-1.72,1.32-1.57,5.11,.28,6.04,.42,.21,.75,.41,.83,.88Z"/>
  <path class="cls-19" d="M156.19,127.68c.61-.76,1.53-1.32,1.23-2.58-.14-.6,.32-1.07,1.03-1,.64,.06,.78,.52,.78,1.07,.01,.75-.29,1.51,1,1.74,.78,.14,.74,1.35-.06,1.51-1.25,.25-.98,1.02-.99,1.77-.01,.75,.03,1.5-.01,2.25-.05,1,.04,1.84,1.29,2.05,.59,.1,1.09,.45,.81,1.17-.23,.6-.67,.69-1.36,.55-1.64-.34-2.55-1.18-2.56-2.9,0-1-.15-2.01-.02-2.99,.13-1.03-.33-1.58-1.12-2.02-.16-.2-.17-.4-.02-.61Z"/>
  <path class="cls-19" d="M65.54,211.81c.67-.05,1.24,.21,1.1,.47-.91,1.79,2.53,2.69,1.3,3.5-2.4,1.58-.75,3.53-1.19,5.22-.25,.97,.81,.92,1.36,1.2,.49,.24,.94,.49,.74,1.09-.2,.59-.62,.77-1.32,.63-1.62-.32-2.59-1.14-2.65-2.85-.04-1.12,0-2.25-.04-3.37-.01-.52,.21-1.17-.58-1.38-.06-.02-.12-.05-.17-.08-.36-.25-.48-.9-.31-.94,1.95-.47,.32-2.96,1.77-3.49Z"/>
  <path class="cls-19" d="M110.86,130.09c0-1.8,0-3.6,0-5.4,0-.65,.06-1.33,.92-1.32,.84,0,.95,.65,.95,1.32,0,3.42,.01,6.83,0,10.25,0,.7-.03,1.49-.97,1.5-1.01,.01-.88-.81-.88-1.5,0-1.61,0-3.23,0-4.84-.01,0-.02,0-.03,0Z"/>
  <path class="cls-29" d="M156.19,127.68c0,.2,.02,.41,.02,.61-.4,.24-.66,.62-1.24,.69-2.59,.33-2.6,.38-2.6,3.02,0,1.12,.01,2.25-.02,3.37-.01,.63-.28,1.11-1.01,1.06-.65-.04-.78-.53-.79-1.07-.03-2.56-.06-5.11-.06-7.67,0-.53,.47-1.27,.81-.93,1.23,1.24,2.52,.16,3.74,.34,.4,.06,.76,.37,1.14,.56Z"/>
  <path class="cls-13" d="M73.62,33.56c.75-.93,1.36-1.72,2.01-2.46,.51-.58,.91-.38,.94,.33,.05,1.68,.03,3.36,0,5.04,0,.27-.09,.67-.51,.63-.42-.04-.39-.4-.39-.7,0-1.11,0-2.21,0-3.37-1.06,.3-1.01,1.8-1.95,1.83-1,.04-1.06-1.41-2.19-1.85,0,1.11,0,2.12,0,3.14,0,.43,.02,.97-.6,.93-.49-.03-.43-.52-.44-.88-.01-1.49-.02-2.98,0-4.48,0-.34-.16-.79,.36-.91,.43-.1,.67,.23,.91,.52,.59,.72,1.2,1.43,1.88,2.24Z"/>
  <path class="cls-9" d="M164.48,131.7c0,1.18,0,2.36,0,3.53,0,.6-.11,1.16-.84,1.21-.71,.05-1-.41-1-1.05,0-2.54,.02-5.08,.04-7.63,0-.56,.26-.98,.85-1.02,.72-.05,.99,.43,1,1.05,.02,1.3,0,2.6,0,3.9-.02,0-.03,0-.05,0Z"/>
  <path class="cls-7" d="M43.92,33.89c.02,2.02-.85,3.27-2.26,3.26-1.39-.01-2.31-1.32-2.3-3.26,.01-1.88,.86-3.1,2.2-3.14,1.49-.04,2.34,1.09,2.36,3.15Z"/>
  <path class="cls-3" d="M343.51,31.88c-.84-.46-1.09-.88-.15-1.6,2.31-1.77,6.01-1.83,8.34-.01,.29,.23,.91,.38,.63,.94-.28,.57-.75,.79-1.34,.33-1.82-.54-3.64-1.03-5.52-.34-.65,.25-1.27,.56-1.96,.68Z"/>
  <path class="cls-25" d="M367.17,35.34c-2.98,.73-6.07,.55-8.99,.16-1.78-.24-.48-2.56-.76-3.91-.14-.7-.37-1.85,.85-1.89,2.74-.1,5.48-.06,8.22-.02,.94,.01,.99,.76,1,1.48-.07,.39-.05,.86-.66,.79-.79-.78-1.73-1.1-2.85-1.05-1.73,.07-3.46-.05-5.18,.07-1.05,1.04-.51,2.25-.36,3.41,.12,.12,.25,.22,.41,.3,2.46,.18,4.92,.08,7.39,.05,.2-.03,.39-.04,.59-.02,.29,.11,.55,.24,.34,.62Z"/>
  <path class="cls-3" d="M69.55,36.47c.09,.4-.02,.59-.31,.65-.38,.08-.5-.18-.68-.46-1.29-1.97-2.15-1.97-3.31,0-.17,.29-.28,.58-.65,.46-.56-.17-.3-.57-.18-.9,.6-1.62,1.21-3.24,1.81-4.87,.24-.64,.75-.86,1.05-.25,.86,1.78,1.56,3.64,2.27,5.36Z"/>
  <path d="M336.42,32.47c0-1.11,0-2.23,0-3.34,0-.48-.1-.98,.69-.99,.69,0,.82,.29,.81,.89-.02,2.41-.02,4.83,0,7.24,0,.58-.08,.91-.79,.9-.78,0-.71-.48-.71-.98,0-1.24,0-2.48,0-3.71Z"/>
  <path class="cls-36" d="M53.98,30.77c.12,0,.26-.03,.37,0,.49,.13,1.35-.34,1.4,.4,.05,.77-.83,.44-1.32,.51-.57,.08-1.38-.23-1.4,.74-.02,.97,.8,.47,1.24,.6,1.09,.31,1.67,1.03,1.71,2.15,.04,1-.5,1.68-1.43,1.92-.86,.23-1.76,.22-2.3-.71-.18-.31-.48-.69-.1-1,.41-.33,.63,.04,.84,.36,.42,.64,.93,.76,1.57,.29,.46-.34,.66-.73,.41-1.28-.3-.65-.77-.88-1.5-.72-.57,.13-1.77,.96-1.51-.41,.18-.92-.95-2.96,1.45-2.88,.19,0,.37,0,.56,0Z"/>
  <path class="cls-36" d="M47.89,34.5c-1.33,.57-2.4,.62-3.07-.61-.46-.83-.38-1.71,.28-2.41,.89-.94,1.96-.87,3.07-.37,.29,.13,.6,.2,.6,.57,0,1.67-.02,3.34-.04,5.02,0,.27-.14,.49-.43,.49-.37,0-.56-.23-.54-.59,.03-.61,.08-1.22,.15-2.09Z"/>
  <path class="cls-13" d="M58.03,36.01c1.34,.47,2.57-.12,4.08,.71-1.82,.66-3.32,.6-4.73,.21-.72-.2-.57-1.02-.05-1.54,.66-.66,1.38-1.27,2.03-1.93,.42-.43,1.04-.96,.33-1.53-.59-.47-1.19-.07-1.54,.51-.2,.33-.15,1.03-.77,.69-.59-.32-.26-.93,0-1.32,.72-1.05,1.76-1.49,2.87-.74,1.13,.76,.91,1.82,.1,2.72-.66,.73-1.43,1.37-2.33,2.2Z"/>
  <path class="cls-29" d="M305.39,57.65c-.02,1.18-.5,1.91-1.64,1.96-1.23,.06-1.83-.67-1.84-1.84-.02-1.07,.49-1.82,1.62-1.88,1.24-.06,1.76,.7,1.85,1.75Z"/>
  <path class="cls-3" d="M350.67,31.82c.55,.41,.32,.83,0,1.24-1.59,.57-3-.7-4.55-.44-.74,.11-1.58,1.07-2.14-.27,.25-.81,.89-1.16,1.63-1.4,1.84-.6,3.58-.6,5.07,.86Z"/>
  <path d="M335.67,34.29c0,.74,0,1.48,0,2.22,0,.46-.2,.64-.66,.64-.47,0-.85-.02-.84-.65,.02-1.54,.02-3.08,0-4.62,0-.56,.21-.74,.76-.74,.57,0,.76,.21,.75,.75-.02,.8,0,1.6,0,2.4Z"/>
  <path class="cls-43" d="M127.37,211.68c-.42,.81-1.02,1.77-2.14,2.12-.51,.16-1.02-.32-.86-.9,.31-1.12,1.06-1.98,2.15-2.35,.47-.16,.94,.26,.84,1.14Z"/>
  <path class="cls-40" d="M333.42,35.31c0,.43,0,.86,0,1.29,0,.69-.57,.66-.9,.52-1.2-.49-.41-1.56-.54-2.35-.07-.44-.48-1.32,.6-1.37,.45-.02,.88-.03,.85,.62-.02,.43,0,.86,0,1.29Z"/>
  <path class="cls-26" d="M349.57,34.16c-1.15,.62-2.43-.36-3.6,.26-.05,.03-.51-.42-.5-.63,.03-.59,.64-.64,1.05-.86,1.71-.78,2.76-.36,3.05,1.23Z"/>
  <path class="cls-32" d="M164.69,124.55c-.17,.58-.42,1.05-1.1,1.04-.78,0-1.07-.51-1.04-1.2,.03-.61,.34-1.04,1.02-1.03,.79,0,.99,.58,1.11,1.19Z"/>
  <path class="cls-18" d="M350.67,31.82c-1.63-.97-3.35-1.25-5.18-.63-.37,.18-.47,0-.44-.34,2.1-.86,4.12-.91,5.94,.68-.11,.1-.22,.19-.33,.29Z"/>
  <path class="cls-40" d="M331.17,35.95c0,.68,.13,1.24-.77,1.21-1.08-.03-.64-.8-.72-1.3-.1-.64,.08-1.01,.86-.98,1,.05,.44,.8,.63,1.07Z"/>
  <path class="cls-45" d="M349.57,34.16c-.45-1.82-1.83-1.32-3.05-1.23-.14-.1-.27-.2-.41-.31,1.01-.65,2.04-.49,3.06-.04,.48,.21,.89,.66,1.49,.47-.37,.37-.73,.73-1.1,1.1Z"/>
  <path class="cls-40" d="M328.92,36.4c.07,.53-.15,.73-.7,.76-.68,.03-.8-.27-.8-.86,0-.62,.34-.65,.81-.66,.57-.02,.76,.24,.69,.77Z"/>
  <path class="cls-32" d="M367.14,31.85c.01-.29,.07-.55,.35-.69,.85,.99,.85,1.99,.04,3-.78,.08-.43-.51-.51-.84,.03-.49,.03-.98,.11-1.46Z"/>
  <path class="cls-34" d="M347.5,34.73c.29,.13,.87-.06,.8,.47-.04,.28-.49,.69-.75,.69-.25,0-.65-.42-.72-.72-.08-.35,.39-.35,.68-.44Z"/>
  <path class="cls-28" d="M367.43,33.25c.09,.3-.31,.65,.11,.91-.16,.38,.13,.9-.37,1.18-.14-.15-.28-.3-.42-.45-.48-.84-.56-1.52,.69-1.63Z"/>
  <path class="cls-4" d="M345.06,30.86c.15,.11,.29,.23,.44,.34-.51,.39-1.02,.77-1.52,1.16-.15-.16-.31-.32-.46-.48,.52-.34,1.03-.68,1.55-1.02Z"/>
  <path class="cls-30" d="M50.9,36.81c-.1,.34-.38,.39-.69,.33-.27-.05-.4-.24-.34-.51,.09-.35,.34-.46,.67-.34,.23,.08,.45,.19,.36,.52Z"/>
  <path class="cls-31" d="M49.86,33.08c0-.36,.15-.55,.42-.57,.33-.02,.61,.11,.6,.49,0,.3-.28,.38-.52,.39-.25,.01-.48-.08-.5-.32Z"/>
  <path d="M367.55,754.16c-.97,1.47-2.13,2.77-3.61,3.71-1.09,.69-1.59-.59-2.34-.99-.72-.39-1.16-1.2-2.28-.74-1.18,.47-1.12,1.37-1.17,2.26-.1,1.73-.61,2.93-2.69,2.47-.18-.04-.37,0-.56,0-3.58-.05-2.74,.45-3.41-2.89-.41-2.04-1.45-2.49-3.16-1.3-.77,.53-1.5,1.83-2.43,1.27-1.47-.88-2.81-2.12-3.59-3.7-.36-.72,.56-1.29,1-1.86,1.62-2.11,1.18-3.67-1.38-3.73-2.48-.06-2.61-1.25-2.53-3.17,.12-2.93,.03-2.93,2.86-3.39,2.15-.35,2.58-1.6,1.26-3.41-.51-.7-1.74-1.33-1.19-2.27,.87-1.49,2.08-2.87,3.69-3.59,.91-.4,1.43,.8,2.19,1.18,.65,.33,.98,1.17,2.07,.7,1.04-.44,1.12-1.11,1.22-2.01,.3-2.72,.33-2.72,3.02-2.72,.44,0,.88,.06,1.31-.01,1.52-.26,2.1,.46,2.25,1.88,.08,.78-.13,1.73,.5,2.32,1.02,.96,2.1,.76,3.02-.25,1.36-1.48,2.6-1.36,3.78,.22,.18,.25,.41,.47,.66,.66,1.52,1.17,1.81,2.36,.27,3.78-.66,.61-1.21,1.28-.66,2.42,.49,1.01,1.2,1.07,2.1,1.15,2.57,.25,2.57,.27,2.57,2.92,0,.5-.03,1,0,1.5,.09,1.24-.16,2.1-1.7,1.98-.54-.04-1.09,.2-1.65,.3-1.45,.27-1.94,1.58-1.07,2.82,.56,.8,1.38,1.43,1.69,2.49Z"/>
  <path d="M190.33,745.42c0-4.68-.01-9.36,0-14.04,0-1.76,.27-1.92,1.79-1.07,8.42,4.67,16.82,9.35,25.23,14.04,1.61,.9,1.61,1.22-.05,2.15-8.36,4.66-16.72,9.31-25.09,13.95-1.57,.87-1.89,.67-1.89-1.16,0-4.62,0-9.24,0-13.86Z"/>
  <path d="M125.44,761.92c-2.5,0-4.99,.03-7.49,0-3.73-.05-5.46-1.92-5.31-5.62,.09-2.19,.31-4.36,1.27-6.37,1.61-3.35,4.06-4.05,7.22-2.17,3.13,1.86,6.24,1.7,9.29-.24,2.35-1.5,4.71-1.04,6.21,1.37,1.75,2.81,2.2,5.96,1.82,9.18-.29,2.5-2.18,3.81-5.16,3.86-2.62,.04-5.24,0-7.86,0Z"/>
  <path d="M48.22,752.26c-1.08-3.91,.92-6.27,3.93-8.35,2.4-1.66,4.58-3.66,6.81-5.56,.62-.53,.98-.62,1.66-.05,3.28,2.78,6.61,5.51,9.96,8.22,.64,.52,.92,1.07,.9,1.91-.05,2.56-.05,5.12,0,7.68,.03,1.6-.63,2.25-2.25,2.16-1.87-.11-3.75-.07-5.62,0-.97,.03-1.32-.25-1.28-1.25,.08-1.68-.02-3.37,.04-5.06,.03-.98-.15-1.43-1.3-1.46-3.78-.08-3.78-.14-3.78,3.63,0,4.12,0,4.15-4.17,4.11-5.41-.05-4.87,.87-4.9-4.85,0-.37,0-.75,0-1.12Z"/>
  <path d="M66.2,737.03c0-.79,0-1.1,0-1.41,.02-3.53-.36-3.07,3.25-3.19,1.57-.05,2.2,.48,2.02,2.03-.06,.55,.06,1.13-.02,1.68-.57,3.63,.29,6.59,3.76,8.41,1.1,.58,.86,1.28,.1,2.06-.66,.69-1.04,1.48-2.19,.48-3.96-3.43-8.06-6.69-12.01-10.13-1.06-.92-1.64-.8-2.61,.04-3.88,3.34-7.85,6.56-11.74,9.88-.95,.81-1.54,.94-2.4-.14-.8-1-.81-1.55,.23-2.4,4.4-3.58,8.73-7.26,13.1-10.88,1.72-1.43,2.54-1.42,4.26,0,1.33,1.1,2.65,2.21,4.27,3.56Z"/>
  <path d="M132.64,740.59c.01,3.98-3.12,7.15-7.07,7.14-3.92,0-7.13-3.24-7.1-7.16,.03-3.84,3.19-7.02,7.02-7.05,3.96-.04,7.14,3.1,7.15,7.07Z"/>
  <path d="M277.23,758.62c-5.49,0-10.99-.04-16.48,.03-1.24,.02-1.53-.33-1.52-1.54,.06-7.99,.03-15.99,.03-23.98,0-.78-.23-1.54,1.13-1.55,1.39,0,1.11,.8,1.11,1.56,0,7.18,.05,14.37-.03,21.55-.02,1.42,.35,1.73,1.73,1.72,10.18-.07,20.35-.04,30.53-.02,.63,0,1.53-.42,1.53,.93,0,1.07-.31,1.34-1.36,1.33-5.56-.05-11.11-.02-16.67-.02Z"/>
  <path d="M290.72,743.84c0,2.93-.07,5.87,.03,8.8,.05,1.28-.38,1.53-1.56,1.51-2.97-.06-2.97,0-2.97-3.06,0-5.25,.05-10.49-.03-15.73-.02-1.27,.38-1.53,1.56-1.51,2.97,.06,2.97,0,2.97,3.06v6.93Z"/>
  <path d="M277.23,745.12c0,2.56-.05,5.12,.02,7.68,.03,1.06-.28,1.34-1.34,1.35-3.18,0-3.18,.05-3.18-3.22,0-4.43,.05-8.87-.03-13.3-.02-1.22,.3-1.56,1.53-1.54,2.99,.06,3,0,3,3.03v5.99Z"/>
  <path d="M132.39,745.38c1.03-1.87,1.57-3.75,1.39-5.96,2.34,.86,4.38,.28,6.33-.76,1.26-.68,2.02-.18,2.47,1,.7,1.84,.72,3.77,.58,5.7-.07,1.05-.77,1.72-1.71,2-1.85,.54-3.68,.94-5.34-.65-.95-.91-2.25-1.25-3.72-1.32Z"/>
  <path d="M118.85,745.38c-1.84,.06-3.14,.78-4.41,1.77-1.54,1.2-3.31,.7-4.93,.13-1.47-.51-1.65-1.83-1.61-3.23,.04-1.38,.1-2.75,.53-4.05,.45-1.35,1.18-2.12,2.79-1.27,1.65,.87,3.41,1.54,5.34,.88,.75-.26,.8,.18,.78,.77-.04,1.72,.44,3.31,1.5,5.01Z"/>
  <path d="M136.09,728.86c2.67-.05,4.76,1.97,4.8,4.62,.04,2.61-2.04,4.8-4.61,4.87-2.53,.07-4.76-2.11-4.8-4.69-.05-2.67,1.97-4.76,4.62-4.81Z"/>
  <path class="cls-40" d="M110.23,733.46c.04-2.58,2.24-4.67,4.85-4.6,2.64,.06,4.68,2.18,4.64,4.82-.04,2.54-2.34,4.76-4.84,4.68-2.55-.08-4.68-2.32-4.64-4.89Z"/>
  <path d="M279.48,747.27c0-1.75,.08-3.5-.03-5.24-.08-1.19,.31-1.44,1.45-1.43,3.08,.04,3.08-.02,3.08,3.14s-.06,6,.03,8.99c.04,1.19-.31,1.44-1.45,1.43-3.08-.04-3.08,.02-3.08-3.14v-3.75Z"/>
  <path d="M270.49,749.45c0,.81-.11,1.64,.02,2.43,.33,1.93-.47,2.28-2.29,2.31-1.93,.04-2.44-.52-2.27-2.36,.17-1.86,.09-3.74,.02-5.61-.04-.93,.3-1.11,1.17-1.13,3.35-.09,3.35-.13,3.35,3.23v1.12Z"/>
  <path class="cls-42" d="M67.47,395.09c3.24-.04,6.49-.12,9.73-.13,34.58-.07,69.16-.29,103.74-.16,32.27,.12,64.54,.34,96.81,.08,26.9-.22,53.8,.38,80.69,.04,1.62-.02,2.17,.41,2.16,2.08-.04,10.36,.02,20.72,.05,31.08,0,3.14,0,3.14-3.21,3.14-40.58,0-81.15,0-121.73,0-23.97,0-47.94,.09-71.91,.06-30.65-.04-61.29-.16-91.94-.25-.46,0-.92,0-1.79,0,10-3.85,14.96-11.24,13.78-20.05-1.13-8.39-7.93-14.88-16.38-15.62-.13-.06-.18-.12-.13-.19,.04-.07,.08-.1,.13-.1Z"/>
  <path class="cls-42" d="M64.45,395.38c-8.46,.75-15.3,7.21-16.36,15.62-.95,7.51,2.75,16.55,13.52,19.92-6.11,0-12.05,0-17.98,0-1.32,0-1.26-.94-1.24-1.83,.1-4.12,.27-8.23,.3-12.35,.06-6.74,.03-13.49,.04-20.23,0-.79-.22-1.54,1.14-1.52,6.86,.1,13.72,.08,20.58,.1,.13,.07,.17,.13,.12,.2-.04,.06-.09,.09-.13,.09Z"/>
  <path class="cls-42" d="M78.43,422.16c-.5-1.45-.85-2.78-1.65-3.92-1.65-2.36-3.57-2.71-5.98-1.22-3.2,1.97-6.49,1.96-9.69,0-2.35-1.44-4.24-1.17-5.85,1.08-.43,.6-.75,1.29-1.05,1.97-.27,.62-.45,1.29-.67,1.95-4.41-4.42-3.83-13.72,1.18-19.22,5.41-5.94,14.85-6.45,21.26-1.15,5.98,4.94,7.15,14.33,2.45,20.52Z"/>
  <path class="cls-12" d="M64.45,395.38c-.01-.1-.01-.19,0-.29,1-.16,2-.16,3.01,0,.02,.1,.02,.19,0,.29-1.01,0-2.01,0-3.02,0Z"/>
  <path class="cls-42" d="M67.47,447.56c3.24-.04,6.49-.12,9.73-.13,34.58-.07,69.16-.29,103.74-.16,32.27,.12,64.54,.34,96.81,.08,26.9-.22,53.8,.38,80.69,.04,1.62-.02,2.17,.41,2.17,2.08-.04,10.36,.02,20.72,.05,31.08,0,3.14,0,3.14-3.21,3.14-40.58,0-81.15,0-121.73,0-23.78,0-47.56,.09-71.35,.06-30.83-.04-61.67-.16-92.5-.25-.46,0-.92,0-1.79,0,10-3.85,14.96-11.24,13.78-20.05-1.13-8.39-7.93-14.88-16.38-15.62-.13-.06-.18-.12-.13-.19,.04-.07,.08-.1,.13-.1Z"/>
  <path class="cls-42" d="M64.45,447.85c-8.46,.75-15.3,7.21-16.36,15.62-.95,7.51,2.75,16.55,13.52,19.92-6.11,0-12.05,0-17.98,0-1.32,0-1.26-.94-1.24-1.83,.1-4.12,.27-8.23,.3-12.35,.06-6.74,.03-13.49,.04-20.23,0-.79-.22-1.54,1.14-1.52,6.86,.1,13.72,.08,20.58,.1,.13,.07,.17,.13,.12,.2-.04,.06-.09,.09-.13,.09Z"/>
  <path class="cls-42" d="M78.44,474.64c-.52-1.49-.89-2.89-1.75-4.06-1.65-2.24-3.53-2.55-5.86-1.11-3.19,1.98-6.48,1.99-9.69,.03-2.39-1.46-4.36-1.13-5.98,1.18-.82,1.17-1.19,2.54-1.66,3.94-4.54-5.8-3.66-14.82,1.86-20,5.87-5.51,15.01-5.58,21.03-.17,5.65,5.08,6.61,14.02,2.05,20.19Z"/>
  <path class="cls-12" d="M64.45,447.85c-.01-.1-.01-.19,0-.29,1-.16,2-.16,3.01,0,.02,.1,.02,.19,0,.29-1.01,0-2.01,0-3.02,0Z"/>
  <path class="cls-42" d="M61.19,341.05c-12.21,4.63-14.43,14.81-12.75,21.86,1.93,8.1,9.76,14.07,18.01,13.75,8.88-.34,16-6.75,17.38-15.65,1.31-8.42-3.9-16.53-12.65-20.03,2.1,0,4.2,0,6.3,0,12.61-.02,25.22-.05,37.82-.07,21.85-.04,43.69-.23,65.54-.09,31.77,.2,63.54,.35,95.31,.09,27.21-.22,54.42,.36,81.63,.07,2.77-.03,2.78,0,2.79,2.7,.03,10.17,.06,20.35,.08,30.52,0,3.05,0,3.06-3.11,3.06-41.89,0-83.77,0-125.66,0-22.97,0-45.94,.1-68.91,.06-39.2-.07-78.4-.2-117.59-.31-3.02,0-3.1-.02-2.98-2.96,.44-10.49,.28-20.98,.31-31.47,0-1.13,.16-1.59,1.48-1.57,5.51,.09,11.03,.04,17,.04Z"/>
  <path class="cls-42" d="M53.49,367.44c-4.57-6.09-3.6-15.08,2.04-20.17,6-5.42,15.15-5.36,21.03,.15,5.52,5.17,6.41,14.12,1.89,19.98-.55-1.35-.85-2.74-1.67-3.9-1.64-2.33-3.59-2.68-5.98-1.2-3.2,1.97-6.49,1.95-9.69-.01-2.34-1.44-4.22-1.14-5.86,1.09-.87,1.18-1.24,2.57-1.76,4.07Z"/>
  <path class="cls-42" d="M201.53,550.12c25.72,0,51.43,.22,77.15-.06,26.65-.3,53.29,.39,79.94,.04,1.43-.02,1.99,.35,1.98,1.87-.03,10.86,0,21.72,.06,32.58,0,1.41-.37,1.87-1.89,1.87-29.4-.05-58.8-.04-88.2-.02-30.58,.03-61.17,.15-91.75,.11-43-.05-86-.21-129.01-.33-1.87,0-3.74-.09-5.62-.05-1.36,.03-1.88-.49-1.83-1.89,.17-4.05,.29-8.11,.33-12.17,.06-6.74,.08-13.49,0-20.23-.02-1.44,.38-1.71,1.75-1.71,18.85,.03,37.7,.01,56.55-.02,25.77-.05,51.55-.13,77.32-.19,7.74-.02,15.48,0,23.21,0v.2Z"/>
  <path class="cls-42" d="M201.77,533.93c-18.1,0-36.2,.02-54.3,0-32.27-.05-64.54-.13-96.8-.21-2.18,0-4.37-.08-6.55-.06-1.25,.01-1.79-.46-1.74-1.77,.44-11.05,.34-22.1,.35-33.15,0-.81,.23-1.13,1.05-1.04,.55,.06,1.12,0,1.68,0,17.6-.02,35.2-.02,52.8-.05,27.59-.05,55.17-.29,82.75-.15,32.27,.16,64.54,.34,96.8,.09,26.9-.22,53.79,.38,80.69,.04,1.52-.02,2.09,.37,2.09,1.96-.02,10.8,0,21.59,.08,32.39,.01,1.5-.41,1.99-1.99,1.99-27.28-.05-54.55-.03-81.83-.03-25.03,0-50.06,0-75.09,0Z"/>
  <path class="cls-42" d="M201.51,645.32c25.72,0,51.43,.22,77.15-.06,26.65-.3,53.29,.38,79.94,.04,1.41-.02,2.01,.31,2,1.85-.03,10.8,0,21.59,.08,32.39,.01,1.59-.42,2.09-2.08,2.09-32.27-.05-64.54-.05-96.81-.03-27.71,.02-55.43,.14-83.14,.11-42.94-.06-85.88-.21-128.82-.33-2,0-3.99-.07-5.99-.08-1,0-1.49-.4-1.45-1.46,.4-11.17,.34-22.35,.34-33.53,0-.72,.2-1.02,.95-.95,.62,.05,1.25,0,1.87,0,19.22-.02,38.45-.02,57.67-.05,25.09-.05,50.18-.13,75.26-.19,7.68-.02,15.35,0,23.03,0v.2Z"/>
  <path class="cls-23" d="M206.33,314.14h-5.92c.42-1.55,1.53-2.16,2.85-2.2,1.36-.05,2.48,.57,3.07,2.2Z"/>
  <path class="cls-20" d="M182.15,314.9c.03,1.95-1.2,3.39-2.89,3.4-1.68,0-2.76-1.23-2.81-3.23-.05-2.07,.9-3.26,2.64-3.28,2-.02,3.04,1.03,3.07,3.11Z"/>
  <path class="cls-42" d="M201.36,149.09c25.59,0,51.18,.22,76.77-.06,26.77-.3,53.54,.38,80.31,.03,1.62-.02,2.17,.42,2.16,2.08-.04,10.36,.02,20.72,.05,31.08,0,3.14,0,3.14-3.21,3.14-40.7,0-81.39,0-122.09,0-23.65,0-47.31,.1-70.96,.06-39.63-.06-79.26-.2-118.9-.31-.5,0-1-.06-1.5-.04-1.2,.05-1.66-.5-1.61-1.69,.12-2.74,.22-5.49,.24-8.23,.06-7.99,.15-15.99,.07-23.98-.02-1.77,.53-2.07,2.15-2.07,18.72,.04,37.45,.02,56.17-.02,25.34-.05,50.68-.13,76.01-.19,8.11-.02,16.23,0,24.34,0v.2Z"/>
  <path class="cls-42" d="M201.5,236.05c25.72,0,51.43,.22,77.15-.06,26.65-.3,53.29,.39,79.94,.03,1.62-.02,2.01,.54,2.01,2.04-.02,10.73,0,21.47,.08,32.2,.01,1.58-.4,2.1-2.07,2.1-31.46-.05-62.92-.05-94.38-.03-28.09,.02-56.17,.14-84.26,.11-43.38-.06-86.75-.21-130.13-.33-1.68,0-3.37-.1-5.05-.01-1.81,.09-2.53-.51-2.43-2.46,.51-10.11,.34-20.22,.38-30.34,.01-3.2,0-3.2,3.18-3.2,22.22-.02,44.44-.01,66.66-.06,22.03-.04,44.06-.13,66.09-.19,7.61-.02,15.23,0,22.84,0v.2Z"/>
  <path class="cls-20" d="M258.5,69.58c.03,2.51-1.06,4.06-3.07,4.71-1.9,.62-3.2,.18-4.34-1.46-1.46-2.1-.53-6.51,1.61-7.63,2.05-1.08,3.71-.61,4.86,1.36,.61,1.04,.82,2.19,.94,3.02Z"/>
  <path class="cls-20" d="M224.33,68.16c1.07-2.31,2.63-3.38,4.62-3.28,1.99,.1,3.28,1.13,4.04,3.28h-8.65Z"/>
  <path class="cls-20" d="M320.57,68.2h-8.56c.73-2.15,2.35-3.36,4.41-3.32,2.09,.04,3.46,1.12,4.16,3.32Z"/>
  <path class="cls-44" d="M162.64,68.19h-8.54c.79-2.2,2.5-3.42,4.57-3.31,2.01,.11,3.38,1.24,3.97,3.31Z"/>
  <path class="cls-42" d="M111.65,69.67c.07,3.36-2.74,5.58-5.47,4.85-1.63-.43-2.69-1.53-2.57-3.21,.19-2.61,1.4-4.78,3.73-6.1,2.11-1.2,3.75-.31,4.03,2.05,.12,.99,.23,1.98,.28,2.41Z"/>
  <path class="cls-42" d="M274.97,69.66c.07,3.36-2.74,5.58-5.47,4.85-1.63-.43-2.69-1.53-2.57-3.21,.18-2.61,1.4-4.78,3.73-6.1,2.11-1.2,3.75-.31,4.03,2.05,.12,.99,.23,1.98,.28,2.41Z"/>
  <path class="cls-20" d="M43.92,217.57c0-1.06,.08-2.12-.02-3.17-.14-1.36,.31-1.95,1.73-1.88,1.94,.1,3.77,.39,4.71,2.35,.97,2.03,.67,4.03-.61,5.81-1.26,1.75-3.21,1.63-5.09,1.62-.75,0-.72-.49-.72-1,0-1.24,0-2.49,0-3.73Z"/>
  <path class="cls-20" d="M131.83,131.68c0-1.87,.81-2.89,2.3-2.92,1.3-.02,2.29,1.28,2.32,3.07,.03,1.76-.89,2.81-2.49,2.83-1.55,.02-2.14-.8-2.14-2.98Z"/>
  <path class="cls-5" d="M91.67,219.26c0,2.25-.58,3.02-2.28,3.05-1.4,.02-2.38-1.18-2.4-2.95-.02-1.75,1.09-3.07,2.57-3.06,1.55,0,2.11,.79,2.11,2.96Z"/>
  <path class="cls-5" d="M117.52,219.24c0,2.27-.56,3.03-2.25,3.07-1.41,.04-2.39-1.15-2.42-2.93-.03-1.75,1.06-3.08,2.54-3.08,1.55-.01,2.13,.8,2.13,2.94Z"/>
  <path class="cls-20" d="M91.19,131.37c0,2.48-.6,3.26-2.29,3.24-1.4-.01-2.34-1.23-2.33-3,0-1.74,1.14-3.06,2.61-2.99,2.02,.09,2.18,1.45,2.01,2.76Z"/>
  <path class="cls-5" d="M102.29,130.77h-5.24c.56-1.23,1.38-1.84,2.61-1.87,1.24-.03,2.13,.48,2.64,1.87Z"/>
  <path class="cls-20" d="M134.45,219.14c-.16-1.32,.1-2.64,1.91-2.82,1.3-.13,2.54,1.57,2.48,3.4-.04,1.39-.37,2.62-2.2,2.6-1.84-.03-2.2-.48-2.2-3.18Z"/>
  <path class="cls-23" d="M102.78,218.52h-5.21c.4-1.25,1.21-1.84,2.41-1.91,1.29-.08,2.21,.46,2.81,1.91Z"/>
  <path class="cls-23" d="M71.62,218.45c.69-1.29,1.55-1.92,2.87-1.84,1.16,.07,1.91,.64,2.41,1.84h-5.28Z"/>
  <path class="cls-5" d="M173.8,130.82h-5.12c.24-1.24,1.07-1.74,2.14-1.88,1.35-.18,2.39,.3,2.98,1.88Z"/>
  <path class="cls-23" d="M128.76,218.48h-5.41c.55-1.17,1.27-1.78,2.43-1.87,1.32-.1,2.19,.52,2.98,1.87Z"/>
  <path class="cls-22" d="M146.35,131.67c.1,1.77-.85,2.84-2.47,2.91-1.27,.05-2.17-.43-2.28-1.85-.12-1.7,1.7-4.16,3.15-4.06,2.15,.15,1.2,2.05,1.6,2.99Z"/>
  <path class="cls-22" d="M60.59,219.63c.04,1.6-1.05,2.65-2.6,2.65-1.3,0-2.13-.56-2.17-1.96-.05-1.65,1.68-4.02,3.08-3.93,2.41,.14,1.19,2.27,1.69,3.24Z"/>
  <path class="cls-22" d="M120.9,132.09c.05,1.41-.99,2.45-2.55,2.49-1.29,.03-2.15-.49-2.22-1.9-.08-1.72,1.77-4.05,3.21-4.04,1.09,0,1.48,.86,1.56,3.45Z"/>
  <path class="cls-44" d="M61.58,131.25c.03,1.64-1.02,2.93-2.42,2.96-1.43,.04-2.47-1.16-2.5-2.87-.03-1.57,.95-2.74,2.31-2.76,1.63-.03,2.58,.94,2.61,2.67Z"/>
  <path class="cls-5" d="M40.3,33.63c.26-.78-.06-2.13,1.43-2.07,1.32,.06,1.16,1.3,1.19,2.15,.04,.9,.04,2.16-1.15,2.23-1.35,.08-1.28-1.25-1.48-2.31Z"/>
  <path class="cls-23" d="M367.43,33.25c-.91,.26-.59,1.03-.69,1.63h0c-2.87,.36-5.74,.26-8.62,.04l-.02-.02c-.21-1.5-.31-3.01,.05-4.5,2.18,0,4.37,.08,6.54-.04,1.27-.07,2.15,.12,2.44,1.49,.4,.4,.12,.95,.29,1.4Z"/>
  <path class="cls-28" d="M358.14,34.92c2.87-.02,5.74-.03,8.62-.05-2.87,.68-5.74,.6-8.62,.05Z"/>
  <path class="cls-28" d="M358.16,30.4c-.02,1.5-.03,3-.05,4.5-.54-1.51-.62-3.01,.05-4.5Z"/>
  <path class="cls-39" d="M66.87,32.75c.15,.56,1.07,.99,.31,1.59-.14,.11-.56,.09-.68-.04-.65-.66,.2-1.04,.37-1.56Z"/>
  <path class="cls-1" d="M47.69,32.29c-.08,.93-.3,1.52-1.2,1.55-.61,.02-.94-.29-.96-.87-.03-.74,.36-1.17,1.12-1.16,.46,0,1.04-.11,1.04,.48Z"/>
  <path class="cls-42" d="M354.92,750.44c-2.97,.03-5.11-2.01-5.15-4.92-.04-2.98,2.16-5.27,5.06-5.27,2.77,0,5.08,2.3,5.13,5.09,.04,2.79-2.21,5.08-5.04,5.11Z"/>
  <path d="M330.46,420.38c-.48-1.89,.4-3.14,1.71-4.39,2.9-2.74,5.69-5.59,8.46-8.46,.75-.78,1.15-.76,1.85,.02,1.21,1.34,2.49,2.62,3.83,3.83,.77,.7,.65,1.1-.03,1.77-3.25,3.18-6.44,6.42-9.67,9.63-.56,.55-5.42,1.16-5.87,.62-.74-.88-.15-2.03-.29-3.02Z"/>
  <path class="cls-40" d="M101.18,402.32c0,2.02,0,3.51,0,4.99,0,.61-.09,1.17-.82,1.23-.81,.06-1.05-.48-1.06-1.19-.04-2.37-.1-4.73-.11-7.1,0-.54,.03-1.18,.71-1.38,.64-.19,1.02,.22,1.39,.68,1.26,1.59,2.55,3.16,4.07,5.02,0-1.61,0-2.93,0-4.26,0-.71,.05-1.47,1.01-1.46,.84,0,.94,.7,.93,1.34,0,2.31-.03,4.61-.06,6.91,0,.56,0,1.18-.65,1.41-.74,.25-1.16-.26-1.53-.77-1.2-1.65-2.38-3.32-3.88-5.42Z"/>
  <path class="cls-19" d="M116.66,404.84v-.37c0-3,1.03-3.82,3.94-2.9,.81,.25,1.38,.35,2.21,.04,1.89-.71,3.62,.48,3.87,2.53,.11,.92,.12,1.87,.07,2.79-.04,.68,.12,1.72-1.03,1.58-1.07-.12-.78-1.09-.8-1.8-.03-.74-.01-1.49-.03-2.23-.02-.84-.44-1.26-1.31-1.18-.88,.08-.87,.73-.88,1.36-.02,.99,.01,1.99-.06,2.97-.04,.53-.35,.94-.98,.91-.66-.03-.82-.54-.83-1.04-.03-.93,.07-1.87,.02-2.8-.04-.78-.21-1.49-1.3-1.42-1.1,.07-.86,.83-.86,1.49,0,.87,.04,1.74,.02,2.62-.02,.61-.26,1.12-.97,1.15-.74,.03-.94-.47-.97-1.1-.05-.87-.1-1.74-.15-2.61,.01,0,.02,0,.03,0Z"/>
  <path class="cls-10" d="M168.6,404.95v-.56c0-2.92,1.06-3.73,3.91-2.82,.79,.25,1.35,.37,2.18,.03,1.68-.69,3.51,.36,3.83,2.16,.22,1.21,.12,2.48,.12,3.72,0,.64-.31,1.11-1.01,1.06-.75-.05-.8-.63-.8-1.23,0-.93,.03-1.87-.02-2.8-.04-.79-.44-1.26-1.31-1.21-.86,.06-.94,.63-.93,1.31,.01,.93,0,1.87,0,2.8,0,.63-.27,1.13-.96,1.13-.74,0-.89-.53-.88-1.16,.01-.93,.02-1.87,0-2.8-.02-.77-.28-1.31-1.21-1.29-.98,.02-1.08,.61-1.04,1.38,.04,.74,.05,1.49,.04,2.24,0,.74,.11,1.65-1,1.63-.96-.02-.91-.83-.91-1.52,0-.68,0-1.37,0-2.05h-.02Z"/>
  <path class="cls-40" d="M132.13,403.88c0-.44,0-.87,0-1.31q0-3.95,4.02-3.75c1.87,.09,3.2,1.25,3.29,2.89,.09,1.59-1.18,3.12-3.08,3.02-2.1-.11-2.55,.69-2.26,2.5,.11,.68-.14,1.29-.95,1.31-.85,.02-.94-.64-.94-1.3v-3.35s-.06,0-.08,0Z"/>
  <path class="cls-40" d="M345.76,403.05c.61,.09,1.09,.31,1.5,.74,.56,.59,1.13,1.17,1.73,1.71,3.01,2.68,1.6,3.26-.52,5.44-.56,.58-.86,.1-1.21-.24-1.11-1.1-2.24-2.17-3.29-3.33-.49-.54-1.73-1.03-1.25-1.74,.73-1.08,1.62-2.23,3.04-2.59Z"/>
  <path class="cls-19" d="M147.37,405.88c.76,1.62,1.81,1.47,2.85,.89,.63-.35,1.16-.6,1.56,.14,.45,.84-.2,1.3-.81,1.59-1.54,.74-3.12,.67-4.32-.57-1.19-1.24-1.83-2.72-.88-4.52,.81-1.54,2.01-2.13,3.66-1.96,1.5,.15,2.72,1.51,2.81,3.02,.06,1.02-.56,1.35-1.36,1.4-1.1,.07-2.22,.02-3.51,.02Z"/>
  <path class="cls-19" d="M115.46,404.89c-.01,2.27-1.31,3.89-3.13,3.9-2.02,.02-3.61-1.62-3.6-3.71,.01-2.03,1.43-3.73,3.13-3.74,2.3-.02,3.62,1.28,3.6,3.54Z"/>
  <path class="cls-19" d="M163.69,401.34c2.22-.05,3.71,1.35,3.72,3.49,0,2.13-1.43,3.95-3.14,3.98-2.01,.03-3.51-1.42-3.59-3.49-.09-2.22,1.2-3.93,3.01-3.98Z"/>
  <path class="cls-29" d="M153.29,404.86c0-.75-.01-1.5,0-2.24,.02-.94,.41-1.45,1.41-1.02,.29,.13,.5,.22,.84,.16,2.74-.49,3.62,.14,3.91,2.85,.1,.92,.05,1.87,0,2.8-.04,.57-.24,1.14-.99,1.13-.78-.02-.85-.61-.86-1.19-.02-.93,.05-1.87,0-2.8-.04-.73-.32-1.32-1.25-1.29-1.06,.04-.92,.79-.92,1.46,0,.87,0,1.75,0,2.62,0,.62-.24,1.15-.92,1.19-.85,.05-1.01-.58-1.02-1.25-.02-.81,0-1.62,0-2.43-.06,0-.12,0-.18,0Z"/>
  <path class="cls-29" d="M131.52,419.79c0,.44,.12,.92-.02,1.3-.34,.91,.91,2.58-.75,2.73-3.48,.31-4.69-.59-4.79-2.87-.09-1.95,1.15-3.41,3.12-3.33,1.13,.04,1.23-.39,1.18-1.26-.02-.41-.04-.97,.55-1,.73-.03,.67,.58,.67,1.07,0,1.12,0,2.24,0,3.36h.03Z"/>
  <path class="cls-29" d="M113.41,421.34c.92,1.48,1.93,1.64,3.17,1.15,.43-.17,1.01-.55,1.29,.11,.32,.77-.42,.91-.9,1.11-1.83,.76-3.87,.01-4.6-1.65-.71-1.62,.03-3.4,1.73-4.16,1.63-.73,3.29-.1,4.03,1.53,.66,1.45,.4,1.87-1.22,1.9-.56,.01-1.12,0-1.68,0h-1.81Z"/>
  <path class="cls-9" d="M99.24,419.65c0-.44,0-.87,0-1.31,.02-3.24,.13-3.35,3.33-3.01,1.58,.17,2.78,.91,2.92,2.6,.15,1.8-1.28,2.46-2.65,2.49-1.84,.03-2.75,.46-2.3,2.46,.09,.39,.06,.97-.53,1-.73,.04-.68-.56-.69-1.06,0-1.06,0-2.12,0-3.17-.03,0-.05,0-.08,0Z"/>
  <path class="cls-32" d="M140.25,404.94c0-.56-.03-1.12,0-1.68,.08-1.15-.04-2.56,1.84-1.37,.44,.28,.9-.17,1.33-.33,.59-.22,1.14-.2,1.43,.43,.32,.69-.15,1.19-.7,1.25-2.22,.26-1.92,1.86-1.89,3.34,.02,.85,.27,1.98-1.04,1.93-1.12-.04-.96-1.09-.98-1.89-.01-.56,0-1.12,0-1.68Z"/>
  <path class="cls-29" d="M108.41,423.96c-.88,0-1.65-.21-2.03-1.06-.22-.48-.65-1.09,.03-1.49,.63-.37,.86,.21,1.04,.69,.33,.92,1.03,.76,1.7,.57,.34-.1,.79-.25,.78-.69,0-.42-.39-.58-.77-.64-.37-.06-.74-.1-1.1-.2-1.03-.29-1.89-.73-1.68-2.05,.16-1.04,.81-1.49,1.81-1.52,1.27-.04,2.37,.37,2.96,1.55,.29,.59-.29,.8-.73,.67-.39-.11-.68-.54-1.06-.71-.48-.22-1.01-.61-1.54-.08-.12,.12-.24,.35-.2,.47,.21,.56,.85,.39,1.25,.64,.05,.03,.12,.03,.18,.04,1.22,.14,2.36,.57,2.19,1.99-.18,1.56-1.57,1.71-2.83,1.83Z"/>
  <path class="cls-43" d="M135.65,423.92c-1.52,.03-2.73-1.35-2.78-3.14-.04-1.87,1.01-3.18,2.59-3.24,1.83-.07,3.09,1.1,3.15,2.93,.06,1.8-1.33,3.43-2.96,3.46Z"/>
  <path class="cls-3" d="M124.72,420.82c0,.19,.04,.39,0,.56-.24,.85,.68,2.31-.8,2.48-2.89,.34-3.81-.21-4.32-2.04-.32-1.16-.16-2.35-.07-3.52,.03-.42,.2-.74,.67-.71,.5,.03,.55,.42,.53,.8-.05,.99-.23,2,.05,2.97,.19,.65,.48,1.42,1.32,1.31,.79-.1,1.3-.67,1.29-1.57-.01-.62-.05-1.25,.02-1.87,.06-.6-.34-1.64,.68-1.59,.93,.05,.58,1.06,.63,1.69,.04,.49,0,1,0,1.49Z"/>
  <path class="cls-3" d="M148.55,401.02c-.69-.16-1.13-.5-1.02-1.04,.22-1.01,.92-1.75,1.89-2.04,.49-.15,1.08,.28,.99,.83-.19,1.11-1.11,1.68-1.87,2.25Z"/>
  <path d="M66.03,401.78c4.27,.01,7.69,3.45,7.67,7.71-.02,4.27-3.44,7.68-7.72,7.69-4.37,0-7.83-3.48-7.76-7.82,.06-4.27,3.48-7.59,7.81-7.58Z"/>
  <path d="M341.63,459.02c1.65,1.71,3.22,3.38,4.85,5.01,.5,.5,.56,.83,.02,1.36-3.37,3.33-6.7,6.69-10.06,10.03-.47,.47-5.3,.79-5.76,.43-.09-.07-.16-.18-.21-.28-.57-1.1,.2-5.55,1.11-6.46,3.29-3.31,6.59-6.61,10.06-10.09Z"/>
  <path class="cls-40" d="M105.36,457.06c0-1.62,0-2.9,0-4.19,0-.7-.02-1.49,.91-1.55,.96-.06,1.03,.72,1.03,1.43,0,2.24-.02,4.49-.06,6.73,0,.6,.06,1.3-.75,1.52-.77,.21-1.14-.37-1.5-.86-1.19-1.63-2.35-3.28-3.82-5.34,0,1.97,0,3.43,0,4.89,0,.67-.06,1.32-.91,1.32-.82,0-.96-.61-.97-1.29-.03-2.3-.1-4.61-.12-6.91,0-.55,0-1.2,.63-1.45,.71-.28,1.14,.21,1.54,.73,1.23,1.56,2.49,3.1,4,4.97Z"/>
  <path class="cls-19" d="M116.66,457.26c0-.06,0-.12,0-.19,0-3.14,1.19-4.03,4.15-2.95,.71,.26,1.19,.23,1.86-.01,2.03-.72,3.78,.39,4,2.54,.12,1.11,.03,2.24,.02,3.35,0,.56-.24,1-.85,1-.73,0-.94-.51-.94-1.13,0-.87,.05-1.74,.01-2.6-.04-.76-.11-1.55-1.21-1.5-1.13,.05-1.01,.82-.98,1.6,.03,.74-.03,1.49-.06,2.23-.03,.71-.08,1.49-1.06,1.39-.85-.08-.77-.79-.76-1.43,.02-.87,.02-1.74-.03-2.61-.05-.79-.41-1.25-1.32-1.18-.97,.07-.82,.74-.82,1.35,0,.81,.03,1.62,.04,2.43,0,.73-.09,1.45-1.02,1.46-.87,.02-.9-.67-.93-1.32-.04-.81-.1-1.61-.14-2.42,.01,0,.03,0,.04,0Z"/>
  <path class="cls-10" d="M168.6,457.3v-.37c0-3.08,1.14-3.86,4.18-2.75,.62,.22,1.07,.24,1.68,.01,2.06-.78,3.83,.21,4.13,2.34,.16,1.1,.06,2.23,.06,3.35,0,.63-.25,1.13-.95,1.13-.74,0-.87-.54-.86-1.17,.01-.93,.03-1.87-.01-2.8-.03-.77-.35-1.3-1.25-1.28-1,.03-1,.71-1,1.43,0,.93,.02,1.87-.02,2.8-.03,.65-.38,1.07-1.06,1-.62-.06-.76-.54-.76-1.08,0-1,.02-1.99,0-2.99-.02-.83-.46-1.23-1.32-1.17-.87,.06-.94,.62-.92,1.3,.04,.93,.04,1.87,.04,2.8,0,.62-.21,1.13-.93,1.14-.7,.01-.97-.45-.97-1.1,0-.87,0-1.74,0-2.61,0,0-.02,0-.03,0Z"/>
  <path class="cls-40" d="M135.01,451.29c.37,0,.75-.01,1.12,0,1.88,.08,3.2,1.24,3.3,2.88,.1,1.59-1.16,3.12-3.06,3.03-2.06-.1-2.58,.65-2.27,2.48,.11,.67-.13,1.3-.93,1.33-.85,.03-.95-.62-.96-1.29-.02-1.87-.07-3.73-.08-5.6-.01-2.84,0-2.84,2.88-2.84Z"/>
  <path class="cls-40" d="M342.32,458.42c3.43-3.63,3.37-3.58,6.78-.35,2.81,2.66,1.44,3.21-.6,5.32-.54,.56-.84,.18-1.21-.18-1.65-1.61-3.31-3.2-4.97-4.79Z"/>
  <path class="cls-19" d="M147.34,458.38c.91,1.63,1.97,1.43,3.06,.75,.52-.33,.92-.33,1.31,.11,.42,.48,.23,.98-.16,1.31-1.22,1.01-2.61,1.12-4.02,.47-1.58-.74-2.36-2.27-2.19-3.76,.17-1.55,1.02-3.11,3.01-3.34,1.66-.19,2.94,.36,3.63,1.96,.69,1.6,.24,2.38-1.49,2.49-.97,.06-1.95,.01-3.14,.01Z"/>
  <path class="cls-19" d="M115.46,457.27c.02,2.28-1.23,3.91-3.04,3.98-2.03,.08-3.64-1.49-3.69-3.61-.04-2,1.36-3.77,3.04-3.82,2.3-.08,3.67,1.21,3.69,3.45Z"/>
  <path class="cls-19" d="M160.68,457.56c0-2.15,1.29-3.72,3.06-3.74,2.22-.03,3.7,1.4,3.67,3.53-.02,2.16-1.45,3.92-3.18,3.92-2.1,0-3.55-1.52-3.55-3.71Z"/>
  <path class="cls-29" d="M153.33,457.36c0-.56,.02-1.12,0-1.68-.06-1.2-.06-2.31,1.66-1.42,.1,.05,.27,.09,.36,.04,1.33-.69,2.64-.68,3.45,.65,1.03,1.67,.86,3.58,.52,5.44-.09,.49-.51,.69-1.01,.61-.54-.09-.69-.51-.69-.97-.02-.99,.05-1.99-.01-2.98-.04-.72-.27-1.34-1.22-1.32-1.06,.02-.96,.74-.96,1.43,0,.94,.02,1.87-.02,2.81-.03,.63-.36,1.07-1.06,1.04-.63-.03-.83-.52-.86-1.04-.04-.87-.01-1.74-.01-2.61-.05,0-.1,0-.15,0Z"/>
  <path class="cls-29" d="M131.52,472.98c0,.44,.11,.91-.02,1.3-.33,.92,.88,2.58-.73,2.75-3.44,.35-4.69-.56-4.81-2.85-.1-1.95,1.15-3.47,3.1-3.35,1.36,.08,1.2-.6,1.21-1.43,0-.36,.04-.8,.53-.84,.6-.05,.69,.4,.69,.87,0,1.18,0,2.37,0,3.55h.03Z"/>
  <path class="cls-19" d="M99.24,472.71c0-.37,0-.75,0-1.12,.02-3.26,.11-3.36,3.3-3.04,1.58,.16,2.79,.89,2.95,2.58,.17,1.8-1.24,2.46-2.62,2.51-1.76,.06-2.81,.37-2.32,2.44,.09,.38,.08,.97-.51,1.03-.74,.07-.71-.53-.71-1.03,0-1.12,0-2.24,0-3.36h-.08Z"/>
  <path class="cls-29" d="M113.38,474.56c.92,1.38,1.85,1.64,3.06,1.21,.47-.17,1.14-.69,1.43,.09,.32,.87-.61,.98-1.11,1.16-1.91,.66-3.87-.23-4.48-1.94-.57-1.59,.21-3.24,1.86-3.96,1.57-.68,3.16-.11,3.93,1.41,.75,1.47,.44,2.01-1.19,2.04-.56,.01-1.12,0-1.68,0h-1.8Z"/>
  <path class="cls-32" d="M141.29,453.84c.8,.89,1.67,.4,2.57,.09,.48-.16,.86,.15,1.04,.59,.2,.49-.08,1.01-.48,1.06-2.52,.36-2.24,2.17-2.13,3.92,.05,.74-.06,1.47-.96,1.51-.92,.04-1.07-.7-1.08-1.42-.02-1.43,0-2.87,0-4.3,0-.68,.22-1.21,1.05-1.44Z"/>
  <path class="cls-29" d="M108.5,477.18c-.81,.04-1.55-.13-1.99-.83-.31-.49-.82-1.19-.16-1.67,.7-.51,.9,.22,1.14,.74,.39,.87,1.1,.65,1.76,.44,.35-.11,.79-.31,.7-.75-.04-.22-.43-.43-.7-.52-.59-.19-1.22-.25-1.8-.45-.8-.28-1.17-.88-1.07-1.75,.1-.95,.65-1.47,1.55-1.59,.61-.08,1.24-.06,1.82,.27,.69,.39,1.78,.85,1.34,1.67-.5,.94-1.08-.23-1.64-.43-.4-.14-.83-.3-1.25-.31-.29,0-.57,.25-.6,.6-.02,.32,.24,.38,.48,.46,.3,.09,.59,.24,.89,.28,1.28,.16,2.49,.57,2.27,2.12-.21,1.45-1.55,1.58-2.73,1.73Z"/>
  <path class="cls-43" d="M135.83,470.77c1.7,.08,2.82,1.33,2.79,3.09-.04,1.82-1.51,3.36-3.14,3.28-1.54-.08-2.72-1.66-2.6-3.51,.12-1.87,1.24-2.95,2.95-2.87Z"/>
  <path class="cls-3" d="M124.72,474.06c0,.19,.03,.38,0,.56-.18,.84,.54,2.11-.64,2.46-2.35,.71-3.95-.12-4.48-2.05-.32-1.16-.16-2.35-.06-3.52,.03-.42,.22-.73,.68-.7,.49,.04,.53,.43,.51,.81-.05,.99-.23,2,.06,2.97,.19,.64,.48,1.42,1.33,1.29,.8-.12,1.29-.69,1.27-1.58-.01-.93,0-1.87,.03-2.8,0-.32,.14-.64,.5-.69,.44-.06,.73,.23,.75,.64,.04,.87,.01,1.74,.01,2.61,.01,0,.03,0,.04,0Z"/>
  <path class="cls-3" d="M148.48,453.47c-.6-.13-1.05-.46-.95-1,.19-1.03,.92-1.74,1.87-2.06,.48-.16,1.1,.26,1.01,.8-.18,1.1-1.02,1.76-1.93,2.26Z"/>
  <path d="M66.02,454.25c4.27,0,7.69,3.43,7.68,7.7,0,4.27-3.43,7.69-7.7,7.7-4.37,.01-7.83-3.47-7.78-7.81,.05-4.27,3.47-7.6,7.79-7.59Z"/>
  <path d="M330.43,367.66c-.41-1.61,.43-2.92,1.82-4.22,2.87-2.67,5.62-5.48,8.33-8.32,.83-.87,1.26-.78,1.99,.04,1.16,1.3,2.4,2.54,3.7,3.7,.84,.75,.68,1.19-.05,1.9-3.12,3.05-6.18,6.15-9.27,9.24-.79,.79-5.18,1.48-6.15,1-.44-.22-.36-.61-.36-.96-.01-.69,0-1.37,0-2.37Z"/>
  <path class="cls-40" d="M101.18,349.12c0,1.97,0,3.39,0,4.82,0,.65,0,1.33-.86,1.37-.82,.04-1.01-.54-1.02-1.24-.04-2.24-.11-4.48-.12-6.72,0-.65-.11-1.46,.76-1.71,.85-.24,1.2,.49,1.61,1,1.2,1.47,2.38,2.95,3.8,4.72,0-1.71,0-3.11,0-4.51,0-.68,.21-1.28,1.04-1.24,.73,.04,.89,.62,.89,1.2,0,2.37-.03,4.73-.06,7.1,0,.56-.01,1.17-.69,1.37-.65,.2-1.05-.19-1.4-.67-1.22-1.7-2.45-3.39-3.98-5.5Z"/>
  <path class="cls-19" d="M116.62,351.55c.04-3.42,1.13-4.22,4.37-3.02,.69,.25,1.12,.07,1.7-.13,2.03-.69,3.76,.42,3.99,2.58,.11,.98,.06,1.99,.04,2.98,0,.63-.03,1.37-.9,1.35-.98-.02-.92-.82-.93-1.52,0-.81,.02-1.61,0-2.42-.02-.76-.27-1.34-1.2-1.3-1.01,.04-.99,.72-.99,1.44,0,.87,0,1.74-.04,2.6-.03,.67-.22,1.29-1.07,1.19-.73-.09-.76-.68-.75-1.27,.01-.93,.02-1.87-.02-2.8-.04-.81-.44-1.23-1.33-1.16-.97,.08-.8,.77-.8,1.37,0,.87,.04,1.74,.03,2.62,0,.69-.23,1.26-1.04,1.26-.75,0-.88-.56-.91-1.16-.04-.87-.1-1.74-.15-2.61Z"/>
  <path class="cls-10" d="M170.51,352.52c0,.62,.02,1.25,0,1.87-.02,.57-.33,.94-.93,.94-.59,0-.93-.35-.94-.93-.03-1.74-.04-3.49-.02-5.23,0-.68,.44-1.02,1.1-.92,1.2,.18,2.49-.39,3.59,.45,.49,.37,.79-.13,1.15-.25,2.08-.68,3.84,.27,4.13,2.41,.16,1.16,.06,2.36,.03,3.54-.01,.56-.35,.95-.95,.93-.61-.02-.84-.42-.84-1,0-.93,.02-1.87,0-2.8-.02-.82-.26-1.48-1.29-1.44-1.01,.04-.99,.73-.98,1.45,.01,.68,.01,1.37,0,2.05-.01,.73,.13,1.68-.92,1.72-1.15,.04-.89-.94-.91-1.65-.01-.62,.01-1.25,0-1.87-.02-.81,.05-1.7-1.17-1.7-1.29,0-1.1,.88-1.05,1.69,.01,.25,0,.5,0,.75,0,0,0,0,0,0Z"/>
  <path class="cls-40" d="M132.13,350.67c0-.44,0-.87,0-1.31q0-3.95,4.01-3.77c1.88,.09,3.2,1.24,3.3,2.88,.1,1.6-1.17,3.12-3.07,3.03-2.07-.1-2.57,.65-2.27,2.49,.11,.68-.13,1.3-.94,1.32-.85,.03-.95-.62-.95-1.29,0-1.12,0-2.24,0-3.35-.03,0-.06,0-.08,0Z"/>
  <path class="cls-40" d="M350.7,355.6c-.33,1.43-1.57,2.16-2.54,3.08-.35,.33-.65-.2-.89-.44-1.07-1.05-2.16-2.08-3.17-3.19-.73-.81-2.38-1.35-.59-2.9,2.18-1.88,2.5-2.04,4.26-.29,.75,.75,1.5,1.5,2.25,2.24,.41,.41,.73,.86,.67,1.5Z"/>
  <path class="cls-19" d="M147.26,352.7c1.09,1.59,2.13,1.44,3.21,.71,.55-.38,.95-.22,1.28,.21,.38,.5,.15,.98-.26,1.3-1.25,.98-2.63,1.05-4.04,.39-1.21-.57-2.52-2.78-2.17-3.81,.53-1.54,1.14-3.09,3.14-3.27,1.58-.14,2.81,.34,3.5,1.87,.76,1.69,.31,2.49-1.51,2.59-.93,.05-1.86,0-3.14,0Z"/>
  <path class="cls-19" d="M115.46,351.57c.03,2.28-1.22,3.91-3.04,3.99-2.03,.09-3.64-1.49-3.7-3.6-.05-2,1.35-3.77,3.03-3.83,2.29-.08,3.68,1.2,3.7,3.44Z"/>
  <path class="cls-19" d="M163.98,348.16c2.19,.12,3.49,1.46,3.43,3.56-.06,2.3-1.55,3.95-3.42,3.81-2.17-.17-3.4-1.63-3.29-3.9,.1-2.17,1.42-3.56,3.28-3.46Z"/>
  <path class="cls-29" d="M153.29,351.53c0-.75,0-1.49,0-2.24,0-.48,.3-1.13,.61-.99,1.54,.69,3.51-1.07,4.77,.77,1.18,1.71,.95,3.67,.66,5.59-.07,.48-.46,.72-.98,.66-.54-.07-.73-.46-.73-.93-.01-.93,.08-1.87,.01-2.8-.05-.73-.11-1.54-1.2-1.55-1.21,0-.98,.85-1,1.57-.02,.69,0,1.37,0,2.06,0,.76,.03,1.64-1.03,1.63-.96-.01-.9-.85-.92-1.53-.01-.75,0-1.49,0-2.24h-.18Z"/>
  <path class="cls-29" d="M131.52,367.31c0,.44,.12,.92-.02,1.3-.34,.92,.91,2.58-.74,2.73-3.47,.32-4.69-.58-4.79-2.87-.09-1.95,1.15-3.42,3.11-3.34,1.12,.04,1.24-.37,1.19-1.25-.02-.41-.05-.97,.55-1,.73-.04,.68,.57,.68,1.06,0,1.12,0,2.24,0,3.36,0,0,.02,0,.03,0Z"/>
  <path class="cls-9" d="M99.24,367.19c0-.44,0-.87,0-1.31,.02-3.25,.12-3.35,3.31-3.03,1.58,.16,2.79,.9,2.94,2.59,.16,1.8-1.26,2.46-2.63,2.5-1.8,.05-2.78,.41-2.31,2.45,.09,.38,.07,.97-.52,1.01-.73,.06-.7-.54-.7-1.04,0-1.06,0-2.12,0-3.17-.03,0-.05,0-.08,0Z"/>
  <path class="cls-29" d="M113.37,368.87c1.01,1.47,2.03,1.66,3.27,1.13,.44-.19,1.01-.49,1.25,.19,.23,.65-.38,.8-.82,1-1.86,.84-4.01,.08-4.73-1.66-.68-1.64,.09-3.38,1.82-4.12,1.62-.69,3.3-.02,4,1.61,.48,1.12,.5,1.95-1.13,1.86-1.1-.07-2.21-.01-3.66-.01Z"/>
  <path class="cls-32" d="M141.49,348.22c.63,.83,1.38,.36,2.16,.06,.53-.2,1.01,0,1.24,.53,.26,.6-.14,1.11-.6,1.17-2.36,.31-2.09,2.01-2.01,3.61,.04,.78,.1,1.64-.92,1.72-1.04,.07-1.11-.79-1.11-1.57-.01-1.37-.01-2.74,0-4.11,0-.73,.17-1.38,1.24-1.4Z"/>
  <path class="cls-29" d="M108.4,371.47c-.87,.01-1.64-.21-2.02-1.06-.21-.48-.65-1.09,.04-1.48,.64-.36,.86,.23,1.03,.7,.34,.92,1.04,.75,1.71,.55,.34-.1,.79-.25,.78-.69-.01-.41-.39-.57-.78-.64-.37-.06-.74-.1-1.1-.2-1.03-.29-1.88-.74-1.67-2.05,.17-1.04,.82-1.49,1.82-1.52,1.27-.04,2.38,.37,2.95,1.56,.29,.59-.3,.79-.74,.66-.39-.12-.68-.54-1.06-.71-.48-.22-1.02-.61-1.54-.08-.11,.12-.24,.36-.19,.47,.22,.55,.85,.38,1.25,.64,.05,.03,.12,.03,.18,.04,1.22,.14,2.36,.58,2.18,2-.19,1.55-1.55,1.74-2.84,1.81Z"/>
  <path class="cls-43" d="M135.62,371.45c-1.51,.01-2.72-1.38-2.75-3.17-.03-1.87,1.02-3.17,2.62-3.22,1.83-.05,3.07,1.13,3.12,2.95,.05,1.81-1.36,3.42-2.99,3.43Z"/>
  <path class="cls-3" d="M124.72,368.18c0,.19,.04,.38,0,.56-.23,.91,.67,2.47-.82,2.64-3.07,.34-3.94-.3-4.37-2.42-.22-1.06-.05-2.11,.01-3.16,.03-.42,.22-.73,.69-.69,.49,.04,.52,.44,.51,.82-.01,.87-.13,1.75-.01,2.61,.1,.78,.37,1.74,1.4,1.64,.91-.09,1.31-.82,1.28-1.76-.03-.87,0-1.74,.02-2.61,0-.32,.14-.64,.5-.69,.44-.06,.73,.24,.75,.64,.04,.81,.01,1.62,.01,2.42,.01,0,.03,0,.04,0Z"/>
  <path class="cls-3" d="M148.47,347.78c-.61-.15-1.05-.49-.93-1.03,.23-1,.92-1.75,1.9-2.03,.5-.15,1.09,.29,.98,.83-.22,1.08-1.03,1.76-1.95,2.23Z"/>
  <path d="M65.94,347.06c4.3-.01,7.73,3.35,7.77,7.62,.04,4.27-3.38,7.75-7.62,7.78-4.4,.03-7.87-3.38-7.86-7.73,0-4.27,3.41-7.66,7.71-7.67Z"/>
  <path class="cls-40" d="M258.36,568.97c-1.06,0-2.12,.02-3.18,0-1.11-.02-.94,.48-.49,1.12,.86,1.25,3.14,1.62,5.14,.82,.73-.29,1.57-.9,2.03,.24,.47,1.14-.49,1.59-1.31,1.85-2.53,.79-5.07,.96-7.14-1.06-1.67-1.62-2.03-3.66-1.25-5.85,.81-2.28,3.22-3.9,5.48-3.73,2.63,.2,4.47,1.81,5.05,4.44,.36,1.64-.04,2.16-1.72,2.18-.87,.02-1.74,0-2.61,0Z"/>
  <path class="cls-40" d="M132.61,572.41c0,.48-.19,.88-.64,1.02-.41,.13-.9,.19-1.2-.23-.25-.35-.41-.76-.6-1.14-.49-1-.49-2.63-1.41-2.92-1.42-.44-3.07-.15-4.62-.17-.57,0-.7,.4-.84,.83-.27,.82-.55,1.65-.83,2.47-.25,.75-.59,1.47-1.55,1.19-1.04-.3-.78-1.14-.54-1.84,.69-1.99,1.41-3.97,2.15-5.95,.76-2.03,1.54-4.05,2.33-6.07,.2-.52,.43-1.08,1.11-1.1,.61-.02,1.13,.29,1.35,.82,1.77,4.23,3.5,8.48,5.23,12.73,.05,.11,.04,.24,.06,.37Z"/>
  <path class="cls-40" d="M174.62,568.97c-.87,0-1.75-.03-2.62,.01-.38,.02-.96-.29-1.1,.32-.11,.46,.3,.82,.61,1.09,1.51,1.3,3.22,1.09,4.9,.49,.78-.28,1.56-.8,2.01,.32,.42,1.06-.48,1.43-1.2,1.75-2.87,1.28-6.41,.47-7.92-1.76-1.53-2.26-1.25-5.26,.72-7.19,1.67-1.63,3.7-2.03,5.85-1.29,2.07,.72,3.12,2.41,3.47,4.5,.18,1.1-.3,1.8-1.55,1.77-1.06-.03-2.12,0-3.18,0Z"/>
  <path class="cls-40" d="M143.44,562.21c3.17,.04,5.28,2.15,5.28,5.29,0,3.11-2.53,5.9-5.35,5.9-2.64,0-4.79-2.7-4.73-5.92,.06-3.1,2.07-5.3,4.8-5.27Z"/>
  <path class="cls-10" d="M233.09,562.21c3.25,.04,5.4,2.22,5.32,5.42-.08,3.1-2.48,5.73-5.27,5.77-2.61,.04-4.92-2.75-4.85-5.84,.08-3.05,2.16-5.37,4.79-5.34Z"/>
  <path class="cls-10" d="M273.73,567.91c0,1.37,0,2.75,0,4.12,0,.61-.21,1.13-.79,1.37-.53,.22-1.05,.02-1.26-.49-.43-1.05-.8-.08-1.07,.04-2.25,1.01-3.83,.54-5.03-1.59-1.48-2.62-1.18-5.41-.75-8.21,.1-.65,.58-1,1.22-.86,.63,.14,.85,.67,.82,1.29-.05,1.18-.13,2.37-.15,3.55-.01,.56-.03,1.15,.14,1.67,.4,1.23,.7,2.68,2.52,2.41,1.67-.24,2.21-1.44,2.24-2.95,.02-1.44,0-2.87-.01-4.31,0-.75-.16-1.66,.92-1.7,1.11-.04,1.21,.86,1.22,1.71,0,1.31,0,2.62,0,3.93h0Z"/>
  <path class="cls-10" d="M208.42,563.72c1.51-1.43,3.04-1.93,4.79-1.22,1.84,.74,2.27,2.39,2.31,4.13,.04,1.8-.08,3.61-.14,5.41-.02,.75-.22,1.42-1.13,1.4-1.05-.03-1.08-.83-1.04-1.62,.08-1.55,.26-3.11,.21-4.66-.03-1.02-.1-2.26-1.33-2.66-1.25-.42-2.26,.26-3.21,1.05-.51,.42-.53,.9-.52,1.48,.03,1.68,0,3.37,.01,5.05,0,.68-.11,1.29-.92,1.36-.94,.07-1.13-.6-1.14-1.34-.05-2.74-.08-5.48-.11-8.22,0-.7-.02-1.47,.87-1.62,1.01-.18,1.25,.56,1.36,1.47Z"/>
  <path class="cls-10" d="M159.92,567.94c0,1.37,0,2.74,0,4.11,0,.62-.23,1.11-.8,1.35-.53,.22-1.06,0-1.25-.49-.32-.8-.61-.21-.92-.07-2.48,1.16-4.3,.52-5.45-1.97-1.16-2.5-.86-5.1-.48-7.7,.1-.65,.58-1.01,1.19-.89,.71,.14,.95,.74,.91,1.43-.08,1.18-.22,2.35-.22,3.53,0,.73,.13,1.49,.36,2.19,.34,1.03,.85,1.95,2.23,1.8,1.41-.16,2.15-1.03,2.24-2.31,.13-1.67,.04-3.36,.03-5.04,0-.77-.05-1.62,1.01-1.63,.97,0,1.16,.75,1.16,1.58,0,1.37,0,2.74,0,4.11Z"/>
  <path class="cls-10" d="M203.44,567.98c0,1.37,.05,2.74-.01,4.11-.07,1.39-.85,1.81-1.85,.89-.68-.62-.94-.13-1.39,.07-1.97,.86-3.49,.42-4.65-1.38-1.73-2.68-1.21-5.63-.96-8.53,.04-.49,.5-.91,1.07-.87,.63,.05,1.04,.45,1.02,1.11-.03,1.06-.18,2.11-.18,3.16,0,.86,.02,1.77,.26,2.58,.31,1.05,.66,2.2,2.17,2.11,1.51-.09,2.17-.98,2.41-2.36,.25-1.43-.08-2.86,0-4.28,.06-.9-.48-2.31,1.06-2.3,1.53,0,.98,1.46,1.07,2.33,.11,1.11,.03,2.24,.03,3.36-.01,0-.03,0-.04,0Z"/>
  <path class="cls-40" d="M249.57,568c0,1.37,.06,2.75-.02,4.12-.08,1.42-.79,1.77-1.86,.81-.61-.54-.82-.13-1.23,.04-2.23,.96-3.88,.42-5.02-1.67-1.41-2.57-.99-5.33-.75-8.06,.05-.58,.52-1.06,1.17-.98,.75,.1,.93,.68,.92,1.38-.04,1.62-.16,3.25-.01,4.86,.1,1.14,.4,2.42,1.85,2.7,1.48,.29,2.69-.71,2.86-2.49,.14-1.48,.02-2.99,.03-4.49,0-.84-.3-1.95,1.03-1.97,1.18-.02,1.04,1.01,1.05,1.8,.02,1.31,0,2.62,0,3.93h-.01Z"/>
  <path class="cls-10" d="M162.7,567.44c-.09-1.23,.75-2.72-1.05-3.49-.36-.15-.24-.99,.16-1.12,1.32-.41,1.14-1.45,1.15-2.4,.01-.73,.26-1.27,1.02-1.3,.91-.05,1.15,.6,1.12,1.37-.04,.94-.14,1.64,1.21,1.99,.88,.23,.73,1.57-.29,1.76-1.17,.22-1.15,.82-1.12,1.67,.04,.93,0,1.87,.02,2.81,.01,1.23,.1,2.36,1.74,2.56,.72,.09,1.03,.74,.76,1.43-.26,.67-.8,.76-1.53,.59-1.88-.43-2.99-1.41-3.01-3.43,0-.81-.12-1.61-.18-2.42Z"/>
  <path class="cls-19" d="M136.33,568.79c0,1.68,.04,3.36-.01,5.03-.06,1.64-.84,2.83-2.45,3.34-.55,.18-1.13,.17-1.44-.47-.3-.62-.07-1.16,.51-1.39,1.15-.46,1.29-1.37,1.27-2.42-.03-2.92-.05-5.84-.07-8.77,0-.78-.3-1.81,.9-1.87,1.25-.07,1.24,.99,1.25,1.87,.03,1.55,0,3.11,0,4.66,.01,0,.02,0,.03,0Z"/>
  <path class="cls-19" d="M226.17,568.17c.14,2.12,0,4.22-.25,6.33-.17,1.46-1.08,2.18-2.29,2.65-.51,.2-1.14,.27-1.45-.4-.25-.57-.22-1.15,.43-1.41,1.3-.53,1.32-1.67,1.37-2.78,.14-2.8,0-5.59-.21-8.39-.06-.81-.21-1.79,.91-1.9,1.3-.13,1.19,.94,1.23,1.81,.07,1.36,.16,2.73,.23,4.09Z"/>
  <path class="cls-19" d="M276.48,567.68c0-1.31,.01-2.62,0-3.93,0-.58-.02-1.21,.58-1.45,.55-.22,1.16-.08,1.4,.56,.31,.81,.71,.38,1.14,.16,.5-.26,1.02-.44,1.6-.42,.76,.03,1.6-.05,1.69,1,.09,1.06-.68,1.12-1.48,1.21-2.47,.25-2.75,.57-2.74,2.98,0,1.31,0,2.62,0,3.93,0,.84,.02,1.76-1.15,1.73-1.05-.03-1.02-.88-1.02-1.65,0-1.37,0-2.74,0-4.12h-.03Z"/>
  <path class="cls-19" d="M181.34,567.68c0-1.31,.01-2.62,0-3.93,0-.58-.03-1.21,.57-1.46,.55-.23,1.16-.09,1.41,.55,.31,.79,.7,.4,1.13,.17,.5-.27,1.02-.45,1.6-.42,.76,.03,1.6-.05,1.7,.99,.1,1.06-.67,1.13-1.47,1.21-2.45,.25-2.75,.61-2.75,2.98,0,1.25,0,2.49,0,3.74,0,.86,.18,1.94-1.13,1.92-1.18-.02-1.01-1.03-1.03-1.82,0-.06,0-.12,0-.19,0-1.25,0-2.49,0-3.74,0,0-.02,0-.03,0Z"/>
  <path class="cls-34" d="M136.03,559.57c0,.68-.44,1.06-1.03,1.05-.69,0-1.17-.51-1.09-1.21,.06-.56,.46-1.01,1.15-.94,.66,.06,.97,.44,.97,1.1Z"/>
  <path class="cls-11" d="M225.8,559.45c-.03,.63-.38,1.11-.96,1.16-.64,.05-1.18-.29-1.18-1.07,0-.65,.33-1.03,.99-1.06,.67-.03,.97,.4,1.15,.98Z"/>
  <path class="cls-40" d="M125.86,516.5c-1.85-.62-2.77,.49-3.11,2.44-.05,.3-.2,.59-.3,.88-.25,.76-.62,1.46-1.57,1.17-1.03-.32-.76-1.15-.51-1.86,.73-2.11,1.49-4.21,2.27-6.3,.71-1.92,1.46-3.82,2.21-5.72,.2-.52,.44-1.09,1.13-1.08,.68,0,1.17,.37,1.43,1,1.7,4.13,3.39,8.26,5.08,12.39,.27,.66,.17,1.28-.54,1.55-.65,.24-1.22,0-1.5-.7-.16-.4-.31-.81-.47-1.21q-1.04-2.55-4.11-2.55Z"/>
  <path class="cls-40" d="M258.33,516.5c-1,0-1.99-.02-2.99,0-.33,0-.8-.2-.94,.3-.12,.4,.2,.69,.43,.98,.93,1.12,3.13,1.41,5.03,.65,.74-.3,1.56-.87,2.02,.27,.42,1.04-.41,1.52-1.17,1.77-2.52,.84-5.06,1.03-7.18-.9-1.7-1.56-2.15-3.58-1.41-5.81,.8-2.39,3.21-4.07,5.55-3.88,2.65,.22,4.43,1.84,5.04,4.46,.36,1.55-.17,2.25-1.77,2.17-.87-.04-1.74,0-2.61,0Z"/>
  <path class="cls-40" d="M174.74,516.5c-.81,0-1.62-.03-2.43,.01-.46,.03-1.15-.29-1.35,.22-.27,.68,.38,1.18,.87,1.48,1.62,.98,3.34,.83,4.98,.04,.7-.34,1.18-.28,1.57,.37,.43,.72-.05,1.18-.55,1.56-1.86,1.39-6.16,1.04-7.86-.63-1.9-1.86-2.17-4.96-.63-7.2,1.34-1.95,3.63-2.79,6.06-2.22,1.99,.47,3.63,2.31,3.94,4.5,.17,1.2-.25,1.94-1.6,1.89-1-.03-2,0-2.99,0Z"/>
  <path class="cls-40" d="M143.47,509.74c3.16,.05,5.27,2.19,5.25,5.32-.03,3.12-2.58,5.9-5.39,5.87-2.64-.03-4.78-2.73-4.69-5.95,.08-3.1,2.09-5.27,4.84-5.23Z"/>
  <path class="cls-10" d="M238.4,515.08c-.03,3.17-2.54,5.9-5.37,5.84-2.56-.05-4.82-2.73-4.72-5.77,.11-3.37,2.53-5.65,4.71-5.48,3.27,.25,5.42,2.2,5.39,5.41Z"/>
  <path class="cls-10" d="M273.74,515.31c0,1.37,0,2.75,0,4.12,0,.59-.13,1.14-.69,1.44-.61,.32-1.13,.09-1.39-.49-.38-.84-.7-.07-.94,.04-2.5,1.11-4.3,.45-5.43-2.07-1.1-2.45-.85-4.99-.48-7.54,.09-.64,.48-1.05,1.13-1,.66,.05,.94,.57,.93,1.19-.02,1.18-.12,2.37-.14,3.55,0,.62-.03,1.28,.16,1.85,.37,1.16,.65,2.54,2.37,2.36,1.69-.17,2.3-1.32,2.35-2.84,.05-1.5,0-3,0-4.49,0-.76-.11-1.63,.98-1.64,.99,0,1.14,.79,1.15,1.59,0,1.31,0,2.62,0,3.93Z"/>
  <path class="cls-10" d="M208.4,511.25c1.53-1.41,3.09-1.98,4.91-1.17,1.81,.81,2.18,2.47,2.22,4.19,.04,1.8-.09,3.61-.16,5.41-.03,.78-.35,1.37-1.23,1.29-.78-.07-.93-.66-.94-1.36-.04-1.8,.51-3.58,.18-5.4-.24-1.33-.6-2.47-2.32-2.26-1.49,.18-2.68,1.35-2.68,2.73,0,1.62,0,3.24,0,4.86,0,.74-.1,1.44-1.04,1.43-.94-.01-1.02-.74-1.04-1.46-.04-2.74-.08-5.48-.11-8.22,0-.71,.06-1.44,.98-1.52,.91-.08,1.14,.56,1.23,1.48Z"/>
  <path class="cls-10" d="M159.92,515.38c0,1.43,.08,2.87-.02,4.29-.1,1.34-1.09,1.77-1.95,.8-.53-.59-.69-.24-1.08-.05-2.35,1.13-4.03,.56-5.23-1.78-1.34-2.59-1-5.32-.6-8.04,.08-.56,.54-.87,1.08-.8,.74,.09,1.02,.66,.99,1.35-.05,1.12-.19,2.23-.22,3.35-.02,.61,.04,1.25,.2,1.84,.34,1.28,.71,2.65,2.49,2.4,1.68-.23,2.19-1.43,2.2-2.95,0-1.56,0-3.11-.03-4.67-.01-.69,.14-1.3,.93-1.35,.85-.05,1.22,.53,1.23,1.31,.03,1.43,0,2.86,0,4.3Z"/>
  <path class="cls-10" d="M203.44,515.49c0,1.43,.02,2.86,0,4.29-.02,.95-.85,1.64-1.4,1.08-1.01-1.01-1.66-.33-2.52-.03-1.56,.54-3.08-.14-4.07-1.78-1.61-2.65-1.12-5.53-.87-8.37,.05-.56,.57-1.02,1.23-.87,.61,.14,.92,.6,.87,1.25-.07,.99-.15,1.98-.2,2.98-.06,1,0,2.01,.36,2.94,.38,1,.86,1.96,2.25,1.78,1.31-.17,1.97-.95,2.21-2.16,.33-1.61-.03-3.23,.03-4.84,.03-.85-.23-1.96,1.06-1.97,1.31-.02,1.06,1.12,1.08,1.95,.03,1.24,0,2.49,0,3.73,0,0-.01,0-.02,0Z"/>
  <path class="cls-40" d="M249.56,515.43c0,1.44,.07,2.88-.02,4.3-.08,1.24-.86,1.8-1.8,.81-.66-.69-.91-.2-1.36,0-2.03,.88-3.53,.48-4.69-1.31-1.73-2.67-1.26-5.64-.98-8.55,.05-.55,.55-1.02,1.23-.87,.64,.14,.85,.63,.83,1.27-.04,1.56-.2,3.13-.04,4.67,.14,1.38,.33,3,2.34,2.99,1.53,0,2.39-1.08,2.48-3.14,.06-1.37-.02-2.74-.06-4.12-.03-.78-.09-1.64,.94-1.71,1.19-.08,1.14,.88,1.15,1.71,0,1.31,0,2.62,0,3.93,0,0,0,0-.01,0Z"/>
  <path class="cls-10" d="M162.68,514.57c-.13-.8,.83-2.24-.95-2.98-.46-.19-.34-1.11,.13-1.26,1.25-.39,1.11-1.33,1.11-2.23,0-.77,.18-1.42,1.07-1.43,.92-.01,1.08,.67,1.07,1.42,0,.82-.27,1.76,1.11,1.81,.43,.01,.61,.56,.56,1.05-.04,.51-.38,.9-.8,.9-1.13,0-1.1,.68-1.08,1.47,.04,1.06,.04,2.12,.04,3.18,0,1.13,.15,2.11,1.59,2.28,.71,.08,1.13,.6,.92,1.34-.24,.82-.8,.88-1.61,.69-1.79-.42-2.9-1.34-2.95-3.28-.02-.87-.13-1.74-.22-2.95Z"/>
  <path class="cls-19" d="M136.33,516.33c0,1.68,.05,3.36-.01,5.03-.06,1.55-.74,2.74-2.28,3.28-.62,.22-1.25,.31-1.61-.41-.31-.62-.07-1.15,.51-1.39,1.16-.46,1.29-1.37,1.27-2.42-.04-2.92-.05-5.84-.07-8.77,0-.78-.3-1.81,.9-1.87,1.25-.06,1.23,1,1.25,1.87,.03,1.55,0,3.11,0,4.66,.01,0,.02,0,.03,0Z"/>
  <path class="cls-19" d="M226.17,515.61c.15,2.18,.03,4.35-.26,6.51-.19,1.45-1.15,2.13-2.37,2.58-.46,.17-1.03,.2-1.32-.35-.29-.54-.31-1.18,.32-1.44,1.49-.61,1.46-1.9,1.45-3.11-.02-2.73-.13-5.47-.22-8.2-.03-.84-.13-1.76,1.02-1.81,1.17-.05,1.1,.91,1.13,1.73,.06,1.36,.15,2.73,.23,4.09Z"/>
  <path class="cls-19" d="M276.48,515.33c0-1.43,.01-2.87,0-4.3,0-.54,.1-1.03,.64-1.22,.5-.18,1.08-.07,1.28,.46,.33,.87,.77,.53,1.26,.24,.55-.33,1.16-.41,1.8-.39,.75,.02,1.41,.14,1.45,1.06,.04,.94-.62,1.05-1.37,1.14-2.67,.32-2.87,.56-2.86,3.24,0,1.37,0,2.74,0,4.12,0,.71-.25,1.26-1.02,1.3-.9,.04-1.15-.56-1.14-1.35,0-1.43,0-2.87,0-4.3,0,0-.02,0-.03,0Z"/>
  <path class="cls-19" d="M181.34,515.19c0-1.37,.02-2.74,0-4.12,0-.54,.08-1.05,.59-1.26,.48-.19,1.1-.13,1.3,.41,.38,1.01,.91,.49,1.41,.23,.46-.24,.93-.34,1.44-.33,.76,.01,1.6-.04,1.68,1.01,.08,1.06-.7,1.12-1.49,1.2-2.46,.25-2.74,.58-2.73,2.99,0,1.37,0,2.74,0,4.12,0,.82-.13,1.57-1.16,1.53-.91-.03-1.02-.74-1.01-1.48,0-1.43,0-2.87,0-4.3h-.03Z"/>
  <path class="cls-34" d="M135.03,505.99c.58,.04,.96,.34,1,1.01,.05,.69-.38,1.1-.94,1.15-.68,.05-1.2-.41-1.18-1.12,.02-.58,.38-1.02,1.11-1.04Z"/>
  <path class="cls-11" d="M224.69,508.19c-.52-.2-1.05-.39-1.03-1.1,.02-.75,.41-1.14,1.15-1.08,.65,.05,1,.51,.96,1.12-.04,.61-.48,.96-1.08,1.06Z"/>
  <path class="cls-40" d="M217.51,664.17c.81,2.27,2.86,2.99,5.39,2,.79-.31,1.73-1.01,2.17,.24,.43,1.22-.69,1.56-1.57,1.87-4.74,1.66-8.76-1.03-8.44-5.62,.19-2.72,2.45-4.91,5.28-5.11,2.56-.18,4.98,1.71,5.53,4.33,.36,1.71-.08,2.28-1.83,2.29-2.16,.01-4.31,0-6.53,0Z"/>
  <path class="cls-10" d="M189.93,664.83c0,.87,.03,1.75,0,2.62-.05,1.08-.86,1.68-1.57,1.01-.82-.77-1.26-.37-1.96-.1-1.76,.67-3.45,.43-4.88-.81-1.45-1.26-1.92-2.87-1.35-4.73,.68-2.23,1.88-4.07,4.09-5.05,2.52-1.1,4.95,.27,5.39,2.96,.22,1.36,.3,2.73,.29,4.1Z"/>
  <path class="cls-10" d="M192.52,662.88c0-1.43-.03-2.87,.01-4.3,.03-1.11,1.1-1.66,1.52-.9,.86,1.53,1.44,.44,2.13,.12,2.39-1.11,4.68-.07,5.38,2.5,.67,2.47,.17,4.95-.02,7.42-.05,.67-.49,1.01-1.15,.92-.77-.11-.97-.7-.95-1.38,.06-1.74,.28-3.48,.2-5.22-.09-1.98-1.14-2.86-2.71-2.34-1.31,.43-2.48,1.07-2.28,2.88,.16,1.41,.03,2.86,.03,4.29,0,.83,.03,1.76-1.13,1.75-1.07-.01-.99-.89-.99-1.65,0-1.37,0-2.74,0-4.11h-.05Z"/>
  <path class="cls-10" d="M209.17,668.67c-2.92-.03-4.88-1.71-5.24-4.5-.34-2.65,1.76-6.09,4.07-6.68,1.54-.4,3.98,.62,4.72,1.98,.26,.48,.31,.97-.09,1.38-.46,.48-.94,.38-1.49,.02-2.68-1.76-4.28-1.15-4.99,1.87-.39,1.67,.34,3.16,1.8,3.63,1.71,.55,2.66,.04,3.37-1.82,.24-.63,.68-.86,1.31-.76,.71,.12,.8,.67,.84,1.25,.13,2-1.83,3.65-4.32,3.63Z"/>
  <path class="cls-19" d="M169.72,661.04c0-1.81-.01-3.61,0-5.42,0-.84-.22-1.96,1.11-1.91,1.26,.05,1.06,1.15,1.07,2,.03,3.05,.11,6.1,.04,9.15-.03,1.32,.4,1.73,1.69,1.64,1.55-.11,3.11-.03,4.67-.02,.84,0,1.55,.28,1.49,1.24-.06,.9-.8,.95-1.53,.94-2.24-.01-4.48-.06-6.72,.02-1.26,.04-1.67-.58-1.68-1.67-.01-1.99,0-3.98,0-5.98h-.13Z"/>
  <path class="cls-9" d="M227.91,662.99c0-1.43-.01-2.87,0-4.3,0-.6,.19-1.13,.88-1.24,.55-.09,1.09,.11,1.17,.66,.13,.92,.42,.54,.87,.24,.75-.5,1.6-.64,2.5-.54,.64,.07,1.07,.4,1.11,1.05,.04,.68-.44,.99-1.04,1.1-.3,.06-.62,.04-.93,.06-1.62,.11-2.51,.83-2.4,2.61,.09,1.55,.01,3.12,.02,4.68,0,.68-.13,1.29-.94,1.34-.94,.06-1.12-.62-1.13-1.36-.01-1.43,0-2.86,0-4.3-.04,0-.07,0-.11,0Z"/>
  <path d="M337.12,267.68c-2.99,0-5.98-.03-8.97,.01-1.59,.02-2.24-.69-2.23-2.26,.03-5.36,.03-10.72,0-16.09,0-1.47,.63-2.29,2.07-2.27,.99,.01,1.38-.18,1.39-1.29,.02-1.51,1.06-2.11,2.52-2.12,1.45-.01,2.56,.56,2.56,2.06,0,1.29,.53,1.43,1.54,1.33,.56-.05,1.12-.05,1.68,0,1.16,.11,1.94,0,2.02-1.53,.08-1.39,1.19-1.89,2.55-1.87,1.39,.02,2.36,.6,2.46,1.99,.08,1.1,.36,1.5,1.52,1.44,1.38-.07,2.02,.88,2.02,2.17,.03,5.42,.03,10.85,0,16.27,0,1.52-.79,2.21-2.37,2.18-2.93-.07-5.86-.02-8.79-.02Z"/>
  <path class="cls-10" d="M135.56,253.82c-.09,1.57-.31,3.11-1.16,4.47-1.41,2.28-4.37,2.55-6.21,.6-2.31-2.46-2.4-7.7-.18-10.22,1.84-2.09,5.08-1.77,6.46,.67,.79,1.39,1.01,2.92,1.09,4.49Z"/>
  <path class="cls-10" d="M149.71,258.28c2.16,0,4.03,0,5.9,0,.75,0,1.67-.1,1.65,.97-.01,.92-.83,.9-1.55,.9-1.93-.01-3.87-.03-5.8,0-.92,.02-1.55-.35-1.99-1.11-.5-.85-.14-1.61,.4-2.23,.73-.84,1.57-1.59,2.38-2.38,.85-.83,1.75-1.6,2.54-2.48,.82-.92,1.3-2.1-.03-2.85-1.19-.68-2.29-.04-2.98,1.11-.19,.31-.24,.71-.3,1.07-.09,.55-.46,.75-.92,.72-.58-.03-.93-.44-.89-1,.12-1.7,.98-2.92,2.56-3.6,1.57-.67,3.07-.66,4.27,.69,1.11,1.26,1.19,2.72,.36,4.16-.88,1.55-2.31,2.6-3.57,3.8-.65,.62-1.46,1.1-2.03,2.21Z"/>
  <path class="cls-10" d="M138.71,258.29c2.52,0,4.49,.01,6.47,0,.75,0,1.48,.06,1.45,.99-.03,.8-.7,.89-1.38,.88-2-.02-3.99-.03-5.99,0-.93,.02-1.6-.39-1.97-1.15-.39-.8-.13-1.61,.47-2.24,.77-.82,1.59-1.58,2.39-2.37,.8-.78,1.65-1.52,2.41-2.35,.6-.65,1.07-1.39,.62-2.36-.32-.68-.87-.84-1.53-.79-1.02,.08-1.75,.61-2.17,1.53-.1,.22-.08,.49-.11,.74-.07,.62-.48,.88-1.03,.83-.6-.05-.84-.46-.81-1.05,.1-1.75,1.03-2.89,2.6-3.55,1.57-.66,3.08-.64,4.25,.75,1.08,1.28,1.08,2.74,.28,4.18-.52,.94-1.28,1.68-2.07,2.4-1.15,1.05-2.3,2.1-3.89,3.55Z"/>
  <path class="cls-10" d="M97.38,254.4c-.02,.94-.27,2.47-1.1,3.84-1.44,2.37-4.48,2.63-6.32,.57-2.15-2.4-2.27-7.41-.25-9.94,1.86-2.33,5.22-2.04,6.67,.59,.64,1.16,1.01,2.74,1.01,4.95Z"/>
  <path class="cls-10" d="M69.76,253.89c.05,1.59-.23,3.1-1.11,4.45-1.49,2.28-4.37,2.5-6.2,.5-2.28-2.49-2.33-7.71-.09-10.22,1.79-2.01,4.95-1.71,6.35,.61,.86,1.43,1.13,3.01,1.06,4.66Z"/>
  <path class="cls-10" d="M117.64,258.29c2.5,0,4.43,0,6.36,0,.72,0,1.5,.02,1.47,.96-.03,.94-.83,.91-1.53,.91-1.93,0-3.86-.03-5.8,0-.91,.02-1.57-.32-1.99-1.1-.45-.83-.18-1.63,.4-2.23,1.16-1.21,2.41-2.34,3.62-3.51,.45-.43,.89-.87,1.29-1.35,.54-.63,.98-1.34,.59-2.21-.28-.63-.79-.92-1.5-.87-.94,.07-1.67,.5-2.11,1.32-.17,.32-.2,.71-.28,1.08-.14,.62-.58,.79-1.12,.69-.51-.09-.68-.52-.66-.99,.08-1.73,.99-2.9,2.56-3.58,1.57-.67,3.07-.65,4.26,.71,1.11,1.27,1.14,2.74,.33,4.17-.88,1.54-2.32,2.59-3.57,3.8-.65,.63-1.31,1.24-2.31,2.2Z"/>
  <path class="cls-10" d="M105.32,254.28c-2.74,1.29-4.31,1.25-5.58-.12-1.25-1.36-1.55-2.94-.8-4.66,.86-1.96,3.33-2.94,5.52-2.36,1.98,.53,2.94,1.48,2.74,3.73-.24,2.59-.04,5.22-.33,7.83-.07,.66-.14,1.38-.92,1.35-.87-.03-1-.78-.94-1.53,.1-1.36,.2-2.72,.31-4.24Z"/>
  <path class="cls-40" d="M77.18,254.49c-2.17,1.11-3.83,.97-5.1-.42-1.21-1.33-1.4-3.5-.44-5.04,1.03-1.64,3.31-2.42,5.26-1.89,1.84,.5,2.93,1.36,2.73,3.55-.24,2.6-.18,5.23-.24,7.85-.02,.74-.16,1.52-1.02,1.49-.93-.02-.87-.87-.84-1.57,.03-.81,.06-1.62,.1-2.43,0-.56,.62-1.3-.44-1.56Z"/>
  <path class="cls-36" d="M84.11,256.03c-.37,0-.75-.02-1.12,0-.65,.04-1.14-.2-1.15-.89-.02-.66,.39-1,1.07-.98,.81,.02,1.61,.01,2.42,0,.71-.01,1.26,.2,1.25,1.01-.01,.73-.54,.88-1.17,.86-.43-.01-.87,0-1.3,0Z"/>
  <path class="cls-36" d="M111.78,254.16c.31,0,.62,.01,.93,0,.75-.04,1.48,.11,1.46,1-.02,.95-.85,.88-1.54,.87-.62,0-1.24,0-1.87,0-.65,0-1.32,0-1.35-.88-.03-.99,.71-1.01,1.43-.99,.31,0,.62,0,.93,0Z"/>
  <path class="cls-2" d="M77.18,254.49c.82-.13,.87,.03,.44,1.56-.29-.48,.23-1.19-.44-1.56Z"/>
  <path class="cls-43" d="M361.54,34.5c-.25,0-.5,0-.75,0-2.24,0-2.77-.76-2.27-3.01,.17-.74,.62-.64,1.1-.65,1.24,0,2.49,.05,3.73-.02,.92-.05,1.13,.31,1.15,1.18,.07,2.49,.12,2.49-2.97,2.49Z"/>
  <path class="cls-23" d="M333.45,417.41c.93,.95,1.97,1.83,2.76,2.89,.35,.47-.44,.98-.86,1.18-.6,.29-1.52,.68-1.49-.65,.02-.72-.25-1.02-.97-.95-.75,.07-.76-.43-.7-.96,.08-.69,.61-1.01,1.26-1.5Z"/>
  <path class="cls-17" d="M342.14,409.13c-.04,.16-.02,.38-.12,.48-2.39,2.42-4.79,4.84-7.01,7.46,2.5-2.49,5-4.98,7.5-7.46-.12-.16-.24-.32-.36-.47Z"/>
  <path class="cls-22" d="M135.37,400.7c1.01-.04,2.08,.05,2.07,1.14-.01,1.1-1.13,1.07-2.01,1.11-.81,.04-1.42,.03-1.38-1.13,.04-1.1,.57-1.22,1.33-1.12Z"/>
  <path class="cls-33" d="M147.5,404.29c.83-1.73,1.68-1.79,3.03,0h-3.03Z"/>
  <path class="cls-5" d="M113.55,405.08c-.14,.69-.12,1.64-1.37,1.68-1.22,.03-1.49-.85-1.45-1.73,.04-.81,.16-1.83,1.46-1.72,1.01,.08,1.41,.65,1.36,1.77Z"/>
  <path class="cls-22" d="M165.44,404.88c-.22,.76-.03,1.83-1.31,1.88-1.14,.04-1.56-.66-1.52-1.65,.03-.87,.17-1.78,1.39-1.79,1.05,0,1.39,.62,1.44,1.57Z"/>
  <path class="cls-6" d="M130.32,420.76c.21,1.27-.42,1.99-1.59,1.97-1.17-.02-1.46-.99-1.45-2,0-1.14,.51-2,1.73-1.95,1.17,.05,1.51,.91,1.32,1.97Z"/>
  <path class="cls-38" d="M113.53,419.99c1.58-1.48,2.18-1.46,3.49,.15-1.24,.01-2.3,.17-3.49-.15Z"/>
  <path class="cls-1" d="M102.06,416.47c.81,.23,2.13,.15,2.11,1.49-.02,1.59-1.51,1.12-2.44,1.31-1.16,.24-1.26-.5-1.29-1.45-.05-1.18,.59-1.36,1.62-1.36Z"/>
  <path class="cls-5" d="M135.47,418.71c1.26,.02,1.82,.74,1.86,1.77,.03,.97-.31,1.89-1.5,1.99-1.22,.1-1.65-.7-1.7-1.74-.06-1.02,.3-1.82,1.34-2.02Z"/>
  <path class="cls-23" d="M336.5,472.81c-.62,.66-.93,1.29-1.73,1.35-.75,.06-1-.25-.92-.96,.05-.48-.06-.86-.67-.85-.49,0-.99,.08-1.01-.69-.02-.73,.42-1.15,.92-1.5,.61-.43,.84,.25,1.17,.54,.77,.68,1.5,1.4,2.26,2.11Z"/>
  <path class="cls-17" d="M341.87,461.37c-2.51,2.5-5.02,5.01-7.53,7.51,.15,.15,.29,.3,.44,.45l7.54-7.51c-.15-.15-.3-.3-.45-.45Z"/>
  <path class="cls-22" d="M135.46,455.41c-.81,.06-1.45,.07-1.42-1.1,.03-1.08,.55-1.18,1.4-1.16,.91,.02,1.99,.05,2,1.14,.01,1.13-1.13,1.07-1.98,1.12Z"/>
  <path class="cls-33" d="M150.56,456.85h-3.13c.93-1.83,1.77-1.87,3.13,0Z"/>
  <path class="cls-5" d="M110.7,457.47c.24-.77,.2-1.81,1.5-1.69,1.01,.09,1.44,.65,1.35,1.62-.08,.87-.13,1.79-1.36,1.83-1.22,.04-1.36-.84-1.48-1.75Z"/>
  <path class="cls-22" d="M165.43,457.34c-.21,.78-.03,1.92-1.44,1.88-1.05-.03-1.41-.71-1.39-1.6,.02-.87,.13-1.79,1.34-1.84,1.02-.04,1.44,.55,1.48,1.56Z"/>
  <path class="cls-6" d="M130.32,473.92c.22,1.22-.32,2-1.52,2.03-1.18,.03-1.5-.91-1.52-1.92-.03-1.14,.45-2.03,1.66-2.02,1.14,0,1.6,.8,1.39,1.92Z"/>
  <path class="cls-1" d="M102.1,472.44c-1.37,.23-1.65-.26-1.66-1.29-.01-1.04,.37-1.54,1.36-1.45,1.02,.09,2.34,.09,2.38,1.47,.04,1.59-1.51,.99-2.08,1.28Z"/>
  <path class="cls-38" d="M113.53,473.26c1.54-1.52,2.13-1.52,3.45,0h-3.45Z"/>
  <path class="cls-5" d="M134.1,473.87c.1-.97,.32-1.89,1.54-1.91,1.16-.02,1.68,.78,1.69,1.8,0,.98-.36,1.88-1.56,1.93-1.23,.06-1.54-.79-1.68-1.82Z"/>
  <path class="cls-23" d="M334.58,369.21c-.56,.07-.76-.21-.74-.75,.02-.48,.11-1.04-.66-1.04-.48,0-1,.09-1.02-.69-.02-.73,.42-1.15,.91-1.51,.61-.44,.84,.25,1.17,.53,.47,.4,.92,.83,1.3,1.31,.27,.34,1.04,.52,.66,1.11-.34,.55-.78,1.15-1.62,1.03Z"/>
  <path class="cls-24" d="M334.69,364.3c2.5-2.51,5-5.03,7.5-7.54-.13-.13-.26-.27-.39-.4l-7.63,7.43c.17,.17,.34,.34,.51,.51Z"/>
  <path class="cls-22" d="M135.39,347.47c1.02-.04,2.09,.07,2.06,1.16-.04,1.08-1.16,1.05-2.03,1.09-.84,.04-1.4-.02-1.36-1.16,.03-1.13,.62-1.18,1.34-1.1Z"/>
  <path class="cls-33" d="M150.58,351.16h-3.14c.91-1.83,1.75-1.88,3.14,0Z"/>
  <path class="cls-5" d="M113.56,351.77c-.14,.73-.1,1.7-1.34,1.77-1.21,.06-1.53-.79-1.48-1.69,.04-.81,.12-1.83,1.41-1.76,1.01,.05,1.43,.61,1.41,1.68Z"/>
  <path class="cls-22" d="M162.58,351.77c.19-.77,.22-1.71,1.47-1.68,1.05,.03,1.45,.67,1.36,1.58-.08,.81-.03,1.85-1.32,1.86-1.16,.02-1.45-.73-1.51-1.77Z"/>
  <path class="cls-6" d="M130.31,368.13c.23,1.26-.26,2.07-1.47,2.13-1.19,.06-1.53-.86-1.56-1.88-.04-1.13,.41-2.04,1.61-2.06,1.1-.02,1.69,.69,1.42,1.82Z"/>
  <path class="cls-1" d="M102,366.76c-1.29,.2-1.52-.29-1.56-1.24-.05-1.19,.46-1.64,1.52-1.51,.96,.12,2.25,.17,2.22,1.5-.04,1.59-1.57,.97-2.18,1.26Z"/>
  <path class="cls-38" d="M117.11,367.64h-3.35c.95-1.58,1.76-1.64,3.35,0Z"/>
  <path class="cls-5" d="M135.43,366.22c1.38,.1,1.91,.84,1.9,1.86,0,.98-.37,1.87-1.58,1.91-1.22,.04-1.59-.8-1.63-1.82-.04-1.05,.42-1.76,1.3-1.95Z"/>
  <path class="cls-38" d="M260.34,566.8c-1.78,0-3.49,0-5.19,0-.22,0-.54-.05-.63-.19-.19-.33,.15-.56,.32-.78,1.55-2.04,4.28-1.63,5.5,.99Z"/>
  <path class="cls-6" d="M124.55,566.72c.04-.28,.04-.41,.09-.52,.46-1.16,.92-2.31,1.45-3.64,.88,1.33,1.36,2.67,1.8,4.16h-3.34Z"/>
  <path class="cls-23" d="M176.88,566.72h-5.94c.51-1.47,1.59-2.19,3.01-2.18,1.35,0,2.45,.63,2.93,2.18Z"/>
  <path class="cls-20" d="M143.48,564.4c1.95,0,3.04,1.11,3.05,3.14,.01,1.92-1.25,3.37-2.95,3.37-1.68,0-2.72-1.24-2.76-3.27-.03-2.11,.88-3.23,2.66-3.24Z"/>
  <path class="cls-20" d="M233.16,564.4c1.95-.02,3.05,1.09,3.09,3.12,.04,1.84-1.3,3.39-2.94,3.39-1.72,0-2.87-1.38-2.85-3.42,.02-1.85,1.09-3.07,2.7-3.09Z"/>
  <path class="cls-6" d="M126.07,510.12c.9,1.04,1.1,2.31,1.65,3.4,.25,.5,.09,.83-.54,.82-.86-.01-1.73,0-2.77,0,.59-1.49,1.11-2.8,1.66-4.21Z"/>
  <path class="cls-38" d="M254.39,514.19c1.78-2.85,4.37-2.85,5.97,0h-5.97Z"/>
  <path class="cls-23" d="M176.89,514.25h-6.08c.78-1.42,1.77-2.28,3.26-2.18,1.27,.08,2.34,.65,2.82,2.18Z"/>
  <path class="cls-20" d="M143.48,511.93c1.94,0,3.03,1.12,3.05,3.15,.01,1.92-1.26,3.37-2.95,3.36-1.68,0-2.72-1.25-2.75-3.28-.03-2.12,.88-3.23,2.66-3.23Z"/>
  <path class="cls-20" d="M236.26,515.12c0,1.85-1.36,3.35-3.01,3.32-1.64-.03-2.74-1.33-2.78-3.31-.04-1.91,1.08-3.2,2.77-3.2,1.92,0,3.02,1.16,3.03,3.19Z"/>
  <path class="cls-23" d="M223.58,661.95h-5.91c.29-1.49,1.4-2.06,2.59-2.19,1.44-.16,2.63,.47,3.33,2.19Z"/>
  <path class="cls-20" d="M187.72,662.79c.05,2.78-1.96,4.29-4.09,3.6-.62-.2-1.05-.62-1.33-1.22-.89-1.95,1.5-5.56,3.64-5.51,.86,.02,1.42,.34,1.52,1.27,.09,.8,.21,1.6,.25,1.87Z"/>
  <path class="cls-44" d="M334.57,257.14c2.03-.62,1.88,.66,2.03,2.09,.22,2.04-.79,1.99-2.33,2.11-2.05,.16-1.86-.89-1.97-2.3-.16-1.93,.68-2.27,2.28-1.9Z"/>
  <path class="cls-38" d="M339.64,262.11c1.64-.36,2.16,.13,2.17,1.85,0,1.8-.61,2.07-2.2,2.08-1.62,.01-2.14-.34-2.18-2.09-.05-1.96,.77-2.18,2.21-1.85Z"/>
  <path class="cls-42" d="M339.88,257.13c2.32-.74,1.67,1.03,1.88,2.3,.36,2.15-1.02,1.71-2.29,1.89-2.18,.31-1.83-1.01-2-2.38-.26-2.13,.96-1.97,2.41-1.81Z"/>
  <path class="cls-6" d="M334.49,265.91c-1.88,.54-2.1-.36-2.21-2-.15-2.15,1.06-1.76,2.36-1.92,1.82-.22,1.94,.62,1.97,2.1,.03,1.7-.51,2.32-2.12,1.81Z"/>
  <path class="cls-44" d="M334.45,255.99c-1.46,.26-2.15,.02-2.19-1.82-.04-2.03,.91-1.87,2.32-1.95,1.62-.1,1.99,.37,2.05,2,.07,1.93-.8,2.01-2.18,1.77Z"/>
  <path class="cls-42" d="M339.62,255.99c-1.41,.26-2.19,.13-2.2-1.78,0-1.95,.8-1.96,2.28-1.99,1.52-.02,2.08,.22,2.11,1.97,.03,1.9-.77,2.05-2.2,1.8Z"/>
  <path class="cls-22" d="M342.7,259.17c-.27-1.47-.02-2.17,1.82-2.19,1.98-.03,1.92,.85,2.01,2.31,.09,1.67-.42,1.99-2.04,2.06-1.92,.08-2.06-.76-1.79-2.18Z"/>
  <path class="cls-22" d="M327.73,259.01c-.47-1.78,.45-1.89,1.96-2.01,2.26-.19,1.68,1.22,1.84,2.43,.23,1.67-.53,1.79-1.96,1.91-2.08,.17-2.05-.91-1.84-2.33Z"/>
  <path class="cls-8" d="M346.44,264.05c.47,1.76-.43,1.95-1.97,2.01-1.73,.06-1.78-.69-1.87-2.06-.12-1.75,.53-1.99,2.08-2.01,1.64-.02,2.12,.54,1.76,2.06Z"/>
  <path class="cls-8" d="M331.43,264.09c.53,1.92-.6,1.82-1.92,1.95-1.96,.21-1.77-.89-1.89-2.21-.16-1.75,.68-1.77,2.04-1.84,1.82-.1,2.18,.66,1.77,2.1Z"/>
  <path class="cls-22" d="M329.65,255.99c-1.49,.35-2.1-.09-2.03-1.74,.06-1.33,.04-2.17,1.81-2.04,1.39,.1,2.28,.06,2.13,1.94-.12,1.44-.24,2.31-1.91,1.84Z"/>
  <path class="cls-22" d="M346.43,254.21c.51,1.76-.5,1.77-1.87,1.89-1.79,.16-1.88-.61-1.97-2.08-.11-1.79,.74-1.74,2.06-1.79,1.56-.06,2.19,.41,1.78,1.98Z"/>
  <path class="cls-21" d="M343.05,247.69c0,.31,.02,.62,0,.93-.05,.62,.28,1.45-.88,1.44-1.17,0-.8-.86-.84-1.46-.04-.62-.01-1.24,0-1.86,0-.61-.12-1.27,.87-1.26,1,0,.85,.68,.86,1.28,0,.31,0,.62,0,.93Z"/>
  <path class="cls-42" d="M331.11,247.65c0-.43,.02-.86,0-1.29-.04-.63,.21-.86,.86-.86,.72,0,.78,.39,.78,.94-.01,.92-.02,1.85,0,2.77,.02,.63-.21,.86-.86,.86-.72,0-.79-.39-.78-.94,.01-.49,0-.98,0-1.48Z"/>
  <path class="cls-20" d="M133.69,253.63c-.01,1.31-.18,2.48-.79,3.52-.86,1.46-2.44,1.55-3.52,.24-1.44-1.73-1.5-5.58-.11-7.36,.97-1.25,2.98-1.11,3.7,.3,.55,1.06,.69,2.24,.72,3.31Z"/>
  <path class="cls-20" d="M95.53,253.88c.03,.95-.16,2.04-.69,3.05-.93,1.78-2.73,1.92-3.78,.2-1.32-2.17-1.28-4.46-.2-6.74,.47-.99,1.31-1.15,2.31-1.14,1,.01,1.43,.59,1.75,1.37,.41,.98,.6,2.01,.6,3.26Z"/>
  <path class="cls-20" d="M67.9,253.88c.06,1.02-.07,2.17-.7,3.22-.9,1.51-2.34,1.63-3.49,.31-1.5-1.73-1.54-5.79-.07-7.5,.95-1.11,2.86-.91,3.59,.37,.45,.8,.67,1.89,.67,3.6Z"/>
  <path class="cls-22" d="M100.41,251.38c.02-1.59,1.18-2.56,2.8-2.47,.88,.05,1.76,.13,1.74,1.4-.02,1.64-1.26,3.17-2.64,3.04-1.23-.12-1.83-.92-1.9-1.97Z"/>
  <path class="cls-22" d="M75.63,248.9c.75,.1,1.79-.01,1.75,1.4-.04,1.69-1.26,3.16-2.62,3.05-1.25-.11-1.85-.94-1.88-2.13-.04-1.34,1.08-2.3,2.75-2.32Z"/>
</svg>