<?xml version="1.0" standalone="no"?>
<!DOCTYPE svg PUBLIC "-//W3C//DTD SVG 20010904//EN"
 "http://www.w3.org/TR/2001/REC-SVG-20010904/DTD/svg10.dtd">
<svg version="1.0" xmlns="http://www.w3.org/2000/svg"
 width="1092.000000pt" height="2148.000000pt" viewBox="0 0 1092.000000 2148.000000"
 preserveAspectRatio="xMidYMid meet">

<g transform="translate(0.000000,2148.000000) scale(0.100000,-0.100000)"
fill="#000000" stroke="none">
<path d="M1133 21460 c-122 -10 -212 -39 -358 -113 -416 -212 -593 -435 -693
-877 l-26 -115 -3 -582 c-4 -476 -7 -583 -18 -583 -7 0 -16 -7 -19 -16 -3 -9
-6 -160 -6 -337 0 -304 1 -324 20 -355 19 -30 20 -50 20 -288 0 -241 -1 -257
-20 -281 -20 -25 -20 -41 -20 -633 0 -594 0 -607 20 -625 18 -16 20 -31 20
-150 0 -124 -1 -133 -20 -138 -20 -5 -20 -14 -20 -630 0 -621 0 -624 21 -651
l21 -27 -2 -3292 c-1 -1811 -1 -4941 1 -6957 l4 -3665 22 -115 c30 -161 66
-268 129 -390 168 -324 453 -519 871 -595 135 -25 524 -35 1568 -41 1168 -7
6631 14 6920 26 264 11 532 36 610 57 300 81 546 344 629 674 25 98 39 203 57
414 20 257 29 5091 18 10129 l-11 4940 26 19 26 19 0 599 0 600 -25 23 -25 23
0 1334 c0 812 -4 1378 -10 1448 -60 673 -458 1074 -1145 1151 -106 12 -8437
11 -8582 0z m8632 -95 c384 -67 710 -311 884 -661 50 -102 68 -155 86 -262 23
-138 30 -3162 29 -11697 -1 -5811 -4 -7569 -13 -7665 -36 -367 -147 -595 -383
-785 -204 -163 -294 -177 -1243 -192 -280 -4 -2170 -8 -4200 -8 -3543 0 -3694
1 -3795 18 -336 60 -599 221 -765 472 -86 128 -138 258 -181 445 -16 70 -17
405 -25 4990 -4 2703 -4 7030 0 9615 8 4692 8 4700 29 4790 119 522 463 856
977 949 121 22 8473 13 8600 -9z"/>
<path d="M1240 21071 c-8 -4 -49 -16 -90 -26 -214 -49 -405 -188 -532 -385
-95 -147 -132 -280 -147 -522 -6 -94 -10 -3784 -11 -9603 l-1 -9450 21 -40
c12 -22 31 -64 42 -94 35 -92 89 -173 163 -246 150 -148 276 -224 452 -273
l98 -27 4230 0 4230 0 90 28 c300 95 486 241 582 455 56 125 55 116 64 727 33
2475 42 10311 18 16395 -9 2505 -8 2438 -59 2591 -33 97 -66 146 -170 250 -83
84 -107 102 -190 142 -172 82 -172 82 -844 80 -523 -1 -591 -3 -601 -17 -7 -9
-15 -78 -18 -163 -7 -164 -20 -221 -69 -303 -27 -44 -44 -60 -92 -85 l-60 -30
-2800 -3 c-1860 -2 -2829 1 -2886 8 -106 12 -175 45 -234 111 -56 62 -73 116
-82 256 -8 117 -28 172 -77 207 -28 20 -42 21 -520 23 -271 2 -499 -1 -507 -6z
m8594 -112 c107 -22 153 -41 232 -100 108 -79 191 -211 237 -374 l22 -80 3
-3349 c2 -3193 1 -3348 -15 -3340 -32 15 -1434 22 -5599 30 l-4121 7 -7 1846
c-3 1015 -9 2161 -12 2545 l-7 699 44 -6 c24 -4 1696 -9 3714 -12 2019 -3
4185 -7 4814 -10 739 -3 1141 -1 1135 5 -6 6 -46 14 -89 20 -116 14 -3790 30
-6944 30 l-2674 0 7 558 c12 913 16 963 95 1127 92 193 256 337 451 396 73 22
89 23 562 27 476 3 487 3 507 -17 26 -26 37 -72 49 -199 11 -114 43 -197 109
-284 81 -105 113 -109 978 -109 2141 1 4918 13 4980 22 96 13 201 65 257 128
81 90 118 198 118 347 0 53 4 77 16 88 8 9 16 17 17 18 3 4 961 13 992 9 17
-1 74 -12 129 -22z m-7844 -7249 c740 -4 2689 -8 4331 -9 1642 0 3216 -4 3497
-8 l512 -6 0 -5407 c0 -2974 -3 -5488 -7 -5586 l-6 -180 -61 7 c-99 13 -4053
29 -6963 29 l-2703 0 0 5591 0 5591 28 -7 c15 -4 632 -11 1372 -15z m0 -11200
c740 -4 2691 -8 4335 -9 1645 0 3216 -4 3493 -8 l503 -6 -3 -676 c-4 -665 -4
-677 -26 -756 -39 -139 -96 -239 -187 -331 -129 -129 -274 -202 -449 -224
-116 -14 -8286 -14 -8393 1 -328 45 -589 291 -657 622 -14 65 -16 174 -16 743
l0 666 28 -7 c15 -4 632 -11 1372 -15z"/>
<path d="M8980 20610 c0 -113 1 -120 20 -120 19 0 20 7 20 120 0 113 -1 120
-20 120 -19 0 -20 -7 -20 -120z"/>
<path d="M9214 20699 c-41 -12 -72 -45 -56 -61 9 -9 17 -7 32 7 32 29 121 32
164 7 28 -17 37 -18 45 -8 14 16 0 29 -52 51 -40 16 -85 18 -133 4z"/>
<path d="M9544 20677 c-3 -8 -4 -43 -2 -78 l3 -64 130 0 130 0 9 38 c6 23 6
51 0 75 l-9 37 -128 3 c-101 2 -128 0 -133 -11z m246 -27 c0 -11 5 -20 10 -20
6 0 10 -9 10 -20 0 -11 -4 -20 -10 -20 -5 0 -10 -9 -10 -20 0 -19 -7 -20 -115
-20 l-115 0 0 60 0 60 115 0 c108 0 115 -1 115 -20z"/>
<path d="M9570 20610 l0 -50 80 0 80 0 0 50 0 50 -80 0 -80 0 0 -50z"/>
<path d="M1071 20647 c-28 -34 -26 -111 5 -141 41 -42 94 -3 94 69 0 53 -23
85 -59 85 -16 0 -34 -6 -40 -13z m70 -34 c21 -55 -14 -114 -48 -81 -15 16 -21
78 -8 97 12 21 45 12 56 -16z"/>
<path d="M1207 20642 c-37 -41 -7 -99 46 -88 29 6 29 5 23 -29 -6 -28 -4 -35
9 -35 23 0 22 155 -1 164 -29 11 -61 6 -77 -12z m61 -34 c-3 -24 -34 -36 -49
-21 -16 16 2 43 28 43 20 0 24 -4 21 -22z"/>
<path d="M1388 20618 c-6 -50 2 -64 30 -49 25 13 58 -8 49 -33 -10 -26 -38
-32 -53 -11 -17 23 -33 11 -18 -13 13 -21 60 -28 80 -11 19 15 18 64 -2 83 -8
9 -27 16 -40 16 -19 0 -25 5 -22 18 2 12 14 18 41 20 54 5 45 22 -12 22 l-49
0 -4 -42z"/>
<path d="M1540 20640 c-22 -22 -25 -36 -11 -45 6 -3 15 4 21 15 12 22 50 28
50 8 0 -7 -19 -31 -41 -54 -55 -56 -49 -74 25 -74 30 0 58 5 61 10 4 6 -13 10
-44 10 -28 0 -51 3 -51 7 0 3 18 23 40 43 43 40 49 60 24 84 -21 22 -50 20
-74 -4z"/>
<path d="M1747 20593 c-14 -37 -28 -76 -32 -85 -5 -13 -2 -18 9 -18 8 0 18 11
22 25 5 20 12 25 39 25 27 0 34 -5 39 -25 6 -22 37 -38 35 -17 -2 21 -66 156
-75 159 -6 2 -23 -27 -37 -64z m53 -20 c0 -7 -7 -13 -15 -13 -16 0 -19 9 -9
35 5 13 8 14 15 3 5 -7 9 -19 9 -25z"/>
<path d="M1880 20574 c0 -64 3 -85 13 -82 7 3 14 28 17 59 l5 54 21 -28 c28
-34 34 -34 62 6 l22 32 0 -63 c0 -35 4 -62 10 -62 6 0 10 35 10 85 0 47 -4 85
-9 85 -5 0 -21 -16 -36 -37 l-28 -36 -34 36 c-18 21 -38 37 -43 37 -6 0 -10
-36 -10 -86z"/>
<path d="M9220 20642 c-36 -18 -40 -40 -5 -34 11 2 38 4 60 4 22 0 51 -2 64
-4 37 -5 36 18 -3 36 -44 21 -72 20 -116 -2z"/>
<path d="M8920 20570 c0 -73 2 -80 20 -80 18 0 20 7 20 80 0 73 -2 80 -20 80
-18 0 -20 -7 -20 -80z"/>
<path d="M1330 20600 c0 -5 7 -10 15 -10 8 0 15 5 15 10 0 6 -7 10 -15 10 -8
0 -15 -4 -15 -10z"/>
<path d="M9242 20600 c-13 -6 -22 -15 -20 -22 5 -14 97 -18 105 -5 14 22 -48
42 -85 27z"/>
<path d="M8860 20540 c0 -43 3 -50 20 -50 17 0 20 7 20 50 0 43 -3 50 -20 50
-17 0 -20 -7 -20 -50z"/>
<path d="M8800 20520 c0 -23 4 -30 20 -30 16 0 20 7 20 30 0 23 -4 30 -20 30
-16 0 -20 -7 -20 -30z"/>
<path d="M9250 20546 c0 -2 6 -9 14 -15 10 -9 16 -8 26 4 11 13 8 15 -14 15
-14 0 -26 -2 -26 -4z"/>
<path d="M8740 20510 c0 -13 7 -20 20 -20 13 0 20 7 20 20 0 13 -7 20 -20 20
-13 0 -20 -7 -20 -20z"/>
<path d="M1330 20500 c0 -5 7 -10 15 -10 8 0 15 5 15 10 0 6 -7 10 -15 10 -8
0 -15 -4 -15 -10z"/>
<path d="M1285 20090 c-37 -16 -383 -373 -391 -403 -6 -27 6 -42 192 -228 154
-153 205 -199 225 -199 33 0 109 77 109 111 0 17 -24 48 -85 109 -47 47 -85
88 -85 92 0 5 90 8 199 8 237 0 231 -3 231 99 0 103 4 101 -235 101 l-199 0
87 89 c106 108 110 127 42 190 -46 42 -56 46 -90 31z"/>
<path d="M2300 19975 c-17 -20 -5 -531 12 -552 8 -10 53 -13 179 -13 158 0
169 1 179 20 8 14 8 26 0 40 -10 19 -21 20 -149 20 l-138 0 -8 238 c-4 135
-11 242 -17 250 -14 17 -43 15 -58 -3z"/>
<path d="M8072 19978 c-7 -7 -12 -24 -12 -38 0 -31 17 -50 45 -50 28 0 45 19
45 50 0 31 -17 50 -45 50 -12 0 -26 -5 -33 -12z"/>
<path d="M7842 19948 c-7 -7 -12 -36 -12 -65 0 -46 -3 -53 -20 -53 -10 0 -23
-8 -28 -17 -9 -16 -11 -16 -27 0 -22 22 -82 22 -120 -1 -29 -18 -30 -18 -40 2
-13 25 -41 32 -60 16 -12 -10 -15 -49 -15 -205 0 -210 4 -224 55 -211 l25 6 0
138 c0 132 1 140 23 160 14 13 43 24 73 28 27 4 57 14 67 22 9 9 17 10 17 4 0
-6 8 -13 18 -17 17 -5 20 -20 25 -125 8 -160 21 -184 110 -208 33 -9 41 -8 57
8 27 27 15 48 -36 71 l-44 18 0 120 0 120 26 3 c15 2 32 11 38 21 15 24 -3 51
-38 55 -24 3 -26 7 -26 51 0 49 -12 71 -40 71 -9 0 -21 -5 -28 -12z"/>
<path d="M2832 19819 c-87 -44 -160 -170 -147 -256 7 -47 37 -97 77 -126 40
-30 132 -34 179 -9 35 18 37 18 48 0 6 -10 20 -18 30 -18 39 0 44 22 39 186
-5 173 -12 193 -79 226 -45 24 -95 23 -147 -3z m127 -83 c6 -7 14 -50 18 -95
6 -76 4 -83 -17 -106 -49 -53 -145 -57 -177 -8 -50 75 34 223 127 223 20 0 43
-6 49 -14z"/>
<path d="M3172 19828 c-8 -8 -12 -68 -12 -204 0 -209 4 -223 55 -210 l25 6 0
140 0 140 47 30 c57 36 86 38 118 5 28 -27 29 -39 25 -207 l-2 -107 27 -7 c42
-10 51 12 58 138 7 124 0 178 -28 226 -43 73 -155 83 -222 20 -22 -21 -23 -21
-23 -2 0 24 -18 44 -40 44 -9 0 -21 -5 -28 -12z"/>
<path d="M3725 19829 c-101 -59 -155 -208 -111 -312 51 -122 250 -145 324 -37
38 56 23 128 -24 118 -19 -3 -30 -21 -38 -59 -12 -56 -119 -63 -170 -12 -47
47 -30 152 33 206 42 35 62 34 105 -4 38 -33 72 -36 90 -6 14 21 3 40 -47 81
-28 22 -49 30 -89 33 -29 2 -62 -2 -73 -8z"/>
<path d="M4522 19828 c-15 -15 -17 -370 -2 -399 11 -20 36 -24 59 -10 12 8 14
34 12 135 -3 162 7 180 107 195 51 7 74 30 56 59 -16 25 -81 27 -124 4 -34
-19 -35 -19 -45 2 -12 25 -45 32 -63 14z"/>
<path d="M5029 19823 c-10 -12 -14 -50 -14 -142 0 -116 2 -131 26 -176 45 -89
115 -115 194 -75 22 11 40 20 41 20 1 0 4 -9 7 -20 6 -24 39 -26 61 -4 24 23
24 375 0 398 -18 19 -50 21 -60 4 -4 -6 -6 -64 -5 -129 3 -136 -9 -170 -64
-196 -48 -23 -80 -7 -107 54 -18 41 -20 60 -15 150 4 83 2 107 -10 118 -19 20
-37 19 -54 -2z"/>
<path d="M5472 19828 c-15 -15 -17 -370 -2 -399 12 -21 55 -26 66 -7 4 7 7 71
5 144 l-2 131 47 32 c53 35 79 38 111 16 34 -24 45 -81 37 -200 -7 -110 -1
-135 36 -135 36 0 42 25 43 172 2 123 -1 148 -17 182 -43 86 -160 103 -233 34
-22 -21 -23 -21 -23 -2 0 24 -18 44 -40 44 -9 0 -21 -5 -28 -12z"/>
<path d="M6624 19832 c-7 -5 -13 -99 -18 -277 -7 -298 -4 -314 46 -302 28 7
38 41 38 131 0 42 2 47 18 40 9 -4 40 -9 67 -11 103 -8 194 73 203 181 14 166
-131 293 -260 228 -34 -18 -36 -18 -47 0 -12 19 -29 23 -47 10z m232 -103 c22
-21 44 -80 44 -119 0 -99 -131 -157 -190 -83 -27 35 -29 162 -3 189 46 45 108
51 149 13z"/>
<path d="M7192 19819 c-87 -44 -160 -170 -147 -256 7 -47 37 -97 77 -126 40
-30 132 -34 179 -9 35 18 37 18 48 0 6 -10 20 -18 30 -18 39 0 44 22 39 186
-5 173 -12 193 -79 226 -45 24 -95 23 -147 -3z m127 -83 c6 -7 14 -50 18 -95
6 -76 4 -83 -17 -106 -49 -53 -145 -57 -177 -8 -50 75 34 223 127 223 20 0 43
-6 49 -14z"/>
<path d="M8082 19832 c-18 -12 -30 -369 -13 -400 12 -23 55 -31 66 -12 12 20
17 377 6 399 -12 22 -36 27 -59 13z"/>
<path d="M4145 19811 c-43 -19 -100 -78 -116 -118 -16 -42 -11 -131 11 -172
38 -75 104 -111 204 -111 100 0 179 46 155 91 -12 23 -35 24 -82 4 -65 -27
-138 -16 -184 27 -46 43 -34 48 127 48 146 0 150 1 165 24 13 20 14 30 3 70
-33 125 -168 190 -283 137z m139 -76 c18 -9 40 -29 50 -45 l17 -30 -120 0
c-67 0 -121 3 -121 8 1 15 36 52 65 66 38 20 68 20 109 1z"/>
<path d="M6037 19820 c-44 -13 -95 -57 -117 -100 -58 -113 -21 -233 88 -287
46 -22 61 -25 126 -21 89 6 139 31 144 71 5 37 -18 44 -82 23 -29 -9 -67 -16
-85 -16 -47 0 -99 28 -117 61 l-15 29 155 0 c178 0 183 2 172 78 -16 123 -143
200 -269 162z m123 -85 c27 -14 60 -51 60 -67 0 -5 -52 -8 -115 -8 -63 0 -115
3 -115 6 0 17 25 47 53 64 38 24 78 25 117 5z"/>
<path d="M8352 19809 c-115 -57 -153 -192 -87 -305 21 -36 39 -52 82 -71 48
-22 65 -25 128 -21 87 6 140 31 140 67 0 39 -27 48 -82 28 -58 -21 -102 -22
-147 -3 -31 13 -66 49 -66 68 0 5 69 8 153 8 164 0 177 4 177 51 0 145 -164
244 -298 178z m148 -74 c27 -14 60 -51 60 -67 0 -5 -55 -8 -121 -8 l-121 0 14
23 c22 33 77 67 110 67 16 0 42 -7 58 -15z"/>
<path d="M1355 18178 c-3 -7 -6 -67 -7 -133 l-3 -120 -30 49 c-58 97 -144 206
-164 206 -26 0 -31 -19 -31 -113 0 -130 11 -218 28 -224 26 -10 31 20 25 136
-4 77 -3 112 4 108 6 -4 46 -61 89 -127 62 -95 83 -120 101 -120 31 0 34 19
31 195 -3 133 -5 150 -21 153 -9 2 -19 -2 -22 -10z"/>
<path d="M2437 18184 c-4 -4 -7 -26 -7 -50 l0 -42 -40 5 c-47 7 -81 -12 -110
-60 -63 -103 40 -240 141 -187 13 7 19 7 19 0 0 -5 9 -10 20 -10 20 0 20 5 18
172 -3 147 -5 173 -18 176 -9 1 -19 0 -23 -4z m-26 -144 c15 -9 19 -22 19 -71
0 -53 -3 -61 -24 -70 -73 -34 -128 58 -75 125 22 28 48 33 80 16z"/>
<path d="M2965 18178 c-3 -8 -4 -86 -3 -173 3 -152 4 -160 23 -160 19 0 20 7
20 170 0 154 -2 170 -18 173 -9 2 -19 -3 -22 -10z"/>
<path d="M4347 18183 c-13 -12 -7 -44 8 -49 24 -10 47 14 34 37 -10 19 -30 25
-42 12z"/>
<path d="M4207 18164 c-4 -4 -7 -19 -7 -33 0 -35 -30 -61 -53 -47 -12 8 -25 7
-47 -1 -26 -10 -32 -9 -37 3 -3 8 -14 14 -24 14 -18 0 -19 -9 -19 -125 0 -106
3 -127 16 -132 25 -9 34 16 34 99 0 84 9 98 64 98 14 0 26 5 26 10 0 7 6 7 20
0 17 -9 20 -21 20 -81 0 -83 9 -103 52 -118 26 -9 35 -9 47 4 15 15 14 18 -3
31 -11 8 -26 14 -33 14 -10 0 -13 20 -13 74 0 65 2 74 20 79 26 7 26 37 1 44
-14 3 -21 15 -23 36 -3 30 -25 47 -41 31z"/>
<path d="M1505 18076 c-13 -13 -29 -42 -36 -64 -10 -35 -9 -48 5 -87 22 -55
48 -75 102 -75 76 0 121 60 111 147 -7 65 -49 103 -113 103 -34 0 -51 -6 -69
-24z m117 -43 c25 -23 24 -87 -2 -113 -57 -57 -135 23 -96 99 13 25 23 31 48
31 17 0 40 -7 50 -17z"/>
<path d="M1746 18085 c-3 -8 -3 -67 1 -130 4 -85 9 -115 19 -115 24 0 35 39
33 112 -2 75 10 98 52 98 27 0 32 -16 38 -114 5 -82 8 -91 26 -91 18 0 20 7
21 84 0 76 3 86 24 103 13 10 33 18 44 16 19 -3 21 -11 24 -83 3 -107 8 -125
33 -125 20 0 21 4 17 111 -3 102 -5 112 -27 130 -29 23 -73 24 -107 3 -23 -15
-26 -15 -43 0 -21 19 -72 21 -89 4 -9 -9 -15 -9 -24 0 -16 16 -35 15 -42 -3z"/>
<path d="M3114 18068 c-58 -51 -78 -117 -52 -173 21 -47 93 -69 139 -44 15 7
24 7 35 -1 7 -7 21 -9 30 -6 15 6 16 19 11 109 -6 94 -8 104 -32 125 -39 33
-86 29 -131 -10z m92 -26 c14 -9 27 -92 19 -114 -9 -22 -60 -42 -90 -34 -49
12 -41 94 13 136 26 21 40 24 58 12z"/>
<path d="M3477 18093 c-4 -3 -7 -84 -7 -180 0 -163 1 -173 19 -173 22 0 31 19
31 68 l0 37 44 -3 c53 -5 81 9 106 51 62 101 -36 247 -132 196 -14 -8 -23 -8
-31 0 -13 13 -21 14 -30 4z m138 -68 c30 -29 34 -89 8 -117 -18 -20 -73 -24
-91 -6 -7 7 -12 36 -12 65 0 47 3 54 28 67 36 20 39 20 67 -9z"/>
<path d="M3794 18068 c-58 -51 -78 -117 -52 -173 21 -47 93 -69 139 -44 15 7
24 7 35 -1 7 -7 21 -9 30 -6 15 6 16 19 11 109 -6 94 -8 104 -32 125 -39 33
-86 29 -131 -10z m92 -26 c14 -9 27 -92 19 -114 -9 -22 -60 -42 -90 -34 -49
12 -41 94 13 136 26 21 40 24 58 12z"/>
<path d="M4345 18088 c-3 -8 -4 -66 -3 -129 3 -106 4 -114 23 -114 19 0 20 7
20 125 0 111 -2 125 -18 128 -9 2 -19 -3 -22 -10z"/>
<path d="M2589 18067 c-73 -49 -72 -155 0 -204 40 -27 107 -31 151 -8 32 17
35 22 21 44 -8 12 -14 13 -36 3 -36 -17 -86 -15 -113 4 -39 27 -24 34 67 34
104 0 116 7 100 63 -22 81 -117 113 -190 64z m126 -47 c10 -11 16 -23 13 -26
-3 -3 -37 -4 -74 -2 l-69 3 23 23 c28 28 82 30 107 2z"/>
<path d="M4499 18067 c-39 -26 -66 -89 -55 -130 12 -50 57 -88 108 -94 78 -9
149 27 113 57 -10 8 -19 8 -34 1 -42 -23 -131 -3 -131 29 0 5 42 11 93 12 92
3 92 3 95 30 11 91 -107 150 -189 95z m124 -49 l22 -23 -69 -3 c-37 -2 -71 0
-75 3 -11 12 41 45 70 45 17 0 39 -10 52 -22z"/>
<path d="M1113 17551 c-13 -6 -23 -14 -23 -18 0 -4 -1 -237 -3 -518 l-2 -510
490 -8 c610 -10 8073 -15 8088 -5 14 8 17 898 4 989 l-8 56 -182 6 c-316 12
-8340 19 -8364 8z m8503 -54 c6 -6 10 -938 4 -946 -10 -16 -8452 -19 -8476 -3
-8 5 -10 142 -6 479 l5 473 1111 2 c1341 4 7358 -1 7362 -5z"/>
<path d="M3346 15841 c-29 -30 -34 -56 -12 -64 16 -7 66 42 66 65 0 28 -27 27
-54 -1z"/>
<path d="M1143 15850 c-23 -9 -23 -13 -23 -168 0 -109 4 -162 12 -170 15 -15
127 -16 165 -1 136 51 151 262 23 327 -47 23 -134 29 -177 12z m177 -75 c34
-32 45 -81 31 -133 -17 -60 -50 -85 -121 -90 l-60 -4 0 124 c0 69 3 128 8 132
4 5 31 6 61 3 40 -4 61 -13 81 -32z"/>
<path d="M2446 15834 c-3 -9 -6 -30 -6 -49 l0 -33 -45 5 c-40 5 -48 2 -79 -29
-44 -44 -54 -93 -31 -154 11 -29 27 -50 45 -59 32 -17 78 -19 99 -6 9 6 21 5
33 -2 34 -22 39 7 32 173 -3 85 -8 158 -11 163 -8 13 -31 8 -37 -9z m-18 -140
c20 -14 23 -23 20 -67 -3 -43 -7 -54 -29 -66 -73 -41 -136 63 -74 124 28 29
51 31 83 9z"/>
<path d="M3136 15834 c-3 -9 -6 -30 -6 -49 l0 -33 -45 5 c-40 5 -48 2 -79 -29
-44 -44 -54 -93 -31 -154 11 -29 27 -50 45 -59 32 -17 78 -19 99 -6 9 6 21 5
33 -2 34 -22 39 7 32 173 -3 85 -8 158 -11 163 -8 13 -31 8 -37 -9z m-18 -140
c20 -14 23 -23 20 -67 -3 -43 -7 -54 -29 -66 -73 -41 -136 63 -74 124 28 29
51 31 83 9z"/>
<path d="M3547 15843 c-4 -3 -7 -81 -7 -173 l0 -167 74 -1 c87 -2 119 16 136
76 25 96 -47 195 -130 178 -29 -5 -30 -4 -30 28 0 56 -20 83 -43 59z m132
-154 c48 -52 32 -132 -27 -137 -48 -5 -62 12 -62 74 0 79 45 111 89 63z"/>
<path d="M1737 15824 c-4 -4 -7 -22 -7 -41 0 -23 -5 -33 -15 -33 -8 0 -15 -9
-15 -20 0 -11 7 -20 15 -20 12 0 15 -15 15 -74 0 -58 4 -79 20 -98 22 -28 63
-41 79 -25 17 17 13 25 -19 42 -29 15 -30 18 -30 84 0 60 2 69 20 74 26 7 26
37 1 44 -14 3 -21 15 -23 36 -3 30 -25 47 -41 31z"/>
<path d="M4087 15824 c-4 -4 -7 -20 -7 -36 0 -16 -6 -31 -15 -34 -8 -4 -15
-14 -15 -24 0 -10 7 -20 15 -24 11 -4 15 -22 15 -76 0 -84 9 -104 52 -119 26
-9 35 -9 47 4 15 15 14 18 -3 31 -11 8 -26 14 -33 14 -10 0 -13 20 -13 74 0
65 2 74 20 79 26 7 26 37 1 44 -14 3 -21 15 -23 36 -3 30 -25 47 -41 31z"/>
<path d="M1504 15728 c-58 -51 -78 -117 -52 -173 21 -47 93 -69 139 -44 15 7
24 7 35 -1 7 -7 21 -9 30 -6 15 6 16 19 11 109 -6 94 -8 104 -32 125 -39 33
-86 29 -131 -10z m92 -26 c14 -9 27 -92 19 -114 -9 -22 -60 -42 -90 -34 -49
12 -41 94 13 136 26 21 40 24 58 12z"/>
<path d="M3811 15741 c-18 -32 -13 -131 9 -178 24 -54 58 -72 102 -55 23 8 35
9 45 1 7 -6 20 -9 28 -5 13 5 15 25 13 128 -3 115 -4 123 -23 123 -18 0 -20
-8 -23 -85 -2 -72 -6 -88 -23 -102 -53 -44 -82 -10 -89 106 -5 81 -19 105 -39
67z"/>
<path d="M1918 15734 c-36 -19 -58 -63 -58 -116 0 -50 19 -82 60 -103 59 -31
165 -11 165 30 0 15 -6 19 -25 17 -14 -2 -44 -6 -67 -9 -34 -4 -45 -1 -65 19
l-23 23 92 3 c107 3 121 12 103 66 -17 52 -62 86 -113 86 -23 -1 -54 -7 -69
-16z m117 -54 c10 -11 16 -23 13 -26 -3 -3 -37 -4 -74 -2 l-69 3 23 23 c28 28
82 30 107 2z"/>
<path d="M2608 15734 c-36 -19 -58 -63 -58 -116 0 -50 19 -82 60 -103 59 -31
165 -11 165 30 0 15 -6 19 -25 17 -14 -2 -44 -6 -67 -9 -34 -4 -45 -1 -65 19
l-23 23 92 3 c107 3 121 12 103 66 -17 52 -62 86 -113 86 -23 -1 -54 -7 -69
-16z m117 -54 c10 -11 16 -23 13 -26 -3 -3 -37 -4 -74 -2 l-69 3 23 23 c28 28
82 30 107 2z"/>
<path d="M3303 15730 c-44 -26 -64 -61 -65 -109 0 -51 23 -88 67 -107 49 -20
118 -18 145 4 36 29 18 42 -50 35 -46 -4 -65 -2 -85 11 -14 9 -25 21 -25 26 0
5 44 11 98 12 92 3 97 4 100 26 8 51 -68 122 -130 122 -12 0 -37 -9 -55 -20z
m112 -50 c10 -11 16 -23 13 -26 -3 -3 -37 -4 -74 -2 l-69 3 23 23 c28 28 82
30 107 2z"/>
<path d="M1113 15231 c-13 -6 -23 -14 -23 -18 0 -4 -1 -237 -3 -518 l-2 -510
490 -8 c610 -10 8073 -15 8088 -5 14 8 17 898 4 989 l-8 56 -182 6 c-316 12
-8340 19 -8364 8z m8503 -54 c6 -6 10 -938 4 -946 -10 -16 -8452 -19 -8476 -3
-8 5 -10 142 -6 479 l5 473 1111 2 c1341 4 7358 -1 7362 -5z"/>
<path d="M8810 14960 c-11 -11 -20 -31 -20 -45 0 -21 -5 -25 -29 -25 -60 0
-61 -7 -61 -279 0 -179 3 -250 12 -259 9 -9 86 -12 284 -12 271 0 273 0 288
22 13 19 16 60 16 248 0 258 -4 273 -63 278 -33 3 -37 6 -37 31 0 35 -28 61
-67 61 -34 0 -58 -22 -68 -62 -7 -27 -10 -28 -71 -28 -62 0 -64 1 -64 25 0 34
-33 65 -70 65 -17 0 -39 -9 -50 -20z m70 -90 c0 -53 -2 -60 -20 -60 -18 0 -20
7 -20 60 0 53 2 60 20 60 18 0 20 -7 20 -60z m280 0 c0 -57 -1 -60 -25 -60
-24 0 -25 3 -25 60 0 57 1 60 25 60 24 0 25 -3 25 -60z m-310 -170 l0 -50 -50
0 -50 0 0 50 0 50 50 0 50 0 0 -50z m130 0 l0 -50 -55 0 -55 0 0 50 0 50 55 0
55 0 0 -50z m140 0 l0 -50 -55 0 -55 0 0 50 0 50 55 0 55 0 0 -50z m130 0 l0
-50 -50 0 -50 0 0 50 0 50 50 0 50 0 0 -50z m-400 -135 l0 -55 -50 0 -50 0 0
55 0 55 50 0 50 0 0 -55z m130 0 l0 -55 -55 0 -55 0 0 55 0 55 55 0 55 0 0
-55z m140 0 l0 -55 -55 0 -55 0 0 55 0 55 55 0 55 0 0 -55z m130 0 l0 -55 -50
0 -50 0 0 55 0 55 50 0 50 0 0 -55z m-402 -127 l-3 -53 -47 -3 -48 -3 0 55 0
56 51 0 50 0 -3 -52z m132 -4 l0 -55 -52 3 -53 3 -3 53 -3 52 55 0 56 0 0 -56z
m140 1 l0 -55 -55 0 -55 0 0 55 0 55 55 0 55 0 0 -55z m128 3 l-3 -53 -47 -3
-48 -3 0 55 0 56 51 0 50 0 -3 -52z"/>
<path d="M1965 14880 c-40 -16 -68 -57 -68 -99 0 -88 72 -132 156 -96 15 6 17
0 17 -63 0 -73 10 -93 35 -72 12 10 15 43 15 161 l0 149 -36 15 c-40 16 -87
19 -119 5z m93 -52 c16 -20 2 -66 -26 -88 -29 -23 -42 -25 -64 -7 -46 36 -15
107 47 107 18 0 37 -6 43 -12z"/>
<path d="M2684 14871 c-63 -38 -70 -128 -13 -175 35 -29 71 -33 113 -11 l29
15 -7 -68 c-6 -56 -4 -71 9 -82 29 -24 37 4 43 138 6 164 4 174 -47 190 -56
17 -91 15 -127 -7z m100 -37 c25 -10 20 -61 -9 -89 -28 -29 -51 -32 -77 -8
-53 47 15 124 86 97z"/>
<path d="M3180 14883 c-8 -3 -27 -17 -42 -31 -35 -32 -40 -92 -8 -92 11 0 20
6 20 14 0 7 9 25 21 40 36 46 99 25 85 -28 -3 -14 -36 -51 -72 -83 -36 -32
-72 -71 -80 -86 -14 -26 -14 -31 1 -53 16 -24 19 -25 128 -22 104 3 112 4 112
23 0 18 -8 20 -97 23 -54 1 -98 5 -98 8 0 2 30 32 66 66 101 95 118 146 65
199 -29 28 -63 36 -101 22z"/>
<path d="M3724 14871 c-33 -20 -60 -71 -50 -97 9 -22 40 -13 44 14 7 47 82 70
102 31 15 -27 3 -45 -89 -135 -73 -73 -85 -99 -55 -129 13 -13 36 -15 123 -13
98 3 106 4 106 23 0 18 -8 20 -100 25 l-99 5 62 55 c76 67 102 105 102 154 0
74 -76 110 -146 67z"/>
<path d="M4003 14869 c-32 -20 -60 -79 -48 -99 13 -22 41 -10 50 22 18 58 95
64 103 9 3 -17 -17 -43 -82 -106 -89 -86 -100 -109 -67 -139 15 -14 36 -16
127 -14 101 3 109 4 109 23 0 18 -8 20 -97 23 -54 1 -98 6 -98 10 0 4 27 32
61 61 104 92 124 148 70 202 -36 35 -81 38 -128 8z"/>
<path d="M1681 14864 c-78 -55 -80 -227 -4 -294 59 -52 137 -31 169 46 35 83
5 227 -52 252 -36 17 -86 15 -113 -4z m116 -71 c21 -51 14 -154 -12 -183 -25
-28 -63 -22 -89 13 -16 22 -21 43 -21 91 0 81 21 116 71 116 31 0 37 -4 51
-37z"/>
<path d="M2401 14845 c-17 -20 -31 -39 -31 -43 -1 -4 -5 -27 -10 -52 -19 -100
38 -210 109 -210 84 0 125 56 125 170 0 116 -38 170 -120 170 -35 0 -47 -5
-73 -35z m124 -38 c36 -56 26 -185 -16 -208 -47 -25 -88 11 -103 90 -7 39 8
103 30 126 24 23 71 19 89 -8z"/>
<path d="M3428 14853 c-53 -58 -68 -125 -44 -207 27 -91 94 -128 165 -91 78
40 91 227 21 297 -40 40 -105 40 -142 1z m118 -48 c21 -32 24 -128 5 -173 -15
-35 -53 -52 -80 -35 -44 27 -60 140 -28 201 15 27 23 32 52 32 26 0 39 -6 51
-25z"/>
<path d="M2186 14684 c-10 -27 7 -35 65 -32 46 3 54 6 54 23 0 17 -8 20 -56
23 -46 2 -58 0 -63 -14z"/>
<path d="M2924 14685 c-11 -26 10 -36 67 -33 46 3 54 6 54 23 0 17 -8 20 -58
23 -45 2 -59 0 -63 -13z"/>
<path d="M4444 13305 c-9 -23 15 -45 47 -45 l29 0 0 -104 c0 -119 -12 -164
-45 -172 -40 -10 -60 -1 -70 34 -7 23 -15 32 -31 32 -27 0 -33 -16 -22 -57 17
-64 92 -92 158 -58 50 26 63 66 68 203 4 108 6 122 22 122 23 0 44 26 36 45
-4 12 -24 15 -96 15 -72 0 -92 -3 -96 -15z"/>
<path d="M4700 13192 c-76 -76 -56 -220 36 -258 45 -19 84 -11 126 24 56 48
73 123 41 189 -22 47 -66 73 -126 73 -40 0 -54 -5 -77 -28z m140 -52 c48 -48
11 -150 -55 -150 -63 0 -94 74 -60 140 13 26 21 30 55 30 27 0 47 -7 60 -20z"/>
<path d="M4994 13212 c-20 -13 -26 -133 -9 -189 25 -85 97 -127 152 -88 19 13
22 13 27 -1 4 -9 15 -14 28 -12 23 3 23 5 23 148 l0 145 -25 0 c-25 0 -25 -1
-30 -103 -5 -113 -18 -136 -70 -130 -42 5 -62 59 -56 144 6 80 -7 108 -40 86z"/>
<path d="M5395 13210 c-75 -17 -110 -63 -110 -147 0 -52 4 -66 25 -88 36 -39
73 -55 125 -55 66 0 117 23 113 52 -2 18 -8 22 -28 20 -120 -16 -128 -15 -157
15 l-28 28 115 5 c110 5 115 6 118 28 13 86 -81 163 -173 142z m74 -65 c16 -8
31 -21 34 -30 5 -13 -6 -15 -73 -15 -82 0 -93 6 -62 32 34 30 62 34 101 13z"/>
<path d="M5632 13208 c-20 -20 -15 -165 7 -214 31 -69 84 -91 141 -60 21 12
26 12 36 -2 6 -9 18 -13 28 -9 14 6 16 26 16 147 0 118 -2 142 -16 147 -28 11
-37 -14 -35 -99 2 -72 -1 -88 -19 -111 -27 -35 -74 -37 -92 -4 -7 12 -15 65
-18 117 -4 74 -8 95 -20 98 -9 1 -21 -3 -28 -10z"/>
<path d="M5944 13207 c-2 -7 -3 -74 -2 -148 3 -126 4 -134 23 -134 18 0 20 8
25 98 5 107 16 127 69 127 35 0 54 14 49 36 -4 25 -61 31 -93 10 -21 -14 -23
-14 -28 4 -6 22 -35 27 -43 7z"/>
<path d="M6174 13209 c-24 -12 -44 -49 -44 -80 0 -33 43 -66 104 -80 67 -15
84 -30 60 -53 -12 -12 -30 -16 -63 -14 -39 3 -47 7 -49 25 -2 12 -10 27 -18
34 -24 20 -46 -9 -38 -50 8 -40 53 -71 103 -71 49 0 120 36 127 65 15 62 -18
99 -107 118 -43 10 -54 16 -54 32 0 33 64 33 104 -1 30 -25 33 -26 49 -10 48
48 -103 121 -174 85z"/>
<path d="M1113 12431 c-13 -6 -23 -14 -23 -18 0 -4 -1 -237 -3 -518 l-2 -510
490 -8 c610 -10 8073 -15 8088 -5 14 8 17 898 4 989 l-8 56 -182 6 c-316 12
-8340 19 -8364 8z m8503 -54 c6 -6 10 -938 4 -946 -10 -16 -8452 -19 -8476 -3
-8 5 -10 142 -6 480 l5 472 246 0 246 0 -58 -24 c-261 -108 -371 -412 -241
-668 37 -74 135 -168 214 -206 333 -161 714 98 687 468 -10 136 -76 259 -185
342 -34 26 -85 55 -113 65 -49 18 -36 18 688 23 745 5 6984 2 6989 -3z m-7692
-90 c117 -54 189 -136 226 -255 34 -108 21 -234 -33 -321 l-20 -33 -28 60
c-29 64 -72 102 -115 102 -12 0 -48 -13 -79 -30 -44 -23 -70 -30 -115 -30 -45
0 -71 7 -115 30 -31 17 -67 30 -79 30 -43 0 -86 -38 -115 -102 l-28 -60 -20
33 c-96 156 -53 397 91 513 90 73 162 97 281 93 73 -2 101 -8 149 -30z"/>
<path d="M3961 12266 c-44 -46 -16 -84 30 -40 34 33 35 40 10 53 -14 8 -23 5
-40 -13z"/>
<path d="M2654 12247 c-2 -7 -3 -65 -2 -128 3 -106 4 -114 23 -114 18 0 21 8
25 78 l5 78 55 -78 c37 -52 62 -78 75 -78 19 0 20 8 20 125 0 118 -1 125 -20
125 -18 0 -21 -8 -25 -75 l-5 -74 -19 29 c-35 55 -99 125 -113 125 -7 0 -16
-6 -19 -13z"/>
<path d="M3534 12247 c-2 -7 -3 -65 -2 -128 3 -106 4 -114 23 -114 17 0 20 8
23 48 3 47 3 47 38 47 92 0 137 78 79 135 -21 22 -33 25 -90 25 -45 0 -67 -4
-71 -13z m126 -52 c19 -22 -5 -45 -46 -45 -31 0 -34 3 -34 30 0 27 3 30 34 30
18 0 39 -7 46 -15z"/>
<path d="M2929 12164 c-18 -19 -24 -37 -24 -70 0 -57 35 -95 89 -97 51 -1 77
28 84 91 4 44 1 54 -21 76 -36 36 -94 36 -128 0z m85 -30 c17 -7 21 -50 7 -72
-12 -19 -52 -11 -61 13 -16 43 13 75 54 59z"/>
<path d="M3114 12164 c-9 -34 2 -144 14 -156 6 -6 18 -8 26 -5 12 5 16 22 16
72 0 62 1 65 24 65 26 0 39 -32 36 -87 -3 -45 -1 -53 14 -53 22 0 29 17 32 74
1 28 3 54 3 59 2 12 39 8 48 -5 4 -7 8 -38 8 -68 0 -48 2 -55 20 -55 18 0 20
8 23 71 3 68 1 73 -24 93 -29 23 -64 27 -94 11 -13 -7 -21 -7 -25 0 -3 5 -31
10 -60 10 -50 0 -55 -2 -61 -26z"/>
<path d="M3745 12167 c-3 -12 -5 -51 -3 -86 2 -48 7 -67 21 -75 25 -15 37 7
37 67 0 45 2 49 35 63 37 15 46 40 19 51 -8 3 -26 1 -40 -5 -15 -7 -24 -8 -24
-2 0 21 -40 10 -45 -13z"/>
<path d="M3922 12174 c-12 -8 -29 -31 -36 -49 -13 -31 -13 -38 4 -73 23 -47
64 -67 115 -58 42 8 62 38 39 57 -11 9 -18 9 -26 1 -17 -17 -63 -15 -78 3 -11
13 -6 15 38 15 69 0 82 7 82 42 0 63 -83 101 -138 62z m84 -41 c17 -17 17 -18
-9 -21 -15 -2 -37 -2 -49 0 -21 3 -21 4 -4 21 10 9 24 17 31 17 7 0 21 -8 31
-17z"/>
<path d="M4093 12173 c-3 -8 -1 -48 3 -91 8 -67 11 -77 29 -77 18 0 20 8 23
68 3 63 4 67 26 67 29 0 36 -16 36 -86 0 -46 3 -54 19 -54 10 0 22 7 25 16 17
44 -4 148 -32 163 -27 14 -123 9 -129 -6z"/>
<path d="M4332 12183 c-37 -15 -54 -111 -27 -151 20 -27 71 -42 106 -30 65 22
75 149 13 177 -25 11 -69 13 -92 4z m78 -62 c16 -30 -4 -71 -34 -71 -24 0 -36
16 -36 49 0 40 51 56 70 22z"/>
<path d="M4504 12176 c-3 -7 -4 -48 -2 -92 3 -71 5 -79 23 -79 17 0 21 8 25
65 5 61 6 65 30 65 24 0 25 -4 30 -65 4 -57 8 -65 25 -65 17 0 21 8 25 65 5
61 6 65 30 65 24 0 25 -4 30 -65 4 -57 8 -65 25 -65 18 0 20 7 20 73 0 66 -3
76 -25 94 -18 15 -33 18 -60 14 -19 -3 -39 -6 -45 -6 -5 1 -36 3 -68 5 -41 3
-59 1 -63 -9z"/>
<path d="M9179 12093 l-40 -38 75 -75 76 -74 35 34 c19 19 35 44 35 55 0 23
-108 135 -130 135 -6 0 -29 -17 -51 -37z"/>
<path d="M8967 11882 l-147 -147 0 -78 0 -77 73 0 72 0 150 150 150 150 -75
75 -75 75 -148 -148z m68 -22 c-54 -55 -101 -97 -104 -94 -3 2 40 49 94 104
54 55 101 97 104 94 3 -2 -40 -49 -94 -104z m-93 -157 c35 -34 37 -38 21 -55
-24 -27 -53 -23 -53 7 0 18 -5 25 -20 25 -23 0 -27 29 -8 48 17 17 18 16 60
-25z"/>
<path d="M2650 11685 c0 -96 3 -115 15 -115 11 0 15 12 15 45 0 45 0 45 35 45
44 0 92 23 100 49 8 26 -13 67 -42 80 -13 6 -46 11 -73 11 l-50 0 0 -115z
m105 75 c39 -15 31 -51 -14 -63 -18 -4 -40 -6 -47 -3 -14 5 -20 57 -7 69 9 10
38 9 68 -3z"/>
<path d="M3480 11770 c0 -26 -3 -30 -29 -30 -43 0 -60 -9 -77 -42 -20 -39 -11
-93 19 -113 13 -8 44 -14 70 -13 l47 1 0 113 c0 95 -3 114 -15 114 -10 0 -15
-10 -15 -30z m-19 -70 c30 -17 26 -77 -6 -92 -19 -8 -28 -8 -40 2 -21 17 -20
76 3 89 21 13 20 13 43 1z"/>
<path d="M2852 11728 c-31 -31 3 -88 54 -88 28 0 36 -10 23 -27 -17 -20 -56
-16 -62 7 -6 22 -37 28 -37 7 0 -7 7 -23 16 -35 18 -26 69 -30 102 -6 42 29
19 75 -45 89 -18 3 -33 11 -33 16 0 19 30 20 59 3 32 -19 45 -16 36 8 -13 32
-89 50 -113 26z"/>
<path d="M3019 11711 c-40 -40 -36 -93 10 -128 35 -27 136 -5 117 25 -5 8 -15
8 -37 0 -22 -7 -37 -7 -55 1 -42 19 -27 31 41 31 70 0 76 6 54 53 -24 52 -87
60 -130 18z m99 -29 c2 -8 -12 -12 -45 -12 l-48 1 23 19 c24 20 62 15 70 -8z"/>
<path d="M3190 11685 c0 -60 15 -102 39 -109 9 -2 34 -3 56 -2 l40 2 0 79 c0
64 -3 80 -15 80 -11 0 -16 -14 -18 -57 -2 -44 -7 -60 -22 -68 -31 -16 -50 12
-50 76 0 41 -4 54 -15 54 -11 0 -15 -13 -15 -55z"/>
<path d="M3570 11720 c-29 -29 -28 -99 3 -128 33 -31 70 -28 101 9 33 39 34
82 1 114 -30 31 -77 33 -105 5z m85 -34 c13 -19 14 -28 4 -50 -21 -46 -79 -29
-79 24 0 51 48 68 75 26z"/>
<path d="M1675 12203 c-39 -20 -84 -62 -100 -93 -68 -134 34 -300 185 -300
151 0 253 166 185 300 -17 32 -61 73 -102 94 -41 20 -129 20 -168 -1z"/>
<path d="M1113 10991 c-13 -6 -23 -14 -23 -18 0 -4 -1 -237 -3 -518 l-2 -510
490 -8 c610 -10 8073 -15 8088 -5 14 8 17 898 4 989 l-8 56 -182 6 c-316 12
-8340 19 -8364 8z m8503 -54 c6 -6 10 -938 4 -946 -7 -11 -4219 -20 -6178 -13
-1534 5 -1572 5 -1521 23 355 125 431 603 132 831 -86 64 -158 90 -270 96 -74
3 -105 0 -161 -17 -336 -102 -453 -517 -218 -778 54 -60 129 -110 200 -135
l51 -17 -250 -1 c-137 0 -255 4 -261 8 -8 5 -10 142 -6 479 l5 473 1111 2
c1341 4 7358 -1 7362 -5z m-7692 -110 c117 -54 189 -136 226 -255 34 -108 21
-234 -33 -321 l-20 -33 -28 60 c-29 64 -72 102 -115 102 -12 0 -48 -13 -79
-30 -44 -23 -70 -30 -115 -30 -45 0 -71 7 -115 30 -31 17 -67 30 -79 30 -43 0
-86 -38 -115 -102 l-28 -60 -20 33 c-96 156 -53 397 91 513 90 73 162 97 281
93 73 -2 101 -8 149 -30z"/>
<path d="M3961 10846 c-44 -46 -16 -84 30 -40 34 33 35 40 10 53 -14 8 -23 5
-40 -13z"/>
<path d="M2654 10827 c-2 -7 -3 -65 -2 -128 3 -106 4 -114 23 -114 18 0 21 8
25 78 l5 78 55 -78 c37 -52 62 -78 75 -78 19 0 20 8 20 125 0 118 -1 125 -20
125 -18 0 -21 -8 -25 -75 l-5 -74 -19 29 c-35 55 -99 125 -113 125 -7 0 -16
-6 -19 -13z"/>
<path d="M3534 10827 c-2 -7 -3 -65 -2 -128 3 -106 4 -114 23 -114 17 0 20 8
23 48 3 47 3 47 38 47 92 0 137 78 79 135 -21 22 -33 25 -90 25 -45 0 -67 -4
-71 -13z m126 -52 c19 -22 -5 -45 -46 -45 -31 0 -34 3 -34 30 0 27 3 30 34 30
18 0 39 -7 46 -15z"/>
<path d="M2929 10744 c-18 -19 -24 -37 -24 -70 0 -57 35 -95 89 -97 51 -1 77
28 84 91 4 44 1 54 -21 76 -36 36 -94 36 -128 0z m85 -30 c17 -7 21 -50 7 -72
-12 -19 -52 -11 -61 13 -16 43 13 75 54 59z"/>
<path d="M3114 10744 c-9 -34 2 -144 14 -156 6 -6 18 -8 26 -5 12 5 16 22 16
72 0 62 1 65 24 65 26 0 39 -32 36 -87 -3 -45 -1 -53 14 -53 22 0 29 17 32 74
1 28 3 54 3 59 2 12 39 8 48 -5 4 -7 8 -38 8 -68 0 -48 2 -55 20 -55 18 0 20
8 23 71 3 68 1 73 -24 93 -29 23 -64 27 -94 11 -13 -7 -21 -7 -25 0 -3 5 -31
10 -60 10 -50 0 -55 -2 -61 -26z"/>
<path d="M3745 10747 c-3 -12 -5 -51 -3 -86 2 -48 7 -67 21 -75 25 -15 37 7
37 67 0 45 2 49 35 63 37 15 46 40 19 51 -8 3 -26 1 -40 -5 -15 -7 -24 -8 -24
-2 0 21 -40 10 -45 -13z"/>
<path d="M3922 10754 c-12 -8 -29 -31 -36 -49 -13 -31 -13 -38 4 -73 23 -47
64 -67 115 -58 42 8 62 38 39 57 -11 9 -18 9 -26 1 -17 -17 -63 -15 -78 3 -11
13 -6 15 38 15 69 0 82 7 82 42 0 63 -83 101 -138 62z m84 -41 c17 -17 17 -18
-9 -21 -15 -2 -37 -2 -49 0 -21 3 -21 4 -4 21 10 9 24 17 31 17 7 0 21 -8 31
-17z"/>
<path d="M4093 10753 c-3 -8 -1 -48 3 -91 8 -67 11 -77 29 -77 18 0 20 8 23
68 3 63 4 67 26 67 29 0 36 -16 36 -86 0 -46 3 -54 19 -54 10 0 22 7 25 16 17
44 -4 148 -32 163 -27 14 -123 9 -129 -6z"/>
<path d="M4332 10763 c-37 -15 -54 -111 -27 -151 20 -27 71 -42 106 -30 65 22
75 149 13 177 -25 11 -69 13 -92 4z m78 -62 c16 -30 -4 -71 -34 -71 -24 0 -36
16 -36 49 0 40 51 56 70 22z"/>
<path d="M4504 10756 c-3 -7 -4 -48 -2 -92 3 -71 5 -79 23 -79 17 0 21 8 25
65 5 61 6 65 30 65 24 0 25 -4 30 -65 4 -57 8 -65 25 -65 17 0 21 8 25 65 5
61 6 65 30 65 24 0 25 -4 30 -65 4 -57 8 -65 25 -65 18 0 20 7 20 73 0 66 -3
76 -25 94 -18 15 -33 18 -60 14 -19 -3 -39 -6 -45 -6 -5 1 -36 3 -68 5 -41 3
-59 1 -63 -9z"/>
<path d="M9179 10693 l-40 -38 75 -75 76 -74 35 34 c19 19 35 44 35 55 0 23
-108 135 -130 135 -6 0 -29 -17 -51 -37z"/>
<path d="M8967 10482 l-147 -147 0 -78 0 -77 73 0 72 0 150 150 150 150 -75
75 -75 75 -148 -148z m68 -22 c-54 -55 -101 -97 -104 -94 -3 2 40 49 94 104
54 55 101 97 104 94 3 -2 -40 -49 -94 -104z m-93 -157 c35 -34 37 -38 21 -55
-24 -27 -53 -23 -53 7 0 18 -5 25 -20 25 -23 0 -27 29 -8 48 17 17 18 16 60
-25z"/>
<path d="M2650 10285 c0 -96 3 -115 15 -115 11 0 15 12 15 45 0 45 0 45 35 45
44 0 92 23 100 49 8 26 -13 67 -42 80 -13 6 -46 11 -73 11 l-50 0 0 -115z
m105 75 c39 -15 31 -51 -14 -63 -18 -4 -40 -6 -47 -3 -14 5 -20 57 -7 69 9 10
38 9 68 -3z"/>
<path d="M3480 10370 c0 -26 -3 -30 -29 -30 -43 0 -60 -9 -77 -42 -20 -39 -11
-93 19 -113 13 -8 44 -14 70 -13 l47 1 0 113 c0 95 -3 114 -15 114 -10 0 -15
-10 -15 -30z m-19 -70 c30 -17 26 -77 -6 -92 -19 -8 -28 -8 -40 2 -21 17 -20
76 3 89 21 13 20 13 43 1z"/>
<path d="M2852 10328 c-31 -31 3 -88 54 -88 28 0 36 -10 23 -27 -17 -20 -56
-16 -62 7 -6 22 -37 28 -37 7 0 -7 7 -23 16 -35 18 -26 69 -30 102 -6 42 29
19 75 -45 89 -18 3 -33 11 -33 16 0 19 30 20 59 3 32 -19 45 -16 36 8 -13 32
-89 50 -113 26z"/>
<path d="M3019 10311 c-40 -40 -36 -93 10 -128 35 -27 136 -5 117 25 -5 8 -15
8 -37 0 -22 -7 -37 -7 -55 1 -42 19 -27 31 41 31 70 0 76 6 54 53 -24 52 -87
60 -130 18z m99 -29 c2 -8 -12 -12 -45 -12 l-48 1 23 19 c24 20 62 15 70 -8z"/>
<path d="M3190 10285 c0 -60 15 -102 39 -109 9 -2 34 -3 56 -2 l40 2 0 79 c0
64 -3 80 -15 80 -11 0 -16 -14 -18 -57 -2 -44 -7 -60 -22 -68 -31 -16 -50 12
-50 76 0 41 -4 54 -15 54 -11 0 -15 -13 -15 -55z"/>
<path d="M3570 10320 c-29 -29 -28 -99 3 -128 33 -31 70 -28 101 9 33 39 34
82 1 114 -30 31 -77 33 -105 5z m85 -34 c13 -19 14 -28 4 -50 -21 -46 -79 -29
-79 24 0 51 48 68 75 26z"/>
<path d="M1675 10743 c-39 -20 -84 -62 -100 -93 -68 -134 34 -300 185 -300
151 0 253 166 185 300 -17 32 -61 73 -102 94 -41 20 -129 20 -168 -1z"/>
<path d="M1113 9591 c-13 -6 -23 -14 -23 -18 0 -4 -1 -237 -3 -518 l-2 -510
490 -8 c610 -10 8073 -15 8088 -5 14 8 17 898 4 989 l-8 56 -182 6 c-316 12
-8340 19 -8364 8z m8503 -54 c6 -6 10 -938 4 -946 -7 -11 -4219 -20 -6178 -13
-1534 5 -1572 5 -1521 23 355 125 431 603 132 831 -86 64 -158 90 -270 96 -74
3 -105 0 -161 -17 -336 -102 -453 -517 -218 -778 54 -60 129 -110 200 -135
l51 -17 -250 -1 c-137 0 -255 4 -261 8 -8 5 -10 142 -6 479 l5 473 1111 2
c1341 4 7358 -1 7362 -5z m-7692 -110 c117 -54 189 -136 226 -255 34 -108 21
-234 -33 -321 l-20 -33 -28 60 c-29 64 -72 102 -115 102 -12 0 -48 -13 -79
-30 -44 -23 -70 -30 -115 -30 -45 0 -71 7 -115 30 -31 17 -67 30 -79 30 -43 0
-86 -38 -115 -102 l-28 -60 -20 33 c-96 156 -53 397 91 513 90 73 162 97 281
93 73 -2 101 -8 149 -30z"/>
<path d="M3961 9446 c-44 -46 -16 -84 30 -40 34 33 35 40 10 53 -14 8 -23 5
-40 -13z"/>
<path d="M2654 9427 c-2 -7 -3 -65 -2 -128 3 -106 4 -114 23 -114 18 0 21 8
25 78 l5 78 55 -78 c37 -52 62 -78 75 -78 19 0 20 8 20 125 0 118 -1 125 -20
125 -18 0 -21 -8 -25 -75 l-5 -74 -19 29 c-35 55 -99 125 -113 125 -7 0 -16
-6 -19 -13z"/>
<path d="M3534 9427 c-2 -7 -3 -65 -2 -128 3 -106 4 -114 23 -114 17 0 20 8
23 48 3 47 3 47 38 47 92 0 137 78 79 135 -21 22 -33 25 -90 25 -45 0 -67 -4
-71 -13z m126 -52 c19 -22 -5 -45 -46 -45 -31 0 -34 3 -34 30 0 27 3 30 34 30
18 0 39 -7 46 -15z"/>
<path d="M2929 9344 c-18 -19 -24 -37 -24 -70 0 -57 35 -95 89 -97 51 -1 77
28 84 91 4 44 1 54 -21 76 -36 36 -94 36 -128 0z m85 -30 c17 -7 21 -50 7 -72
-12 -19 -52 -11 -61 13 -16 43 13 75 54 59z"/>
<path d="M3114 9344 c-9 -34 2 -144 14 -156 6 -6 18 -8 26 -5 12 5 16 22 16
72 0 62 1 65 24 65 26 0 39 -32 36 -87 -3 -45 -1 -53 14 -53 22 0 29 17 32 74
1 28 3 54 3 59 2 12 39 8 48 -5 4 -7 8 -38 8 -68 0 -48 2 -55 20 -55 18 0 20
8 23 71 3 68 1 73 -24 93 -29 23 -64 27 -94 11 -13 -7 -21 -7 -25 0 -3 5 -31
10 -60 10 -50 0 -55 -2 -61 -26z"/>
<path d="M3745 9347 c-3 -12 -5 -51 -3 -86 2 -48 7 -67 21 -75 25 -15 37 7 37
67 0 45 2 49 35 63 37 15 46 40 19 51 -8 3 -26 1 -40 -5 -15 -7 -24 -8 -24 -2
0 21 -40 10 -45 -13z"/>
<path d="M3922 9354 c-12 -8 -29 -31 -36 -49 -13 -31 -13 -38 4 -73 23 -47 64
-67 115 -58 42 8 62 38 39 57 -11 9 -18 9 -26 1 -17 -17 -63 -15 -78 3 -11 13
-6 15 38 15 69 0 82 7 82 42 0 63 -83 101 -138 62z m84 -41 c17 -17 17 -18 -9
-21 -15 -2 -37 -2 -49 0 -21 3 -21 4 -4 21 10 9 24 17 31 17 7 0 21 -8 31 -17z"/>
<path d="M4093 9353 c-3 -8 -1 -48 3 -91 8 -67 11 -77 29 -77 18 0 20 8 23 68
3 63 4 67 26 67 29 0 36 -16 36 -86 0 -46 3 -54 19 -54 10 0 22 7 25 16 17 44
-4 148 -32 163 -27 14 -123 9 -129 -6z"/>
<path d="M4332 9363 c-37 -15 -54 -111 -27 -151 20 -27 71 -42 106 -30 65 22
75 149 13 177 -25 11 -69 13 -92 4z m78 -62 c16 -30 -4 -71 -34 -71 -24 0 -36
16 -36 49 0 40 51 56 70 22z"/>
<path d="M4504 9356 c-3 -7 -4 -48 -2 -92 3 -71 5 -79 23 -79 17 0 21 8 25 65
5 61 6 65 30 65 24 0 25 -4 30 -65 4 -57 8 -65 25 -65 17 0 21 8 25 65 5 61 6
65 30 65 24 0 25 -4 30 -65 4 -57 8 -65 25 -65 18 0 20 7 20 73 0 66 -3 76
-25 94 -18 15 -33 18 -60 14 -19 -3 -39 -6 -45 -6 -5 1 -36 3 -68 5 -41 3 -59
1 -63 -9z"/>
<path d="M9179 9293 l-40 -38 75 -75 76 -74 35 34 c19 19 35 44 35 55 0 23
-108 135 -130 135 -6 0 -29 -17 -51 -37z"/>
<path d="M8967 9082 l-147 -147 0 -78 0 -77 73 0 72 0 150 150 150 150 -75 75
-75 75 -148 -148z m68 -22 c-54 -55 -101 -97 -104 -94 -3 2 40 49 94 104 54
55 101 97 104 94 3 -2 -40 -49 -94 -104z m-93 -157 c35 -34 37 -38 21 -55 -24
-27 -53 -23 -53 7 0 18 -5 25 -20 25 -23 0 -27 29 -8 48 17 17 18 16 60 -25z"/>
<path d="M2650 8865 c0 -96 3 -115 15 -115 11 0 15 12 15 45 0 45 0 45 35 45
44 0 92 23 100 49 8 26 -13 67 -42 80 -13 6 -46 11 -73 11 l-50 0 0 -115z
m105 75 c39 -15 31 -51 -14 -63 -18 -4 -40 -6 -47 -3 -14 5 -20 57 -7 69 9 10
38 9 68 -3z"/>
<path d="M3480 8950 c0 -26 -3 -30 -29 -30 -43 0 -60 -9 -77 -42 -20 -39 -11
-93 19 -113 13 -8 44 -14 70 -13 l47 1 0 113 c0 95 -3 114 -15 114 -10 0 -15
-10 -15 -30z m-19 -70 c30 -17 26 -77 -6 -92 -19 -8 -28 -8 -40 2 -21 17 -20
76 3 89 21 13 20 13 43 1z"/>
<path d="M2852 8908 c-31 -31 3 -88 54 -88 28 0 36 -10 23 -27 -17 -20 -56
-16 -62 7 -6 22 -37 28 -37 7 0 -7 7 -23 16 -35 18 -26 69 -30 102 -6 42 29
19 75 -45 89 -18 3 -33 11 -33 16 0 19 30 20 59 3 32 -19 45 -16 36 8 -13 32
-89 50 -113 26z"/>
<path d="M3019 8891 c-40 -40 -36 -93 10 -128 35 -27 136 -5 117 25 -5 8 -15
8 -37 0 -22 -7 -37 -7 -55 1 -42 19 -27 31 41 31 70 0 76 6 54 53 -24 52 -87
60 -130 18z m99 -29 c2 -8 -12 -12 -45 -12 l-48 1 23 19 c24 20 62 15 70 -8z"/>
<path d="M3190 8865 c0 -60 15 -102 39 -109 9 -2 34 -3 56 -2 l40 2 0 79 c0
64 -3 80 -15 80 -11 0 -16 -14 -18 -57 -2 -44 -7 -60 -22 -68 -31 -16 -50 12
-50 76 0 41 -4 54 -15 54 -11 0 -15 -13 -15 -55z"/>
<path d="M3570 8900 c-29 -29 -28 -99 3 -128 33 -31 70 -28 101 9 33 39 34 82
1 114 -30 31 -77 33 -105 5z m85 -34 c13 -19 14 -28 4 -50 -21 -46 -79 -29
-79 24 0 51 48 68 75 26z"/>
<path d="M1675 9343 c-39 -20 -84 -62 -100 -93 -68 -134 34 -300 185 -300 151
0 253 166 185 300 -17 32 -61 73 -102 94 -41 20 -129 20 -168 -1z"/>
<path d="M1113 8251 c-13 -6 -23 -14 -23 -18 0 -4 -1 -237 -3 -518 l-2 -510
490 -8 c610 -10 8073 -15 8088 -5 14 8 17 898 4 989 l-8 56 -182 6 c-316 12
-8340 19 -8364 8z m8503 -54 c6 -6 10 -938 4 -946 -10 -16 -8452 -19 -8476 -3
-8 5 -10 142 -6 479 l5 473 1111 2 c1341 4 7358 -1 7362 -5z"/>
<path d="M3343 7968 c-20 -26 -133 -337 -133 -365 0 -18 6 -23 24 -23 21 0 27
9 44 58 l19 57 73 0 74 0 22 -55 c16 -39 28 -56 43 -58 12 -2 24 3 27 11 5 14
-114 320 -142 365 -16 24 -37 29 -51 10z m52 -153 c9 -26 15 -48 12 -51 -3 -3
-23 -4 -45 -2 l-39 3 20 52 c11 29 23 51 27 48 4 -2 15 -25 25 -50z"/>
<path d="M3580 7965 c-11 -13 -11 -18 2 -31 20 -20 50 -7 46 20 -4 26 -30 32
-48 11z"/>
<path d="M5977 7973 c-13 -12 -7 -41 10 -47 9 -4 23 0 31 8 13 12 13 18 2 30
-13 17 -32 21 -43 9z"/>
<path d="M4357 7954 c-4 -4 -7 -22 -7 -40 0 -23 -6 -37 -20 -44 -24 -13 -26
-36 -3 -48 13 -8 17 -28 19 -97 2 -77 6 -91 26 -111 13 -14 38 -25 58 -26 30
-3 35 0 38 19 3 17 -4 26 -25 34 -39 14 -43 24 -43 106 0 67 2 72 23 75 30 4
37 47 8 55 -15 4 -21 15 -23 42 -2 27 -8 37 -23 39 -12 2 -24 0 -28 -4z"/>
<path d="M3587 7873 c-4 -3 -7 -76 -7 -162 l0 -155 -27 -22 c-17 -14 -24 -26
-20 -37 9 -24 41 -21 74 7 l28 24 3 162 c2 114 0 165 -9 176 -12 15 -31 18
-42 7z"/>
<path d="M3762 7864 c-31 -22 -62 -86 -62 -131 0 -83 72 -160 139 -149 64 10
114 63 127 134 9 48 -20 117 -60 142 -40 24 -112 27 -144 4z m114 -52 c37 -24
44 -96 13 -136 -20 -26 -69 -36 -95 -18 -35 23 -45 102 -18 140 11 16 25 22
52 22 20 0 42 -4 48 -8z"/>
<path d="M4032 7863 c-3 -10 -7 -54 -7 -98 0 -142 67 -217 155 -172 21 11 27
11 37 -2 9 -13 16 -14 30 -5 16 10 18 28 21 141 2 106 0 132 -13 143 -8 7 -22
10 -30 6 -12 -4 -15 -25 -15 -101 0 -82 -3 -98 -20 -115 -26 -26 -62 -25 -86
1 -15 17 -19 37 -20 108 0 48 -4 92 -8 99 -11 18 -36 15 -44 -5z"/>
<path d="M4597 7866 c-51 -19 -67 -34 -90 -85 -57 -129 78 -245 217 -187 43
18 52 34 33 54 -13 13 -21 13 -42 4 -42 -19 -112 -15 -135 8 -11 11 -20 25
-20 30 0 6 41 10 104 10 123 0 136 7 117 69 -12 43 -71 101 -101 101 -10 0
-24 2 -32 5 -7 2 -30 -2 -51 -9z m105 -73 c10 -9 18 -20 18 -25 0 -4 -36 -8
-80 -8 -67 0 -78 2 -74 15 17 43 97 53 136 18z"/>
<path d="M4844 7867 c-2 -7 -3 -74 -2 -148 l3 -134 25 0 c25 0 25 1 28 100 1
55 7 104 12 109 5 5 29 12 52 15 38 5 43 9 43 31 0 20 -6 26 -27 28 -15 2 -37
-2 -48 -8 -17 -9 -25 -8 -39 4 -21 19 -40 21 -47 3z"/>
<path d="M5202 7868 c-17 -17 -16 -170 2 -212 27 -65 95 -94 143 -61 20 14 23
14 31 -1 5 -9 18 -14 28 -12 18 3 19 14 19 148 0 141 -1 145 -22 148 -28 4
-33 -13 -30 -117 2 -76 0 -85 -22 -102 -33 -27 -67 -24 -88 8 -14 21 -18 48
-18 117 0 73 -3 91 -15 94 -9 1 -21 -3 -28 -10z"/>
<path d="M5504 7854 c-9 -35 4 -256 16 -268 5 -5 16 -6 24 -3 13 5 16 24 16
101 0 90 1 95 26 115 15 12 39 21 54 21 46 0 55 -22 55 -134 0 -91 2 -101 19
-104 29 -6 36 16 36 121 0 137 -23 177 -103 177 -19 0 -46 -9 -60 -20 -25 -20
-25 -20 -30 0 -8 30 -45 26 -53 -6z"/>
<path d="M5977 7868 c-2 -7 -2 -67 1 -134 6 -144 -1 -190 -28 -199 -13 -4 -20
-15 -20 -31 0 -19 5 -24 25 -24 70 0 94 88 79 286 -8 101 -11 109 -30 112 -12
2 -24 -3 -27 -10z"/>
<path d="M6143 7848 c-57 -60 -62 -149 -12 -220 51 -72 171 -52 213 36 50 106
-13 216 -125 216 -38 0 -50 -5 -76 -32z m150 -70 c30 -62 -4 -128 -67 -128
-46 0 -71 30 -71 85 0 60 26 87 79 83 36 -3 43 -8 59 -40z"/>
<path d="M6432 7868 c-20 -20 -15 -165 7 -214 31 -69 84 -91 141 -60 21 12 26
12 36 -2 6 -9 18 -13 28 -9 14 6 16 26 16 147 0 118 -2 142 -16 147 -28 11
-37 -14 -35 -99 2 -72 -1 -88 -19 -111 -27 -35 -74 -37 -92 -4 -7 12 -15 65
-18 117 -4 74 -8 95 -20 98 -9 1 -21 -3 -28 -10z"/>
<path d="M6832 7870 c-98 -23 -143 -155 -80 -235 41 -53 132 -70 204 -40 28
11 35 19 32 37 -2 18 -8 22 -28 20 -106 -14 -121 -13 -145 2 -14 9 -25 23 -25
31 0 12 19 15 105 15 91 0 106 2 114 18 23 44 -47 152 -99 152 -10 0 -24 2
-32 4 -7 2 -28 0 -46 -4z m72 -60 c14 -5 30 -18 36 -30 10 -19 8 -20 -69 -20
-68 0 -79 2 -75 15 7 16 50 44 71 45 6 0 23 -4 37 -10z"/>
<path d="M7075 7870 c-4 -7 -10 -41 -13 -76 -12 -151 66 -250 158 -200 21 12
26 12 37 -3 9 -12 16 -14 30 -5 16 10 18 28 21 141 2 106 0 132 -13 143 -8 7
-22 10 -30 6 -12 -4 -15 -24 -15 -91 0 -108 -16 -144 -66 -145 -43 0 -59 35
-64 138 -4 80 -8 97 -22 100 -9 2 -19 -2 -23 -8z"/>
<path d="M7384 7867 c-2 -7 -3 -74 -2 -148 l3 -134 25 0 c25 0 25 1 28 100 1
55 7 104 12 109 5 5 29 12 52 15 38 5 43 9 43 31 0 20 -6 26 -27 28 -15 2 -37
-2 -48 -8 -17 -9 -25 -8 -39 4 -21 19 -40 21 -47 3z"/>
<path d="M1113 6851 c-13 -6 -23 -14 -23 -18 0 -4 -1 -237 -3 -518 l-2 -510
490 -8 c610 -10 8073 -15 8088 -5 14 8 17 898 4 989 l-8 56 -182 6 c-316 12
-8340 19 -8364 8z m8503 -54 c6 -6 10 -938 4 -946 -10 -16 -8452 -19 -8476 -3
-8 5 -10 142 -6 479 l5 473 1111 2 c1341 4 7358 -1 7362 -5z"/>
<path d="M3343 6568 c-20 -26 -133 -337 -133 -365 0 -18 6 -23 24 -23 21 0 27
9 44 58 l19 57 73 0 74 0 22 -55 c16 -39 28 -56 43 -58 12 -2 24 3 27 11 5 14
-114 320 -142 365 -16 24 -37 29 -51 10z m52 -153 c9 -26 15 -48 12 -51 -3 -3
-23 -4 -45 -2 l-39 3 20 52 c11 29 23 51 27 48 4 -2 15 -25 25 -50z"/>
<path d="M3580 6565 c-11 -13 -11 -18 2 -31 20 -20 50 -7 46 20 -4 26 -30 32
-48 11z"/>
<path d="M5977 6573 c-13 -12 -7 -41 10 -47 9 -4 23 0 31 8 13 12 13 18 2 30
-13 17 -32 21 -43 9z"/>
<path d="M4357 6554 c-4 -4 -7 -22 -7 -40 0 -23 -6 -37 -20 -44 -24 -13 -26
-36 -3 -48 13 -8 17 -28 19 -97 2 -77 6 -91 26 -111 13 -14 38 -25 58 -26 30
-3 35 0 38 19 3 17 -4 26 -25 34 -39 14 -43 24 -43 106 0 67 2 72 23 75 30 4
37 47 8 55 -15 4 -21 15 -23 42 -2 27 -8 37 -23 39 -12 2 -24 0 -28 -4z"/>
<path d="M3587 6473 c-4 -3 -7 -76 -7 -162 l0 -155 -27 -22 c-17 -14 -24 -26
-20 -37 9 -24 41 -21 74 7 l28 24 3 162 c2 114 0 165 -9 176 -12 15 -31 18
-42 7z"/>
<path d="M3762 6464 c-31 -22 -62 -86 -62 -131 0 -83 72 -160 139 -149 64 10
114 63 127 134 9 48 -20 117 -60 142 -40 24 -112 27 -144 4z m114 -52 c37 -24
44 -96 13 -136 -20 -26 -69 -36 -95 -18 -35 23 -45 102 -18 140 11 16 25 22
52 22 20 0 42 -4 48 -8z"/>
<path d="M4032 6463 c-3 -10 -7 -54 -7 -98 0 -142 67 -217 155 -172 21 11 27
11 37 -2 9 -13 16 -14 30 -5 16 10 18 28 21 141 2 106 0 132 -13 143 -8 7 -22
10 -30 6 -12 -4 -15 -25 -15 -101 0 -82 -3 -98 -20 -115 -26 -26 -62 -25 -86
1 -15 17 -19 37 -20 108 0 48 -4 92 -8 99 -11 18 -36 15 -44 -5z"/>
<path d="M4597 6466 c-51 -19 -67 -34 -90 -85 -57 -129 78 -245 217 -187 43
18 52 34 33 54 -13 13 -21 13 -42 4 -42 -19 -112 -15 -135 8 -11 11 -20 25
-20 30 0 6 41 10 104 10 123 0 136 7 117 69 -12 43 -71 101 -101 101 -10 0
-24 2 -32 5 -7 2 -30 -2 -51 -9z m105 -73 c10 -9 18 -20 18 -25 0 -4 -36 -8
-80 -8 -67 0 -78 2 -74 15 17 43 97 53 136 18z"/>
<path d="M4844 6467 c-2 -7 -3 -74 -2 -148 l3 -134 25 0 c25 0 25 1 28 100 1
55 7 104 12 109 5 5 29 12 52 15 38 5 43 9 43 31 0 20 -6 26 -27 28 -15 2 -37
-2 -48 -8 -17 -9 -25 -8 -39 4 -21 19 -40 21 -47 3z"/>
<path d="M5202 6468 c-17 -17 -16 -170 2 -212 27 -65 95 -94 143 -61 20 14 23
14 31 -1 5 -9 18 -14 28 -12 18 3 19 14 19 148 0 141 -1 145 -22 148 -28 4
-33 -13 -30 -117 2 -76 0 -85 -22 -102 -33 -27 -67 -24 -88 8 -14 21 -18 48
-18 117 0 73 -3 91 -15 94 -9 1 -21 -3 -28 -10z"/>
<path d="M5504 6454 c-9 -35 4 -256 16 -268 5 -5 16 -6 24 -3 13 5 16 24 16
101 0 90 1 95 26 115 15 12 39 21 54 21 46 0 55 -22 55 -134 0 -91 2 -101 19
-104 29 -6 36 16 36 121 0 137 -23 177 -103 177 -19 0 -46 -9 -60 -20 -25 -20
-25 -20 -30 0 -8 30 -45 26 -53 -6z"/>
<path d="M5977 6468 c-2 -7 -2 -67 1 -134 6 -144 -1 -190 -28 -199 -13 -4 -20
-15 -20 -31 0 -19 5 -24 25 -24 70 0 94 88 79 286 -8 101 -11 109 -30 112 -12
2 -24 -3 -27 -10z"/>
<path d="M6143 6448 c-57 -60 -62 -149 -12 -220 51 -72 171 -52 213 36 50 106
-13 216 -125 216 -38 0 -50 -5 -76 -32z m150 -70 c30 -62 -4 -128 -67 -128
-46 0 -71 30 -71 85 0 60 26 87 79 83 36 -3 43 -8 59 -40z"/>
<path d="M6432 6468 c-20 -20 -15 -165 7 -214 31 -69 84 -91 141 -60 21 12 26
12 36 -2 6 -9 18 -13 28 -9 14 6 16 26 16 147 0 118 -2 142 -16 147 -28 11
-37 -14 -35 -99 2 -72 -1 -88 -19 -111 -27 -35 -74 -37 -92 -4 -7 12 -15 65
-18 117 -4 74 -8 95 -20 98 -9 1 -21 -3 -28 -10z"/>
<path d="M6832 6470 c-98 -23 -143 -155 -80 -235 41 -53 132 -70 204 -40 28
11 35 19 32 37 -2 18 -8 22 -28 20 -106 -14 -121 -13 -145 2 -14 9 -25 23 -25
31 0 12 19 15 105 15 91 0 106 2 114 18 23 44 -47 152 -99 152 -10 0 -24 2
-32 4 -7 2 -28 0 -46 -4z m72 -60 c14 -5 30 -18 36 -30 10 -19 8 -20 -69 -20
-68 0 -79 2 -75 15 7 16 50 44 71 45 6 0 23 -4 37 -10z"/>
<path d="M7075 6470 c-4 -7 -10 -41 -13 -76 -12 -151 66 -250 158 -200 21 12
26 12 37 -3 9 -12 16 -14 30 -5 16 10 18 28 21 141 2 106 0 132 -13 143 -8 7
-22 10 -30 6 -12 -4 -15 -24 -15 -91 0 -108 -16 -144 -66 -145 -43 0 -59 35
-64 138 -4 80 -8 97 -22 100 -9 2 -19 -2 -23 -8z"/>
<path d="M7384 6467 c-2 -7 -3 -74 -2 -148 l3 -134 25 0 c25 0 25 1 28 100 1
55 7 104 12 109 5 5 29 12 52 15 38 5 43 9 43 31 0 20 -6 26 -27 28 -15 2 -37
-2 -48 -8 -17 -9 -25 -8 -39 4 -21 19 -40 21 -47 3z"/>
<path d="M1113 4311 c-13 -6 -23 -14 -23 -18 0 -4 -1 -237 -3 -518 l-2 -510
490 -8 c610 -10 8073 -15 8088 -5 14 8 17 898 4 989 l-8 56 -182 6 c-316 12
-8340 19 -8364 8z m8503 -54 c6 -6 10 -938 4 -946 -10 -16 -8452 -19 -8476 -3
-8 5 -10 142 -6 479 l5 473 1111 2 c1341 4 7358 -1 7362 -5z"/>
<path d="M4537 4033 c-11 -11 -8 -352 3 -374 10 -17 22 -19 131 -19 98 0 121
3 125 15 13 34 -15 45 -112 45 l-94 0 0 154 c0 85 -3 161 -6 170 -6 16 -35 22
-47 9z"/>
<path d="M4915 3931 c-34 -14 -84 -72 -101 -118 -20 -52 -9 -105 30 -142 32
-31 106 -40 140 -18 22 15 25 15 30 1 4 -9 15 -14 28 -12 22 3 23 6 22 122
l-1 119 -31 29 c-33 29 -75 36 -117 19z m85 -77 c6 -14 10 -47 10 -74 0 -45
-3 -51 -30 -65 -104 -54 -162 45 -75 132 41 41 81 45 95 7z"/>
<path d="M5147 3933 c-4 -3 -7 -69 -7 -145 0 -115 3 -140 15 -144 35 -14 46
15 44 109 -2 84 0 91 22 108 35 27 75 24 95 -6 13 -20 16 -43 12 -110 -5 -88
4 -114 36 -102 18 7 31 136 21 198 -15 86 -90 123 -162 80 -31 -19 -31 -19
-36 0 -5 19 -27 26 -40 12z"/>
<path d="M5500 3902 c-60 -60 -74 -147 -33 -208 20 -31 73 -54 123 -54 35 0
48 6 77 35 26 26 34 41 31 62 -2 22 -8 28 -28 28 -17 0 -26 -6 -28 -20 -7 -33
-23 -45 -61 -45 -74 0 -104 73 -58 141 29 43 69 50 103 18 28 -26 57 -19 52
13 -4 30 -63 68 -106 68 -26 0 -43 -9 -72 -38z"/>
<path d="M5855 3930 c-75 -17 -110 -63 -110 -147 0 -52 4 -66 25 -88 36 -39
73 -55 125 -55 66 0 117 23 113 52 -2 18 -8 22 -28 20 -120 -16 -128 -15 -157
15 l-28 28 115 5 c110 5 115 6 118 28 13 86 -81 163 -173 142z m74 -65 c16 -8
31 -21 34 -30 5 -13 -6 -15 -73 -15 -82 0 -93 6 -62 32 34 30 62 34 101 13z"/>
<path d="M6084 3914 c-9 -37 3 -255 15 -267 5 -5 17 -7 25 -4 13 5 16 24 16
101 0 87 2 96 22 110 12 9 34 16 49 16 15 0 32 7 39 15 30 36 -42 61 -87 30
-19 -13 -21 -13 -26 5 -8 30 -45 26 -53 -6z"/>
<path d="M2984 1997 c-65 -59 -52 -157 27 -199 43 -23 76 -23 116 2 76 46 89
136 29 196 -30 30 -40 34 -85 34 -44 0 -56 -5 -87 -33z"/>
<path d="M3552 2002 c-103 -96 2 -262 131 -208 67 27 96 111 62 176 -20 38
-63 60 -118 60 -35 0 -51 -6 -75 -28z"/>
<path d="M5087 2003 c-4 -3 -7 -190 -7 -415 0 -352 2 -408 15 -408 23 0 730
397 733 411 1 9 -132 89 -362 217 -201 111 -367 202 -369 202 -2 0 -7 -3 -10
-7z"/>
<path d="M9385 1946 c-6 -44 -11 -56 -32 -65 -21 -10 -30 -7 -63 19 -21 16
-44 30 -53 30 -13 0 -107 -92 -107 -105 0 -3 14 -23 31 -44 38 -48 33 -87 -12
-95 -16 -3 -43 -9 -59 -12 l-31 -6 3 -76 3 -77 50 -7 c79 -11 95 -49 45 -107
-34 -40 -32 -46 33 -110 l45 -43 45 31 c33 24 50 31 69 26 21 -6 26 -14 34
-63 l9 -57 70 -3 c79 -3 95 7 95 64 0 35 22 64 47 64 8 0 33 -14 54 -31 l39
-31 35 26 c32 25 75 76 75 91 0 3 -14 23 -30 44 -25 31 -29 42 -22 62 7 19 20
26 63 34 l54 10 3 77 3 76 -53 9 c-41 6 -55 14 -67 34 -14 25 -13 29 17 67 18
22 32 44 32 49 0 12 -93 103 -106 103 -5 0 -29 -14 -52 -31 -40 -29 -44 -30
-66 -16 -17 12 -25 29 -30 66 l-7 51 -79 0 -79 0 -6 -54z m152 -236 c64 -39
88 -111 57 -175 -23 -50 -66 -75 -128 -75 -43 0 -53 4 -87 39 -35 35 -39 44
-39 91 0 110 107 175 197 120z"/>
<path d="M6920 1600 l0 -360 480 0 480 0 0 30 0 30 -450 0 -450 0 0 330 0 330
-30 0 -30 0 0 -360z"/>
<path d="M1375 1774 c-110 -91 -204 -169 -209 -174 -8 -8 31 -70 45 -70 4 0
91 70 193 155 102 85 188 155 192 155 3 0 83 -64 178 -142 94 -79 179 -149
189 -157 17 -13 21 -12 42 15 14 16 24 32 25 36 0 3 -27 28 -60 55 l-60 48 0
111 c0 131 -4 137 -82 132 l-53 -3 -3 -57 c-2 -32 -5 -58 -8 -58 -3 0 -36 27
-75 60 -41 35 -79 60 -92 60 -15 0 -94 -59 -222 -166z"/>
<path d="M3275 1892 c-98 -47 -139 -152 -96 -247 54 -119 197 -150 294 -64 53
46 71 91 65 161 -12 122 -152 202 -263 150z"/>
<path d="M7640 1630 l0 -270 60 0 60 0 0 270 0 270 -60 0 -60 0 0 -270z"/>
<path d="M7280 1600 l0 -240 60 0 60 0 0 240 0 240 -60 0 -60 0 0 -240z"/>
<path d="M1442 1673 l-153 -126 3 -146 3 -146 118 -3 117 -3 0 106 0 105 65 0
65 0 0 -105 0 -105 115 0 c103 0 115 2 125 19 5 11 10 76 10 145 l0 126 -143
117 c-78 65 -149 123 -157 130 -13 9 -42 -11 -168 -114z"/>
<path d="M2905 1756 c-19 -28 -31 -130 -21 -170 15 -60 117 -74 193 -26 26 17
57 30 70 30 27 0 27 -1 7 40 -9 18 -19 52 -22 76 l-5 44 -36 -6 c-22 -4 -53 1
-81 11 -79 29 -87 29 -105 1z"/>
<path d="M3705 1759 c-29 -14 -53 -18 -87 -15 l-48 5 0 -37 c0 -20 -9 -56 -19
-78 l-19 -42 35 -5 c19 -3 51 -18 70 -33 30 -23 42 -26 89 -22 79 7 94 25 94
110 0 38 -7 84 -14 103 -17 41 -39 44 -101 14z"/>
<path d="M7460 1540 l0 -180 60 0 60 0 0 180 0 180 -60 0 -60 0 0 -180z"/>
<path d="M7100 1480 l0 -120 60 0 60 0 0 120 0 120 -60 0 -60 0 0 -120z"/>
<path d="M3080 1522 c-64 -63 -95 -235 -56 -310 29 -57 69 -64 348 -60 232 3
248 4 275 24 45 33 59 89 46 178 -18 128 -73 206 -144 206 -14 0 -53 -14 -87
-31 -44 -23 -73 -31 -112 -31 -39 0 -68 8 -112 31 -82 42 -111 41 -158 -7z"/>
<path d="M6330 20992 c-43 -21 -76 -82 -85 -157 -14 -108 45 -165 172 -165 84
0 129 21 160 76 27 47 28 76 4 129 -20 45 -63 85 -122 115 -47 25 -84 25 -129
2z m127 -80 c12 -9 29 -34 38 -54 15 -37 15 -38 -16 -72 -51 -58 -132 -61
-144 -6 -10 45 3 87 37 120 34 34 54 37 85 12z"/>
<path d="M4932 20903 c-18 -9 -40 -29 -48 -44 -19 -37 -18 -113 1 -133 38 -38
81 -40 479 -28 209 7 425 12 479 12 111 0 148 13 172 60 19 37 19 44 -1 86
-31 65 -21 64 -561 64 -430 0 -492 -2 -521 -17z m983 -84 c5 -6 4 -14 -3 -21
-14 -14 -321 -25 -729 -27 -202 -1 -213 0 -213 18 0 10 6 24 13 30 10 7 145
12 438 13 433 3 477 2 494 -13z"/>
</g>
</svg>
