<?xml version="1.0" encoding="UTF-8"?>
<svg id="Calque_1" data-name="Calque 1" xmlns="http://www.w3.org/2000/svg" viewBox="0 0 409.5 805.5">
  <defs>
    <style>
      .cls-1 {
        fill: #f0f0f0;
      }

      .cls-2 {
        fill: #f4f4f4;
      }

      .cls-3 {
        fill: #090909;
      }

      .cls-4 {
        fill: #cbcbcb;
      }

      .cls-5 {
        fill: #fafafa;
      }

      .cls-6 {
        fill: #0c0c0c;
      }

      .cls-7 {
        fill: #f5f5f5;
      }

      .cls-8 {
        fill: #040404;
      }

      .cls-9 {
        fill: #020202;
      }

      .cls-10 {
        fill: #0a0a0a;
      }

      .cls-11 {
        fill: #2f2f2f;
      }

      .cls-12 {
        fill: #dedede;
      }

      .cls-13 {
        fill: #313131;
      }

      .cls-14 {
        fill: #e7e7e7;
      }

      .cls-15 {
        fill: #030303;
      }

      .cls-16 {
        fill: #101010;
      }

      .cls-17 {
        fill: #080808;
      }

      .cls-18 {
        fill: #fdfdfd;
      }

      .cls-19 {
        fill: #fbfbfb;
      }

      .cls-20 {
        fill: #f9f9f9;
      }

      .cls-21 {
        fill: #171717;
      }

      .cls-22 {
        fill: #0e0e0e;
      }

      .cls-23 {
        fill: #bebebe;
      }

      .cls-24 {
        fill: #202020;
      }

      .cls-25 {
        fill: #050505;
      }

      .cls-26 {
        fill: #353535;
      }

      .cls-27 {
        fill: #292929;
      }

      .cls-28 {
        fill: #0b0b0b;
      }

      .cls-29 {
        fill: #191919;
      }

      .cls-30 {
        fill: #bfbebe;
      }

      .cls-31 {
        fill: #070707;
      }

      .cls-32 {
        fill: #b5b5b5;
      }

      .cls-33 {
        fill: #d2d2d2;
      }

      .cls-34 {
        fill: #010101;
      }

      .cls-35 {
        fill: #c0bfbf;
      }

      .cls-36 {
        fill: #fefefe;
      }

      .cls-37 {
        fill: #060606;
      }

      .cls-38 {
        fill: #fcfcfc;
      }

      .cls-39 {
        fill: #ededed;
      }
    </style>
  </defs>
  <path class="cls-36" d="M144.25,.04C232.1,.04,319.94,.04,407.78,0c1.4,0,1.72,.32,1.72,1.72-.04,267.35-.04,534.7,0,802.05,0,1.41-.32,1.72-1.72,1.72-135.35-.04-270.71-.04-406.06,0-1.4,0-1.72-.32-1.72-1.72C.04,572.6,.03,341.41,.03,110.23c.26-.11,.47-.06,.65,.16,1.31,1.84,1.9,3.85,1.85,6.14-.1,4.62-.04,9.24-.02,13.87,0,1.33-.13,2.61-.88,3.77-.56,.88-.62,1.88-.62,2.89,0,13.55,0,27.11,0,40.66,0,1.08,.14,2.11,.78,3.03,.68,.97,.72,2.11,.72,3.24,0,1.75,0,3.5,0,5.25,0,1.08-.12,2.12-.91,2.97-.61,.65-.57,1.5-.58,2.3-.02,13.99-.02,27.98,0,41.97,0,.75-.05,1.55,.37,2.19,1.21,1.85,1.12,3.91,1.12,5.97,0,37.85,.33,75.7-.09,113.55-.46,41.47-.2,82.94-.19,124.4,0,11.48,.06,22.97,.3,34.46,.79,37.53,.54,75.07,.23,112.6-.33,39.16-.01,78.31-.26,117.47-.04,6.69,.05,13.36,1.17,19.98,1.44,8.45,4.72,16.07,10.51,22.43,5.48,6.02,12.4,9.78,20.22,11.92,5.57,1.52,11.24,2.17,17.01,2.33,46.3,1.33,92.62,.88,138.93,.6,37.89-.23,75.78-.03,113.66-.25,.75,0,1.5-.04,2.24,.05,.24,0,.48,0,.72,0,.87-.1,1.75-.06,2.62-.04,13.17,.24,26.33-.36,39.49-.47,9.4-.08,18.83-.39,28.18-1.68,10.48-1.45,17.95-7.31,23.23-16.23,3.62-6.13,4.69-12.95,5.4-19.9,.69-6.79,.71-13.58,.75-20.39,.13-18.67,.15-37.34,.47-56,.3-17.11,.21-34.22,.23-51.32,.08-57.96,.36-115.92-.06-173.87-.47-64.64,.15-129.27-.39-193.9-.19-23.48-.05-46.95-.28-70.43-.02-1.89-.04-3.73,1.41-5.26,.58-.61,.46-1.53,.46-2.34,.01-13.3,0-26.61,.01-39.91,0-1.22-.19-2.35-1.04-3.3-.62-.68-.79-1.54-.81-2.44-.02-.87-.02-1.75-.02-2.62,0-31.6,.07-63.2-.04-94.81-.03-9.15-1.67-18.04-6.27-26.14-6.46-11.37-16.47-17.79-29.03-20.54-4.89-1.07-9.84-1.58-14.86-1.58-69.41,.02-138.83,.01-208.24,0-1.25,0-2.53,.21-3.72-.36-.24-.15-.3-.35-.19-.61Z"/>
  <path class="cls-36" d="M.03,87.37C.03,58.79,.05,30.22,0,1.64,0,.32,.23,0,1.61,0,23.94,.06,46.26,.04,68.59,.04c.12,.22,.07,.41-.13,.56-.81,.46-1.7,.34-2.56,.35-5.74,.01-11.48-.14-17.21,.05-4.65,.16-9.41,.07-13.81,1.95-9.15,3.89-17.79,8.56-23.79,16.89-4.41,6.12-6.55,13.13-7.83,20.45-.56,3.2-.84,6.42-.83,9.68,.04,11.04,0,22.09,.04,33.13,0,1.76-.37,3.19-1.83,4.24-.19,.14-.4,.15-.6,.03Z"/>
  <path class="cls-23" d="M75.7,.04h42.33c.11,.26,.05,.46-.19,.6-1.18,.56-2.44,.34-3.67,.35-3.04,0-6.07,.07-9.11-.03-.24,0-.48,0-.72,0-8.87,.11-17.75,.03-26.62,.04-.62,0-1.24-.03-1.81-.34-.25-.15-.32-.35-.21-.62Z"/>
  <path class="cls-12" d="M118.04,.36c-.01-.11-.02-.21,0-.32h26.22c0,.11,0,.21,0,.32-.67,.76-1.59,.65-2.44,.65-7.11,.02-14.22,.02-21.34,0-.86,0-1.77,.1-2.44-.65Z"/>
  <path class="cls-12" d="M.34,110.24l-.15,.02-.15-.03v-19.86c.27-.11,.47-.04,.62,.21,.4,.75,.35,1.56,.35,2.36,.01,4.9,.02,9.79,0,14.69,0,.91,.16,1.89-.66,2.61Z"/>
  <path class="cls-12" d="M75.7,.04c0,.1,0,.21-.01,.31-2.37,1.04-4.75,1.05-7.12,0,0-.1,0-.2,.01-.31h7.12Z"/>
  <path class="cls-32" d="M.34,90.38H.19s-.15-.01-.15-.01v-3c.11,0,.23,0,.34-.02,.78,1.02,.81,2.03-.03,3.03Z"/>
  <path class="cls-34" d="M118.04,.36c8.74,0,17.48,0,26.22,0,10.61,.03,21.22,.06,31.83,.07,30.34,.03,60.68,.05,91.01,.06,30.65,0,61.3-.09,91.95,.06,10.52,.05,20.51,2.53,29.34,8.6,9.48,6.52,14.85,15.73,17.31,26.8,1.05,4.71,1.47,9.5,1.48,14.31,.02,31.98,.01,63.96,0,95.93,0,1.17-.16,2.31,1.22,3,.71,.35,.69,1.25,.69,2.02,0,14.05,0,28.11,0,42.16,0,.7,.07,1.57-.56,1.89-1.53,.75-1.3,2.02-1.3,3.31,.04,22.36,.06,44.71,.1,67.07,.04,26.73,.1,53.46,.15,80.19,.06,31.54,.04,63.08,.19,94.62,.26,52.9,.16,105.8,.17,158.7,0,28.73,.03,57.46-.09,86.19-.09,23.23-.29,46.46-.62,69.68-.11,7.48-.48,15.02-2.55,22.26-3.38,11.84-10.6,20.34-22.51,24.3-5.02,1.67-10.35,1.69-15.56,1.96-19.7,1.03-39.42,1.02-59.14,1.19-.19,0-.37-.03-.56-.05-.73-1.01-.67-2.03-.08-3.07,.59-.44,1.28-.45,1.97-.47,.81-.02,1.62-.03,2.43,0,9.11,.26,18.22-.21,27.31-.49,8.17-.25,16.34-.04,24.51-.28,4.24-.12,8.45-.54,12.66-1.11,7.4-1,12.83-5.2,17.55-10.57,5.73-6.5,8.11-14.34,8.95-22.79,.43-4.36,.37-8.73,.37-13.09,0-26.48-.29-52.95,.09-79.42,.31-21.66,.12-43.32,.29-64.98,0-.81,0-1.62,.17-2.43,.39-1.22,.25-2.48,.25-3.72,0-116.63,0-233.27,0-349.9,0-1-.05-2,.05-2.99,.08-.75,.29-1.42,1-1.35-.84,.03-.99-.8-1.03-1.68-.06-1.25-.03-2.5-.03-3.75,0-9.55,0-19.11,0-28.66,0-.94,.04-1.87-.26-2.78-.37-4.11-.07-8.24-.18-12.35-.81-31.71,.08-63.44-.47-95.15-.33-19.23-.22-38.46-.22-57.69,0-10.12-3.56-18.66-10.04-26.12-7.41-8.53-16.73-13.74-27.99-15.19-3.33-.43-6.7-.63-10.08-.63-81.77,0-163.53,0-245.3,0-1.29,0-2.63,.25-3.86-.43-.71-1.03-.73-2.07,0-3.1,4.37-.04,8.74-.07,13.1-.11Z"/>
  <path class="cls-34" d="M.34,90.38c0-1.01,.02-2.02,.03-3.03,2.52-2.87,1.46-6.35,1.5-9.59,.12-10.17-.22-20.35,.15-30.51,.37-10.17,2.88-19.84,8.99-28.25,4.32-5.95,10.41-9.68,16.62-13.36C34.97,1.28,42.92,.38,51.18,.44c5.8,.05,11.6-.06,17.4-.1,2.37,0,4.74,0,7.12,0,8.56,.02,17.12,.04,25.68,.06,1.05,0,2.11,.03,3.16,.05,.33,1.02,.31,2.04,0,3.07-.71,.52-1.54,.46-2.34,.46-15.35,0-30.71,.2-46.06-.1-5.55-.11-10.96,.17-16.3,1.52-16.3,4.11-26.39,14.66-31.27,30.49-1.33,4.31-1.83,8.77-1.99,13.29-.77,21.97-.52,43.95-.22,65.92,.28,20.29,.45,40.58,.14,60.86-.35,23.04-.04,46.07-.27,69.11,0,.87,.09,1.76-.37,2.56-.63,.59-1.46,.16-2.16,.37-.24,.09,.1,.41-.01,.19-.05-.1-.02-.16,.08-.16,.74-.04,1.53-.38,2.16,.34,.53,1.26,.33,2.59,.33,3.89,0,83.69-.27,167.38,.12,251.07,.2,43.71,.44,87.43,.14,131.14-.26,38.16-.03,76.31-.26,114.46,0,.87,.06,1.75-.29,2.59-.62,.86-1.46,.45-2.3,.41,.72,.32,1.56-.18,2.18,.41,.59,1.99,.64,4.06,.73,6.1,.47,10.61,3.57,20.24,10.57,28.39,5.38,6.26,12.26,10.14,20.14,12.31,4.71,1.3,9.51,1.98,14.42,1.98,83.62-.02,167.24-.01,250.86,0,1.29,0,2.63-.28,3.85,.44,.35,1.03,.32,2.07,.03,3.11-.56,.03-1.12,.07-1.68,.08-17.79,.02-35.58,.03-53.38,.05-18.1,.02-36.21,.05-54.31,.07-38.95,.05-77.91,.23-116.86,.09-11.72-.04-23.47-.14-35.17-1.02-9.4-.71-18.2-3.49-25.9-9.19-8.19-6.06-12.92-14.34-15.35-24.08-1.35-5.42-1.87-10.95-1.88-16.52-.02-35.92-.1-71.83,.07-107.75,.18-37.47,.57-74.95,.19-112.42-.44-44.03-.86-88.05-.67-132.08,.22-53.09,.48-106.18,.4-159.26,0-1.14-.01-2.19-.84-3.13-.59-.67-.68-1.56-.68-2.47,.02-14.49,.01-28.98,.01-43.47,0-.87-.14-1.8,1.05-2.1,.73-.18,.43-.81,.43-1.24,.03-2.56,.02-5.12,0-7.68,0-.42,.2-.99-.22-1.23-1.59-.92-1.24-2.43-1.24-3.83-.01-13.87-.01-27.73-.02-41.6,0-.56-.13-1.23,.34-1.59,1.5-1.15,1.14-2.75,1.15-4.26,.02-4.18-.21-8.38,.08-12.55,.19-2.69-.78-4.92-1.64-7.27,0-6.62,0-13.24,0-19.86Z"/>
  <path class="cls-13" d="M306.45,804.7c0-.97,0-1.95-.01-2.92,.14-.13,.27-.13,.41,0,0,.97,0,1.94-.01,2.91-.13,0-.26,0-.39,.01Z"/>
  <path class="cls-13" d="M104.53,3.37c0-.97,0-1.94,0-2.91,.14,0,.27,0,.41,0,0,.97,0,1.94,0,2.91-.13,.11-.27,.12-.4,0Z"/>
  <path class="cls-35" d="M104.53,3.37c.13,0,.27,0,.4,0,9.3,.03,18.6,.09,27.9,.1,66.74,.02,133.47,.04,200.21,.05,9.3,0,18.6-.29,27.89,.19,17.91,.94,34.26,13.15,40.12,30.09,1.58,4.56,1.76,9.3,1.77,14.05,.02,12.49-.02,24.98,.01,37.48,.06,20.36,.29,40.72,.18,61.08-.08,14.49-.11,28.98,.2,43.46,.15,7.05,.21,14.11,.33,21.16,.19,.68,.1,1.37,.1,2.05,0,130.32,0,260.64,0,390.96,0,.68,.11,1.37-.11,2.05-.04,10.99-.09,21.97-.13,32.96-.09,27.03-.17,54.05-.25,81.08-.04,13.54,.11,27.09-.12,40.63-.15,8.61-1.47,17.1-6.49,24.42-5.31,7.74-11.94,13.69-21.85,14.82-4.72,.54-9.43,.96-14.17,.94-17.9-.11-35.79,.87-53.69,.85h-.41c-.81-.02-1.62-.06-2.43-.06-83.77,0-167.53,0-251.3,0-8.41,0-16.52-1.39-24.06-5.25-11.86-6.06-18.59-16-21.49-28.81-1.16-5.09-1.21-10.27-1.48-15.43-.24-.12-.24-.24,0-.36,.03-.75,.09-1.49,.09-2.24,0-31.16-.03-62.32,.01-93.49,.05-36.22,.31-72.44,.25-108.65-.09-49.58-.61-99.16-.49-148.74,.08-32.53,.12-65.07,.18-97.6,.03-17.05,.04-34.1,.05-51.14,0-.62-.06-1.24-.09-1.87-.24-.12-.24-.24,0-.36,.03-.75,.09-1.49,.09-2.24,0-20.3-.17-40.59,.05-60.89,.23-21.1,.05-42.21,.08-63.31,.04-21.42-.11-42.84-.11-64.25,0-6.55,.12-13.1,1.71-19.53C12.1,18.86,26.18,6.24,45.22,3.71c3.74-.5,7.46-.39,11.2-.36,15.85,.09,31.71,.07,47.56,.08,.19,0,.37-.04,.56-.06Z"/>
  <path class="cls-13" d="M403.54,606.09c0-10.11,0-20.23,0-30.34,0-.75,.02-1.5,.02-2.25,0-110.15,0-220.29,0-330.44,0-9.99-.05-19.98-.08-29.97,0-.68,.05-1.37,.08-2.05,.5,.6,.28,1.32,.28,1.98,.03,10.56,.04,21.11,.06,31.67q0,2.86,2.61,3.28-2.61,.42-2.61,3.28c0,107.06,0,214.13,0,321.19,0,10.56-.03,21.11-.05,31.67,0,.67,.2,1.38-.3,1.98Z"/>
  <path class="cls-11" d="M5.67,247.78c0,.12,0,.24,0,.36-.76-.06-1.55,.17-2.37-.18,.82-.35,1.61-.12,2.37-.18Z"/>
  <path class="cls-11" d="M5.67,751.88c0,.12,0,.24,0,.36-.76-.06-1.55,.17-2.37-.18,.82-.35,1.61-.12,2.37-.18Z"/>
  <path class="cls-34" d="M391.8,248.17c.04,9.24,.12,18.48,.11,27.73-.02,36.54-.06,73.08-.12,109.61-.05,28.29-.2,56.58-.23,84.87-.02,20.49,.06,40.97,.1,61.46,.03,16.93,.11,33.85,.08,50.78-.07,37.35-.07,74.7-.37,112.05-.17,21.79-.75,43.58-.67,65.38,.05,14.25-8.75,23.81-22.3,28.16-2.97,.95-5.97,1.52-9.15,1.53-10.55,.02-21.09,.25-31.64,.39-.68,0-1.37-.06-2.05-.09-.8-.24-1.61-.11-2.42-.11-90.32,0-180.64,0-270.96-.01-.81,0-1.62,.12-2.42-.11-13.61-.81-23.44-7.46-29.74-19.44-.77-1.46-1.06-3.16-2.05-4.56-.49-.7-.71-1.59-.71-2.49,.01-3.68,.03-7.36,.05-11.04,.88-.43,1.82-.07,2.62-.21-.8-.12-1.74,.23-2.62-.2-.02-.81-.06-1.62-.06-2.43,0-109.5,0-218.99,0-328.49,0-56.84-.02-113.68-.02-170.52,0-.75,.04-1.5,.06-2.24,.89-.45,1.84-.01,2.58-.21-.75-.11-1.69,.23-2.58-.19-.02-12.3-.07-24.61-.06-36.91,.01-12.87,.05-25.73,.14-38.6,.19-26.67,.34-53.33,.22-80-.05-11.61-.5-23.23-.27-34.84,.15-7.37,.11-14.9,3.31-21.85,4.76-10.32,12.48-16.97,23.73-19.58,3.66-.85,7.25-.93,10.91-.93,8.49,0,16.98,0,25.47,0,4.38,0,6.65,2.19,6.9,6.6,.1,1.68,.19,3.37,.37,5.04,.65,5.9,4.71,10.01,10.6,10.84,1.99,.28,3.98,.33,5.98,.33,67.79,0,135.59,0,203.38,0,.81,0,1.62-.02,2.43-.08,5.25-.41,7.86-2.52,9.54-7.49,1.25-3.7,1.01-7.52,1.13-11.31,.11-3.48,.19-3.57,3.61-3.6,11.55-.09,23.09-.17,34.64-.29,6.85-.07,13.47,.84,19.28,4.81,7.19,4.92,11.43,11.63,12.15,20.47,.65,7.92,.35,15.85,.38,23.78,.18,37.22,.27,74.44,.4,111.67,.09,23.29,.21,46.59,.31,69.88,0,.69-.04,1.37-.06,2.06-.88,.43-1.82,.07-2.62,.21,.8,.12,1.74-.23,2.62,.2Z"/>
  <path class="cls-34" d="M204.08,29.59c-5.36,0-10.72,0-16.08,0-.68,0-1.37-.03-2.05-.13-2.57-.39-3.25-.98-3.43-2.92-.25-2.65,.67-4.31,2.82-5.07,1.44-.51,2.95-.49,4.44-.49,9.98-.01,19.96,0,29.93,0,1.19,0,2.38,.01,3.5,.48,1.68,.69,2.59,2.04,2.5,3.79-.08,1.68-1.09,2.86-2.79,3.36-.85,.25-1.71,.32-2.59,.3-5.43-.13-10.85,0-16.27,.69Z"/>
  <path class="cls-11" d="M49.76,789.79c1.06-.03,2.11-.09,3.17-.09,83.71,0,167.41,0,251.12-.04,.81,0,2.1,.76,2.43-.86,.04-.18,.25-.32,.31-.05,.35,1.75,1.72,.88,2.58,.9,4.74,.09,9.49,.03,14.23,.05,.66,0,1.38-.24,1.96,.32-6.99,.01-13.98,.03-20.97,.03-83.77,0-167.54,0-251.32,0-1.17,0-2.37,.18-3.51-.26Z"/>
  <path class="cls-34" d="M240.51,30.3c-3.35,.29-5.61-.89-6.37-3.33-.9-2.87,.5-7.17,2.78-8.55,2.3-1.39,5.11-.67,8.04,2.07,2.13,1.99,2.73,4.68,1.56,6.93-1.02,1.95-2.29,2.56-6.01,2.88Z"/>
  <path class="cls-13" d="M17.31,247.76h2.55v.4h-2.55v-.4Z"/>
  <path class="cls-13" d="M391.8,248.17h-2.53c0-.14,0-.28-.01-.41h2.55c0,.14,0,.28,0,.41Z"/>
  <path class="cls-13" d="M17.32,751.85h2.54c0,.14,0,.28,0,.41h-2.55c0-.14,0-.28,0-.41Z"/>
  <path class="cls-18" d="M21.42,97.85c-.2-11.74,.18-23.48,.36-35.21,.08-5.37,.08-10.75,.38-16.1,.66-11.84,6.21-20.59,17.03-25.66,4-1.88,8.41-2.21,12.81-2.2,8.8,0,17.61,.11,26.41,0,3.3-.04,4.71,.27,5.14,5.2,.28,3.24,.39,6.48,1.89,9.46,.14,.28,.27,.56,.4,.85,1.93,4.5,5.27,6.68,10.22,7.16,6.37,.61,12.71,.44,19.07,.41,8.61-.04,17.23-.09,25.84-.11,24.22-.05,48.45,.09,72.67-.16,31.46-.33,62.92-.1,94.39-.3,8.07-.05,13.71-3.92,16.17-10.69,.82-2.27,.95-4.62,.95-7,0-4.2,.45-4.63,4.58-4.64,10.36-.04,20.73-.09,31.09-.12,5.3-.02,10.44,.75,15.01,3.66,6,3.83,9.04,9.61,10.43,16.4,.67,3.26,.82,6.56,.82,9.87,0,193.51,0,387.03,0,580.54,0,19.86-.1,39.72-.17,59.59-.02,6.81-.14,13.61-.1,20.42,0,1.49-.39,1.61-1.77,1.53-9.78-.61-19.59-.41-29.38-.47-32.4-.19-64.79-.3-97.19-.48-77.16-.42-154.32-.19-231.48-.26-.81,0-1.64-.1-2.43,.02-1.92,.29-2.45-.37-2.45-2.36,.05-166.59,.07-333.18,.02-499.77,0-24.1-.34-48.21-.51-72.31-.08-11.62-.14-23.23-.2-34.85,0-.57-.27-1.33,.76-1.33,.36-.3,.79-.35,1.23-.34,27.34,.4,54.68-.08,82.02,.2,75.4,.78,150.81,.1,226.21,.36,8.49,.03,16.99-.27,25.46,.12,8.67,.39,17.34-.05,26,.25-16.04-.43-32.09-.04-48.12-.4-19.91-.45-39.82-.07-59.73-.25-4.99-.04-9.99,.04-14.98-.01-78.4-.85-156.8-.13-235.2-.38-1.22,0-2.51,.24-3.61-.61Z"/>
  <path class="cls-36" d="M204.36,786.66c-50.69,0-101.38,0-152.07,0-13.05,0-23.2-6.69-28.1-18.55-1.44-3.49-2.09-7.16-2.09-10.95,.02-15.11,.02-30.23-.02-45.34,0-1.28,.15-1.63,1.61-1.41,5.57,.85,11.21,.5,16.82,.53,23.47,.12,46.94,.16,70.41,.2,59.61,.1,119.23,.18,178.84,.27,23.35,.03,46.69,.06,70.04,.12,8.42,.02,16.85,.18,25.27,.18,1.46,0,1.7,.46,1.69,1.8-.1,14.49-.1,28.98-.18,43.47-.04,8.09-2.27,15.38-8.12,21.25-5.87,5.88-13.05,8.46-21.29,8.46-50.94-.01-101.88,0-152.82,0Z"/>
  <path class="cls-34" d="M21.42,97.85c28.9,0,57.81,0,86.71,.01,35.83,.01,71.67,0,107.5,.07,33.71,.07,67.41,.21,101.12,.37,20.72,.1,41.44,.31,62.16,.5,2.06,.02,4.15,.1,6.21,.86-.31,.62-.71,.45-1.02,.45-16.91-.1-33.83-.29-50.74-.31-47.07-.07-94.14-.07-141.21-.11-19.6-.02-39.2-.03-58.8-.09-32.02-.09-64.04-.19-96.07-.34-5.05-.02-10.11,.18-15.14-.36-.66-.83-1.13,.42-1.79,.16-.6-.23-1.55-.06-1.46-1.01,.08-.9,.95-.53,1.5-.54,.35,0,.69,.21,1.04,.33Z"/>
  <path class="cls-35" d="M203.51,26.91c-4.86,0-9.72,.05-14.57-.04-.92-.02-2.56,.74-2.64-1.03-.08-1.84,1.57-1.63,2.77-1.63,8.72,.02,17.45,.06,26.17,.14,1.68,.02,3.35-.52,5.02-.12,.58,.14,1.43,.15,1.46,.9,.02,.77-.85,.8-1.41,.94-.66,.16-1.36,.22-2.03,.21-4.92-.1-9.84,.03-14.76,.62Z"/>
  <path class="cls-30" d="M239.42,27.77c-1.75-.02-2.3-.73-2.24-2.86,.05-1.89,1.85-4.24,3.27-4.28,1.38-.04,3.47,2.44,3.38,3.99-.09,1.35-2.64,3.17-4.4,3.15Z"/>
  <path d="M204.66,224.05c-26.46-.31-47.67-20.83-48-47.78-.32-26.36,21.08-47.84,47.75-48.16,26.12-.31,47.87,21.23,48.09,47.64,.22,26.46-21.21,48.09-47.84,48.3Z"/>
  <path d="M203.94,655.61c41.44,0,82.89-.02,124.33,.01,11.36,0,22.71,.18,34.07,.22,1.26,0,1.83,.29,1.98,1.68,.59,5.23,.7,10.47,.48,15.7-.24,5.87-.31,11.73,.05,17.59,.03,.56,.06,1.13,.03,1.68-.17,2.8-.46,3.01-3.21,2.82-1.49-.1-2.99-.08-4.49-.08-31.52,.03-63.04-.12-94.56,.14-27.96,.23-55.92,.15-83.88,.13-30.83-.02-61.66-.18-92.5-.31-13.79-.06-27.58-.25-41.37-.29-1.54,0-2.08-.47-2.05-1.95,.05-2.75-.11-5.5,.03-8.24,.46-8.68,.46-17.34,.01-26.02-.14-2.71,.14-3.41,3.04-3.41,4.24,0,8.49-.05,12.73-.05,47.56-.02,95.13-.04,142.69-.07,.87,0,1.75,0,2.62,0,0,.15,0,.29,0,.44Z"/>
  <path d="M262.81,570.58c-13.42-.2-24-11.09-23.76-24.45,.23-13.02,11.32-23.81,24.17-23.51,13.52,.32,23.92,11.04,23.74,24.48-.18,13-11.16,23.67-24.16,23.47Z"/>
  <path d="M203.03,570.58c-13.27-.06-23.99-10.87-23.91-24.11,.08-13.14,10.95-23.93,24.03-23.85,13.27,.08,23.95,10.87,23.89,24.15-.06,13.16-10.86,23.87-24.01,23.81Z"/>
  <path d="M78.55,570.58c-13.33-.17-23.92-10.95-23.8-24.22,.13-13.12,11.17-23.98,24.14-23.74,13.48,.26,23.95,11.02,23.78,24.44-.16,13.01-11.1,23.68-24.12,23.52Z"/>
  <path d="M141.43,570.58c-13.43-.22-23.99-11.1-23.74-24.46,.24-13.02,11.35-23.81,24.19-23.49,13.61,.34,23.98,11.13,23.72,24.68-.25,12.89-11.25,23.48-24.17,23.27Z"/>
  <path d="M77.8,510.61c-13.33-.17-23.92-10.96-23.79-24.23,.13-13.12,11.18-23.98,24.14-23.73,13.48,.26,23.95,11.02,23.78,24.45-.16,13.01-11.11,23.68-24.12,23.51Z"/>
  <path d="M79.26,630.54c-13.42-.2-24-11.09-23.76-24.45,.23-13.02,11.32-23.81,24.17-23.51,13.52,.31,23.93,11.04,23.75,24.48-.17,13-11.16,23.67-24.16,23.48Z"/>
  <path d="M140.68,510.61c-13.42-.21-23.99-11.1-23.75-24.46,.24-13.02,11.35-23.81,24.19-23.49,13.61,.33,23.99,11.13,23.73,24.68-.24,12.89-11.25,23.48-24.17,23.28Z"/>
  <path d="M202.16,510.61c-13.4-.18-24.01-11.07-23.79-24.42,.22-13.02,11.27-23.8,24.15-23.54,13.49,.27,23.94,11.03,23.77,24.45-.17,13.01-11.12,23.68-24.13,23.5Z"/>
  <path d="M262.15,510.61c-13.31-.12-23.95-10.92-23.84-24.18,.11-13.12,11.09-23.96,24.09-23.78,13.42,.19,23.98,11,23.83,24.4-.15,13.02-11.04,23.68-24.08,23.56Z"/>
  <path d="M326.62,630.55c-13.29-.08-23.97-10.88-23.89-24.13,.09-13.14,10.99-23.94,24.05-23.83,13.29,.12,23.94,10.89,23.87,24.17-.06,13.15-10.89,23.87-24.03,23.79Z"/>
  <path d="M263.57,630.55c-13.41-.2-24-11.08-23.76-24.44,.23-13.02,11.31-23.8,24.17-23.51,13.51,.31,23.93,11.04,23.75,24.47-.17,13-11.15,23.67-24.15,23.48Z"/>
  <path d="M203.73,630.55c-13.3-.1-23.96-10.9-23.87-24.15,.1-13.13,11.03-23.95,24.07-23.81,13.4,.15,23.99,10.98,23.85,24.38-.14,13.03-11,23.68-24.05,23.58Z"/>
  <path d="M325,510.61c-13.42-.2-24-11.09-23.76-24.45,.23-13.02,11.32-23.81,24.17-23.51,13.52,.31,23.93,11.04,23.75,24.48-.17,13-11.16,23.67-24.16,23.48Z"/>
  <path d="M142.26,630.55c-13.32-.14-23.94-10.93-23.83-24.19,.11-13.13,11.11-23.97,24.11-23.77,13.44,.21,23.97,11,23.81,24.42-.15,13.02-11.06,23.68-24.09,23.55Z"/>
  <path d="M325.82,570.58c-13.31-.13-23.95-10.92-23.83-24.19,.11-13.12,11.1-23.97,24.1-23.78,13.43,.2,23.97,11,23.82,24.41-.15,13.02-11.05,23.68-24.08,23.55Z"/>
  <path d="M46.5,63.72c4.83,0,9.1,0,13.37,0,2.51,0,3.17,.67,3.23,3.22,.01,.56,.03,1.12,0,1.68-.12,2.04-.85,2.76-2.93,2.78-4.35,.03-8.69,0-13.31,.4,1.71,1.66,3.44,3.31,5.13,4.99,1.84,1.84,1.78,2.86-.2,4.87-2.02,2.04-3.08,2.15-4.86,.38-4.11-4.09-8.21-8.2-12.29-12.32-1.52-1.54-1.53-2.83-.02-4.35,4.08-4.12,8.19-8.22,12.3-12.3,1.83-1.81,2.85-1.66,5.13,.64,1.69,1.71,1.7,2.87-.04,4.61-1.69,1.7-3.43,3.36-5.5,5.39Z"/>
  <path d="M119.52,356.84c-19.62-.02-35.59-16-35.55-35.61,.03-19.63,16.02-35.6,35.61-35.57,19.62,.02,35.55,15.99,35.53,35.63-.02,19.65-15.95,35.57-35.59,35.55Z"/>
  <path d="M300.05,356.84c-19.62-.04-35.58-16.05-35.52-35.64,.06-19.64,16.06-35.59,35.65-35.54,19.63,.05,35.53,16.03,35.5,35.66-.03,19.65-15.99,35.56-35.62,35.52Z"/>
  <path d="M218.73,71.77c0,.58,.02,1.58,0,2.58-.02,.99-.41,1.73-1.51,1.76-1.12,.04-1.51-.69-1.55-1.69-.23-5.86-.35-11.73-.14-17.59,.06-1.55,.3-2.59,2.56-2.22,1.66,.27,3.56-.27,5.37-.21,3.87,.13,6.59,2.23,7.37,5.65,.82,3.61-1.31,6.33-5.54,7.06-1.72,.3-3.47,.59-5.2,.34-1.52-.22-1.67,.49-1.53,1.67,.09,.74,.1,1.49,.17,2.65Z"/>
  <path d="M132.61,71.36c0,1.06,.03,2.12,0,3.18-.03,.94-.51,1.55-1.49,1.57-.98,.02-1.49-.56-1.52-1.51-.18-5.92-.52-11.84-.15-17.76,.1-1.53,.26-2.65,2.55-2.22,1.52,.28,3.31-.22,4.99-.23,1.46,0,2.83,.35,4.13,.98,2.62,1.27,4.24,4.23,3.82,6.89-.38,2.44-2.59,4.3-5.73,4.85-1.79,.31-3.59,.54-5.39,.33-1.13-.13-1.41,.27-1.32,1.3,.07,.87,.01,1.74,.01,2.62,.03,0,.07,0,.1,0Z"/>
  <path class="cls-34" d="M150.56,61.84c4.58-3.49,9.44-.9,9.83,4.5,.18,2.57-.02,5.11-.11,7.67-.04,1.15-.36,2.22-1.79,2.08-1.33-.14-1.33-1.18-1.28-2.26,.11-2.24,.21-4.49,.16-6.73-.06-2.61-1.21-3.97-3.06-3.9-2.02,.09-3.99,1.87-3.72,4.24,.25,2.16,.21,4.36,.27,6.54,.03,1.07-.16,2.1-1.52,2.12-1.34,.03-1.58-.95-1.6-2.05-.08-5.8-.18-11.6-.26-17.4-.02-1.14,.14-2.27,1.6-2.23,1.47,.04,1.49,1.22,1.48,2.33-.01,1.62,0,3.24,0,5.09Z"/>
  <path class="cls-34" d="M195.92,60c4.19-.39,7.5,3.06,7.39,7.76-.1,3.95-2.9,8.46-8.16,8.05-3.42-.27-6.31-3.99-6.19-8.28,.1-3.53,2.83-8.3,6.97-7.53Z"/>
  <path d="M170.46,60.01c4.54,.15,7.51,3.35,7.25,7.89-.21,3.65-2.82,8.32-8.11,7.92-3.53-.27-6.34-3.92-6.22-8.42,.12-4.45,3.06-7.52,7.08-7.38Z"/>
  <path d="M250.27,60.01c4.46,.15,7.33,3.2,7.24,7.72-.09,4.79-3.55,8.21-8.14,8.05-3.53-.12-6.33-3.92-6.2-8.41,.13-4.44,3.07-7.5,7.1-7.36Z"/>
  <path class="cls-34" d="M260.82,69.21c0-1.36,.02-2.54,0-3.73-.02-.97,.29-1.93-1.16-2.45-1.1-.39-.81-2.22,.44-2.56,.85-.23,.89-.61,.94-1.26,.44-5.69,5.63-5.96,8.99-4.57,1.07,.44,1.62,1.3,1.12,2.4-.5,1.12-1.46,1.17-2.52,.7-.67-.3-1.38-.61-2.1-.71-1.67-.24-2.84,1.2-2.49,2.82,.15,.68,.58,.53,.97,.52,1.05-.02,1.7,.42,1.71,1.5,.02,1.1-.64,1.6-1.68,1.49-1.1-.12-1.2,.45-1.17,1.33,.08,2.87,.11,5.74,.16,8.6,0,.5,.08,1.01-.03,1.49-.18,.78-.64,1.36-1.55,1.34-.95-.02-1.29-.65-1.34-1.48-.12-1.87-.2-3.73-.29-5.43Z"/>
  <path class="cls-34" d="M184.1,58.41c-.24,.95-.21,1.73,1.35,1.68,.79-.03,1.23,.77,1.13,1.64-.09,.79-.58,1.34-1.35,1.24-1.37-.18-1.33,.6-1.3,1.55,.04,1.75,.09,3.5,0,5.24-.08,1.7,.28,2.88,2.26,3.14,.87,.11,1.62,.77,1.42,1.86-.14,.77-.76,1.17-1.48,1.23-2.58,.21-4.97-1.92-5.13-4.63-.11-1.87-.07-3.74-.1-5.61-.02-1.1,.29-2.2-1.26-2.77-.99-.36-.85-2.12,.2-2.36,1.37-.31,1.14-1.16,1.18-2.04,.02-.44-.03-.88,.03-1.31,.11-.95,.52-1.72,1.6-1.72,1.13,0,1.44,.79,1.45,1.78,0,.31,0,.62,0,1.1Z"/>
  <path class="cls-9" d="M159.99,246.82c0-2.72,0-5.32,0-7.91,0-.65-.2-1.52,.81-1.59,.98-.06,1.01,.74,1.01,1.44,0,3.37,0,6.74-.03,10.12,0,.62-.02,1.31-.82,1.49-.77,.18-1.28-.16-1.71-.81-1.83-2.81-3.7-5.6-5.79-8.75-.32,2.41,.03,4.42-.04,6.41-.04,1.08,.89,2.99-.94,3.04-1.51,.04-.79-1.79-.84-2.78-.15-2.68-.16-5.36-.19-8.05,0-.74-.04-1.59,.89-1.85,.84-.24,1.23,.5,1.61,1.03,1.59,2.23,3.14,4.5,4.71,6.74,.34,.48,.49,1.12,1.33,1.48Z"/>
  <path class="cls-9" d="M236.64,61.91c1.47-1.16,2.82-1.7,4.4-1.53,.96,.1,1.71,.42,1.72,1.56,.02,1.16-.67,1.44-1.7,1.46-.8,.01-1.63,.12-2.38,.37-1.43,.49-2.21,1.49-2.14,3.11,.1,2.31,.12,4.61,.17,6.92,.02,1.13-.1,2.24-1.55,2.29-1.39,.05-1.53-1.01-1.54-2.07-.05-3.93-.09-7.86-.15-11.8-.01-.98,.03-1.97,1.24-2.19,1.24-.23,1.77,.56,1.93,1.88Z"/>
  <path class="cls-9" d="M174.72,245.47c0-1.18-.05-2.37,.01-3.55,.06-1.09,.52-1.72,1.63-.88,.28,.21,.42,.33,.75,.13,1.39-.83,2.72-.82,3.89,.41,.48,.51,.72,.04,1.06-.17,2.82-1.7,5.12-.53,5.29,2.74,.08,1.62,.06,3.24,.08,4.87,0,.64,.05,1.35-.85,1.36-.84,.01-.98-.68-1.01-1.31-.05-1.5,0-3-.06-4.49-.04-.89,.14-2.01-1.29-2.04-1.19-.03-2.31,1.14-2.3,2.37,.01,1.37,0,2.75,.05,4.12,.02,.7-.11,1.33-.91,1.35-.85,.03-.9-.68-.92-1.33-.05-1.56-.03-3.12-.16-4.67-.07-.79,.09-1.96-1.28-1.83-1.25,.12-2.05,.75-2,2.18,.05,1.37,.05,2.75,0,4.12-.03,.65-.01,1.52-.98,1.53-1.03,0-.87-.86-.88-1.52-.02-1.12,0-2.25,0-3.37-.04,0-.07,0-.11,0Z"/>
  <path class="cls-34" d="M243.15,245.44c0-1.18,0-2.37,0-3.55,0-.61,.33-1.47,.79-1.15,1.24,.86,2.4-.48,3.34-.02,1.82,.89,3.41,.55,5.22,.01,1.5-.44,2.59,.6,3.02,2.11,.63,2.2,.18,4.47,.31,6.7,.03,.57-.4,.91-1,.84-.6-.07-.8-.52-.81-1.07-.02-1.5,.05-3-.05-4.49-.07-.98,.12-2.43-1.49-2.25-1.27,.14-2.33,.81-2.23,2.44,.08,1.31,0,2.62,.03,3.93,.01,.64,.07,1.37-.78,1.42-.94,.05-1.04-.7-1.05-1.43-.02-1.5,.02-3-.06-4.49-.05-.9,0-2.06-1.42-1.9-1.16,.13-1.94,.78-1.95,2.06-.01,1.31,.02,2.62,0,3.93-.02,.76,.24,1.84-.98,1.82-1.1-.02-.83-1.03-.85-1.73-.03-1.06,0-2.12,0-3.18,0,0-.02,0-.03,0Z"/>
  <path class="cls-34" d="M275.22,65.16c0-2.81,0-5.62,0-8.42,0-1.08-.05-2.29,1.47-2.32,1.47-.03,1.61,1.08,1.61,2.23,0,5.62,0,11.23,0,16.85,0,.31,.02,.63-.01,.94-.1,.98-.55,1.69-1.62,1.68-1.15,0-1.43-.82-1.43-1.78,0-3.06,0-6.11,0-9.17Z"/>
  <path class="cls-9" d="M194.96,244.04c0-1.74-.04-3.49,.01-5.23,.03-.96,.32-1.57,1.6-1.47,1.59,.13,3.21-.32,4.79,.27,1.96,.72,3.04,2.13,2.94,4.04-.1,1.94-1.41,2.73-3.09,3.22-1.05,.3-2.09,.34-3.14,.27-1-.07-1.35,.27-1.24,1.26,.09,.8,.11,1.61,.11,2.42,0,.68,.04,1.51-.91,1.56-.99,.05-.96-.79-.97-1.47-.02-1.62,0-3.23,0-4.85-.03,0-.07,0-.1,0Z"/>
  <path class="cls-9" d="M48.14,427.04c-1.99-.75-2.65,.45-3.02,2.08-.1,.42-.27,.83-.47,1.21-.21,.42-.58,.66-1.07,.47-.54-.21-.79-.61-.58-1.18,1.35-3.66,2.66-7.35,4.11-10.97,.48-1.21,1.5-.92,1.93,.04,1.57,3.57,3.02,7.2,4.49,10.82,.19,.48,.11,1.02-.51,1.22-.55,.18-.98-.02-1.23-.54-.16-.33-.32-.68-.41-1.04-.44-1.68-1.23-2.83-3.24-2.12Z"/>
  <path class="cls-9" d="M213.46,246.65c1.22,1.88,2.62,2.36,4.82,1.74,.67-.19,1.4-.63,1.73,.28,.36,.99-.55,1.26-1.22,1.52-2.77,1.06-6.36-.45-7.14-2.99-.81-2.62,.76-5.28,3.55-6.01,2.46-.64,5.47,1.45,5.8,4,.14,1.08-.32,1.48-1.35,1.46-1.99-.03-3.98,0-6.19,0Z"/>
  <path class="cls-34" d="M268.62,68.15c0-2.06,.02-4.12,0-6.18-.01-1.07,.29-1.91,1.5-1.94,1.21-.02,1.52,.8,1.51,1.88-.03,4.06-.04,8.12-.03,12.17,0,1.15-.33,2.01-1.63,2.01-1.3,0-1.41-.95-1.41-1.96,.02-2,0-4,0-5.99,.02,0,.04,0,.06,0Z"/>
  <path class="cls-9" d="M70.81,427.58c0,.62-.01,1.25,0,1.87,.03,1.38-.27,2.26-1.75,1.06-.56-.46-.77,.13-1.11,.25-1.67,.58-3.21,.44-4.49-.83-1.22-1.21-1.49-2.67-.9-4.3,.61-1.7,1.56-3.12,3.22-3.94,2.13-1.07,4.3,.03,4.81,2.36,.26,1.18,.18,2.36,.22,3.54Z"/>
  <path class="cls-9" d="M86.25,427.26c0,.68,0,1.37,0,2.05,0,1.28,.02,2.57-1.76,1.17-.49-.38-.78,.18-1.14,.31-3.09,1.13-6-1.12-5.48-4.35,.34-2.12,1.48-3.81,3.47-4.79,2.2-1.07,4.51,.19,4.79,2.62,.11,.99,.1,1.99,.15,2.98-.01,0-.02,0-.03,0Z"/>
  <path class="cls-9" d="M168.36,240.65c2.74,.03,4.48,1.83,4.45,4.61-.03,2.75-2.03,4.92-4.54,4.92-2.27,0-4.15-2.19-4.1-4.87,.05-2.5,1.91-5.15,4.18-4.66Z"/>
  <path class="cls-9" d="M236.68,240.65c2.7,.04,4.54,1.92,4.5,4.61-.05,2.67-2.15,4.92-4.59,4.92-2.29,0-4.08-2.15-4.07-4.87,.01-2.69,2.11-5.18,4.16-4.66Z"/>
  <path class="cls-15" d="M222.79,245.37c0-1.25-.02-2.5,0-3.74,.02-.8,.79-1.36,1.17-.84,.87,1.19,1.48,.39,2.25,.08,2.11-.85,4.19,.37,4.44,2.8,.19,1.78,.02,3.61-.05,5.42-.02,.6-.12,1.34-1.01,1.29-.89-.06-.84-.79-.83-1.4,.02-1.43,.17-2.87,.11-4.3-.04-1.08-.33-2.29-1.78-2.11-1.23,.16-2.45,.63-2.44,2.27,0,1.44,0,2.87,0,4.31,0,.68-.18,1.3-1.03,1.23-.76-.06-.77-.69-.77-1.26,0-1.25,0-2.49,0-3.74h-.07Z"/>
  <path class="cls-25" d="M113.28,366.71c0-.12-.04-.27,0-.37,.49-.96-1.28-2.91,1.07-2.95,1.1-.02,2.41-.85,3.4,.29,.51,.59,.79,.14,1.22-.07,1.96-.99,3.51-.22,3.78,1.94,.16,1.29,.07,2.61,.08,3.92,0,.51-.2,.86-.77,.83-.45-.03-.64-.36-.64-.77-.02-1.12-.01-2.25-.04-3.37-.02-.77-.02-1.61-1.14-1.5-.89,.08-1.55,.54-1.58,1.51-.03,1,.03,2,.04,2.99,0,.51-.02,1.08-.68,1.12-.7,.03-.73-.55-.74-1.06-.02-1,.04-2-.04-2.99-.05-.69,.05-1.66-1.1-1.56-1,.09-1.54,.68-1.48,1.76,.05,.81,.09,1.63,.02,2.43-.05,.54,.23,1.47-.75,1.39-.88-.07-.63-.92-.65-1.5-.03-.69,0-1.37,0-2.06Z"/>
  <path class="cls-15" d="M57.36,428.2c.91-2.18,1.64-4,2.43-5.8,.24-.55,.56-1.21,1.36-.87,.89,.39,.61,1.02,.31,1.7-.94,2.15-1.82,4.34-2.76,6.49-.27,.62-.64,1.27-1.44,1.29-.89,.02-1.05-.81-1.3-1.39-.88-2.11-1.67-4.26-2.51-6.39-.27-.69-.49-1.42,.38-1.72,.88-.3,1.11,.46,1.36,1.12,.65,1.73,1.34,3.44,2.18,5.56Z"/>
  <path class="cls-25" d="M282.3,360.6c1.13-.02,1.99-.06,2.81,.35,1.23,.61,1.92,1.56,1.84,2.96-.08,1.42-1.08,1.99-2.3,2.31-.12,.03-.25,.05-.37,.05-2.16-.05-3.62,.52-2.91,3.16,.11,.41-.07,.9-.67,.89-.58-.02-.71-.48-.71-.92-.04-2.55-.12-5.11-.04-7.65,.06-2.01,1.8-.59,2.34-1.13Z"/>
  <path class="cls-8" d="M125.54,367.64c1.05,1.64,2.36,1.31,3.54,1.11,.52-.09,1.1-.63,1.4,.13,.34,.85-.46,.98-1.02,1.2-1.77,.68-3.75,.24-4.73-1.1-1.08-1.45-.95-2.96,.12-4.3,1.07-1.34,2.52-1.75,4.18-1.08,.85,.34,1.43,.95,1.78,1.8,.68,1.63,.35,2.19-1.37,2.24-.62,.02-1.25,0-1.87,0-.55,0-1.11,0-2.03,0Z"/>
  <path class="cls-25" d="M315.7,367.64c.95,1.72,2.29,1.31,3.5,1.07,.56-.11,1.14-.51,1.38,.25,.22,.71-.45,.88-.98,1.09-1.69,.69-3.8,.29-4.78-.98-1.09-1.42-1.05-2.93,0-4.31,1.03-1.37,2.44-1.82,4.13-1.21,.75,.27,1.28,.76,1.68,1.4,.39,.64,.72,1.39,.4,2.12-.35,.79-1.17,.54-1.83,.55-1.1,.02-2.21,0-3.51,0Z"/>
  <path class="cls-15" d="M100.52,370.33c-2.36,0-4.03-1.3-4.58-3.58-.54-2.24,.54-4.67,2.54-5.71,1.76-.91,3.79-.55,5.07,.93,.35,.4,1.01,.87,.49,1.4-.61,.64-1.05-.05-1.51-.46-1.32-1.21-2.92-1.22-4.15-.07-1.4,1.3-1.6,3.33-.47,4.89,.77,1.07,2.88,1.56,4.05,.96,.62-.32,.8-.92,1.03-1.49,.16-.39,.39-.68,.82-.56,.53,.15,.52,.56,.45,1.04-.25,1.62-1.68,2.66-3.73,2.66Z"/>
  <path class="cls-8" d="M76.72,422.25c-.18,.25-.3,.55-.53,.73-1.91,1.53-1.69,4.78,.47,6.18,.44,.28,.64,.6,.5,1.06-.16,.55-.54,.73-1.13,.63-1.47-.26-2.59-.91-2.77-2.54-.1-.99-.09-1.98-.13-2.98-.01-.31,.13-.76-.02-.91-1.8-1.7,.18-3.21,.22-4.8,.01-.54,.29-.94,.92-.95,.65,0,.97,.46,.9,.95-.13,1.02-.08,1.8,1.18,1.95,.14,.02,.23,.41,.38,.68Z"/>
  <path class="cls-25" d="M111.64,367.37c0,.82,0,1.38,0,1.94-.02,.75-.29,1.35-1.11,.82-.59-.38-.9,.02-1.35,.11-1.46,.3-2.79,.04-3.56-1.36-.88-1.6-.23-3.03,.81-4.29,.94-1.13,2.14-1.82,3.62-1.19,1.95,.82,1.43,2.68,1.59,3.97Z"/>
  <path class="cls-25" d="M143,367.93c0,.5,0,1,0,1.5,0,.39-.28,.98-.52,.83-1.25-.76-2.4,.36-3.61,.06-1.51-.37-2.57-1.82-2.28-3.35,.26-1.34,.97-2.44,2.08-3.21,1.84-1.27,3.81-.42,4.13,1.75,.12,.8,.17,1.61,.25,2.42-.02,0-.04,0-.06,0Z"/>
  <path class="cls-25" d="M205.75,245.43c0-1.24-.02-2.49,0-3.73,.01-.75,.82-1.43,1.1-.96,.9,1.52,1.81,.3,2.7,.3,.71,0,1.62-.24,1.73,.87,.1,1.04-.7,.96-1.4,.99-1.57,.07-2.38,.8-2.28,2.47,.08,1.3,.02,2.61,.01,3.91,0,.53-.13,1.02-.76,1.08-.72,.07-1.01-.4-1.03-1.03-.03-1.3,0-2.61,0-3.91-.02,0-.04,0-.06,0Z"/>
  <path class="cls-25" d="M88.51,425.83c0-1.18-.07-2.37,.02-3.54,.08-.98,.87-1.45,1.46-.67,.57,.76,.9,.67,1.49,.29,.51-.32,1.08-.24,1.63-.22,.58,.03,.92,.33,.93,.93,0,.61-.34,.81-.92,.93-2.77,.54-2.76,.56-2.76,3.28,0,.99,0,1.99,0,2.98,0,.59-.06,1.17-.83,1.21-.73,.03-.93-.48-.98-1.1-.01-.12-.03-.25-.03-.37,0-1.24,0-2.48,0-3.73,0,0-.01,0-.02,0Z"/>
  <path class="cls-25" d="M294.33,368.9c.66,0,1.24-.08,1.33-.94,.07-.62,.51-.89,1.07-.59,.56,.3,.4,.91,.25,1.34-.37,1.04-1.21,1.54-2.29,1.62-1.41,.11-2.6-.33-3.35-1.58-.82-1.36-.32-3.58,.99-4.78,1.07-.98,2.23-1.04,3.41-.27,.5,.33,1.25,.78,.89,1.45-.44,.83-1.03,.22-1.51-.16-.63-.49-1.31-.52-1.85,.05-.76,.8-1.18,1.73-.76,2.88,.33,.88,1.06,.95,1.83,.98Z"/>
  <path class="cls-15" d="M308.09,366.85c0,.12,.02,.25,0,.37-.23,1.04,.54,3.01-.78,2.91-1.24-.1-2.7,1.03-3.86-.33-.67-.79-1.15-1.63-1.2-2.66-.04-.93,0-1.86,.04-2.79,.02-.55,.02-1.27,.85-1.11,.75,.14,.62,.82,.52,1.37-.17,.99-.22,1.97,.09,2.95,.24,.76,.52,1.39,1.5,1.32,.94-.06,1.34-.71,1.42-1.46,.11-1.04,0-2.1,.03-3.15,0-.42-.03-.94,.56-1.01,.72-.08,.78,.5,.8,.99,.04,.87,.01,1.74,.01,2.61,.01,0,.02,0,.03,0Z"/>
  <path class="cls-10" d="M73.58,33.51c.12-.09,.17-.13,.22-.17,.93-.74,1.3-2.75,2.46-2.31,.9,.34,.3,2.25,.31,3.46,0,.86,.41,2.48-.39,2.45-1.1-.03-.24-1.5-.45-2.32-.13-.49-.02-1.05-.02-1.75q-2.1,2.13-3.97,.04c-.38,1.09-.12,2.12-.2,3.11-.03,.43,.04,1-.51,1.05-.64,.05-.53-.56-.53-.97-.02-1.49-.02-2.98-.01-4.47,0-.28-.14-.65,.26-.79,.42-.15,.69,.09,.94,.4,.62,.77,1.27,1.52,1.9,2.27Z"/>
  <path class="cls-37" d="M301.25,363.8c-.23,.3-.32,.45-.44,.59-1.44,1.66-1.33,3.23,.37,4.74,.25,.22,.46,.43,.31,.78-.14,.33-.42,.46-.75,.42-1.07-.11-1.87-.54-2.14-1.7-.35-1.48,.63-3.23-.92-4.45,.88-.74,.76-1.94,1.3-2.83,.06-.1,.58-.11,.65,0,.57,.82,.34,2.08,1.63,2.45Z"/>
  <path class="cls-6" d="M43.92,33.87c.02,2.02-.83,3.28-2.23,3.28-1.39,0-2.33-1.3-2.32-3.24,0-1.88,.85-3.11,2.18-3.16,1.49-.05,2.35,1.08,2.38,3.13Z"/>
  <path class="cls-6" d="M132.38,366.49c0-.56-.05-1.12,.01-1.68,.09-.86-.29-2.38,1.49-1.1,.26,.19,.97-.29,1.48-.39,.54-.11,1.09,.1,1.22,.61,.17,.66-.37,.78-.92,.8-1.42,.04-1.97,.81-1.84,2.19,.06,.62,.05,1.25,0,1.86-.05,.56,.33,1.44-.58,1.51-.96,.08-.7-.81-.74-1.38-.07-.8-.1-1.61-.15-2.42,.01,0,.03,0,.04,0Z"/>
  <path class="cls-3" d="M343.51,31.88c-.84-.46-1.09-.88-.15-1.6,2.31-1.77,6-1.83,8.34-.01,.29,.23,.91,.38,.63,.94-.28,.57-.75,.79-1.34,.33-1.82-.54-3.64-1.03-5.52-.33-.65,.25-1.27,.56-1.96,.68Z"/>
  <path class="cls-17" d="M309.84,366.63c0-.69,0-1.37,0-2.06,0-1.05,.1-1.87,1.43-.93,.53,.37,.96-.26,1.47-.32,.54-.06,1.06,.03,1.22,.58,.2,.7-.3,.81-.87,.82-1.46,.03-1.92,.86-1.8,2.22,.07,.8,.01,1.62,.01,2.43,0,.47-.09,.91-.66,.93-.56,.02-.74-.39-.74-.87-.02-.94,0-1.87,0-2.81-.01,0-.03,0-.04,0Z"/>
  <path class="cls-21" d="M367.17,35.34c-2.98,.73-6.07,.55-8.99,.16-1.78-.24-.48-2.56-.76-3.91-.14-.7-.37-1.85,.85-1.89,2.74-.1,5.48-.06,8.22-.02,.94,.01,.99,.76,1,1.48-.07,.39-.05,.86-.66,.79-.79-.78-1.73-1.09-2.85-1.05-1.73,.07-3.46-.05-5.18,.07-1.05,1.04-.51,2.25-.36,3.41,.12,.12,.25,.22,.41,.3,2.46,.18,4.92,.08,7.39,.05,.19-.03,.39-.04,.59-.02,.29,.11,.55,.24,.35,.62Z"/>
  <path class="cls-3" d="M69.59,36.56c.03,.33-.08,.52-.38,.57-.38,.05-.48-.23-.65-.5-1.21-1.92-2.11-1.91-3.31,.07-.18,.3-.31,.54-.68,.42-.41-.14-.31-.43-.2-.75,.63-1.68,1.25-3.36,1.87-5.04,.25-.68,.78-.78,1.05-.19,.84,1.79,1.54,3.64,2.28,5.43Z"/>
  <path d="M337.92,32.48c0,1.25-.01,2.5,0,3.75,0,.55-.02,.95-.77,.94-.78,0-.73-.46-.73-.98,0-2.37,0-4.75,0-7.12,0-.55,.02-.95,.77-.94,.78,0,.73,.47,.73,.98,0,1.12,0,2.25,0,3.37Z"/>
  <path class="cls-31" d="M53.85,30.77c.48,0,.73-.03,.97,0,.38,.05,1-.19,.96,.49-.03,.44-.54,.41-.9,.42-.37,0-.75,.01-1.12,0-.58-.01-.75,.35-.75,.84,0,.57,.44,.47,.8,.49,1.56,.07,2.22,.99,2.14,2.44-.05,.99-.72,1.55-1.68,1.7-.85,.13-1.62,.01-2.07-.85-.17-.33-.39-.73,.02-.98,.29-.18,.54,.06,.73,.37,.43,.73,1,.85,1.69,.3,.46-.37,.55-.79,.29-1.31-.4-.78-1.03-.83-1.73-.53-1.37,.59-1.37,0-1.22-1.17,.17-1.36,.02-2.76,1.87-2.22Z"/>
  <path class="cls-10" d="M57.93,36.23c1.28,0,2.14-.01,3,0,.3,0,.67,.04,.69,.43,.02,.4-.32,.47-.65,.48-.06,0-.13,.01-.19,0-1.24-.23-2.98,.73-3.65-.55-.73-1.4,1.22-1.86,1.91-2.8,.4-.55,1.47-1.09,.69-1.78-.77-.68-1.46-.08-1.73,.88-.05,.18-.25,.48-.57,.3-.31-.17-.41-.45-.32-.79,.23-.86,.81-1.41,1.65-1.6,.76-.17,1.48-.04,1.95,.72,.46,.75,.33,1.47-.2,2.07-.73,.83-1.54,1.58-2.6,2.63Z"/>
  <path class="cls-31" d="M47.89,34.5c-1.31,.55-2.38,.62-3.06-.6-.46-.83-.39-1.71,.26-2.41,.88-.95,1.96-.91,3.05-.37,.2,.1,.55,.24,.55,.37,.03,1.79,.01,3.58-.02,5.37,0,.31-.3,.35-.55,.3-.28-.06-.39-.29-.37-.55,.03-.61,.08-1.22,.14-2.09Z"/>
  <path class="cls-22" d="M288.12,366.67c0-.87-.01-1.74,0-2.6,0-.49,.2-.87,.76-.83,.43,.03,.64,.37,.64,.77,.01,1.86,0,3.72-.02,5.58,0,.39-.24,.71-.69,.73-.59,.02-.72-.38-.72-.86,0-.93,0-1.86,0-2.79,0,0,.02,0,.02,0Z"/>
  <path class="cls-3" d="M346.11,32.62c-.74,.11-1.58,1.06-2.14-.26,.25-.81,.89-1.16,1.63-1.4,1.84-.6,3.58-.6,5.07,.87,.55,.41,.32,.82,0,1.23-1.59,.57-3-.7-4.55-.44Z"/>
  <path d="M335.67,34.29c0,.69-.01,1.37,0,2.06,.01,.51-.1,.81-.71,.8-.53,0-.8-.13-.79-.72,.02-1.5,.02-3,0-4.5,0-.51,.11-.78,.71-.81,.73-.03,.81,.34,.79,.92-.02,.75,0,1.5,0,2.25Z"/>
  <path class="cls-28" d="M217.65,237.75c-.05,.72-1.77,2.42-2.36,2.31-.6-.11-.92-.63-.71-1.07,.48-.97,1.04-2.01,2.24-2.21,.51-.09,.89,.34,.83,.97Z"/>
  <path class="cls-34" d="M333.42,35.42c0,.31-.03,.63,0,.94,.07,.7-.31,.86-.9,.79-1.07-.13-.65-1.02-.55-1.44,.19-.77-.85-1.94,.66-2.29,.52-.12,.83,.11,.79,.7-.03,.44,0,.87,0,1.31Z"/>
  <path class="cls-22" d="M349.57,34.16c-1.15,.62-2.43-.36-3.59,.26-.05,.03-.51-.42-.5-.63,.03-.59,.64-.64,1.05-.86,1.71-.78,2.76-.36,3.05,1.23Z"/>
  <path class="cls-34" d="M329.72,36.03c-.13-.85,.07-1.19,.83-1.14,.96,.06,.56,.76,.61,1.21,.06,.54,.13,1.09-.77,1.06-1.09-.04-.58-.82-.68-1.13Z"/>
  <path class="cls-14" d="M350.67,31.82c-1.63-.97-3.35-1.25-5.18-.63-.37,.18-.47,0-.44-.34,2.1-.86,4.12-.91,5.94,.68-.11,.1-.22,.19-.33,.29Z"/>
  <path class="cls-39" d="M349.57,34.16c-.45-1.81-1.83-1.32-3.05-1.23-.14-.1-.27-.2-.41-.31,1.01-.65,2.04-.49,3.06-.04,.48,.21,.89,.66,1.49,.47-.37,.37-.73,.73-1.1,1.1Z"/>
  <path class="cls-34" d="M328.11,35.66c.61-.08,.8,.14,.83,.69,.03,.68-.27,.8-.86,.8-.62,0-.65-.34-.66-.81,0-.55,.2-.8,.69-.68Z"/>
  <path class="cls-16" d="M288.91,362.1c-.6-.04-.84-.29-.85-.72-.01-.53,.28-.81,.81-.78,.42,.03,.69,.28,.72,.7,.03,.56-.36,.72-.67,.79Z"/>
  <path class="cls-28" d="M367.14,31.85c.01-.28,.07-.55,.35-.69,.84,.99,.85,1.99,.04,3-.78,.08-.43-.51-.51-.85,.03-.49,.03-.98,.11-1.46Z"/>
  <path class="cls-29" d="M348.41,35.21c-.26,.23-.5,.59-.81,.67-.38,.09-.67-.29-.76-.64-.12-.46,.33-.43,.59-.47,.36-.05,.73-.02,.99,.44Z"/>
  <path class="cls-24" d="M367.43,33.25c.09,.3-.31,.65,.11,.91-.16,.38,.13,.9-.37,1.18-.14-.15-.28-.3-.42-.45-.48-.84-.56-1.52,.69-1.63Z"/>
  <path class="cls-4" d="M345.06,30.86c.15,.11,.29,.23,.44,.34-.51,.39-1.02,.77-1.52,1.16-.15-.16-.31-.32-.46-.48,.52-.34,1.03-.68,1.55-1.02Z"/>
  <path class="cls-26" d="M50.94,36.58c-.05,.4-.22,.56-.5,.57-.25,.01-.51-.02-.57-.33-.08-.42,.21-.59,.53-.57,.2,.01,.39,.23,.54,.33Z"/>
  <path class="cls-27" d="M50.9,32.8c-.02,.4-.18,.56-.45,.59-.25,.03-.5,0-.57-.3-.09-.4,.17-.59,.49-.59,.19,0,.38,.21,.53,.3Z"/>
  <path d="M363.43,758.24c-.75-.56-1.41-1.02-2.04-1.52-1.7-1.31-2.91-.88-3.21,1.18-.15,1.02,.11,2.54-.95,2.8-1.52,.37-3.21,.13-4.83,.05-.48-.02-.55-.58-.61-1.03-.1-.8-.22-1.6-.37-2.4-.2-1.04-1.45-1.65-2.37-1.14-.54,.3-1,.74-1.5,1.11-.35,.26-.76,.75-1.07,.7-1.85-.33-2.65-2.04-3.88-3.18-.77-.71-.12-1.32,.27-1.95,.5-.81,1.61-1.28,1.39-2.49-.31-1.7-1.65-1.85-2.96-1.86-1.42-.01-2.11-.52-1.87-2.01,.05-.3,0-.62,0-.93q0-3,2.91-3.51c1.95-.34,2.44-1.57,1.35-3.16-.54-.78-1.88-1.46-1.41-2.41,.77-1.55,2.08-2.83,3.63-3.67,.87-.47,1.42,.55,2.04,1.01,2.16,1.6,3.26,1.22,3.52-1.42,.19-1.9,.94-2.84,2.93-2.46,.3,.06,.63,.06,.93,0,2.05-.4,2.76,.65,2.81,2.52,.02,.71-.05,1.47,.76,1.97,1.06,.65,1.77,.18,2.61-.45,.7-.52,1.4-1.74,2.34-1.13,1.44,.94,2.86,2.13,3.53,3.75,.32,.77-.81,1.43-1.29,2.14-.44,.65-.99,1.13-.51,2.13,.47,.98,1.09,1.17,2.03,1.25,2.68,.24,2.68,.27,2.68,3,0,.62-.02,1.25,0,1.87,.04,.99-.33,1.5-1.4,1.5-.67,0-1.35,.21-2.02,.34-1.32,.25-1.84,1.61-1.06,2.73q2,2.85-.61,5.29c-.53,.5-1.15,.9-1.76,1.37Z"/>
  <path d="M190.33,745.32c0-4.62,0-9.24,0-13.86,0-1.9,.22-2.03,1.88-1.11,8.36,4.64,16.71,9.3,25.07,13.95,.47,.26,1.19,.38,1.22,1.02,.03,.76-.76,.92-1.28,1.21-8.25,4.6-16.5,9.18-24.76,13.76-1.94,1.08-2.12,.96-2.13-1.31,0-4.56,0-9.11,0-13.67Z"/>
  <path d="M125.51,761.92c-2.56,0-5.12,.04-7.68,0-3.62-.07-5.33-1.95-5.2-5.55,.08-2.26,.35-4.47,1.31-6.55,1.15-2.49,4.19-4.41,7.17-2.16,2.88,2.18,6.18,1.82,9.25-.11,2.48-1.56,4.78-1.09,6.32,1.43,1.7,2.76,2.11,5.86,1.78,9.01-.26,2.51-2.15,3.86-5.1,3.92-2.62,.05-5.24,.01-7.86,.01Z"/>
  <path d="M48.22,752.21c-1.14-3.96,1.02-6.24,3.97-8.32,2.39-1.69,4.59-3.65,6.8-5.58,.68-.59,1.05-.49,1.66,.02,3.3,2.77,6.62,5.5,9.96,8.22,.57,.47,.88,.96,.86,1.73-.04,2.62-.04,5.25,0,7.87,.02,1.46-.53,2.19-2.11,2.11-1.87-.1-3.75-.1-5.62,0-1.22,.07-1.48-.39-1.42-1.5,.09-1.68-.01-3.37,.04-5.06,.03-.87-.25-1.16-1.16-1.21-3.92-.21-3.92-.25-3.92,3.67s0,4.1-4.03,4.06c-5.64-.06-5,.93-5.04-5.09,0-.31,0-.62,0-.94Z"/>
  <path d="M66.13,736.98c.04-.6,.06-.78,.06-.96,.08-3.95-.8-3.53,3.78-3.58,1.03-.01,1.51,.37,1.48,1.41-.02,.81,.09,1.64-.02,2.43-.51,3.56,.32,6.46,3.74,8.24,1.05,.55,.91,1.21,.16,2.06-.75,.85-1.22,1.37-2.35,.41-3.97-3.42-8.05-6.71-12.02-10.13-.9-.78-1.43-.76-2.31,0-3.93,3.37-7.95,6.64-11.89,10-.91,.78-1.49,1.01-2.41-.08-.93-1.12-.7-1.67,.34-2.51,4.31-3.5,8.54-7.1,12.8-10.65,1.95-1.63,2.7-1.61,4.7,.07,1.23,1.03,2.46,2.06,3.94,3.3Z"/>
  <path d="M132.64,740.72c-.03,3.95-3.24,7.07-7.21,7.01-3.83-.06-6.97-3.26-6.96-7.1,0-3.92,3.23-7.13,7.15-7.11,3.94,.02,7.05,3.21,7.02,7.2Z"/>
  <path d="M277.24,758.62c-5.49,0-10.99-.04-16.48,.03-1.22,.02-1.54-.3-1.53-1.53,.06-7.99,.03-15.99,.03-23.98,0-.76-.26-1.56,1.12-1.56,1.37,0,1.12,.78,1.12,1.55,0,7.25,.03,14.49-.03,21.74-.01,1.22,.3,1.54,1.53,1.53,10.24-.05,20.48-.04,30.71-.02,.63,0,1.53-.43,1.54,.92,0,1.06-.29,1.35-1.35,1.34-5.56-.05-11.11-.02-16.67-.02Z"/>
  <path d="M290.72,744.02c0,2.93-.05,5.87,.03,8.8,.03,1.09-.34,1.32-1.36,1.32-3.16,0-3.16,.05-3.16-3.05,0-5.25,.05-10.49-.03-15.74-.02-1.27,.37-1.53,1.56-1.51,2.97,.06,2.97,0,2.97,3.05v7.12Z"/>
  <path d="M272.74,745.03c0-2.5,.07-5-.03-7.49-.05-1.16,.28-1.46,1.44-1.44,3.09,.04,3.09-.02,3.09,3.13,0,4.5-.04,8.99,.03,13.49,.02,1.16-.28,1.46-1.44,1.44-3.09-.05-3.09,.02-3.09-3.13v-5.99Z"/>
  <path d="M132.34,745.4c1.15-1.93,1.59-3.84,1.46-5.99,2.29,.86,4.3,.32,6.19-.71,1.48-.8,2.24-.14,2.69,1.17,.59,1.73,.6,3.54,.51,5.35-.04,.97-.6,1.71-1.45,2-1.88,.64-3.77,1.16-5.53-.45-.98-.89-2.22-1.34-3.87-1.36Z"/>
  <path d="M118.81,745.38c-1.77,.07-3.09,.75-4.35,1.75-1.54,1.22-3.3,.72-4.93,.16-1.47-.5-1.68-1.8-1.64-3.21,.04-1.44,.1-2.87,.59-4.23,.47-1.3,1.21-1.92,2.7-1.14,1.65,.86,3.4,1.55,5.34,.9,.44-.15,.85-.19,.82,.54-.1,1.85,.45,3.54,1.46,5.22Z"/>
  <path d="M140.88,733.56c0,2.6-2.14,4.79-4.7,4.79-2.55,0-4.71-2.18-4.72-4.77,0-2.66,2.05-4.73,4.7-4.73,2.66,0,4.71,2.04,4.71,4.71Z"/>
  <path class="cls-34" d="M115.02,728.86c2.65,.03,4.7,2.11,4.69,4.76-.01,2.55-2.26,4.77-4.78,4.73-2.54-.04-4.71-2.27-4.7-4.83,.01-2.58,2.18-4.69,4.79-4.66Z"/>
  <path d="M279.48,747.19c0-1.75,.06-3.5-.02-5.24-.05-1.06,.28-1.34,1.33-1.34,3.18,0,3.18-.05,3.18,3.22,0,2.93-.06,5.87,.03,8.8,.04,1.22-.3,1.56-1.53,1.54-2.99-.06-3,0-3-3.03v-3.93Z"/>
  <path d="M270.49,749.45c0,.81-.11,1.64,.02,2.43,.32,1.92-.45,2.3-2.28,2.32-1.91,.03-2.45-.5-2.27-2.35,.17-1.79,.06-3.62,.03-5.43-.02-.84,.02-1.32,1.15-1.34,3.36-.05,3.36-.12,3.36,3.24v1.12Z"/>
  <path class="cls-36" d="M202.19,217.16c-11.12-.23-21.99-5.72-30.33-16.32-.54-.69-.79-1.32-.64-2.21,.76-4.46,2.07-8.71,4.48-12.58,2.04-3.28,4.92-5.37,8.73-6.2,.83-.18,1.37-.06,1.97,.56,9.78,10.13,26.51,10.19,36.38,0,.6-.63,1.16-.71,1.98-.54,5.13,1.06,8.16,4.49,10.24,8.99,1.45,3.12,2.39,6.4,2.93,9.8,.13,.8-.02,1.4-.51,2.05-7.75,10.38-19.82,16.44-35.24,16.45Z"/>
  <path class="cls-36" d="M225.14,162.31c.01,11.39-9.14,20.59-20.51,20.6-11.38,.01-20.59-9.16-20.61-20.52-.01-11.37,9.17-20.6,20.53-20.62,11.37-.02,20.58,9.17,20.59,20.54Z"/>
  <path class="cls-36" d="M204.02,693.59c-18.1,0-36.2,.02-54.3,0-32.27-.05-64.54-.13-96.8-.21-2.18,0-4.37-.08-6.55-.06-1.26,.01-1.79-.47-1.74-1.77,.44-11.05,.34-22.1,.35-33.15,0-.82,.23-1.13,1.06-1.04,.55,.06,1.12,0,1.68,0,16.67-.02,33.33-.02,50-.05,27.4-.05,54.8-.28,82.19-.16,33.33,.14,66.66,.36,99.99,.09,26.96-.22,53.92,.37,80.87,.04,1.52-.02,2.09,.38,2.09,1.96-.02,10.8,0,21.59,.08,32.39,.01,1.51-.41,2.02-1.99,1.99-5.3-.1-10.61-.03-15.92-.03-47,0-94,0-141,0Z"/>
  <path class="cls-36" d="M279.6,558.5c-.57-1.48-.85-3-1.61-4.34-.92-1.61-2.06-2.95-3.87-3.61-1.48-.54-2.72-.57-4.12,.57-3.78,3.07-9.81,3.06-13.79,.2-2.11-1.52-3.94-1.46-6.01,.19-1.73,1.39-2.58,3.32-3.26,5.34-.17,.52-.29,1.07-.46,1.68-6.07-7.62-4.99-20.02,2.23-26.65,8.47-7.77,19.97-7.78,28.57-.03,7.25,6.54,8.35,18.82,2.31,26.65Z"/>
  <path class="cls-36" d="M219.65,558.49c-.55-1.48-.85-3-1.61-4.35-.88-1.56-2-2.87-3.71-3.53-1.51-.59-2.83-.66-4.29,.53-3.77,3.07-9.83,3.03-13.79,.17-2.09-1.51-3.94-1.44-6.01,.23-1.72,1.39-2.58,3.32-3.23,5.36-.17,.52-.18,1.1-.56,1.55-5.98-7.79-4.89-19.97,2.36-26.57,8.52-7.76,20.5-7.71,28.71,.13,7.14,6.82,8.14,18.97,2.13,26.5Z"/>
  <path class="cls-36" d="M95.29,558.48c-.56-1.47-.85-2.99-1.62-4.35-.89-1.56-2-2.87-3.71-3.53-1.51-.59-2.83-.65-4.29,.54-3.71,3.02-9.65,3.03-13.63,.26-2.44-1.7-4.56-1.5-6.72,.63-1.42,1.4-2.16,3.17-2.72,5.04-.14,.46-.29,.92-.45,1.45-6.04-7.91-4.95-20.06,2.3-26.66,8.52-7.76,20.52-7.7,28.71,.13,7.13,6.82,8.13,19.01,2.13,26.48Z"/>
  <path class="cls-36" d="M158.21,558.55c-.51-1.65-.89-3.17-1.66-4.53-1.02-1.8-2.42-3.17-4.47-3.7-1.18-.3-2.19-.22-3.27,.67-3.88,3.17-9.88,3.25-13.94,.35-2.2-1.57-4.04-1.48-6.15,.28-1.7,1.42-2.53,3.35-3.17,5.39-.15,.47-.27,.95-.43,1.47-6.06-7.17-5.06-19.49,2.07-26.45,7.99-7.8,19.74-7.92,28.56-.3,7.4,6.39,8.58,18.64,2.46,26.84Z"/>
  <path class="cls-36" d="M94.53,498.51c-.54-1.47-.85-3-1.62-4.36-.89-1.56-2-2.86-3.72-3.52-1.52-.59-2.83-.62-4.29,.56-3.72,3.02-9.66,3.01-13.63,.24-2.41-1.68-4.41-1.52-6.58,.53-1.45,1.37-2.21,3.14-2.8,4.99-.17,.52-.16,1.09-.57,1.52-6.01-8.02-4.84-20.26,2.54-26.7,8.75-7.63,20.46-7.52,28.56,.28,7.13,6.86,8.12,19.15,2.11,26.47Z"/>
  <path class="cls-36" d="M62.89,618.49c-6.08-8.07-4.91-20.35,2.47-26.78,8.75-7.63,20.45-7.53,28.56,.27,7.13,6.85,8.12,19.11,2.12,26.47-.54-1.47-.85-3-1.62-4.36-.89-1.56-2-2.86-3.72-3.52-1.52-.59-2.83-.63-4.29,.55-3.72,3.02-9.66,3.02-13.63,.25-2.41-1.68-4.42-1.52-6.58,.52-1.5,1.42-2.27,3.24-2.85,5.17-.14,.46-.29,.91-.45,1.43Z"/>
  <path class="cls-36" d="M157.47,498.6c-.53-1.62-.88-3.15-1.66-4.51-.96-1.67-2.19-3-4.1-3.61-1.38-.44-2.52-.38-3.78,.63-3.81,3.08-9.76,3.12-13.79,.28-2.28-1.61-4.15-1.5-6.29,.36-1.62,1.41-2.42,3.28-3.05,5.26-.15,.47-.27,.95-.41,1.47-5.05-6.01-6.4-17.78,1.93-26.23,7.9-8.01,20.18-8.28,28.51-.64,7.6,6.97,8.84,18.62,2.65,26.99Z"/>
  <path class="cls-36" d="M185.8,498.58c-6.07-7.82-4.99-20.05,2.26-26.68,8.5-7.77,20.47-7.72,28.71,.11,7.14,6.79,8.15,18.88,2.15,26.51-.56-1.48-.85-3-1.61-4.35-.92-1.61-2.07-2.95-3.87-3.6-1.48-.54-2.73-.55-4.12,.58-3.78,3.07-9.82,3.05-13.79,.18-2.1-1.51-3.94-1.45-6.01,.21-1.73,1.39-2.57,3.32-3.25,5.35-.17,.52-.29,1.06-.46,1.68Z"/>
  <path class="cls-36" d="M278.85,498.61c-.54-1.62-.88-3.14-1.66-4.51-.96-1.67-2.19-3.01-4.09-3.62-1.38-.44-2.52-.4-3.78,.62-3.82,3.09-9.75,3.14-13.79,.29-2.29-1.61-4.16-1.51-6.29,.34-1.62,1.4-2.43,3.28-3.06,5.25-.15,.47-.27,.95-.41,1.47-4.99-5.85-6.47-17.69,1.91-26.21,8.07-8.19,20.28-7.92,28.4-.82,7.48,6.54,8.96,18.52,2.77,27.17Z"/>
  <path class="cls-36" d="M343.27,618.53c-.52-1.64-.87-3.16-1.66-4.52-.93-1.6-2.11-2.91-3.93-3.53-1.43-.48-2.62-.49-3.95,.58-3.81,3.08-9.78,3.1-13.79,.25-2.21-1.57-4.04-1.49-6.15,.26-1.7,1.42-2.54,3.34-3.18,5.39-.15,.47-.27,.95-.42,1.47-6.08-7.01-5.09-19.43,2.05-26.43,7.96-7.8,19.72-7.94,28.56-.32,7.41,6.38,8.6,18.56,2.48,26.85Z"/>
  <path class="cls-36" d="M247.2,618.57c-6.19-8.57-5.03-20.07,2.56-26.89,8.63-7.75,20.13-7.5,28.38,.22,7.17,6.71,8.19,18.49,2.21,26.59-.34-1.05-.6-2.03-.98-2.97-.78-1.94-1.83-3.7-3.8-4.67-1.69-.83-3.19-1.1-4.95,.32-3.71,3.01-9.71,2.93-13.64,.14-2.21-1.57-4.04-1.49-6.15,.27-1.7,1.42-2.54,3.35-3.18,5.39-.15,.47-.27,.95-.46,1.61Z"/>
  <path class="cls-36" d="M220.4,618.53c-.52-1.64-.87-3.16-1.66-4.52-.93-1.6-2.1-2.91-3.93-3.53-1.43-.48-2.62-.49-3.95,.58-3.81,3.08-9.78,3.11-13.79,.26-2.21-1.57-4.04-1.49-6.15,.26-1.7,1.42-2.54,3.34-3.18,5.39-.15,.47-.27,.95-.42,1.47-5.14-6.25-6.29-17.92,1.95-26.26,7.93-8.02,20.13-8.18,28.68-.53,7.28,6.53,8.57,18.57,2.46,26.88Z"/>
  <path class="cls-36" d="M308.68,498.56c-6.05-7.48-5.06-19.6,2.08-26.52,8.08-7.83,20.11-7.9,28.71-.16,7.26,6.53,8.36,18.76,2.32,26.66-.57-1.48-.85-3-1.61-4.33-.92-1.61-2.06-2.96-3.86-3.61-1.47-.54-2.72-.58-4.12,.56-3.79,3.08-9.8,3.07-13.79,.21-2.12-1.52-3.94-1.47-6.01,.18-1.73,1.39-2.58,3.31-3.26,5.34-.17,.52-.29,1.07-.46,1.67Z"/>
  <path class="cls-36" d="M125.85,618.6c-6.25-8.73-4.97-20.18,2.57-26.93,8.64-7.73,20.18-7.47,28.38,.25,7.16,6.74,8.18,18.61,2.19,26.55-.57-1.48-.85-2.99-1.61-4.33-.95-1.67-2.14-3.04-4.03-3.68-1.44-.5-2.63-.45-3.95,.61-3.8,3.07-9.8,3.08-13.79,.22-2.13-1.53-3.95-1.48-6.01,.17-1.73,1.38-2.59,3.31-3.27,5.34-.17,.52-.29,1.07-.49,1.8Z"/>
  <path class="cls-36" d="M342.53,558.58c-.54-1.61-.88-3.14-1.66-4.5-.96-1.67-2.18-3.01-4.09-3.62-1.38-.44-2.52-.41-3.78,.61-3.82,3.1-9.75,3.15-13.78,.31-2.32-1.63-4.31-1.5-6.44,.45-1.93,1.76-2.68,4.14-3.31,6.62-4.88-5.61-6.42-17.34,1.72-26.11,6.92-7.46,19.36-8.37,27.37-1.84,8.78,7.16,10.51,18.87,3.98,28.09Z"/>
  <path class="cls-36" d="M153.62,321.19c.04,18.84-15.26,34.16-34.09,34.15-18.76-.02-34.01-15.25-34.06-34.02-.05-18.8,15.32-34.19,34.12-34.17,18.76,.02,34,15.27,34.04,34.04Z"/>
  <path class="cls-36" d="M334.17,321.22c.02,18.85-15.29,34.15-34.12,34.12-18.76-.03-34.01-15.29-34.03-34.04-.02-18.81,15.36-34.19,34.14-34.14,18.76,.05,33.98,15.3,34.01,34.07Z"/>
  <path class="cls-18" d="M218.47,60.98q.13-3.61,3.75-3.6c1.26,0,2.46,.22,3.61,.74,1.47,.67,2.18,1.9,2.13,3.42-.04,1.49-1.25,2.04-2.51,2.33-1.08,.25-2.18,.47-3.29,.57-3.44,.33-3.82-.04-3.69-3.46Z"/>
  <path class="cls-18" d="M132.39,60.93q.19-3.57,3.78-3.55c1.58,0,3.09,.26,4.37,1.25,1.01,.77,1.47,1.9,1.32,3.11-.15,1.16-1.09,1.77-2.18,2.03-1.2,.28-2.42,.55-3.64,.67-3.43,.34-3.84-.08-3.66-3.51Z"/>
  <path class="cls-36" d="M196.01,63c2.63,.02,4.35,1.94,4.29,4.78-.06,2.62-1.98,4.69-4.32,4.66-2.44-.03-3.9-1.86-3.91-4.89,0-2.88,1.46-4.57,3.94-4.55Z"/>
  <path class="cls-36" d="M170.34,63c2.7,.01,4.33,1.79,4.32,4.71-.01,2.7-1.82,4.73-4.2,4.73-2.48,0-4.12-2.02-4.05-5,.06-2.66,1.64-4.45,3.93-4.44Z"/>
  <path class="cls-36" d="M250.16,63c2.68,.02,4.32,1.82,4.29,4.74-.02,2.71-1.82,4.71-4.23,4.7-2.42,0-3.99-1.9-4.02-4.85-.03-2.72,1.6-4.61,3.96-4.6Z"/>
  <path class="cls-19" d="M198.62,243.26c-1.33,.25-2.07-.08-1.91-1.71,.13-1.31-.23-2.78,1.91-2.42,.3,.05,.62,0,.93,.01,1.39,.1,2.68,.47,2.8,2.12,.14,1.84-1.5,1.64-2.6,1.98-.34,.11-.74,.02-1.15,.02Z"/>
  <path class="cls-2" d="M46.69,424.97c.43-1.31,.8-2.46,1.48-3.54,.19,.37,.37,.69,.51,1.02q1.18,2.75-1.99,2.52Z"/>
  <path class="cls-19" d="M218.93,244.75h-5.31c.35-1.18,1.12-1.75,2.23-1.88,1.36-.16,2.35,.39,3.08,1.88Z"/>
  <path class="cls-19" d="M68.96,426.34c.05,1.81-.84,2.79-2.58,2.84-1.34,.04-2.13-.61-2.23-1.94-.12-1.66,1.87-4.03,3.27-4,1.09,.02,1.48,.81,1.54,3.11Z"/>
  <path class="cls-38" d="M84.38,426.05c.07,2.1-.79,3.12-2.59,3.12-1.24,0-2.02-.54-2.1-1.86-.12-1.73,1.75-4.2,3.19-4.06,1.87,.18,1.35,1.75,1.5,2.8Z"/>
  <path class="cls-38" d="M168.39,248.15c-1.39-.05-2.41-1.35-2.35-3.02,.05-1.62,1.01-2.64,2.46-2.62,1.58,.03,2.51,1.09,2.47,2.82-.04,1.64-1.16,2.86-2.58,2.82Z"/>
  <path class="cls-38" d="M234.41,245.31c-.03-1.72,.81-2.76,2.24-2.8,1.57-.04,2.62,.99,2.69,2.65,.06,1.5-1.12,2.94-2.45,2.99-1.48,.06-2.44-1.05-2.47-2.84Z"/>
  <path class="cls-38" d="M282.6,362.01c1.6,.02,2.95,.1,2.86,1.62-.1,1.65-1.69,1.25-2.77,1.45-1.5,.28-1.28-.73-1.39-1.69-.17-1.51,.77-1.4,1.3-1.38Z"/>
  <path class="cls-7" d="M125.65,366.09c1.67-1.88,2.45-1.86,3.85,0h-3.85Z"/>
  <path class="cls-7" d="M319.51,366.13h-3.61c1.11-1.94,2.35-1.95,3.61,0Z"/>
  <path class="cls-38" d="M110.18,366.6c.22,1.5-.41,2.26-1.92,2.31-.97,.03-1.55-.35-1.58-1.38-.05-1.26,1.12-2.81,2.21-2.87,1.52-.08,1.18,1.09,1.3,1.94Z"/>
  <path class="cls-20" d="M141.55,366.7c.16,1.68-.7,2.15-1.99,2.21-.98,.04-1.53-.44-1.6-1.39-.09-1.26,1.29-2.91,2.39-2.86,1.59,.07,.91,1.44,1.2,2.04Z"/>
  <path class="cls-5" d="M43.02,33.62c-.24,1.01-.06,2.3-1.29,2.32-1.33,.03-1.38-1.29-1.38-2.25,0-.87-.06-2.07,1.24-2.13,1.58-.08,1.01,1.39,1.43,2.06Z"/>
  <path class="cls-20" d="M367.43,33.25c-.91,.26-.59,1.03-.69,1.63h0c-2.87,.36-5.74,.26-8.62,.04l-.02-.02c-.21-1.5-.31-3.01,.05-4.5,2.18,0,4.37,.08,6.54-.04,1.27-.07,2.15,.12,2.44,1.49,.4,.4,.12,.95,.29,1.4Z"/>
  <path class="cls-24" d="M358.14,34.92c2.87-.02,5.74-.03,8.62-.05-2.87,.68-5.74,.6-8.62,.05Z"/>
  <path class="cls-24" d="M358.16,30.4c-.02,1.5-.03,3-.05,4.5-.54-1.51-.62-3.01,.05-4.5Z"/>
  <path class="cls-33" d="M66.88,32.75c.14,.58,1.08,1.01,.29,1.6-.14,.11-.56,.07-.68-.05-.61-.66,.21-1.04,.39-1.55Z"/>
  <path class="cls-1" d="M47.67,32.54c-.07,.76-.36,1.3-1.24,1.3-.63,0-.9-.38-.9-.93,0-.75,.45-1.13,1.18-1.1,.46,.02,1.07-.07,.96,.74Z"/>
  <path class="cls-36" d="M354.75,750.44c-2.91-.03-5-2.17-4.97-5.09,.03-2.87,2.22-5.09,5.04-5.1,2.84,0,5.21,2.42,5.14,5.26-.07,2.81-2.34,4.96-5.21,4.93Z"/>
  <path class="cls-34" d="M218.29,676.16c.7,2.24,2.77,3,5.32,2.02,.79-.3,1.72-1.04,2.19,.17,.47,1.21-.64,1.58-1.52,1.9-4.8,1.72-8.9-1.07-8.48-5.75,.24-2.66,2.68-4.92,5.42-5,2.59-.07,4.95,1.89,5.42,4.5,.26,1.45-.12,2.26-1.81,2.18-2.16-.1-4.33-.02-6.54-.02Z"/>
  <path class="cls-34" d="M211.31,669.99c0-1.05,0-2.04,0-3.03,0-.71,.22-1.25,1.01-1.27,.79-.02,1.09,.53,1.11,1.22,.04,1.49,.06,2.99,.07,4.48,.02,2.62,.05,5.23,.05,7.85,0,1.22-.58,1.91-1.71,1.1-.59-.42-.87-.16-1.29-.02-2.25,.76-4.09,.34-5.41-1.23-1.52-1.81-1.78-4.67-.62-6.83,1.06-1.96,2.67-2.81,4.92-2.57,.55,.06,1.1,.17,1.87,.29Z"/>
  <path class="cls-9" d="M192.07,676.03c0,1.23,.05,2.29-.01,3.34-.08,1.26-1.03,1.76-1.82,.88-.55-.61-.73-.35-1.22-.1-1.74,.91-4.01,.63-5.41-.58-1.47-1.27-1.93-3.26-1.18-5.28,.77-2.04,1.95-3.75,4.07-4.59,2.53-1,5,.47,5.29,3.16,.12,1.11,.19,2.23,.27,3.17Z"/>
  <path class="cls-34" d="M176.66,676.43c1.22-3.14,2.41-6.24,3.64-9.33,.31-.79,.63-1.87,1.79-1.35,1.18,.53,.48,1.47,.18,2.24-1.46,3.77-2.92,7.53-4.42,11.29-.23,.59-.35,1.4-1.28,1.39-.89,0-1.12-.74-1.36-1.35-1.55-4-3.06-8.01-4.58-12.02-.28-.73-.23-1.4,.65-1.63,.85-.22,1.2,.34,1.46,1.06,.96,2.69,1.95,5.38,2.96,8.05,.21,.55,.27,1.23,.96,1.64Z"/>
  <path class="cls-25" d="M194.51,673.16c0-1.93,0-3.86,0-5.79,0-.86,.09-1.74,1.22-1.68,1.04,.05,.97,.94,.97,1.69,0,3.86,0,7.71,0,11.57,0,.85-.02,1.75-1.18,1.67-1.01-.07-1.01-.89-1-1.68,.02-1.93,0-3.86,0-5.79,0,0-.01,0-.02,0Z"/>
  <path class="cls-8" d="M229.68,669.41c.17,.02,.38,0,.41,.05,.83,1.91,2.04,.29,3.06,.32,.86,.02,1.95-.18,2.02,1.06,.07,1.13-.93,1.08-1.75,1.16-2.04,.19-2.58,.79-2.57,2.8,0,1.5,0,2.99,0,4.49,0,.68-.12,1.29-.94,1.35-.94,.06-1.12-.61-1.14-1.36-.04-2.8-.08-5.61-.11-8.41,0-.74,.15-1.38,1.02-1.46Z"/>
  <path class="cls-37" d="M201.54,674.98c0,1.37,0,2.74,0,4.1,0,.8-.11,1.57-1.14,1.55-.89-.02-1.06-.69-1.06-1.44,.02-2.8,.02-5.59,.05-8.39,0-.76,.28-1.39,1.16-1.37,.92,.02,1.04,.71,1.03,1.45,0,1.37,0,2.73,0,4.1,0,0-.02,0-.02,0Z"/>
  <path class="cls-3" d="M200.68,668.3c-.99-.01-1.4-.47-1.42-1.26-.02-.76,.3-1.32,1.15-1.36,.85-.04,1.23,.49,1.27,1.25,.04,.77-.36,1.26-1,1.37Z"/>
  <path d="M273.23,541.94c-.34,5.9-5.09,10.12-11,9.77-5.52-.33-9.71-5.23-9.38-10.98,.31-5.4,5.15-9.79,10.51-9.53,5.79,.28,10.2,5.08,9.88,10.74Z"/>
  <path d="M192.86,541.33c.1-5.64,4.78-10.24,10.33-10.14,5.63,.1,10.19,4.75,10.15,10.34-.04,5.73-4.7,10.28-10.45,10.21-5.61-.07-10.14-4.77-10.04-10.4Z"/>
  <path d="M68.5,541.27c.13-5.65,4.85-10.23,10.39-10.08,5.65,.15,10.18,4.81,10.09,10.4-.09,5.75-4.74,10.25-10.5,10.14-5.61-.1-10.1-4.82-9.97-10.46Z"/>
  <path d="M131.42,541.56c-.04-5.65,4.48-10.29,10.1-10.38,5.64-.09,10.4,4.62,10.4,10.29,0,5.63-4.57,10.23-10.21,10.26-5.65,.03-10.24-4.52-10.28-10.17Z"/>
  <path d="M67.74,481.59c-.03-5.65,4.49-10.29,10.11-10.37,5.65-.08,10.39,4.63,10.38,10.3,0,5.64-4.58,10.22-10.23,10.24-5.64,.02-10.24-4.53-10.27-10.18Z"/>
  <path d="M69.24,601.26c.12-5.65,4.82-10.23,10.37-10.11,5.64,.13,10.18,4.79,10.11,10.38-.07,5.75-4.72,10.26-10.48,10.17-5.61-.09-10.12-4.79-10-10.44Z"/>
  <path d="M151.11,481.97c-.33,5.9-5.09,10.13-11,9.77-5.52-.33-9.71-5.23-9.39-10.98,.31-5.4,5.14-9.79,10.51-9.53,5.79,.28,10.2,5.08,9.88,10.74Z"/>
  <path d="M192.12,481.27c.15-5.65,4.88-10.22,10.41-10.05,5.66,.17,10.17,4.84,10.05,10.43-.12,5.78-4.75,10.23-10.53,10.11-5.61-.11-10.08-4.84-9.94-10.49Z"/>
  <path d="M252.05,481.28c.14-5.65,4.87-10.22,10.4-10.06,5.66,.16,10.17,4.83,10.06,10.42-.11,5.76-4.75,10.23-10.52,10.12-5.61-.11-10.09-4.83-9.95-10.48Z"/>
  <path d="M336.91,601.9c-.33,5.9-5.09,10.12-11,9.77-5.52-.33-9.71-5.23-9.38-10.98,.31-5.4,5.14-9.79,10.51-9.53,5.79,.28,10.2,5.08,9.88,10.74Z"/>
  <path d="M253.55,601.22c.14-5.65,4.86-10.22,10.4-10.07,5.66,.16,10.17,4.83,10.07,10.41-.1,5.76-4.75,10.24-10.51,10.13-5.61-.1-10.1-4.83-9.96-10.47Z"/>
  <path d="M193.62,601.2c.15-5.65,4.89-10.22,10.42-10.04,5.67,.18,10.16,4.85,10.04,10.43-.12,5.78-4.76,10.22-10.53,10.11-5.61-.12-10.08-4.85-9.93-10.5Z"/>
  <path d="M335.44,481.25c.2,5.52-4.23,10.28-9.74,10.5-5.79,.22-10.53-4.16-10.7-9.9-.18-5.74,4.29-10.49,10.01-10.64,5.56-.14,10.24,4.35,10.44,10.03Z"/>
  <path d="M152.64,601.2c.19,5.51-4.24,10.28-9.76,10.48-5.79,.22-10.52-4.17-10.69-9.91-.17-5.74,4.31-10.49,10.02-10.62,5.56-.13,10.23,4.37,10.43,10.05Z"/>
  <path d="M315.72,541.58c-.05-5.65,4.45-10.29,10.08-10.4,5.63-.1,10.4,4.6,10.42,10.27,.01,5.63-4.56,10.24-10.2,10.27-5.65,.04-10.25-4.5-10.29-10.15Z"/>
  <path d="M119.53,335.89c-4.24,0-8.49,.01-12.73,0-3.02-.01-4.86-1.84-4.87-4.88-.02-5.37-.02-10.74,0-16.11,.01-2.95,1.98-4.84,4.96-4.89,.5,0,1.01-.07,1.5,.01,1.74,.31,2.72-.33,3.18-2.09,.46-1.79,1.83-2.59,3.65-2.59,2.81,0,5.62,.04,8.42-.01,2.08-.04,3.56,.84,4.05,2.85,.4,1.63,1.31,2.03,2.8,1.85,.68-.08,1.37-.03,2.06-.01,2.48,.09,4.55,1.8,4.6,4.24,.13,5.8,.14,11.61,.02,17.41-.05,2.57-1.99,4.2-4.55,4.21-4.37,.02-8.74,0-13.1,0Z"/>
  <path d="M300.15,335.89c-4.74,0-9.48,0-14.22,0-2.45,0-3.44-.95-3.44-3.33-.01-7.18-.02-14.36,0-21.53,0-2.27,1.04-3.3,3.32-3.31,9.54-.02,19.09-.02,28.63,0,2.27,0,3.36,1.02,3.37,3.28,.04,7.24,.04,14.48,0,21.72-.01,2.2-1.08,3.16-3.25,3.17-4.8,.01-9.61,0-14.41,0Z"/>
  <path class="cls-37" d="M361.69,30.84c.19,0,.37,0,.56,0,2.2,0,3.18,1.03,2.12,2.98-.91,1.67-3.11,.33-4.71,.66-.7,.14-1.09-.06-1.15-.95-.17-2.7-.22-2.7,3.18-2.7Z"/>
  <path class="cls-20" d="M218.26,673.87c.72-1.47,1.76-2.19,3.14-2.14,1.28,.05,2.35,.63,2.88,2.14h-6.02Z"/>
  <path class="cls-18" d="M211.37,675.13c.01,2.44-.8,3.49-2.71,3.49-1.59,0-2.64-1.32-2.67-3.37-.03-2.12,1.17-3.59,2.9-3.58,1.81,.01,2.46,.91,2.47,3.46Z"/>
  <path class="cls-38" d="M189.93,675.82c.21,1.04-.51,1.79-1.64,2.3-1.15,.52-2.31,.63-3.31-.21-1.01-.85-.86-1.99-.41-3.08,.21-.51,.48-1.01,.79-1.47,.74-1.08,1.67-1.92,3.08-1.67,1.59,.28,1.07,1.72,1.34,2.72,.1,.36,.08,.74,.15,1.42Z"/>
  <path class="cls-36" d="M119.56,314.85c4.62,0,8.21,3.53,8.24,8.09,.03,4.55-3.83,8.44-8.28,8.37-4.45-.07-8.18-3.86-8.17-8.32,0-4.52,3.66-8.14,8.21-8.14Z"/>
  <path class="cls-36" d="M300.27,310.03c4.49,0,8.99,.04,13.48-.03,1.3-.02,1.73,.34,1.72,1.69-.06,6.74-.06,13.49,0,20.24,.01,1.29-.33,1.72-1.68,1.71-9.11-.06-18.23-.05-27.34,0-1.25,0-1.61-.37-1.6-1.58,.04-6.81,.05-13.62,0-20.42-.01-1.39,.53-1.64,1.76-1.63,4.56,.06,9.11,.02,13.67,.02Z"/>
  <path d="M119.58,317.71c2.97,0,5.31,2.32,5.32,5.3,.01,2.9-2.41,5.33-5.32,5.33-2.93,0-5.29-2.37-5.29-5.33,0-2.97,2.32-5.3,5.29-5.3Z"/>
  <path d="M300.27,331.34c-3.62,0-7.24,.03-10.86-.02-.75-.01-1.94,.5-2.18-.38-.29-1.06-.61-2.48,.2-3.42,1.59-1.84,3.4-3.48,5.11-5.21,.78-.79,1.08,.1,1.46,.46,2.06,1.93,2.05,1.94,3.99,0,2.03-2.03,4.17-3.97,6.05-6.13,1.17-1.34,1.89-1.15,2.84,.09,.49,.64,1.13,1.16,1.71,1.73,4.83,4.84,4.81,4.84,4.57,11.65-.04,.99-.31,1.26-1.28,1.25-3.87-.05-7.74-.02-11.61-.02Z"/>
  <path class="cls-34" d="M290.62,319.4c-2.02-.03-3.5-1.56-3.46-3.57,.05-1.9,1.79-3.58,3.66-3.5,1.91,.08,3.47,1.76,3.43,3.71-.04,2.02-1.53,3.4-3.63,3.37Z"/>
</svg>