<?xml version="1.0" standalone="no"?>
<!DOCTYPE svg PUBLIC "-//W3C//DTD SVG 20010904//EN"
 "http://www.w3.org/TR/2001/REC-SVG-20010904/DTD/svg10.dtd">
<svg version="1.0" xmlns="http://www.w3.org/2000/svg"
 width="1092.000000pt" height="2148.000000pt" viewBox="0 0 1092.000000 2148.000000"
 preserveAspectRatio="xMidYMid meet">

<g transform="translate(0.000000,2148.000000) scale(0.100000,-0.100000)"
fill="#000000" stroke="none">
<path d="M1133 21460 c-122 -10 -212 -39 -358 -113 -416 -212 -593 -435 -693
-877 l-26 -115 -3 -582 c-4 -476 -7 -583 -18 -583 -7 0 -16 -7 -19 -16 -3 -9
-6 -160 -6 -337 0 -304 1 -324 20 -355 19 -30 20 -50 20 -288 0 -241 -1 -257
-20 -281 -20 -25 -20 -41 -20 -633 0 -594 0 -607 20 -625 18 -16 20 -31 20
-150 0 -124 -1 -133 -20 -138 -20 -5 -20 -14 -20 -630 0 -621 0 -624 21 -651
l21 -27 -2 -3292 c-1 -1811 -1 -4941 1 -6957 l4 -3665 22 -115 c30 -161 66
-268 129 -390 168 -324 453 -519 871 -595 135 -25 524 -35 1568 -41 1168 -7
6631 14 6920 26 264 11 532 36 610 57 300 81 546 344 629 674 25 98 39 203 57
414 20 257 29 5091 18 10129 l-11 4940 26 19 26 19 0 599 0 600 -25 23 -25 23
0 1334 c0 812 -4 1378 -10 1448 -60 673 -458 1074 -1145 1151 -106 12 -8437
11 -8582 0z m8632 -95 c384 -67 710 -311 884 -661 50 -102 68 -155 86 -262 23
-138 30 -3162 29 -11697 -1 -5811 -4 -7569 -13 -7665 -36 -367 -147 -595 -383
-785 -204 -163 -294 -177 -1243 -192 -280 -4 -2170 -8 -4200 -8 -3543 0 -3694
1 -3795 18 -336 60 -599 221 -765 472 -86 128 -138 258 -181 445 -16 70 -17
405 -25 4990 -4 2703 -4 7030 0 9615 8 4692 8 4700 29 4790 119 522 463 856
977 949 121 22 8473 13 8600 -9z"/>
<path d="M1240 21071 c-8 -4 -49 -16 -90 -26 -214 -49 -405 -188 -532 -385
-95 -147 -132 -280 -147 -522 -6 -94 -10 -3784 -11 -9603 l-1 -9450 21 -40
c12 -22 31 -64 42 -94 35 -92 89 -173 163 -246 150 -148 276 -224 452 -273
l98 -27 4230 0 4230 0 90 28 c300 95 486 241 582 455 56 125 55 116 64 727 33
2475 42 10311 18 16395 -9 2505 -8 2438 -59 2591 -33 97 -66 146 -170 250 -83
84 -107 102 -190 142 -172 82 -172 82 -844 80 -523 -1 -591 -3 -601 -17 -7 -9
-15 -78 -18 -163 -7 -164 -20 -221 -69 -303 -27 -44 -44 -60 -92 -85 l-60 -30
-2800 -3 c-1860 -2 -2829 1 -2886 8 -106 12 -175 45 -234 111 -56 62 -73 116
-82 256 -8 117 -28 172 -77 207 -28 20 -42 21 -520 23 -271 2 -499 -1 -507 -6z
m8594 -112 c107 -22 153 -41 232 -100 108 -79 191 -211 237 -374 l22 -80 3
-8705 c2 -4788 0 -8813 -3 -8946 l-7 -240 -62 7 c-99 13 -4047 29 -6963 29
l-2703 0 0 6708 c0 4471 -4 7184 -12 8139 -6 788 -10 1434 -7 1435 2 2 744 0
1649 -4 2421 -10 8060 -14 8052 -6 -5 5 -44 12 -87 18 -116 14 -3790 30 -6944
30 l-2674 0 7 558 c12 913 16 963 95 1127 92 193 256 337 451 396 73 22 89 23
562 27 476 3 487 3 507 -17 26 -26 37 -72 49 -199 11 -114 43 -197 109 -284
81 -105 113 -109 978 -109 2141 1 4918 13 4980 22 96 13 201 65 257 128 81 90
118 198 118 347 0 53 4 77 16 88 8 9 16 17 17 18 3 4 961 13 992 9 17 -1 74
-12 129 -22z m-7844 -18449 c740 -4 2691 -8 4335 -9 1645 0 3216 -4 3493 -8
l503 -6 -3 -676 c-4 -665 -4 -677 -26 -756 -39 -139 -96 -239 -187 -331 -129
-129 -274 -202 -449 -224 -116 -14 -8286 -14 -8393 1 -328 45 -589 291 -657
622 -14 65 -16 174 -16 743 l0 666 28 -7 c15 -4 632 -11 1372 -15z"/>
<path d="M8980 20610 c0 -113 1 -120 20 -120 19 0 20 7 20 120 0 113 -1 120
-20 120 -19 0 -20 -7 -20 -120z"/>
<path d="M9214 20699 c-41 -12 -72 -45 -56 -61 9 -9 17 -7 32 7 32 29 121 32
164 7 28 -17 37 -18 45 -8 14 16 0 29 -52 51 -40 16 -85 18 -133 4z"/>
<path d="M9544 20677 c-3 -8 -4 -43 -2 -78 l3 -64 130 0 130 0 9 38 c6 23 6
51 0 75 l-9 37 -128 3 c-101 2 -128 0 -133 -11z m246 -27 c0 -11 5 -20 10 -20
6 0 10 -9 10 -20 0 -11 -4 -20 -10 -20 -5 0 -10 -9 -10 -20 0 -19 -7 -20 -115
-20 l-115 0 0 60 0 60 115 0 c108 0 115 -1 115 -20z"/>
<path d="M9570 20610 l0 -50 80 0 80 0 0 50 0 50 -80 0 -80 0 0 -50z"/>
<path d="M1071 20647 c-28 -34 -26 -111 5 -141 41 -42 94 -3 94 69 0 53 -23
85 -59 85 -16 0 -34 -6 -40 -13z m70 -34 c21 -55 -14 -114 -48 -81 -15 16 -21
78 -8 97 12 21 45 12 56 -16z"/>
<path d="M1207 20642 c-37 -41 -7 -99 46 -88 29 6 29 5 23 -29 -6 -28 -4 -35
9 -35 23 0 22 155 -1 164 -29 11 -61 6 -77 -12z m61 -34 c-3 -24 -34 -36 -49
-21 -16 16 2 43 28 43 20 0 24 -4 21 -22z"/>
<path d="M1388 20618 c-6 -50 2 -64 30 -49 25 13 58 -8 49 -33 -10 -26 -38
-32 -53 -11 -17 23 -33 11 -18 -13 13 -21 60 -28 80 -11 19 15 18 64 -2 83 -8
9 -27 16 -40 16 -19 0 -25 5 -22 18 2 12 14 18 41 20 54 5 45 22 -12 22 l-49
0 -4 -42z"/>
<path d="M1540 20640 c-22 -22 -25 -36 -11 -45 6 -3 15 4 21 15 12 22 50 28
50 8 0 -7 -19 -31 -41 -54 -55 -56 -49 -74 25 -74 30 0 58 5 61 10 4 6 -13 10
-44 10 -28 0 -51 3 -51 7 0 3 18 23 40 43 43 40 49 60 24 84 -21 22 -50 20
-74 -4z"/>
<path d="M1747 20593 c-14 -37 -28 -76 -32 -85 -5 -13 -2 -18 9 -18 8 0 18 11
22 25 5 20 12 25 39 25 27 0 34 -5 39 -25 6 -22 37 -38 35 -17 -2 21 -66 156
-75 159 -6 2 -23 -27 -37 -64z m53 -20 c0 -7 -7 -13 -15 -13 -16 0 -19 9 -9
35 5 13 8 14 15 3 5 -7 9 -19 9 -25z"/>
<path d="M1880 20574 c0 -64 3 -85 13 -82 7 3 14 28 17 59 l5 54 21 -28 c28
-34 34 -34 62 6 l22 32 0 -63 c0 -35 4 -62 10 -62 6 0 10 35 10 85 0 47 -4 85
-9 85 -5 0 -21 -16 -36 -37 l-28 -36 -34 36 c-18 21 -38 37 -43 37 -6 0 -10
-36 -10 -86z"/>
<path d="M9220 20642 c-36 -18 -40 -40 -5 -34 11 2 38 4 60 4 22 0 51 -2 64
-4 37 -5 36 18 -3 36 -44 21 -72 20 -116 -2z"/>
<path d="M8920 20570 c0 -73 2 -80 20 -80 18 0 20 7 20 80 0 73 -2 80 -20 80
-18 0 -20 -7 -20 -80z"/>
<path d="M1330 20600 c0 -5 7 -10 15 -10 8 0 15 5 15 10 0 6 -7 10 -15 10 -8
0 -15 -4 -15 -10z"/>
<path d="M9242 20600 c-13 -6 -22 -15 -20 -22 5 -14 97 -18 105 -5 14 22 -48
42 -85 27z"/>
<path d="M8860 20540 c0 -43 3 -50 20 -50 17 0 20 7 20 50 0 43 -3 50 -20 50
-17 0 -20 -7 -20 -50z"/>
<path d="M8800 20520 c0 -23 4 -30 20 -30 16 0 20 7 20 30 0 23 -4 30 -20 30
-16 0 -20 -7 -20 -30z"/>
<path d="M9250 20546 c0 -2 6 -9 14 -15 10 -9 16 -8 26 4 11 13 8 15 -14 15
-14 0 -26 -2 -26 -4z"/>
<path d="M8740 20510 c0 -13 7 -20 20 -20 13 0 20 7 20 20 0 13 -7 20 -20 20
-13 0 -20 -7 -20 -20z"/>
<path d="M1330 20500 c0 -5 7 -10 15 -10 8 0 15 5 15 10 0 6 -7 10 -15 10 -8
0 -15 -4 -15 -10z"/>
<path d="M1285 20090 c-37 -16 -383 -373 -391 -403 -6 -27 6 -42 192 -228 154
-153 205 -199 225 -199 33 0 109 77 109 111 0 17 -24 48 -85 109 -47 47 -85
88 -85 92 0 5 90 8 199 8 237 0 231 -3 231 99 0 103 4 101 -235 101 l-199 0
87 89 c106 108 110 127 42 190 -46 42 -56 46 -90 31z"/>
<path d="M7032 20020 c-36 -22 -62 -72 -62 -120 0 -23 -4 -30 -20 -30 -27 0
-44 -34 -30 -60 6 -11 17 -20 24 -20 10 0 14 -37 19 -155 5 -160 12 -185 48
-185 32 0 37 29 31 186 l-5 153 33 3 c62 6 67 69 6 76 -21 3 -26 8 -26 32 0
33 23 60 51 60 10 0 36 -7 58 -16 47 -19 81 -6 81 30 0 40 -34 60 -108 64 -54
2 -73 -1 -100 -18z"/>
<path d="M3467 20011 c-15 -18 -21 -294 -10 -440 6 -82 12 -106 26 -115 12 -8
22 -8 35 0 14 9 17 29 20 116 l3 105 87 6 c112 7 153 20 196 60 89 85 31 245
-101 276 -66 16 -241 11 -256 -8z m271 -88 c64 -47 63 -111 -1 -138 -46 -19
-128 -29 -171 -21 l-36 7 0 72 c0 103 7 109 113 103 49 -2 77 -9 95 -23z"/>
<path d="M3949 20014 c-10 -12 -12 -71 -10 -272 1 -141 7 -264 12 -274 12 -23
55 -23 68 -1 6 11 7 67 4 138 -6 117 -5 121 18 148 30 35 78 49 110 33 42 -20
49 -51 48 -187 -1 -69 1 -131 5 -138 10 -16 42 -14 60 5 13 12 16 41 16 147 0
153 -16 202 -72 237 -45 28 -126 27 -162 -1 l-26 -20 0 88 c0 91 -8 113 -41
113 -9 0 -22 -7 -30 -16z"/>
<path d="M5769 20019 c-11 -6 -15 -54 -17 -211 -2 -112 -1 -236 3 -276 6 -67
9 -73 32 -78 45 -12 56 16 50 129 l-5 97 67 0 c78 0 172 22 211 50 91 65 70
208 -40 270 -41 23 -57 25 -166 26 -67 1 -128 -2 -135 -7z m232 -79 c42 -12
74 -44 83 -83 12 -52 -70 -97 -177 -97 -74 0 -77 4 -77 95 0 79 1 84 23 88 43
8 112 7 148 -3z"/>
<path d="M7362 20022 c-9 -7 -12 -71 -10 -288 l3 -279 24 -3 c48 -7 51 11 51
286 0 155 -4 261 -10 273 -11 20 -36 25 -58 11z"/>
<path d="M4846 19984 c-10 -10 -16 -33 -16 -62 0 -39 -4 -49 -22 -57 -15 -7
-23 -19 -23 -35 0 -16 8 -28 23 -35 21 -9 22 -15 22 -123 0 -131 13 -172 63
-195 56 -25 84 -28 102 -11 25 26 14 47 -37 72 l-48 22 0 120 0 119 26 3 c15
2 32 11 38 21 15 24 -3 51 -38 55 -24 3 -26 6 -26 57 0 39 -4 54 -16 59 -24 9
-31 8 -48 -10z"/>
<path d="M4448 19855 c-40 -27 -77 -94 -85 -154 -9 -66 14 -136 62 -189 l43
-47 74 0 c66 0 79 3 111 27 19 16 48 52 62 83 53 107 19 237 -75 285 -58 29
-144 27 -192 -5z m173 -83 c24 -21 32 -38 36 -75 10 -85 -36 -147 -107 -147
-49 0 -87 30 -101 82 -14 53 -5 100 27 138 36 42 99 43 145 2z"/>
<path d="M5125 19848 c-66 -58 -93 -139 -74 -226 21 -100 86 -162 171 -162 96
0 164 55 194 157 21 71 8 142 -36 195 -40 48 -86 68 -159 68 -53 0 -64 -4 -96
-32z m164 -63 c42 -21 66 -91 51 -144 -15 -55 -57 -91 -103 -91 -49 0 -73 13
-92 50 -28 54 -18 136 23 183 19 21 82 23 121 2z"/>
<path d="M6242 19868 c-8 -8 -12 -61 -12 -172 0 -205 5 -234 38 -243 45 -11
54 16 51 152 -1 66 -1 126 0 132 2 22 49 45 103 52 45 5 53 9 56 29 6 39 -16
55 -70 50 -27 -3 -56 -12 -66 -22 -24 -21 -32 -20 -32 3 0 29 -45 42 -68 19z"/>
<path d="M6578 19855 c-40 -27 -77 -94 -85 -154 -9 -66 14 -136 62 -189 l43
-47 74 0 c66 0 79 3 111 27 19 16 48 52 62 83 53 107 19 237 -75 285 -58 29
-144 27 -192 -5z m173 -83 c24 -21 32 -38 36 -75 10 -85 -36 -147 -107 -147
-49 0 -87 30 -101 82 -14 53 -5 100 27 138 36 42 99 43 145 2z"/>
<path d="M7182 19868 c-9 -9 -12 -69 -12 -210 l0 -198 25 -6 c51 -13 55 1 55
210 0 197 -4 216 -40 216 -9 0 -21 -5 -28 -12z"/>
<path d="M5250 18045 c-243 -41 -501 -171 -677 -342 -354 -344 -481 -862 -324
-1325 149 -442 530 -771 986 -853 119 -22 333 -22 450 0 401 72 743 330 921
695 84 172 123 325 132 514 28 633 -432 1201 -1063 1310 -107 19 -318 19 -425
1z m325 -360 c107 -23 189 -68 271 -150 219 -219 219 -552 0 -771 -219 -219
-552 -219 -771 0 -219 219 -219 552 0 771 137 137 311 190 500 150z m-563
-1050 c69 -64 211 -137 303 -156 33 -6 98 -12 145 -12 47 0 112 6 145 12 92
19 234 92 302 155 59 54 59 55 102 45 164 -37 274 -185 331 -446 l18 -82 -52
-63 c-149 -179 -353 -310 -579 -369 -173 -46 -439 -36 -611 23 -190 64 -393
206 -507 354 -40 52 -41 56 -35 104 10 73 60 219 98 287 57 101 141 170 235
192 21 5 40 9 42 10 2 1 30 -24 63 -54z"/>
<path d="M5756 15141 c-26 -27 -34 -55 -17 -65 14 -9 71 43 71 64 0 30 -26 30
-54 1z"/>
<path d="M4275 15138 c-3 -7 -6 -67 -7 -133 l-3 -120 -30 49 c-58 97 -144 206
-164 206 -26 0 -31 -19 -31 -113 0 -130 11 -218 28 -224 26 -10 31 20 25 136
-4 77 -3 112 4 108 6 -4 46 -61 89 -127 62 -95 83 -120 101 -120 31 0 34 19
31 195 -3 133 -5 150 -21 153 -9 2 -19 -2 -22 -10z"/>
<path d="M5210 15131 c-11 -22 -13 -186 -3 -269 4 -33 12 -56 21 -59 23 -10
33 19 26 80 l-6 57 51 0 c59 0 127 24 141 51 15 27 12 82 -6 107 -25 37 -67
52 -143 52 -59 0 -72 -3 -81 -19z m168 -47 c14 -9 22 -26 22 -44 0 -23 -6 -30
-31 -39 -18 -6 -52 -11 -75 -11 l-44 0 0 48 c0 27 3 52 7 55 13 13 99 7 121
-9z"/>
<path d="M4425 15036 c-13 -13 -29 -42 -36 -64 -10 -35 -9 -48 5 -87 22 -55
48 -75 102 -75 76 0 121 60 111 147 -7 65 -49 103 -113 103 -34 0 -51 -6 -69
-24z m117 -43 c25 -23 24 -87 -2 -113 -57 -57 -135 23 -96 99 13 25 23 31 48
31 17 0 40 -7 50 -17z"/>
<path d="M4666 15045 c-3 -8 -3 -67 1 -130 4 -85 9 -115 19 -115 24 0 35 39
33 112 -2 75 10 98 52 98 27 0 32 -16 38 -114 5 -82 8 -91 26 -91 18 0 20 7
21 84 0 76 3 86 24 103 13 10 33 18 44 16 19 -3 21 -11 24 -83 3 -107 8 -125
33 -125 20 0 21 4 17 111 -3 102 -5 112 -27 130 -29 23 -73 24 -107 3 -23 -15
-26 -15 -43 0 -21 19 -72 21 -89 4 -9 -9 -15 -9 -24 0 -16 16 -35 15 -42 -3z"/>
<path d="M5497 15053 c-10 -10 -8 -226 2 -242 5 -8 16 -11 25 -8 13 5 16 22
16 85 0 88 11 108 65 114 22 2 30 8 30 23 0 23 -42 33 -74 16 -14 -8 -20 -7
-25 4 -6 15 -28 20 -39 8z"/>
<path d="M5950 14935 c0 -106 3 -127 16 -132 25 -9 34 16 34 99 0 68 3 79 22
92 31 22 65 20 78 -3 5 -11 10 -58 10 -105 0 -79 2 -86 20 -86 25 0 34 45 28
140 -3 56 -8 74 -28 95 -27 29 -74 33 -108 9 -20 -14 -23 -14 -28 0 -3 9 -15
16 -25 16 -18 0 -19 -9 -19 -125z"/>
<path d="M6241 15025 c-27 -31 -31 -44 -31 -90 0 -46 4 -59 31 -90 27 -30 37
-35 74 -35 56 0 98 34 114 93 11 36 10 49 -5 85 -19 50 -55 72 -112 72 -33 0
-45 -6 -71 -35z m115 -23 c21 -14 36 -54 29 -80 -14 -58 -68 -81 -107 -45 -23
21 -24 89 -1 115 16 18 59 24 79 10z"/>
<path d="M6494 15047 c-2 -7 -3 -65 -2 -128 3 -106 4 -114 23 -114 18 0 20 8
23 85 3 92 17 120 58 120 29 0 33 -16 36 -125 3 -72 5 -80 23 -80 18 0 20 8
23 85 2 72 6 88 23 103 25 20 54 22 66 5 4 -7 10 -53 13 -103 5 -82 7 -90 25
-90 19 0 20 7 20 102 0 94 -2 103 -24 127 -29 31 -78 35 -111 8 -23 -18 -24
-18 -42 0 -20 20 -59 24 -88 8 -13 -7 -21 -7 -25 0 -9 14 -35 12 -41 -3z"/>
<path d="M5713 15034 c-20 -10 -40 -33 -54 -62 -21 -42 -21 -48 -8 -85 19 -54
56 -79 123 -85 62 -5 110 16 100 43 -5 11 -18 13 -65 8 -45 -4 -64 -2 -84 11
-14 9 -25 21 -25 26 0 5 44 11 98 12 l97 3 -2 34 c-3 77 -107 132 -180 95z
m108 -53 c13 -11 21 -22 18 -26 -4 -3 -38 -5 -75 -3 l-69 3 23 23 c27 27 72
29 103 3z"/>
<path d="M3030 13845 c-549 -104 -890 -627 -760 -1165 45 -184 174 -387 324
-508 91 -73 249 -154 361 -184 114 -31 355 -31 466 0 346 95 596 345 691 691
31 111 31 352 0 466 -25 89 -84 220 -133 293 -130 191 -340 338 -559 392 -111
27 -290 34 -390 15z m300 -40 c114 -17 188 -42 287 -95 227 -122 386 -323 455
-575 31 -115 31 -335 0 -450 -45 -164 -137 -319 -253 -431 -80 -76 -137 -114
-241 -164 -137 -66 -220 -84 -388 -84 -118 0 -160 5 -225 22 -307 84 -552 317
-643 612 -132 428 70 890 473 1085 175 85 342 110 535 80z"/>
<path d="M3008 13311 c-13 -11 -30 -38 -38 -60 l-13 -41 -69 0 c-81 0 -120
-17 -148 -63 -18 -30 -20 -52 -20 -285 0 -278 3 -291 60 -326 25 -14 74 -16
410 -16 418 0 424 1 455 60 12 24 15 76 15 290 l0 260 -34 38 c-33 36 -36 37
-116 40 l-82 4 -15 37 c-8 20 -24 46 -36 59 -20 21 -27 22 -182 22 -145 0
-165 -2 -187 -19z m301 -264 c57 -38 91 -93 98 -159 7 -72 -9 -120 -60 -175
-116 -126 -327 -69 -367 99 -27 109 28 212 135 255 51 21 147 11 194 -20z"/>
<path d="M3114 12981 c-60 -37 -81 -127 -44 -189 55 -90 163 -95 234 -12 47
56 31 154 -33 199 -38 27 -114 28 -157 2z"/>
<path d="M7850 13845 c-549 -104 -890 -627 -760 -1165 45 -184 174 -387 324
-508 91 -73 249 -154 361 -184 114 -31 355 -31 466 0 346 95 596 345 691 691
31 111 31 352 0 466 -25 89 -84 220 -133 293 -130 191 -340 338 -559 392 -111
27 -290 34 -390 15z m300 -40 c114 -17 188 -42 287 -95 227 -122 386 -323 455
-575 31 -115 31 -335 0 -450 -45 -164 -137 -319 -253 -431 -80 -76 -137 -114
-241 -164 -137 -66 -220 -84 -388 -84 -118 0 -160 5 -225 22 -307 84 -552 317
-643 612 -132 428 70 890 473 1085 175 85 342 110 535 80z"/>
<path d="M7565 13245 l-25 -24 0 -324 c0 -313 1 -325 21 -351 l20 -26 428 0
428 0 21 23 c22 23 22 28 22 353 l0 331 -23 21 c-23 22 -26 22 -446 22 l-422
0 -24 -25z m850 -350 l0 -310 -405 0 -405 0 -3 300 c-1 165 0 306 3 313 3 10
89 12 407 10 l403 -3 0 -310z"/>
<path d="M7720 13138 c-37 -19 -60 -72 -49 -111 12 -44 43 -67 91 -67 54 0 88
34 88 89 0 72 -70 119 -130 89z"/>
<path d="M8023 12938 l-123 -122 -40 39 -40 39 -80 -79 c-78 -77 -80 -81 -80
-127 l0 -48 350 0 350 0 0 113 0 112 -98 98 c-53 53 -102 97 -107 97 -6 0 -65
-55 -132 -122z"/>
<path d="M2634 11850 c-11 -4 -33 -22 -47 -40 -32 -37 -37 -103 -12 -150 47
-90 205 -74 205 21 0 26 -27 24 -36 -3 -9 -30 -22 -38 -66 -38 -42 0 -73 26
-83 71 -7 32 16 83 44 99 31 16 76 12 96 -10 10 -11 24 -20 32 -20 23 0 14 27
-18 54 -31 27 -74 33 -115 16z"/>
<path d="M7474 11847 c-2 -7 -3 -65 -2 -127 3 -100 5 -115 21 -118 14 -3 17 5
17 53 0 35 4 54 10 50 18 -11 98 7 119 26 31 29 27 72 -10 103 -25 22 -41 26
-90 26 -40 0 -61 -4 -65 -13z m134 -39 c33 -33 -3 -68 -69 -68 -27 0 -29 2
-29 40 l0 40 43 0 c24 0 48 -5 55 -12z"/>
<path d="M7690 11840 c0 -15 5 -20 18 -18 9 2 17 10 17 18 0 8 -8 16 -17 18
-13 2 -18 -3 -18 -18z"/>
<path d="M7970 11818 c0 -12 -7 -30 -16 -40 -16 -16 -16 -18 0 -24 12 -5 16
-20 16 -64 0 -61 21 -95 56 -88 26 5 29 28 6 35 -16 4 -23 16 -28 50 -6 41 -4
48 17 65 23 17 23 19 7 32 -10 7 -18 23 -18 35 0 14 -6 21 -20 21 -14 0 -20
-7 -20 -22z"/>
<path d="M2862 11774 c-29 -20 -52 -66 -52 -103 0 -47 40 -72 109 -68 l56 4 0
76 c0 64 -3 78 -20 91 -26 20 -65 20 -93 0z m76 -67 c4 -49 -12 -69 -52 -65
-27 3 -31 7 -34 35 -4 39 28 76 61 71 18 -2 23 -11 25 -41z"/>
<path d="M3024 11775 c-3 -6 -4 -47 -2 -91 3 -66 6 -79 21 -82 15 -3 17 5 17
61 0 68 13 92 47 85 15 -3 19 -16 23 -73 4 -53 9 -70 20 -70 11 0 16 15 18 60
3 66 15 87 46 83 18 -3 22 -12 26 -73 4 -53 9 -70 20 -70 11 0 16 14 18 54 4
65 -2 94 -24 115 -18 18 -65 21 -81 5 -7 -7 -17 -8 -30 -1 -25 14 -114 12
-119 -3z"/>
<path d="M3361 11776 c-57 -32 -67 -102 -21 -148 28 -28 35 -30 82 -26 46 5
73 22 62 39 -2 4 -28 5 -57 2 -41 -4 -56 -2 -66 11 -12 14 -7 16 58 16 81 0
92 10 71 61 -13 31 -55 59 -87 59 -10 -1 -29 -7 -42 -14z m84 -46 c18 -20 17
-20 -41 -20 l-59 1 24 19 c30 25 53 25 76 0z"/>
<path d="M3537 11783 c-9 -8 -9 -96 -1 -145 11 -65 33 -47 36 30 3 67 3 67 38
78 19 6 36 16 38 22 5 16 -35 24 -58 12 -13 -7 -20 -7 -20 0 0 11 -23 14 -33
3z"/>
<path d="M3695 11768 c-77 -61 -57 -167 32 -168 17 0 35 5 39 11 5 8 9 7 14
-1 5 -8 16 -10 25 -6 16 6 17 15 11 78 -4 45 -13 79 -23 90 -22 24 -64 23 -98
-4z m79 -34 c10 -26 7 -69 -6 -82 -25 -25 -88 -9 -88 23 0 5 9 25 20 43 22 35
63 44 74 16z"/>
<path d="M7697 11784 c-4 -4 -7 -47 -7 -96 0 -80 2 -89 18 -86 15 3 17 15 17
92 0 83 -8 109 -28 90z"/>
<path d="M7796 11759 c-37 -43 -37 -109 0 -138 51 -40 134 -16 134 39 0 13 -7
20 -20 20 -13 0 -20 -7 -20 -20 0 -16 -7 -20 -35 -20 -28 0 -38 5 -46 24 -22
48 39 112 74 77 16 -16 37 -14 37 3 0 21 -39 46 -71 46 -18 0 -36 -10 -53 -31z"/>
<path d="M8070 11722 c0 -100 40 -144 101 -112 13 7 19 7 19 0 0 -5 7 -10 15
-10 12 0 15 17 15 95 0 78 -3 95 -15 95 -12 0 -15 -13 -15 -56 0 -67 -13 -94
-44 -94 -30 0 -49 42 -44 101 2 35 0 44 -14 47 -16 3 -18 -5 -18 -66z"/>
<path d="M8274 11777 c-3 -8 -4 -49 -2 -93 2 -62 6 -79 18 -79 11 0 16 15 18
60 4 67 14 85 48 85 15 0 24 6 24 15 0 21 -24 29 -49 16 -13 -7 -22 -8 -26 -1
-9 14 -25 12 -31 -3z"/>
<path d="M8450 11783 c-28 -11 -59 -46 -65 -74 -7 -32 16 -83 44 -99 28 -14
94 -12 116 3 27 20 10 37 -30 30 -39 -6 -85 3 -85 17 0 5 30 10 68 12 64 3 67
4 70 29 6 51 -68 102 -118 82z m61 -43 c33 -18 21 -30 -31 -30 -51 0 -64 11
-32 29 22 13 39 13 63 1z"/>
<path d="M1235 10258 c-90 -237 -95 -256 -78 -269 13 -11 17 -10 29 6 8 11 20
37 26 57 l11 38 62 0 61 0 21 -50 c16 -37 27 -50 42 -50 31 0 27 18 -43 185
-77 186 -89 194 -131 83z m84 -105 c1 -9 -13 -13 -38 -13 l-40 0 22 52 21 51
17 -39 c10 -21 18 -45 18 -51z"/>
<path d="M1957 10274 c-3 -20 -14 -42 -24 -50 -17 -13 -17 -15 0 -28 13 -10
17 -28 17 -74 0 -33 4 -72 10 -87 10 -27 64 -57 87 -48 24 9 14 38 -17 50 -29
11 -30 13 -30 82 0 52 4 71 13 71 19 0 36 20 30 36 -3 8 -14 14 -25 14 -16 0
-19 5 -15 21 8 29 -2 49 -23 49 -12 0 -19 -11 -23 -36z"/>
<path d="M1423 10224 c-7 -20 77 -234 95 -241 23 -9 48 27 91 132 32 79 38
102 28 112 -20 20 -37 0 -72 -86 -18 -46 -35 -79 -38 -74 -3 5 -17 40 -31 78
-35 92 -58 117 -73 79z"/>
<path d="M1728 10210 c-43 -36 -72 -101 -63 -146 11 -63 103 -107 155 -74 9 5
19 5 27 -2 7 -5 20 -7 29 -4 14 5 16 21 12 107 -4 96 -5 103 -31 125 -39 33
-84 31 -129 -6z m96 -36 c10 -10 16 -33 16 -64 0 -39 -4 -52 -22 -64 -31 -22
-71 -20 -93 4 -16 18 -17 25 -6 59 11 39 51 81 77 81 7 0 20 -7 28 -16z"/>
<path d="M2153 10220 c-66 -40 -94 -150 -53 -203 25 -32 82 -45 124 -29 22 9
32 9 37 0 4 -6 14 -8 23 -5 13 5 16 23 16 94 0 111 -6 130 -41 148 -38 20 -68
19 -106 -5z m86 -44 c7 -8 11 -37 9 -67 -3 -46 -7 -55 -30 -68 -39 -22 -82 -5
-86 34 -8 69 72 143 107 101z"/>
<path d="M2367 10233 c-10 -10 -8 -226 2 -242 5 -8 16 -11 25 -8 13 5 16 22
16 85 0 88 11 108 65 114 22 2 30 8 30 23 0 23 -42 33 -74 16 -14 -8 -20 -7
-25 4 -6 15 -28 20 -39 8z"/>
<path d="M1995 9130 c-304 -42 -532 -290 -552 -600 -7 -110 14 -206 68 -319
34 -69 57 -101 123 -166 128 -127 268 -185 446 -185 182 0 319 58 450 190 136
136 185 258 184 455 -1 103 -5 130 -27 193 -64 179 -180 305 -349 381 -106 48
-231 66 -343 51z m270 -118 c211 -77 366 -296 365 -516 -1 -90 -47 -241 -92
-300 -14 -18 -16 -15 -32 34 -24 72 -59 123 -105 148 -53 30 -93 28 -143 -8
-50 -36 -104 -52 -180 -52 -69 0 -119 15 -176 53 -24 16 -57 29 -73 29 -68 0
-134 -63 -170 -160 -12 -33 -23 -60 -24 -60 -9 0 -56 95 -73 145 -99 296 72
613 378 701 71 21 251 13 325 -14z"/>
<path d="M1992 8892 c-110 -40 -182 -141 -181 -257 0 -114 50 -194 151 -244
99 -50 193 -41 284 28 130 98 143 288 29 405 -75 75 -186 102 -283 68z"/>
<path d="M3675 9130 c-304 -42 -532 -290 -552 -600 -7 -110 14 -206 68 -319
34 -69 57 -101 123 -166 128 -127 268 -185 446 -185 182 0 319 58 450 190 136
136 185 258 184 455 -1 103 -5 130 -27 193 -64 179 -180 305 -349 381 -106 48
-231 66 -343 51z m270 -118 c211 -77 366 -296 365 -516 -1 -90 -47 -241 -92
-300 -14 -18 -16 -15 -32 34 -24 72 -59 123 -105 148 -53 30 -93 28 -143 -8
-50 -36 -104 -52 -180 -52 -69 0 -119 15 -176 53 -24 16 -57 29 -73 29 -68 0
-134 -63 -170 -160 -12 -33 -23 -60 -24 -60 -9 0 -56 95 -73 145 -99 296 72
613 378 701 71 21 251 13 325 -14z"/>
<path d="M3672 8892 c-110 -40 -182 -141 -181 -257 0 -114 50 -194 151 -244
99 -50 193 -41 284 28 130 98 143 288 29 405 -75 75 -186 102 -283 68z"/>
<path d="M5315 9130 c-304 -42 -532 -290 -552 -600 -7 -110 14 -206 68 -319
34 -69 57 -101 123 -166 128 -127 268 -185 446 -185 182 0 319 58 450 190 136
136 185 258 184 455 -1 103 -5 130 -27 193 -64 179 -180 305 -349 381 -106 48
-231 66 -343 51z m270 -118 c211 -77 366 -296 365 -516 -1 -90 -47 -241 -92
-300 -14 -18 -16 -15 -32 34 -24 72 -59 123 -105 148 -53 30 -93 28 -143 -8
-50 -36 -104 -52 -180 -52 -69 0 -119 15 -176 53 -24 16 -57 29 -73 29 -68 0
-134 -63 -170 -160 -12 -33 -23 -60 -24 -60 -9 0 -56 95 -73 145 -99 296 72
613 378 701 71 21 251 13 325 -14z"/>
<path d="M5312 8892 c-110 -40 -182 -141 -181 -257 0 -114 50 -194 151 -244
99 -50 193 -41 284 28 130 98 143 288 29 405 -75 75 -186 102 -283 68z"/>
<path d="M6915 9130 c-304 -42 -532 -290 -552 -600 -7 -110 14 -206 68 -319
34 -69 57 -101 123 -166 128 -127 268 -185 446 -185 182 0 319 58 450 190 136
136 185 258 184 455 -1 103 -5 130 -27 193 -64 179 -180 305 -349 381 -106 48
-231 66 -343 51z m270 -118 c211 -77 366 -296 365 -516 -1 -90 -47 -241 -92
-300 -14 -18 -16 -15 -32 34 -24 72 -59 123 -105 148 -53 30 -93 28 -143 -8
-50 -36 -104 -52 -180 -52 -69 0 -119 15 -176 53 -24 16 -57 29 -73 29 -68 0
-134 -63 -170 -160 -12 -33 -23 -60 -24 -60 -9 0 -56 95 -73 145 -99 296 72
613 378 701 71 21 251 13 325 -14z"/>
<path d="M6912 8892 c-110 -40 -182 -141 -181 -257 0 -114 50 -194 151 -244
99 -50 193 -41 284 28 130 98 143 288 29 405 -75 75 -186 102 -283 68z"/>
<path d="M8595 9130 c-304 -42 -532 -290 -552 -600 -7 -110 14 -206 68 -319
34 -69 57 -101 123 -166 128 -127 268 -185 446 -185 182 0 319 58 450 190 136
136 185 258 184 455 -1 103 -5 130 -27 193 -64 179 -180 305 -349 381 -106 48
-231 66 -343 51z m270 -118 c211 -77 366 -296 365 -516 -1 -90 -47 -241 -92
-300 -14 -18 -16 -15 -32 34 -24 72 -59 123 -105 148 -53 30 -93 28 -143 -8
-50 -36 -104 -52 -180 -52 -69 0 -119 15 -176 53 -24 16 -57 29 -73 29 -68 0
-134 -63 -170 -160 -12 -33 -23 -60 -24 -60 -9 0 -56 95 -73 145 -99 296 72
613 378 701 71 21 251 13 325 -14z"/>
<path d="M8592 8892 c-110 -40 -182 -141 -181 -257 0 -114 50 -194 151 -244
99 -50 193 -41 284 28 130 98 143 288 29 405 -75 75 -186 102 -283 68z"/>
<path d="M2015 7530 c-304 -42 -532 -290 -552 -600 -7 -110 14 -206 68 -319
34 -69 57 -101 123 -166 128 -127 268 -185 446 -185 182 0 319 58 450 190 136
136 185 258 184 455 -1 103 -5 130 -27 193 -64 179 -180 305 -349 381 -106 48
-231 66 -343 51z m270 -118 c211 -77 366 -296 365 -516 -1 -90 -47 -241 -92
-300 -14 -18 -16 -15 -32 34 -24 72 -59 123 -105 148 -53 30 -93 28 -143 -8
-50 -36 -104 -52 -180 -52 -69 0 -119 15 -176 53 -24 16 -57 29 -73 29 -68 0
-134 -63 -170 -160 -12 -33 -23 -60 -24 -60 -9 0 -56 95 -73 145 -99 296 72
613 378 701 71 21 251 13 325 -14z"/>
<path d="M2012 7292 c-110 -40 -182 -141 -181 -257 0 -114 50 -194 151 -244
99 -50 193 -41 284 28 130 98 143 288 29 405 -75 75 -186 102 -283 68z"/>
<path d="M3695 7530 c-304 -42 -532 -290 -552 -600 -7 -110 14 -206 68 -319
34 -69 57 -101 123 -166 128 -127 268 -185 446 -185 182 0 319 58 450 190 136
136 185 258 184 455 -1 103 -5 130 -27 193 -64 179 -180 305 -349 381 -106 48
-231 66 -343 51z m270 -118 c211 -77 366 -296 365 -516 -1 -90 -47 -241 -92
-300 -14 -18 -16 -15 -32 34 -24 72 -59 123 -105 148 -53 30 -93 28 -143 -8
-50 -36 -104 -52 -180 -52 -69 0 -119 15 -176 53 -24 16 -57 29 -73 29 -68 0
-134 -63 -170 -160 -12 -33 -23 -60 -24 -60 -9 0 -56 95 -73 145 -99 296 72
613 378 701 71 21 251 13 325 -14z"/>
<path d="M3692 7292 c-110 -40 -182 -141 -181 -257 0 -114 50 -194 151 -244
99 -50 193 -41 284 28 130 98 143 288 29 405 -75 75 -186 102 -283 68z"/>
<path d="M5335 7530 c-304 -42 -532 -290 -552 -600 -7 -110 14 -206 68 -319
34 -69 57 -101 123 -166 128 -127 268 -185 446 -185 182 0 319 58 450 190 136
136 185 258 184 455 -1 103 -5 130 -27 193 -64 179 -180 305 -349 381 -106 48
-231 66 -343 51z m270 -118 c211 -77 366 -296 365 -516 -1 -90 -47 -241 -92
-300 -14 -18 -16 -15 -32 34 -24 72 -59 123 -105 148 -53 30 -93 28 -143 -8
-50 -36 -104 -52 -180 -52 -69 0 -119 15 -176 53 -24 16 -57 29 -73 29 -68 0
-134 -63 -170 -160 -12 -33 -23 -60 -24 -60 -9 0 -56 95 -73 145 -99 296 72
613 378 701 71 21 251 13 325 -14z"/>
<path d="M5332 7292 c-110 -40 -182 -141 -181 -257 0 -114 50 -194 151 -244
99 -50 193 -41 284 28 130 98 143 288 29 405 -75 75 -186 102 -283 68z"/>
<path d="M6935 7530 c-304 -42 -532 -290 -552 -600 -7 -110 14 -206 68 -319
34 -69 57 -101 123 -166 128 -127 268 -185 446 -185 182 0 319 58 450 190 136
136 185 258 184 455 -1 103 -5 130 -27 193 -64 179 -180 305 -349 381 -106 48
-231 66 -343 51z m270 -118 c211 -77 366 -296 365 -516 -1 -90 -47 -241 -92
-300 -14 -18 -16 -15 -32 34 -24 72 -59 123 -105 148 -53 30 -93 28 -143 -8
-50 -36 -104 -52 -180 -52 -69 0 -119 15 -176 53 -24 16 -57 29 -73 29 -68 0
-134 -63 -170 -160 -12 -33 -23 -60 -24 -60 -9 0 -56 95 -73 145 -99 296 72
613 378 701 71 21 251 13 325 -14z"/>
<path d="M6932 7292 c-110 -40 -182 -141 -181 -257 0 -114 50 -194 151 -244
99 -50 193 -41 284 28 130 98 143 288 29 405 -75 75 -186 102 -283 68z"/>
<path d="M8615 7530 c-304 -42 -532 -290 -552 -600 -7 -110 14 -206 68 -319
34 -69 57 -101 123 -166 128 -127 268 -185 446 -185 182 0 319 58 450 190 136
136 185 258 184 455 -1 103 -5 130 -27 193 -64 179 -180 305 -349 381 -106 48
-231 66 -343 51z m270 -118 c211 -77 366 -296 365 -516 -1 -90 -47 -241 -92
-300 -14 -18 -16 -15 -32 34 -24 72 -59 123 -105 148 -53 30 -93 28 -143 -8
-50 -36 -104 -52 -180 -52 -69 0 -119 15 -176 53 -24 16 -57 29 -73 29 -68 0
-134 -63 -170 -160 -12 -33 -23 -60 -24 -60 -9 0 -56 95 -73 145 -99 296 72
613 378 701 71 21 251 13 325 -14z"/>
<path d="M8612 7292 c-110 -40 -182 -141 -181 -257 0 -114 50 -194 151 -244
99 -50 193 -41 284 28 130 98 143 288 29 405 -75 75 -186 102 -283 68z"/>
<path d="M2035 5930 c-304 -42 -532 -290 -552 -600 -7 -110 14 -206 68 -319
34 -69 57 -101 123 -166 128 -127 268 -185 446 -185 182 0 319 58 450 190 136
136 185 258 184 455 -1 103 -5 130 -27 193 -64 179 -180 305 -349 381 -106 48
-231 66 -343 51z m270 -118 c211 -77 366 -296 365 -516 -1 -90 -47 -241 -92
-300 -14 -18 -16 -15 -32 34 -24 72 -59 123 -105 148 -53 30 -93 28 -143 -8
-50 -36 -104 -52 -180 -52 -69 0 -119 15 -176 53 -24 16 -57 29 -73 29 -68 0
-134 -63 -170 -160 -12 -33 -23 -60 -24 -60 -9 0 -56 95 -73 145 -99 296 72
613 378 701 71 21 251 13 325 -14z"/>
<path d="M2032 5692 c-110 -40 -182 -141 -181 -257 0 -114 50 -194 151 -244
99 -50 193 -41 284 28 130 98 143 288 29 405 -75 75 -186 102 -283 68z"/>
<path d="M3715 5930 c-304 -42 -532 -290 -552 -600 -7 -110 14 -206 68 -319
34 -69 57 -101 123 -166 128 -127 268 -185 446 -185 182 0 319 58 450 190 136
136 185 258 184 455 -1 103 -5 130 -27 193 -64 179 -180 305 -349 381 -106 48
-231 66 -343 51z m270 -118 c211 -77 366 -296 365 -516 -1 -90 -47 -241 -92
-300 -14 -18 -16 -15 -32 34 -24 72 -59 123 -105 148 -53 30 -93 28 -143 -8
-50 -36 -104 -52 -180 -52 -69 0 -119 15 -176 53 -24 16 -57 29 -73 29 -68 0
-134 -63 -170 -160 -12 -33 -23 -60 -24 -60 -9 0 -56 95 -73 145 -99 296 72
613 378 701 71 21 251 13 325 -14z"/>
<path d="M3712 5692 c-110 -40 -182 -141 -181 -257 0 -114 50 -194 151 -244
99 -50 193 -41 284 28 130 98 143 288 29 405 -75 75 -186 102 -283 68z"/>
<path d="M5355 5930 c-304 -42 -532 -290 -552 -600 -7 -110 14 -206 68 -319
34 -69 57 -101 123 -166 128 -127 268 -185 446 -185 182 0 319 58 450 190 136
136 185 258 184 455 -1 103 -5 130 -27 193 -64 179 -180 305 -349 381 -106 48
-231 66 -343 51z m270 -118 c211 -77 366 -296 365 -516 -1 -90 -47 -241 -92
-300 -14 -18 -16 -15 -32 34 -24 72 -59 123 -105 148 -53 30 -93 28 -143 -8
-50 -36 -104 -52 -180 -52 -69 0 -119 15 -176 53 -24 16 -57 29 -73 29 -68 0
-134 -63 -170 -160 -12 -33 -23 -60 -24 -60 -9 0 -56 95 -73 145 -99 296 72
613 378 701 71 21 251 13 325 -14z"/>
<path d="M5352 5692 c-110 -40 -182 -141 -181 -257 0 -114 50 -194 151 -244
99 -50 193 -41 284 28 130 98 143 288 29 405 -75 75 -186 102 -283 68z"/>
<path d="M6955 5930 c-304 -42 -532 -290 -552 -600 -7 -110 14 -206 68 -319
34 -69 57 -101 123 -166 128 -127 268 -185 446 -185 182 0 319 58 450 190 136
136 185 258 184 455 -1 103 -5 130 -27 193 -64 179 -180 305 -349 381 -106 48
-231 66 -343 51z m270 -118 c211 -77 366 -296 365 -516 -1 -90 -47 -241 -92
-300 -14 -18 -16 -15 -32 34 -24 72 -59 123 -105 148 -53 30 -93 28 -143 -8
-50 -36 -104 -52 -180 -52 -69 0 -119 15 -176 53 -24 16 -57 29 -73 29 -68 0
-134 -63 -170 -160 -12 -33 -23 -60 -24 -60 -9 0 -56 95 -73 145 -99 296 72
613 378 701 71 21 251 13 325 -14z"/>
<path d="M6952 5692 c-110 -40 -182 -141 -181 -257 0 -114 50 -194 151 -244
99 -50 193 -41 284 28 130 98 143 288 29 405 -75 75 -186 102 -283 68z"/>
<path d="M8635 5930 c-304 -42 -532 -290 -552 -600 -7 -110 14 -206 68 -319
34 -69 57 -101 123 -166 128 -127 268 -185 446 -185 182 0 319 58 450 190 136
136 185 258 184 455 -1 103 -5 130 -27 193 -64 179 -180 305 -349 381 -106 48
-231 66 -343 51z m270 -118 c211 -77 366 -296 365 -516 -1 -90 -47 -241 -92
-300 -14 -18 -16 -15 -32 34 -24 72 -59 123 -105 148 -53 30 -93 28 -143 -8
-50 -36 -104 -52 -180 -52 -69 0 -119 15 -176 53 -24 16 -57 29 -73 29 -68 0
-134 -63 -170 -160 -12 -33 -23 -60 -24 -60 -9 0 -56 95 -73 145 -99 296 72
613 378 701 71 21 251 13 325 -14z"/>
<path d="M8632 5692 c-110 -40 -182 -141 -181 -257 0 -114 50 -194 151 -244
99 -50 193 -41 284 28 130 98 143 288 29 405 -75 75 -186 102 -283 68z"/>
<path d="M1173 3991 c-13 -6 -23 -14 -23 -18 0 -4 -1 -237 -3 -518 l-2 -510
490 -8 c610 -10 8073 -15 8088 -5 14 8 17 898 4 989 l-8 56 -182 6 c-316 12
-8340 19 -8364 8z m8503 -54 c6 -6 10 -938 4 -946 -10 -16 -8452 -19 -8476 -3
-8 5 -10 142 -6 479 l5 473 1111 2 c1341 4 7358 -1 7362 -5z"/>
<path d="M4554 3706 c-6 -15 46 -165 107 -312 49 -116 58 -109 146 114 39 101
69 190 66 198 -3 8 -15 14 -27 12 -17 -2 -31 -30 -77 -147 -35 -89 -59 -139
-64 -131 -4 7 -29 72 -56 144 -38 106 -51 132 -68 134 -12 2 -24 -3 -27 -12z"/>
<path d="M5196 3705 c-9 -25 -7 -358 3 -373 5 -8 17 -12 27 -10 18 3 19 15 19
198 0 191 0 195 -21 198 -13 2 -24 -4 -28 -13z"/>
<path d="M5324 3706 c-11 -29 0 -51 26 -51 21 0 25 5 25 30 0 24 -5 31 -23 33
-13 2 -24 -3 -28 -12z"/>
<path d="M5647 3713 c-4 -3 -7 -29 -7 -57 l0 -51 -58 3 c-47 3 -62 0 -86 -19
-77 -61 -72 -201 8 -250 35 -21 87 -25 118 -8 15 8 22 8 28 -1 4 -7 16 -10 26
-8 18 3 19 16 22 187 2 183 -2 211 -33 211 -6 0 -15 -3 -18 -7z m-29 -169 c19
-13 22 -24 22 -80 0 -65 0 -65 -35 -79 -63 -27 -105 7 -105 85 0 72 64 112
118 74z"/>
<path d="M4953 3601 c-74 -46 -112 -153 -78 -217 30 -56 124 -84 170 -50 17
12 21 12 32 -3 9 -12 16 -14 30 -5 21 13 25 69 12 178 -9 83 -28 106 -90 113
-33 3 -52 -1 -76 -16z m94 -49 c6 -4 15 -35 18 -68 7 -58 6 -62 -20 -82 -33
-26 -87 -29 -109 -6 -56 56 45 198 111 156z"/>
<path d="M5325 3598 c-3 -13 -4 -79 -3 -148 l3 -125 25 0 25 0 0 145 c0 142 0
145 -22 148 -16 2 -24 -3 -28 -20z"/>
<path d="M5875 3610 c-75 -17 -110 -63 -110 -147 0 -52 4 -66 25 -88 36 -39
73 -55 125 -55 66 0 117 23 113 52 -2 18 -8 22 -28 20 -120 -16 -128 -15 -157
15 l-28 28 115 5 c110 5 115 6 118 28 13 86 -81 163 -173 142z m74 -65 c16 -8
31 -21 34 -30 5 -13 -6 -15 -73 -15 -82 0 -93 6 -62 32 34 30 62 34 101 13z"/>
<path d="M6104 3594 c-9 -37 3 -255 15 -267 5 -5 17 -7 25 -4 13 5 16 24 16
101 0 87 2 96 22 110 12 9 34 16 49 16 15 0 32 7 39 15 30 36 -42 61 -87 30
-19 -13 -21 -13 -26 5 -8 30 -45 26 -53 -6z"/>
<path d="M2984 1997 c-65 -59 -52 -157 27 -199 43 -23 76 -23 116 2 76 46 89
136 29 196 -30 30 -40 34 -85 34 -44 0 -56 -5 -87 -33z"/>
<path d="M3552 2002 c-103 -96 2 -262 131 -208 67 27 96 111 62 176 -20 38
-63 60 -118 60 -35 0 -51 -6 -75 -28z"/>
<path d="M5087 2003 c-4 -3 -7 -190 -7 -415 0 -352 2 -408 15 -408 23 0 730
397 733 411 1 9 -132 89 -362 217 -201 111 -367 202 -369 202 -2 0 -7 -3 -10
-7z"/>
<path d="M9385 1946 c-6 -44 -11 -56 -32 -65 -21 -10 -30 -7 -63 19 -21 16
-44 30 -53 30 -13 0 -107 -92 -107 -105 0 -3 14 -23 31 -44 38 -48 33 -87 -12
-95 -16 -3 -43 -9 -59 -12 l-31 -6 3 -76 3 -77 50 -7 c79 -11 95 -49 45 -107
-34 -40 -32 -46 33 -110 l45 -43 45 31 c33 24 50 31 69 26 21 -6 26 -14 34
-63 l9 -57 70 -3 c79 -3 95 7 95 64 0 35 22 64 47 64 8 0 33 -14 54 -31 l39
-31 35 26 c32 25 75 76 75 91 0 3 -14 23 -30 44 -25 31 -29 42 -22 62 7 19 20
26 63 34 l54 10 3 77 3 76 -53 9 c-41 6 -55 14 -67 34 -14 25 -13 29 17 67 18
22 32 44 32 49 0 12 -93 103 -106 103 -5 0 -29 -14 -52 -31 -40 -29 -44 -30
-66 -16 -17 12 -25 29 -30 66 l-7 51 -79 0 -79 0 -6 -54z m152 -236 c64 -39
88 -111 57 -175 -23 -50 -66 -75 -128 -75 -43 0 -53 4 -87 39 -35 35 -39 44
-39 91 0 110 107 175 197 120z"/>
<path d="M6920 1600 l0 -360 480 0 480 0 0 30 0 30 -450 0 -450 0 0 330 0 330
-30 0 -30 0 0 -360z"/>
<path d="M1375 1774 c-110 -91 -204 -169 -209 -174 -8 -8 31 -70 45 -70 4 0
91 70 193 155 102 85 188 155 192 155 3 0 83 -64 178 -142 94 -79 179 -149
189 -157 17 -13 21 -12 42 15 14 16 24 32 25 36 0 3 -27 28 -60 55 l-60 48 0
111 c0 131 -4 137 -82 132 l-53 -3 -3 -57 c-2 -32 -5 -58 -8 -58 -3 0 -36 27
-75 60 -41 35 -79 60 -92 60 -15 0 -94 -59 -222 -166z"/>
<path d="M3275 1892 c-98 -47 -139 -152 -96 -247 54 -119 197 -150 294 -64 53
46 71 91 65 161 -12 122 -152 202 -263 150z"/>
<path d="M7640 1630 l0 -270 60 0 60 0 0 270 0 270 -60 0 -60 0 0 -270z"/>
<path d="M7280 1600 l0 -240 60 0 60 0 0 240 0 240 -60 0 -60 0 0 -240z"/>
<path d="M1442 1673 l-153 -126 3 -146 3 -146 118 -3 117 -3 0 106 0 105 65 0
65 0 0 -105 0 -105 115 0 c103 0 115 2 125 19 5 11 10 76 10 145 l0 126 -143
117 c-78 65 -149 123 -157 130 -13 9 -42 -11 -168 -114z"/>
<path d="M2905 1756 c-19 -28 -31 -130 -21 -170 15 -60 117 -74 193 -26 26 17
57 30 70 30 27 0 27 -1 7 40 -9 18 -19 52 -22 76 l-5 44 -36 -6 c-22 -4 -53 1
-81 11 -79 29 -87 29 -105 1z"/>
<path d="M3705 1759 c-29 -14 -53 -18 -87 -15 l-48 5 0 -37 c0 -20 -9 -56 -19
-78 l-19 -42 35 -5 c19 -3 51 -18 70 -33 30 -23 42 -26 89 -22 79 7 94 25 94
110 0 38 -7 84 -14 103 -17 41 -39 44 -101 14z"/>
<path d="M7460 1540 l0 -180 60 0 60 0 0 180 0 180 -60 0 -60 0 0 -180z"/>
<path d="M7100 1480 l0 -120 60 0 60 0 0 120 0 120 -60 0 -60 0 0 -120z"/>
<path d="M3080 1522 c-64 -63 -95 -235 -56 -310 29 -57 69 -64 348 -60 232 3
248 4 275 24 45 33 59 89 46 178 -18 128 -73 206 -144 206 -14 0 -53 -14 -87
-31 -44 -23 -73 -31 -112 -31 -39 0 -68 8 -112 31 -82 42 -111 41 -158 -7z"/>
<path d="M6330 20992 c-43 -21 -76 -82 -85 -157 -14 -108 45 -165 172 -165 84
0 129 21 160 76 27 47 28 76 4 129 -20 45 -63 85 -122 115 -47 25 -84 25 -129
2z m127 -80 c12 -9 29 -34 38 -54 15 -37 15 -38 -16 -72 -51 -58 -132 -61
-144 -6 -10 45 3 87 37 120 34 34 54 37 85 12z"/>
<path d="M4932 20903 c-18 -9 -40 -29 -48 -44 -19 -37 -18 -113 1 -133 38 -38
81 -40 479 -28 209 7 425 12 479 12 111 0 148 13 172 60 19 37 19 44 -1 86
-31 65 -21 64 -561 64 -430 0 -492 -2 -521 -17z m983 -84 c5 -6 4 -14 -3 -21
-14 -14 -321 -25 -729 -27 -202 -1 -213 0 -213 18 0 10 6 24 13 30 10 7 145
12 438 13 433 3 477 2 494 -13z"/>
</g>
</svg>
