<?xml version="1.0" standalone="no"?>
<!DOCTYPE svg PUBLIC "-//W3C//DTD SVG 20010904//EN"
 "http://www.w3.org/TR/2001/REC-SVG-20010904/DTD/svg10.dtd">
<svg version="1.0" xmlns="http://www.w3.org/2000/svg"
 width="1092.000000pt" height="2148.000000pt" viewBox="0 0 1092.000000 2148.000000"
 preserveAspectRatio="xMidYMid meet">

<g transform="translate(0.000000,2148.000000) scale(0.100000,-0.100000)"
fill="#000000" stroke="none">
<path d="M1133 21460 c-122 -10 -212 -39 -358 -113 -416 -212 -593 -435 -693
-877 l-26 -115 -3 -582 c-4 -476 -7 -583 -18 -583 -7 0 -16 -7 -19 -16 -3 -9
-6 -160 -6 -337 0 -304 1 -324 20 -355 19 -30 20 -50 20 -288 0 -241 -1 -257
-20 -281 -20 -25 -20 -41 -20 -633 0 -594 0 -607 20 -625 18 -16 20 -31 20
-150 0 -124 -1 -133 -20 -138 -20 -5 -20 -14 -20 -630 0 -621 0 -624 21 -651
l21 -27 -2 -3292 c-1 -1811 -1 -4941 1 -6957 l4 -3665 22 -115 c30 -161 66
-268 129 -390 168 -324 453 -519 871 -595 135 -25 524 -35 1568 -41 1168 -7
6631 14 6920 26 264 11 532 36 610 57 300 81 546 344 629 674 25 98 39 203 57
414 20 257 29 5091 18 10129 l-11 4940 26 19 26 19 0 599 0 600 -25 23 -25 23
0 1334 c0 812 -4 1378 -10 1448 -60 673 -458 1074 -1145 1151 -106 12 -8437
11 -8582 0z m8632 -95 c384 -67 710 -311 884 -661 50 -102 68 -155 86 -262 23
-138 30 -3162 29 -11697 -1 -5811 -4 -7569 -13 -7665 -36 -367 -147 -595 -383
-785 -204 -163 -294 -177 -1243 -192 -280 -4 -2170 -8 -4200 -8 -3543 0 -3694
1 -3795 18 -336 60 -599 221 -765 472 -86 128 -138 258 -181 445 -16 70 -17
405 -25 4990 -4 2703 -4 7030 0 9615 8 4692 8 4700 29 4790 119 522 463 856
977 949 121 22 8473 13 8600 -9z"/>
<path d="M1240 21071 c-8 -4 -49 -16 -90 -26 -214 -49 -405 -188 -532 -385
-95 -147 -132 -280 -147 -522 -6 -94 -10 -3784 -11 -9603 l-1 -9450 21 -40
c12 -22 31 -64 42 -94 35 -92 89 -173 163 -246 150 -148 276 -224 452 -273
l98 -27 4230 0 4230 0 90 28 c300 95 486 241 582 455 56 125 55 116 64 727 33
2475 42 10311 18 16395 -9 2505 -8 2438 -59 2591 -33 97 -66 146 -170 250 -83
84 -107 102 -190 142 -172 82 -172 82 -844 80 -523 -1 -591 -3 -601 -17 -7 -9
-15 -78 -18 -163 -7 -164 -20 -221 -69 -303 -27 -44 -44 -60 -92 -85 l-60 -30
-2800 -3 c-1860 -2 -2829 1 -2886 8 -106 12 -175 45 -234 111 -56 62 -73 116
-82 256 -8 117 -28 172 -77 207 -28 20 -42 21 -520 23 -271 2 -499 -1 -507 -6z
m8594 -112 c107 -22 153 -41 232 -100 108 -79 191 -211 237 -374 l22 -80 3
-8705 c2 -4788 0 -8813 -3 -8946 l-7 -240 -62 7 c-99 13 -4047 29 -6963 29
l-2703 0 0 6708 c0 4471 -4 7184 -12 8139 -6 788 -10 1434 -7 1435 2 2 744 0
1649 -4 2421 -10 8060 -14 8052 -6 -5 5 -44 12 -87 18 -116 14 -3790 30 -6944
30 l-2674 0 7 558 c12 913 16 963 95 1127 92 193 256 337 451 396 73 22 89 23
562 27 476 3 487 3 507 -17 26 -26 37 -72 49 -199 11 -114 43 -197 109 -284
81 -105 113 -109 978 -109 2141 1 4918 13 4980 22 96 13 201 65 257 128 81 90
118 198 118 347 0 53 4 77 16 88 8 9 16 17 17 18 3 4 961 13 992 9 17 -1 74
-12 129 -22z m-7844 -18449 c740 -4 2691 -8 4335 -9 1645 0 3216 -4 3493 -8
l503 -6 -3 -676 c-4 -665 -4 -677 -26 -756 -39 -139 -96 -239 -187 -331 -129
-129 -274 -202 -449 -224 -116 -14 -8286 -14 -8393 1 -328 45 -589 291 -657
622 -14 65 -16 174 -16 743 l0 666 28 -7 c15 -4 632 -11 1372 -15z"/>
<path d="M8980 20610 c0 -113 1 -120 20 -120 19 0 20 7 20 120 0 113 -1 120
-20 120 -19 0 -20 -7 -20 -120z"/>
<path d="M9214 20699 c-41 -12 -72 -45 -56 -61 9 -9 17 -7 32 7 32 29 121 32
164 7 28 -17 37 -18 45 -8 14 16 0 29 -52 51 -40 16 -85 18 -133 4z"/>
<path d="M9544 20677 c-3 -8 -4 -43 -2 -78 l3 -64 130 0 130 0 9 38 c6 23 6
51 0 75 l-9 37 -128 3 c-101 2 -128 0 -133 -11z m246 -27 c0 -11 5 -20 10 -20
6 0 10 -9 10 -20 0 -11 -4 -20 -10 -20 -5 0 -10 -9 -10 -20 0 -19 -7 -20 -115
-20 l-115 0 0 60 0 60 115 0 c108 0 115 -1 115 -20z"/>
<path d="M9570 20610 l0 -50 80 0 80 0 0 50 0 50 -80 0 -80 0 0 -50z"/>
<path d="M1071 20647 c-28 -34 -26 -111 5 -141 41 -42 94 -3 94 69 0 53 -23
85 -59 85 -16 0 -34 -6 -40 -13z m70 -34 c21 -55 -14 -114 -48 -81 -15 16 -21
78 -8 97 12 21 45 12 56 -16z"/>
<path d="M1207 20642 c-37 -41 -7 -99 46 -88 29 6 29 5 23 -29 -6 -28 -4 -35
9 -35 23 0 22 155 -1 164 -29 11 -61 6 -77 -12z m61 -34 c-3 -24 -34 -36 -49
-21 -16 16 2 43 28 43 20 0 24 -4 21 -22z"/>
<path d="M1388 20618 c-6 -50 2 -64 30 -49 25 13 58 -8 49 -33 -10 -26 -38
-32 -53 -11 -17 23 -33 11 -18 -13 13 -21 60 -28 80 -11 19 15 18 64 -2 83 -8
9 -27 16 -40 16 -19 0 -25 5 -22 18 2 12 14 18 41 20 54 5 45 22 -12 22 l-49
0 -4 -42z"/>
<path d="M1540 20640 c-22 -22 -25 -36 -11 -45 6 -3 15 4 21 15 12 22 50 28
50 8 0 -7 -19 -31 -41 -54 -55 -56 -49 -74 25 -74 30 0 58 5 61 10 4 6 -13 10
-44 10 -28 0 -51 3 -51 7 0 3 18 23 40 43 43 40 49 60 24 84 -21 22 -50 20
-74 -4z"/>
<path d="M1747 20593 c-14 -37 -28 -76 -32 -85 -5 -13 -2 -18 9 -18 8 0 18 11
22 25 5 20 12 25 39 25 27 0 34 -5 39 -25 6 -22 37 -38 35 -17 -2 21 -66 156
-75 159 -6 2 -23 -27 -37 -64z m53 -20 c0 -7 -7 -13 -15 -13 -16 0 -19 9 -9
35 5 13 8 14 15 3 5 -7 9 -19 9 -25z"/>
<path d="M1880 20574 c0 -64 3 -85 13 -82 7 3 14 28 17 59 l5 54 21 -28 c28
-34 34 -34 62 6 l22 32 0 -63 c0 -35 4 -62 10 -62 6 0 10 35 10 85 0 47 -4 85
-9 85 -5 0 -21 -16 -36 -37 l-28 -36 -34 36 c-18 21 -38 37 -43 37 -6 0 -10
-36 -10 -86z"/>
<path d="M9220 20642 c-36 -18 -40 -40 -5 -34 11 2 38 4 60 4 22 0 51 -2 64
-4 37 -5 36 18 -3 36 -44 21 -72 20 -116 -2z"/>
<path d="M8920 20570 c0 -73 2 -80 20 -80 18 0 20 7 20 80 0 73 -2 80 -20 80
-18 0 -20 -7 -20 -80z"/>
<path d="M1330 20600 c0 -5 7 -10 15 -10 8 0 15 5 15 10 0 6 -7 10 -15 10 -8
0 -15 -4 -15 -10z"/>
<path d="M9242 20600 c-13 -6 -22 -15 -20 -22 5 -14 97 -18 105 -5 14 22 -48
42 -85 27z"/>
<path d="M8860 20540 c0 -43 3 -50 20 -50 17 0 20 7 20 50 0 43 -3 50 -20 50
-17 0 -20 -7 -20 -50z"/>
<path d="M8800 20520 c0 -23 4 -30 20 -30 16 0 20 7 20 30 0 23 -4 30 -20 30
-16 0 -20 -7 -20 -30z"/>
<path d="M9250 20546 c0 -2 6 -9 14 -15 10 -9 16 -8 26 4 11 13 8 15 -14 15
-14 0 -26 -2 -26 -4z"/>
<path d="M8740 20510 c0 -13 7 -20 20 -20 13 0 20 7 20 20 0 13 -7 20 -20 20
-13 0 -20 -7 -20 -20z"/>
<path d="M1330 20500 c0 -5 7 -10 15 -10 8 0 15 5 15 10 0 6 -7 10 -15 10 -8
0 -15 -4 -15 -10z"/>
<path d="M1285 20090 c-37 -16 -383 -373 -391 -403 -6 -27 6 -42 192 -228 154
-153 205 -199 225 -199 33 0 109 77 109 111 0 17 -24 48 -85 109 -47 47 -85
88 -85 92 0 5 90 8 199 8 237 0 231 -3 231 99 0 103 4 101 -235 101 l-199 0
87 89 c106 108 110 127 42 190 -46 42 -56 46 -90 31z"/>
<path d="M3022 20018 c-9 -9 -12 -70 -12 -215 0 -112 -3 -203 -7 -203 -5 0
-34 42 -66 94 -32 52 -96 146 -144 210 -75 101 -89 116 -115 116 -47 0 -51
-25 -44 -299 6 -248 10 -271 46 -271 40 0 43 21 36 226 -5 138 -4 194 3 189
13 -8 71 -92 169 -245 41 -63 85 -127 100 -142 31 -33 76 -38 92 -9 6 12 10
119 10 278 0 266 -2 283 -40 283 -9 0 -21 -5 -28 -12z"/>
<path d="M6080 20015 c-26 -32 13 -81 48 -59 34 22 22 74 -18 74 -10 0 -23 -7
-30 -15z"/>
<path d="M3267 19838 c-72 -73 -88 -182 -41 -276 35 -71 82 -102 152 -102 64
0 99 17 145 70 87 102 67 264 -39 326 -32 19 -55 24 -108 24 -65 0 -67 -1
-109 -42z m182 -54 c26 -19 51 -71 51 -109 0 -34 -35 -102 -59 -115 -11 -5
-37 -10 -58 -10 -95 0 -140 147 -68 224 19 20 33 26 67 26 24 0 54 -7 67 -16z"/>
<path d="M3684 19866 c-17 -13 -19 -27 -19 -143 0 -124 1 -130 30 -182 49 -88
111 -111 190 -71 22 11 40 20 41 20 1 0 4 -9 7 -20 7 -27 53 -27 67 -1 6 12
10 94 10 198 0 199 -6 221 -53 209 l-27 -6 0 -129 c0 -116 -2 -131 -22 -161
-43 -64 -110 -62 -145 2 -15 27 -18 57 -18 156 0 98 -3 125 -15 132 -20 13
-23 12 -46 -4z"/>
<path d="M4078 19869 c-10 -5 -18 -18 -18 -27 0 -22 113 -313 137 -355 39 -67
87 -36 138 89 15 38 44 105 63 149 45 106 50 130 24 144 -11 6 -27 8 -35 5
-16 -6 -54 -80 -92 -179 -47 -124 -46 -121 -55 -105 -4 8 -29 71 -55 140 -42
110 -65 151 -84 150 -3 0 -14 -5 -23 -11z"/>
<path d="M5095 19864 c-48 -24 -104 -85 -132 -142 -32 -67 -30 -150 7 -201 46
-66 161 -91 228 -51 39 24 42 24 42 5 0 -20 46 -30 65 -15 18 15 20 129 5 259
-7 65 -15 90 -32 109 -46 50 -126 66 -183 36z m130 -117 c4 -18 5 -63 3 -102
l-3 -70 -45 -22 c-61 -31 -95 -30 -131 6 -38 38 -38 80 0 147 42 73 88 99 143
81 20 -6 29 -17 33 -40z"/>
<path d="M5424 19855 c-13 -19 -15 -46 -12 -142 3 -102 6 -125 28 -168 44 -88
116 -116 192 -75 37 20 37 20 48 0 6 -11 19 -20 29 -20 40 0 46 25 49 204 3
184 -4 218 -45 224 -36 5 -44 -26 -37 -140 8 -129 -5 -170 -63 -195 -33 -13
-41 -13 -63 -1 -48 26 -61 71 -58 194 2 82 -1 116 -11 128 -19 23 -38 20 -57
-9z"/>
<path d="M6091 19867 c-7 -9 -10 -85 -8 -231 2 -238 5 -224 -58 -262 -14 -7
-16 -17 -11 -37 5 -21 12 -27 34 -27 43 0 88 34 103 77 19 51 17 456 -1 478
-15 19 -44 19 -59 2z"/>
<path d="M6343 19858 c-111 -80 -118 -273 -13 -362 39 -32 67 -40 131 -34 170
17 234 277 94 384 -32 24 -49 29 -109 32 -61 3 -75 0 -103 -20z m173 -92 c29
-29 34 -41 34 -80 0 -84 -43 -136 -113 -136 -97 0 -138 146 -64 228 15 16 32
22 65 22 37 0 50 -6 78 -34z"/>
<path d="M6741 19871 c-32 -21 -39 -193 -11 -283 36 -116 119 -165 206 -120
40 20 40 20 52 1 14 -22 45 -25 61 -5 8 9 11 73 9 206 -3 171 -5 194 -20 204
-13 8 -23 8 -35 0 -15 -9 -19 -32 -23 -145 -3 -79 -10 -143 -17 -156 -15 -25
-74 -47 -103 -38 -11 4 -30 25 -43 48 -19 37 -22 55 -20 157 2 132 -10 160
-56 131z"/>
<path d="M7661 19871 c-32 -21 -39 -193 -11 -283 36 -116 119 -165 206 -120
40 20 40 20 52 1 14 -22 45 -25 61 -5 8 9 11 73 9 206 -3 171 -5 194 -20 204
-13 8 -23 8 -35 0 -15 -9 -19 -32 -23 -145 -3 -79 -10 -143 -17 -156 -15 -25
-74 -47 -103 -38 -11 4 -30 25 -43 48 -19 37 -22 55 -20 157 2 132 -10 160
-56 131z"/>
<path d="M8101 19867 c-8 -10 -11 -70 -9 -207 3 -171 5 -194 21 -204 12 -8 22
-8 35 0 15 10 17 30 20 146 2 126 4 136 25 156 14 13 43 24 73 28 44 6 74 24
74 45 0 4 -7 15 -16 23 -21 21 -82 20 -119 -2 -29 -18 -30 -18 -40 2 -13 25
-47 32 -64 13z"/>
<path d="M4595 19851 c-49 -22 -99 -77 -115 -126 -19 -59 -8 -139 26 -187 46
-66 84 -83 184 -83 121 0 187 35 160 86 -13 23 -35 24 -83 4 -45 -19 -98 -19
-141 -1 -31 13 -66 49 -66 68 0 5 67 8 149 8 189 0 202 8 166 111 -41 114
-171 170 -280 120z m141 -77 c19 -9 42 -30 50 -45 l15 -29 -121 0 c-112 0
-120 1 -111 18 11 21 51 58 71 65 28 10 62 7 96 -9z"/>
<path d="M7275 19851 c-49 -22 -99 -77 -115 -126 -19 -59 -8 -139 26 -187 46
-66 84 -83 184 -83 121 0 187 35 160 86 -13 23 -35 24 -83 4 -45 -19 -98 -19
-141 -1 -31 13 -66 49 -66 68 0 5 67 8 149 8 189 0 202 8 166 111 -41 114
-171 170 -280 120z m141 -77 c19 -9 42 -30 50 -45 l15 -29 -121 0 c-112 0
-120 1 -111 18 11 21 51 58 71 65 28 10 62 7 96 -9z"/>
<path d="M5250 18045 c-243 -41 -501 -171 -677 -342 -354 -344 -481 -862 -324
-1325 149 -442 530 -771 986 -853 119 -22 333 -22 450 0 401 72 743 330 921
695 84 172 123 325 132 514 28 633 -432 1201 -1063 1310 -107 19 -318 19 -425
1z m325 -360 c107 -23 189 -68 271 -150 219 -219 219 -552 0 -771 -219 -219
-552 -219 -771 0 -219 219 -219 552 0 771 137 137 311 190 500 150z m-563
-1050 c69 -64 211 -137 303 -156 33 -6 98 -12 145 -12 47 0 112 6 145 12 92
19 234 92 302 155 59 54 59 55 102 45 164 -37 274 -185 331 -446 l18 -82 -52
-63 c-149 -179 -353 -310 -579 -369 -173 -46 -439 -36 -611 23 -190 64 -393
206 -507 354 -40 52 -41 56 -35 104 10 73 60 219 98 287 57 101 141 170 235
192 21 5 40 9 42 10 2 1 30 -24 63 -54z"/>
<path d="M1435 14818 c-3 -7 -6 -67 -7 -133 l-3 -120 -30 49 c-58 97 -144 206
-164 206 -26 0 -31 -19 -31 -113 0 -130 11 -218 28 -224 26 -10 31 20 25 136
-4 77 -3 112 4 108 6 -4 46 -61 89 -127 62 -95 83 -120 101 -120 31 0 34 19
31 195 -3 133 -5 150 -21 153 -9 2 -19 -2 -22 -10z"/>
<path d="M1585 14716 c-13 -13 -29 -42 -36 -64 -10 -35 -9 -48 5 -87 22 -55
48 -75 102 -75 76 0 121 60 111 147 -7 65 -49 103 -113 103 -34 0 -51 -6 -69
-24z m117 -43 c25 -23 24 -87 -2 -113 -57 -57 -135 23 -96 99 13 25 23 31 48
31 17 0 40 -7 50 -17z"/>
<path d="M1826 14725 c-3 -8 -3 -67 1 -130 4 -85 9 -115 19 -115 24 0 35 39
33 112 -2 75 10 98 52 98 27 0 32 -16 38 -114 5 -82 8 -91 26 -91 18 0 20 7
21 84 0 76 3 86 24 103 13 10 33 18 44 16 19 -3 21 -11 24 -83 3 -107 8 -125
33 -125 20 0 21 4 17 111 -3 102 -5 112 -27 130 -29 23 -73 24 -107 3 -23 -15
-26 -15 -43 0 -21 19 -72 21 -89 4 -9 -9 -15 -9 -24 0 -16 16 -35 15 -42 -3z"/>
<path d="M1193 14191 c-13 -6 -23 -14 -23 -18 0 -4 -1 -237 -3 -518 l-2 -510
490 -8 c610 -10 8073 -15 8088 -5 14 8 17 898 4 989 l-8 56 -182 6 c-316 12
-8340 19 -8364 8z m8503 -54 c6 -6 10 -938 4 -946 -10 -16 -8452 -19 -8476 -3
-8 5 -10 142 -6 479 l5 473 1111 2 c1341 4 7358 -1 7362 -5z"/>
<path d="M1756 12541 c-26 -27 -34 -55 -17 -65 14 -9 71 43 71 64 0 30 -26 30
-54 1z"/>
<path d="M1210 12531 c-11 -22 -13 -186 -3 -269 4 -33 12 -56 21 -59 23 -10
33 19 26 80 l-6 57 51 0 c59 0 127 24 141 51 15 27 12 82 -6 107 -25 37 -67
52 -143 52 -59 0 -72 -3 -81 -19z m168 -47 c14 -9 22 -26 22 -44 0 -23 -6 -30
-31 -39 -18 -6 -52 -11 -75 -11 l-44 0 0 48 c0 27 3 52 7 55 13 13 99 7 121
-9z"/>
<path d="M1497 12453 c-10 -10 -8 -226 2 -242 5 -8 16 -11 25 -8 13 5 16 22
16 85 0 88 11 108 65 114 22 2 30 8 30 23 0 23 -42 33 -74 16 -14 -8 -20 -7
-25 4 -6 15 -28 20 -39 8z"/>
<path d="M1950 12335 c0 -106 3 -127 16 -132 25 -9 34 16 34 99 0 68 3 79 22
92 31 22 65 20 78 -3 5 -11 10 -58 10 -105 0 -79 2 -86 20 -86 25 0 34 45 28
140 -3 56 -8 74 -28 95 -27 29 -74 33 -108 9 -20 -14 -23 -14 -28 0 -3 9 -15
16 -25 16 -18 0 -19 -9 -19 -125z"/>
<path d="M2241 12425 c-27 -31 -31 -44 -31 -90 0 -46 4 -59 31 -90 27 -30 37
-35 74 -35 56 0 98 34 114 93 11 36 10 49 -5 85 -19 50 -55 72 -112 72 -33 0
-45 -6 -71 -35z m115 -23 c21 -14 36 -54 29 -80 -14 -58 -68 -81 -107 -45 -23
21 -24 89 -1 115 16 18 59 24 79 10z"/>
<path d="M2494 12447 c-2 -7 -3 -65 -2 -128 3 -106 4 -114 23 -114 18 0 20 8
23 85 3 92 17 120 58 120 29 0 33 -16 36 -125 3 -72 5 -80 23 -80 18 0 20 8
23 85 2 72 6 88 23 103 25 20 54 22 66 5 4 -7 10 -53 13 -103 5 -82 7 -90 25
-90 19 0 20 7 20 102 0 94 -2 103 -24 127 -29 31 -78 35 -111 8 -23 -18 -24
-18 -42 0 -20 20 -59 24 -88 8 -13 -7 -21 -7 -25 0 -9 14 -35 12 -41 -3z"/>
<path d="M1713 12434 c-20 -10 -40 -33 -54 -62 -21 -42 -21 -48 -8 -85 19 -54
56 -79 123 -85 62 -5 110 16 100 43 -5 11 -18 13 -65 8 -45 -4 -64 -2 -84 11
-14 9 -25 21 -25 26 0 5 44 11 98 12 l97 3 -2 34 c-3 77 -107 132 -180 95z
m108 -53 c13 -11 21 -22 18 -26 -4 -3 -38 -5 -75 -3 l-69 3 23 23 c27 27 72
29 103 3z"/>
<path d="M1193 11911 c-13 -6 -23 -14 -23 -18 0 -4 -1 -237 -3 -518 l-2 -510
490 -8 c610 -10 8073 -15 8088 -5 14 8 17 898 4 989 l-8 56 -182 6 c-316 12
-8340 19 -8364 8z m8503 -54 c6 -6 10 -938 4 -946 -10 -16 -8452 -19 -8476 -3
-8 5 -10 142 -6 479 l5 473 1111 2 c1341 4 7358 -1 7362 -5z"/>
<path d="M1245 10155 c-41 -22 -55 -43 -55 -83 0 -44 28 -68 116 -102 77 -29
94 -55 52 -84 -46 -33 -123 -11 -130 37 -5 33 -42 30 -46 -4 -4 -37 40 -87 84
-95 82 -15 164 32 164 96 0 41 -31 68 -119 103 -60 24 -71 32 -71 52 0 62 117
60 141 -1 6 -16 15 -24 27 -22 28 5 26 43 -6 78 -23 27 -37 33 -78 37 -33 3
-59 -1 -79 -12z"/>
<path d="M1492 10071 c-17 -10 -18 -150 -2 -181 33 -65 75 -84 123 -59 16 9
22 9 25 0 6 -18 30 -13 42 8 11 21 14 199 4 225 -3 9 -15 16 -25 16 -17 0 -19
-8 -19 -75 0 -85 -13 -123 -47 -131 -48 -12 -76 47 -66 140 4 41 2 54 -9 59
-8 3 -20 2 -26 -2z"/>
<path d="M1754 10067 c-2 -7 -3 -65 -2 -128 3 -106 4 -114 23 -114 18 0 20 8
23 85 2 47 7 89 12 94 5 5 26 12 47 15 29 5 38 11 38 26 0 23 -42 32 -74 16
-14 -8 -20 -7 -25 4 -7 19 -35 20 -42 2z"/>
<path d="M1927 10073 c-10 -10 -8 -226 2 -242 5 -8 16 -11 25 -8 13 5 16 22
16 86 0 74 2 81 26 100 62 49 89 19 89 -98 0 -79 2 -86 20 -86 17 0 21 10 28
60 11 80 1 142 -28 171 -28 28 -74 31 -109 9 -21 -14 -24 -14 -29 0 -7 15 -28
20 -40 8z"/>
<path d="M2225 10056 c-13 -13 -29 -42 -36 -64 -10 -35 -9 -48 5 -87 22 -55
48 -75 102 -75 76 0 121 60 111 147 -7 65 -49 103 -113 103 -34 0 -51 -6 -69
-24z m117 -43 c25 -23 24 -87 -2 -113 -57 -57 -135 23 -96 99 13 25 23 31 48
31 17 0 40 -7 50 -17z"/>
<path d="M2470 9955 c0 -106 3 -127 16 -132 25 -9 34 16 34 99 0 81 13 108 50
108 29 0 35 -17 40 -115 5 -82 7 -90 25 -90 18 0 20 8 23 85 2 72 6 88 23 103
24 19 54 22 64 6 4 -6 7 -42 6 -79 -1 -76 11 -120 33 -120 20 0 22 15 16 123
-4 88 -8 101 -29 118 -30 24 -72 24 -103 -1 -25 -19 -26 -19 -43 0 -21 23 -74
27 -94 8 -11 -10 -14 -10 -18 0 -3 6 -13 12 -24 12 -18 0 -19 -8 -19 -125z"/>
<path d="M1193 9531 c-13 -6 -23 -14 -23 -18 0 -4 -1 -237 -3 -518 l-2 -510
490 -8 c610 -10 8073 -15 8088 -5 14 8 17 898 4 989 l-8 56 -182 6 c-316 12
-8340 19 -8364 8z m8503 -54 c6 -6 10 -938 4 -946 -10 -16 -8452 -19 -8476 -3
-8 5 -10 142 -6 479 l5 473 1111 2 c1341 4 7358 -1 7362 -5z"/>
<path d="M1193 4431 c-13 -6 -23 -14 -23 -18 0 -4 -1 -237 -3 -518 l-2 -510
490 -8 c610 -10 8073 -15 8088 -5 14 8 17 898 4 989 l-8 56 -182 6 c-316 12
-8340 19 -8364 8z m8503 -54 c6 -6 10 -938 4 -946 -10 -16 -8452 -19 -8476 -3
-8 5 -10 142 -6 479 l5 473 1111 2 c1341 4 7358 -1 7362 -5z"/>
<path d="M4574 4146 c-6 -15 46 -165 107 -312 49 -116 58 -109 146 114 39 101
69 190 66 198 -3 8 -15 14 -27 12 -17 -2 -31 -30 -77 -147 -35 -89 -59 -139
-64 -131 -4 7 -29 72 -56 144 -38 106 -51 132 -68 134 -12 2 -24 -3 -27 -12z"/>
<path d="M5216 4145 c-9 -25 -7 -358 3 -373 5 -8 17 -12 27 -10 18 3 19 15 19
198 0 191 0 195 -21 198 -13 2 -24 -4 -28 -13z"/>
<path d="M5344 4146 c-11 -29 0 -51 26 -51 21 0 25 5 25 30 0 24 -5 31 -23 33
-13 2 -24 -3 -28 -12z"/>
<path d="M5667 4153 c-4 -3 -7 -29 -7 -57 l0 -51 -58 3 c-47 3 -62 0 -86 -19
-77 -61 -72 -201 8 -250 35 -21 87 -25 118 -8 15 8 22 8 28 -1 4 -7 16 -10 26
-8 18 3 19 16 22 187 2 183 -2 211 -33 211 -6 0 -15 -3 -18 -7z m-29 -169 c19
-13 22 -24 22 -80 0 -65 0 -65 -35 -79 -63 -27 -105 7 -105 85 0 72 64 112
118 74z"/>
<path d="M4973 4041 c-74 -46 -112 -153 -78 -217 30 -56 124 -84 170 -50 17
12 21 12 32 -3 9 -12 16 -14 30 -5 21 13 25 69 12 178 -9 83 -28 106 -90 113
-33 3 -52 -1 -76 -16z m94 -49 c6 -4 15 -35 18 -68 7 -58 6 -62 -20 -82 -33
-26 -87 -29 -109 -6 -56 56 45 198 111 156z"/>
<path d="M5345 4038 c-3 -13 -4 -79 -3 -148 l3 -125 25 0 25 0 0 145 c0 142 0
145 -22 148 -16 2 -24 -3 -28 -20z"/>
<path d="M5895 4050 c-75 -17 -110 -63 -110 -147 0 -52 4 -66 25 -88 36 -39
73 -55 125 -55 66 0 117 23 113 52 -2 18 -8 22 -28 20 -120 -16 -128 -15 -157
15 l-28 28 115 5 c110 5 115 6 118 28 13 86 -81 163 -173 142z m74 -65 c16 -8
31 -21 34 -30 5 -13 -6 -15 -73 -15 -82 0 -93 6 -62 32 34 30 62 34 101 13z"/>
<path d="M6124 4034 c-9 -37 3 -255 15 -267 5 -5 17 -7 25 -4 13 5 16 24 16
101 0 87 2 96 22 110 12 9 34 16 49 16 15 0 32 7 39 15 30 36 -42 61 -87 30
-19 -13 -21 -13 -26 5 -8 30 -45 26 -53 -6z"/>
<path d="M2984 1997 c-65 -59 -52 -157 27 -199 43 -23 76 -23 116 2 76 46 89
136 29 196 -30 30 -40 34 -85 34 -44 0 -56 -5 -87 -33z"/>
<path d="M3552 2002 c-103 -96 2 -262 131 -208 67 27 96 111 62 176 -20 38
-63 60 -118 60 -35 0 -51 -6 -75 -28z"/>
<path d="M5087 2003 c-4 -3 -7 -190 -7 -415 0 -352 2 -408 15 -408 23 0 730
397 733 411 1 9 -132 89 -362 217 -201 111 -367 202 -369 202 -2 0 -7 -3 -10
-7z"/>
<path d="M9385 1946 c-6 -44 -11 -56 -32 -65 -21 -10 -30 -7 -63 19 -21 16
-44 30 -53 30 -13 0 -107 -92 -107 -105 0 -3 14 -23 31 -44 38 -48 33 -87 -12
-95 -16 -3 -43 -9 -59 -12 l-31 -6 3 -76 3 -77 50 -7 c79 -11 95 -49 45 -107
-34 -40 -32 -46 33 -110 l45 -43 45 31 c33 24 50 31 69 26 21 -6 26 -14 34
-63 l9 -57 70 -3 c79 -3 95 7 95 64 0 35 22 64 47 64 8 0 33 -14 54 -31 l39
-31 35 26 c32 25 75 76 75 91 0 3 -14 23 -30 44 -25 31 -29 42 -22 62 7 19 20
26 63 34 l54 10 3 77 3 76 -53 9 c-41 6 -55 14 -67 34 -14 25 -13 29 17 67 18
22 32 44 32 49 0 12 -93 103 -106 103 -5 0 -29 -14 -52 -31 -40 -29 -44 -30
-66 -16 -17 12 -25 29 -30 66 l-7 51 -79 0 -79 0 -6 -54z m152 -236 c64 -39
88 -111 57 -175 -23 -50 -66 -75 -128 -75 -43 0 -53 4 -87 39 -35 35 -39 44
-39 91 0 110 107 175 197 120z"/>
<path d="M6920 1600 l0 -360 480 0 480 0 0 30 0 30 -450 0 -450 0 0 330 0 330
-30 0 -30 0 0 -360z"/>
<path d="M1375 1774 c-110 -91 -204 -169 -209 -174 -8 -8 31 -70 45 -70 4 0
91 70 193 155 102 85 188 155 192 155 3 0 83 -64 178 -142 94 -79 179 -149
189 -157 17 -13 21 -12 42 15 14 16 24 32 25 36 0 3 -27 28 -60 55 l-60 48 0
111 c0 131 -4 137 -82 132 l-53 -3 -3 -57 c-2 -32 -5 -58 -8 -58 -3 0 -36 27
-75 60 -41 35 -79 60 -92 60 -15 0 -94 -59 -222 -166z"/>
<path d="M3275 1892 c-98 -47 -139 -152 -96 -247 54 -119 197 -150 294 -64 53
46 71 91 65 161 -12 122 -152 202 -263 150z"/>
<path d="M7640 1630 l0 -270 60 0 60 0 0 270 0 270 -60 0 -60 0 0 -270z"/>
<path d="M7280 1600 l0 -240 60 0 60 0 0 240 0 240 -60 0 -60 0 0 -240z"/>
<path d="M1442 1673 l-153 -126 3 -146 3 -146 118 -3 117 -3 0 106 0 105 65 0
65 0 0 -105 0 -105 115 0 c103 0 115 2 125 19 5 11 10 76 10 145 l0 126 -143
117 c-78 65 -149 123 -157 130 -13 9 -42 -11 -168 -114z"/>
<path d="M2905 1756 c-19 -28 -31 -130 -21 -170 15 -60 117 -74 193 -26 26 17
57 30 70 30 27 0 27 -1 7 40 -9 18 -19 52 -22 76 l-5 44 -36 -6 c-22 -4 -53 1
-81 11 -79 29 -87 29 -105 1z"/>
<path d="M3705 1759 c-29 -14 -53 -18 -87 -15 l-48 5 0 -37 c0 -20 -9 -56 -19
-78 l-19 -42 35 -5 c19 -3 51 -18 70 -33 30 -23 42 -26 89 -22 79 7 94 25 94
110 0 38 -7 84 -14 103 -17 41 -39 44 -101 14z"/>
<path d="M7460 1540 l0 -180 60 0 60 0 0 180 0 180 -60 0 -60 0 0 -180z"/>
<path d="M7100 1480 l0 -120 60 0 60 0 0 120 0 120 -60 0 -60 0 0 -120z"/>
<path d="M3080 1522 c-64 -63 -95 -235 -56 -310 29 -57 69 -64 348 -60 232 3
248 4 275 24 45 33 59 89 46 178 -18 128 -73 206 -144 206 -14 0 -53 -14 -87
-31 -44 -23 -73 -31 -112 -31 -39 0 -68 8 -112 31 -82 42 -111 41 -158 -7z"/>
<path d="M6330 20992 c-43 -21 -76 -82 -85 -157 -14 -108 45 -165 172 -165 84
0 129 21 160 76 27 47 28 76 4 129 -20 45 -63 85 -122 115 -47 25 -84 25 -129
2z m127 -80 c12 -9 29 -34 38 -54 15 -37 15 -38 -16 -72 -51 -58 -132 -61
-144 -6 -10 45 3 87 37 120 34 34 54 37 85 12z"/>
<path d="M4932 20903 c-18 -9 -40 -29 -48 -44 -19 -37 -18 -113 1 -133 38 -38
81 -40 479 -28 209 7 425 12 479 12 111 0 148 13 172 60 19 37 19 44 -1 86
-31 65 -21 64 -561 64 -430 0 -492 -2 -521 -17z m983 -84 c5 -6 4 -14 -3 -21
-14 -14 -321 -25 -729 -27 -202 -1 -213 0 -213 18 0 10 6 24 13 30 10 7 145
12 438 13 433 3 477 2 494 -13z"/>
</g>
</svg>
