<?xml version="1.0" encoding="UTF-8"?>
<svg id="Calque_1" data-name="Calque 1" xmlns="http://www.w3.org/2000/svg" viewBox="0 0 409.5 805.5">
  <defs>
    <style>
      .cls-1 {
        fill: #f0f0f0;
      }

      .cls-2 {
        fill: #090909;
      }

      .cls-3 {
        fill: #cbcbcb;
      }

      .cls-4 {
        fill: #fafafa;
      }

      .cls-5 {
        fill: #0c0c0c;
      }

      .cls-6 {
        fill: #040404;
      }

      .cls-7 {
        fill: #020202;
      }

      .cls-8 {
        fill: #0a0a0a;
      }

      .cls-9 {
        fill: #2f2f2f;
      }

      .cls-10 {
        fill: #dedede;
      }

      .cls-11 {
        fill: #313131;
      }

      .cls-12 {
        fill: #e7e7e7;
      }

      .cls-13 {
        fill: #030303;
      }

      .cls-14 {
        fill: #fdfdfd;
      }

      .cls-15 {
        fill: #fbfbfb;
      }

      .cls-16 {
        fill: #f9f9f9;
      }

      .cls-17 {
        fill: #171717;
      }

      .cls-18 {
        fill: #0e0e0e;
      }

      .cls-19 {
        fill: #bebebe;
      }

      .cls-20 {
        fill: #202020;
      }

      .cls-21 {
        fill: #050505;
      }

      .cls-22 {
        fill: #353535;
      }

      .cls-23 {
        fill: #292929;
      }

      .cls-24 {
        fill: #0b0b0b;
      }

      .cls-25 {
        fill: #191919;
      }

      .cls-26 {
        fill: #bfbebe;
      }

      .cls-27 {
        fill: #070707;
      }

      .cls-28 {
        fill: #b5b5b5;
      }

      .cls-29 {
        fill: #d2d2d2;
      }

      .cls-30 {
        fill: #010101;
      }

      .cls-31 {
        fill: #c0bfbf;
      }

      .cls-32 {
        fill: #fefefe;
      }

      .cls-33 {
        fill: #060606;
      }

      .cls-34 {
        fill: #fcfcfc;
      }

      .cls-35 {
        fill: #ededed;
      }
    </style>
  </defs>
  <path class="cls-32" d="M144.25,.04C232.1,.04,319.94,.04,407.78,0c1.4,0,1.72,.32,1.72,1.72-.04,267.35-.04,534.7,0,802.05,0,1.41-.32,1.72-1.72,1.72-135.35-.04-270.71-.04-406.06,0-1.4,0-1.72-.32-1.72-1.72C.04,572.6,.03,341.41,.03,110.23c.26-.11,.47-.06,.65,.16,1.31,1.84,1.9,3.85,1.85,6.14-.1,4.62-.04,9.24-.02,13.87,0,1.33-.13,2.61-.88,3.77-.56,.88-.62,1.88-.62,2.89,0,13.55,0,27.11,0,40.66,0,1.08,.14,2.11,.78,3.03,.68,.97,.72,2.11,.72,3.24,0,1.75,0,3.5,0,5.25,0,1.08-.12,2.12-.91,2.97-.61,.65-.57,1.5-.58,2.3-.02,13.99-.02,27.98,0,41.97,0,.75-.05,1.55,.37,2.19,1.21,1.85,1.12,3.91,1.12,5.97,0,37.85,.33,75.7-.09,113.55-.46,41.47-.2,82.94-.19,124.4,0,11.48,.06,22.97,.3,34.46,.79,37.53,.54,75.07,.23,112.6-.33,39.16-.01,78.31-.26,117.47-.04,6.69,.05,13.36,1.17,19.98,1.44,8.45,4.72,16.07,10.51,22.43,5.48,6.02,12.4,9.78,20.22,11.92,5.57,1.52,11.24,2.17,17.01,2.33,46.3,1.33,92.62,.88,138.93,.6,37.89-.23,75.78-.03,113.66-.25,.75,0,1.5-.04,2.24,.05,.24,0,.48,0,.72,0,.87-.1,1.75-.06,2.62-.04,13.17,.24,26.33-.36,39.49-.47,9.4-.08,18.83-.39,28.18-1.68,10.48-1.45,17.95-7.31,23.23-16.23,3.62-6.13,4.69-12.95,5.4-19.9,.69-6.79,.71-13.58,.75-20.39,.13-18.67,.15-37.34,.47-56,.3-17.11,.21-34.22,.23-51.32,.08-57.96,.36-115.92-.06-173.87-.47-64.64,.15-129.27-.39-193.9-.19-23.48-.05-46.95-.28-70.43-.02-1.89-.04-3.73,1.41-5.26,.58-.61,.46-1.53,.46-2.34,.01-13.3,0-26.61,.01-39.91,0-1.22-.19-2.35-1.04-3.3-.62-.68-.79-1.54-.81-2.44-.02-.87-.02-1.75-.02-2.62,0-31.6,.07-63.2-.04-94.81-.03-9.15-1.67-18.04-6.27-26.14-6.46-11.37-16.47-17.79-29.03-20.54-4.89-1.07-9.84-1.58-14.86-1.58-69.41,.02-138.83,.01-208.24,0-1.25,0-2.53,.21-3.72-.36-.24-.15-.3-.35-.19-.61Z"/>
  <path class="cls-32" d="M.03,87.37C.03,58.79,.05,30.22,0,1.64,0,.32,.23,0,1.61,0,23.94,.06,46.26,.04,68.59,.04c.12,.22,.07,.41-.13,.56-.81,.46-1.7,.34-2.56,.35-5.74,.01-11.48-.14-17.21,.05-4.65,.16-9.41,.07-13.81,1.95-9.15,3.89-17.79,8.56-23.79,16.89-4.41,6.12-6.55,13.13-7.83,20.45-.56,3.2-.84,6.42-.83,9.68,.04,11.04,0,22.09,.04,33.13,0,1.76-.37,3.19-1.83,4.24-.19,.14-.4,.15-.6,.03Z"/>
  <path class="cls-19" d="M75.7,.04h42.33c.11,.26,.05,.46-.19,.6-1.18,.56-2.44,.34-3.67,.35-3.04,0-6.07,.07-9.11-.03-.24,0-.48,0-.72,0-8.87,.11-17.75,.03-26.62,.04-.62,0-1.24-.03-1.81-.34-.25-.15-.32-.35-.21-.62Z"/>
  <path class="cls-10" d="M118.04,.36c-.01-.11-.02-.21,0-.32h26.22c0,.11,0,.21,0,.32-.67,.76-1.59,.65-2.44,.65-7.11,.02-14.22,.02-21.34,0-.86,0-1.77,.1-2.44-.65Z"/>
  <path class="cls-10" d="M.34,110.24l-.15,.02-.15-.03v-19.86c.27-.11,.47-.04,.62,.21,.4,.75,.35,1.56,.35,2.36,.01,4.9,.02,9.79,0,14.69,0,.91,.16,1.89-.66,2.61Z"/>
  <path class="cls-10" d="M75.7,.04c0,.1,0,.21-.01,.31-2.37,1.04-4.75,1.05-7.12,0,0-.1,0-.2,.01-.31h7.12Z"/>
  <path class="cls-28" d="M.34,90.38H.19s-.15-.01-.15-.01v-3c.11,0,.23,0,.34-.02,.78,1.02,.81,2.03-.03,3.03Z"/>
  <path class="cls-30" d="M118.04,.36c8.74,0,17.48,0,26.22,0,10.61,.03,21.22,.06,31.83,.07,30.34,.03,60.68,.05,91.01,.06,30.65,0,61.3-.09,91.95,.06,10.52,.05,20.51,2.53,29.34,8.6,9.48,6.52,14.85,15.73,17.31,26.8,1.05,4.71,1.47,9.5,1.48,14.31,.02,31.98,.01,63.96,0,95.93,0,1.17-.16,2.31,1.22,3,.71,.35,.69,1.25,.69,2.02,0,14.05,0,28.11,0,42.16,0,.7,.07,1.57-.56,1.89-1.53,.75-1.3,2.02-1.3,3.31,.04,22.36,.06,44.71,.1,67.07,.04,26.73,.1,53.46,.15,80.19,.06,31.54,.04,63.08,.19,94.62,.26,52.9,.16,105.8,.17,158.7,0,28.73,.03,57.46-.09,86.19-.09,23.23-.29,46.46-.62,69.68-.11,7.48-.48,15.02-2.55,22.26-3.38,11.84-10.6,20.34-22.51,24.3-5.02,1.67-10.35,1.69-15.56,1.96-19.7,1.03-39.42,1.02-59.14,1.19-.19,0-.37-.03-.56-.05-.73-1.01-.67-2.03-.08-3.07,.59-.44,1.28-.45,1.97-.47,.81-.02,1.62-.03,2.43,0,9.11,.26,18.22-.21,27.31-.49,8.17-.25,16.34-.04,24.51-.28,4.24-.12,8.45-.54,12.66-1.11,7.4-1,12.83-5.2,17.55-10.57,5.73-6.5,8.11-14.34,8.95-22.79,.43-4.36,.37-8.73,.37-13.09,0-26.48-.29-52.95,.09-79.42,.31-21.66,.12-43.32,.29-64.98,0-.81,0-1.62,.17-2.43,.39-1.22,.25-2.48,.25-3.72,0-116.63,0-233.27,0-349.9,0-1-.05-2,.05-2.99,.08-.75,.29-1.42,1-1.35-.84,.03-.99-.8-1.03-1.68-.06-1.25-.03-2.5-.03-3.75,0-9.55,0-19.11,0-28.66,0-.94,.04-1.87-.26-2.78-.37-4.11-.07-8.24-.18-12.35-.81-31.71,.08-63.44-.47-95.15-.33-19.23-.22-38.46-.22-57.69,0-10.12-3.56-18.66-10.04-26.12-7.41-8.53-16.73-13.74-27.99-15.19-3.33-.43-6.7-.63-10.08-.63-81.77,0-163.53,0-245.3,0-1.29,0-2.63,.25-3.86-.43-.71-1.03-.73-2.07,0-3.1,4.37-.04,8.74-.07,13.1-.11Z"/>
  <path class="cls-30" d="M.34,90.38c0-1.01,.02-2.02,.03-3.03,2.52-2.87,1.46-6.35,1.5-9.59,.12-10.17-.22-20.35,.15-30.51,.37-10.17,2.88-19.84,8.99-28.25,4.32-5.95,10.41-9.68,16.62-13.36C34.97,1.28,42.92,.38,51.18,.44c5.8,.05,11.6-.06,17.4-.1,2.37,0,4.74,0,7.12,0,8.56,.02,17.12,.04,25.68,.06,1.05,0,2.11,.03,3.16,.05,.33,1.02,.31,2.04,0,3.07-.71,.52-1.54,.46-2.34,.46-15.35,0-30.71,.2-46.06-.1-5.55-.11-10.96,.17-16.3,1.52-16.3,4.11-26.39,14.66-31.27,30.49-1.33,4.31-1.83,8.77-1.99,13.29-.77,21.97-.52,43.95-.22,65.92,.28,20.29,.45,40.58,.14,60.86-.35,23.04-.04,46.07-.27,69.11,0,.87,.09,1.76-.37,2.56-.63,.59-1.46,.16-2.16,.37-.24,.09,.1,.41-.01,.19-.05-.1-.02-.16,.08-.16,.74-.04,1.53-.38,2.16,.34,.53,1.26,.33,2.59,.33,3.89,0,83.69-.27,167.38,.12,251.07,.2,43.71,.44,87.43,.14,131.14-.26,38.16-.03,76.31-.26,114.46,0,.87,.06,1.75-.29,2.59-.62,.86-1.46,.45-2.3,.41,.72,.32,1.56-.18,2.18,.41,.59,1.99,.64,4.06,.73,6.1,.47,10.61,3.57,20.24,10.57,28.39,5.38,6.26,12.26,10.14,20.14,12.31,4.71,1.3,9.51,1.98,14.42,1.98,83.62-.02,167.24-.01,250.86,0,1.29,0,2.63-.28,3.85,.44,.35,1.03,.32,2.07,.03,3.11-.56,.03-1.12,.07-1.68,.08-17.79,.02-35.58,.03-53.38,.05-18.1,.02-36.21,.05-54.31,.07-38.95,.05-77.91,.23-116.86,.09-11.72-.04-23.47-.14-35.17-1.02-9.4-.71-18.2-3.49-25.9-9.19-8.19-6.06-12.92-14.34-15.35-24.08-1.35-5.42-1.87-10.95-1.88-16.52-.02-35.92-.1-71.83,.07-107.75,.18-37.47,.57-74.95,.19-112.42-.44-44.03-.86-88.05-.67-132.08,.22-53.09,.48-106.18,.4-159.26,0-1.14-.01-2.19-.84-3.13-.59-.67-.68-1.56-.68-2.47,.02-14.49,.01-28.98,.01-43.47,0-.87-.14-1.8,1.05-2.1,.73-.18,.43-.81,.43-1.24,.03-2.56,.02-5.12,0-7.68,0-.42,.2-.99-.22-1.23-1.59-.92-1.24-2.43-1.24-3.83-.01-13.87-.01-27.73-.02-41.6,0-.56-.13-1.23,.34-1.59,1.5-1.15,1.14-2.75,1.15-4.26,.02-4.18-.21-8.38,.08-12.55,.19-2.69-.78-4.92-1.64-7.27,0-6.62,0-13.24,0-19.86Z"/>
  <path class="cls-11" d="M306.45,804.7c0-.97,0-1.95-.01-2.92,.14-.13,.27-.13,.41,0,0,.97,0,1.94-.01,2.91-.13,0-.26,0-.39,.01Z"/>
  <path class="cls-11" d="M104.53,3.37c0-.97,0-1.94,0-2.91,.14,0,.27,0,.41,0,0,.97,0,1.94,0,2.91-.13,.11-.27,.12-.4,0Z"/>
  <path class="cls-31" d="M104.53,3.37c.13,0,.27,0,.4,0,9.3,.03,18.6,.09,27.9,.1,66.74,.02,133.47,.04,200.21,.05,9.3,0,18.6-.29,27.89,.19,17.91,.94,34.26,13.15,40.12,30.09,1.58,4.56,1.76,9.3,1.77,14.05,.02,12.49-.02,24.98,.01,37.48,.06,20.36,.29,40.72,.18,61.08-.08,14.49-.11,28.98,.2,43.46,.15,7.05,.21,14.11,.33,21.16,.19,.68,.1,1.37,.1,2.05,0,130.32,0,260.64,0,390.96,0,.68,.11,1.37-.11,2.05-.04,10.99-.09,21.97-.13,32.96-.09,27.03-.17,54.05-.25,81.08-.04,13.54,.11,27.09-.12,40.63-.15,8.61-1.47,17.1-6.49,24.42-5.31,7.74-11.94,13.69-21.85,14.82-4.72,.54-9.43,.96-14.17,.94-17.9-.11-35.79,.87-53.69,.85h-.41c-.81-.02-1.62-.06-2.43-.06-83.77,0-167.53,0-251.3,0-8.41,0-16.52-1.39-24.06-5.25-11.86-6.06-18.59-16-21.49-28.81-1.16-5.09-1.21-10.27-1.48-15.43-.24-.12-.24-.24,0-.36,.03-.75,.09-1.49,.09-2.24,0-31.16-.03-62.32,.01-93.49,.05-36.22,.31-72.44,.25-108.65-.09-49.58-.61-99.16-.49-148.74,.08-32.53,.12-65.07,.18-97.6,.03-17.05,.04-34.1,.05-51.14,0-.62-.06-1.24-.09-1.87-.24-.12-.24-.24,0-.36,.03-.75,.09-1.49,.09-2.24,0-20.3-.17-40.59,.05-60.89,.23-21.1,.05-42.21,.08-63.31,.04-21.42-.11-42.84-.11-64.25,0-6.55,.12-13.1,1.71-19.53C12.1,18.86,26.18,6.24,45.22,3.71c3.74-.5,7.46-.39,11.2-.36,15.85,.09,31.71,.07,47.56,.08,.19,0,.37-.04,.56-.06Z"/>
  <path class="cls-11" d="M403.54,606.09c0-10.11,0-20.23,0-30.34,0-.75,.02-1.5,.02-2.25,0-110.15,0-220.29,0-330.44,0-9.99-.05-19.98-.08-29.97,0-.68,.05-1.37,.08-2.05,.5,.6,.28,1.32,.28,1.98,.03,10.56,.04,21.11,.06,31.67q0,2.86,2.61,3.28-2.61,.42-2.61,3.28c0,107.06,0,214.13,0,321.19,0,10.56-.03,21.11-.05,31.67,0,.67,.2,1.38-.3,1.98Z"/>
  <path class="cls-9" d="M5.67,247.78c0,.12,0,.24,0,.36-.76-.06-1.55,.17-2.37-.18,.82-.35,1.61-.12,2.37-.18Z"/>
  <path class="cls-9" d="M5.67,751.88c0,.12,0,.24,0,.36-.76-.06-1.55,.17-2.37-.18,.82-.35,1.61-.12,2.37-.18Z"/>
  <path class="cls-30" d="M17.31,247.76c-.02-12.3-.07-24.61-.06-36.91,.01-12.87,.05-25.73,.14-38.6,.19-26.67,.34-53.33,.22-80-.05-11.61-.5-23.23-.27-34.84,.15-7.37,.11-14.9,3.31-21.85,4.76-10.32,12.48-16.97,23.73-19.58,3.66-.85,7.25-.93,10.91-.93,8.49,0,16.98,0,25.47,0,4.38,0,6.65,2.19,6.9,6.6,.1,1.68,.19,3.37,.37,5.04,.65,5.9,4.71,10.01,10.6,10.84,1.99,.28,3.98,.33,5.98,.33,67.79,0,135.59,0,203.38,0,.81,0,1.62-.02,2.43-.08,5.25-.41,7.86-2.52,9.54-7.49,1.25-3.7,1.01-7.52,1.13-11.31,.11-3.48,.19-3.57,3.61-3.6,11.55-.09,23.09-.17,34.64-.29,6.85-.07,13.47,.84,19.28,4.81,7.19,4.92,11.43,11.63,12.15,20.47,.65,7.92,.35,15.85,.38,23.78,.18,37.22,.27,74.44,.4,111.67,.09,23.29,.21,46.59,.31,69.88,0,.69-.04,1.37-.06,2.06-.88,.43-1.82,.07-2.62,.21,.8,.12,1.74-.23,2.62,.2,.04,9.24,.12,18.48,.11,27.73-.02,36.54-.06,73.08-.12,109.61-.05,28.29-.2,56.58-.23,84.87-.02,20.49,.06,40.97,.1,61.46,.03,16.93,.11,33.85,.08,50.78-.07,37.35-.07,74.7-.37,112.05-.17,21.79-.75,43.58-.67,65.38,.05,14.25-8.75,23.81-22.3,28.16-2.97,.95-5.97,1.52-9.15,1.53-10.55,.02-21.09,.25-31.64,.39-.68,0-1.37-.06-2.05-.09-.8-.24-1.61-.11-2.42-.11-90.32,0-180.64,0-270.96-.01-.81,0-1.62,.12-2.42-.11-13.61-.81-23.44-7.46-29.74-19.44-.77-1.46-1.06-3.16-2.05-4.56-.49-.7-.71-1.59-.71-2.49,.01-3.68,.03-7.36,.05-11.04,.88-.43,1.82-.07,2.62-.21-.8-.12-1.74,.23-2.62-.2-.02-.81-.06-1.62-.06-2.43,0-109.5,0-218.99,0-328.49,0-56.84-.02-113.68-.02-170.52,0-.75,.04-1.5,.06-2.24,.89-.45,1.84-.01,2.58-.21-.75-.11-1.69,.23-2.58-.19Z"/>
  <path class="cls-30" d="M204.07,29.59c-5.36,0-10.72,0-16.08,0-.68,0-1.37-.03-2.05-.13-2.57-.39-3.24-.99-3.42-2.93-.24-2.66,.67-4.3,2.83-5.06,1.26-.44,2.57-.48,3.88-.48,10.29-.01,20.58,0,30.87,0,1.06,0,2.12,.07,3.12,.48,1.62,.66,2.52,1.97,2.5,3.62-.02,1.76-1.03,3.01-2.81,3.54-.85,.25-1.71,.32-2.59,.3-5.43-.13-10.85,0-16.27,.69Z"/>
  <path class="cls-9" d="M49.76,789.79c1.06-.03,2.11-.09,3.17-.09,83.71,0,167.41,0,251.12-.04,.81,0,2.1,.76,2.43-.86,.04-.18,.25-.32,.31-.05,.35,1.75,1.72,.88,2.58,.9,4.74,.09,9.49,.03,14.23,.05,.66,0,1.38-.24,1.96,.32-6.99,.01-13.98,.03-20.97,.03-83.77,0-167.54,0-251.32,0-1.17,0-2.37,.18-3.51-.26Z"/>
  <path class="cls-30" d="M239.54,30.26c-3.98,.19-6.21-2.5-5.44-6.45,.14-.73,.22-1.49,.43-2.2,.92-3.27,4.15-4.73,7.22-3.28,1.9,.9,3.55,2.1,4.6,3.96,2.08,3.65-.39,7.93-4.58,7.97-.74,0-1.49,0-2.23,0Z"/>
  <path class="cls-11" d="M391.8,248.17h-2.53c0-.14,0-.28-.01-.41h2.55c0,.14,0,.28,0,.41Z"/>
  <path class="cls-11" d="M17.31,247.76h2.55v.4h-2.55v-.4Z"/>
  <path class="cls-11" d="M17.32,751.85h2.54c0,.14,0,.28,0,.41h-2.55c0-.14,0-.28,0-.41Z"/>
  <path class="cls-14" d="M21.42,97.85c-.2-11.74,.18-23.48,.36-35.21,.08-5.37,.08-10.75,.38-16.1,.66-11.84,6.21-20.59,17.03-25.66,4-1.88,8.41-2.21,12.81-2.2,8.8,0,17.61,.11,26.41,0,3.3-.04,4.71,.27,5.14,5.2,.28,3.24,.39,6.48,1.89,9.46,.14,.28,.27,.56,.4,.85,1.93,4.5,5.28,6.68,10.22,7.16,6.37,.61,12.71,.44,19.07,.41,8.61-.04,17.23-.09,25.84-.11,24.22-.05,48.45,.09,72.66-.16,31.46-.33,62.92-.1,94.39-.3,8.07-.05,13.71-3.92,16.17-10.69,.82-2.27,.95-4.62,.95-7,0-4.2,.45-4.63,4.58-4.64,10.36-.04,20.73-.09,31.09-.12,5.3-.02,10.44,.75,15.01,3.66,6,3.83,9.04,9.61,10.43,16.4,.67,3.26,.82,6.56,.82,9.87,0,193.51,0,387.03,0,580.54,0,19.86-.1,39.72-.17,59.59-.02,6.81-.14,13.61-.11,20.42,0,1.49-.39,1.61-1.77,1.53-9.78-.61-19.59-.41-29.38-.47-32.4-.19-64.79-.3-97.19-.48-77.16-.42-154.32-.19-231.48-.26-.81,0-1.64-.1-2.43,.02-1.92,.29-2.45-.37-2.45-2.36,.05-166.59,.07-333.18,.02-499.77,0-24.1-.34-48.21-.51-72.31-.08-11.62-.14-23.23-.2-34.85,0-.57-.27-1.33,.76-1.33,.36-.3,.79-.35,1.23-.34,27.4,.41,54.8-.08,82.2,.2,75.34,.78,150.67,.1,226.01,.36,8.49,.03,16.99-.27,25.46,.12,8.67,.4,17.34-.05,26,.25-16.03-.43-32.08-.04-48.11-.4-19.79-.44-39.57-.07-59.35-.25-4.99-.04-9.99,.04-14.98-.01-78.52-.85-157.04-.13-235.56-.38-1.22,0-2.52,.24-3.62-.61Z"/>
  <path class="cls-32" d="M204.37,786.66c-50.69,0-101.38,0-152.07,0-13.06,0-23.2-6.68-28.11-18.54-1.37-3.31-2.08-6.79-2.08-10.39,0-15.36,0-30.73,.02-46.09,0-.51-.52-1.55,.81-1.34,5.95,.97,11.95,.59,17.93,.62,23.41,.13,46.82,.15,70.22,.21,35.02,.08,70.04,.18,105.05,.23,40.33,.06,80.65,.04,120.98,.11,15.98,.02,31.95,.19,47.93,.23,1.43,0,1.72,.42,1.71,1.79-.1,14.36-.15,28.73-.16,43.09,0,5.66-1.02,11.07-3.87,15.98-4.7,8.09-11.85,12.6-21.06,13.81-2.28,.3-4.61,.29-6.91,.29-50.13,.01-100.25,.01-150.38,.01Z"/>
  <path class="cls-30" d="M21.42,97.85c28.9,0,57.81,0,86.71,.01,35.83,.01,71.67,0,107.5,.07,33.71,.07,67.41,.21,101.12,.37,20.72,.1,41.44,.31,62.16,.5,2.06,.02,4.15,.1,6.21,.86-.31,.62-.71,.45-1.02,.45-16.91-.1-33.83-.29-50.74-.31-47.07-.07-94.14-.07-141.21-.11-19.6-.02-39.2-.03-58.8-.09-32.02-.09-64.04-.19-96.07-.34-5.05-.02-10.11,.18-15.14-.36-.66-.83-1.13,.42-1.79,.16-.6-.23-1.55-.06-1.46-1.01,.08-.9,.95-.53,1.5-.54,.35,0,.69,.21,1.04,.33Z"/>
  <path class="cls-31" d="M203.46,26.91c-4.92,0-9.84,.04-14.76-.04-.87-.01-2.41,.64-2.42-1.08-.01-1.72,1.49-1.59,2.64-1.58,8.41,.02,16.82,.09,25.23,.11,1.68,0,3.36-.23,5.04-.2,.93,.02,2.46-.08,2.44,1.06-.01,1.03-1.52,1.04-2.48,1.07-2.05,.07-4.11,.02-6.17,.02-3.18,0-6.35,0-9.53,0v.65Z"/>
  <path class="cls-26" d="M239.56,27.77c-1.77,.03-2.33-.56-2.38-2.54-.06-2.07,1.77-4.61,3.32-4.6,1.34,0,3.29,2.27,3.32,3.85,.03,1.35-2.44,3.26-4.25,3.29Z"/>
  <path d="M204.67,224.05c-26.45-.31-47.67-20.82-48-47.77-.32-26.36,21.06-47.83,47.75-48.16,26.11-.32,47.87,21.23,48.09,47.63,.23,26.46-21.19,48.08-47.84,48.3Z"/>
  <path d="M204.78,273.33c41.44,0,82.89-.02,124.33,.01,11.36,0,22.71,.18,34.07,.23,1.21,0,1.71,.3,1.86,1.59,.59,4.72,.7,9.47,.54,14.2-.22,6.62-.38,13.23,.03,19.84,.03,.44,.05,.88,0,1.31-.3,2.66-.45,2.73-3.1,2.54-1.62-.12-3.24-.09-4.87-.09-31.4,.03-62.79-.11-94.19,.14-25.84,.2-51.68,.17-77.52,.13-33.02-.05-66.03-.18-99.05-.32-13.73-.06-27.46-.25-41.19-.29-1.61,0-2.2-.45-2.15-2.05,.08-2.81-.09-5.62,.06-8.42,.45-8.55,.43-17.09,0-25.65-.15-2.94,.17-3.49,3.12-3.5,4.24-.02,8.49-.05,12.73-.05,47.44-.02,94.88-.04,142.32-.06,1,0,2,0,3,0v.44Z"/>
  <path d="M204.64,358.78c41.51,0,83.01-.02,124.52,.01,11.36,0,22.71,.19,34.07,.22,1.27,0,1.67,.42,1.82,1.63,.65,5.22,.71,10.46,.51,15.7-.24,5.93-.31,11.85,.06,17.78,.03,.44,.04,.87,.03,1.31-.08,2.91-.45,3.22-3.35,3.04-1.49-.09-2.99-.06-4.49-.06-31.46,.03-62.92-.12-94.38,.14-27.71,.23-55.42,.15-83.13,.13-31.14-.03-62.29-.18-93.43-.31-13.73-.06-27.46-.24-41.19-.3-1.47,0-2.14-.33-2.1-1.9,.07-2.81-.11-5.62,.04-8.42,.45-8.61,.43-17.22,.01-25.83-.15-3.13,.29-3.44,3.17-3.46,4.18-.04,8.36-.05,12.54-.05,47.56-.02,95.13-.04,142.69-.06,.87,0,1.75,0,2.62,0,0,.15,0,.29,0,.44Z"/>
  <path d="M204.64,447.98c41.51,0,83.01-.02,124.52,.01,11.36,0,22.71,.19,34.06,.22,1.27,0,1.67,.42,1.82,1.63,.65,5.22,.71,10.46,.51,15.7-.24,5.93-.31,11.85,.06,17.78,.03,.44,.04,.87,.03,1.31-.08,2.91-.45,3.22-3.35,3.04-1.49-.09-2.99-.06-4.49-.06-31.46,.03-62.92-.12-94.38,.14-27.71,.23-55.42,.15-83.13,.13-31.14-.03-62.29-.18-93.43-.31-13.73-.06-27.46-.24-41.19-.3-1.47,0-2.14-.33-2.1-1.9,.07-2.81-.11-5.62,.04-8.42,.45-8.61,.43-17.22,.01-25.83-.15-3.13,.29-3.43,3.17-3.46,4.18-.04,8.36-.05,12.54-.05,47.56-.02,95.13-.04,142.69-.06,.87,0,1.75,0,2.62,0,0,.15,0,.29,0,.44Z"/>
  <path d="M204.71,639.12c41.44,0,82.89-.02,124.33,.01,11.36,0,22.71,.18,34.07,.22,1.29,0,1.81,.33,1.97,1.7,.58,5.23,.69,10.47,.48,15.7-.24,5.87-.31,11.73,.05,17.59,.03,.56,.06,1.13,.03,1.68-.18,2.79-.45,2.97-3.23,2.8-1.68-.11-3.37-.08-5.05-.08-31.27,.03-62.55-.11-93.82,.14-26.46,.21-52.93,.17-79.39,.13-32.39-.04-64.79-.18-97.18-.32-13.73-.06-27.46-.25-41.19-.29-1.7,0-2.28-.53-2.23-2.17,.07-2.62-.1-5.25,.04-7.86,.48-8.74,.47-17.47,.02-26.21-.14-2.74,.16-3.38,3.06-3.39,4.24,0,8.49-.05,12.73-.05,47.5-.02,95-.04,142.5-.07,.94,0,1.87,0,2.81,0,0,.15,0,.29,0,.44Z"/>
  <path d="M47.09,63.72c4.29,0,8.57,0,12.86,0,2.41,0,3.08,.67,3.15,3.11,.02,.62,.03,1.25,0,1.87-.13,1.93-.88,2.68-2.82,2.7-4.05,.03-8.11,0-12.16,.02-.34,0-.74-.19-1.23,.41,1.71,1.66,3.45,3.32,5.15,5.03,1.81,1.81,1.73,2.82-.31,4.87-1.99,2-3.05,2.09-4.87,.28-4.07-4.05-8.11-8.11-12.16-12.19-1.61-1.63-1.64-2.89-.05-4.49,4.09-4.11,8.19-8.22,12.31-12.29,1.77-1.75,2.79-1.6,5,.61,1.74,1.75,1.8,2.92,.11,4.61-1.71,1.72-3.49,3.37-5.23,5.06l.25,.42Z"/>
  <path d="M101.9,60.42c0,4.31,0,8.42,0,12.52,0,.5,.01,1,0,1.5-.03,1.02-.5,1.69-1.58,1.66-.99-.02-1.42-.66-1.43-1.6-.09-5.8-.19-11.6-.24-17.4,0-.94,.13-1.94,1.2-2.32,1.16-.41,1.79,.34,2.46,1.18,3.13,3.97,6.02,8.09,8.65,12.41,.43,.71,.92,1.39,1.39,2.08,.15-.05,.3-.1,.45-.15,0-4.4,0-8.79,0-13.19,0-.44-.05-.88,0-1.31,.09-.84,.53-1.41,1.43-1.41,.96,0,1.51,.56,1.54,1.51,.05,1.31,.04,2.62,.04,3.93-.02,4.56-.05,9.11-.06,13.67,0,1.02,.1,2.13-1.09,2.53-1.27,.43-2.24-.08-3-1.23-2.84-4.31-5.73-8.6-8.61-12.88-.34-.5-.73-.97-1.14-1.49Z"/>
  <path d="M176.52,69.75c-1.56,0-3.11,.03-4.67,0-1.08-.03-1.13,.36-.66,1.19,.98,1.71,3.64,2.65,6.14,2.04,.83-.2,1.61-.62,2.42-.92,.77-.28,1.48-.2,1.95,.55,.54,.85,.19,1.54-.49,2.12-2.36,2.02-8.42,1.86-11.07-.28-2.82-2.28-3.57-6.71-1.71-10.01,1.95-3.44,6.05-4.95,9.8-3.59,2.56,.93,4.83,4,4.89,6.75,.03,1.39-.57,2.24-2.12,2.18-1.49-.05-2.99-.01-4.48,0Z"/>
  <path d="M276.93,69.75c-1.49,0-2.99-.02-4.48,.02-.39,0-1-.25-1.11,.3-.07,.35,.18,.85,.44,1.16,1.56,1.93,3.69,2.13,5.92,1.74,.83-.15,1.61-.62,2.42-.91,.85-.31,1.58-.2,2.05,.69,.43,.83,.08,1.48-.55,1.95-2.61,1.95-9.21,2.31-12-1.17-2.83-3.54-2.33-8.65,1.23-11.49,3.44-2.74,8.39-2.12,11.1,1.38,.91,1.17,1.27,2.57,1.54,3.96,.28,1.45-.56,2.34-2.08,2.37-1.49,.03-2.99,0-4.48,0Z"/>
  <path class="cls-30" d="M199.24,71.31c0,1-.02,2,0,2.99,.02,.84-.27,1.5-1.08,1.76-.72,.23-1.46,0-1.75-.69-.35-.86-.63-.57-1.19-.23-2.55,1.54-5.82,1.29-7.99-.55-2.08-1.76-2.79-4.68-1.77-7.5,.96-2.65,2.47-4.88,5-6.28,3.89-2.16,8.02-.04,8.45,4.34,.2,2.05,.39,4.1,.33,6.16Z"/>
  <path d="M241.12,60c4.64,.16,7.71,3.2,7.48,7.69-.21,4.11-3.01,8.5-8.12,8.12-3.5-.26-6.42-4.02-6.26-8.4,.13-3.35,2.77-8.15,6.9-7.41Z"/>
  <path d="M126.58,59.99c4.31,.16,6.69,2.16,7.47,6.21,.66,3.4-1.47,7.68-4.52,9.09-3.12,1.44-6.62,.38-8.38-2.7-1.92-3.37-1.84-6.8,.33-10.05,1.21-1.8,2.87-2.92,5.1-2.55Z"/>
  <path class="cls-30" d="M215.57,68.13c0,1.99,0,3.99,0,5.98,0,.88-.21,1.66-1.13,1.94-.82,.25-1.47-.05-1.77-.91-.16-.46-.36-.42-.82-.23-5.08,2.09-8.15,.31-9.11-5.32-.45-2.61-.13-5.23,.09-7.84,.08-.98,.65-1.73,1.68-1.61,1.1,.13,1.55,.98,1.38,2.06-.3,1.86-.25,3.73-.26,5.6,0,1.14,.31,2.21,.77,3.24,.49,1.09,1.19,2.05,2.45,1.99,1.31-.06,2.52-.53,3.22-1.87,1.08-2.08,.46-4.29,.57-6.44,.05-.93-.06-1.87-.11-2.8-.05-.98,.26-1.79,1.34-1.89,1.19-.12,1.7,.69,1.72,1.74,.05,2.12,.01,4.24,.01,6.36h-.03Z"/>
  <path class="cls-30" d="M150.18,68.17c0,1.99,0,3.99,0,5.98,0,.89-.28,1.64-1.18,1.9-.81,.24-1.49-.03-1.75-.92-.17-.57-.42-.39-.81-.23-5.27,2.16-8.64,.01-9.24-6-.23-2.35-.12-4.73,.21-7.09,.15-1.02,.59-1.74,1.6-1.68,1.09,.07,1.57,.88,1.45,1.99-.25,2.47-.67,4.94-.03,7.43,.62,2.41,1.75,3.67,3.22,3.54,2.15-.19,3.57-1.94,3.57-4.47,0-2.24-.05-4.49-.1-6.73-.02-.98,.23-1.79,1.35-1.85,1.17-.06,1.68,.71,1.69,1.78,.03,2.12,0,4.24,0,6.36,0,0,0,0-.01,0Z"/>
  <path class="cls-30" d="M264.5,68.16c0,1.99-.02,3.99,.01,5.98,.02,.9-.23,1.63-1.12,1.92-.84,.27-1.53-.11-1.78-.92-.26-.84-.6-.34-.9-.14-3.85,2.6-6.97,.36-8.38-3.17-1.38-3.47-.84-6.99-.47-10.51,.09-.81,.81-1.3,1.65-1.17,.8,.12,1.33,.67,1.28,1.56-.08,1.74-.21,3.48-.27,5.22-.04,1.19,.11,2.36,.55,3.48,.56,1.44,1.23,2.83,3.12,2.62,1.91-.21,3.29-1.7,3.35-3.65,.07-2.43,.02-4.86-.04-7.29-.02-1.04,.14-1.96,1.35-2.04,1.3-.09,1.67,.83,1.67,1.96,0,2.06,0,4.11,0,6.17h-.03Z"/>
  <path class="cls-30" d="M298.96,68.25c0,1.99-.02,3.99,.01,5.98,.02,.85-.26,1.51-1.03,1.81-.8,.3-1.55,.02-1.82-.82-.28-.87-.64-.44-1.03-.19-3.93,2.61-6.9,.09-8.18-2.95-1.49-3.52-.95-7.1-.6-10.68,.08-.85,.78-1.35,1.58-1.28,.9,.08,1.43,.69,1.38,1.67-.09,1.74-.22,3.48-.28,5.22-.04,1.12,.12,2.23,.52,3.3,.54,1.45,1.19,2.85,3.06,2.72,1.93-.13,3.4-1.74,3.45-3.75,.05-2.43,0-4.86-.04-7.29-.02-1.06,.22-1.93,1.44-1.96,1.19-.03,1.57,.8,1.58,1.87,0,2.12,0,4.24,0,6.35,0,0-.02,0-.03,0Z"/>
  <path class="cls-30" d="M159.06,71.57c1.28-3.13,2.4-5.88,3.53-8.64,.26-.63,.53-1.27,.89-1.85,.46-.75,1.1-1.18,2.03-.74,.93,.44,1.11,1.25,.71,2.03-1.93,3.71-3.03,7.76-4.88,11.51-.16,.33-.37,.65-.58,.96-1.32,1.85-2.63,1.77-3.65-.23-.39-.77-.73-1.58-1.05-2.39-1.22-3.13-2.4-6.27-3.62-9.4-.4-1.03-.61-1.99,.65-2.5,1.25-.5,1.77,.32,2.16,1.35,1.21,3.19,2.45,6.37,3.82,9.91Z"/>
  <path class="cls-7" d="M53.6,259.27c0-3.16,0-5.76,0-8.35,0-.65-.22-1.54,.79-1.6,1.12-.07,1.04,.87,1.04,1.6,0,3.31,0,6.62-.03,9.93,0,.61-.01,1.31-.8,1.51-.76,.19-1.29-.13-1.72-.79-1.83-2.81-3.7-5.61-5.78-8.74-.38,2.31-.06,4.24-.06,6.17,0,.81,.06,1.62,.02,2.43-.03,.53-.3,.96-.94,.95-.65-.02-.86-.5-.87-1.01-.08-3.49-.14-6.99-.16-10.48,0-.54,.16-1.15,.84-1.32,.66-.17,1.03,.28,1.39,.73,1.74,2.2,3.37,4.48,4.84,6.87,.34,.56,.74,1.08,1.44,2.1Z"/>
  <path class="cls-30" d="M230.75,68.33c.35,2.92,.38,5.84,.06,8.76-.23,2.1-1.27,3.42-3.17,4.17-.89,.35-1.76,.43-2.28-.52-.51-.94-.12-1.75,.82-2.12,1.32-.52,1.58-1.5,1.69-2.78,.39-4.36-.1-8.7-.11-13.05,0-.37-.04-.75-.04-1.12,0-.92,.34-1.62,1.36-1.65,1.04-.03,1.64,.55,1.65,1.6,.03,2.24,0,4.47,0,6.71Z"/>
  <path d="M306.16,61.91c1.36-1.15,2.77-1.7,4.41-1.53,.98,.1,1.72,.52,1.71,1.57-.01,1.05-.67,1.46-1.74,1.45-.79-.01-1.63,.11-2.38,.38-1.32,.47-2.18,1.33-2.12,2.91,.08,2.43,.06,4.86,.1,7.29,.02,1.08-.14,2.1-1.49,2.12-1.34,.02-1.55-.94-1.55-2.05,0-3.99-.04-7.97-.07-11.96,0-.91,0-1.84,1.14-2.04,1.25-.22,1.81,.53,1.99,1.87Z"/>
  <path class="cls-7" d="M68.34,257.49c0-1.18,0-2.37,0-3.55,0-.59,.36-1.5,.77-1.2,1.3,.94,2.49-.48,3.51-.02,1.78,.79,3.33,.54,5.13,.03,1.63-.47,2.98,.8,3.15,2.63,.19,1.98,.14,3.99,.17,5.98,0,.53-.17,1.02-.83,1.03-.73,.01-.98-.53-1.01-1.11-.06-1.56-.02-3.12-.08-4.68-.04-.96,.09-2.26-1.45-2.02-1.19,.18-2.23,.76-2.16,2.31,.07,1.43,.04,2.87,.07,4.3,.01,.64-.21,1.15-.89,1.19-.72,.04-.92-.5-.94-1.12-.06-1.68-.09-3.37-.2-5.04-.05-.77,0-1.78-1.23-1.67-1.16,.1-2.01,.66-2.03,1.97-.02,1.37,.04,2.75,0,4.12-.02,.71,.09,1.7-.96,1.73-1.16,.04-.88-.98-.91-1.67-.04-1.06,0-2.12,0-3.18h-.11Z"/>
  <path class="cls-30" d="M93.31,342.85c0-1.18,0-2.37,0-3.55,0-.62,.35-1.45,.81-1.12,1.25,.89,2.42-.51,3.34-.01,1.83,.99,3.43,.48,5.22,0,1.44-.39,2.51,.56,2.95,1.97,.71,2.25,.22,4.59,.36,6.88,.03,.48-.34,.8-.84,.82-.61,.02-.93-.36-.95-.92-.04-1.43,.02-2.87-.06-4.3-.06-1.04,.28-2.43-1.35-2.62-1.27-.15-2.36,1.17-2.36,2.69,0,1.12,.01,2.25,0,3.37-.01,.7,.32,1.72-.79,1.75-1.2,.04-1-1.05-1.03-1.82-.04-1.31,.03-2.62-.05-3.93-.05-.88,.14-2.1-1.27-2.06-1.35,.04-2.14,.81-2.12,2.27,.03,1.43,0,2.87,0,4.3,0,.68-.18,1.3-1.01,1.25-.72-.04-.83-.61-.83-1.22,.01-1.25,0-2.49,0-3.74,0,0-.02,0-.03,0Z"/>
  <path class="cls-7" d="M92.42,432.23c0-1.25-.03-2.5,.01-3.74,.04-1.04,.55-1.63,1.52-.87,.48,.38,.75,.29,1.1,.02,.55-.42,1.35-.58,1.77-.3,1.68,1.14,3.18,.5,4.88,.02,1.62-.46,2.89,.62,3.12,2.21,.31,2.15,.26,4.35,.32,6.52,.01,.45-.23,.84-.76,.92-.64,.09-.94-.29-1.03-.83-.26-1.42-.07-2.87-.16-4.29-.06-1.02,.55-2.61-1.36-2.71-1.34-.07-2.23,1.15-2.22,2.8,.01,1.25,0,2.5,.02,3.75,.01,.7-.14,1.3-.97,1.28-.71-.02-.85-.58-.86-1.2-.03-1.62,0-3.25-.14-4.86-.07-.79-.02-1.94-1.37-1.77-1.18,.14-1.94,.77-1.93,2.07,0,1.44,.03,2.87,0,4.31-.02,.69-.09,1.49-1.05,1.45-.89-.03-.8-.79-.81-1.41,0-1.12,0-2.25,0-3.37-.03,0-.05,0-.08,0Z"/>
  <path class="cls-7" d="M48.81,437.05c-2.32,.02-4.25-1.28-4.54-3.08-.11-.68-.19-1.49,.68-1.7,.82-.19,.92,.53,1.15,1.14,.68,1.83,3.52,2.46,4.98,1.14,.99-.88,.88-1.91-.38-2.48-1.24-.56-2.57-.92-3.81-1.46-1.39-.6-2.48-1.54-2.38-3.22,.1-1.72,1.22-2.63,2.74-3.17,2.39-.85,5.31,.16,6.11,2.15,.28,.71,.53,1.57-.35,1.97-.87,.39-1.05-.36-1.34-1.05-.64-1.54-3.7-2.09-4.85-.9-.75,.77-.71,1.64,.25,2.19,.96,.55,2.01,.96,3.05,1.35,2.75,1.02,3.74,2.13,3.39,3.95-.34,1.82-2.35,3.16-4.73,3.18Z"/>
  <path class="cls-7" d="M45.13,341.38c0-1.74-.04-3.49,.02-5.23,.03-.89,.33-1.46,1.5-1.37,1.59,.13,3.21-.32,4.79,.25,1.99,.72,3.09,2.08,3.03,3.98-.07,2.04-1.43,2.85-3.2,3.32-.74,.2-1.48,.37-2.21,.25-1.98-.33-2.23,.63-2.05,2.29,.11,1,.72,2.72-.74,2.84-1.71,.14-.89-1.65-1.03-2.6-.19-1.22-.15-2.48-.21-3.72,.03,0,.07,0,.1,0Z"/>
  <path class="cls-7" d="M63.48,344.1c1.43,2.22,3.2,2.12,5.01,1.72,.68-.15,1.4-.57,1.71,.35,.28,.85-.47,1.14-1.12,1.41-2.7,1.12-6.38-.3-7.24-2.79-.88-2.59,.62-5.3,3.4-6.1,2.55-.73,5.64,1.37,5.94,4,.12,1.12-.42,1.44-1.41,1.41-1-.03-2,0-2.99,0-.98,0-1.96,0-3.29,0Z"/>
  <path class="cls-7" d="M90.4,431.84c0,2.75-1.96,4.95-4.47,4.98-2.28,.03-4.14-2.1-4.17-4.8-.03-2.59,1.74-4.72,3.94-4.74,2.88-.03,4.69,1.73,4.69,4.56Z"/>
  <path class="cls-7" d="M61.97,252.64c2.74,.03,4.48,1.82,4.46,4.6-.02,2.75-2.02,4.93-4.52,4.93-2.28,0-4.15-2.17-4.11-4.86,.04-2.49,1.89-5.15,4.17-4.67Z"/>
  <path class="cls-7" d="M82.68,342.81c-.02-2.64,1.7-4.71,3.92-4.72,2.86-.02,4.73,1.78,4.73,4.56,0,2.65-2.08,4.94-4.53,4.97-2.3,.03-4.1-2.07-4.12-4.81Z"/>
  <path class="cls-13" d="M72.02,432.01c0-1.19-.03-2.37,0-3.56,.03-.94,.77-1.67,1.36-.92,.78,.98,1.16,.45,1.81,.13,2.08-1.02,4.06-.12,4.63,2.14,.54,2.1,.17,4.22,0,6.33-.05,.58-.34,.95-.96,.9-.61-.05-.86-.49-.84-1.04,.05-1.37,.28-2.75,.2-4.11-.06-1.18,0-2.68-1.84-2.7-1.44-.01-2.49,1.22-2.5,2.85,0,1.25,0,2.5,0,3.75,0,.58-.03,1.2-.8,1.24-.85,.04-1-.59-1-1.26,0-1.25,0-2.5,0-3.75-.02,0-.04,0-.06,0Z"/>
  <path class="cls-13" d="M72.95,342.9c0-1.25-.05-2.5,.01-3.74,.06-1.19,.8-1.5,1.55-.64,.57,.65,.77,.35,1.29,.07,2.43-1.29,4.78-.12,5.05,2.61,.18,1.79,0,3.61-.08,5.42-.03,.62-.21,1.32-1.09,1.19-.75-.11-.75-.75-.73-1.31,.03-1.43,.17-2.87,.12-4.3-.04-1.07-.24-2.19-1.7-2.24-1.28-.04-2.49,1.1-2.52,2.4-.03,1.43,0,2.87-.02,4.3,0,.61-.19,1.15-.93,1.15-.76,0-.86-.58-.86-1.18,0-1.25,0-2.49,0-3.74-.03,0-.05,0-.08,0Z"/>
  <path class="cls-13" d="M63.15,432.15c0,1.24,.08,2.5-.03,3.73-.08,.93-.61,1.72-1.54,.8-.58-.57-.85-.14-1.25,0-1.93,.72-3.18,.26-4.19-1.54-1.24-2.22-.83-4.59-.61-6.94,.05-.5,.49-.8,.92-.75,.62,.07,.9,.53,.89,1.2-.02,1.24-.39,2.47-.12,3.72,.27,1.27,.33,2.87,2.12,2.74,1.69-.11,2.11-1.5,2.08-3-.02-1.12-.07-2.24-.07-3.36,0-.61-.07-1.37,.82-1.41,.97-.04,1.03,.75,1.05,1.44,.04,1.12,.01,2.24,.01,3.36-.02,0-.04,0-.06,0Z"/>
  <path class="cls-21" d="M55.91,342.64c0-1.12,0-2.24,0-3.35,0-.52,.09-1.01,.7-1.16,.49-.12,.96,.08,1.06,.53,.18,.83,.57,.38,.88,.21,.56-.31,1.15-.43,1.78-.4,.63,.03,1.11,.22,1.13,.94,.02,.75-.45,.95-1.09,.93-2.01-.05-2.78,.96-2.6,2.91,.09,.99,.03,1.99,0,2.98-.02,.65,.19,1.53-.81,1.58-1.11,.05-1-.92-1.03-1.62-.05-1.18-.01-2.36-.01-3.54h-.01Z"/>
  <path class="cls-13" d="M66.61,427.3c.92,1.9,2.37,.03,3.61,.38,.55,.15,.92,.41,.91,.99-.02,.59-.41,.78-.98,.89-2.71,.5-2.7,.52-2.7,3.3,0,.99,0,1.99,0,2.98,0,.62-.16,1.15-.87,1.19-.72,.04-.95-.46-.95-1.09-.01-2.55-.02-5.1-.02-7.64,0-.57,.23-.95,1.01-.99Z"/>
  <path class="cls-8" d="M75.68,32.79q-2,2.22-4.16,.02c0,1.34,0,2.41,0,3.48,0,.39-.09,.82-.56,.8-.49-.02-.47-.49-.48-.85-.01-1.55-.02-3.11-.01-4.66,0-.29-.09-.65,.33-.75,.33-.08,.59,.07,.8,.33,.63,.77,1.27,1.52,2.02,2.41,.65-.81,1.24-1.56,1.85-2.3,.18-.22,.36-.54,.74-.43,.4,.11,.38,.46,.38,.75,.01,1.55,.02,3.11,0,4.66,0,.34,.02,.84-.48,.84-.55,0-.42-.49-.42-.83,0-1.05,0-2.11,0-3.46Z"/>
  <path class="cls-5" d="M43.92,33.96c0,2.01-.9,3.25-2.32,3.19-1.32-.05-2.21-1.3-2.24-3.14-.03-1.99,.85-3.26,2.26-3.26,1.48,0,2.3,1.14,2.3,3.2Z"/>
  <path class="cls-2" d="M343.51,31.88c-.84-.46-1.09-.88-.15-1.6,2.31-1.77,6-1.83,8.34-.01,.29,.23,.91,.38,.63,.94-.28,.57-.75,.79-1.34,.33-1.82-.54-3.64-1.03-5.52-.33-.65,.25-1.27,.56-1.96,.68Z"/>
  <path class="cls-17" d="M367.17,35.34c-2.98,.73-6.07,.55-8.99,.16-1.78-.24-.48-2.56-.76-3.91-.14-.7-.37-1.85,.85-1.89,2.74-.1,5.48-.06,8.22-.02,.94,.01,.99,.76,1,1.48-.07,.39-.05,.86-.66,.79-.79-.78-1.73-1.09-2.85-1.05-1.73,.07-3.46-.05-5.18,.07-1.05,1.04-.51,2.25-.36,3.41,.12,.12,.25,.22,.41,.3,2.46,.18,4.92,.08,7.39,.05,.19-.03,.39-.04,.59-.02,.29,.11,.55,.24,.35,.62Z"/>
  <path class="cls-2" d="M69.5,36.33c.15,.51,.04,.7-.24,.79-.28,.09-.46-.07-.63-.27q-1.86-2.16-3.43-.03c-.16,.22-.31,.38-.58,.31-.4-.11-.4-.37-.27-.71,.66-1.73,1.29-3.48,1.95-5.21,.23-.6,.75-.57,.97-.11,.83,1.79,1.56,3.64,2.23,5.24Z"/>
  <path class="cls-27" d="M52.1,32.53c.2-.55-.43-1.53,.57-1.69,.96-.15,1.97-.07,2.95,.06,.38,.05,.27,.53-.06,.66-.33,.13-.73,.09-1.1,.13-.57,.06-1.37-.26-1.42,.72-.05,.97,.77,.5,1.22,.62,1.1,.29,1.68,1.01,1.73,2.13,.05,1-.48,1.69-1.41,1.94-.86,.23-1.75,.24-2.3-.68-.18-.31-.48-.68-.13-1,.39-.35,.63,0,.84,.33,.4,.63,.91,.79,1.56,.32,.46-.33,.68-.72,.44-1.27-.29-.65-.78-1.01-1.48-.72-1.9,.81-1.81-.21-1.41-1.54Z"/>
  <path d="M337.92,32.52c0,1.25-.02,2.5,0,3.75,.01,.61-.12,.91-.82,.89-.63-.02-.69-.34-.69-.83,0-2.44,.02-4.87,0-7.31,0-.61,.12-.9,.82-.89,.81,.01,.68,.54,.68,1.02,0,1.12,0,2.25,0,3.37Z"/>
  <path class="cls-27" d="M47.89,34.48c-1.31,.58-2.32,.63-3.01-.47-.55-.88-.48-1.81,.24-2.56,.83-.86,1.82-.82,2.9-.4,.56,.22,.78,.48,.77,1.05-.03,1.36-.03,2.72-.07,4.09-.01,.38,.19,.99-.49,.98-.65-.01-.5-.57-.47-.99,.03-.48,.07-.97,.13-1.69Z"/>
  <path class="cls-8" d="M57.92,36.23c1.21,0,2.11-.01,3.02,0,.3,0,.67,.05,.68,.43,.02,.4-.33,.46-.66,.48-.06,0-.13,.01-.19,0-1.24-.23-2.98,.73-3.64-.55-.72-1.4,1.23-1.86,1.91-2.8,.4-.55,1.47-1.09,.69-1.78-.77-.67-1.46-.08-1.72,.89-.05,.18-.25,.47-.57,.29-.3-.17-.41-.45-.31-.79,.24-.86,.81-1.41,1.66-1.6,.77-.17,1.48-.03,1.95,.73,.46,.75,.32,1.47-.21,2.07-.73,.82-1.55,1.57-2.6,2.63Z"/>
  <path class="cls-2" d="M346.11,32.62c-.74,.11-1.58,1.06-2.14-.26,.25-.81,.89-1.16,1.63-1.4,1.84-.6,3.58-.6,5.07,.87,.55,.41,.32,.82,0,1.24-1.59,.57-3-.7-4.55-.44Z"/>
  <path d="M335.67,34.22c0,.75-.02,1.5,0,2.25,.03,.63-.33,.69-.83,.68-.46,0-.68-.17-.68-.64,0-1.56,.02-3.12,0-4.68,0-.63,.33-.69,.83-.68,.46,0,.68,.17,.68,.64-.01,.81,0,1.62,0,2.44Z"/>
  <path class="cls-33" d="M229.12,54.37c.91,.15,1.41,.71,1.33,1.66-.07,.85-.56,1.37-1.47,1.35-.99-.02-1.54-.61-1.5-1.53,.04-.91,.62-1.46,1.64-1.48Z"/>
  <path class="cls-24" d="M67.82,335.04c-.06,.87-1.78,2.57-2.37,2.47-.6-.11-.92-.63-.71-1.07,.48-.97,1.04-2.01,2.24-2.21,.5-.08,.91,.33,.84,.81Z"/>
  <path class="cls-30" d="M333.42,35.31c0,.37-.02,.75,0,1.12,.04,.6-.26,.71-.79,.72-.61,0-.72-.3-.71-.8,.02-.75,.03-1.5,0-2.25-.02-.6,.26-.71,.8-.72,.61,0,.73,.3,.71,.8-.02,.37,0,.75,0,1.12Z"/>
  <path class="cls-18" d="M349.57,34.16c-1.15,.62-2.43-.36-3.59,.26-.05,.03-.51-.42-.5-.63,.03-.59,.64-.64,1.05-.86,1.71-.78,2.76-.36,3.05,1.23Z"/>
  <path class="cls-12" d="M350.67,31.82c-1.63-.97-3.35-1.25-5.18-.63-.37,.18-.47,0-.44-.34,2.1-.86,4.12-.91,5.94,.68-.11,.1-.22,.19-.33,.29Z"/>
  <path class="cls-30" d="M331.18,35.95c-.02,.64,.16,1.22-.75,1.22-1.08,0-.67-.77-.74-1.28-.08-.62,.02-1.03,.84-1,.98,.04,.51,.76,.66,1.07Z"/>
  <path class="cls-35" d="M349.57,34.16c-.45-1.81-1.83-1.32-3.05-1.23-.14-.1-.27-.2-.41-.31,1.01-.65,2.04-.49,3.06-.04,.48,.21,.89,.66,1.49,.47-.37,.37-.73,.73-1.1,1.1Z"/>
  <path class="cls-30" d="M328.92,36.5c.07,.6-.3,.65-.78,.66-.56,.01-.7-.23-.72-.75-.03-.71,.34-.76,.89-.77,.66,0,.63,.41,.61,.86Z"/>
  <path class="cls-24" d="M367.14,31.85c.01-.28,.07-.55,.35-.69,.84,.99,.85,1.99,.04,3-.78,.08-.43-.51-.51-.85,.03-.49,.03-.98,.11-1.46Z"/>
  <path class="cls-25" d="M347.64,36.2c-.4-.48-.82-.76-.81-1.03,.01-.43,.51-.45,.86-.39,.25,.04,.73,0,.62,.44-.08,.33-.4,.6-.67,.98Z"/>
  <path class="cls-3" d="M345.06,30.86c.15,.11,.29,.23,.44,.34-.51,.39-1.02,.77-1.52,1.16-.15-.16-.31-.32-.46-.48,.52-.34,1.03-.68,1.55-1.02Z"/>
  <path class="cls-20" d="M367.43,33.25c.09,.3-.31,.65,.11,.91-.16,.38,.13,.9-.37,1.18-.14-.15-.28-.3-.42-.45-.48-.84-.56-1.52,.69-1.63Z"/>
  <path class="cls-22" d="M50.89,36.5c.05,.44-.11,.59-.39,.64-.26,.05-.52,0-.61-.27-.13-.4,.14-.61,.46-.63,.2-.01,.4,.19,.54,.26Z"/>
  <path class="cls-23" d="M50.87,33.05c-.07,.3-.32,.34-.56,.35-.28,.01-.48-.15-.46-.43,.03-.36,.27-.52,.63-.43,.25,.06,.44,.2,.39,.51Z"/>
  <path d="M342.14,753.9c.5-.66,1.03-1.35,1.54-2.04,1.05-1.4,.57-2.72-1.12-3.13-3.15-.77-3.02-.78-3.2-4.08-.11-1.95,.66-2.5,2.4-2.55,.88-.02,1.76-.05,2.29-1.19,.57-1.22-.16-1.82-.77-2.4-1.43-1.36-1.26-2.48,.21-3.63,.49-.38,.91-.85,1.33-1.31,.88-.97,1.74-1.1,2.68-.08,.29,.31,.69,.53,1.04,.79,1.36,1.02,2.62,.43,2.91-1.28,.17-.99-.17-2.48,.92-2.82,1.58-.49,3.36-.42,4.98-.01,.83,.21,.6,1.39,.73,2.14,.45,2.73,1.51,3.28,3.54,1.54,1.43-1.23,2.51-1.34,3.67,.21,.41,.54,.92,1.02,1.43,1.48,.85,.78,.91,1.53,.08,2.37-.35,.35-.63,.77-.92,1.18-.96,1.32-.28,2.83,1.35,3.05q3.05,.41,3.05,3.41c0,.5-.02,1,0,1.5,.04,.99-.32,1.5-1.4,1.5-.67,0-1.35,.21-2.02,.33-1.32,.25-1.84,1.61-1.06,2.73,1.98,2.82,1.92,2.76-.44,5.19-1.27,1.31-2.33,1.63-3.7,.21-.6-.62-1.2-1.34-2.41-.82-1.18,.52-1.07,1.45-1.1,2.3-.06,1.88-.84,2.76-2.78,2.39-.24-.05-.5,0-.75,0q-2.68,0-3.12-2.59c-.41-2.45-1.57-3.02-3.35-1.38-1.57,1.44-2.68,1.32-3.91-.29-.67-.87-1.71-1.45-2.11-2.69Z"/>
  <path d="M190.33,745.41c0-4.68-.01-9.36,0-14.04,0-1.75,.27-1.91,1.8-1.06,8.42,4.67,16.82,9.35,25.23,14.04,1.61,.9,1.6,1.22-.06,2.15-8.36,4.66-16.72,9.31-25.09,13.95-1.57,.87-1.88,.66-1.88-1.17,0-4.62,0-9.24,0-13.86Z"/>
  <path d="M125.49,761.92c-2.56,0-5.12,.04-7.68-.01-3.61-.08-5.31-1.96-5.18-5.57,.08-2.26,.31-4.49,1.33-6.54,1.61-3.23,4.06-3.9,7.12-2.07,3.12,1.87,6.24,1.74,9.3-.19,2.48-1.57,4.76-1.08,6.32,1.46,1.69,2.77,2.11,5.86,1.77,9.01-.27,2.51-2.16,3.85-5.12,3.9-2.62,.05-5.24,.01-7.86,.01Z"/>
  <path d="M48.22,752.34c-1.11-4,.99-6.37,4.02-8.49,2.4-1.68,4.58-3.66,6.81-5.57,.58-.5,.91-.53,1.51-.03,3.34,2.81,6.72,5.58,10.1,8.34,.59,.48,.83,1,.81,1.76-.04,2.62-.02,5.25-.01,7.87,0,1.34-.45,2.11-1.98,2.04-1.99-.08-4-.06-5.99,0-.91,.03-1.19-.27-1.16-1.17,.06-1.75-.02-3.5,.03-5.25,.03-.91-.17-1.31-1.22-1.34-3.86-.14-3.86-.19-3.86,3.73s0,4.04-4.09,4c-5.53-.05-4.95,.9-4.98-4.96,0-.31,0-.62,0-.94Z"/>
  <path d="M66.2,736.77c0-.65,0-1.13,0-1.61q0-2.71,2.76-2.71,2.49,0,2.5,2.45c0,.62,.09,1.26-.01,1.87-.58,3.36,.51,5.9,3.53,7.59,.88,.49,1.44,1.1,.42,2.18-.83,.87-1.29,1.44-2.49,.4-3.95-3.44-8.04-6.72-12.01-10.13-.86-.74-1.34-.69-2.17,.01-3.94,3.36-7.95,6.63-11.89,9.99-.97,.83-1.6,1.07-2.53-.11-.85-1.08-.61-1.6,.34-2.38,4.35-3.55,8.63-7.18,12.94-10.77,1.82-1.51,2.61-1.51,4.41-.03,1.25,1.03,2.5,2.07,3.75,3.1,.05,.04,.12,.04,.46,.16Z"/>
  <path d="M132.64,740.69c-.02,3.96-3.21,7.09-7.17,7.05-3.83-.05-6.98-3.23-7-7.07-.02-3.92,3.2-7.15,7.11-7.14,3.95,0,7.07,3.18,7.06,7.16Z"/>
  <path d="M277.23,758.62c-5.49,0-10.99-.04-16.48,.03-1.23,.02-1.54-.31-1.53-1.53,.06-7.99,.03-15.99,.03-23.98,0-.77-.25-1.55,1.12-1.55,1.38,0,1.12,.79,1.12,1.56,0,7.25,.03,14.49-.03,21.74-.01,1.23,.31,1.53,1.53,1.53,10.24-.05,20.48-.03,30.71-.02,.63,0,1.53-.43,1.53,.92,0,1.07-.3,1.34-1.35,1.33-5.56-.05-11.11-.02-16.67-.02Z"/>
  <path d="M290.72,744c0,2.87-.06,5.75,.03,8.62,.04,1.22-.3,1.56-1.53,1.54-2.99-.06-3,0-3-3.03,0-5.18,.06-10.37-.04-15.55-.03-1.4,.31-1.79,1.72-1.73,2.8,.11,2.81,.02,2.81,2.85v7.31Z"/>
  <path d="M277.23,745.12c0,2.56-.05,5.12,.02,7.68,.03,1.06-.28,1.34-1.34,1.34-3.18,0-3.18,.05-3.18-3.22,0-4.43,.05-8.87-.03-13.3-.02-1.22,.3-1.56,1.53-1.54,2.99,.06,3,0,3,3.03v5.99Z"/>
  <path d="M133.74,739.38c2.36,.91,4.36,.34,6.26-.68,1.35-.72,2.13-.26,2.61,1.02,.66,1.78,.66,3.65,.58,5.52-.04,.97-.61,1.7-1.46,1.99-1.88,.66-3.77,1.14-5.53-.47-.97-.89-2.23-1.33-3.77-1.36,.94-1.91,1.59-3.81,1.31-6.02Z"/>
  <path d="M118.82,745.36c-1.82,.1-3.13,.88-4.46,1.84-1.51,1.1-3.32,.7-4.94,.04-1.35-.55-1.55-1.78-1.51-3.12,.05-1.5,.09-2.99,.64-4.4,.44-1.12,1.11-1.77,2.43-1.11,1.79,.9,3.62,1.66,5.69,.97,.64-.22,.69,.21,.68,.71-.05,1.78,.46,3.42,1.47,5.07Z"/>
  <path d="M140.88,733.52c.02,2.61-2.09,4.8-4.65,4.83-2.53,.04-4.74-2.15-4.76-4.73-.03-2.67,2-4.74,4.66-4.77,2.66-.02,4.73,2,4.75,4.67Z"/>
  <path class="cls-30" d="M110.23,733.46c.04-2.58,2.24-4.67,4.85-4.6,2.64,.06,4.68,2.18,4.64,4.82-.04,2.54-2.34,4.76-4.84,4.68-2.55-.08-4.68-2.32-4.64-4.89Z"/>
  <path d="M283.98,747.37c0,1.81-.06,3.62,.02,5.43,.05,1.06-.28,1.34-1.34,1.34-3.18,0-3.18,.05-3.18-3.03s.06-6-.03-8.99c-.04-1.23,.31-1.56,1.53-1.53,2.99,.06,2.99,0,2.99,3.03v3.75Z"/>
  <path d="M270.49,749.49v2.06c0,2.57,0,2.47-2.49,2.6-1.56,.08-2.22-.23-2.05-1.97,.19-1.92,.08-3.87,.03-5.8-.03-.91,.15-1.28,1.2-1.29,3.32-.04,3.31-.1,3.31,3.28v1.12Z"/>
  <path class="cls-32" d="M204.46,217.2c-13.39-.27-24.26-5.77-32.6-16.37-.54-.69-.79-1.33-.63-2.21,.76-4.39,2.04-8.59,4.38-12.42,2.06-3.35,4.95-5.51,8.83-6.36,.83-.18,1.37-.06,1.97,.56,9.78,10.12,26.51,10.19,36.38-.01,.61-.63,1.16-.71,1.98-.54,5.13,1.07,8.16,4.5,10.24,9,1.45,3.12,2.39,6.4,2.93,9.8,.13,.8,0,1.41-.51,2.05-8.37,10.66-19.26,16.24-32.97,16.5Z"/>
  <path class="cls-32" d="M204.52,182.91c-11.36-.02-20.54-9.27-20.5-20.63,.04-11.37,9.27-20.54,20.64-20.51,11.36,.03,20.5,9.25,20.48,20.64-.02,11.37-9.23,20.52-20.62,20.49Z"/>
  <path class="cls-32" d="M204.76,311.3c-18.1,0-36.2,.02-54.3,0-32.27-.05-64.54-.13-96.8-.21-2.18,0-4.37-.08-6.55-.06-1.26,.01-1.79-.47-1.74-1.77,.44-11.05,.34-22.1,.35-33.15,0-.82,.24-1.13,1.06-1.04,.55,.06,1.12,0,1.68,0,17.54-.02,35.08-.02,52.62-.05,27.65-.05,55.3-.29,82.94-.15,32.27,.16,64.54,.34,96.8,.09,26.9-.22,53.79,.38,80.69,.04,1.52-.02,2.09,.38,2.09,1.96-.02,10.8,0,21.59,.08,32.39,.01,1.51-.42,1.99-1.99,1.98-27.21-.05-54.43-.03-81.64-.03-25.09,0-50.18,0-75.27,0Z"/>
  <path class="cls-32" d="M204.41,360.48c25.72,0,51.43,.22,77.15-.06,26.65-.3,53.29,.38,79.94,.03,1.51-.02,2.1,.36,2.1,1.95-.02,10.73,0,21.47,.08,32.2,.01,1.63-.38,2.21-2.17,2.2-10.86-.09-21.72-.05-32.58-.04-49.62,.04-99.24,.14-148.86,.11-42.44-.03-84.88-.21-127.32-.32-1.87,0-3.74-.08-5.62-.06-1.25,.02-1.8-.44-1.75-1.76,.44-11.05,.34-22.1,.35-33.15,0-.8,.21-1.14,1.05-1.05,.55,.06,1.12,0,1.68,0,15.98-.02,31.96-.02,47.94-.05,27.02-.06,54.05-.14,81.07-.19,8.99-.02,17.97,0,26.96,0v.2Z"/>
  <path class="cls-32" d="M204.63,449.68c25.65,0,51.31,.23,76.96-.06,26.65-.3,53.29,.4,79.94,.03,1.54-.02,2.07,.41,2.07,1.98-.02,10.73,0,21.47,.08,32.2,.01,1.68-.46,2.17-2.2,2.17-34.58-.06-69.16-.06-103.74-.03-25.96,.02-51.93,.14-77.89,.11-42.38-.06-84.76-.21-127.13-.33-1.75,0-3.5-.09-5.24-.03-1.61,.06-2.19-.55-2.11-2.2,.4-8.3,.38-16.6,.36-24.91,0-2.44,.1-4.88-.02-7.3-.07-1.36,.39-1.6,1.65-1.6,22.1,.02,44.19,0,66.29-.03,22.65-.04,45.31-.13,67.96-.19,7.68-.02,15.35,0,23.03,0v.2Z"/>
  <path class="cls-32" d="M204.75,677.1c-18.1,0-36.2,.02-54.3,0-32.27-.05-64.54-.13-96.8-.21-2.25,0-4.49-.07-6.74-.07-1.1,0-1.57-.46-1.52-1.58,.42-11.11,.34-22.22,.34-33.34,0-.84,.27-1.1,1.07-1.02,.56,.06,1.12,0,1.68,0,18.54-.02,37.08-.02,55.61-.05,25.59-.05,51.18-.28,76.76-.16,32.77,.15,65.54,.36,98.3,.09,27.21-.22,54.42,.35,81.62,.07,2.78-.03,2.79,0,2.8,2.69,.03,10.17,.06,20.34,.08,30.52,0,3.05,0,3.06-3.11,3.06-41.88,0-83.77,0-125.65,0h-30.14Z"/>
  <path class="cls-14" d="M170.98,66.67c.97-2.26,2.58-3.39,4.61-3.28,1.98,.11,3.28,1.15,4.02,3.28h-8.63Z"/>
  <path class="cls-14" d="M271.22,66.63c1.05-2.04,2.46-3.32,4.69-3.23,2.02,.08,3.45,1.12,4.22,3.23h-8.9Z"/>
  <path class="cls-32" d="M196.04,68.17c.56,3.57-1.37,4.32-3.94,4.88-2.38,.52-4.39-1.46-3.99-3.82,.36-2.15,1.41-3.99,3.22-5.26,2.38-1.66,4.36-.71,4.61,2.15,.06,.68,.07,1.37,.11,2.05Z"/>
  <path class="cls-32" d="M241.17,63c2.7,0,4.35,1.78,4.35,4.68,0,2.69-1.81,4.75-4.17,4.76-2.5,.01-4.09-1.94-4.05-4.97,.03-2.68,1.58-4.47,3.87-4.47Z"/>
  <path class="cls-32" d="M126.85,63c2.62,.02,4.37,1.97,4.29,4.79-.07,2.61-1.99,4.68-4.33,4.65-2.41-.03-3.94-1.93-3.93-4.9,0-2.81,1.54-4.56,3.97-4.54Z"/>
  <path class="cls-15" d="M46.92,338.63c.18-.73-.53-1.97,1.21-2.06,2.56-.13,4.07,.43,4.39,1.86,.2,.86-.09,1.49-.88,1.82-.86,.36-1.78,.51-2.73,.5-2.01-.01-2.01,.01-2-2.12Z"/>
  <path class="cls-15" d="M63.72,342.16c.59-1.31,1.46-1.9,2.76-1.86,1.21,.04,2.01,.63,2.57,1.86h-5.33Z"/>
  <path class="cls-34" d="M86.12,434.8c-1.43,.03-2.47-1.17-2.49-2.88-.02-1.57,.96-2.73,2.32-2.76,1.62-.03,2.58,.95,2.6,2.68,.02,1.64-1.03,2.93-2.43,2.96Z"/>
  <path class="cls-34" d="M62.07,260.14c-1.41,0-2.44-1.26-2.42-2.95,.01-1.6,.98-2.69,2.39-2.69,1.6,0,2.54,1.02,2.53,2.75,0,1.65-1.09,2.89-2.51,2.89Z"/>
  <path class="cls-34" d="M86.84,339.96c1.55-.02,2.61,1.05,2.65,2.69,.03,1.51-1.15,2.92-2.49,2.95-1.47,.04-2.42-1.08-2.43-2.88-.01-1.71,.83-2.74,2.27-2.76Z"/>
  <path class="cls-4" d="M40.3,33.58c.26-.8,.02-2.09,1.38-2.02,1.43,.07,1.23,1.37,1.24,2.28,.01,.88,0,2.16-1.27,2.1-1.3-.06-1.17-1.39-1.36-2.36Z"/>
  <path class="cls-16" d="M367.43,33.25c-.91,.26-.59,1.03-.69,1.63h0c-2.87,.36-5.74,.26-8.62,.04l-.02-.02c-.21-1.5-.31-3.01,.05-4.5,2.18,0,4.37,.08,6.54-.04,1.27-.07,2.15,.12,2.44,1.49,.4,.4,.12,.95,.29,1.4Z"/>
  <path class="cls-20" d="M358.14,34.92c2.87-.02,5.74-.03,8.62-.05-2.87,.68-5.74,.6-8.62,.05Z"/>
  <path class="cls-20" d="M358.16,30.4c-.02,1.5-.03,3-.05,4.5-.54-1.51-.62-3.01,.05-4.5Z"/>
  <path class="cls-29" d="M66.84,32.75c.17,.55,1.07,.96,.36,1.59-.13,.12-.55,.11-.68,0-.7-.65,.2-1.03,.32-1.58Z"/>
  <path class="cls-1" d="M46.79,31.8c.4,.06,.98-.05,.88,.75-.09,.66-.28,1.21-1.07,1.28-.7,.07-1.08-.27-1.08-.94,0-.74,.46-1.11,1.26-1.1Z"/>
  <path class="cls-32" d="M354.9,750.44c-2.96,.02-5.09-2.04-5.12-4.95-.03-2.97,2.19-5.26,5.08-5.25,2.77,.01,5.07,2.33,5.1,5.11,.03,2.8-2.23,5.06-5.06,5.08Z"/>
  <path class="cls-30" d="M219.02,659.67c.77,2.26,2.82,2.99,5.36,2,.79-.31,1.72-1.02,2.18,.21,.45,1.22-.67,1.57-1.55,1.88-4.81,1.7-8.89-1.1-8.45-5.78,.25-2.66,2.73-4.92,5.44-4.97,2.59-.05,4.94,1.93,5.4,4.53,.26,1.48-.18,2.23-1.84,2.15-2.16-.1-4.32-.02-6.53-.02Z"/>
  <path class="cls-30" d="M212.05,653.49c0-.82-.01-1.62,0-2.42,.02-.78-.22-1.81,.96-1.86,1.29-.05,1.17,1.06,1.2,1.9,.06,1.49,.04,2.99,.05,4.48,.01,2.37,.05,4.73,.02,7.1-.02,1.28-.55,2.02-1.81,1.05-.61-.47-.92,.01-1.32,.14-1.94,.6-3.68,.42-5.13-1.12-1.58-1.69-1.97-4.66-.89-6.81,.95-1.89,2.47-2.92,4.64-2.81,.72,.04,1.43,.21,2.28,.33Z"/>
  <path class="cls-30" d="M192.82,660.56c0,.81,.05,1.62-.01,2.42-.08,.88-.84,1.67-1.44,1.04-.98-1.03-1.55-.29-2.36,0-3.31,1.14-6.66-1.58-6.11-5.05,.4-2.5,1.75-4.52,4.12-5.65,2.61-1.24,5.26,.29,5.54,3.16,.13,1.36,.21,2.72,.32,4.09-.02,0-.04,0-.05,0Z"/>
  <path class="cls-30" d="M177.3,660.22c1.33-3.42,2.52-6.52,3.75-9.61,.31-.79,.62-1.87,1.79-1.35,1.18,.53,.48,1.47,.18,2.24-1.46,3.77-2.92,7.53-4.42,11.29-.24,.59-.35,1.4-1.28,1.39-.89,0-1.12-.74-1.36-1.35-1.55-4-3.06-8.01-4.58-12.02-.28-.73-.23-1.4,.65-1.63,.85-.22,1.2,.33,1.46,1.06,.96,2.69,1.96,5.37,2.95,8.05,.21,.56,.48,1.1,.85,1.92Z"/>
  <path class="cls-21" d="M197.45,656.86c0,1.93,0,3.86,0,5.79,0,.83-.16,1.56-1.18,1.5-.89-.05-1.01-.75-1.01-1.49,0-3.92,0-7.84,0-11.76,0-.86,.09-1.74,1.21-1.69,1.04,.05,.98,.93,.98,1.68,0,1.99,0,3.98,0,5.97Z"/>
  <path class="cls-6" d="M229.41,658.4c0-1.37,0-2.74,0-4.12,0-.6,.14-1.17,.8-1.32,.6-.14,1.18,.05,1.28,.73,.12,.81,.4,.47,.77,.21,.74-.52,1.58-.68,2.48-.6,.72,.07,1.21,.4,1.2,1.15-.02,.66-.52,.9-1.12,1.03q-3.23,.67-3.22,3.86c0,1.18,0,2.37,0,3.55,0,.71-.22,1.26-1.03,1.25-.82,0-1.03-.6-1.03-1.28-.02-1.49,0-2.99,0-4.48-.04,0-.07,0-.11,0Z"/>
  <path class="cls-33" d="M202.29,658.44c0,1.43,0,2.86,0,4.29,0,.74-.18,1.41-1.09,1.42-.89,0-1.12-.62-1.11-1.39,.01-2.8,.02-5.59,.04-8.39,0-.75,.23-1.4,1.11-1.42,.91-.02,1.09,.63,1.08,1.39,0,1.37,0,2.73,0,4.1,0,0-.02,0-.03,0Z"/>
  <path class="cls-2" d="M202.45,650.4c-.06,.79-.34,1.37-1.19,1.4-.84,.03-1.23-.48-1.25-1.26-.02-.76,.31-1.31,1.16-1.36,.86-.04,1.16,.53,1.29,1.22Z"/>
  <path class="cls-33" d="M361.54,34.5c-.25,0-.5,0-.75,0-2.23,0-2.77-.77-2.26-3.01,.17-.74,.63-.64,1.1-.64,1.24,0,2.49,.05,3.73-.02,.92-.05,1.13,.32,1.15,1.19,.07,2.49,.12,2.49-2.97,2.49Z"/>
  <path class="cls-16" d="M225.03,657.5c-1.8,0-3.41,0-5.01,0-.27,0-.64,.15-.8-.24-.15-.37,.17-.56,.35-.79,1.56-1.96,4.16-1.57,5.47,1.04Z"/>
  <path class="cls-14" d="M212.12,658.66c.01,2.42-.83,3.48-2.73,3.47-1.59-.02-2.63-1.34-2.64-3.39-.02-2.11,1.19-3.58,2.92-3.56,1.81,.03,2.44,.92,2.45,3.48Z"/>
  <path class="cls-34" d="M190.68,659.35c.2,1.04-.52,1.78-1.65,2.29-1.15,.51-2.31,.63-3.31-.23-1-.86-.84-1.99-.39-3.08,.19-.46,.39-.92,.67-1.32,.77-1.11,1.71-2.07,3.21-1.8,1.58,.29,1.06,1.73,1.33,2.73,.1,.36,.08,.74,.15,1.42Z"/>
</svg>