<?xml version="1.0" encoding="UTF-8"?>
<svg id="Calque_1" data-name="Calque 1" xmlns="http://www.w3.org/2000/svg" viewBox="0 0 409.5 805.5">
  <defs>
    <style>
      .cls-1 {
        fill: #f0f0f0;
      }

      .cls-2 {
        fill: #090909;
      }

      .cls-3 {
        fill: #cbcbcb;
      }

      .cls-4 {
        fill: #fafafa;
      }

      .cls-5 {
        fill: #f6f6f6;
      }

      .cls-6 {
        fill: #0c0c0c;
      }

      .cls-7 {
        fill: #040404;
      }

      .cls-8 {
        fill: #020202;
      }

      .cls-9 {
        fill: #d6d6d6;
      }

      .cls-10 {
        fill: #0a0a0a;
      }

      .cls-11 {
        fill: #2f2f2f;
      }

      .cls-12 {
        fill: #dedede;
      }

      .cls-13 {
        fill: #313131;
      }

      .cls-14 {
        fill: #e7e7e7;
      }

      .cls-15 {
        fill: #030303;
      }

      .cls-16 {
        fill: #fdfdfd;
      }

      .cls-17 {
        fill: #fbfbfb;
      }

      .cls-18 {
        fill: #f9f9f9;
      }

      .cls-19 {
        fill: #171717;
      }

      .cls-20 {
        fill: #0e0e0e;
      }

      .cls-21 {
        fill: #bebebe;
      }

      .cls-22 {
        fill: #202020;
      }

      .cls-23 {
        fill: #050505;
      }

      .cls-24 {
        fill: #353535;
      }

      .cls-25 {
        fill: #292929;
      }

      .cls-26 {
        fill: #0b0b0b;
      }

      .cls-27 {
        fill: #efefef;
      }

      .cls-28 {
        fill: #191919;
      }

      .cls-29 {
        fill: #bfbebe;
      }

      .cls-30 {
        fill: #070707;
      }

      .cls-31 {
        fill: #b5b5b5;
      }

      .cls-32 {
        fill: #f8f8f8;
      }

      .cls-33 {
        fill: #d2d2d2;
      }

      .cls-34 {
        fill: #010101;
      }

      .cls-35 {
        fill: #c0bfbf;
      }

      .cls-36 {
        fill: #fefefe;
      }

      .cls-37 {
        fill: #060606;
      }

      .cls-38 {
        fill: #fcfcfc;
      }

      .cls-39 {
        fill: #ededed;
      }
    </style>
  </defs>
  <path class="cls-36" d="M144.25,.04C232.1,.04,319.94,.04,407.78,0c1.4,0,1.72,.32,1.72,1.72-.04,267.35-.04,534.7,0,802.05,0,1.41-.32,1.72-1.72,1.72-135.35-.04-270.71-.04-406.06,0-1.4,0-1.72-.32-1.72-1.72C.04,572.6,.03,341.41,.03,110.23c.26-.11,.47-.06,.65,.16,1.31,1.84,1.9,3.85,1.85,6.14-.1,4.62-.04,9.24-.02,13.87,0,1.33-.13,2.61-.88,3.77-.56,.88-.62,1.88-.62,2.89,0,13.55,0,27.11,0,40.66,0,1.08,.14,2.11,.78,3.03,.68,.97,.72,2.11,.72,3.24,0,1.75,0,3.5,0,5.25,0,1.08-.12,2.12-.91,2.97-.61,.65-.57,1.5-.58,2.3-.02,13.99-.02,27.98,0,41.97,0,.75-.05,1.55,.37,2.19,1.21,1.85,1.12,3.91,1.12,5.97,0,37.85,.33,75.7-.09,113.55-.46,41.47-.2,82.94-.19,124.4,0,11.48,.06,22.97,.3,34.46,.79,37.53,.54,75.07,.23,112.6-.33,39.16-.01,78.31-.26,117.47-.04,6.69,.05,13.36,1.17,19.98,1.44,8.45,4.72,16.07,10.51,22.43,5.48,6.02,12.4,9.79,20.22,11.92,5.57,1.52,11.24,2.17,17.01,2.33,46.3,1.33,92.62,.88,138.93,.6,37.89-.23,75.78-.03,113.66-.25,.75,0,1.5-.04,2.24,.05,.24,0,.48,0,.72,0,.87-.1,1.75-.06,2.62-.04,13.17,.24,26.33-.36,39.49-.47,9.4-.08,18.83-.39,28.18-1.68,10.48-1.45,17.95-7.31,23.23-16.23,3.62-6.13,4.69-12.95,5.4-19.9,.69-6.79,.71-13.58,.75-20.39,.13-18.67,.15-37.34,.47-56,.3-17.11,.21-34.22,.23-51.32,.08-57.83,.36-115.67-.06-173.5-.47-64.76,.15-129.52-.39-194.28-.19-23.48-.05-46.95-.28-70.43-.02-1.89-.04-3.73,1.41-5.26,.58-.61,.46-1.53,.46-2.34,.01-13.3,0-26.61,.01-39.91,0-1.22-.19-2.35-1.04-3.3-.62-.68-.79-1.54-.81-2.44-.03-.87-.02-1.75-.02-2.62,0-31.6,.07-63.2-.04-94.81-.03-9.15-1.67-18.04-6.27-26.14-6.46-11.37-16.47-17.79-29.03-20.54-4.89-1.07-9.84-1.58-14.86-1.58-69.41,.02-138.83,.01-208.24,0-1.25,0-2.53,.21-3.72-.36-.24-.15-.3-.35-.19-.61Z"/>
  <path class="cls-36" d="M.03,87.37C.03,58.79,.05,30.22,0,1.64,0,.32,.23,0,1.61,0,23.94,.06,46.26,.04,68.59,.04c.12,.22,.07,.41-.13,.56-.81,.46-1.7,.34-2.56,.35-5.74,.01-11.48-.14-17.21,.05-4.65,.16-9.41,.07-13.81,1.95-9.15,3.89-17.79,8.56-23.79,16.89-4.41,6.12-6.55,13.13-7.83,20.45-.56,3.2-.84,6.42-.83,9.68,.04,11.04,0,22.09,.04,33.13,0,1.76-.37,3.19-1.83,4.24-.19,.14-.4,.15-.6,.03Z"/>
  <path class="cls-21" d="M75.7,.04h42.33c.11,.26,.05,.46-.19,.6-1.18,.56-2.44,.34-3.67,.35-3.04,0-6.07,.07-9.11-.03-.24,0-.48,0-.72,0-8.87,.11-17.75,.03-26.62,.04-.62,0-1.24-.03-1.81-.34-.25-.15-.32-.35-.21-.62Z"/>
  <path class="cls-12" d="M118.04,.36c-.01-.11-.02-.21,0-.32h26.22c0,.11,0,.21,0,.32-.67,.76-1.59,.65-2.44,.65-7.11,.02-14.22,.02-21.34,0-.86,0-1.77,.1-2.44-.65Z"/>
  <path class="cls-12" d="M.34,110.24l-.15,.02-.15-.03v-19.86c.27-.11,.47-.04,.62,.21,.4,.75,.35,1.56,.35,2.36,.01,4.9,.02,9.79,0,14.69,0,.91,.16,1.89-.66,2.61Z"/>
  <path class="cls-12" d="M75.7,.04c0,.1,0,.21-.01,.31-2.37,1.04-4.75,1.05-7.12,0,0-.1,0-.2,.01-.31h7.12Z"/>
  <path class="cls-31" d="M.34,90.38H.19s-.15-.01-.15-.01v-3c.11,0,.23,0,.34-.02,.78,1.02,.81,2.03-.03,3.03Z"/>
  <path class="cls-34" d="M118.04,.36c8.74,0,17.48,0,26.22,0,10.61,.03,21.22,.06,31.83,.07,30.34,.03,60.68,.05,91.01,.06,30.65,0,61.3-.09,91.95,.06,10.52,.05,20.51,2.53,29.34,8.6,9.48,6.52,14.85,15.73,17.31,26.8,1.05,4.71,1.47,9.5,1.48,14.31,.02,31.98,.01,63.96,0,95.93,0,1.17-.16,2.31,1.22,3,.71,.35,.69,1.25,.69,2.02,0,14.05,0,28.11,0,42.16,0,.7,.07,1.57-.56,1.89-1.53,.75-1.3,2.02-1.3,3.31,.04,22.36,.06,44.71,.1,67.07,.04,26.73,.1,53.46,.15,80.19,.06,31.54,.04,63.08,.19,94.62,.26,52.9,.16,105.8,.17,158.7,0,28.73,.03,57.46-.09,86.19-.09,23.23-.29,46.46-.62,69.68-.11,7.48-.48,15.02-2.55,22.26-3.38,11.84-10.6,20.34-22.51,24.3-5.02,1.67-10.35,1.69-15.56,1.96-19.7,1.03-39.42,1.02-59.14,1.19-.19,0-.37-.03-.56-.05-.73-1.01-.67-2.03-.08-3.07,.59-.44,1.28-.45,1.97-.47,.81-.02,1.62-.03,2.43,0,9.11,.26,18.22-.21,27.31-.49,8.17-.25,16.34-.04,24.51-.28,4.24-.12,8.45-.54,12.66-1.11,7.4-1,12.83-5.2,17.55-10.57,5.73-6.5,8.11-14.34,8.95-22.79,.43-4.36,.37-8.73,.37-13.09,0-26.48-.29-52.95,.09-79.42,.31-21.66,.12-43.32,.29-64.98,0-.81,0-1.62,.17-2.43,.39-1.22,.25-2.48,.25-3.72,0-116.63,0-233.26,0-349.9,0-1-.05-2,.05-2.99,.08-.75,.28-1.42,1-1.35-.84,.03-.99-.8-1.03-1.68-.06-1.25-.03-2.5-.03-3.75,0-9.55,0-19.11,0-28.66,0-.94,.04-1.87-.26-2.78-.37-4.11-.07-8.24-.18-12.35-.81-31.71,.08-63.44-.47-95.15-.33-19.23-.22-38.46-.22-57.69,0-10.12-3.56-18.66-10.04-26.12-7.41-8.53-16.73-13.74-27.99-15.19-3.33-.43-6.7-.63-10.08-.63-81.77,0-163.53,0-245.3,0-1.29,0-2.63,.25-3.86-.43-.71-1.03-.73-2.07,0-3.1,4.37-.04,8.74-.07,13.1-.11Z"/>
  <path class="cls-34" d="M.34,90.38c0-1.01,.02-2.02,.03-3.03,2.52-2.87,1.46-6.35,1.5-9.59,.12-10.17-.22-20.35,.15-30.51,.37-10.17,2.88-19.84,8.99-28.25,4.32-5.95,10.41-9.68,16.62-13.36C34.97,1.28,42.92,.38,51.18,.44c5.8,.05,11.6-.06,17.4-.1,2.37,0,4.74,0,7.12,0,8.56,.02,17.12,.04,25.68,.06,1.05,0,2.11,.03,3.16,.05,.33,1.02,.31,2.04,0,3.07-.71,.52-1.54,.46-2.34,.46-15.35,0-30.71,.2-46.06-.1-5.55-.11-10.96,.17-16.3,1.52-16.3,4.11-26.39,14.66-31.27,30.49-1.33,4.31-1.83,8.77-1.99,13.29-.77,21.97-.52,43.95-.22,65.92,.28,20.29,.45,40.58,.14,60.86-.35,23.04-.04,46.07-.27,69.11,0,.87,.09,1.76-.37,2.56-.62,.63-1.47,.09-2.31,.44-.09,.02,.25,.35,.13,.12-.05-.1-.02-.16,.08-.16,.74-.04,1.53-.38,2.16,.34,.53,1.26,.33,2.59,.33,3.89,0,83.57-.27,167.13,.12,250.7,.2,43.84,.44,87.68,.14,131.51-.26,38.16-.03,76.31-.26,114.46,0,.87,.06,1.75-.29,2.59-.62,.86-1.46,.45-2.3,.41,.72,.32,1.56-.18,2.18,.41,.59,1.99,.64,4.06,.73,6.1,.47,10.61,3.57,20.24,10.57,28.39,5.38,6.26,12.26,10.14,20.14,12.31,4.71,1.3,9.51,1.98,14.42,1.98,83.62-.02,167.24-.01,250.86,0,1.29,0,2.63-.28,3.85,.44,.35,1.03,.32,2.07,.03,3.11-.56,.03-1.12,.07-1.68,.08-17.79,.02-35.58,.03-53.38,.05-18.1,.02-36.21,.05-54.31,.07-38.95,.05-77.91,.23-116.86,.09-11.72-.04-23.47-.14-35.17-1.02-9.4-.71-18.2-3.49-25.9-9.19-8.19-6.06-12.92-14.34-15.35-24.08-1.35-5.42-1.87-10.95-1.88-16.52-.02-35.92-.1-71.83,.07-107.75,.18-37.47,.57-74.95,.19-112.42-.44-44.03-.86-88.05-.67-132.08,.22-53.09,.48-106.18,.4-159.26,0-1.14-.01-2.19-.84-3.13-.59-.66-.68-1.56-.68-2.47,.02-14.49,.01-28.98,.01-43.47,0-.87-.14-1.8,1.05-2.1,.73-.18,.43-.81,.43-1.24,.03-2.56,.02-5.12,0-7.68,0-.42,.2-.99-.22-1.23-1.59-.92-1.24-2.43-1.24-3.83-.01-13.87-.01-27.73-.02-41.6,0-.56-.13-1.23,.34-1.59,1.5-1.15,1.14-2.75,1.15-4.26,.02-4.18-.21-8.38,.08-12.55,.19-2.69-.78-4.92-1.64-7.27,0-6.62,0-13.24,0-19.86Z"/>
  <path class="cls-13" d="M306.45,804.7c0-.97,0-1.95-.01-2.92,.14-.13,.27-.13,.41,0,0,.97,0,1.94-.01,2.91-.13,0-.26,0-.39,.01Z"/>
  <path class="cls-13" d="M104.53,3.37c0-.97,0-1.94,0-2.91,.14,0,.27,0,.41,0,0,.97,0,1.94,0,2.91-.13,.11-.27,.12-.4,0Z"/>
  <path class="cls-35" d="M104.53,3.37c.13,0,.27,0,.4,0,9.3,.03,18.6,.09,27.9,.1,66.74,.02,133.47,.04,200.21,.05,9.3,0,18.6-.29,27.89,.19,17.91,.94,34.26,13.15,40.12,30.09,1.58,4.56,1.76,9.3,1.77,14.05,.02,12.49-.02,24.98,.01,37.48,.06,20.36,.29,40.72,.18,61.08-.08,14.49-.11,28.98,.2,43.46,.15,7.05,.21,14.11,.33,21.16,.19,.68,.1,1.37,.1,2.05,0,130.32,0,260.64,0,390.96,0,.68,.11,1.37-.11,2.05-.04,10.99-.09,21.97-.13,32.96-.09,27.03-.17,54.05-.25,81.08-.04,13.54,.11,27.09-.12,40.63-.15,8.61-1.47,17.1-6.49,24.42-5.31,7.74-11.94,13.69-21.85,14.82-4.72,.54-9.43,.96-14.17,.94-17.9-.11-35.79,.87-53.69,.85h-.41c-.81-.02-1.62-.06-2.43-.06-83.77,0-167.53,0-251.3,0-8.41,0-16.52-1.39-24.06-5.25-11.86-6.06-18.59-16-21.49-28.81-1.16-5.09-1.21-10.27-1.48-15.43-.24-.12-.24-.24,0-.36,.03-.75,.09-1.49,.09-2.24,0-31.16-.03-62.32,.01-93.49,.05-36.22,.31-72.44,.25-108.65-.09-49.58-.61-99.16-.49-148.74,.08-32.53,.12-65.07,.18-97.6,.03-17.05,.04-34.1,.05-51.14,0-.62-.06-1.24-.09-1.87-.24-.12-.24-.24,0-.36,.03-.75,.09-1.49,.09-2.24,0-20.3-.17-40.59,.05-60.89,.23-21.1,.05-42.21,.08-63.31,.04-21.42-.11-42.84-.11-64.25,0-6.55,.12-13.1,1.71-19.53C12.1,18.86,26.18,6.24,45.22,3.71c3.74-.5,7.46-.39,11.2-.36,15.85,.09,31.71,.07,47.56,.08,.19,0,.37-.04,.56-.06Z"/>
  <path class="cls-13" d="M403.54,606.09c0-10.11,0-20.23,0-30.34,0-.75,.02-1.5,.02-2.25,0-110.15,0-220.29,0-330.44,0-9.99-.05-19.98-.08-29.97,0-.68,.05-1.37,.08-2.05,.5,.6,.28,1.32,.28,1.98,.03,10.56,.04,21.11,.06,31.67q0,2.86,2.61,3.28-2.61,.41-2.61,3.28c0,107.19,0,214.38,0,321.57,0,10.43-.03,20.86-.05,31.29,0,.67,.2,1.38-.3,1.98Z"/>
  <path class="cls-11" d="M5.67,247.78c0,.12,0,.24,0,.36-.76-.06-1.55,.17-2.37-.18,.82-.35,1.61-.12,2.37-.18Z"/>
  <path class="cls-11" d="M5.67,751.88c0,.12,0,.24,0,.36-.76-.06-1.55,.17-2.37-.18,.82-.35,1.61-.12,2.37-.18Z"/>
  <path class="cls-34" d="M49.76,789.79c-13.61-.81-23.44-7.46-29.74-19.44-.77-1.46-1.06-3.16-2.05-4.56-.49-.7-.71-1.59-.71-2.49,.01-3.68,.03-7.36,.05-11.04,.88-.43,1.82-.07,2.62-.21-.8-.12-1.74,.23-2.62-.2-.02-.81-.06-1.62-.06-2.43,0-109.5,0-218.99,0-328.49,0-56.84-.02-113.68-.02-170.52,0-.75,.04-1.5,.06-2.24,.89-.42,1.83-.07,2.64-.2-.81-.12-1.75,.22-2.64-.2-.02-12.3-.07-24.61-.06-36.91,.01-12.87,.05-25.73,.14-38.6,.19-26.67,.34-53.33,.22-80-.05-11.61-.5-23.23-.27-34.84,.15-7.37,.11-14.9,3.31-21.85,4.76-10.32,12.48-16.97,23.73-19.58,3.66-.85,7.25-.93,10.91-.93,8.49,0,16.98,0,25.47,0,4.38,0,6.65,2.19,6.9,6.6,.1,1.68,.19,3.37,.37,5.04,.65,5.9,4.71,10.01,10.6,10.84,1.99,.28,3.98,.33,5.98,.33,67.79,0,135.59,0,203.38,0,.81,0,1.62-.02,2.43-.08,5.25-.41,7.86-2.52,9.54-7.49,1.25-3.7,1.01-7.52,1.13-11.31,.11-3.48,.19-3.57,3.61-3.6,11.55-.09,23.09-.17,34.64-.29,6.85-.07,13.47,.84,19.28,4.81,7.19,4.92,11.43,11.63,12.16,20.47,.65,7.92,.35,15.85,.38,23.78,.18,37.22,.27,74.44,.4,111.67,.09,23.29,.21,46.59,.31,69.88,0,.69-.04,1.37-.06,2.06-.88,.43-1.82,.07-2.62,.21,.8,.12,1.74-.23,2.62,.2,.04,9.24,.12,18.48,.11,27.73-.02,36.54-.06,73.08-.12,109.61-.05,28.29-.2,56.58-.23,84.87-.02,20.49,.06,40.97,.1,61.46,.03,16.93,.11,33.85,.08,50.78-.07,37.35-.07,74.7-.37,112.05-.17,21.79-.75,43.58-.67,65.38,.05,14.25-8.75,23.81-22.3,28.16-2.97,.95-5.97,1.52-9.15,1.53-10.55,.02-21.09,.25-31.64,.39-.68,0-1.37-.06-2.05-.09-.8-.24-1.61-.11-2.42-.11-90.32,0-180.64,0-270.96-.01-.81,0-1.62,.12-2.42-.11Z"/>
  <path class="cls-34" d="M204.11,29.59c-5.36,0-10.72,0-16.08,0-.68,0-1.37-.03-2.05-.13-2.64-.4-3.32-1.01-3.47-3.09-.19-2.65,.76-4.23,2.98-4.96,1.39-.45,2.83-.44,4.26-.44,9.98-.01,19.96,0,29.93,0,1.19,0,2.38,.01,3.5,.47,1.69,.68,2.6,2.03,2.53,3.77-.07,1.68-1.06,2.87-2.76,3.38-.85,.25-1.71,.33-2.59,.31-5.43-.13-10.85,0-16.27,.69Z"/>
  <path class="cls-11" d="M49.76,789.79c1.06-.03,2.11-.09,3.17-.09,83.71,0,167.41,0,251.12-.04,.81,0,2.1,.76,2.43-.86,.04-.18,.25-.32,.31-.05,.35,1.75,1.72,.88,2.58,.9,4.74,.09,9.49,.03,14.23,.05,.66,0,1.38-.24,1.96,.32-6.99,.01-13.98,.03-20.97,.03-83.77,0-167.54,0-251.32,0-1.17,0-2.37,.18-3.51-.26Z"/>
  <path class="cls-34" d="M239.52,30.26c-3.98,.18-6.19-2.5-5.41-6.47,.13-.67,.21-1.36,.38-2.02,.88-3.39,4.14-4.92,7.28-3.43,1.9,.9,3.54,2.1,4.59,3.97,2.07,3.66-.41,7.91-4.61,7.95-.74,0-1.49,0-2.23,0Z"/>
  <path class="cls-13" d="M17.31,247.76h2.55v.4h-2.55v-.4Z"/>
  <path class="cls-13" d="M391.8,248.17h-2.53c0-.14,0-.28-.01-.41h2.55c0,.14,0,.28,0,.41Z"/>
  <path class="cls-13" d="M17.32,751.85h2.53c0,.14,0,.28,.01,.41h-2.55c0-.14,0-.28,0-.41Z"/>
  <path class="cls-16" d="M21.42,97.85c-.2-11.74,.18-23.48,.36-35.21,.08-5.37,.08-10.75,.38-16.1,.66-11.84,6.21-20.59,17.03-25.66,4-1.88,8.41-2.21,12.81-2.2,8.8,0,17.61,.11,26.41,0,3.3-.04,4.71,.27,5.14,5.2,.28,3.24,.39,6.48,1.89,9.46,.14,.28,.27,.56,.4,.85,1.93,4.5,5.28,6.68,10.22,7.16,6.37,.61,12.71,.44,19.07,.41,8.61-.04,17.23-.09,25.84-.11,24.22-.05,48.45,.09,72.66-.16,31.46-.33,62.92-.1,94.39-.3,8.07-.05,13.71-3.92,16.17-10.69,.82-2.27,.95-4.62,.95-7,0-4.2,.45-4.63,4.58-4.64,10.36-.04,20.72-.09,31.09-.12,5.3-.02,10.44,.75,15.01,3.66,6,3.83,9.04,9.61,10.43,16.4,.67,3.26,.82,6.56,.82,9.87,0,193.51,0,387.03,0,580.54,0,19.86-.1,39.72-.17,59.59-.02,6.81-.14,13.61-.1,20.42,0,1.49-.39,1.62-1.77,1.53-9.78-.61-19.59-.41-29.38-.47-32.4-.19-64.79-.3-97.19-.48-77.16-.42-154.32-.19-231.48-.26-.81,0-1.64-.1-2.43,.02-1.92,.29-2.45-.37-2.45-2.36,.05-166.59,.07-333.18,.02-499.77,0-24.1-.34-48.21-.51-72.31-.08-11.62-.14-23.23-.2-34.85,0-.57-.27-1.33,.76-1.33,.36-.3,.79-.35,1.23-.34,27.4,.41,54.8-.08,82.2,.2,75.34,.78,150.68,.1,226.01,.36,8.49,.03,16.99-.26,25.46,.12,8.67,.39,17.34-.05,26,.25-16.03-.43-32.08-.05-48.11-.4-20.41-.46-40.82-.07-61.22-.25-4.56-.04-9.11,.04-13.67-.01-78.33-.85-156.67-.13-235-.38-1.23,0-2.52,.24-3.62-.61Z"/>
  <path class="cls-36" d="M204.34,786.66c-50.69,0-101.38,0-152.07,0-13.04,0-23.2-6.71-28.09-18.56-1.44-3.49-2.08-7.16-2.08-10.95,.02-15.11,.02-30.23-.02-45.34,0-1.32,.21-1.6,1.63-1.39,5.57,.83,11.21,.49,16.82,.52,23.47,.12,46.94,.16,70.41,.2,59.61,.1,119.23,.18,178.84,.27,23.35,.03,46.69,.06,70.04,.12,8.36,.02,16.72,.16,25.09,.18,1.37,0,1.88,.27,1.87,1.82-.12,14.49-.11,28.98-.19,43.47-.04,8.09-2.27,15.38-8.13,21.24-5.87,5.88-13.06,8.45-21.29,8.45-50.94-.01-101.88,0-152.82,0Z"/>
  <path class="cls-34" d="M21.42,97.85c28.9,0,57.81,0,86.71,.01,35.83,.01,71.67,0,107.5,.07,33.71,.07,67.41,.21,101.12,.37,20.72,.1,41.44,.31,62.16,.5,2.07,.02,4.14,.17,6.23,.81-.33,.68-.74,.5-1.05,.5-16.91-.1-33.83-.29-50.74-.31-47.07-.07-94.14-.07-141.21-.11-19.6-.02-39.2-.03-58.8-.09-32.02-.09-64.04-.19-96.07-.34-5.05-.02-10.11,.19-15.14-.36-.66-.83-1.13,.42-1.79,.16-.6-.23-1.55-.06-1.46-1.01,.08-.9,.95-.53,1.5-.54,.35,0,.69,.21,1.04,.33Z"/>
  <path class="cls-35" d="M203.53,26.91c-4.86,0-9.72,.05-14.57-.04-.92-.02-2.58,.73-2.65-1.01-.08-1.97,1.69-1.65,2.92-1.64,5.54,0,11.09,.12,16.63,.1,4.3-.01,8.6,.2,12.89-.19,1.08-.1,2.81-.15,2.85,.99,.04,1.17-1.68,1.15-2.75,1.15-5.11-.01-10.22,0-15.32,.65Z"/>
  <path class="cls-29" d="M239.39,27.77c-1.73-.03-2.28-.76-2.21-2.89,.06-1.89,1.88-4.24,3.3-4.25,1.33-.01,3.28,2.23,3.33,3.83,.04,1.42-2.52,3.34-4.42,3.31Z"/>
  <path d="M204.79,278.57c41.44,0,82.89-.02,124.33,.01,11.35,0,22.71,.18,34.06,.23,1.21,0,1.7,.32,1.86,1.6,.6,4.79,.7,9.59,.54,14.39-.22,6.49-.39,12.98,.03,19.47,.03,.5,.06,1,0,1.5-.3,2.66-.45,2.73-3.1,2.54-1.62-.12-3.24-.09-4.87-.09-31.4,.03-62.79-.11-94.19,.14-25.9,.2-51.8,.17-77.7,.13-32.95-.05-65.91-.18-98.86-.32-13.73-.06-27.46-.25-41.19-.29-1.62,0-2.19-.47-2.15-2.06,.08-2.81-.09-5.62,.06-8.42,.45-8.55,.43-17.09,0-25.65-.15-2.95,.17-3.48,3.13-3.5,4.24-.02,8.49-.05,12.73-.05,47.44-.02,94.88-.04,142.32-.06,1,0,2,0,3,0v.44Z"/>
  <path d="M204.69,331.04c41.44,0,82.89-.02,124.33,.01,11.36,0,22.71,.18,34.07,.22,1.27,0,1.83,.3,1.98,1.68,.59,5.23,.7,10.47,.48,15.7-.24,5.87-.31,11.73,.05,17.59,.03,.56,.06,1.13,.03,1.68-.17,2.8-.46,3-3.21,2.81-1.49-.1-2.99-.08-4.49-.08-31.52,.03-63.04-.11-94.56,.14-26.4,.21-52.8,.16-79.2,.13-32.39-.04-64.79-.18-97.18-.32-13.79-.06-27.58-.24-41.37-.29-1.54,0-2.07-.48-2.04-1.96,.05-2.75-.11-5.5,.03-8.24,.46-8.68,.46-17.34,.01-26.02-.14-2.72,.14-3.41,3.04-3.4,4.24,0,8.49-.05,12.73-.05,47.56-.02,95.13-.04,142.69-.07,.87,0,1.75,0,2.62,0v.44Z"/>
  <path d="M204.73,436.73c41.44,0,82.89-.02,124.33,.01,11.36,0,22.71,.18,34.07,.22,1.31,0,1.8,.37,1.95,1.72,.58,5.23,.69,10.47,.48,15.7-.24,5.81-.31,11.6,.04,17.41,.03,.56,.07,1.12,.04,1.68-.11,2.86-.47,3.14-3.25,2.96-1.62-.1-3.24-.08-4.87-.07-31.33,.03-62.67-.11-94,.14-26.28,.21-52.55,.17-78.83,.13-32.58-.04-65.16-.18-97.74-.32-13.79-.06-27.58-.23-41.37-.31-1.33,0-2.05-.25-2-1.79,.08-2.74-.13-5.5,.02-8.24,.47-8.74,.46-17.47,.02-26.21-.14-2.76,.18-3.36,3.07-3.37,4.24,0,8.49-.05,12.73-.05,48.44,0,96.88,0,145.31,0,0,.12,0,.25,0,.37Z"/>
  <path d="M204.79,489.21c41.44,0,82.89-.02,124.33,.01,11.36,0,22.71,.18,34.07,.23,1.21,0,1.7,.31,1.86,1.59,.6,4.79,.7,9.59,.54,14.39-.22,6.49-.39,12.98,.03,19.47,.03,.5,.06,1,0,1.5-.3,2.66-.45,2.73-3.1,2.54-1.62-.12-3.24-.09-4.87-.09-31.4,.03-62.79-.11-94.19,.14-25.9,.2-51.8,.17-77.7,.13-32.95-.05-65.91-.18-98.86-.32-13.73-.06-27.46-.25-41.19-.29-1.62,0-2.19-.47-2.15-2.06,.08-2.81-.09-5.62,.06-8.42,.45-8.55,.43-17.09,0-25.65-.15-2.95,.17-3.48,3.13-3.5,4.24-.02,8.49-.05,12.73-.05,47.44-.02,94.88-.04,142.32-.06,1,0,2,0,3,0,0,.15,0,.29,0,.44Z"/>
  <path d="M204.54,224.6c41.51,0,83.01-.02,124.52,.01,11.36,0,22.71,.18,34.07,.22,1.32,0,1.8,.39,1.95,1.73,.57,5.23,.69,10.47,.48,15.7-.24,5.81-.31,11.6,.04,17.41,.03,.56,.07,1.12,.04,1.68-.11,2.86-.47,3.13-3.26,2.95-1.62-.1-3.24-.07-4.87-.07-31.33,.03-62.67-.11-94,.14-26.28,.21-52.55,.17-78.83,.13-32.58-.04-65.16-.18-97.74-.32-13.79-.06-27.58-.23-41.37-.31-1.34,0-2.04-.26-2-1.8,.08-2.68-.14-5.37,.01-8.05,.48-8.8,.47-17.59,.03-26.39-.14-2.76,.18-3.36,3.08-3.36,4.18-.01,8.36-.05,12.54-.05,47.63-.02,95.25-.04,142.88-.07,.81,0,1.62,0,2.43,0v.44Z"/>
  <path d="M204.78,382.76c41.44,0,82.89-.02,124.33,.01,11.36,0,22.71,.18,34.07,.23,1.2,0,1.71,.3,1.87,1.59,.59,4.72,.7,9.47,.54,14.2-.22,6.62-.38,13.23,.03,19.84,.03,.44,.05,.88,0,1.31-.3,2.66-.45,2.74-3.1,2.55-1.62-.12-3.24-.09-4.87-.09-31.4,.03-62.79-.11-94.19,.14-25.78,.2-51.55,.17-77.33,.13-33.08-.05-66.16-.18-99.24-.32-13.73-.06-27.46-.25-41.19-.29-1.61,0-2.2-.44-2.15-2.05,.08-2.81-.09-5.62,.06-8.42,.45-8.55,.43-17.09,0-25.65-.15-2.93,.16-3.49,3.12-3.5,4.24-.02,8.49-.05,12.73-.05,47.44-.02,94.88-.04,142.32-.06,1,0,2,0,3,0v.44Z"/>
  <path d="M204.78,149.64c41.44,0,82.89-.02,124.33,.01,11.36,0,22.71,.18,34.07,.23,1.2,0,1.71,.29,1.87,1.58,.59,4.72,.7,9.47,.54,14.2-.22,6.62-.38,13.23,.02,19.84,.03,.5,.05,1.01-.02,1.49-.37,2.57-.42,2.56-3.07,2.37-1.62-.12-3.24-.09-4.87-.09-31.4,.03-62.8-.11-94.19,.14-25.84,.2-51.68,.17-77.52,.13-33.02-.05-66.03-.18-99.05-.32-13.79-.06-27.58-.24-41.37-.3-1.42,0-1.99-.39-1.95-1.85,.06-2.62-.14-5.25,0-7.86,.49-8.86,.49-17.72,.03-26.58-.12-2.31,.04-3.34,2.94-3.31,4.3,.04,8.61-.05,12.92-.06,47.44-.03,94.88-.05,142.32-.07,1,0,2,0,3,0v.44Z"/>
  <path d="M46.47,71.41c2.13,2.07,3.86,3.73,5.56,5.43,1.81,1.82,1.73,2.82-.3,4.87-1.99,2.01-3.05,2.1-4.86,.29-4.07-4.05-8.11-8.11-12.16-12.18-1.62-1.63-1.65-2.89-.06-4.49,4.09-4.11,8.19-8.22,12.31-12.3,1.78-1.76,2.79-1.61,5,.6,1.75,1.75,1.81,2.92,.13,4.61-1.71,1.72-3.48,3.38-5.65,5.48,1.88,0,3.21,0,4.53,0,3.18,0,6.36,.02,9.54,0,1.62-.01,2.4,.85,2.55,2.36,.08,.74,.07,1.5,.05,2.24-.07,2.41-.75,3.08-3.19,3.09-4.27,.01-8.55,0-13.45,0Z"/>
  <path d="M110.09,76.12c-6.28,0-10.7-4.63-10.55-11.03,.14-6.1,5.4-11.07,11.34-10.69,3.04,.19,5.17,1.93,6.94,4.23,.59,.77,.89,1.57-.03,2.28-.83,.64-1.67,.48-2.31-.3-.95-1.17-1.96-2.27-3.42-2.8-3.76-1.35-8.45,1.48-9.3,5.8-1,5.12,2.44,10.87,9.49,9.22,1.85-.43,2.72-1.62,3.13-3.29,.29-1.2,.87-2.05,2.19-1.58,1.29,.45,.99,1.53,.68,2.53-1.21,3.91-3.73,5.64-8.16,5.64Z"/>
  <path class="cls-34" d="M194.18,60.6c0-1.49-.01-2.91,0-4.34,.01-.95,.31-1.77,1.41-1.86,1.23-.1,1.66,.77,1.67,1.79,.08,6.11,.11,12.22,.18,18.33,0,.71-.31,1.22-.92,1.49-.61,.26-1.32,.21-1.66-.41-.44-.81-.89-.35-1.35-.16-4.61,1.93-8.8-.34-9.81-5.31-.95-4.66,1.52-9.02,5.62-9.99,1.64-.39,3.16,.23,4.87,.46Z"/>
  <path d="M275.22,69.75c-1.5,0-2.99,.03-4.49,0-1.2-.03-1.24,.42-.68,1.32,1.02,1.62,3.62,2.51,6.03,1.93,.83-.2,1.61-.63,2.42-.93,.77-.29,1.52-.24,1.97,.53,.42,.73,.25,1.43-.35,2.03-2.36,2.33-9.28,1.91-11.77-.71-3.04-3.2-2.87-8.43,.35-11.42,3.19-2.95,8.21-2.83,11.07,.26,.64,.69,1.17,1.45,1.5,2.34,1.36,3.71,.7,4.66-3.24,4.66-.93,0-1.87,0-2.8,0Z"/>
  <path d="M124.45,61.86c4.8-3.49,9.45-.97,9.95,4.64,.24,2.75,0,5.49-.27,8.22-.1,.98-.71,1.46-1.65,1.39-.87-.06-1.35-.65-1.32-1.51,.04-1.56,.13-3.12,.25-4.67,.1-1.32,.03-2.62-.22-3.91-.38-2.01-1.39-2.93-3.07-2.78-1.99,.17-3.47,1.6-3.47,3.45,0,2.43,.06,4.87,.12,7.3,.03,1.09-.12,2.1-1.48,2.12-1.34,.02-1.51-.96-1.54-2.07-.13-5.67-.47-11.34-.34-17.02,0-.37-.03-.75,.02-1.12,.13-.91,.63-1.52,1.6-1.48,.99,.04,1.4,.69,1.4,1.63,0,1.87,0,3.74,0,5.83Z"/>
  <path d="M239.28,75.78c-2.27,.21-3.89-1.04-5.13-2.9-1.46-2.18-1.88-4.62-1.29-7.14,1.07-4.55,4.39-6.65,8.71-5.67,3.56,.81,6.02,4.98,5.27,8.93-.79,4.15-3.66,6.77-7.56,6.78Z"/>
  <path d="M144.16,59.99c4.32,.16,6.68,2.13,7.48,6.17,.67,3.39-1.39,7.82-4.5,9.08-3.09,1.25-6.37,.87-8.38-2.63-1.94-3.36-1.87-6.79,.3-10.05,1.2-1.81,2.86-2.94,5.1-2.58Z"/>
  <path class="cls-34" d="M213.98,68.07c0,2.12,0,4.24,0,6.36,0,.85-.39,1.45-1.21,1.66-.67,.17-1.3-.03-1.54-.72-.36-1.02-.8-.49-1.32-.19-3.09,1.71-5.71,1.01-7.43-1.99-2.17-3.78-1.56-7.85-1.12-11.88,.08-.78,.82-1.31,1.67-1.16,.91,.16,1.33,.84,1.29,1.78-.09,1.74-.19,3.49-.25,5.23-.04,1.06,.06,2.11,.45,3.13,.55,1.44,1.18,2.87,3.05,2.76,1.93-.11,3.42-1.7,3.47-3.74,.06-2.37,0-4.74-.06-7.11-.03-1.1,.1-2.1,1.44-2.15,1.34-.05,1.6,.98,1.62,2.04,.03,2,0,3.99,0,5.99-.02,0-.05,0-.07,0Z"/>
  <path d="M358.18,133.84c-.75,0-1.06,0-1.37,0-2.51,.02-3.8,2.2-2.6,4.4,.62,1.13,1.7,.8,2.66,.85,.78,.04,1.75-.37,1.69,1.16-.05,1.26-.12,2.21-1.69,2.21-3.67,0-7.35,.02-11.02-.02-1.24-.01-2.28-.71-2.51-1.87-.48-2.38-.27-4.77,1.34-6.72,.92-1.13,2.11-1.6,3.58-.56,2.03,1.42,4.23,1.44,6.26,.01,1.28-.9,2.25-.62,3.65,.54Z"/>
  <path d="M297.43,68.13c0,2.06,0,4.11,0,6.17,0,.84-.33,1.49-1.12,1.74-.82,.27-1.55-.04-1.78-.89-.22-.82-.57-.42-.89-.19-3.23,2.35-6.74,1.19-8.46-3.29-1.31-3.4-.82-6.88-.41-10.35,.1-.86,.81-1.31,1.62-1.2,.78,.1,1.37,.61,1.32,1.53-.09,1.74-.2,3.48-.31,5.22-.07,1.08,.14,2.12,.43,3.14,.59,2.11,1.83,3.22,3.24,3.03,2.01-.28,3.39-1.85,3.42-4.01,.03-2.31,.02-4.62-.04-6.92-.03-1.12,.12-2.1,1.48-2.08,1.3,.02,1.55,1.01,1.54,2.11-.01,2,0,3.99,0,5.99,0,0-.02,0-.02,0Z"/>
  <path d="M259.84,74.63c-5.31,2.99-9.42,.4-9.89-6.24-.16-2.24,.04-4.48,.3-6.72,.12-.98,.65-1.56,1.53-1.54,.99,.02,1.55,.69,1.48,1.75-.11,1.74-.22,3.48-.31,5.22-.06,1.07,.15,2.12,.51,3.12,.54,1.5,1.18,3.02,3.18,2.81,1.97-.21,3.34-1.77,3.38-3.83,.05-2.37,.02-4.74-.04-7.11-.03-1.04,.1-1.97,1.33-2.04,1.28-.08,1.69,.81,1.69,1.96,0,3.99-.02,7.98,0,11.97,0,1.03-.2,1.91-1.34,2.13-1.12,.22-1.5-.61-1.8-1.47Z"/>
  <path class="cls-34" d="M166.85,70.14c-1,1.59-1.96,3.1-2.9,4.63-.59,.96-1.24,1.9-2.49,1.09-1.12-.72-.74-1.67-.14-2.59,1.02-1.56,1.94-3.19,3.02-4.71,.54-.76,.46-1.26-.1-1.93-.95-1.15-1.81-2.38-2.71-3.57-.62-.82-.98-1.71-.02-2.45,1.03-.79,1.85-.23,2.51,.66,.11,.15,.21,.31,.34,.45,.87,.95,1.39,2.85,2.49,2.76,.9-.07,1.66-1.82,2.48-2.82,.24-.29,.45-.6,.71-.87,.66-.7,1.49-.77,2.17-.2,.71,.59,.72,1.39,.11,2.16-.97,1.22-1.89,2.48-2.89,3.67-.64,.75-.63,1.35-.01,2.11,1.13,1.4,2.17,2.89,3.25,4.33,.69,.91,1.58,1.9,.32,2.89-1.42,1.11-2.07-.23-2.78-1.15-1.1-1.43-2.17-2.88-3.36-4.46Z"/>
  <path class="cls-8" d="M45.8,130.12c0-1.62,0-3.24,0-4.86,0-1.07,.39-1.84,1.58-1.89,1.93-.08,3.86-.13,5.75,.39,3.31,.91,4.06,3.78,1.57,6.12-.47,.44-.5,.6-.11,1.11,.88,1.16,1.13,2.61,1.57,3.96,.2,.61,.25,1.3-.61,1.48-.69,.15-1.01-.32-1.17-.92-.13-.48-.26-.96-.41-1.43-.88-2.67-2.88-3.65-5.51-2.78-.63,.21-.72,.58-.71,1.12,.01,.87,.02,1.74,0,2.62-.01,.61,.05,1.37-.84,1.39-.95,.02-1.03-.74-1.04-1.45-.02-1.62,0-3.24,0-4.86-.02,0-.04,0-.06,0Z"/>
  <path class="cls-34" d="M229.21,68.35c.42,2.92,.31,5.84,.04,8.76-.19,2.08-1.28,3.42-3.19,4.17-.89,.35-1.78,.44-2.27-.53-.46-.91-.13-1.77,.84-2.13,1.46-.53,1.63-1.66,1.69-2.97,.21-4.29,0-8.58-.12-12.87-.01-.37-.07-.75-.05-1.12,.04-.9,.35-1.62,1.39-1.63,1.05-.02,1.64,.6,1.66,1.61,.04,2.24,.01,4.48,.01,6.71Z"/>
  <path class="cls-8" d="M304.63,61.83c1.34-1.12,2.75-1.63,4.38-1.44,.98,.12,1.66,.54,1.61,1.65-.04,1.04-.64,1.34-1.61,1.36-.8,.01-1.62,.13-2.38,.36-1.45,.45-2.25,1.4-2.19,3.03,.09,2.3,.07,4.61,.11,6.91,.02,1.11,.01,2.27-1.44,2.38-1.51,.12-1.6-1.03-1.62-2.16-.05-3.8-.12-7.6-.16-11.39-.01-.99-.16-2.13,1.11-2.48,1.34-.36,1.87,.61,2.18,1.77Z"/>
  <path d="M351.32,133.46c-2.5-.03-4.42-2.02-4.41-4.53,.02-2.57,2.07-4.53,4.67-4.46,2.47,.07,4.37,2.11,4.31,4.63-.05,2.49-2.05,4.4-4.58,4.36Z"/>
  <path d="M361.06,142.42c-1.24,.31-1.58-.29-1.42-1.4,.03-.18,0-.37,0-.56q0-2.5-2.55-2.5c-2.04,0-2.23-.24-1.97-2.2,.07-.52,.18-.82,.75-.8,.25,.01,.5,0,.75,0,2.97-.05,3.03-.05,2.98-2.97-.02-1.19,.27-1.58,1.53-1.58,1.25,0,1.69,.39,1.5,1.58,0,.06,0,.12,0,.19,.02,2.76,.02,2.82,2.83,2.75,1.22-.03,1.7,.17,1.73,1.57,.03,1.57-.76,1.48-1.82,1.47-2.71-.03-2.76,0-2.71,2.86,.02,1.23-.17,1.97-1.6,1.58Z"/>
  <path class="cls-34" d="M59.81,132.7c1.25,2.01,2.55,2.37,4.76,1.56,.6-.22,1.3-.81,1.74,.16,.44,.98-.36,1.33-1.05,1.63-2.85,1.24-6.08,.17-7.17-2.36-1.05-2.45,.16-5.31,2.68-6.32,2.82-1.13,5.96,.65,6.33,3.59,.14,1.13-.15,1.8-1.47,1.77-1.86-.05-3.72-.01-5.83-.01Z"/>
  <path class="cls-34" d="M89.93,132.7c1.23,1.99,2.55,2.38,4.73,1.58,.68-.25,1.5-.83,1.88,.22,.37,1.06-.59,1.33-1.36,1.61-2.55,.95-5.28,.26-6.53-1.66-1.16-1.78-.95-4.3,.5-5.89,1.36-1.49,3.11-1.83,4.95-1.34,1.85,.5,2.83,1.96,3.19,3.79,.24,1.19-.34,1.72-1.56,1.7-1.87-.04-3.74,0-5.81,0Z"/>
  <path class="cls-34" d="M126.2,132.7c1.35,2.01,2.67,2.38,4.84,1.56,.7-.27,1.5-.76,1.85,.28,.32,.95-.55,1.25-1.25,1.53-3.89,1.56-7.59-.7-7.38-4.51,.13-2.41,1.89-4.29,4.18-4.48,2.63-.21,4.46,1.1,5.1,3.62,.34,1.35-.06,2.05-1.53,2-.93-.03-1.87,0-2.81,0-.92,0-1.84,0-3.01,0Z"/>
  <path class="cls-15" d="M80.26,127.61c3.87-1.55,5.88-.23,5.98,3.88,.03,1.24-.05,2.49-.1,3.73-.03,.68-.26,1.29-1.07,1.21-.73-.07-.78-.66-.76-1.26,.04-1.37,.08-2.74,.06-4.11-.02-1.28-.4-2.53-1.94-2.37-1.34,.14-2.2,1.02-2.05,2.6,.12,1.3,.12,2.61,.13,3.92,0,.67-.19,1.29-1.03,1.23-.75-.05-.81-.65-.82-1.23-.09-3.42-.17-6.84-.26-10.26-.02-.71,.01-1.52,.91-1.56,1.16-.06,.92,.92,.95,1.63,.03,.85,0,1.7,0,2.59Z"/>
  <path class="cls-15" d="M116.53,127.66c3.68-1.7,5.92-.25,5.99,3.8,.02,1.12-.01,2.25-.08,3.37-.04,.73-.02,1.68-1.1,1.59-.99-.08-.76-.95-.74-1.61,.02-1.25,.1-2.5,.05-3.74-.05-1.26-.41-2.55-1.97-2.37-1.32,.15-2.21,1.03-2.07,2.6,.12,1.3,.14,2.61,.16,3.92,0,.57-.12,1.18-.86,1.23-.88,.06-.99-.6-1.01-1.25-.08-3.49-.14-6.98-.22-10.47-.01-.68,.13-1.32,.93-1.35,.87-.04,.93,.63,.92,1.3-.01,.98,0,1.97,0,2.99Z"/>
  <path class="cls-34" d="M158.07,68.16c0,2,0,3.99,0,5.99,0,1.04-.27,1.92-1.49,1.96-1.23,.04-1.56-.81-1.55-1.87,.03-4.24,.04-8.48,.09-12.71,.01-.96,.56-1.52,1.53-1.49,.98,.03,1.44,.63,1.45,1.59,0,2.18,0,4.37,0,6.55-.01,0-.02,0-.04,0Z"/>
  <path class="cls-8" d="M68.53,131.81c.03-1.58,.68-3.15,2.13-4.31,1.65-1.33,4.06-.93,5.26,.81,.31,.44,.48,.88,.07,1.34-.51,.55-1,.35-1.44-.1-.8-.82-1.66-1.43-2.75-.53-1.27,1.05-1.7,2.49-1.28,4.04,.32,1.16,1.36,1.52,2.5,1.55,.98,.02,1.73-.26,1.81-1.4,.05-.67,.38-1.08,1.08-.95,.82,.15,.85,.83,.76,1.46-.18,1.4-1.1,2.21-2.36,2.62-2.91,.94-5.78-1.18-5.79-4.51Z"/>
  <path class="cls-8" d="M109.33,136.46c-2.51,0-4.23-1.45-4.49-3.79-.29-2.61,1.4-5.49,3.52-5.91,1.55-.3,2.79,.35,3.78,1.52,.4,.47,.55,.97,0,1.47-.52,.48-.94,.15-1.31-.17-.71-.61-1.35-1.4-2.42-.78-1.25,.73-1.7,1.91-1.75,3.29-.06,1.43,.73,2.24,2.04,2.45,1.14,.18,2.31,.18,2.4-1.5,.03-.55,.45-.89,1.04-.82,.76,.09,.77,.68,.77,1.26,0,1.72-1.51,2.96-3.6,2.97Z"/>
  <path class="cls-23" d="M99,131.43c0-1.24-.07-2.49,.02-3.73,.07-.98,.88-1.45,1.46-.67,.57,.76,.9,.67,1.49,.28,.51-.32,1.08-.24,1.63-.22,.58,.03,.92,.33,.93,.93,0,.61-.34,.81-.92,.93-2.77,.54-2.76,.55-2.76,3.28,0,.99,0,1.99,0,2.98,0,.59-.07,1.17-.83,1.21-.73,.03-.96-.49-.97-1.1-.02-1.3,0-2.61,0-3.91-.02,0-.04,0-.05,0Z"/>
  <path class="cls-10" d="M71.52,32.98c0,1.21,0,2.25,0,3.3,0,.39-.09,.8-.56,.81-.38,0-.47-.35-.47-.67-.01-1.68-.08-3.36,0-5.03,.05-1.04,.67-.69,1.09-.23,.67,.73,1.29,1.51,2.03,2.4,.65-.81,1.24-1.56,1.85-2.29,.18-.22,.35-.54,.74-.44,.4,.11,.38,.46,.38,.75,.01,1.55,.02,3.11,0,4.66,0,.35,.02,.84-.48,.84-.55,0-.42-.49-.42-.83,0-1.06,0-2.11,0-3.22-1.08,.24-1,1.76-1.92,1.82-1.04,.07-1.09-1.38-2.24-1.86Z"/>
  <path class="cls-6" d="M43.92,34.01c-.01,1.92-.84,3.11-2.19,3.14-1.4,.03-2.36-1.26-2.37-3.2-.01-1.99,.88-3.23,2.32-3.2,1.47,.03,2.26,1.17,2.24,3.25Z"/>
  <path class="cls-2" d="M343.51,31.88c-.84-.46-1.09-.88-.15-1.6,2.31-1.77,6-1.83,8.34-.01,.29,.23,.91,.38,.63,.94-.28,.57-.75,.79-1.34,.33-1.82-.54-3.64-1.03-5.52-.33-.65,.25-1.27,.56-1.96,.68Z"/>
  <path class="cls-19" d="M367.17,35.34c-2.98,.73-6.07,.55-8.99,.16-1.78-.24-.48-2.56-.76-3.91-.14-.7-.37-1.85,.85-1.89,2.74-.1,5.48-.06,8.22-.02,.94,.01,.99,.76,1,1.48-.07,.39-.05,.86-.66,.79-.79-.78-1.73-1.09-2.85-1.05-1.73,.07-3.46-.05-5.18,.07-1.05,1.04-.51,2.25-.36,3.41,.12,.12,.25,.22,.41,.3,2.46,.18,4.92,.08,7.39,.05,.2-.03,.39-.04,.59-.02,.29,.11,.55,.24,.35,.62Z"/>
  <path class="cls-2" d="M66.9,35.34c-1.1-.34-1.34,.38-1.58,1.11-.11,.33-.15,.8-.68,.67-.57-.14-.34-.54-.22-.88,.6-1.62,1.2-3.25,1.81-4.87,.29-.77,.8-.86,1.14-.13,.78,1.68,1.43,3.42,2.13,5.14,.13,.31,.19,.61-.23,.73-.37,.11-.55-.11-.69-.43-.34-.77-.45-1.85-1.68-1.34Z"/>
  <path d="M337.92,32.7c0,1.12,0,2.25,0,3.37,0,.56,.12,1.13-.8,1.09-.8-.03-.7-.52-.7-1.01,0-2.31,0-4.62,0-6.93,0-.56-.12-1.13,.8-1.09,.97,.04,.67,.71,.69,1.19,.03,1.12,.01,2.25,.01,3.37Z"/>
  <path class="cls-30" d="M53.81,30.77c.48,0,.73-.03,.97,0,.38,.06,1.02-.22,1,.45-.02,.58-.64,.43-1.04,.46-.31,.02-.62,.02-.93,0-.56-.02-.78,.3-.8,.8-.02,.56,.39,.52,.76,.53,1.56,.04,2.24,.95,2.19,2.4-.03,.99-.69,1.57-1.65,1.73-.84,.14-1.63,.05-2.09-.81-.17-.32-.42-.71-.03-.99,.29-.21,.54,0,.73,.31,.42,.71,.97,.91,1.69,.36,.46-.36,.6-.77,.34-1.3-.38-.77-.99-.88-1.71-.57-1.26,.55-1.49,.17-1.26-1.12,.23-1.28-.09-2.82,1.83-2.25Z"/>
  <path class="cls-30" d="M47.89,34.49c-1.28,.56-2.29,.63-2.99-.46-.56-.88-.5-1.81,.21-2.57,.82-.86,1.81-.85,2.9-.42,.54,.22,.81,.44,.79,1.03-.04,1.42-.04,2.85-.07,4.27,0,.35,.08,.84-.47,.82-.66-.02-.53-.55-.5-.97,.03-.49,.07-.97,.13-1.7Z"/>
  <path class="cls-10" d="M58.01,36.23c1.16,0,2.02,0,2.87,0,.31,0,.71,.05,.74,.39,.04,.51-.4,.53-.79,.53-.12,0-.25,.03-.37,0-1.15-.26-2.82,.75-3.38-.66-.51-1.28,1.23-1.78,1.93-2.66,.43-.54,1.48-1.08,.77-1.78-.75-.73-1.45-.14-1.74,.81-.07,.21-.24,.47-.54,.36-.34-.12-.46-.43-.38-.76,.22-.85,.77-1.43,1.62-1.63,.77-.19,1.49-.07,1.97,.67,.47,.72,.38,1.46-.15,2.07-.72,.84-1.53,1.61-2.55,2.67Z"/>
  <path class="cls-37" d="M158.38,56.23c-.16,1.11-.63,1.91-1.85,1.89-1.11-.02-1.69-.72-1.74-1.75-.05-1.13,.51-1.91,1.71-1.97,1.24-.06,1.67,.8,1.89,1.83Z"/>
  <path class="cls-2" d="M346.11,32.62c-.74,.11-1.58,1.06-2.14-.26,.25-.81,.89-1.16,1.63-1.4,1.84-.6,3.58-.6,5.07,.87,.55,.41,.32,.83,0,1.24-1.59,.57-3-.7-4.55-.44Z"/>
  <path d="M335.67,34.32c0,.69-.02,1.37,0,2.06,.02,.54-.16,.77-.74,.77-.57,0-.77-.2-.76-.76,.02-1.5,.02-3,0-4.5,0-.54,.16-.77,.75-.77,.57,0,.78,.2,.76,.76-.03,.81,0,1.62,0,2.44Z"/>
  <path class="cls-23" d="M225.89,56.11c.1-1.02,.51-1.68,1.49-1.7,.97-.03,1.51,.53,1.52,1.49,0,.86-.44,1.41-1.33,1.48-1,.08-1.45-.51-1.68-1.27Z"/>
  <path class="cls-34" d="M333.52,35.13c-.56,.57,.7,1.91-.86,1.98-1.36,.06-.71-1.13-.67-1.66,.04-.68-.81-1.94,.7-2.02,1.38-.07,.4,1.14,.84,1.7Z"/>
  <path class="cls-20" d="M349.57,34.16c-1.15,.62-2.43-.36-3.59,.26-.05,.03-.51-.42-.5-.63,.03-.59,.64-.64,1.05-.86,1.71-.78,2.76-.36,3.05,1.23Z"/>
  <path class="cls-14" d="M350.67,31.82c-1.63-.97-3.35-1.25-5.18-.63-.37,.18-.47,0-.44-.34,2.1-.86,4.12-.91,5.94,.68-.11,.1-.22,.19-.33,.29Z"/>
  <path class="cls-34" d="M331.17,36.03c-.02,.56,.16,1.14-.75,1.13-1.08,0-.67-.77-.74-1.28-.08-.62,.02-1.04,.84-1,.96,.05,.56,.73,.66,1.15Z"/>
  <path class="cls-39" d="M349.57,34.16c-.45-1.81-1.83-1.32-3.05-1.23-.14-.1-.27-.2-.41-.31,1.01-.65,2.04-.49,3.06-.04,.48,.21,.89,.66,1.49,.47-.37,.37-.73,.73-1.1,1.1Z"/>
  <path class="cls-34" d="M328.13,37.14c-.58,.08-.68-.24-.71-.75-.04-.72,.37-.75,.9-.75,.67,0,.58,.43,.61,.86,.04,.62-.32,.7-.8,.65Z"/>
  <path class="cls-26" d="M367.14,31.85c.01-.28,.07-.55,.35-.69,.84,.99,.85,1.99,.04,3-.78,.08-.43-.51-.51-.85,.03-.49,.03-.98,.11-1.46Z"/>
  <path class="cls-28" d="M347.68,35.94c-.48-.09-.77-.35-.85-.71-.1-.44,.35-.44,.61-.46,.34-.03,.86-.04,.88,.39,0,.26-.43,.54-.63,.79Z"/>
  <path class="cls-22" d="M367.43,33.25c.09,.3-.31,.65,.11,.91-.16,.38,.13,.9-.37,1.18-.14-.15-.28-.3-.42-.45-.48-.84-.56-1.52,.69-1.63Z"/>
  <path class="cls-3" d="M345.06,30.86c.15,.11,.29,.23,.44,.34-.51,.39-1.02,.77-1.52,1.16-.15-.16-.31-.32-.46-.48,.52-.34,1.03-.68,1.55-1.02Z"/>
  <path class="cls-25" d="M50.53,32.49c.1,.13,.35,.31,.34,.48-.01,.38-.34,.46-.67,.41-.3-.04-.39-.25-.33-.53,.06-.3,.3-.34,.66-.37Z"/>
  <path class="cls-24" d="M50.46,37.15c-.34,.04-.62-.08-.59-.45,.01-.17,.26-.41,.43-.44,.3-.07,.59,.12,.61,.45,.02,.25-.19,.41-.46,.43Z"/>
  <path d="M342.14,753.9c.5-.66,1.03-1.35,1.54-2.04,1.05-1.4,.57-2.72-1.12-3.13-3.15-.77-3.02-.78-3.2-4.08-.11-1.95,.66-2.5,2.4-2.55,.88-.02,1.76-.05,2.29-1.19,.57-1.22-.16-1.82-.77-2.4-1.43-1.36-1.26-2.48,.21-3.63,.49-.38,.91-.85,1.33-1.31,.88-.97,1.74-1.1,2.68-.08,.29,.31,.69,.53,1.04,.79,1.36,1.02,2.62,.43,2.91-1.28,.17-.99-.17-2.48,.92-2.82,1.58-.49,3.36-.42,4.98-.01,.83,.21,.6,1.39,.73,2.14,.45,2.73,1.51,3.28,3.54,1.54,1.43-1.23,2.51-1.34,3.67,.21,.41,.54,.92,1.02,1.43,1.48,.85,.78,.91,1.53,.08,2.37-.35,.35-.63,.77-.92,1.18-.96,1.32-.28,2.83,1.35,3.05q3.05,.41,3.05,3.41c0,.5-.02,1,0,1.5,.04,.99-.32,1.5-1.4,1.5-.67,0-1.35,.21-2.02,.33-1.32,.25-1.84,1.61-1.06,2.73,1.98,2.82,1.92,2.76-.44,5.19-1.27,1.31-2.33,1.63-3.7,.21-.6-.62-1.2-1.34-2.41-.82-1.18,.52-1.07,1.45-1.1,2.3-.06,1.88-.84,2.76-2.78,2.39-.24-.05-.5,0-.75,0q-2.68,0-3.12-2.59c-.41-2.45-1.57-3.02-3.35-1.38-1.57,1.44-2.68,1.32-3.91-.29-.67-.87-1.71-1.45-2.11-2.69Z"/>
  <path d="M190.33,745.5c0-4.68,0-9.36,0-14.04,0-1.9,.22-2.03,1.88-1.11,8.36,4.64,16.71,9.3,25.07,13.95,.47,.26,1.19,.38,1.22,1.02,.03,.76-.76,.92-1.27,1.21-8.25,4.6-16.5,9.18-24.76,13.76-1.95,1.08-2.13,.96-2.13-1.3,0-4.49,0-8.99,0-13.48Z"/>
  <path d="M125.48,761.92c-2.5,0-4.99,.03-7.49,0-3.81-.05-5.52-1.93-5.35-5.77,.1-2.19,.34-4.36,1.33-6.35,1.61-3.23,4.05-3.89,7.12-2.06,3.12,1.87,6.39,1.94,9.25-.27,2.19-1.69,5.18-.48,6.28,1.37,1.73,2.9,2.25,6.08,1.79,9.36-.34,2.42-2.18,3.66-5.08,3.72-2.62,.05-5.24,.01-7.86,.01Z"/>
  <path d="M71.45,752.22c0,1.37,0,2.75,0,4.12,0,1.27-.49,1.97-1.9,1.92-2-.07-4-.07-5.99,0-1.03,.04-1.27-.34-1.23-1.29,.07-1.75-.01-3.5,.03-5.25,.02-.86-.23-1.17-1.15-1.22-3.93-.22-3.92-.25-3.92,3.66s0,4.11-4.02,4.07c-5.65-.06-4.71,.91-5.14-5.07-.32-4.37,.86-7.44,4.64-9.76,2.26-1.39,4.21-3.31,6.23-5.08,.67-.59,1.04-.51,1.66,.01,3.3,2.77,6.62,5.51,9.96,8.22,.66,.53,.9,1.1,.86,1.92-.05,1.25-.01,2.5-.01,3.75Z"/>
  <path d="M66.2,736.7c0-.39,0-.63,0-.88,.05-3.75-.59-3.31,3.61-3.38,1.21-.02,1.74,.41,1.66,1.62-.05,.68,.08,1.39-.02,2.06-.55,3.62,.26,6.59,3.75,8.42,1.08,.56,.85,1.22,.14,2.07-.75,.88-1.24,1.34-2.35,.38-3.97-3.42-8.05-6.71-12.02-10.13-.92-.79-1.44-.73-2.31,.02-3.93,3.37-7.95,6.64-11.89,10-.93,.79-1.51,.96-2.4-.11-.96-1.13-.66-1.68,.36-2.51,4.31-3.5,8.54-7.1,12.8-10.66,1.9-1.59,2.68-1.59,4.55-.03,1.2,1,2.39,2,3.59,3,.08,.07,.22,.06,.54,.13Z"/>
  <path d="M132.64,740.56c.02,3.98-3.1,7.17-7.04,7.17-3.93,0-7.14-3.21-7.13-7.13,.01-3.84,3.16-7.03,6.99-7.08,3.96-.05,7.16,3.08,7.18,7.04Z"/>
  <path d="M277.17,758.62c-5.49,0-10.99-.03-16.48,.03-1.1,.01-1.48-.2-1.47-1.41,.06-8.06,.04-16.11,.02-24.17,0-.88-.07-1.49,1.2-1.48,1.43,0,1.05,.9,1.05,1.61,.01,7.12,.05,14.24-.02,21.36-.01,1.4,.27,1.86,1.79,1.85,10.11-.08,20.23-.04,30.34-.04,.81,0,1.71-.33,1.67,1.19-.04,1.43-.9,1.05-1.62,1.05-5.49,.02-10.99,0-16.48,0Z"/>
  <path d="M286.22,743.81c0-2.87,.05-5.75-.02-8.62-.03-1.06,.28-1.34,1.34-1.34,3.18,0,3.18-.05,3.18,3.22,0,5.18-.04,10.37,.03,15.55,.02,1.22-.3,1.56-1.53,1.53-2.99-.06-2.99,0-2.99-3.03v-7.31Z"/>
  <path d="M277.23,745.31c0,2.5-.05,5,.02,7.49,.03,1.06-.28,1.34-1.34,1.34-3.18,0-3.18,.05-3.18-3.22,0-4.43,.05-8.87-.03-13.3-.02-1.22,.3-1.56,1.53-1.53,2.99,.06,3,0,3,3.03v6.18Z"/>
  <path d="M132.49,745.46c.1-.41,.11-.54,.16-.64,.67-1.21,1.13-2.49,1.13-3.89,0-3.1,2.03-.47,3.02-1,1.16-.62,2.53-.91,3.78-1.47,.89-.4,1.55,.13,1.9,.99,.81,1.95,.83,4,.65,6.05-.09,.97-.77,1.6-1.64,1.84-1.84,.5-3.67,1.02-5.35-.61-.94-.9-2.21-1.37-3.65-1.26Z"/>
  <path d="M118.8,745.4c-1.78,.05-3.04,.73-4.25,1.67-1.6,1.24-3.41,.82-5.09,.19-1.46-.55-1.6-1.88-1.55-3.27,.04-1.44,.11-2.87,.62-4.22,.46-1.21,1.16-1.82,2.58-1.09,1.71,.88,3.51,1.6,5.52,.91,.59-.2,.75,.09,.72,.66-.08,1.79,.48,3.42,1.45,5.15Z"/>
  <path d="M140.88,733.56c0,2.6-2.14,4.79-4.69,4.8-2.54,0-4.71-2.18-4.72-4.77-.01-2.66,2.04-4.73,4.7-4.73,2.66,0,4.71,2.04,4.72,4.71Z"/>
  <path class="cls-34" d="M119.71,733.65c-.03,2.55-2.3,4.76-4.82,4.7-2.55-.06-4.69-2.3-4.66-4.87,.03-2.58,2.21-4.68,4.82-4.63,2.65,.05,4.69,2.15,4.66,4.8Z"/>
  <path d="M279.48,747.21v-3.37c0-3.5,0-3.48,3.53-3.23,.69,.05,.98,.17,.98,.93-.03,3.87-.03,7.74,0,11.61,0,.69-.17,.93-.92,.99-3.59,.29-3.59,.33-3.59-3.19v-3.75Z"/>
  <path d="M266,749.45v-1.12c0-3.36,0-3.32,3.36-3.23,.87,.02,1.19,.21,1.16,1.14-.07,2.18-.07,4.37,0,6.55,.04,1.04-.24,1.36-1.32,1.36-3.2,0-3.2,.05-3.2-3.2v-1.5Z"/>
  <path class="cls-36" d="M70.46,280.4c3.24-.04,6.49-.12,9.73-.13,34.58-.07,69.16-.29,103.74-.16,32.27,.12,64.54,.34,96.81,.08,26.9-.22,53.8,.38,80.7,.04,1.62-.02,2.17,.41,2.16,2.08-.04,10.36,.02,20.72,.05,31.08,0,3.14,0,3.14-3.21,3.14-40.58,0-81.15,0-121.73,0-24.03,0-48.06,.09-72.1,.06-30.59-.04-61.17-.16-91.75-.25-.46,0-.92,0-1.79,0,10-3.85,14.97-11.24,13.78-20.05-1.13-8.39-7.93-14.88-16.38-15.62-.13-.06-.18-.12-.13-.19,.04-.07,.08-.1,.13-.1Z"/>
  <path class="cls-36" d="M67.45,280.69c-8.46,.75-15.3,7.21-16.36,15.62-.95,7.51,2.75,16.55,13.52,19.92-6.11,0-12.05,0-17.98,0-1.32,0-1.26-.94-1.24-1.83,.1-4.12,.27-8.23,.3-12.35,.06-6.74,.03-13.49,.04-20.23,0-.79-.22-1.54,1.14-1.52,6.86,.1,13.72,.08,20.58,.1,.13,.07,.17,.13,.12,.2-.04,.06-.09,.09-.13,.09Z"/>
  <path class="cls-36" d="M81.45,307.5c-.55-1.53-.92-2.98-1.85-4.19-1.66-2.16-3.51-2.49-5.73-1.01-2.89,1.93-6.98,1.92-9.85-.02-2.18-1.47-4.06-1.11-5.72,1.07-.92,1.21-1.27,2.67-1.81,4.07-4.48-5.47-3.69-14.52,1.7-19.79,5.73-5.6,14.86-5.81,21.02-.48,5.77,4.99,6.83,13.92,2.24,20.36Z"/>
  <path class="cls-9" d="M67.45,280.69c-.01-.1-.01-.19,0-.29,1-.16,2-.16,3.01,0,.02,.1,.02,.19,0,.29-1.01,0-2.01,0-3.02,0Z"/>
  <path class="cls-36" d="M70.46,332.87c3.24-.04,6.49-.12,9.73-.13,34.58-.07,69.16-.29,103.74-.16,32.27,.12,64.54,.34,96.81,.08,26.9-.22,53.8,.38,80.69,.04,1.62-.02,2.17,.41,2.17,2.08-.04,10.36,.02,20.72,.05,31.08,0,3.14,0,3.14-3.21,3.14-40.58,0-81.15,0-121.73,0-24.03,0-48.06,.09-72.1,.06-30.59-.04-61.17-.16-91.75-.25-.46,0-.92,0-1.79,0,10-3.85,14.96-11.24,13.78-20.05-1.13-8.39-7.93-14.88-16.38-15.63-.13-.06-.18-.12-.13-.19,.04-.07,.08-.1,.13-.1Z"/>
  <path class="cls-36" d="M67.45,333.16c-8.46,.75-15.3,7.21-16.36,15.62-.95,7.51,2.75,16.55,13.52,19.92-6.11,0-12.05,0-17.98,0-1.32,0-1.26-.94-1.24-1.83,.1-4.12,.27-8.23,.3-12.35,.06-6.74,.03-13.49,.04-20.23,0-.79-.22-1.54,1.14-1.52,6.86,.1,13.72,.08,20.58,.1,.13,.07,.17,.13,.12,.2-.04,.06-.09,.09-.13,.09Z"/>
  <path class="cls-36" d="M56.49,359.95c-4.57-6.1-3.6-15.08,2.04-20.17,6.01-5.42,15.15-5.36,21.03,.15,5.52,5.18,6.41,14.13,1.89,19.98-.55-1.35-.85-2.74-1.67-3.9-1.64-2.32-3.59-2.67-5.99-1.2-3.2,1.97-6.49,1.95-9.69-.01-2.33-1.44-4.22-1.14-5.86,1.09-.87,1.18-1.24,2.57-1.75,4.07Z"/>
  <path class="cls-9" d="M67.45,333.16c-.01-.1-.01-.19,0-.29,1-.16,2-.16,3.01,0,.02,.1,.02,.19,0,.29-1.01,0-2.01,0-3.02,0Z"/>
  <path class="cls-36" d="M70.46,438.56c3.24-.04,6.49-.12,9.73-.13,34.58-.07,69.16-.29,103.74-.16,32.27,.12,64.54,.34,96.81,.08,26.9-.22,53.8,.38,80.7,.04,1.62-.02,2.17,.41,2.16,2.08-.04,10.36,.02,20.72,.05,31.08,0,3.14,0,3.14-3.21,3.14-40.58,0-81.15,0-121.73,0-23.97,0-47.94,.09-71.91,.06-30.65-.04-61.29-.16-91.94-.25-.46,0-.92,0-1.79,0,10-3.85,14.96-11.24,13.78-20.05-1.13-8.39-7.93-14.88-16.38-15.62-.13-.06-.18-.12-.13-.19,.04-.07,.08-.1,.13-.1Z"/>
  <path class="cls-36" d="M67.45,438.85c-8.46,.75-15.3,7.21-16.36,15.62-.95,7.51,2.75,16.55,13.52,19.92-6.11,0-12.05,0-17.98,0-1.32,0-1.26-.94-1.24-1.83,.1-4.12,.27-8.23,.3-12.35,.06-6.74,.03-13.49,.04-20.23,0-.79-.22-1.54,1.14-1.52,6.86,.1,13.72,.08,20.58,.1,.13,.07,.17,.13,.12,.2-.04,.06-.09,.09-.13,.09Z"/>
  <path class="cls-36" d="M81.45,465.66c-.55-1.54-.92-2.99-1.86-4.2-1.66-2.15-3.47-2.42-5.74-1.01-3.19,1.98-6.48,2.02-9.69,.07-2.5-1.51-4.41-1.14-6.09,1.3-.78,1.14-1.05,2.49-1.6,3.75-4.47-5.54-3.67-14.53,1.73-19.79,5.74-5.59,14.87-5.8,21.02-.46,5.77,5,6.82,13.97,2.22,20.34Z"/>
  <path class="cls-9" d="M67.45,438.85c-.01-.1-.01-.19,0-.29,1-.16,2-.16,3.01,0,.02,.1,.02,.19,0,.29h-3.02Z"/>
  <path class="cls-36" d="M70.46,491.04c3.24-.04,6.49-.12,9.73-.13,34.58-.07,69.16-.29,103.74-.16,32.27,.12,64.54,.34,96.81,.08,26.9-.22,53.8,.38,80.7,.04,1.62-.02,2.17,.41,2.16,2.08-.04,10.36,.02,20.72,.05,31.08,0,3.14,0,3.14-3.21,3.14-40.58,0-81.15,0-121.73,0-23.97,0-47.94,.09-71.91,.06-30.65-.04-61.29-.16-91.94-.25-.46,0-.92,0-1.79,0,10-3.85,14.96-11.24,13.78-20.05-1.13-8.39-7.93-14.88-16.38-15.62-.13-.06-.18-.12-.13-.19,.04-.07,.08-.1,.13-.1Z"/>
  <path class="cls-36" d="M67.45,491.33c-8.46,.75-15.3,7.21-16.36,15.62-.95,7.51,2.75,16.55,13.52,19.92-6.11,0-12.05,0-17.98,0-1.32,0-1.26-.94-1.24-1.83,.1-4.12,.27-8.23,.3-12.35,.06-6.74,.03-13.49,.04-20.23,0-.79-.22-1.54,1.14-1.52,6.86,.1,13.72,.08,20.58,.1,.13,.07,.17,.13,.12,.2-.04,.06-.09,.09-.13,.09Z"/>
  <path class="cls-36" d="M81.45,518.13c-.55-1.53-.92-2.98-1.85-4.2-1.66-2.15-3.51-2.49-5.73-1.01-2.89,1.93-6.98,1.92-9.85-.02-2.18-1.47-4.06-1.11-5.72,1.07-.92,1.21-1.27,2.67-1.81,4.07-4.48-5.47-3.69-14.52,1.71-19.79,5.73-5.6,14.86-5.81,21.02-.48,5.77,4.99,6.83,13.92,2.24,20.36Z"/>
  <path class="cls-9" d="M67.45,491.33c-.01-.1-.01-.19,0-.29,1-.16,2-.16,3.01,0,.02,.1,.02,.19,0,.29-1.01,0-2.01,0-3.02,0Z"/>
  <path class="cls-36" d="M64.07,226.36c-10.39,4.9-14.67,12.37-12.67,21.66,1.71,7.9,9.22,13.92,17.46,13.99,8.24,.07,15.89-6,17.65-13.99,2.03-9.23-2.26-16.72-12.77-21.71,2.47,0,4.5,0,6.53,0,30.9-.08,61.79-.3,92.69-.2,35.08,.12,70.16,.41,105.24,.13,27.77-.22,55.54,.31,83.31,.04,1.52-.02,2.1,.37,2.09,1.95-.02,10.8,0,21.6,.08,32.39,0,1.5-.4,1.99-1.99,1.99-28.65-.05-57.3-.05-85.96-.02-31.9,.02-63.79,.14-95.69,.11-42.44-.05-84.89-.21-127.33-.33-1.81,0-3.62-.1-5.43-.04-1.63,.06-1.98-.74-1.91-2.18,.39-8.36,.35-16.73,.35-25.1,0-2.5,0-5,.01-7.49,0-.61-.16-1.22,.87-1.22,5.71,.04,11.42,.02,17.47,.02Z"/>
  <path class="cls-36" d="M81.45,252.78c-.55-1.52-.92-2.98-1.85-4.19-1.66-2.16-3.52-2.49-5.73-1.02-2.89,1.93-6.98,1.92-9.85-.02-2.18-1.47-4.06-1.11-5.72,1.06-.92,1.21-1.27,2.67-1.81,4.08-4.48-5.44-3.69-14.52,1.7-19.78,5.73-5.6,14.86-5.81,21.02-.49,5.77,4.99,6.83,13.9,2.25,20.36Z"/>
  <path class="cls-36" d="M64.1,384.52c-10.35,4.76-14.71,12.37-12.7,21.67,1.71,7.9,9.23,13.92,17.47,13.98,8.17,.06,15.72-5.87,17.61-13.82,2.17-9.16-2.12-16.72-12.71-21.88,2.44,0,4.47,0,6.51,0,30.96-.08,61.92-.3,92.87-.2,35.02,.12,70.03,.41,105.05,.13,27.77-.22,55.54,.32,83.31,.04,1.53-.02,2.09,.39,2.08,1.96-.02,10.8,0,21.6,.08,32.39,.01,1.52-.43,1.98-2,1.98-28.53-.05-57.05-.05-85.58-.02-32.02,.02-64.04,.14-96.06,.11-42.44-.05-84.89-.21-127.33-.32-1.81,0-3.62-.09-5.43-.04-1.45,.04-1.96-.55-1.9-2,.35-8.36,.38-16.73,.35-25.1-.01-2.56,.01-5.12,.02-7.68,0-.62-.14-1.21,.88-1.21,5.71,.04,11.42,.02,17.49,.02Z"/>
  <path class="cls-36" d="M81.45,410.94c-.55-1.52-.92-2.98-1.85-4.19-1.66-2.16-3.52-2.5-5.73-1.02-2.88,1.93-6.98,1.92-9.85-.02-2.18-1.47-4.06-1.11-5.72,1.06-.93,1.21-1.27,2.67-1.81,4.08-4.48-5.44-3.69-14.51,1.7-19.78,5.73-5.6,14.86-5.81,21.02-.49,5.77,4.98,6.83,13.9,2.25,20.36Z"/>
  <path class="cls-36" d="M204.78,187.62c-18.1,0-36.2,.02-54.3,0-32.27-.05-64.54-.13-96.8-.21-2.18,0-4.37-.08-6.55-.06-1.25,.01-1.8-.44-1.75-1.76,.44-11.05,.34-22.1,.35-33.15,0-.8,.2-1.14,1.05-1.05,.55,.06,1.12,0,1.68,0,17.48-.02,34.95-.02,52.43-.05,27.71-.05,55.42-.29,83.13-.15,32.14,.16,64.29,.34,96.43,.09,26.96-.22,53.92,.37,80.87,.04,1.68-.02,2.3,.37,2.3,2.14-.04,10.67,0,21.34,.07,32.02,.01,1.63-.38,2.2-2.17,2.2-32.71-.06-65.41-.04-98.12-.04-19.54,0-39.07,0-58.61,0Z"/>
  <path class="cls-16" d="M194.39,67.92c0,3.78-1.02,5.15-3.89,5.21-2.33,.04-3.95-2.07-3.92-5.13,.03-2.72,1.82-4.89,4.09-4.93,2.71-.04,3.72,1.28,3.72,4.85Z"/>
  <path class="cls-16" d="M269.8,66.62c.83-2.08,2.31-3.21,4.24-3.24,2.03-.03,3.46,1,4.36,3.24h-8.6Z"/>
  <path class="cls-36" d="M239.66,63c2.64,.02,4.32,1.9,4.26,4.79-.05,2.67-1.91,4.68-4.3,4.66-2.38-.02-3.97-1.99-3.96-4.9,0-2.73,1.62-4.56,4-4.54Z"/>
  <path class="cls-36" d="M140.48,67.55c0-2.74,1.5-4.54,3.78-4.55,2.74,0,4.43,1.73,4.48,4.6,.05,2.64-1.94,4.87-4.33,4.84-2.41-.02-3.94-1.92-3.94-4.9Z"/>
  <path class="cls-38" d="M49.67,129.33c-.54-.14-1.66,.43-1.88-.3-.31-1.01-.09-2.19-.06-3.3,0-.14,.19-.31,.33-.39,.89-.53,5.1,.24,5.84,1.05,.8,.87,.49,1.6-.35,2.16-1.12,.75-2.41,.87-3.89,.79Z"/>
  <path class="cls-18" d="M59.94,130.71c1.56-2.49,3.67-2.49,5.07,0h-5.07Z"/>
  <path class="cls-18" d="M95.22,130.76h-5.25c.62-1.19,1.4-1.84,2.63-1.86,1.23-.02,2.11,.47,2.62,1.86Z"/>
  <path class="cls-18" d="M131.59,130.84c-1.55,0-2.9,0-4.26,0-.28,0-.74-.02-.81-.17-.17-.38,.21-.66,.45-.91,1.38-1.46,3.38-1.08,4.61,1.09Z"/>
  <path class="cls-4" d="M43.01,33.63c-.23,.96,0,2.31-1.36,2.31-1.19,0-1.28-1.23-1.28-2.15,0-.95-.08-2.2,1.32-2.22,1.37-.02,1,1.29,1.32,2.07Z"/>
  <path class="cls-18" d="M367.43,33.25c-.91,.26-.59,1.03-.69,1.63h0c-2.87,.36-5.74,.26-8.62,.04l-.02-.02c-.21-1.5-.31-3.01,.05-4.5,2.18,0,4.37,.08,6.54-.04,1.27-.07,2.15,.12,2.44,1.49,.4,.4,.12,.95,.29,1.4Z"/>
  <path class="cls-22" d="M358.14,34.92c2.87-.02,5.74-.03,8.62-.05-2.87,.68-5.74,.6-8.62,.05Z"/>
  <path class="cls-22" d="M358.16,30.4c-.02,1.5-.03,3-.05,4.5-.54-1.51-.62-3.01,.05-4.5Z"/>
  <path class="cls-33" d="M66.92,32.61c.13,.62,.89,1.03,.35,1.68-.12,.14-.71,.13-.82-.02-.49-.66,.14-1.08,.46-1.66Z"/>
  <path class="cls-1" d="M47.67,32.54c-.07,.76-.36,1.3-1.24,1.3-.63,0-.9-.38-.9-.93,0-.75,.45-1.13,1.18-1.1,.46,.02,1.07-.07,.96,.74Z"/>
  <path class="cls-36" d="M349.78,745.32c.04-2.87,2.25-5.08,5.07-5.07,2.84,0,5.2,2.45,5.11,5.29-.09,2.81-2.36,4.94-5.24,4.9-2.91-.04-4.98-2.19-4.94-5.12Z"/>
  <path class="cls-34" d="M104.17,287.65c0,1.98,0,3.42,0,4.85,0,.66-.03,1.32-.88,1.35-.83,.03-.99-.57-1-1.26-.04-2.3-.11-4.61-.12-6.91,0-.59-.02-1.31,.78-1.51,.66-.17,1.01,.29,1.37,.74,1.24,1.55,2.5,3.1,3.83,4.74,.44-1.29,.1-2.62,.19-3.91,.05-.69-.04-1.51,.9-1.57,1.1-.07,1.06,.84,1.05,1.59,0,2.24-.04,4.49-.06,6.73,0,.57-.02,1.16-.71,1.36-.66,.19-1.05-.22-1.39-.7-1.22-1.69-2.44-3.39-3.96-5.49Z"/>
  <path class="cls-15" d="M121.71,291.26c-.29,.78,.68,2.51-1.05,2.52-1.52,0-.72-1.67-.99-2.58-.12-.4-.02-.87-.02-1.3,0-3.12,1.2-4.01,4.17-2.91,.72,.27,1.2,.2,1.86-.04,2.02-.71,3.76,.42,3.99,2.58,.11,.98,.06,1.99,.04,2.98,0,.63-.03,1.37-.9,1.35-.98-.02-.92-.83-.92-1.52,0-.81,.02-1.61,0-2.42-.02-.76-.27-1.34-1.2-1.3-1.01,.04-.99,.72-.99,1.44,0,.87,0,1.74-.04,2.6-.03,.68-.23,1.29-1.07,1.19-.73-.09-.76-.68-.74-1.28,.02-.75,.09-1.5,.02-2.24-.06-.76,.04-1.72-1.2-1.71-1.38,0-.93,1-.95,1.74,0,.25,0,.5,0,.91Z"/>
  <path class="cls-8" d="M171.6,290.24c0-.12,0-.25,0-.37,0-3.17,1.09-3.97,4.1-2.9,.67,.24,1.15,.29,1.84,.02,1.93-.75,3.72,.26,4.03,2.29,.18,1.16,.08,2.36,.07,3.54,0,.65-.33,1.09-1.03,1.04-.62-.05-.77-.51-.77-1.07,0-1,.03-1.99-.02-2.99-.04-.8-.47-1.25-1.34-1.18-.87,.07-.91,.66-.91,1.33,0,1,.02,1.99-.03,2.99-.03,.55-.36,.94-.96,.92-.62-.02-.85-.43-.85-1,0-1,.02-1.99,0-2.99-.02-.78-.31-1.29-1.23-1.27-1,.03-1.04,.65-1.01,1.4,.04,.87,.04,1.74,.04,2.61,0,.69-.18,1.28-1.02,1.23-.7-.04-.89-.55-.88-1.18,.01-.81,0-1.62,0-2.43h-.03Z"/>
  <path class="cls-34" d="M135.12,289.14c0-.44,0-.87,0-1.31,0-3.68,1.38-4.71,4.99-3.59,1.5,.47,2.44,1.52,2.3,3.2-.16,1.86-1.61,2.67-3.1,2.59-1.99-.1-2.47,.6-2.21,2.37,.11,.72-.05,1.47-.99,1.44-.99-.03-.88-.86-.89-1.53-.01-1.06,0-2.11,0-3.17-.03,0-.06,0-.08,0Z"/>
  <path class="cls-15" d="M150.24,291.22c1.05,1.53,2.05,1.47,3.09,.79,.57-.37,1.03-.41,1.43,.16,.36,.52,.11,.98-.3,1.29-1.33,1.02-2.81,1.09-4.2,.26-1.35-.81-2.14-2.21-1.94-3.73,.26-2.01,1.63-3.12,3.31-3.25,1.64-.12,2.77,.57,3.38,2.07,.62,1.52,.17,2.27-1.45,2.39-.99,.07-1.98,.01-3.32,.01Z"/>
  <path class="cls-15" d="M118.46,290.15c0,2.28-1.26,3.9-3.08,3.95-2.03,.05-3.63-1.55-3.65-3.65-.02-2.02,1.39-3.75,3.08-3.79,2.3-.05,3.65,1.24,3.65,3.49Z"/>
  <path class="cls-15" d="M163.68,290.4c0-2.15,1.29-3.72,3.06-3.74,2.22-.02,3.7,1.4,3.67,3.53-.03,2.17-1.45,3.92-3.19,3.92-2.1,0-3.55-1.52-3.54-3.71Z"/>
  <path class="cls-23" d="M156.31,290.2c0-.62,.02-1.25,0-1.87-.04-1.09,.08-1.99,1.53-1.32,.25,.11,.43,.11,.69,.07,2.83-.47,3.68,.17,3.95,3.02,.07,.74,.04,1.49,0,2.24-.03,.68-.05,1.51-1,1.5-1.02,0-.86-.87-.87-1.53-.01-.81,.05-1.62,0-2.42-.05-.72-.29-1.33-1.23-1.31-1.06,.03-.94,.76-.95,1.44,0,.94,.02,1.87-.02,2.81-.03,.63-.37,1.07-1.07,1.02-.63-.04-.82-.53-.85-1.05-.04-.87-.01-1.74-.01-2.61-.05,0-.11,0-.16,0Z"/>
  <path class="cls-23" d="M134.52,305.1c0,.44,.12,.92-.02,1.3-.34,.91,.91,2.58-.75,2.73-3.48,.31-4.69-.59-4.79-2.87-.09-1.95,1.15-3.41,3.12-3.34,1.12,.04,1.24-.38,1.19-1.25-.02-.41-.05-.97,.55-1,.73-.03,.67,.58,.68,1.07,0,1.12,0,2.24,0,3.36,0,0,.02,0,.03,0Z"/>
  <path class="cls-15" d="M104,300.59c1.11,.07,1.79-.02,2.46,.22,1.26,.44,2.03,1.28,2.05,2.59,.01,1.33-.9,1.96-2.12,2.21-.42,.09-.87,.28-1.27,.21-1.53-.25-1.8,.46-1.59,1.78,.08,.54,.31,1.49-.51,1.54-1.09,.07-.67-.98-.7-1.56-.08-1.62,.02-3.24-.1-4.85-.12-1.69,.46-2.46,1.77-2.15Z"/>
  <path class="cls-23" d="M116.34,306.66c1.01,1.42,1.97,1.65,3.17,1.18,.48-.19,1.15-.65,1.39,.19,.22,.74-.57,.87-1.05,1.05-1.87,.7-3.87-.12-4.54-1.8-.65-1.64,.15-3.38,1.88-4.09,1.61-.67,3.3,.05,3.98,1.68,.5,1.2,.34,1.92-1.2,1.81-1.09-.07-2.19-.01-3.63-.01Z"/>
  <path class="cls-26" d="M143.24,290.23c0-.69-.04-1.38,.01-2.06,.09-1.08,.4-1.92,1.72-1.07,.58,.37,1-.07,1.48-.24,.59-.21,1.15-.17,1.42,.46,.29,.69-.17,1.17-.74,1.24-2.23,.27-1.88,1.89-1.86,3.35,.01,.8,.24,1.84-.89,1.91-1.29,.08-1.11-1.06-1.13-1.91-.02-.56,0-1.12,0-1.68Z"/>
  <path class="cls-23" d="M111.43,309.26c-.74,.06-1.44-.12-1.85-.72-.35-.52-.96-1.28-.18-1.8,.7-.48,.84,.35,1.11,.82,.51,.88,1.26,.6,1.95,.26,.2-.1,.43-.32,.47-.51,.06-.35-.27-.53-.56-.61-.59-.17-1.21-.26-1.8-.43-.92-.26-1.31-.89-1.18-1.84,.14-1.04,.79-1.49,1.79-1.55,1.06-.06,1.96,.29,2.68,1.06,.24,.26,.57,.58,.25,.97-.28,.33-.65,.31-1,.05-.24-.19-.45-.45-.73-.56-.49-.2-1.01-.62-1.55-.11-.12,.11-.26,.34-.22,.46,.19,.59,.84,.39,1.23,.66,.05,.03,.12,.04,.18,.04,1.21,.13,2.36,.54,2.22,1.97-.16,1.57-1.53,1.74-2.81,1.84Z"/>
  <path class="cls-37" d="M138.82,302.86c1.76,.08,2.92,1.45,2.78,3.28-.13,1.75-1.57,3.17-3.13,3.1-1.54-.07-2.72-1.66-2.6-3.5,.12-1.87,1.23-2.95,2.95-2.87Z"/>
  <path class="cls-2" d="M127.72,305.97c0,.19,.04,.38,0,.56-.23,.91,.67,2.47-.82,2.64-3.07,.34-3.94-.3-4.37-2.42-.22-1.06-.05-2.11,.01-3.16,.03-.42,.22-.73,.69-.69,.49,.04,.52,.44,.51,.82-.01,.87-.13,1.75-.01,2.61,.1,.78,.37,1.74,1.4,1.64,.91-.09,1.31-.82,1.28-1.76-.03-.87,0-1.74,.02-2.61,0-.32,.14-.64,.5-.69,.44-.06,.73,.24,.75,.64,.04,.81,.01,1.62,.01,2.42h.04Z"/>
  <path class="cls-2" d="M153.47,284.26c-.52,.77-.97,1.79-2.11,1.98-.51,.09-.96-.46-.82-.99,.27-.98,.92-1.75,1.93-2,.51-.12,.91,.29,1,1.01Z"/>
  <path d="M68.95,287.1c4.29,0,7.72,3.37,7.75,7.64,.03,4.27-3.39,7.74-7.64,7.76-4.39,.03-7.86-3.4-7.84-7.75,.02-4.27,3.42-7.64,7.73-7.65Z"/>
  <path class="cls-34" d="M108.36,342.37c0-1.67,0-3.01,0-4.36,0-.66,.08-1.33,.9-1.38,.97-.06,1.04,.71,1.04,1.42,0,2.3-.04,4.61-.06,6.91,0,.57-.03,1.16-.72,1.34-.66,.18-1.04-.24-1.38-.71-1.22-1.69-2.44-3.38-3.95-5.48,0,1.94,0,3.4,0,4.86,0,.67-.04,1.32-.9,1.34-.83,.02-.97-.59-.98-1.28-.04-2.3-.11-4.61-.12-6.91,0-.59-.02-1.31,.79-1.5,.67-.16,1.01,.31,1.37,.76,1.24,1.55,2.5,3.1,4.02,4.98Z"/>
  <path class="cls-15" d="M119.65,342.62c0-.12,0-.25,0-.37,0-3,1.04-3.82,3.94-2.89,.81,.26,1.38,.34,2.21,.04,1.89-.7,3.64,.48,3.86,2.54,.12,1.11,.05,2.23,.03,3.35,0,.63-.26,1.12-1,1.04-.62-.06-.78-.54-.8-1.08-.04-.99,.18-1.97,0-2.98-.15-.82-.47-1.25-1.33-1.17-.88,.08-.86,.73-.88,1.37-.02,.99,.01,1.99-.06,2.97-.04,.53-.35,.94-.98,.9-.66-.04-.81-.54-.83-1.04-.03-.93,.07-1.87,.02-2.8-.04-.78-.22-1.49-1.3-1.41-1.1,.07-.86,.84-.86,1.49,0,.87,.04,1.74,.02,2.62-.02,.61-.27,1.11-.97,1.15-.74,.03-.93-.48-.97-1.1-.05-.87-.1-1.74-.15-2.61,.01,0,.02,0,.03,0Z"/>
  <path class="cls-8" d="M171.6,342.65v-.37c0-3.07,1.17-3.9,4.15-2.79,.71,.26,1.19,.17,1.84-.06,1.83-.67,3.64,.31,3.95,2.21,.2,1.21,.09,2.48,.09,3.72,0,.57-.32,.97-.9,.98-.73,.01-.9-.5-.9-1.13,0-1,.03-1.99-.03-2.98-.04-.69-.41-1.14-1.2-1.13-.84,.01-1.05,.49-1.03,1.21,.02,.93,0,1.87,0,2.8,0,.7-.24,1.27-1.05,1.22-.74-.04-.8-.64-.79-1.24,.01-.93,.02-1.87,0-2.8-.02-.81-.41-1.25-1.29-1.2-.86,.05-.98,.57-.95,1.27,.04,.81,.04,1.62,.05,2.43,0,.69,.07,1.51-.9,1.54-1.12,.03-.99-.87-1-1.61,0-.68,0-1.37,0-2.05h-.02Z"/>
  <path class="cls-34" d="M137.94,336.6c.37,0,.75-.01,1.12,0,1.99,.07,3.33,1.27,3.37,3,.03,1.58-1.28,3.07-3.18,2.91-2.14-.18-2.33,.79-2.15,2.42,.08,.75-.11,1.44-1.05,1.38-.86-.05-.83-.77-.84-1.4-.03-1.8-.07-3.61-.08-5.41-.01-2.91,0-2.91,2.82-2.9Z"/>
  <path class="cls-15" d="M150.34,343.68c.87,1.65,1.94,1.44,3.03,.78,.51-.31,.91-.37,1.31,.08,.43,.48,.26,.99-.13,1.31-1.21,1.02-2.6,1.14-4.02,.49-1.59-.73-2.28-2.23-2.26-3.76,.03-1.92,1.66-3.26,3.39-3.37,1.75-.11,2.85,.7,3.4,2.3,.44,1.27,.06,2.1-1.39,2.15-1.05,.04-2.09,0-3.34,0Z"/>
  <path class="cls-15" d="M118.46,342.55c.03,2.35-1.32,4.06-3.2,4.03-1.95-.03-3.47-1.57-3.53-3.59-.06-2.09,1.41-3.87,3.2-3.85,2.24,.02,3.5,1.24,3.54,3.42Z"/>
  <path class="cls-15" d="M166.99,339.17c2.19,.12,3.48,1.47,3.42,3.57-.07,2.31-1.56,3.94-3.44,3.79-2.17-.18-3.39-1.64-3.28-3.91,.11-2.17,1.43-3.55,3.3-3.45Z"/>
  <path class="cls-23" d="M160.67,343.9c0-.31,.04-.63,0-.93-.13-.81,.09-1.9-1.24-1.9-1.51,0-.9,1.19-.98,1.93-.08,.74,0,1.5-.03,2.24-.03,.63-.32,1.09-1.02,1.08-.63,0-.86-.47-.89-1-.09-1.68-.14-3.36-.2-5.04-.02-.48,.3-1.12,.61-.99,1.55,.67,3.51-1.06,4.77,.77,1.17,1.72,.95,3.67,.66,5.59-.07,.48-.47,.72-.98,.65-.54-.07-.71-.47-.73-.93-.03-.5,0-.99,0-1.49,.02,0,.04,0,.06,0Z"/>
  <path class="cls-23" d="M134.52,358.15c0,.5,.14,1.05-.03,1.48-.34,.91,.95,2.58-.76,2.71-3.53,.26-4.68-.6-4.77-2.89-.08-1.95,1.15-3.34,3.14-3.33,.88,0,1.27-.12,1.17-1.08-.05-.45-.13-1.15,.57-1.15,.86-.01,.64,.75,.65,1.27,.03,1,0,1.99,0,2.99h.03Z"/>
  <path class="cls-23" d="M116.39,359.88c.91,1.44,1.89,1.66,3.14,1.17,.49-.19,1.14-.61,1.38,.23,.17,.61-.45,.81-.92,.95-1.58,.48-3.11,.47-4.23-.95-1.02-1.3-.93-2.7,.12-3.93,1.03-1.2,2.33-1.61,3.84-.86,.64,.31,1.09,.8,1.39,1.45,.67,1.45,.4,1.91-1.16,1.94-1.09,.02-2.18,0-3.55,0Z"/>
  <path class="cls-7" d="M102.24,358.12c0-.44-.08-.89,.02-1.31,.21-.97-.58-2.51,.61-2.82,1.48-.38,3.23-.53,4.65,.6,.74,.58,1.09,1.38,.99,2.3-.11,.95-.72,1.55-1.64,1.83-.42,.12-.86,.37-1.25,.31-1.89-.29-2.37,.56-2.06,2.26,.08,.44,.12,1.12-.59,1.13-.72,0-.62-.64-.63-1.12-.01-1.06,0-2.12,0-3.17-.03,0-.05,0-.08,0Z"/>
  <path class="cls-26" d="M143.24,342.73c0-.56-.03-1.12,0-1.68,.08-1.15-.04-2.56,1.84-1.37,.44,.28,.9-.17,1.33-.33,.59-.22,1.14-.2,1.43,.43,.32,.69-.15,1.19-.7,1.25-2.22,.26-1.92,1.86-1.89,3.34,.02,.85,.27,1.98-1.04,1.93-1.12-.04-.96-1.09-.98-1.89-.01-.56,0-1.12,0-1.68Z"/>
  <path class="cls-23" d="M111.53,362.48c-1.22,.07-2.06-.39-2.37-1.62-.1-.37-.16-.76,.29-.95,.42-.18,.72,0,.87,.41,.2,.54,.41,1.07,1.13,1,.62-.05,1.4-.11,1.46-.84,.05-.57-.64-.59-1.13-.67-.48-.08-.97-.21-1.42-.39-.78-.33-1.09-.94-.98-1.8,.11-.86,.63-1.36,1.42-1.5,1.02-.19,1.98,.07,2.77,.76,.35,.31,.91,.68,.53,1.21-.38,.53-.85,.22-1.25-.16-.21-.2-.52-.31-.79-.45-.55-.29-1.18-.41-1.41,.28-.27,.8,.64,.5,.95,.79,.08,.08,.23,.1,.35,.11,1.28,.14,2.48,.56,2.27,2.09-.2,1.43-1.5,1.63-2.71,1.73Z"/>
  <path class="cls-37" d="M138.72,356.08c1.79,.04,2.97,1.35,2.88,3.18-.08,1.75-1.47,3.21-3.04,3.19-1.57-.02-2.78-1.54-2.7-3.41,.08-1.88,1.17-3.01,2.85-2.97Z"/>
  <path class="cls-2" d="M127.72,359.32c0,.19,.04,.38,0,.56-.24,.86,.67,2.3-.76,2.52-2.82,.43-3.9-.23-4.39-2.18-.27-1.11-.12-2.23-.04-3.34,.03-.4,.16-.77,.63-.75,.63,.02,.57,.51,.56,.95-.01,.87-.1,1.75,.02,2.6,.1,.72,.42,1.6,1.33,1.53,.88-.07,1.37-.75,1.33-1.72-.03-.81-.02-1.62,0-2.43,.01-.43,.03-.95,.64-.93,.55,.02,.66,.49,.67,.95,.01,.75,0,1.49,0,2.24h0Z"/>
  <path class="cls-2" d="M153.46,336.75c-.55,.77-.98,1.82-2.15,1.96-.51,.06-.95-.51-.77-1.03,.32-.94,.92-1.76,1.97-1.96,.53-.1,.89,.33,.95,1.03Z"/>
  <path d="M68.93,339.57c4.3-.01,7.73,3.35,7.77,7.62,.04,4.27-3.38,7.75-7.62,7.78-4.4,.03-7.87-3.38-7.86-7.73,0-4.27,3.41-7.66,7.71-7.67Z"/>
  <path class="cls-34" d="M104.17,445.81c0,2,0,3.48,0,4.96,0,.69-.13,1.29-.98,1.25-.7-.04-.89-.55-.9-1.18-.04-2.37-.1-4.73-.12-7.1,0-.54,.03-1.18,.7-1.39,.64-.2,1.03,.19,1.4,.66,1.27,1.59,2.55,3.16,4.08,5.05,0-1.67,0-3.05,0-4.44,0-.67,.15-1.31,.98-1.3,.84,0,.96,.68,.95,1.33,0,2.37-.04,4.73-.06,7.1,0,.52-.08,1.04-.63,1.23-.62,.22-1.06-.11-1.42-.61-1.23-1.71-2.47-3.42-4.01-5.56Z"/>
  <path class="cls-15" d="M119.62,448.19c.04-3.42,1.09-4.15,4.42-2.94,.61,.22,1.01,.09,1.53-.09,2.19-.76,3.89,.29,4.11,2.58,.11,1.11,.03,2.24,0,3.35-.01,.57-.3,.96-.92,.93-.62-.03-.84-.48-.86-1.02-.05-1.05,.19-2.1-.02-3.16-.15-.75-.49-1.08-1.25-1.05-.9,.03-1.01,.69-.93,1.3,.13,.94,.02,1.86-.04,2.79-.04,.6-.22,1.17-.95,1.14-.86-.03-.89-.67-.87-1.34,.02-.93,.01-1.87-.04-2.8-.04-.71-.38-1.12-1.19-1.11-.92,.01-.96,.57-.94,1.25,.02,1,.06,1.99,.02,2.99-.03,.62-.38,1.06-1.07,1.02-.63-.04-.81-.5-.84-1.04-.06-.93-.1-1.86-.15-2.79Z"/>
  <path class="cls-8" d="M171.6,448.38c0-.12,0-.25,0-.37,0-3.11,1.14-3.93,4.12-2.85,.69,.25,1.17,.23,1.84-.02,1.92-.72,3.72,.31,4.02,2.33,.17,1.16,.08,2.36,.06,3.54,0,.65-.36,1.08-1.05,1.01-.62-.06-.75-.54-.75-1.09,.01-.87,.03-1.74,0-2.61-.02-.79-.16-1.52-1.2-1.53-1.13-.01-1.08,.77-1.06,1.54,.01,.75,0,1.49,0,2.24,0,.73-.08,1.49-1.01,1.44-1.01-.05-.81-.9-.81-1.57,0-.68,0-1.37,0-2.05-.01-.85-.07-1.66-1.27-1.61-1.16,.05-.98,.86-.97,1.61,.02,.87,.03,1.74,.01,2.61-.01,.55-.24,.99-.85,1.02-.69,.04-1.02-.35-1.03-1.02-.01-.87,0-1.74,0-2.61-.01,0-.02,0-.03,0Z"/>
  <path class="cls-34" d="M135.12,447.23c0-.44-.04-.87,0-1.31,.11-1.15-.56-2.76,.51-3.33,1.38-.74,3.16-.52,4.71-.06,1.46,.44,2.22,1.58,2.06,3.15-.18,1.76-1.57,2.55-2.99,2.51-1.96-.05-2.65,.55-2.32,2.45,.11,.66-.08,1.32-.89,1.37-1,.06-1-.72-1-1.42,0-1.12,0-2.24,0-3.35-.03,0-.06,0-.08,0Z"/>
  <path class="cls-15" d="M150.23,449.38c1.06,1.53,2.06,1.47,3.1,.79,.58-.37,1.03-.4,1.43,.17,.36,.52,.1,.98-.31,1.29-1.33,1.02-2.81,1.08-4.2,.25-1.35-.81-2.14-2.2-1.94-3.73,.27-2.01,1.63-3.12,3.31-3.24,1.64-.12,2.77,.58,3.37,2.08,.62,1.52,.17,2.26-1.46,2.38-.99,.07-1.98,.01-3.32,.01Z"/>
  <path class="cls-15" d="M118.46,448.38c-.02,2.27-1.33,3.88-3.15,3.89-2.01,0-3.6-1.64-3.58-3.72,.02-2.03,1.44-3.72,3.14-3.73,2.3,0,3.61,1.29,3.59,3.56Z"/>
  <path class="cls-15" d="M163.68,448.67c-.04-2.13,1.23-3.79,2.95-3.86,2.19-.09,3.73,1.32,3.78,3.44,.04,2.12-1.37,3.96-3.08,4.02-2.08,.08-3.61-1.43-3.65-3.6Z"/>
  <path class="cls-23" d="M156.3,448.33c0-.69,0-1.37,0-2.06-.01-.98,.25-1.65,1.41-1.18,.29,.12,.5,.21,.84,.15,2.72-.5,3.61,.15,3.9,2.87,.1,.92,.05,1.87-.01,2.8-.04,.57-.25,1.14-1,1.11-.78-.03-.84-.63-.85-1.2,0-.87,.07-1.74,.02-2.61-.05-.77-.22-1.5-1.28-1.46-1.07,.05-.9,.8-.91,1.47,0,.75,0,1.5,0,2.24,0,.72-.03,1.51-.94,1.54-1.1,.04-1-.89-1.01-1.63-.02-.68,0-1.37,0-2.05-.06,0-.11,0-.17,0Z"/>
  <path class="cls-23" d="M134.52,463.12c0,.5,.15,1.06-.03,1.48-.37,.89,1.01,2.57-.78,2.67-3.57,.19-4.68-.64-4.75-2.91-.06-1.89,1.16-3.35,2.98-3.29,1.09,.03,1.45-.24,1.33-1.3-.05-.42,0-.95,.6-.96,.6,0,.63,.49,.63,.94,0,1.12,0,2.24,0,3.36,0,0,.02,0,.03,0Z"/>
  <path class="cls-23" d="M116.41,464.82c.92,1.48,1.92,1.64,3.17,1.15,.43-.17,1.01-.55,1.29,.11,.32,.77-.42,.91-.9,1.11-1.83,.76-3.87,.01-4.6-1.64-.71-1.62,.03-3.4,1.73-4.16,1.63-.73,3.29-.1,4.03,1.53,.66,1.45,.4,1.88-1.22,1.9-1.06,.02-2.12,0-3.5,0Z"/>
  <path class="cls-7" d="M102.24,462.95c0-.37,0-.75,0-1.12,.02-3.25,.12-3.35,3.32-3.03,1.58,.16,2.79,.9,2.93,2.59,.16,1.8-1.26,2.46-2.64,2.5-1.8,.05-2.78,.42-2.31,2.45,.09,.38,.07,.97-.52,1.01-.73,.06-.7-.54-.7-1.04,0-1.12,0-2.24,0-3.36-.03,0-.05,0-.08,0Z"/>
  <path class="cls-26" d="M143.24,448.5c0-.69-.04-1.37,0-2.06,.09-1.13,.27-2.12,1.79-1.13,.49,.32,1-.13,1.49-.31,.6-.22,1.15-.07,1.38,.56,.21,.58-.2,1.08-.68,1.14-2.12,.26-2.08,1.71-1.97,3.28,.06,.83,.34,2-.96,2.01-1.27,.01-1.01-1.16-1.05-1.99-.02-.5,0-1,0-1.5Z"/>
  <path class="cls-23" d="M111.39,467.42c-.87,.01-1.64-.21-2.02-1.07-.21-.48-.65-1.09,.05-1.48,.64-.36,.85,.23,1.03,.71,.34,.91,1.04,.75,1.71,.55,.34-.1,.79-.25,.78-.7-.02-.41-.4-.57-.78-.63-.37-.06-.74-.1-1.1-.2-1.03-.29-1.88-.74-1.67-2.06,.17-1.04,.82-1.49,1.82-1.51,1.27-.03,2.38,.38,2.95,1.56,.28,.59-.31,.79-.75,.65-.39-.12-.68-.54-1.06-.72-.48-.23-1.02-.61-1.54-.07-.11,.12-.23,.36-.19,.48,.23,.54,.85,.38,1.26,.63,.05,.03,.12,.03,.18,.04,1.22,.14,2.36,.58,2.18,2-.2,1.54-1.55,1.74-2.85,1.8Z"/>
  <path class="cls-37" d="M138.65,467.4c-1.52,.03-2.73-1.35-2.78-3.14-.04-1.87,1.01-3.18,2.59-3.24,1.83-.07,3.09,1.1,3.15,2.93,.06,1.8-1.33,3.43-2.96,3.46Z"/>
  <path class="cls-2" d="M127.72,464.25c0,.19,.04,.38,0,.56-.23,.86,.66,2.3-.75,2.53-2.79,.46-3.9-.21-4.39-2.17-.28-1.11-.12-2.23-.04-3.34,.03-.4,.16-.77,.62-.77,.63,.01,.58,.5,.57,.94-.01,.87-.1,1.75,.01,2.6,.1,.73,.42,1.61,1.32,1.54,.88-.06,1.37-.74,1.34-1.71-.03-.87-.02-1.74,.01-2.61,.01-.37,.13-.77,.62-.76,.46,.01,.64,.37,.66,.76,.03,.81,.01,1.62,.01,2.43h.02Z"/>
  <path class="cls-2" d="M153.47,442.38c-.46,.8-.97,1.76-2.06,2.03-.5,.12-.98-.41-.88-.94,.2-1.02,.92-1.74,1.88-2.06,.48-.16,.93,.23,1.06,.97Z"/>
  <path d="M68.95,445.26c4.29,0,7.72,3.37,7.75,7.64,.03,4.27-3.39,7.74-7.64,7.76-4.39,.03-7.86-3.4-7.84-7.75,.02-4.27,3.42-7.64,7.73-7.65Z"/>
  <path class="cls-34" d="M104.17,498.28c0,2.05,0,3.54,0,5.04,0,.63-.17,1.14-.89,1.17-.7,.03-.97-.44-.99-1.08-.05-2.37-.11-4.73-.12-7.1,0-.59-.02-1.31,.78-1.51,.66-.17,1.01,.3,1.37,.75,1.24,1.55,2.5,3.1,3.83,4.74,.44-1.29,.1-2.62,.19-3.91,.05-.69-.04-1.51,.9-1.57,1.1-.07,1.05,.84,1.05,1.59,0,2.24-.04,4.49-.06,6.73,0,.57-.02,1.16-.71,1.35-.66,.19-1.05-.23-1.39-.7-1.22-1.69-2.44-3.39-3.96-5.49Z"/>
  <path class="cls-15" d="M119.62,500.66c.04-3.42,1.09-4.15,4.42-2.94,.61,.22,1.01,.09,1.53-.09,2.19-.76,3.89,.29,4.11,2.58,.11,1.11,.03,2.24,0,3.35-.01,.57-.3,.96-.92,.93-.62-.03-.84-.48-.86-1.02-.05-1.05,.19-2.1-.02-3.16-.15-.75-.49-1.08-1.25-1.05-.9,.04-1.01,.69-.93,1.31,.13,.94,.02,1.86-.04,2.79-.04,.6-.22,1.17-.95,1.14-.86-.03-.88-.67-.87-1.34,.02-.93,.01-1.87-.04-2.8-.04-.71-.38-1.12-1.19-1.11-.92,.01-.96,.57-.94,1.25,.02,1,.06,1.99,.02,2.99-.03,.62-.38,1.06-1.08,1.02-.63-.04-.81-.5-.84-1.04-.06-.93-.1-1.86-.15-2.79Z"/>
  <path class="cls-8" d="M171.6,500.88c0-.12,0-.25,0-.37,0-3.13,1.12-3.96,4.1-2.9,.67,.24,1.15,.29,1.84,.02,1.93-.75,3.72,.25,4.03,2.28,.18,1.16,.08,2.36,.07,3.54,0,.65-.33,1.09-1.03,1.04-.62-.04-.78-.51-.77-1.06,0-1,.03-1.99-.02-2.99-.04-.8-.47-1.25-1.33-1.18-.87,.07-.92,.66-.91,1.33,0,1,.02,1.99-.03,2.99-.03,.55-.36,.94-.96,.93-.61-.01-.85-.42-.85-1,0-1,.02-1.99,0-2.99-.02-.78-.31-1.3-1.23-1.27-1,.03-1.05,.64-1.01,1.4,.04,.87,.04,1.74,.04,2.61,0,.68-.18,1.28-1.02,1.24-.7-.04-.89-.55-.88-1.18,.01-.81,0-1.62,0-2.43,0,0-.02,0-.03,0Z"/>
  <path class="cls-34" d="M135.12,499.69c0-.44-.04-.87,0-1.31,.11-1.15-.56-2.76,.51-3.33,1.38-.73,3.17-.52,4.71-.05,1.46,.44,2.23,1.59,2.04,3.16-.22,1.84-1.67,2.58-3.18,2.51-1.87-.08-2.41,.53-2.12,2.26,.11,.69,.04,1.5-.9,1.53-1.14,.04-.97-.89-.99-1.62-.02-1.06,0-2.11,0-3.17-.03,0-.06,0-.08,0Z"/>
  <path class="cls-15" d="M150.4,501.87c.71,1.58,1.77,1.42,2.81,.86,.62-.34,1.15-.62,1.56,.12,.46,.83-.18,1.3-.79,1.6-1.54,.75-3.14,.69-4.32-.56-1.1-1.17-1.88-2.52-.97-4.34,.82-1.64,1.99-2.3,3.73-2.14,1.51,.14,2.72,1.49,2.83,3,.07,1.02-.54,1.31-1.34,1.42-.55,.07-1.12,.05-1.68,.05-.55,0-1.1,0-1.81,0Z"/>
  <path class="cls-15" d="M118.46,500.72c.03,2.35-1.33,4.06-3.21,4.02-1.96-.03-3.46-1.58-3.52-3.6-.06-2.1,1.42-3.87,3.2-3.84,2.24,.03,3.5,1.25,3.53,3.43Z"/>
  <path class="cls-15" d="M163.68,501.06c0-2.15,1.28-3.73,3.04-3.76,2.22-.04,3.7,1.38,3.69,3.52-.01,2.15-1.44,3.93-3.17,3.94-2.1,.01-3.56-1.51-3.56-3.7Z"/>
  <path class="cls-23" d="M156.33,500.84c0-.56,.02-1.12,0-1.68-.06-1.2-.08-2.31,1.66-1.44,.14,.07,.35,0,.53-.02,2.87-.43,3.7,.17,3.96,3.01,.08,.92,.02,1.87-.05,2.79-.04,.52-.29,.98-.92,.98-.77,0-.89-.57-.9-1.16-.01-.93,.06-1.87,0-2.8-.04-.71-.27-1.34-1.21-1.32-1.06,.02-.96,.73-.96,1.43,0,.94,.02,1.87-.02,2.81-.03,.63-.36,1.07-1.06,1.04-.63-.03-.84-.51-.86-1.03-.04-.87-.01-1.74-.01-2.61-.05,0-.1,0-.15,0Z"/>
  <path class="cls-23" d="M134.52,516.36c0,.5,.15,1.06-.03,1.48-.37,.88,1.03,2.57-.8,2.64-3.62,.15-4.67-.66-4.73-2.92-.05-1.89,1.16-3.34,3-3.27,1.14,.04,1.41-.31,1.31-1.32-.04-.42,.01-.95,.62-.94,.6,.01,.61,.52,.61,.96,0,1.12,0,2.24,0,3.36h.03Z"/>
  <path class="cls-7" d="M102.24,516.33c0-.44,0-.87,0-1.31,.02-3.23,.14-3.35,3.34-3,1.58,.17,2.78,.92,2.91,2.61,.14,1.8-1.29,2.47-2.66,2.48-1.86,.02-2.73,.49-2.29,2.47,.09,.39,.05,.97-.54,.99-.73,.03-.67-.58-.68-1.07,0-1.06,0-2.12,0-3.17-.03,0-.05,0-.08,0Z"/>
  <path class="cls-23" d="M116.39,518.04c.91,1.43,1.88,1.66,3.14,1.17,.48-.19,1.14-.62,1.38,.22,.18,.61-.45,.81-.91,.96-1.58,.49-3.11,.47-4.23-.95-1.02-1.29-.93-2.7,.11-3.93,1.02-1.21,2.33-1.61,3.84-.87,.64,.31,1.09,.8,1.39,1.45,.67,1.45,.41,1.91-1.15,1.94-1.09,.02-2.18,0-3.56,0Z"/>
  <path class="cls-26" d="M143.24,500.9c0-.69-.04-1.37,0-2.06,.08-1.07,.37-1.97,1.69-1.12,.62,.4,1.01-.07,1.48-.22,.6-.2,1.14-.21,1.44,.42,.33,.69-.13,1.19-.69,1.26-2.21,.26-1.94,1.84-1.9,3.33,.02,.85,.28,1.98-1.03,1.95-1.12-.02-.97-1.08-.99-1.88-.01-.56,0-1.12,0-1.68Z"/>
  <path class="cls-23" d="M111.96,520.61c-1.48,.06-2.32-.2-2.7-1.27-.16-.46-.45-.99,.21-1.28,.57-.25,.79,.21,.93,.63,.15,.47,.39,.78,.9,.79,.65,.01,1.43-.06,1.56-.72,.15-.74-.64-.66-1.16-.79-1-.25-2.22-.32-2.34-1.71-.1-1.18,.49-1.92,1.71-1.99,1.34-.08,2.49,.33,3.09,1.62,.2,.44-.27,.7-.65,.6-.33-.09-.57-.47-.9-.6-.55-.22-1.08-.73-1.73-.28-.22,.15-.44,.49-.26,.6,.45,.29,.98,.53,1.5,.62,1.23,.21,2.31,.66,2.11,2.08-.21,1.46-1.55,1.57-2.27,1.7Z"/>
  <path class="cls-37" d="M141.61,517.2c.04,1.81-1.36,3.42-3,3.42-1.51,0-2.72-1.39-2.74-3.18-.03-1.87,1.03-3.16,2.62-3.21,1.83-.05,3.07,1.13,3.12,2.96Z"/>
  <path class="cls-2" d="M127.72,517.4c0,.19,.04,.38,0,.56-.21,.89,.63,2.28-.69,2.59-2.72,.64-4.13-.23-4.49-2.47-.14-.91-.04-1.85-.02-2.78,0-.5,.02-1.1,.75-1,.61,.08,.44,.62,.44,1.04,0,.87-.1,1.76,.06,2.6,.13,.69,.42,1.56,1.4,1.41,.81-.13,1.25-.74,1.23-1.62-.02-.81,0-1.62,0-2.43,0-.43,0-.97,.57-1,.68-.03,.74,.54,.75,1.05,.01,.68,0,1.37,0,2.05Z"/>
  <path class="cls-2" d="M153.45,494.95c-.61,.74-.99,1.88-2.21,1.91-.5,.01-.92-.58-.7-1.09,.39-.89,.92-1.79,2.03-1.88,.55-.04,.86,.4,.88,1.06Z"/>
  <path d="M68.97,497.73c4.29,0,7.71,3.38,7.73,7.65,.02,4.27-3.4,7.73-7.65,7.75-4.38,.02-7.85-3.42-7.83-7.76,.03-4.27,3.43-7.63,7.75-7.64Z"/>
  <path class="cls-34" d="M108.36,236.68c0-1.61,0-2.9,0-4.18,0-.7-.02-1.49,.91-1.55,.96-.06,1.03,.72,1.03,1.43,0,2.24-.02,4.49-.06,6.73,0,.6,.06,1.3-.75,1.52-.77,.21-1.14-.37-1.5-.86-1.19-1.63-2.35-3.28-3.82-5.34,0,1.96,0,3.43,0,4.89,0,.67-.06,1.32-.91,1.33-.82,0-.96-.6-.97-1.29-.03-2.3-.1-4.61-.12-6.91,0-.55,0-1.2,.63-1.45,.71-.28,1.14,.21,1.54,.72,1.23,1.56,2.49,3.1,4.01,4.97Z"/>
  <path class="cls-15" d="M119.61,236.77c.04-3.25,1.22-4.11,4.3-2.97,.65,.24,1.09,.19,1.7-.03,2.13-.77,3.85,.35,4.08,2.63,.1,.99,.04,1.99,.02,2.98-.01,.65-.11,1.33-.99,1.24-.85-.08-.83-.79-.83-1.42,0-.87,0-1.73-.02-2.6-.02-.83-.41-1.27-1.29-1.2-.89,.07-.89,.72-.9,1.35-.02,.93,0,1.86-.03,2.79-.02,.61-.26,1.14-.98,1.11-.74-.03-.85-.6-.84-1.2,.01-.81,.08-1.62,.03-2.43-.05-.79-.06-1.69-1.29-1.62-1.24,.08-.85,.96-.86,1.65-.01,.81,.02,1.62,0,2.43-.02,.61-.25,1.12-.95,1.17-.73,.05-.95-.45-.99-1.08-.05-.93-.1-1.86-.15-2.79Z"/>
  <path class="cls-8" d="M171.6,237.05c0-.19,0-.37,0-.56,0-2.92,1.06-3.73,3.91-2.82,.79,.25,1.34,.37,2.18,.03,1.74-.71,3.59,.43,3.88,2.33,.18,1.16,.08,2.36,.08,3.54,0,.64-.31,1.11-1.01,1.06-.75-.05-.8-.63-.8-1.23,0-.93,.03-1.87-.02-2.8-.04-.79-.44-1.27-1.31-1.21-.86,.06-.94,.63-.93,1.31,.01,.93,0,1.87,0,2.8,0,.63-.27,1.13-.96,1.13-.74,0-.89-.53-.88-1.16,.01-.93,.02-1.87,0-2.8-.02-.77-.28-1.31-1.21-1.29-.98,.02-1.08,.6-1.04,1.37,.04,.74,.05,1.49,.04,2.24,0,.74,.11,1.65-1,1.63-.96-.02-.91-.83-.91-1.52,0-.68,0-1.37,0-2.05h-.02Z"/>
  <path class="cls-34" d="M135.12,235.93c0-.44,0-.87,0-1.31,0-3.69,1.37-4.71,4.98-3.6,1.5,.46,2.44,1.52,2.31,3.19-.15,1.86-1.6,2.67-3.09,2.6-1.96-.09-2.49,.57-2.22,2.36,.11,.71-.04,1.47-.99,1.45-.99-.02-.89-.84-.9-1.52-.01-1.06,0-2.11,0-3.17-.03,0-.06,0-.08,0Z"/>
  <path class="cls-15" d="M150.34,237.99c.88,1.65,1.94,1.44,3.03,.78,.51-.31,.91-.37,1.31,.08,.43,.48,.26,.99-.13,1.31-1.21,1.02-2.6,1.14-4.02,.49-1.59-.73-2.28-2.23-2.26-3.76,.03-1.92,1.66-3.26,3.39-3.37,1.75-.11,2.85,.7,3.4,2.3,.44,1.27,.06,2.1-1.39,2.15-1.04,.04-2.09,0-3.34,0Z"/>
  <path class="cls-15" d="M118.46,236.89c.02,2.28-1.23,3.91-3.05,3.98-2.03,.08-3.64-1.49-3.69-3.61-.04-2,1.36-3.77,3.04-3.82,2.3-.08,3.67,1.21,3.69,3.45Z"/>
  <path class="cls-15" d="M163.68,237.17c.01-2.15,1.3-3.71,3.07-3.73,2.23-.02,3.69,1.4,3.66,3.54-.03,2.17-1.46,3.91-3.2,3.91-2.11,0-3.55-1.53-3.53-3.72Z"/>
  <path class="cls-23" d="M156.29,236.85c0-.75,0-1.49,0-2.24,0-.48,.3-1.13,.61-.99,1.54,.69,3.51-1.07,4.77,.77,1.18,1.71,.95,3.67,.66,5.59-.07,.48-.46,.72-.98,.66-.54-.07-.73-.46-.73-.93-.01-.93,.08-1.87,.01-2.8-.05-.73-.11-1.54-1.2-1.55-1.21,0-.98,.85-1,1.57-.02,.69,0,1.37,0,2.06,0,.76,.03,1.64-1.03,1.63-.96-.01-.9-.85-.92-1.53-.01-.75,0-1.49,0-2.24-.06,0-.12,0-.18,0Z"/>
  <path class="cls-23" d="M134.52,252.63c0,.44,.12,.92-.02,1.3-.35,.91,.92,2.58-.75,2.73-3.49,.3-4.69-.59-4.79-2.88-.09-1.95,1.15-3.41,3.12-3.33,1.13,.04,1.23-.4,1.18-1.26-.02-.41-.04-.97,.56-.99,.73-.03,.67,.58,.67,1.07,0,1.12,0,2.24,0,3.36,0,0,.02,0,.03,0Z"/>
  <path class="cls-23" d="M116.41,254.19c.91,1.48,1.92,1.64,3.16,1.15,.43-.17,1.01-.55,1.29,.1,.33,.77-.41,.91-.9,1.11-1.83,.76-3.88,.02-4.6-1.64-.71-1.62,.03-3.4,1.72-4.16,1.63-.73,3.29-.1,4.04,1.52,.67,1.46,.41,1.88-1.21,1.91-1.06,.02-2.12,0-3.5,0Z"/>
  <path class="cls-7" d="M102.24,252.36c0-.44,0-.87,0-1.31q.03-3.08,3.08-2.9c1.86,.11,3.24,1.24,3.19,2.74-.06,1.89-1.56,2.42-2.98,2.41-1.71-.01-2.34,.47-1.99,2.17,.1,.5,.16,1.26-.65,1.24-.69-.02-.56-.7-.57-1.18-.02-1.06,0-2.12,0-3.17-.03,0-.05,0-.08,0Z"/>
  <path class="cls-26" d="M143.24,236.94c0-.62-.04-1.25,0-1.87,.08-1.14,.25-2.13,1.77-1.16,.5,.32,1-.11,1.49-.3,.6-.23,1.15-.09,1.39,.54,.22,.58-.18,1.09-.66,1.15-2.1,.26-2.11,1.69-1.99,3.27,.06,.83,.35,1.99-.94,2.03-1.27,.03-1.03-1.14-1.07-1.98-.02-.56,0-1.12,0-1.68Z"/>
  <path class="cls-23" d="M111.48,256.78c-.8,.05-1.55-.12-1.98-.82-.31-.5-.82-1.19-.16-1.67,.7-.51,.9,.23,1.13,.74,.39,.87,1.1,.65,1.76,.43,.35-.11,.78-.31,.69-.75-.05-.22-.43-.43-.7-.52-.59-.19-1.22-.24-1.8-.45-.8-.28-1.16-.88-1.07-1.75,.1-.95,.65-1.46,1.56-1.59,.76-.11,1.52,0,2.16,.43,.54,.36,1.46,.79,1.02,1.52-.48,.81-1.02-.04-1.5-.36-.3-.2-.68-.32-1.04-.41-.41-.11-.77,.06-.92,.45-.22,.56,.28,.56,.61,.68,.23,.08,.47,.2,.71,.23,1.28,.16,2.49,.57,2.26,2.12-.21,1.43-1.52,1.62-2.74,1.71Z"/>
  <path class="cls-37" d="M138.62,256.77c-1.51,.01-2.72-1.38-2.75-3.17-.03-1.87,1.02-3.17,2.62-3.22,1.83-.05,3.07,1.13,3.12,2.95,.05,1.81-1.36,3.42-2.99,3.43Z"/>
  <path class="cls-2" d="M127.72,253.61c0,.19,.04,.38,0,.56-.23,.86,.67,2.3-.75,2.53-2.79,.46-3.9-.21-4.39-2.17-.28-1.11-.12-2.23-.04-3.34,.03-.4,.16-.77,.62-.77,.63,.01,.58,.5,.57,.94-.01,.87-.1,1.75,.01,2.61,.1,.73,.42,1.6,1.32,1.54,.88-.06,1.37-.74,1.34-1.71-.03-.87-.02-1.74,.01-2.61,.01-.37,.13-.77,.62-.76,.46,.01,.64,.37,.66,.76,.03,.81,.01,1.62,.01,2.43h.02Z"/>
  <path class="cls-2" d="M151.46,233.09c-.61-.15-1.05-.49-.93-1.03,.23-1,.92-1.75,1.9-2.03,.5-.15,1.09,.29,.98,.83-.22,1.08-1.03,1.76-1.95,2.23Z"/>
  <path d="M68.81,247.78c-4.23-.04-7.65-3.55-7.59-7.81,.06-4.34,3.54-7.65,7.98-7.59,4.15,.06,7.51,3.5,7.5,7.7,0,4.35-3.48,7.74-7.89,7.7Z"/>
  <path class="cls-34" d="M104.17,392.6c0,1.96,0,3.39,0,4.82,0,.65,0,1.33-.86,1.38-.82,.05-1.01-.53-1.02-1.24-.04-2.24-.11-4.48-.12-6.72,0-.65-.11-1.46,.76-1.71,.85-.25,1.2,.49,1.62,1,1.2,1.47,2.38,2.95,3.81,4.72,0-1.71,0-3.11,0-4.51,0-.68,.21-1.28,1.04-1.24,.73,.03,.89,.61,.89,1.2,0,2.43-.04,4.86-.06,7.29,0,.52-.1,1.02-.68,1.19-.65,.19-1.05-.19-1.4-.67-1.22-1.7-2.45-3.39-3.98-5.5Z"/>
  <path class="cls-15" d="M119.61,394.94c.04-3.26,1.22-4.12,4.29-2.98,.65,.24,1.09,.19,1.7-.02,2.14-.77,3.86,.33,4.09,2.62,.1,.99,.04,1.99,.03,2.98-.01,.65-.1,1.33-.98,1.25-.85-.08-.84-.78-.84-1.42,0-.81,.03-1.61,0-2.42-.03-.83-.26-1.5-1.31-1.39-1,.1-.89,.82-.88,1.52,.01,.87-.01,1.74-.06,2.61-.03,.61-.25,1.14-.97,1.11-.74-.03-.85-.59-.85-1.19,0-.99,.01-1.99-.04-2.98-.04-.73-.42-1.1-1.21-1.08-.94,.03-.92,.63-.91,1.28,.02,.87,.04,1.74,.04,2.62,0,.67-.15,1.3-.95,1.36-.86,.06-.98-.57-1.01-1.25-.04-.87-.1-1.74-.15-2.61Z"/>
  <path class="cls-8" d="M171.6,395.2v-.56c0-2.9,1.08-3.73,3.92-2.8,.79,.26,1.35,.36,2.18,.02,1.67-.68,3.51,.38,3.83,2.17,.21,1.21,.12,2.48,.12,3.72,0,.64-.32,1.1-1.02,1.05-.75-.06-.79-.64-.79-1.24,0-.93,.03-1.87-.02-2.8-.04-.8-.45-1.26-1.32-1.2-.87,.06-.93,.64-.92,1.32,.01,.93,0,1.87,0,2.8-.01,.63-.27,1.12-.97,1.12-.74,0-.88-.54-.87-1.17,.01-.93,.02-1.87,0-2.8-.02-.77-.29-1.3-1.22-1.28-.99,.02-1.07,.62-1.03,1.39,.04,.81,.04,1.62,.04,2.43,0,.71-.03,1.47-1.01,1.43-.83-.03-.91-.68-.9-1.35,.01-.75,0-1.49,0-2.24h-.03Z"/>
  <path class="cls-34" d="M135.12,393.98c0-.37,0-.75,0-1.12q0-3.96,3.98-3.79c1.88,.08,3.21,1.22,3.32,2.86,.11,1.6-1.14,3.13-3.04,3.05-2.02-.08-2.61,.6-2.29,2.46,.11,.67-.11,1.31-.91,1.34-1,.03-.97-.75-.98-1.45,0-1.12,0-2.24,0-3.35-.03,0-.06,0-.08,0Z"/>
  <path class="cls-15" d="M150.23,396.16c1.06,1.53,2.06,1.46,3.1,.79,.58-.37,1.03-.4,1.43,.17,.36,.52,.1,.98-.31,1.29-1.33,1.02-2.81,1.08-4.2,.25-1.35-.81-2.14-2.2-1.94-3.73,.27-2.01,1.63-3.12,3.31-3.24,1.64-.12,2.77,.58,3.37,2.08,.62,1.52,.17,2.26-1.46,2.38-.99,.07-1.98,.01-3.32,.01Z"/>
  <path class="cls-15" d="M118.46,395.11c0,2.28-1.28,3.9-3.1,3.93-2.03,.04-3.62-1.57-3.63-3.67,0-2.02,1.4-3.74,3.1-3.77,2.3-.04,3.64,1.25,3.64,3.51Z"/>
  <path class="cls-15" d="M163.68,395.38c0-2.15,1.26-3.74,3.02-3.78,2.22-.05,3.71,1.36,3.71,3.5,0,2.14-1.43,3.94-3.15,3.96-2.09,.03-3.57-1.5-3.58-3.69Z"/>
  <path class="cls-23" d="M156.29,395.12c0-.75-.01-1.5,0-2.24,.02-.95,.42-1.45,1.41-1.01,.29,.13,.5,.22,.84,.16,2.74-.49,3.62,.14,3.91,2.86,.1,.92,.05,1.87,0,2.8-.04,.57-.24,1.14-.99,1.12-.78-.02-.85-.61-.86-1.19-.02-.93,.05-1.87,0-2.8-.04-.73-.32-1.32-1.25-1.28-1.06,.04-.92,.79-.92,1.46,0,.81,0,1.62,0,2.43,0,.68-.14,1.33-.93,1.37-.97,.05-1.01-.72-1.02-1.43-.01-.75,0-1.49,0-2.24h-.18Z"/>
  <path class="cls-23" d="M134.52,410.79c0,.44,.12,.92-.02,1.3-.34,.91,.92,2.58-.75,2.73-3.48,.3-4.69-.59-4.79-2.87-.09-1.95,1.15-3.41,3.12-3.33,1.13,.04,1.23-.39,1.18-1.26-.02-.41-.04-.97,.56-.99,.73-.03,.67,.58,.67,1.07,0,1.12,0,2.24,0,3.36,0,0,.02,0,.03,0Z"/>
  <path class="cls-23" d="M116.39,412.35c.95,1.47,1.96,1.65,3.2,1.14,.43-.18,1.01-.53,1.27,.14,.3,.77-.45,.9-.93,1.1-1.84,.75-3.87,0-4.59-1.67-.66-1.54,.02-3.32,1.58-4.1,1.58-.79,3.31-.23,4.12,1.33,.75,1.45,.42,2.02-1.17,2.05-.56,.01-1.12,0-1.68,0h-1.81Z"/>
  <path class="cls-7" d="M104.12,406.28c1.1,.07,1.76,.01,2.44,.27,1.27,.48,1.97,1.35,1.94,2.66-.04,1.22-.89,1.84-2.04,2.08-.3,.06-.61,.26-.9,.22-1.65-.21-2.4,.33-2.02,2.1,.1,.47,.21,1.3-.62,1.27-.8-.03-.58-.82-.59-1.34-.05-1.68,0-3.37-.09-5.04-.1-1.73,.42-2.65,1.89-2.22Z"/>
  <path class="cls-26" d="M143.24,395.21c0-.56,0-1.12,0-1.68,0-.25-.02-.5,.02-.75,.08-.51,.62-1.25,.8-1.03,1.16,1.53,2.81-1.14,3.78,.5,.43,.73-.21,1.19-.86,1.31-1.6,.29-1.92,1.31-1.72,2.71,.05,.37,.02,.75,.04,1.12,.04,.68-.12,1.32-.89,1.4-.91,.1-1.14-.6-1.16-1.34-.03-.75,0-1.5,0-2.24Z"/>
  <path class="cls-23" d="M111.48,414.95c-.8,.05-1.54-.12-1.97-.82-.3-.5-.82-1.19-.15-1.67,.7-.5,.9,.23,1.13,.75,.4,.86,1.11,.64,1.76,.43,.35-.11,.78-.32,.69-.75-.05-.22-.44-.42-.71-.52-.52-.18-1.08-.25-1.62-.4-1.02-.27-1.4-.97-1.21-1.98,.17-.94,.8-1.34,1.71-1.42,.71-.06,1.39,.07,1.97,.45,.54,.36,1.46,.79,1.02,1.52-.49,.81-1.02-.04-1.5-.36-.31-.2-.68-.32-1.04-.41-.41-.1-.77,.07-.92,.45-.21,.56,.29,.56,.62,.67,.23,.08,.47,.2,.71,.23,1.28,.16,2.49,.57,2.26,2.12-.22,1.43-1.53,1.62-2.75,1.71Z"/>
  <path class="cls-37" d="M138.82,408.56c1.76,.08,2.92,1.45,2.78,3.28-.13,1.75-1.57,3.17-3.13,3.1-1.54-.07-2.72-1.66-2.6-3.5,.12-1.87,1.23-2.95,2.95-2.87Z"/>
  <path class="cls-2" d="M127.72,411.87c0,.12,.03,.26,0,.37-.25,.9,.69,2.47-.84,2.6-3.17,.26-4-.31-4.33-2.44-.15-.97-.03-1.98-.02-2.97,0-.47,.13-.92,.72-.84,.62,.08,.47,.6,.47,1.02,0,.87-.1,1.76,.05,2.6,.12,.7,.42,1.57,1.39,1.43,.81-.11,1.26-.72,1.25-1.6-.02-.87,0-1.74,.01-2.61,0-.38,.08-.8,.54-.84,.56-.05,.74,.38,.76,.85,.02,.81,0,1.62,0,2.43h.01Z"/>
  <path class="cls-2" d="M151.42,391.26c-.62-.2-1.06-.57-.88-1.1,.31-.95,.92-1.76,1.96-1.96,.52-.1,1.07,.37,.92,.89-.3,1.03-1.04,1.77-1.99,2.17Z"/>
  <path d="M69.06,390.54c4.26,.02,7.67,3.48,7.64,7.74-.03,4.27-3.46,7.66-7.74,7.66-4.28,0-7.71-3.4-7.73-7.67-.03-4.34,3.43-7.75,7.84-7.73Z"/>
  <path class="cls-37" d="M361.73,34.5c-.4,0-.65,0-.9,0-2.31,0-2.78-.65-2.31-2.97,.15-.72,.57-.69,1.07-.69,.93,0,1.88,.1,2.79-.02,1.67-.22,2.15,.35,2.17,2.08,.03,2.8-2,1.07-2.82,1.6Z"/>
  <path class="cls-17" d="M138.85,286c.73-.01,1.71,.23,1.59,1.2-.14,1.17-1.33,1-2.25,1.07-.92,.07-1.12-.32-1.14-1.19-.02-1.37,.9-1.03,1.8-1.08Z"/>
  <path class="cls-27" d="M153.45,289.72h-2.97c-.07-1.02,.65-1.34,1.36-1.4,.77-.07,1.41,.32,1.61,1.4Z"/>
  <path class="cls-4" d="M116.55,290.35c-.14,.7-.1,1.67-1.34,1.73-1.21,.06-1.52-.8-1.48-1.7,.04-.81,.13-1.83,1.42-1.75,1.01,.06,1.43,.61,1.39,1.72Z"/>
  <path class="cls-17" d="M168.43,290.2c-.22,.73,0,1.81-1.28,1.87-1.13,.06-1.58-.63-1.55-1.63,.03-.87,.15-1.79,1.37-1.81,1.03-.02,1.42,.58,1.46,1.57Z"/>
  <path class="cls-5" d="M133.32,306.15c.21,1.2-.43,1.87-1.49,1.89-1.3,.03-1.56-1-1.55-2.07,0-1.07,.53-1.88,1.62-1.87,1.29,0,1.61,.93,1.42,2.06Z"/>
  <path class="cls-1" d="M105.1,304.54c-1.33,.22-1.67-.21-1.67-1.27,0-1.02,.32-1.56,1.33-1.48,1.02,.09,2.34,.07,2.4,1.45,.07,1.61-1.49,1-2.06,1.3Z"/>
  <path class="cls-32" d="M119.95,305.42h-3.3c1.26-1.59,2.05-1.61,3.3,0Z"/>
  <path class="cls-4" d="M138.71,304.02c1.17,.15,1.66,.92,1.61,1.93-.04,.98-.45,1.87-1.66,1.83-1.35-.04-1.59-1.02-1.53-2.09,.06-.95,.51-1.65,1.58-1.67Z"/>
  <path class="cls-17" d="M138.32,338.48c1.15-.04,2.21,.12,2.12,1.22-.09,1.04-1.22,1.01-2.1,1.03-.73,.01-1.31,.04-1.3-1.03,.01-1.15,.51-1.42,1.28-1.22Z"/>
  <path class="cls-27" d="M150.41,342.11c1.06-1.81,1.88-1.82,3.05,0h-3.05Z"/>
  <path class="cls-4" d="M116.54,342.92c-.14,.68-.16,1.63-1.41,1.62-1.23,0-1.45-.9-1.39-1.78,.05-.83,.21-1.81,1.5-1.67,1.02,.11,1.37,.71,1.3,1.82Z"/>
  <path class="cls-17" d="M165.57,342.75c.2-.78,.26-1.71,1.51-1.65,1.06,.05,1.42,.72,1.32,1.62-.09,.82-.07,1.84-1.35,1.83-1.17,0-1.42-.78-1.48-1.8Z"/>
  <path class="cls-5" d="M133.3,359.17c.23,1.36-.37,2.1-1.55,2.09-1.18,0-1.47-.97-1.47-1.97,0-1.14,.49-2.02,1.7-1.97,1.13,.04,1.62,.81,1.32,1.85Z"/>
  <path class="cls-32" d="M119.96,358.64h-3.3c1.24-1.59,2.04-1.61,3.3,0Z"/>
  <path class="cls-1" d="M105.02,357.77c-1.24,.19-1.55-.23-1.58-1.21-.04-1.15,.4-1.67,1.49-1.54,.96,.12,2.24,.15,2.25,1.47,0,1.61-1.55,.99-2.15,1.29Z"/>
  <path class="cls-4" d="M137.09,359.21c.09-.97,.3-1.89,1.52-1.94,1.16-.04,1.69,.76,1.71,1.78,.02,.98-.34,1.88-1.54,1.95-1.23,.08-1.56-.77-1.7-1.8Z"/>
  <path class="cls-17" d="M139.04,446.37c-1.34,.08-2.03,.17-2-1.04,.03-1.06,.5-1.21,1.37-1.18,.91,.03,1.99,.03,2.02,1.12,.04,1.16-1.12,1.06-1.4,1.1Z"/>
  <path class="cls-27" d="M153.54,447.88h-3.05c-.07-1.02,.64-1.32,1.35-1.4,.8-.09,1.37,.38,1.71,1.4Z"/>
  <path class="cls-4" d="M116.55,448.5c-.14,.7-.09,1.67-1.33,1.74-1.21,.06-1.53-.79-1.48-1.69,.04-.81,.12-1.83,1.41-1.76,1,.06,1.44,.6,1.4,1.71Z"/>
  <path class="cls-17" d="M168.43,448.34c-.21,.8-.04,1.93-1.45,1.89-1.05-.03-1.4-.72-1.38-1.61,.03-.87,.14-1.79,1.35-1.83,1.03-.04,1.43,.55,1.48,1.56Z"/>
  <path class="cls-5" d="M133.32,464.13c.22,1.17-.24,2-1.46,2.08-1.19,.07-1.54-.83-1.59-1.86-.05-1.13,.39-2.05,1.59-2.09,1.11-.04,1.66,.69,1.45,1.87Z"/>
  <path class="cls-32" d="M120.06,463.6h-3.36c1.1-1.6,1.91-1.65,3.36,0Z"/>
  <path class="cls-1" d="M104.99,462.7c-1.55,.25-1.49-.56-1.55-1.45-.07-1.22,.68-1.39,1.53-1.29,.96,.11,2.25,.18,2.2,1.51-.06,1.57-1.59,.96-2.18,1.23Z"/>
  <path class="cls-4" d="M137.09,464.05c.12-.97,.38-1.87,1.61-1.84,1.16,.03,1.65,.85,1.62,1.87-.02,.98-.41,1.86-1.63,1.87-1.24,0-1.5-.87-1.61-1.89Z"/>
  <path class="cls-17" d="M138.4,496.64c1.07-.04,2.13,.12,2.04,1.22-.09,1.04-1.21,1.02-2.09,1.03-.72,.01-1.31,.05-1.31-1.02,0-1.16,.54-1.38,1.36-1.23Z"/>
  <path class="cls-27" d="M150.29,500.37c1.26-1.88,1.84-1.9,3.23-.21-1.04,.45-2.05,.14-3.23,.21Z"/>
  <path class="cls-4" d="M116.55,500.98c-.14,.7-.1,1.67-1.34,1.73-1.21,.06-1.52-.8-1.48-1.7,.04-.81,.13-1.83,1.42-1.75,1.01,.06,1.43,.61,1.39,1.72Z"/>
  <path class="cls-17" d="M168.43,500.81c-.21,.79-.02,1.92-1.44,1.89-1.05-.02-1.41-.7-1.39-1.6,.02-.87,.13-1.79,1.34-1.84,1.02-.04,1.44,.54,1.49,1.55Z"/>
  <path class="cls-5" d="M133.3,517.28c.23,1.25-.24,2.07-1.45,2.14-1.19,.07-1.54-.84-1.58-1.87-.05-1.13,.4-2.05,1.6-2.08,1.09-.03,1.71,.66,1.43,1.8Z"/>
  <path class="cls-1" d="M105.07,513.18c.75,.2,2.14,.08,2.11,1.54-.03,1.44-1.44,1.05-2.33,1.24-1.01,.21-1.43-.23-1.42-1.33,0-1.05,.36-1.52,1.64-1.45Z"/>
  <path class="cls-32" d="M116.58,516.79c1.44-1.62,2.24-1.6,3.3,0h-3.3Z"/>
  <path class="cls-4" d="M137.07,517.32c.17-1.1,.48-1.98,1.71-1.89,1.16,.09,1.6,.94,1.55,1.95-.06,.98-.48,1.83-1.71,1.79-1.26-.05-1.38-1.01-1.55-1.84Z"/>
  <path class="cls-17" d="M138.85,232.78c.73-.01,1.71,.23,1.59,1.2-.14,1.17-1.33,1-2.25,1.07-.92,.07-1.12-.32-1.14-1.19-.02-1.37,.9-1.03,1.8-1.08Z"/>
  <path class="cls-27" d="M153.39,236.54c-.57,0-1.06,.03-1.55,0-.46-.04-1,.22-1.37-.21-.08-.1,.05-.51,.21-.65,.46-.41,.99-.81,1.66-.52,.5,.21,1.04,.44,1.05,1.39Z"/>
  <path class="cls-4" d="M113.7,237.11c.23-.72,.13-1.78,1.43-1.71,1,.05,1.49,.57,1.41,1.55-.07,.86-.09,1.81-1.3,1.89-1.2,.08-1.43-.74-1.54-1.73Z"/>
  <path class="cls-17" d="M168.43,237c-.22,.76-.04,1.83-1.33,1.85-1.15,.02-1.54-.7-1.5-1.68,.04-.87,.19-1.78,1.42-1.77,1.05,0,1.38,.65,1.41,1.59Z"/>
  <path class="cls-5" d="M133.32,253.54c.22,1.21-.31,2-1.51,2.04-1.19,.04-1.51-.9-1.53-1.91-.03-1.14,.44-2.03,1.64-2.03,1.14,0,1.61,.78,1.4,1.91Z"/>
  <path class="cls-32" d="M116.53,252.84c1.58-1.48,2.18-1.46,3.49,.15-1.24,.01-2.3,.17-3.49-.15Z"/>
  <path class="cls-1" d="M105.02,252.08c-1.21,.17-1.57-.19-1.59-1.2-.03-1.14,.37-1.69,1.47-1.56,.97,.11,2.24,.14,2.26,1.45,.03,1.63-1.54,1-2.14,1.31Z"/>
  <path class="cls-4" d="M138.65,251.54c1.21,.13,1.71,.89,1.68,1.91-.03,.98-.42,1.86-1.64,1.85-1.23,0-1.56-.86-1.56-1.88,0-1.03,.4-1.8,1.52-1.89Z"/>
  <path class="cls-17" d="M138.38,390.95c1.02-.04,2.09,.06,2.06,1.16-.03,1.08-1.15,1.05-2.03,1.09-.83,.04-1.4-.01-1.37-1.15,.03-1.12,.61-1.19,1.34-1.1Z"/>
  <path class="cls-27" d="M153.53,394.66h-3.05c-.07-1.02,.65-1.33,1.36-1.4,.8-.08,1.37,.39,1.69,1.4Z"/>
  <path class="cls-4" d="M116.55,395.31c-.15,.72-.13,1.67-1.38,1.7-1.23,.03-1.49-.86-1.44-1.74,.05-.81,.17-1.82,1.46-1.71,1.01,.09,1.4,.66,1.35,1.75Z"/>
  <path class="cls-17" d="M165.57,395.21c.2-.78,.27-1.71,1.52-1.64,1.06,.06,1.41,.73,1.31,1.63-.09,.82-.08,1.83-1.36,1.81-1.17-.02-1.41-.8-1.46-1.81Z"/>
  <path class="cls-5" d="M133.3,411.64c.23,1.37-.38,2.1-1.56,2.09-1.17,0-1.47-.97-1.47-1.98,0-1.14,.5-2.02,1.71-1.96,1.12,.05,1.62,.82,1.32,1.85Z"/>
  <path class="cls-32" d="M120.1,411.12c-1.31,0-2.33,0-3.35,0,.98-1.58,1.79-1.65,3.35,0Z"/>
  <path class="cls-1" d="M105.14,410.25c-1.16,.13-1.69-.03-1.7-1.13,0-1.07,.23-1.75,1.4-1.63,1.03,.1,2.37,.12,2.35,1.56-.02,1.52-1.56,.8-2.04,1.2Z"/>
  <path class="cls-4" d="M137.09,411.53c.14-.97,.44-1.86,1.67-1.79,1.16,.07,1.62,.91,1.57,1.92-.05,.98-.46,1.85-1.68,1.81-1.25-.04-1.45-.94-1.55-1.94Z"/>
</svg>