<?xml version="1.0" standalone="no"?>
<!DOCTYPE svg PUBLIC "-//W3C//DTD SVG 20010904//EN"
 "http://www.w3.org/TR/2001/REC-SVG-20010904/DTD/svg10.dtd">
<svg version="1.0" xmlns="http://www.w3.org/2000/svg"
 width="1092.000000pt" height="2148.000000pt" viewBox="0 0 1092.000000 2148.000000"
 preserveAspectRatio="xMidYMid meet">

<g transform="translate(0.000000,2148.000000) scale(0.100000,-0.100000)"
fill="#000000" stroke="none">
<path d="M1133 21460 c-122 -10 -212 -39 -358 -113 -416 -212 -593 -435 -693
-877 l-26 -115 -3 -582 c-4 -476 -7 -583 -18 -583 -7 0 -16 -7 -19 -16 -3 -9
-6 -160 -6 -337 0 -304 1 -324 20 -355 19 -30 20 -50 20 -288 0 -241 -1 -257
-20 -281 -20 -25 -20 -41 -20 -633 0 -594 0 -607 20 -625 18 -16 20 -31 20
-150 0 -124 -1 -133 -20 -138 -20 -5 -20 -14 -20 -630 0 -621 0 -624 21 -651
l21 -27 -2 -3292 c-1 -1811 -1 -4941 1 -6957 l4 -3665 22 -115 c30 -161 66
-268 129 -390 168 -324 453 -519 871 -595 135 -25 524 -35 1568 -41 1168 -7
6631 14 6920 26 264 11 532 36 610 57 300 81 546 344 629 674 25 98 39 203 57
414 20 257 29 5091 18 10129 l-11 4940 26 19 26 19 0 599 0 600 -25 23 -25 23
0 1334 c0 812 -4 1378 -10 1448 -60 673 -458 1074 -1145 1151 -106 12 -8437
11 -8582 0z m8632 -95 c384 -67 710 -311 884 -661 50 -102 68 -155 86 -262 23
-138 30 -3162 29 -11697 -1 -5811 -4 -7569 -13 -7665 -36 -367 -147 -595 -383
-785 -204 -163 -294 -177 -1243 -192 -280 -4 -2170 -8 -4200 -8 -3543 0 -3694
1 -3795 18 -336 60 -599 221 -765 472 -86 128 -138 258 -181 445 -16 70 -17
405 -25 4990 -4 2703 -4 7030 0 9615 8 4692 8 4700 29 4790 119 522 463 856
977 949 121 22 8473 13 8600 -9z"/>
<path d="M1240 21071 c-8 -4 -49 -16 -90 -26 -214 -49 -405 -188 -532 -385
-95 -147 -132 -280 -147 -522 -6 -94 -10 -3784 -11 -9603 l-1 -9450 21 -40
c12 -22 31 -64 42 -94 35 -92 89 -173 163 -246 150 -148 276 -224 452 -273
l98 -27 4230 0 4230 0 90 28 c300 95 486 241 582 455 56 125 55 116 64 727 33
2475 42 10311 18 16395 -9 2505 -8 2438 -59 2591 -33 97 -66 146 -170 250 -83
84 -107 102 -190 142 -172 82 -172 82 -844 80 -523 -1 -591 -3 -601 -17 -7 -9
-15 -78 -18 -163 -7 -164 -20 -221 -69 -303 -27 -44 -44 -60 -92 -85 l-60 -30
-2800 -3 c-1860 -2 -2829 1 -2886 8 -106 12 -175 45 -234 111 -56 62 -73 116
-82 256 -8 117 -28 172 -77 207 -28 20 -42 21 -520 23 -271 2 -499 -1 -507 -6z
m8594 -112 c107 -22 153 -41 232 -100 108 -79 191 -211 237 -374 l22 -80 3
-8705 c2 -4788 0 -8813 -3 -8946 l-7 -240 -62 7 c-99 13 -4047 29 -6963 29
l-2703 0 0 6708 c0 4471 -4 7184 -12 8139 -6 788 -10 1434 -7 1435 2 2 744 0
1649 -4 2421 -10 8060 -14 8052 -6 -5 5 -44 12 -87 18 -116 14 -3790 30 -6944
30 l-2674 0 7 558 c12 913 16 963 95 1127 92 193 256 337 451 396 73 22 89 23
562 27 476 3 487 3 507 -17 26 -26 37 -72 49 -199 11 -114 43 -197 109 -284
81 -105 113 -109 978 -109 2141 1 4918 13 4980 22 96 13 201 65 257 128 81 90
118 198 118 347 0 53 4 77 16 88 8 9 16 17 17 18 3 4 961 13 992 9 17 -1 74
-12 129 -22z m-7844 -18449 c740 -4 2691 -8 4335 -9 1645 0 3216 -4 3493 -8
l503 -6 -3 -676 c-4 -665 -4 -677 -26 -756 -39 -139 -96 -239 -187 -331 -129
-129 -274 -202 -449 -224 -116 -14 -8286 -14 -8393 1 -328 45 -589 291 -657
622 -14 65 -16 174 -16 743 l0 666 28 -7 c15 -4 632 -11 1372 -15z"/>
<path d="M8980 20610 c0 -113 1 -120 20 -120 19 0 20 7 20 120 0 113 -1 120
-20 120 -19 0 -20 -7 -20 -120z"/>
<path d="M9214 20699 c-41 -12 -72 -45 -56 -61 9 -9 17 -7 32 7 32 29 121 32
164 7 28 -17 37 -18 45 -8 14 16 0 29 -52 51 -40 16 -85 18 -133 4z"/>
<path d="M9544 20677 c-3 -8 -4 -43 -2 -78 l3 -64 130 0 130 0 9 38 c6 23 6
51 0 75 l-9 37 -128 3 c-101 2 -128 0 -133 -11z m246 -27 c0 -11 5 -20 10 -20
6 0 10 -9 10 -20 0 -11 -4 -20 -10 -20 -5 0 -10 -9 -10 -20 0 -19 -7 -20 -115
-20 l-115 0 0 60 0 60 115 0 c108 0 115 -1 115 -20z"/>
<path d="M9570 20610 l0 -50 80 0 80 0 0 50 0 50 -80 0 -80 0 0 -50z"/>
<path d="M1071 20647 c-28 -34 -26 -111 5 -141 41 -42 94 -3 94 69 0 53 -23
85 -59 85 -16 0 -34 -6 -40 -13z m70 -34 c21 -55 -14 -114 -48 -81 -15 16 -21
78 -8 97 12 21 45 12 56 -16z"/>
<path d="M1207 20642 c-37 -41 -7 -99 46 -88 29 6 29 5 23 -29 -6 -28 -4 -35
9 -35 23 0 22 155 -1 164 -29 11 -61 6 -77 -12z m61 -34 c-3 -24 -34 -36 -49
-21 -16 16 2 43 28 43 20 0 24 -4 21 -22z"/>
<path d="M1388 20618 c-6 -50 2 -64 30 -49 25 13 58 -8 49 -33 -10 -26 -38
-32 -53 -11 -17 23 -33 11 -18 -13 13 -21 60 -28 80 -11 19 15 18 64 -2 83 -8
9 -27 16 -40 16 -19 0 -25 5 -22 18 2 12 14 18 41 20 54 5 45 22 -12 22 l-49
0 -4 -42z"/>
<path d="M1540 20640 c-22 -22 -25 -36 -11 -45 6 -3 15 4 21 15 12 22 50 28
50 8 0 -7 -19 -31 -41 -54 -55 -56 -49 -74 25 -74 30 0 58 5 61 10 4 6 -13 10
-44 10 -28 0 -51 3 -51 7 0 3 18 23 40 43 43 40 49 60 24 84 -21 22 -50 20
-74 -4z"/>
<path d="M1747 20593 c-14 -37 -28 -76 -32 -85 -5 -13 -2 -18 9 -18 8 0 18 11
22 25 5 20 12 25 39 25 27 0 34 -5 39 -25 6 -22 37 -38 35 -17 -2 21 -66 156
-75 159 -6 2 -23 -27 -37 -64z m53 -20 c0 -7 -7 -13 -15 -13 -16 0 -19 9 -9
35 5 13 8 14 15 3 5 -7 9 -19 9 -25z"/>
<path d="M1880 20574 c0 -64 3 -85 13 -82 7 3 14 28 17 59 l5 54 21 -28 c28
-34 34 -34 62 6 l22 32 0 -63 c0 -35 4 -62 10 -62 6 0 10 35 10 85 0 47 -4 85
-9 85 -5 0 -21 -16 -36 -37 l-28 -36 -34 36 c-18 21 -38 37 -43 37 -6 0 -10
-36 -10 -86z"/>
<path d="M9220 20642 c-36 -18 -40 -40 -5 -34 11 2 38 4 60 4 22 0 51 -2 64
-4 37 -5 36 18 -3 36 -44 21 -72 20 -116 -2z"/>
<path d="M8920 20570 c0 -73 2 -80 20 -80 18 0 20 7 20 80 0 73 -2 80 -20 80
-18 0 -20 -7 -20 -80z"/>
<path d="M1330 20600 c0 -5 7 -10 15 -10 8 0 15 5 15 10 0 6 -7 10 -15 10 -8
0 -15 -4 -15 -10z"/>
<path d="M9242 20600 c-13 -6 -22 -15 -20 -22 5 -14 97 -18 105 -5 14 22 -48
42 -85 27z"/>
<path d="M8860 20540 c0 -43 3 -50 20 -50 17 0 20 7 20 50 0 43 -3 50 -20 50
-17 0 -20 -7 -20 -50z"/>
<path d="M8800 20520 c0 -23 4 -30 20 -30 16 0 20 7 20 30 0 23 -4 30 -20 30
-16 0 -20 -7 -20 -30z"/>
<path d="M9250 20546 c0 -2 6 -9 14 -15 10 -9 16 -8 26 4 11 13 8 15 -14 15
-14 0 -26 -2 -26 -4z"/>
<path d="M8740 20510 c0 -13 7 -20 20 -20 13 0 20 7 20 20 0 13 -7 20 -20 20
-13 0 -20 -7 -20 -20z"/>
<path d="M1330 20500 c0 -5 7 -10 15 -10 8 0 15 5 15 10 0 6 -7 10 -15 10 -8
0 -15 -4 -15 -10z"/>
<path d="M1285 20090 c-37 -16 -383 -373 -391 -403 -6 -27 6 -42 192 -228 154
-153 205 -199 225 -199 33 0 109 77 109 111 0 17 -24 48 -85 109 -47 47 -85
88 -85 92 0 5 90 8 199 8 237 0 231 -3 231 99 0 103 4 101 -235 101 l-199 0
87 89 c106 108 110 127 42 190 -46 42 -56 46 -90 31z"/>
<path d="M2855 20017 c-123 -47 -194 -152 -195 -283 0 -127 74 -237 182 -269
146 -43 280 11 309 126 15 56 8 79 -24 79 -28 0 -42 -14 -51 -53 -16 -69 -97
-101 -194 -77 -151 36 -192 249 -69 357 35 31 90 53 131 53 33 0 101 -38 124
-70 24 -31 59 -39 80 -18 20 20 14 37 -34 88 -68 72 -174 100 -259 67z"/>
<path d="M3250 20015 c-10 -13 -12 -71 -6 -277 6 -264 10 -288 45 -288 36 0
41 21 41 156 0 127 1 132 25 157 29 28 69 39 101 26 41 -15 49 -45 49 -188 0
-116 2 -135 18 -145 44 -28 64 27 66 180 2 150 -52 234 -151 234 -34 0 -62 -7
-84 -21 l-34 -21 0 89 c0 91 -8 113 -41 113 -9 0 -22 -7 -29 -15z"/>
<path d="M4146 20014 c-31 -30 -9 -84 34 -84 11 0 27 11 36 25 15 23 15 27 0
50 -19 29 -47 32 -70 9z"/>
<path d="M5190 20011 c-5 -11 -10 -48 -10 -84 l0 -64 -49 11 c-168 34 -288
-155 -205 -322 44 -89 139 -125 229 -88 29 13 35 13 46 0 15 -18 43 -18 58 0
9 10 11 88 9 280 -3 224 -5 268 -18 276 -24 15 -48 11 -60 -9z m-22 -244 c19
-18 22 -30 22 -103 0 -77 -2 -84 -26 -103 -62 -48 -134 -36 -166 29 -50 100
16 221 112 204 19 -3 45 -15 58 -27z"/>
<path d="M6040 20015 c-26 -32 13 -81 48 -59 34 22 22 74 -18 74 -10 0 -23 -7
-30 -15z"/>
<path d="M3737 19838 c-72 -73 -88 -182 -41 -276 35 -71 82 -102 152 -102 64
0 99 17 145 70 87 102 67 264 -39 326 -32 19 -55 24 -108 24 -65 0 -67 -1
-109 -42z m182 -54 c26 -19 51 -71 51 -109 0 -34 -35 -102 -59 -115 -11 -5
-37 -10 -58 -10 -95 0 -140 147 -68 224 19 20 33 26 67 26 24 0 54 -7 67 -16z"/>
<path d="M4151 19866 c-8 -9 -11 -73 -9 -206 3 -171 5 -194 21 -204 12 -8 22
-8 35 0 15 10 17 33 20 204 3 199 -1 220 -38 220 -10 0 -23 -6 -29 -14z"/>
<path d="M5387 19866 c-19 -20 -30 -167 -17 -235 13 -70 47 -130 89 -158 41
-28 80 -29 129 -4 38 19 38 19 50 0 7 -10 21 -19 31 -19 40 0 45 23 46 215 0
190 -5 215 -44 215 -35 0 -41 -21 -41 -147 0 -145 -10 -175 -65 -193 -30 -10
-40 -9 -61 5 -42 27 -54 72 -54 198 0 112 -7 137 -36 137 -7 0 -19 -6 -27 -14z"/>
<path d="M6047 19873 c-4 -3 -7 -104 -7 -224 0 -119 -3 -225 -6 -234 -4 -8
-20 -23 -36 -31 -23 -12 -29 -21 -26 -42 7 -61 115 -25 140 46 16 46 15 441
-2 472 -10 19 -49 27 -63 13z"/>
<path d="M6299 19857 c-45 -30 -89 -116 -89 -176 0 -132 73 -221 179 -221 72
0 131 34 168 98 23 39 28 58 28 117 0 90 -23 138 -84 176 -60 38 -150 41 -202
6z m159 -73 c50 -35 65 -108 36 -170 -22 -46 -50 -64 -99 -64 -46 0 -75 23
-94 73 -22 57 -12 107 32 155 25 27 91 30 125 6z"/>
<path d="M6695 19866 c-17 -12 -19 -28 -20 -137 0 -116 2 -128 28 -181 44 -90
114 -119 191 -79 39 20 39 20 53 1 16 -23 46 -26 62 -6 8 9 11 73 9 206 -3
171 -5 194 -20 204 -13 8 -23 8 -35 0 -15 -9 -19 -32 -23 -147 -5 -125 -7
-137 -29 -161 -13 -14 -37 -28 -53 -31 -75 -17 -115 73 -103 230 6 87 5 94
-13 104 -26 14 -24 14 -47 -3z"/>
<path d="M7615 19866 c-17 -12 -19 -28 -20 -137 0 -116 2 -128 28 -181 44 -90
114 -119 191 -79 39 20 39 20 53 1 16 -23 46 -26 62 -6 8 9 11 73 9 206 -3
171 -5 194 -20 204 -13 8 -23 8 -35 0 -15 -9 -19 -32 -23 -147 -5 -125 -7
-137 -29 -161 -13 -14 -37 -28 -53 -31 -75 -17 -115 73 -103 230 6 87 5 94
-13 104 -26 14 -24 14 -47 -3z"/>
<path d="M8049 19857 c-7 -16 -8 -81 -2 -207 7 -158 10 -184 26 -194 12 -8 22
-8 35 0 14 9 17 30 19 135 2 68 5 134 8 146 7 29 36 44 99 52 43 5 51 9 54 29
2 13 -2 30 -8 38 -17 20 -79 17 -116 -5 l-32 -19 -11 24 c-14 32 -57 33 -72 1z"/>
<path d="M4301 19852 c-11 -21 -4 -36 56 -115 l45 -57 -56 -89 c-58 -92 -64
-109 -44 -129 27 -27 49 -12 100 68 l51 80 59 -80 c59 -78 81 -93 106 -68 22
22 12 49 -48 128 -33 43 -60 85 -60 92 0 7 23 41 51 76 59 73 63 105 14 110
-26 3 -36 -5 -77 -58 l-46 -61 -47 61 c-49 63 -85 78 -104 42z"/>
<path d="M7221 19844 c-121 -61 -153 -219 -65 -323 47 -54 105 -75 193 -69 89
7 136 32 136 74 0 26 -3 29 -30 28 -16 -1 -49 -7 -72 -14 -59 -17 -125 -6
-157 27 -49 49 -40 53 122 53 102 0 152 4 160 12 18 18 14 77 -7 123 -49 106
-168 144 -280 89z m181 -93 c15 -17 28 -36 28 -41 0 -6 -46 -10 -115 -10 -63
0 -115 3 -115 6 0 17 25 48 53 65 47 30 112 21 149 -20z"/>
<path d="M1230 18171 c-11 -21 -14 -288 -4 -315 3 -9 14 -16 25 -16 15 0 19
10 21 68 l3 67 55 3 c69 4 85 -8 109 -78 14 -40 25 -55 38 -55 25 0 22 53 -9
113 l-23 47 29 28 c24 24 28 34 23 65 -11 64 -68 92 -189 92 -56 0 -69 -3 -78
-19z m169 -44 c50 -18 61 -41 33 -69 -17 -18 -36 -23 -92 -26 l-70 -4 0 49 c0
27 3 53 7 56 10 11 85 7 122 -6z"/>
<path d="M2094 18175 c-9 -24 5 -318 16 -329 5 -5 16 -6 26 -2 14 5 16 18 12
87 -5 76 -3 81 20 100 28 21 40 23 62 9 11 -7 16 -35 20 -102 5 -85 7 -93 25
-93 18 0 20 8 23 87 3 102 -10 138 -58 158 -27 11 -37 11 -65 -3 l-34 -16 -3
57 c-2 45 -7 58 -21 60 -9 2 -20 -4 -23 -13z"/>
<path d="M3067 18184 c-9 -9 -9 -210 0 -282 6 -55 27 -78 44 -51 5 8 6 46 3
85 -6 68 -6 71 21 92 58 46 85 13 85 -101 0 -62 3 -79 16 -84 25 -9 34 16 34
95 0 93 -19 137 -66 152 -27 9 -40 9 -63 -3 l-30 -15 -3 56 c-2 42 -7 58 -18
60 -9 1 -19 0 -23 -4z"/>
<path d="M9319 18143 c-78 -48 -77 -160 1 -207 78 -45 180 14 180 104 0 91
-105 150 -181 103z"/>
<path d="M1886 18079 c-52 -41 -74 -139 -40 -187 21 -31 66 -52 109 -52 70 0
131 99 68 108 -17 3 -23 -2 -23 -15 0 -42 -55 -57 -98 -27 -32 22 -31 86 3
119 30 31 44 31 79 4 25 -19 29 -20 43 -7 13 13 12 18 -9 42 -33 39 -93 46
-132 15z"/>
<path d="M2647 18093 c-10 -10 -8 -226 2 -242 5 -8 16 -11 25 -8 13 5 16 22
16 85 0 88 11 108 65 114 22 2 30 8 30 23 0 23 -42 33 -74 16 -14 -8 -20 -7
-25 4 -6 15 -28 20 -39 8z"/>
<path d="M2856 18079 c-37 -29 -56 -71 -56 -123 0 -66 38 -107 106 -113 65 -6
104 21 104 73 0 45 -33 48 -49 4 -8 -24 -16 -30 -38 -30 -46 0 -73 25 -73 69
0 43 31 91 59 91 10 0 30 -9 45 -21 29 -22 46 -18 46 12 0 23 -55 59 -91 59
-15 0 -38 -9 -53 -21z"/>
<path d="M1596 18069 c-102 -80 -53 -229 77 -229 57 0 99 19 95 44 -3 22 -3
22 -80 9 -38 -6 -88 15 -88 37 0 5 42 11 93 12 92 3 92 3 95 30 4 37 -22 85
-58 103 -42 22 -102 19 -134 -6z m127 -51 l22 -23 -69 -3 c-37 -2 -71 -1 -74
2 -3 3 3 15 13 26 25 28 79 26 108 -2z"/>
<path d="M2408 18074 c-36 -19 -58 -63 -58 -116 0 -50 19 -82 60 -103 59 -31
165 -11 165 30 0 15 -6 19 -25 17 -14 -2 -44 -6 -67 -9 -34 -4 -45 -1 -65 19
l-23 23 92 3 c107 3 121 12 103 66 -17 52 -62 86 -113 86 -23 -1 -54 -7 -69
-16z m117 -54 c10 -11 16 -23 13 -26 -3 -3 -37 -4 -74 -2 l-69 3 23 23 c28 28
82 30 107 2z"/>
<path d="M3378 18074 c-36 -19 -58 -63 -58 -116 0 -50 19 -82 60 -103 59 -31
165 -11 165 30 0 15 -6 19 -25 17 -14 -2 -44 -6 -67 -9 -34 -4 -45 -1 -65 19
l-23 23 92 3 c107 3 121 12 103 66 -17 52 -62 86 -113 86 -23 -1 -54 -7 -69
-16z m117 -54 c10 -11 16 -23 13 -26 -3 -3 -37 -4 -74 -2 l-69 3 23 23 c28 28
82 30 107 2z"/>
<path d="M9600 17940 l0 -60 -60 0 -60 0 0 -40 0 -40 60 0 60 0 0 -60 0 -60
40 0 40 0 0 60 0 60 60 0 60 0 0 40 0 40 -60 0 -60 0 0 60 0 60 -40 0 -40 0 0
-60z"/>
<path d="M9206 17914 c-51 -52 -63 -168 -21 -209 24 -25 27 -25 189 -25 90 0
171 3 180 6 11 4 16 19 16 45 l0 39 -48 0 c-60 0 -72 12 -72 70 0 57 12 70 69
70 42 0 43 1 25 15 -26 20 -48 19 -86 -5 -20 -12 -51 -20 -78 -20 -27 0 -58 8
-78 20 -43 27 -64 25 -96 -6z"/>
<path d="M1193 17491 c-13 -6 -23 -14 -23 -18 0 -4 -1 -237 -3 -518 l-2 -510
490 -8 c610 -10 8073 -15 8088 -5 14 8 17 898 4 989 l-8 56 -182 6 c-316 12
-8340 19 -8364 8z m8503 -54 c6 -6 10 -938 4 -946 -10 -16 -8452 -19 -8476 -3
-8 5 -10 142 -6 479 l5 473 1111 2 c1341 4 7358 -1 7362 -5z"/>
<path d="M1193 15491 c-13 -6 -23 -14 -23 -18 0 -4 -1 -237 -3 -518 l-2 -510
490 -8 c610 -10 8073 -15 8088 -5 14 8 17 898 4 989 l-8 56 -182 6 c-316 12
-8340 19 -8364 8z m8503 -54 c6 -6 10 -938 4 -946 -10 -16 -8452 -19 -8476 -3
-8 5 -10 142 -6 480 l5 472 246 0 246 0 -58 -24 c-261 -108 -371 -412 -241
-668 37 -74 135 -168 214 -206 333 -161 714 98 687 468 -10 136 -76 259 -185
342 -34 26 -85 55 -113 65 -49 18 -36 18 688 23 745 5 6984 2 6989 -3z m-7692
-90 c117 -54 189 -136 226 -255 34 -108 21 -234 -33 -321 l-20 -33 -28 60
c-29 64 -72 102 -115 102 -12 0 -48 -13 -79 -30 -44 -23 -70 -30 -115 -30 -45
0 -71 7 -115 30 -31 17 -67 30 -79 30 -43 0 -86 -38 -115 -102 l-28 -60 -20
33 c-96 156 -53 397 91 513 90 73 162 97 281 93 73 -2 101 -8 149 -30z"/>
<path d="M4041 15326 c-44 -46 -16 -84 30 -40 34 33 35 40 10 53 -14 8 -23 5
-40 -13z"/>
<path d="M2734 15307 c-2 -7 -3 -65 -2 -128 3 -106 4 -114 23 -114 18 0 21 8
25 78 l5 78 55 -78 c37 -52 62 -78 75 -78 19 0 20 8 20 125 0 118 -1 125 -20
125 -18 0 -21 -8 -25 -75 l-5 -74 -19 29 c-35 55 -99 125 -113 125 -7 0 -16
-6 -19 -13z"/>
<path d="M3614 15307 c-2 -7 -3 -65 -2 -128 3 -106 4 -114 23 -114 17 0 20 8
23 48 3 47 3 47 38 47 92 0 137 78 79 135 -21 22 -33 25 -90 25 -45 0 -67 -4
-71 -13z m126 -52 c19 -22 -5 -45 -46 -45 -31 0 -34 3 -34 30 0 27 3 30 34 30
18 0 39 -7 46 -15z"/>
<path d="M3009 15224 c-18 -19 -24 -37 -24 -70 0 -57 35 -95 89 -97 51 -1 77
28 84 91 4 44 1 54 -21 76 -36 36 -94 36 -128 0z m85 -30 c17 -7 21 -50 7 -72
-12 -19 -52 -11 -61 13 -16 43 13 75 54 59z"/>
<path d="M3194 15224 c-9 -34 2 -144 14 -156 6 -6 18 -8 26 -5 12 5 16 22 16
72 0 62 1 65 24 65 26 0 39 -32 36 -87 -3 -45 -1 -53 14 -53 22 0 29 17 32 74
1 28 3 54 3 59 2 12 39 8 48 -5 4 -7 8 -38 8 -68 0 -48 2 -55 20 -55 18 0 20
8 23 71 3 68 1 73 -24 93 -29 23 -64 27 -94 11 -13 -7 -21 -7 -25 0 -3 5 -31
10 -60 10 -50 0 -55 -2 -61 -26z"/>
<path d="M3825 15227 c-3 -12 -5 -51 -3 -86 2 -48 7 -67 21 -75 25 -15 37 7
37 67 0 45 2 49 35 63 37 15 46 40 19 51 -8 3 -26 1 -40 -5 -15 -7 -24 -8 -24
-2 0 21 -40 10 -45 -13z"/>
<path d="M4002 15234 c-12 -8 -29 -31 -36 -49 -13 -31 -13 -38 4 -73 23 -47
64 -67 115 -58 42 8 62 38 39 57 -11 9 -18 9 -26 1 -17 -17 -63 -15 -78 3 -11
13 -6 15 38 15 69 0 82 7 82 42 0 63 -83 101 -138 62z m84 -41 c17 -17 17 -18
-9 -21 -15 -2 -37 -2 -49 0 -21 3 -21 4 -4 21 10 9 24 17 31 17 7 0 21 -8 31
-17z"/>
<path d="M4173 15233 c-3 -8 -1 -48 3 -91 8 -67 11 -77 29 -77 18 0 20 8 23
68 3 63 4 67 26 67 29 0 36 -16 36 -86 0 -46 3 -54 19 -54 10 0 22 7 25 16 17
44 -4 148 -32 163 -27 14 -123 9 -129 -6z"/>
<path d="M4412 15243 c-37 -15 -54 -111 -27 -151 20 -27 71 -42 106 -30 65 22
75 149 13 177 -25 11 -69 13 -92 4z m78 -62 c16 -30 -4 -71 -34 -71 -24 0 -36
16 -36 49 0 40 51 56 70 22z"/>
<path d="M4584 15236 c-3 -7 -4 -48 -2 -92 3 -71 5 -79 23 -79 17 0 21 8 25
65 5 61 6 65 30 65 24 0 25 -4 30 -65 4 -57 8 -65 25 -65 17 0 21 8 25 65 5
61 6 65 30 65 24 0 25 -4 30 -65 4 -57 8 -65 25 -65 18 0 20 7 20 73 0 66 -3
76 -25 94 -18 15 -33 18 -60 14 -19 -3 -39 -6 -45 -6 -5 1 -36 3 -68 5 -41 3
-59 1 -63 -9z"/>
<path d="M2730 14745 c0 -96 3 -115 15 -115 11 0 15 12 15 45 0 45 0 45 35 45
44 0 92 23 100 49 8 26 -13 67 -42 80 -13 6 -46 11 -73 11 l-50 0 0 -115z
m105 75 c39 -15 31 -51 -14 -63 -18 -4 -40 -6 -47 -3 -14 5 -20 57 -7 69 9 10
38 9 68 -3z"/>
<path d="M3560 14830 c0 -26 -3 -30 -29 -30 -43 0 -60 -9 -77 -42 -20 -39 -11
-93 19 -113 13 -8 44 -14 70 -13 l47 1 0 113 c0 95 -3 114 -15 114 -10 0 -15
-10 -15 -30z m-19 -70 c30 -17 26 -77 -6 -92 -19 -8 -28 -8 -40 2 -21 17 -20
76 3 89 21 13 20 13 43 1z"/>
<path d="M2932 14788 c-31 -31 3 -88 54 -88 28 0 36 -10 23 -27 -17 -20 -56
-16 -62 7 -6 22 -37 28 -37 7 0 -7 7 -23 16 -35 18 -26 69 -30 102 -6 42 29
19 75 -45 89 -18 3 -33 11 -33 16 0 19 30 20 59 3 32 -19 45 -16 36 8 -13 32
-89 50 -113 26z"/>
<path d="M3099 14771 c-40 -40 -36 -93 10 -128 35 -27 136 -5 117 25 -5 8 -15
8 -37 0 -22 -7 -37 -7 -55 1 -42 19 -27 31 41 31 70 0 76 6 54 53 -24 52 -87
60 -130 18z m99 -29 c2 -8 -12 -12 -45 -12 l-48 1 23 19 c24 20 62 15 70 -8z"/>
<path d="M3270 14745 c0 -60 15 -102 39 -109 9 -2 34 -3 56 -2 l40 2 0 79 c0
64 -3 80 -15 80 -11 0 -16 -14 -18 -57 -2 -44 -7 -60 -22 -68 -31 -16 -50 12
-50 76 0 41 -4 54 -15 54 -11 0 -15 -13 -15 -55z"/>
<path d="M3650 14780 c-29 -29 -28 -99 3 -128 33 -31 70 -28 101 9 33 39 34
82 1 114 -30 31 -77 33 -105 5z m85 -34 c13 -19 14 -28 4 -50 -21 -46 -79 -29
-79 24 0 51 48 68 75 26z"/>
<path d="M1755 15263 c-39 -20 -84 -62 -100 -93 -68 -134 34 -300 185 -300
151 0 253 166 185 300 -17 32 -61 73 -102 94 -41 20 -129 20 -168 -1z"/>
<path d="M1193 14051 c-13 -6 -23 -14 -23 -18 0 -4 -1 -237 -3 -518 l-2 -510
490 -8 c610 -10 8073 -15 8088 -5 14 8 17 898 4 989 l-8 56 -182 6 c-316 12
-8340 19 -8364 8z m8503 -54 c6 -6 10 -938 4 -946 -7 -11 -4219 -20 -6178 -13
-1534 5 -1572 5 -1521 23 355 125 431 603 132 831 -86 64 -158 90 -270 96 -74
3 -105 0 -161 -17 -336 -102 -453 -517 -218 -778 54 -60 129 -110 200 -135
l51 -17 -250 -1 c-137 0 -255 4 -261 8 -8 5 -10 142 -6 479 l5 473 1111 2
c1341 4 7358 -1 7362 -5z m-7692 -110 c117 -54 189 -136 226 -255 34 -108 21
-234 -33 -321 l-20 -33 -28 60 c-29 64 -72 102 -115 102 -12 0 -48 -13 -79
-30 -44 -23 -70 -30 -115 -30 -45 0 -71 7 -115 30 -31 17 -67 30 -79 30 -43 0
-86 -38 -115 -102 l-28 -60 -20 33 c-96 156 -53 397 91 513 90 73 162 97 281
93 73 -2 101 -8 149 -30z"/>
<path d="M4041 13906 c-44 -46 -16 -84 30 -40 34 33 35 40 10 53 -14 8 -23 5
-40 -13z"/>
<path d="M2734 13887 c-2 -7 -3 -65 -2 -128 3 -106 4 -114 23 -114 18 0 21 8
25 78 l5 78 55 -78 c37 -52 62 -78 75 -78 19 0 20 8 20 125 0 118 -1 125 -20
125 -18 0 -21 -8 -25 -75 l-5 -74 -19 29 c-35 55 -99 125 -113 125 -7 0 -16
-6 -19 -13z"/>
<path d="M3614 13887 c-2 -7 -3 -65 -2 -128 3 -106 4 -114 23 -114 17 0 20 8
23 48 3 47 3 47 38 47 92 0 137 78 79 135 -21 22 -33 25 -90 25 -45 0 -67 -4
-71 -13z m126 -52 c19 -22 -5 -45 -46 -45 -31 0 -34 3 -34 30 0 27 3 30 34 30
18 0 39 -7 46 -15z"/>
<path d="M3009 13804 c-18 -19 -24 -37 -24 -70 0 -57 35 -95 89 -97 51 -1 77
28 84 91 4 44 1 54 -21 76 -36 36 -94 36 -128 0z m85 -30 c17 -7 21 -50 7 -72
-12 -19 -52 -11 -61 13 -16 43 13 75 54 59z"/>
<path d="M3194 13804 c-9 -34 2 -144 14 -156 6 -6 18 -8 26 -5 12 5 16 22 16
72 0 62 1 65 24 65 26 0 39 -32 36 -87 -3 -45 -1 -53 14 -53 22 0 29 17 32 74
1 28 3 54 3 59 2 12 39 8 48 -5 4 -7 8 -38 8 -68 0 -48 2 -55 20 -55 18 0 20
8 23 71 3 68 1 73 -24 93 -29 23 -64 27 -94 11 -13 -7 -21 -7 -25 0 -3 5 -31
10 -60 10 -50 0 -55 -2 -61 -26z"/>
<path d="M3825 13807 c-3 -12 -5 -51 -3 -86 2 -48 7 -67 21 -75 25 -15 37 7
37 67 0 45 2 49 35 63 37 15 46 40 19 51 -8 3 -26 1 -40 -5 -15 -7 -24 -8 -24
-2 0 21 -40 10 -45 -13z"/>
<path d="M4002 13814 c-12 -8 -29 -31 -36 -49 -13 -31 -13 -38 4 -73 23 -47
64 -67 115 -58 42 8 62 38 39 57 -11 9 -18 9 -26 1 -17 -17 -63 -15 -78 3 -11
13 -6 15 38 15 69 0 82 7 82 42 0 63 -83 101 -138 62z m84 -41 c17 -17 17 -18
-9 -21 -15 -2 -37 -2 -49 0 -21 3 -21 4 -4 21 10 9 24 17 31 17 7 0 21 -8 31
-17z"/>
<path d="M4173 13813 c-3 -8 -1 -48 3 -91 8 -67 11 -77 29 -77 18 0 20 8 23
68 3 63 4 67 26 67 29 0 36 -16 36 -86 0 -46 3 -54 19 -54 10 0 22 7 25 16 17
44 -4 148 -32 163 -27 14 -123 9 -129 -6z"/>
<path d="M4412 13823 c-37 -15 -54 -111 -27 -151 20 -27 71 -42 106 -30 65 22
75 149 13 177 -25 11 -69 13 -92 4z m78 -62 c16 -30 -4 -71 -34 -71 -24 0 -36
16 -36 49 0 40 51 56 70 22z"/>
<path d="M4584 13816 c-3 -7 -4 -48 -2 -92 3 -71 5 -79 23 -79 17 0 21 8 25
65 5 61 6 65 30 65 24 0 25 -4 30 -65 4 -57 8 -65 25 -65 17 0 21 8 25 65 5
61 6 65 30 65 24 0 25 -4 30 -65 4 -57 8 -65 25 -65 18 0 20 7 20 73 0 66 -3
76 -25 94 -18 15 -33 18 -60 14 -19 -3 -39 -6 -45 -6 -5 1 -36 3 -68 5 -41 3
-59 1 -63 -9z"/>
<path d="M2730 13345 c0 -96 3 -115 15 -115 11 0 15 12 15 45 0 45 0 45 35 45
44 0 92 23 100 49 8 26 -13 67 -42 80 -13 6 -46 11 -73 11 l-50 0 0 -115z
m105 75 c39 -15 31 -51 -14 -63 -18 -4 -40 -6 -47 -3 -14 5 -20 57 -7 69 9 10
38 9 68 -3z"/>
<path d="M3560 13430 c0 -26 -3 -30 -29 -30 -43 0 -60 -9 -77 -42 -20 -39 -11
-93 19 -113 13 -8 44 -14 70 -13 l47 1 0 113 c0 95 -3 114 -15 114 -10 0 -15
-10 -15 -30z m-19 -70 c30 -17 26 -77 -6 -92 -19 -8 -28 -8 -40 2 -21 17 -20
76 3 89 21 13 20 13 43 1z"/>
<path d="M2932 13388 c-31 -31 3 -88 54 -88 28 0 36 -10 23 -27 -17 -20 -56
-16 -62 7 -6 22 -37 28 -37 7 0 -7 7 -23 16 -35 18 -26 69 -30 102 -6 42 29
19 75 -45 89 -18 3 -33 11 -33 16 0 19 30 20 59 3 32 -19 45 -16 36 8 -13 32
-89 50 -113 26z"/>
<path d="M3099 13371 c-40 -40 -36 -93 10 -128 35 -27 136 -5 117 25 -5 8 -15
8 -37 0 -22 -7 -37 -7 -55 1 -42 19 -27 31 41 31 70 0 76 6 54 53 -24 52 -87
60 -130 18z m99 -29 c2 -8 -12 -12 -45 -12 l-48 1 23 19 c24 20 62 15 70 -8z"/>
<path d="M3270 13345 c0 -60 15 -102 39 -109 9 -2 34 -3 56 -2 l40 2 0 79 c0
64 -3 80 -15 80 -11 0 -16 -14 -18 -57 -2 -44 -7 -60 -22 -68 -31 -16 -50 12
-50 76 0 41 -4 54 -15 54 -11 0 -15 -13 -15 -55z"/>
<path d="M3650 13380 c-29 -29 -28 -99 3 -128 33 -31 70 -28 101 9 33 39 34
82 1 114 -30 31 -77 33 -105 5z m85 -34 c13 -19 14 -28 4 -50 -21 -46 -79 -29
-79 24 0 51 48 68 75 26z"/>
<path d="M1755 13803 c-39 -20 -84 -62 -100 -93 -68 -134 34 -300 185 -300
151 0 253 166 185 300 -17 32 -61 73 -102 94 -41 20 -129 20 -168 -1z"/>
<path d="M1193 12651 c-13 -6 -23 -14 -23 -18 0 -4 -1 -237 -3 -518 l-2 -510
490 -8 c610 -10 8073 -15 8088 -5 14 8 17 898 4 989 l-8 56 -182 6 c-316 12
-8340 19 -8364 8z m8503 -54 c6 -6 10 -938 4 -946 -7 -11 -4219 -20 -6178 -13
-1534 5 -1572 5 -1521 23 355 125 431 603 132 831 -86 64 -158 90 -270 96 -74
3 -105 0 -161 -17 -336 -102 -453 -517 -218 -778 54 -60 129 -110 200 -135
l51 -17 -250 -1 c-137 0 -255 4 -261 8 -8 5 -10 142 -6 479 l5 473 1111 2
c1341 4 7358 -1 7362 -5z m-7692 -110 c117 -54 189 -136 226 -255 34 -108 21
-234 -33 -321 l-20 -33 -28 60 c-29 64 -72 102 -115 102 -12 0 -48 -13 -79
-30 -44 -23 -70 -30 -115 -30 -45 0 -71 7 -115 30 -31 17 -67 30 -79 30 -43 0
-86 -38 -115 -102 l-28 -60 -20 33 c-96 156 -53 397 91 513 90 73 162 97 281
93 73 -2 101 -8 149 -30z"/>
<path d="M4041 12506 c-44 -46 -16 -84 30 -40 34 33 35 40 10 53 -14 8 -23 5
-40 -13z"/>
<path d="M2734 12487 c-2 -7 -3 -65 -2 -128 3 -106 4 -114 23 -114 18 0 21 8
25 78 l5 78 55 -78 c37 -52 62 -78 75 -78 19 0 20 8 20 125 0 118 -1 125 -20
125 -18 0 -21 -8 -25 -75 l-5 -74 -19 29 c-35 55 -99 125 -113 125 -7 0 -16
-6 -19 -13z"/>
<path d="M3614 12487 c-2 -7 -3 -65 -2 -128 3 -106 4 -114 23 -114 17 0 20 8
23 48 3 47 3 47 38 47 92 0 137 78 79 135 -21 22 -33 25 -90 25 -45 0 -67 -4
-71 -13z m126 -52 c19 -22 -5 -45 -46 -45 -31 0 -34 3 -34 30 0 27 3 30 34 30
18 0 39 -7 46 -15z"/>
<path d="M3009 12404 c-18 -19 -24 -37 -24 -70 0 -57 35 -95 89 -97 51 -1 77
28 84 91 4 44 1 54 -21 76 -36 36 -94 36 -128 0z m85 -30 c17 -7 21 -50 7 -72
-12 -19 -52 -11 -61 13 -16 43 13 75 54 59z"/>
<path d="M3194 12404 c-9 -34 2 -144 14 -156 6 -6 18 -8 26 -5 12 5 16 22 16
72 0 62 1 65 24 65 26 0 39 -32 36 -87 -3 -45 -1 -53 14 -53 22 0 29 17 32 74
1 28 3 54 3 59 2 12 39 8 48 -5 4 -7 8 -38 8 -68 0 -48 2 -55 20 -55 18 0 20
8 23 71 3 68 1 73 -24 93 -29 23 -64 27 -94 11 -13 -7 -21 -7 -25 0 -3 5 -31
10 -60 10 -50 0 -55 -2 -61 -26z"/>
<path d="M3825 12407 c-3 -12 -5 -51 -3 -86 2 -48 7 -67 21 -75 25 -15 37 7
37 67 0 45 2 49 35 63 37 15 46 40 19 51 -8 3 -26 1 -40 -5 -15 -7 -24 -8 -24
-2 0 21 -40 10 -45 -13z"/>
<path d="M4002 12414 c-12 -8 -29 -31 -36 -49 -13 -31 -13 -38 4 -73 23 -47
64 -67 115 -58 42 8 62 38 39 57 -11 9 -18 9 -26 1 -17 -17 -63 -15 -78 3 -11
13 -6 15 38 15 69 0 82 7 82 42 0 63 -83 101 -138 62z m84 -41 c17 -17 17 -18
-9 -21 -15 -2 -37 -2 -49 0 -21 3 -21 4 -4 21 10 9 24 17 31 17 7 0 21 -8 31
-17z"/>
<path d="M4173 12413 c-3 -8 -1 -48 3 -91 8 -67 11 -77 29 -77 18 0 20 8 23
68 3 63 4 67 26 67 29 0 36 -16 36 -86 0 -46 3 -54 19 -54 10 0 22 7 25 16 17
44 -4 148 -32 163 -27 14 -123 9 -129 -6z"/>
<path d="M4412 12423 c-37 -15 -54 -111 -27 -151 20 -27 71 -42 106 -30 65 22
75 149 13 177 -25 11 -69 13 -92 4z m78 -62 c16 -30 -4 -71 -34 -71 -24 0 -36
16 -36 49 0 40 51 56 70 22z"/>
<path d="M4584 12416 c-3 -7 -4 -48 -2 -92 3 -71 5 -79 23 -79 17 0 21 8 25
65 5 61 6 65 30 65 24 0 25 -4 30 -65 4 -57 8 -65 25 -65 17 0 21 8 25 65 5
61 6 65 30 65 24 0 25 -4 30 -65 4 -57 8 -65 25 -65 18 0 20 7 20 73 0 66 -3
76 -25 94 -18 15 -33 18 -60 14 -19 -3 -39 -6 -45 -6 -5 1 -36 3 -68 5 -41 3
-59 1 -63 -9z"/>
<path d="M2730 11925 c0 -96 3 -115 15 -115 11 0 15 12 15 45 0 45 0 45 35 45
44 0 92 23 100 49 8 26 -13 67 -42 80 -13 6 -46 11 -73 11 l-50 0 0 -115z
m105 75 c39 -15 31 -51 -14 -63 -18 -4 -40 -6 -47 -3 -14 5 -20 57 -7 69 9 10
38 9 68 -3z"/>
<path d="M3560 12010 c0 -26 -3 -30 -29 -30 -43 0 -60 -9 -77 -42 -20 -39 -11
-93 19 -113 13 -8 44 -14 70 -13 l47 1 0 113 c0 95 -3 114 -15 114 -10 0 -15
-10 -15 -30z m-19 -70 c30 -17 26 -77 -6 -92 -19 -8 -28 -8 -40 2 -21 17 -20
76 3 89 21 13 20 13 43 1z"/>
<path d="M2932 11968 c-31 -31 3 -88 54 -88 28 0 36 -10 23 -27 -17 -20 -56
-16 -62 7 -6 22 -37 28 -37 7 0 -7 7 -23 16 -35 18 -26 69 -30 102 -6 42 29
19 75 -45 89 -18 3 -33 11 -33 16 0 19 30 20 59 3 32 -19 45 -16 36 8 -13 32
-89 50 -113 26z"/>
<path d="M3099 11951 c-40 -40 -36 -93 10 -128 35 -27 136 -5 117 25 -5 8 -15
8 -37 0 -22 -7 -37 -7 -55 1 -42 19 -27 31 41 31 70 0 76 6 54 53 -24 52 -87
60 -130 18z m99 -29 c2 -8 -12 -12 -45 -12 l-48 1 23 19 c24 20 62 15 70 -8z"/>
<path d="M3270 11925 c0 -60 15 -102 39 -109 9 -2 34 -3 56 -2 l40 2 0 79 c0
64 -3 80 -15 80 -11 0 -16 -14 -18 -57 -2 -44 -7 -60 -22 -68 -31 -16 -50 12
-50 76 0 41 -4 54 -15 54 -11 0 -15 -13 -15 -55z"/>
<path d="M3650 11960 c-29 -29 -28 -99 3 -128 33 -31 70 -28 101 9 33 39 34
82 1 114 -30 31 -77 33 -105 5z m85 -34 c13 -19 14 -28 4 -50 -21 -46 -79 -29
-79 24 0 51 48 68 75 26z"/>
<path d="M1755 12403 c-39 -20 -84 -62 -100 -93 -68 -134 34 -300 185 -300
151 0 253 166 185 300 -17 32 -61 73 -102 94 -41 20 -129 20 -168 -1z"/>
<path d="M1193 11271 c-13 -6 -23 -14 -23 -18 0 -4 -1 -237 -3 -518 l-2 -510
490 -8 c610 -10 8073 -15 8088 -5 14 8 17 898 4 989 l-8 56 -182 6 c-316 12
-8340 19 -8364 8z m8503 -54 c6 -6 10 -938 4 -946 -10 -16 -8452 -19 -8476 -3
-8 5 -10 142 -6 480 l5 472 246 0 246 0 -58 -24 c-261 -108 -371 -412 -241
-668 37 -74 135 -168 214 -206 333 -161 714 98 687 468 -10 136 -76 259 -185
342 -34 26 -85 55 -113 65 -49 18 -36 18 688 23 745 5 6984 2 6989 -3z m-7692
-90 c117 -54 189 -136 226 -255 34 -108 21 -234 -33 -321 l-20 -33 -28 60
c-29 64 -72 102 -115 102 -12 0 -48 -13 -79 -30 -44 -23 -70 -30 -115 -30 -45
0 -71 7 -115 30 -31 17 -67 30 -79 30 -43 0 -86 -38 -115 -102 l-28 -60 -20
33 c-96 156 -53 397 91 513 90 73 162 97 281 93 73 -2 101 -8 149 -30z"/>
<path d="M4041 11106 c-44 -46 -16 -84 30 -40 34 33 35 40 10 53 -14 8 -23 5
-40 -13z"/>
<path d="M2734 11087 c-2 -7 -3 -65 -2 -128 3 -106 4 -114 23 -114 18 0 21 8
25 78 l5 78 55 -78 c37 -52 62 -78 75 -78 19 0 20 8 20 125 0 118 -1 125 -20
125 -18 0 -21 -8 -25 -75 l-5 -74 -19 29 c-35 55 -99 125 -113 125 -7 0 -16
-6 -19 -13z"/>
<path d="M3614 11087 c-2 -7 -3 -65 -2 -128 3 -106 4 -114 23 -114 17 0 20 8
23 48 3 47 3 47 38 47 92 0 137 78 79 135 -21 22 -33 25 -90 25 -45 0 -67 -4
-71 -13z m126 -52 c19 -22 -5 -45 -46 -45 -31 0 -34 3 -34 30 0 27 3 30 34 30
18 0 39 -7 46 -15z"/>
<path d="M3009 11004 c-18 -19 -24 -37 -24 -70 0 -57 35 -95 89 -97 51 -1 77
28 84 91 4 44 1 54 -21 76 -36 36 -94 36 -128 0z m85 -30 c17 -7 21 -50 7 -72
-12 -19 -52 -11 -61 13 -16 43 13 75 54 59z"/>
<path d="M3194 11004 c-9 -34 2 -144 14 -156 6 -6 18 -8 26 -5 12 5 16 22 16
72 0 62 1 65 24 65 26 0 39 -32 36 -87 -3 -45 -1 -53 14 -53 22 0 29 17 32 74
1 28 3 54 3 59 2 12 39 8 48 -5 4 -7 8 -38 8 -68 0 -48 2 -55 20 -55 18 0 20
8 23 71 3 68 1 73 -24 93 -29 23 -64 27 -94 11 -13 -7 -21 -7 -25 0 -3 5 -31
10 -60 10 -50 0 -55 -2 -61 -26z"/>
<path d="M3825 11007 c-3 -12 -5 -51 -3 -86 2 -48 7 -67 21 -75 25 -15 37 7
37 67 0 45 2 49 35 63 37 15 46 40 19 51 -8 3 -26 1 -40 -5 -15 -7 -24 -8 -24
-2 0 21 -40 10 -45 -13z"/>
<path d="M4002 11014 c-12 -8 -29 -31 -36 -49 -13 -31 -13 -38 4 -73 23 -47
64 -67 115 -58 42 8 62 38 39 57 -11 9 -18 9 -26 1 -17 -17 -63 -15 -78 3 -11
13 -6 15 38 15 69 0 82 7 82 42 0 63 -83 101 -138 62z m84 -41 c17 -17 17 -18
-9 -21 -15 -2 -37 -2 -49 0 -21 3 -21 4 -4 21 10 9 24 17 31 17 7 0 21 -8 31
-17z"/>
<path d="M4173 11013 c-3 -8 -1 -48 3 -91 8 -67 11 -77 29 -77 18 0 20 8 23
68 3 63 4 67 26 67 29 0 36 -16 36 -86 0 -46 3 -54 19 -54 10 0 22 7 25 16 17
44 -4 148 -32 163 -27 14 -123 9 -129 -6z"/>
<path d="M4412 11023 c-37 -15 -54 -111 -27 -151 20 -27 71 -42 106 -30 65 22
75 149 13 177 -25 11 -69 13 -92 4z m78 -62 c16 -30 -4 -71 -34 -71 -24 0 -36
16 -36 49 0 40 51 56 70 22z"/>
<path d="M4584 11016 c-3 -7 -4 -48 -2 -92 3 -71 5 -79 23 -79 17 0 21 8 25
65 5 61 6 65 30 65 24 0 25 -4 30 -65 4 -57 8 -65 25 -65 17 0 21 8 25 65 5
61 6 65 30 65 24 0 25 -4 30 -65 4 -57 8 -65 25 -65 18 0 20 7 20 73 0 66 -3
76 -25 94 -18 15 -33 18 -60 14 -19 -3 -39 -6 -45 -6 -5 1 -36 3 -68 5 -41 3
-59 1 -63 -9z"/>
<path d="M2730 10525 c0 -96 3 -115 15 -115 11 0 15 12 15 45 0 45 0 45 35 45
44 0 92 23 100 49 8 26 -13 67 -42 80 -13 6 -46 11 -73 11 l-50 0 0 -115z
m105 75 c39 -15 31 -51 -14 -63 -18 -4 -40 -6 -47 -3 -14 5 -20 57 -7 69 9 10
38 9 68 -3z"/>
<path d="M3560 10610 c0 -26 -3 -30 -29 -30 -43 0 -60 -9 -77 -42 -20 -39 -11
-93 19 -113 13 -8 44 -14 70 -13 l47 1 0 113 c0 95 -3 114 -15 114 -10 0 -15
-10 -15 -30z m-19 -70 c30 -17 26 -77 -6 -92 -19 -8 -28 -8 -40 2 -21 17 -20
76 3 89 21 13 20 13 43 1z"/>
<path d="M2932 10568 c-31 -31 3 -88 54 -88 28 0 36 -10 23 -27 -17 -20 -56
-16 -62 7 -6 22 -37 28 -37 7 0 -7 7 -23 16 -35 18 -26 69 -30 102 -6 42 29
19 75 -45 89 -18 3 -33 11 -33 16 0 19 30 20 59 3 32 -19 45 -16 36 8 -13 32
-89 50 -113 26z"/>
<path d="M3099 10551 c-40 -40 -36 -93 10 -128 35 -27 136 -5 117 25 -5 8 -15
8 -37 0 -22 -7 -37 -7 -55 1 -42 19 -27 31 41 31 70 0 76 6 54 53 -24 52 -87
60 -130 18z m99 -29 c2 -8 -12 -12 -45 -12 l-48 1 23 19 c24 20 62 15 70 -8z"/>
<path d="M3270 10525 c0 -60 15 -102 39 -109 9 -2 34 -3 56 -2 l40 2 0 79 c0
64 -3 80 -15 80 -11 0 -16 -14 -18 -57 -2 -44 -7 -60 -22 -68 -31 -16 -50 12
-50 76 0 41 -4 54 -15 54 -11 0 -15 -13 -15 -55z"/>
<path d="M3650 10560 c-29 -29 -28 -99 3 -128 33 -31 70 -28 101 9 33 39 34
82 1 114 -30 31 -77 33 -105 5z m85 -34 c13 -19 14 -28 4 -50 -21 -46 -79 -29
-79 24 0 51 48 68 75 26z"/>
<path d="M1755 11043 c-39 -20 -84 -62 -100 -93 -68 -134 34 -300 185 -300
151 0 253 166 185 300 -17 32 -61 73 -102 94 -41 20 -129 20 -168 -1z"/>
<path d="M1193 9831 c-13 -6 -23 -14 -23 -18 0 -4 -1 -237 -3 -518 l-2 -510
490 -8 c610 -10 8073 -15 8088 -5 14 8 17 898 4 989 l-8 56 -182 6 c-316 12
-8340 19 -8364 8z m8503 -54 c6 -6 10 -938 4 -946 -7 -11 -4219 -20 -6178 -13
-1534 5 -1572 5 -1521 23 355 125 431 603 132 831 -86 64 -158 90 -270 96 -74
3 -105 0 -161 -17 -336 -102 -453 -517 -218 -778 54 -60 129 -110 200 -135
l51 -17 -250 -1 c-137 0 -255 4 -261 8 -8 5 -10 142 -6 479 l5 473 1111 2
c1341 4 7358 -1 7362 -5z m-7692 -110 c117 -54 189 -136 226 -255 34 -108 21
-234 -33 -321 l-20 -33 -28 60 c-29 64 -72 102 -115 102 -12 0 -48 -13 -79
-30 -44 -23 -70 -30 -115 -30 -45 0 -71 7 -115 30 -31 17 -67 30 -79 30 -43 0
-86 -38 -115 -102 l-28 -60 -20 33 c-96 156 -53 397 91 513 90 73 162 97 281
93 73 -2 101 -8 149 -30z"/>
<path d="M4041 9686 c-44 -46 -16 -84 30 -40 34 33 35 40 10 53 -14 8 -23 5
-40 -13z"/>
<path d="M2734 9667 c-2 -7 -3 -65 -2 -128 3 -106 4 -114 23 -114 18 0 21 8
25 78 l5 78 55 -78 c37 -52 62 -78 75 -78 19 0 20 8 20 125 0 118 -1 125 -20
125 -18 0 -21 -8 -25 -75 l-5 -74 -19 29 c-35 55 -99 125 -113 125 -7 0 -16
-6 -19 -13z"/>
<path d="M3614 9667 c-2 -7 -3 -65 -2 -128 3 -106 4 -114 23 -114 17 0 20 8
23 48 3 47 3 47 38 47 92 0 137 78 79 135 -21 22 -33 25 -90 25 -45 0 -67 -4
-71 -13z m126 -52 c19 -22 -5 -45 -46 -45 -31 0 -34 3 -34 30 0 27 3 30 34 30
18 0 39 -7 46 -15z"/>
<path d="M3009 9584 c-18 -19 -24 -37 -24 -70 0 -57 35 -95 89 -97 51 -1 77
28 84 91 4 44 1 54 -21 76 -36 36 -94 36 -128 0z m85 -30 c17 -7 21 -50 7 -72
-12 -19 -52 -11 -61 13 -16 43 13 75 54 59z"/>
<path d="M3194 9584 c-9 -34 2 -144 14 -156 6 -6 18 -8 26 -5 12 5 16 22 16
72 0 62 1 65 24 65 26 0 39 -32 36 -87 -3 -45 -1 -53 14 -53 22 0 29 17 32 74
1 28 3 54 3 59 2 12 39 8 48 -5 4 -7 8 -38 8 -68 0 -48 2 -55 20 -55 18 0 20
8 23 71 3 68 1 73 -24 93 -29 23 -64 27 -94 11 -13 -7 -21 -7 -25 0 -3 5 -31
10 -60 10 -50 0 -55 -2 -61 -26z"/>
<path d="M3825 9587 c-3 -12 -5 -51 -3 -86 2 -48 7 -67 21 -75 25 -15 37 7 37
67 0 45 2 49 35 63 37 15 46 40 19 51 -8 3 -26 1 -40 -5 -15 -7 -24 -8 -24 -2
0 21 -40 10 -45 -13z"/>
<path d="M4002 9594 c-12 -8 -29 -31 -36 -49 -13 -31 -13 -38 4 -73 23 -47 64
-67 115 -58 42 8 62 38 39 57 -11 9 -18 9 -26 1 -17 -17 -63 -15 -78 3 -11 13
-6 15 38 15 69 0 82 7 82 42 0 63 -83 101 -138 62z m84 -41 c17 -17 17 -18 -9
-21 -15 -2 -37 -2 -49 0 -21 3 -21 4 -4 21 10 9 24 17 31 17 7 0 21 -8 31 -17z"/>
<path d="M4173 9593 c-3 -8 -1 -48 3 -91 8 -67 11 -77 29 -77 18 0 20 8 23 68
3 63 4 67 26 67 29 0 36 -16 36 -86 0 -46 3 -54 19 -54 10 0 22 7 25 16 17 44
-4 148 -32 163 -27 14 -123 9 -129 -6z"/>
<path d="M4412 9603 c-37 -15 -54 -111 -27 -151 20 -27 71 -42 106 -30 65 22
75 149 13 177 -25 11 -69 13 -92 4z m78 -62 c16 -30 -4 -71 -34 -71 -24 0 -36
16 -36 49 0 40 51 56 70 22z"/>
<path d="M4584 9596 c-3 -7 -4 -48 -2 -92 3 -71 5 -79 23 -79 17 0 21 8 25 65
5 61 6 65 30 65 24 0 25 -4 30 -65 4 -57 8 -65 25 -65 17 0 21 8 25 65 5 61 6
65 30 65 24 0 25 -4 30 -65 4 -57 8 -65 25 -65 18 0 20 7 20 73 0 66 -3 76
-25 94 -18 15 -33 18 -60 14 -19 -3 -39 -6 -45 -6 -5 1 -36 3 -68 5 -41 3 -59
1 -63 -9z"/>
<path d="M2730 9125 c0 -96 3 -115 15 -115 11 0 15 12 15 45 0 45 0 45 35 45
44 0 92 23 100 49 8 26 -13 67 -42 80 -13 6 -46 11 -73 11 l-50 0 0 -115z
m105 75 c39 -15 31 -51 -14 -63 -18 -4 -40 -6 -47 -3 -14 5 -20 57 -7 69 9 10
38 9 68 -3z"/>
<path d="M3560 9210 c0 -26 -3 -30 -29 -30 -43 0 -60 -9 -77 -42 -20 -39 -11
-93 19 -113 13 -8 44 -14 70 -13 l47 1 0 113 c0 95 -3 114 -15 114 -10 0 -15
-10 -15 -30z m-19 -70 c30 -17 26 -77 -6 -92 -19 -8 -28 -8 -40 2 -21 17 -20
76 3 89 21 13 20 13 43 1z"/>
<path d="M2932 9168 c-31 -31 3 -88 54 -88 28 0 36 -10 23 -27 -17 -20 -56
-16 -62 7 -6 22 -37 28 -37 7 0 -7 7 -23 16 -35 18 -26 69 -30 102 -6 42 29
19 75 -45 89 -18 3 -33 11 -33 16 0 19 30 20 59 3 32 -19 45 -16 36 8 -13 32
-89 50 -113 26z"/>
<path d="M3099 9151 c-40 -40 -36 -93 10 -128 35 -27 136 -5 117 25 -5 8 -15
8 -37 0 -22 -7 -37 -7 -55 1 -42 19 -27 31 41 31 70 0 76 6 54 53 -24 52 -87
60 -130 18z m99 -29 c2 -8 -12 -12 -45 -12 l-48 1 23 19 c24 20 62 15 70 -8z"/>
<path d="M3270 9125 c0 -60 15 -102 39 -109 9 -2 34 -3 56 -2 l40 2 0 79 c0
64 -3 80 -15 80 -11 0 -16 -14 -18 -57 -2 -44 -7 -60 -22 -68 -31 -16 -50 12
-50 76 0 41 -4 54 -15 54 -11 0 -15 -13 -15 -55z"/>
<path d="M3650 9160 c-29 -29 -28 -99 3 -128 33 -31 70 -28 101 9 33 39 34 82
1 114 -30 31 -77 33 -105 5z m85 -34 c13 -19 14 -28 4 -50 -21 -46 -79 -29
-79 24 0 51 48 68 75 26z"/>
<path d="M1755 9583 c-39 -20 -84 -62 -100 -93 -68 -134 34 -300 185 -300 151
0 253 166 185 300 -17 32 -61 73 -102 94 -41 20 -129 20 -168 -1z"/>
<path d="M1193 8431 c-13 -6 -23 -14 -23 -18 0 -4 -1 -237 -3 -518 l-2 -510
490 -8 c610 -10 8073 -15 8088 -5 14 8 17 898 4 989 l-8 56 -182 6 c-316 12
-8340 19 -8364 8z m8503 -54 c6 -6 10 -938 4 -946 -7 -11 -4219 -20 -6178 -13
-1534 5 -1572 5 -1521 23 355 125 431 603 132 831 -86 64 -158 90 -270 96 -74
3 -105 0 -161 -17 -336 -102 -453 -517 -218 -778 54 -60 129 -110 200 -135
l51 -17 -250 -1 c-137 0 -255 4 -261 8 -8 5 -10 142 -6 479 l5 473 1111 2
c1341 4 7358 -1 7362 -5z m-7692 -110 c117 -54 189 -136 226 -255 34 -108 21
-234 -33 -321 l-20 -33 -28 60 c-29 64 -72 102 -115 102 -12 0 -48 -13 -79
-30 -44 -23 -70 -30 -115 -30 -45 0 -71 7 -115 30 -31 17 -67 30 -79 30 -43 0
-86 -38 -115 -102 l-28 -60 -20 33 c-96 156 -53 397 91 513 90 73 162 97 281
93 73 -2 101 -8 149 -30z"/>
<path d="M4041 8286 c-44 -46 -16 -84 30 -40 34 33 35 40 10 53 -14 8 -23 5
-40 -13z"/>
<path d="M2734 8267 c-2 -7 -3 -65 -2 -128 3 -106 4 -114 23 -114 18 0 21 8
25 78 l5 78 55 -78 c37 -52 62 -78 75 -78 19 0 20 8 20 125 0 118 -1 125 -20
125 -18 0 -21 -8 -25 -75 l-5 -74 -19 29 c-35 55 -99 125 -113 125 -7 0 -16
-6 -19 -13z"/>
<path d="M3614 8267 c-2 -7 -3 -65 -2 -128 3 -106 4 -114 23 -114 17 0 20 8
23 48 3 47 3 47 38 47 92 0 137 78 79 135 -21 22 -33 25 -90 25 -45 0 -67 -4
-71 -13z m126 -52 c19 -22 -5 -45 -46 -45 -31 0 -34 3 -34 30 0 27 3 30 34 30
18 0 39 -7 46 -15z"/>
<path d="M3009 8184 c-18 -19 -24 -37 -24 -70 0 -57 35 -95 89 -97 51 -1 77
28 84 91 4 44 1 54 -21 76 -36 36 -94 36 -128 0z m85 -30 c17 -7 21 -50 7 -72
-12 -19 -52 -11 -61 13 -16 43 13 75 54 59z"/>
<path d="M3194 8184 c-9 -34 2 -144 14 -156 6 -6 18 -8 26 -5 12 5 16 22 16
72 0 62 1 65 24 65 26 0 39 -32 36 -87 -3 -45 -1 -53 14 -53 22 0 29 17 32 74
1 28 3 54 3 59 2 12 39 8 48 -5 4 -7 8 -38 8 -68 0 -48 2 -55 20 -55 18 0 20
8 23 71 3 68 1 73 -24 93 -29 23 -64 27 -94 11 -13 -7 -21 -7 -25 0 -3 5 -31
10 -60 10 -50 0 -55 -2 -61 -26z"/>
<path d="M3825 8187 c-3 -12 -5 -51 -3 -86 2 -48 7 -67 21 -75 25 -15 37 7 37
67 0 45 2 49 35 63 37 15 46 40 19 51 -8 3 -26 1 -40 -5 -15 -7 -24 -8 -24 -2
0 21 -40 10 -45 -13z"/>
<path d="M4002 8194 c-12 -8 -29 -31 -36 -49 -13 -31 -13 -38 4 -73 23 -47 64
-67 115 -58 42 8 62 38 39 57 -11 9 -18 9 -26 1 -17 -17 -63 -15 -78 3 -11 13
-6 15 38 15 69 0 82 7 82 42 0 63 -83 101 -138 62z m84 -41 c17 -17 17 -18 -9
-21 -15 -2 -37 -2 -49 0 -21 3 -21 4 -4 21 10 9 24 17 31 17 7 0 21 -8 31 -17z"/>
<path d="M4173 8193 c-3 -8 -1 -48 3 -91 8 -67 11 -77 29 -77 18 0 20 8 23 68
3 63 4 67 26 67 29 0 36 -16 36 -86 0 -46 3 -54 19 -54 10 0 22 7 25 16 17 44
-4 148 -32 163 -27 14 -123 9 -129 -6z"/>
<path d="M4412 8203 c-37 -15 -54 -111 -27 -151 20 -27 71 -42 106 -30 65 22
75 149 13 177 -25 11 -69 13 -92 4z m78 -62 c16 -30 -4 -71 -34 -71 -24 0 -36
16 -36 49 0 40 51 56 70 22z"/>
<path d="M4584 8196 c-3 -7 -4 -48 -2 -92 3 -71 5 -79 23 -79 17 0 21 8 25 65
5 61 6 65 30 65 24 0 25 -4 30 -65 4 -57 8 -65 25 -65 17 0 21 8 25 65 5 61 6
65 30 65 24 0 25 -4 30 -65 4 -57 8 -65 25 -65 18 0 20 7 20 73 0 66 -3 76
-25 94 -18 15 -33 18 -60 14 -19 -3 -39 -6 -45 -6 -5 1 -36 3 -68 5 -41 3 -59
1 -63 -9z"/>
<path d="M2730 7705 c0 -96 3 -115 15 -115 11 0 15 12 15 45 0 45 0 45 35 45
44 0 92 23 100 49 8 26 -13 67 -42 80 -13 6 -46 11 -73 11 l-50 0 0 -115z
m105 75 c39 -15 31 -51 -14 -63 -18 -4 -40 -6 -47 -3 -14 5 -20 57 -7 69 9 10
38 9 68 -3z"/>
<path d="M3560 7790 c0 -26 -3 -30 -29 -30 -43 0 -60 -9 -77 -42 -20 -39 -11
-93 19 -113 13 -8 44 -14 70 -13 l47 1 0 113 c0 95 -3 114 -15 114 -10 0 -15
-10 -15 -30z m-19 -70 c30 -17 26 -77 -6 -92 -19 -8 -28 -8 -40 2 -21 17 -20
76 3 89 21 13 20 13 43 1z"/>
<path d="M2932 7748 c-31 -31 3 -88 54 -88 28 0 36 -10 23 -27 -17 -20 -56
-16 -62 7 -6 22 -37 28 -37 7 0 -7 7 -23 16 -35 18 -26 69 -30 102 -6 42 29
19 75 -45 89 -18 3 -33 11 -33 16 0 19 30 20 59 3 32 -19 45 -16 36 8 -13 32
-89 50 -113 26z"/>
<path d="M3099 7731 c-40 -40 -36 -93 10 -128 35 -27 136 -5 117 25 -5 8 -15
8 -37 0 -22 -7 -37 -7 -55 1 -42 19 -27 31 41 31 70 0 76 6 54 53 -24 52 -87
60 -130 18z m99 -29 c2 -8 -12 -12 -45 -12 l-48 1 23 19 c24 20 62 15 70 -8z"/>
<path d="M3270 7705 c0 -60 15 -102 39 -109 9 -2 34 -3 56 -2 l40 2 0 79 c0
64 -3 80 -15 80 -11 0 -16 -14 -18 -57 -2 -44 -7 -60 -22 -68 -31 -16 -50 12
-50 76 0 41 -4 54 -15 54 -11 0 -15 -13 -15 -55z"/>
<path d="M3650 7740 c-29 -29 -28 -99 3 -128 33 -31 70 -28 101 9 33 39 34 82
1 114 -30 31 -77 33 -105 5z m85 -34 c13 -19 14 -28 4 -50 -21 -46 -79 -29
-79 24 0 51 48 68 75 26z"/>
<path d="M1755 8183 c-39 -20 -84 -62 -100 -93 -68 -134 34 -300 185 -300 151
0 253 166 185 300 -17 32 -61 73 -102 94 -41 20 -129 20 -168 -1z"/>
<path d="M2984 1997 c-65 -59 -52 -157 27 -199 43 -23 76 -23 116 2 76 46 89
136 29 196 -30 30 -40 34 -85 34 -44 0 -56 -5 -87 -33z"/>
<path d="M3552 2002 c-103 -96 2 -262 131 -208 67 27 96 111 62 176 -20 38
-63 60 -118 60 -35 0 -51 -6 -75 -28z"/>
<path d="M5087 2003 c-4 -3 -7 -190 -7 -415 0 -352 2 -408 15 -408 23 0 730
397 733 411 1 9 -132 89 -362 217 -201 111 -367 202 -369 202 -2 0 -7 -3 -10
-7z"/>
<path d="M9385 1946 c-6 -44 -11 -56 -32 -65 -21 -10 -30 -7 -63 19 -21 16
-44 30 -53 30 -13 0 -107 -92 -107 -105 0 -3 14 -23 31 -44 38 -48 33 -87 -12
-95 -16 -3 -43 -9 -59 -12 l-31 -6 3 -76 3 -77 50 -7 c79 -11 95 -49 45 -107
-34 -40 -32 -46 33 -110 l45 -43 45 31 c33 24 50 31 69 26 21 -6 26 -14 34
-63 l9 -57 70 -3 c79 -3 95 7 95 64 0 35 22 64 47 64 8 0 33 -14 54 -31 l39
-31 35 26 c32 25 75 76 75 91 0 3 -14 23 -30 44 -25 31 -29 42 -22 62 7 19 20
26 63 34 l54 10 3 77 3 76 -53 9 c-41 6 -55 14 -67 34 -14 25 -13 29 17 67 18
22 32 44 32 49 0 12 -93 103 -106 103 -5 0 -29 -14 -52 -31 -40 -29 -44 -30
-66 -16 -17 12 -25 29 -30 66 l-7 51 -79 0 -79 0 -6 -54z m152 -236 c64 -39
88 -111 57 -175 -23 -50 -66 -75 -128 -75 -43 0 -53 4 -87 39 -35 35 -39 44
-39 91 0 110 107 175 197 120z"/>
<path d="M6920 1600 l0 -360 480 0 480 0 0 30 0 30 -450 0 -450 0 0 330 0 330
-30 0 -30 0 0 -360z"/>
<path d="M1375 1774 c-110 -91 -204 -169 -209 -174 -8 -8 31 -70 45 -70 4 0
91 70 193 155 102 85 188 155 192 155 3 0 83 -64 178 -142 94 -79 179 -149
189 -157 17 -13 21 -12 42 15 14 16 24 32 25 36 0 3 -27 28 -60 55 l-60 48 0
111 c0 131 -4 137 -82 132 l-53 -3 -3 -57 c-2 -32 -5 -58 -8 -58 -3 0 -36 27
-75 60 -41 35 -79 60 -92 60 -15 0 -94 -59 -222 -166z"/>
<path d="M3275 1892 c-98 -47 -139 -152 -96 -247 54 -119 197 -150 294 -64 53
46 71 91 65 161 -12 122 -152 202 -263 150z"/>
<path d="M7640 1630 l0 -270 60 0 60 0 0 270 0 270 -60 0 -60 0 0 -270z"/>
<path d="M7280 1600 l0 -240 60 0 60 0 0 240 0 240 -60 0 -60 0 0 -240z"/>
<path d="M1442 1673 l-153 -126 3 -146 3 -146 118 -3 117 -3 0 106 0 105 65 0
65 0 0 -105 0 -105 115 0 c103 0 115 2 125 19 5 11 10 76 10 145 l0 126 -143
117 c-78 65 -149 123 -157 130 -13 9 -42 -11 -168 -114z"/>
<path d="M2905 1756 c-19 -28 -31 -130 -21 -170 15 -60 117 -74 193 -26 26 17
57 30 70 30 27 0 27 -1 7 40 -9 18 -19 52 -22 76 l-5 44 -36 -6 c-22 -4 -53 1
-81 11 -79 29 -87 29 -105 1z"/>
<path d="M3705 1759 c-29 -14 -53 -18 -87 -15 l-48 5 0 -37 c0 -20 -9 -56 -19
-78 l-19 -42 35 -5 c19 -3 51 -18 70 -33 30 -23 42 -26 89 -22 79 7 94 25 94
110 0 38 -7 84 -14 103 -17 41 -39 44 -101 14z"/>
<path d="M7460 1540 l0 -180 60 0 60 0 0 180 0 180 -60 0 -60 0 0 -180z"/>
<path d="M7100 1480 l0 -120 60 0 60 0 0 120 0 120 -60 0 -60 0 0 -120z"/>
<path d="M3080 1522 c-64 -63 -95 -235 -56 -310 29 -57 69 -64 348 -60 232 3
248 4 275 24 45 33 59 89 46 178 -18 128 -73 206 -144 206 -14 0 -53 -14 -87
-31 -44 -23 -73 -31 -112 -31 -39 0 -68 8 -112 31 -82 42 -111 41 -158 -7z"/>
<path d="M6330 20992 c-43 -21 -76 -82 -85 -157 -14 -108 45 -165 172 -165 84
0 129 21 160 76 27 47 28 76 4 129 -20 45 -63 85 -122 115 -47 25 -84 25 -129
2z m127 -80 c12 -9 29 -34 38 -54 15 -37 15 -38 -16 -72 -51 -58 -132 -61
-144 -6 -10 45 3 87 37 120 34 34 54 37 85 12z"/>
<path d="M4932 20903 c-18 -9 -40 -29 -48 -44 -19 -37 -18 -113 1 -133 38 -38
81 -40 479 -28 209 7 425 12 479 12 111 0 148 13 172 60 19 37 19 44 -1 86
-31 65 -21 64 -561 64 -430 0 -492 -2 -521 -17z m983 -84 c5 -6 4 -14 -3 -21
-14 -14 -321 -25 -729 -27 -202 -1 -213 0 -213 18 0 10 6 24 13 30 10 7 145
12 438 13 433 3 477 2 494 -13z"/>
</g>
</svg>
