<?xml version="1.0" encoding="UTF-8"?>
<svg id="Calque_1" data-name="Calque 1" xmlns="http://www.w3.org/2000/svg" viewBox="0 0 96 96">
  <defs>
    <style>
      .cls-1 {
        fill: #fff;
      }
    </style>
  </defs>
  <path d="M88.88,96H7.12c-2.48-1.78-3.79-4.06-3.78-7.26,.06-22.18,.03-44.36,.04-66.54,0-5.09,2.8-7.89,7.86-7.93,1.91-.02,3.82,0,5.33,0,.62-3.34,.7-6.56,1.85-9.33,1.32-3.17,4.4-4.38,7.88-4.33,2.88,.04,5.7-.08,8.18,1.91,3.87,3.1,3.08,7.46,3.24,11.64h20.51c0-.76,.04-1.44,0-2.1-.58-7.59,3.01-12.19,11.96-11.43,.06,0,.12,0,.19,.01,4.99,.26,8.33,3.72,8.4,8.71,.02,1.6,0,3.2,0,4.91,1.94,0,3.62,0,5.3,0,5.85,0,8.48,2.63,8.48,8.44,0,21.62-.05,43.23,.05,64.85,.02,3.51-.82,6.36-3.74,8.43Zm-59.65-25.23h16.88v-16.86H29.23v16.86Zm20.61-16.92v16.87h16.85v-16.87h-16.85Zm-39.49-.11v17.02h15.33c0-5.41,.02-10.7-.04-16,0-.34-.63-.97-.97-.98-4.72-.06-9.45-.04-14.31-.04Zm75.21,0c-4.85,0-9.58-.03-14.3,.07-.35,0-.96,.98-.98,1.51-.08,3.87-.05,7.74-.05,11.61,0,1.28,0,2.57,0,3.79h15.32v-16.97Zm-39.4-18.72H29.24v15.14h16.92v-15.14Zm3.68-.05v15.16h16.84v-15.16h-16.84Zm-20.61,54.65h16.88v-15.19H29.23v15.19Zm37.43,.06v-15.25h-16.79v15.25h16.79ZM10.39,34.96v15.22h15.18v-15.22H10.39Zm75.2,15.23v-15.22h-15.22v15.22h15.22Zm-60.01,24.23H10.41v15.19h15.17v-15.19Zm60,15.22v-15.24h-15.2v15.24h15.2ZM30.78,16.94c0-1.81,0-3.61,0-5.42q0-4.12-4.18-4.05c-.06,0-.12,0-.19,0-1.75-.11-2.47,.73-2.45,2.46,.05,3.92,.01,7.85,.01,11.77,0,4.77,.06,4.8,4.78,4.58,1.4-.06,2.04-.67,2.03-2.06-.02-2.43,0-4.86,0-7.29Zm34.36-.25c0,1.81,0,3.62,0,5.44q0,4.21,4.28,4.15c2.08-.03,2.54-.46,2.55-2.52,.02-4,0-8,0-12,0-4.31-.09-4.35-4.4-4.31-1.77,.02-2.49,.75-2.45,2.49,.05,2.25,.01,4.5,.01,6.75Z"/>
  <path class="cls-1" d="M88.88,96c2.92-2.07,3.75-4.92,3.74-8.43-.1-21.62-.05-43.23-.05-64.85,0-5.82-2.64-8.44-8.48-8.44-1.68,0-3.36,0-5.3,0,0-1.72,.02-3.32,0-4.91-.07-4.99-3.41-8.45-8.4-8.71-.06,0-.12,0-.19-.01-8.95-.76-12.53,3.84-11.96,11.43,.05,.67,0,1.34,0,2.1h-20.51c-.16-4.18,.63-8.54-3.24-11.64-2.48-1.99-5.3-1.87-8.18-1.91-3.49-.05-6.56,1.16-7.88,4.33-1.15,2.77-1.24,5.98-1.85,9.33-1.51,0-3.42-.01-5.33,0-5.07,.04-7.86,2.84-7.86,7.93-.01,22.18,.02,44.36-.04,66.54,0,3.19,1.3,5.47,3.78,7.26H0V0H96V96h-7.12Z"/>
  <path class="cls-1" d="M29.23,70.77v-16.86h16.88v16.86H29.23Z"/>
  <path class="cls-1" d="M49.84,53.85h16.85v16.87h-16.85v-16.87Z"/>
  <path class="cls-1" d="M10.35,53.75c4.86,0,9.59-.02,14.31,.04,.34,0,.96,.63,.97,.98,.06,5.29,.04,10.59,.04,16H10.35v-17.02Z"/>
  <path class="cls-1" d="M85.56,53.74v16.97h-15.32c0-1.22,0-2.51,0-3.79,0-3.87-.04-7.74,.05-11.61,.01-.53,.62-1.5,.98-1.51,4.73-.1,9.45-.07,14.3-.07Z"/>
  <path class="cls-1" d="M46.16,35.02v15.14H29.24v-15.14h16.92Z"/>
  <path class="cls-1" d="M49.84,34.97h16.84v15.16h-16.84v-15.16Z"/>
  <path class="cls-1" d="M29.23,89.62v-15.19h16.88v15.19H29.23Z"/>
  <path class="cls-1" d="M66.66,89.68h-16.79v-15.25h16.79v15.25Z"/>
  <path class="cls-1" d="M10.39,34.96h15.18v15.22H10.39v-15.22Z"/>
  <path class="cls-1" d="M85.59,50.2h-15.22v-15.22h15.22v15.22Z"/>
  <path class="cls-1" d="M25.58,74.42v15.19H10.41v-15.19h15.17Z"/>
  <path class="cls-1" d="M85.58,89.64h-15.2v-15.24h15.2v15.24Z"/>
  <path class="cls-1" d="M30.78,16.94c0,2.43-.02,4.86,0,7.29,.01,1.4-.63,2-2.03,2.06-4.72,.21-4.78,.18-4.78-4.58,0-3.92,.03-7.85-.01-11.77-.02-1.73,.71-2.57,2.45-2.46,.06,0,.12,0,.19,0q4.18-.07,4.18,4.05c0,1.81,0,3.61,0,5.42Z"/>
  <path class="cls-1" d="M65.14,16.69c0-2.25,.04-4.5-.01-6.75-.04-1.73,.68-2.47,2.45-2.49,4.31-.04,4.4,0,4.4,4.31,0,4,.01,8,0,12,0,2.07-.47,2.49-2.55,2.52q-4.28,.06-4.28-4.15c0-1.81,0-3.62,0-5.44Z"/>
</svg>