<?xml version="1.0" encoding="UTF-8"?>
<svg id="Calque_1" data-name="Calque 1" xmlns="http://www.w3.org/2000/svg" viewBox="0 0 96 96">
  <defs>
    <style>
      .cls-1 {
        fill: #fff;
      }
    </style>
  </defs>
  <path class="cls-1" d="M0,0c32,0,64,0,96,0,0,32,0,64,0,96-32,0-64,0-96,0C0,64,0,32,0,0ZM10.12,48.55c0,12.62,0,25.25,0,37.87,0,.62-.03,1.26,.07,1.87,.27,1.7,1.25,2.24,2.81,1.57,.51-.22,.99-.53,1.48-.8,14.02-7.79,28.04-15.59,42.06-23.39,9-5,18.01-9.99,26.99-15.05,.78-.44,1.83-1.36,1.81-2.04-.02-.71-1.16-1.4-1.83-2.07-.17-.17-.43-.25-.65-.37-16.42-9.13-32.84-18.26-49.27-27.38-6.6-3.67-13.2-7.34-19.81-11-2.45-1.35-3.59-.67-3.66,2.16-.01,.44,0,.87,0,1.31,0,12.44,0,24.87,0,37.31Z"/>
  <path d="M10.12,48.55c0-12.44,0-24.87,0-37.31,0-.44,0-.88,0-1.31,.07-2.82,1.21-3.51,3.66-2.16,6.61,3.65,13.21,7.33,19.81,11,16.42,9.13,32.84,18.26,49.27,27.38,.22,.12,.48,.2,.65,.37,.67,.67,1.81,1.36,1.83,2.07,.02,.67-1.02,1.6-1.81,2.04-8.97,5.06-17.99,10.04-26.99,15.05-14.02,7.8-28.04,15.59-42.06,23.39-.49,.27-.97,.58-1.48,.8-1.55,.67-2.53,.13-2.81-1.57-.1-.61-.07-1.25-.07-1.87,0-12.62,0-25.25,0-37.87Z"/>
</svg>