<?xml version="1.0" encoding="UTF-8"?>
<svg id="Calque_1" data-name="Calque 1" xmlns="http://www.w3.org/2000/svg" viewBox="0 0 96 96">
  <defs>
    <style>
      .cls-1 {
        fill: #fff;
      }
    </style>
  </defs>
  <path class="cls-1" d="M96,96H0V0H96V96Zm-48-6.26c1.81,0,3.63-.03,5.44,.01,1.42,.04,2.23-.59,2.46-1.99,.31-1.85,.92-3.69,.9-5.53-.04-3.02,1.27-4.61,4.11-5.4,1.02-.29,1.69-.35,2.52,.34,1.82,1.52,3.76,2.9,5.58,4.42,1.33,1.11,2.62,1.18,3.83,0,2.8-2.75,5.56-5.56,8.3-8.38,.93-.95,.84-2.01,.01-3.03-1.06-1.31-2-2.74-3.18-3.93-1.99-1.99-2.55-3.95-1.01-6.56,.69-1.17,1.33-1.74,2.62-1.9,2.48-.31,4.94-.77,7.41-1.09,1.35-.18,2.06-.89,2.07-2.2,.03-3.87,.03-7.75,0-11.62-.01-1.24-.71-1.91-1.97-2.07-1.55-.19-3.08-.64-4.63-.67-3.31-.07-5.58-1.23-6.38-4.74-.23-1.03-.3-1.7,.37-2.52,1.46-1.79,2.82-3.67,4.27-5.46,1.09-1.34,1.09-2.61-.11-3.84-2.61-2.68-5.24-5.35-7.89-8.01-1.05-1.05-2.14-1.08-3.32-.11-1.36,1.1-2.93,1.97-4.16,3.19-1.98,1.97-3.93,2.33-6.42,.93-1.03-.58-1.66-1.03-1.8-2.25-.29-2.54-.78-5.06-1.1-7.6-.19-1.5-.92-2.24-2.44-2.24-3.69,.01-7.37,.03-11.06-.01-1.43-.01-2.23,.63-2.47,2-.31,1.78-.82,3.56-.86,5.35-.07,2.92-1.02,4.88-4.11,5.59-.99,.23-1.65,.41-2.49-.3-1.87-1.56-3.87-2.97-5.74-4.52-1.29-1.07-2.51-1.1-3.66,.03-2.8,2.75-5.58,5.54-8.31,8.36-.98,1.01-.85,2.11,.07,3.18,.94,1.09,1.72,2.32,2.73,3.33,2.17,2.18,3.1,4.4,1.2,7.31-.61,.93-1.06,1.48-2.19,1.6-2.54,.28-5.06,.75-7.6,1.1-1.5,.2-2.21,1.03-2.21,2.51,0,3.69,0,7.37,0,11.06,0,1.41,.7,2.21,2.1,2.4,1.48,.2,2.97,.59,4.45,.58,3.54-.02,5.86,1.41,6.5,5.02,.11,.64,.12,1.49-.21,1.97-1.4,1.99-2.93,3.89-4.46,5.79-1.08,1.33-1.13,2.6,.09,3.83,2.68,2.71,5.37,5.4,8.07,8.08,1.03,1.02,2.07,.92,3.17,.05,1.32-1.05,2.85-1.88,4-3.08,2.14-2.23,4.37-2.56,6.87-.84,.57,.39,1.19,1.05,1.32,1.68,.54,2.69,.93,5.41,1.32,8.13,.21,1.44,1,2.06,2.41,2.04,1.87-.02,3.75,0,5.62,0Z"/>
  <path d="M48,89.74c-1.87,0-3.75-.01-5.62,0-1.41,.01-2.2-.6-2.41-2.04-.39-2.72-.78-5.44-1.32-8.13-.13-.63-.75-1.29-1.32-1.68-2.5-1.72-4.73-1.39-6.87,.84-1.15,1.2-2.68,2.03-4,3.08-1.1,.87-2.14,.97-3.17-.05-2.7-2.69-5.39-5.38-8.07-8.08-1.22-1.23-1.17-2.5-.09-3.83,1.53-1.9,3.05-3.8,4.46-5.79,.34-.48,.32-1.33,.21-1.97-.64-3.61-2.96-5.04-6.5-5.02-1.48,0-2.97-.38-4.45-.58-1.4-.19-2.1-.99-2.1-2.4,0-3.69,0-7.37,0-11.06,0-1.48,.71-2.31,2.21-2.51,2.54-.34,5.06-.82,7.6-1.1,1.14-.13,1.59-.67,2.19-1.6,1.9-2.92,.97-5.13-1.2-7.31-1.01-1.01-1.79-2.24-2.73-3.33-.92-1.07-1.05-2.17-.07-3.18,2.73-2.82,5.51-5.61,8.31-8.36,1.15-1.13,2.37-1.1,3.66-.03,1.88,1.55,3.87,2.96,5.74,4.52,.85,.71,1.51,.52,2.49,.3,3.09-.71,4.04-2.67,4.11-5.59,.04-1.79,.55-3.57,.86-5.35,.24-1.38,1.04-2.02,2.47-2,3.69,.04,7.37,.02,11.06,.01,1.52,0,2.25,.74,2.44,2.24,.32,2.54,.81,5.06,1.1,7.6,.14,1.23,.78,1.67,1.8,2.25,2.49,1.4,4.44,1.04,6.42-.93,1.23-1.22,2.8-2.09,4.16-3.19,1.18-.96,2.28-.94,3.32,.11,2.64,2.65,5.27,5.32,7.89,8.01,1.19,1.22,1.19,2.49,.11,3.84-1.45,1.8-2.81,3.67-4.27,5.46-.67,.82-.6,1.5-.37,2.52,.8,3.52,3.07,4.67,6.38,4.74,1.55,.03,3.08,.48,4.63,.67,1.27,.15,1.96,.83,1.97,2.07,.03,3.87,.04,7.75,0,11.62-.01,1.31-.72,2.02-2.07,2.2-2.48,.32-4.93,.78-7.41,1.09-1.28,.16-1.93,.73-2.62,1.9-1.54,2.61-.97,4.57,1.01,6.56,1.18,1.19,2.12,2.62,3.18,3.93,.83,1.02,.92,2.08-.01,3.03-2.74,2.82-5.49,5.62-8.3,8.38-1.21,1.19-2.5,1.12-3.83,0-1.82-1.52-3.76-2.9-5.58-4.42-.83-.69-1.49-.62-2.52-.34-2.83,.79-4.15,2.38-4.11,5.4,.03,1.84-.59,3.69-.9,5.53-.23,1.4-1.04,2.03-2.46,1.99-1.81-.04-3.62-.01-5.44-.01Zm13.59-41.07c.04-7.56-6.04-13.71-13.61-13.77-7.47-.06-13.72,6.12-13.79,13.64-.07,7.49,6.12,13.71,13.66,13.73,7.62,.02,13.7-6,13.74-13.6Z"/>
  <path class="cls-1" d="M61.59,48.67c-.04,7.6-6.11,13.62-13.74,13.6-7.54-.02-13.73-6.24-13.66-13.73,.07-7.52,6.32-13.71,13.79-13.64,7.57,.06,13.65,6.21,13.61,13.77Z"/>
</svg>