<?xml version="1.0" encoding="UTF-8"?>
<svg id="Calque_1" data-name="Calque 1" xmlns="http://www.w3.org/2000/svg" viewBox="0 0 96 96">
  <defs>
    <style>
      .cls-1 {
        fill: #fff;
      }
    </style>
  </defs>
  <path class="cls-1" d="M0,13.12V0C32,0,64,0,96,0V96c-32,0-64,0-96,0,0-3.87,0-7.75,0-11.62H95.04v-6.06H5.94V13.12H0Zm83.18,59.21V19.05h-11.69v53.28h11.69ZM35.78,24.98v47.31h11.73V24.98h-11.73Zm17.92,11.85v35.5h11.63V36.83h-11.63Zm-35.68,11.94v23.49h11.59v-23.49h-11.59Z"/>
  <path d="M0,13.12H5.94V78.31H95.04v6.06H0V13.12Z"/>
  <path d="M83.18,72.33h-11.69V19.05h11.69v53.28Z"/>
  <path d="M35.78,24.98h11.73v47.31h-11.73V24.98Z"/>
  <path d="M53.7,36.83h11.63v35.5h-11.63V36.83Z"/>
  <path d="M18.02,48.77h11.59v23.49h-11.59v-23.49Z"/>
</svg>