<?xml version="1.0" encoding="UTF-8"?>
<svg id="Calque_1" data-name="Calque 1" xmlns="http://www.w3.org/2000/svg" viewBox="0 0 96 96">
  <defs>
    <style>
      .cls-1 {
        fill: #fff;
      }
    </style>
  </defs>
  <path class="cls-1" d="M96,96H0V0H96V96Zm-41.21-13.27c.39,.06,.62,.13,.86,.13,6.5,0,13,.04,19.5,0,2.41-.02,3.62-1.4,3.62-4.03,.02-8,.04-16-.04-24,0-.78-.51-1.79-1.12-2.3-6.41-5.39-12.88-10.69-19.34-16.02-3.41-2.81-6.83-5.62-10.29-8.48-10.13,8.35-20.16,16.6-30.16,24.89-.37,.3-.64,.95-.65,1.43-.03,8.31-.05,16.62,0,24.93,.02,2.27,1.41,3.52,3.71,3.57,1.94,.04,3.87,.01,5.81,.01,4.74,0,9.47,0,14.47,0v-20.48h13.63v20.34Zm-6.87-59.36c.58,.44,.98,.73,1.36,1.04,6.19,5.16,12.37,10.32,18.56,15.48,5.47,4.56,10.93,9.13,16.4,13.68,1.73,1.44,2.41,1.36,3.87-.37,.69-.81,1.38-1.62,2.05-2.44,1.37-1.69,1.32-2.35-.33-3.73-3.26-2.72-6.52-5.45-9.82-8.11-.91-.73-1.28-1.5-1.27-2.69,.06-6.5,0-12.99,.05-19.49,.02-1.79-.74-2.5-2.45-2.48-2.62,.03-5.25,0-7.87,0-3.12,0-3.34,.21-3.34,3.27,0,2.84,0,5.68,0,8.95-4.35-3.63-8.32-6.94-12.29-10.25-3.41-2.84-6.33-2.85-9.75-.01-5.48,4.55-10.94,9.12-16.41,13.67-6.81,5.68-13.63,11.35-20.44,17.03-1.84,1.54-1.89,2.12-.34,4,.59,.72,1.21,1.43,1.81,2.15,1.58,1.89,2.21,1.96,4.15,.35,5.62-4.67,11.23-9.36,16.84-14.04,6.38-5.31,12.75-10.63,19.24-16.03Z"/>
  <path d="M54.79,82.73v-20.34h-13.63v20.48c-4.99,0-9.73,0-14.47,0-1.94,0-3.88,.03-5.81-.01-2.31-.05-3.69-1.29-3.71-3.57-.06-8.31-.04-16.62,0-24.93,0-.49,.28-1.13,.65-1.43,10-8.29,20.03-16.54,30.16-24.89,3.47,2.85,6.88,5.66,10.29,8.48,6.46,5.33,12.93,10.63,19.34,16.02,.61,.51,1.11,1.52,1.12,2.3,.08,8,.06,16,.04,24,0,2.62-1.21,4.01-3.62,4.03-6.5,.05-13,.01-19.5,0-.23,0-.47-.07-.86-.13Z"/>
  <path d="M47.92,23.37c-6.48,5.41-12.86,10.72-19.24,16.03-5.61,4.68-11.22,9.36-16.84,14.04-1.93,1.61-2.56,1.54-4.15-.35-.6-.72-1.21-1.43-1.81-2.15-1.55-1.88-1.5-2.47,.34-4,6.81-5.68,13.63-11.35,20.44-17.03,5.47-4.56,10.93-9.13,16.41-13.67,3.42-2.84,6.34-2.83,9.75,.01,3.97,3.31,7.94,6.62,12.29,10.25,0-3.27,0-6.11,0-8.95,0-3.06,.22-3.27,3.34-3.27,2.62,0,5.25,.02,7.87,0,1.72-.02,2.47,.69,2.45,2.48-.06,6.5,0,12.99-.05,19.49-.01,1.19,.36,1.96,1.27,2.69,3.31,2.66,6.56,5.39,9.82,8.11,1.65,1.38,1.7,2.04,.33,3.73-.67,.82-1.36,1.63-2.05,2.44-1.47,1.72-2.15,1.8-3.87,.37-5.47-4.55-10.93-9.12-16.4-13.68-6.19-5.16-12.37-10.33-18.56-15.48-.38-.32-.78-.6-1.36-1.04Z"/>
</svg>