<?xml version="1.0" encoding="UTF-8"?>
<svg id="Calque_1" data-name="Calque 1" xmlns="http://www.w3.org/2000/svg" viewBox="0 0 96 96">
  <defs>
    <style>
      .cls-1 {
        fill: #fff;
      }
    </style>
  </defs>
  <path class="cls-1" d="M0,67.5C0,45,0,22.5,0,0c32,0,64,0,96,0,0,32,0,64,0,96-32,0-64,0-96,0C0,88.88,0,81.75,0,74.63c1.61,6.45,5.81,9.68,12.38,9.7,13.68,.05,27.36,.09,41.03-.06,2.16-.02,4.32-.99,6.45-1.62,.45-.13,1.07-.72,1.08-1.12,.08-3.47,.05-6.95,.05-10.32-.36-.15-.47-.23-.58-.23-3.68-.02-7.37,0-11.05-.05-3.75-.06-6.17-2.5-6.22-6.26-.04-2.56-.02-5.12,0-7.68,.02-4.49,2.31-6.77,6.82-6.79,2.97-.01,5.94,0,9.04,0-1.5-2.27-4.17-3.74-7.31-4.28-1.89-.33-3.45,.03-5.05,1.21-9.36,6.85-18.49,6.79-27.95-.11-1.42-1.04-2.89-1.62-4.52-1.11-2.11,.67-4.38,1.26-6.14,2.51-4.22,3-5.79,7.67-6.85,12.49-.48,2.18-.78,4.4-1.17,6.61ZM32.75,13.02c-10.01,0-17.82,7.82-17.81,17.84,.01,9.92,7.99,17.88,17.87,17.83,9.78-.05,17.74-8.01,17.78-17.8,.04-9.87-7.94-17.86-17.85-17.87Zm32.59,53.47c.04,.87,.09,1.53,.09,2.2,0,4.44,.03,8.87,0,13.31-.01,1.63,.59,2.43,2.32,2.37,2.43-.08,4.87-.06,7.31,0,1.59,.04,2.26-.61,2.24-2.22-.05-3.94-.02-7.87-.02-11.81,0-1.23,0-2.45,0-3.85,.93,0,1.6,0,2.28,0,4.44,0,8.87-.04,13.31,.02,1.69,.02,2.38-.68,2.34-2.35-.06-2.44-.05-4.87,0-7.31,.03-1.6-.69-2.24-2.27-2.22-4.19,.04-8.37,.01-12.56,.01-.98,0-1.96,0-3.09,0,0-.87,0-1.48,0-2.1,0-4.44,0-8.87,0-13.31,0-2.17-.31-2.46-2.52-2.48-2.12-.01-4.25,0-6.37,0-2.65,0-2.94,.28-2.94,2.86,0,4.31,0,8.62,0,12.93,0,.65-.09,1.31-.15,2.09-.88,0-1.56,0-2.24,0-4.37,0-8.75,.04-13.12-.02-1.68-.02-2.38,.66-2.34,2.34,.07,2.43,.06,4.87,0,7.31-.03,1.6,.68,2.26,2.26,2.23,2.69-.05,5.37-.01,8.06-.01,2.42,0,4.84,0,7.44,0Z"/>
  <path d="M0,67.5c.38-2.2,.68-4.43,1.17-6.61,1.06-4.83,2.63-9.5,6.85-12.49,1.76-1.25,4.03-1.85,6.14-2.51,1.63-.51,3.1,.07,4.52,1.11,9.46,6.91,18.59,6.96,27.95,.11,1.61-1.18,3.16-1.53,5.05-1.21,3.14,.55,5.81,2.02,7.31,4.28-3.09,0-6.07-.01-9.04,0-4.52,.02-6.81,2.3-6.82,6.79,0,2.56-.03,5.12,0,7.68,.05,3.76,2.47,6.2,6.22,6.26,3.68,.05,7.37,.03,11.05,.05,.11,0,.22,.09,.58,.23,0,3.37,.04,6.85-.05,10.32,0,.39-.63,.98-1.08,1.12-2.13,.63-4.29,1.6-6.45,1.62-13.68,.15-27.36,.11-41.03,.06C5.81,84.3,1.61,81.08,0,74.63,0,72.25,0,69.88,0,67.5Z"/>
  <path d="M32.75,13.02c9.91,0,17.89,8,17.85,17.87-.04,9.79-8,17.75-17.78,17.8-9.89,.05-17.86-7.91-17.87-17.83-.01-10.02,7.8-17.84,17.81-17.84Z"/>
  <path d="M65.34,66.49c-2.59,0-5.01,0-7.44,0-2.69,0-5.37-.04-8.06,.01-1.58,.03-2.29-.62-2.26-2.23,.05-2.44,.06-4.87,0-7.31-.05-1.68,.66-2.36,2.34-2.34,4.37,.05,8.75,.02,13.12,.02,.68,0,1.36,0,2.24,0,.06-.79,.15-1.44,.15-2.09,.01-4.31,0-8.62,0-12.93,0-2.58,.3-2.86,2.94-2.86,2.12,0,4.25-.01,6.37,0,2.21,.01,2.52,.31,2.52,2.48,.01,4.44,0,8.87,0,13.31,0,.61,0,1.23,0,2.1,1.13,0,2.11,0,3.09,0,4.19,0,8.37,.03,12.56-.01,1.58-.02,2.3,.62,2.27,2.22-.04,2.44-.05,4.87,0,7.31,.04,1.67-.65,2.37-2.34,2.35-4.43-.05-8.87-.02-13.31-.02-.68,0-1.35,0-2.28,0,0,1.4,0,2.62,0,3.85,0,3.94-.04,7.87,.02,11.81,.02,1.61-.65,2.26-2.24,2.22-2.44-.06-4.87-.07-7.31,0-1.73,.05-2.33-.74-2.32-2.37,.04-4.44,.02-8.87,0-13.31,0-.67-.06-1.33-.09-2.2Z"/>
</svg>