<?xml version="1.0" encoding="UTF-8"?>
<svg id="Calque_1" data-name="Calque 1" xmlns="http://www.w3.org/2000/svg" viewBox="0 0 96 96">
  <defs>
    <style>
      .cls-1 {
        fill: #fff;
      }
    </style>
  </defs>
  <path class="cls-1" d="M0,41.63C0,27.75,0,13.88,0,0c32,0,64,0,96,0,0,32,0,64,0,96-32,0-64,0-96,0,0-15.75,0-31.5,0-47.25,.91,1.3,1.58,2.89,2.76,3.85,3.68,2.98,8.19,1.96,12.44,2.17,1.87,.09,2.33-1.68,3.56-2.4,1.5-.88,2.9-2,4.5-2.63,1.89-.74,3.94-1.07,6.09-1.63-3.04-4.67-4.26-9.84-3.68-15.49-.39,0-.64-.06-.86,0-5.91,1.9-11.32,.35-16.57-2.37-2.81-1.46-4.64-.89-6.01,2-.53,1.12-.93,2.32-1.2,3.53C.61,37.71,.34,39.68,0,41.63Zm47.92,51.37h0c7.37,0,14.75,.08,22.12-.03,7.95-.12,12.9-5.08,12.78-13-.07-4.1-.48-8.23-1.22-12.26-.97-5.23-2.98-10.08-7.42-13.46-4.12-3.14-8.09-3.26-12.36-.47-.52,.34-1.03,.71-1.56,1.03-5.47,3.31-11.28,4.48-17.6,3.03-3.75-.86-6.9-2.79-10.06-4.82-1.08-.69-2.51-1.27-3.75-1.23-5.59,.17-9.48,3.16-11.95,8.01-3.65,7.17-4.49,14.86-3.87,22.77,.09,1.16,.45,2.35,.94,3.4,2.38,5.08,6.71,6.98,12.02,7.02,7.31,.06,14.62,.01,21.93,.01ZM28.76,35.63c-.01,10.61,8.39,19.09,18.96,19.12,10.69,.03,19.2-8.42,19.21-19.08,.01-10.56-8.45-19.09-18.99-19.14-10.66-.05-19.17,8.43-19.19,19.1Zm37.38,12.73c5.22,.35,9.45,2.2,12.77,5.95,.24,.27,.76,.42,1.16,.42,2.44,.03,4.88,.12,7.31-.04,5.43-.37,8.3-3.49,8.23-8.86-.03-2.31-.06-4.64-.42-6.91-.36-2.26-.92-4.54-1.79-6.64-1.22-2.97-3.13-3.47-5.97-2.02-3.47,1.77-7.05,3.3-11.03,3.19-2.09-.06-4.16-.48-6.41-.76,.57,5.59-.62,10.78-3.85,15.67ZM31.87,16.47c-.03-7.03-5.77-12.73-12.78-12.69-7.01,.04-12.73,5.81-12.69,12.8,.04,7.03,5.77,12.7,12.8,12.67,7.05-.03,12.7-5.73,12.67-12.78Zm44.69,12.78c7.05-.02,12.71-5.71,12.69-12.76-.02-7.03-5.75-12.73-12.76-12.7-7.01,.03-12.74,5.79-12.71,12.78,.03,7.03,5.75,12.71,12.78,12.69Z"/>
  <path d="M0,41.63c.34-1.95,.61-3.91,1.04-5.84,.27-1.21,.67-2.41,1.2-3.53,1.37-2.88,3.2-3.46,6.01-2,5.25,2.73,10.66,4.27,16.57,2.37,.22-.07,.47,0,.86,0-.57,5.64,.64,10.82,3.68,15.49-2.16,.55-4.2,.88-6.09,1.63-1.6,.63-3,1.74-4.5,2.63-1.23,.73-1.69,2.5-3.56,2.4-4.25-.21-8.76,.81-12.44-2.17-1.18-.96-1.86-2.55-2.76-3.85,0-2.38,0-4.75,0-7.13Z"/>
  <path d="M47.92,93c-7.31,0-14.62,.04-21.93-.01-5.31-.04-9.64-1.95-12.02-7.02-.49-1.05-.85-2.25-.94-3.4-.63-7.91,.22-15.6,3.87-22.77,2.47-4.85,6.36-7.84,11.95-8.01,1.25-.04,2.67,.54,3.75,1.23,3.17,2.03,6.32,3.96,10.06,4.82,6.32,1.45,12.13,.28,17.6-3.03,.53-.32,1.04-.69,1.56-1.03,4.26-2.79,8.24-2.67,12.36,.47,4.44,3.39,6.45,8.23,7.42,13.46,.74,4.03,1.15,8.17,1.22,12.26,.13,7.92-4.83,12.89-12.78,13-7.37,.11-14.75,.02-22.12,.02h0Z"/>
  <path d="M28.76,35.63c.02-10.67,8.53-19.15,19.19-19.1,10.53,.05,19,8.58,18.99,19.14-.01,10.67-8.52,19.11-19.21,19.08-10.57-.03-18.98-8.51-18.96-19.12Z"/>
  <path d="M66.14,48.36c3.23-4.9,4.42-10.09,3.85-15.67,2.25,.28,4.32,.7,6.41,.76,3.98,.11,7.56-1.42,11.03-3.19,2.83-1.44,4.74-.94,5.97,2.02,.87,2.11,1.43,4.39,1.79,6.64,.36,2.27,.39,4.6,.42,6.91,.07,5.37-2.8,8.49-8.23,8.86-2.43,.16-4.87,.07-7.31,.04-.39,0-.91-.15-1.16-.42-3.32-3.75-7.55-5.6-12.77-5.95Z"/>
  <path d="M31.87,16.47c.03,7.05-5.62,12.75-12.67,12.78-7.03,.03-12.76-5.64-12.8-12.67-.04-6.99,5.68-12.76,12.69-12.8,7.01-.04,12.75,5.65,12.78,12.69Z"/>
  <path d="M76.56,29.25c-7.03,.02-12.75-5.66-12.78-12.69-.03-6.99,5.7-12.75,12.71-12.78,7.02-.03,12.74,5.67,12.76,12.7,.02,7.05-5.64,12.74-12.69,12.76Z"/>
</svg>