<?xml version="1.0" encoding="UTF-8"?>
<svg id="Calque_1" data-name="Calque 1" xmlns="http://www.w3.org/2000/svg" viewBox="0 0 96 96">
  <defs>
    <style>
      .cls-1 {
        fill: #fff;
      }
    </style>
  </defs>
  <path class="cls-1" d="M0,0c32,0,64,0,96,0,0,32,0,64,0,96-32,0-64,0-96,0C0,64,0,32,0,0ZM6.75,89.74h2.06c6.12,0,12.25-.04,18.37,.03,1.37,.02,2.31-.42,3.26-1.37,13.93-13.99,27.9-27.94,41.86-41.9,.42-.42,.81-.88,.92-1-7.47-7.47-14.83-14.83-22.25-22.25-14.4,14.4-28.98,28.98-43.53,43.58-.35,.35-.65,.96-.65,1.45-.04,7.05-.03,14.11-.03,21.47ZM55.3,19.32c7.34,7.34,14.69,14.69,22.04,22.03,2.8-2.77,5.83-5.66,8.72-8.68,2.42-2.53,2.71-6.32,.32-8.86-4.44-4.73-9.07-9.31-13.81-13.74-2.4-2.24-6.01-2.08-8.38,.18-3.12,2.96-6.03,6.14-8.88,9.07Z"/>
  <path d="M6.75,89.74c0-7.36-.01-14.42,.03-21.47,0-.49,.3-1.09,.65-1.45,14.55-14.6,29.13-29.17,43.53-43.58,7.42,7.42,14.78,14.78,22.25,22.25-.11,.12-.49,.58-.92,1-13.96,13.96-27.93,27.91-41.86,41.9-.95,.96-1.89,1.39-3.26,1.37-6.12-.07-12.25-.03-18.37-.03h-2.06Zm11.6-23.99c-3.23,2.56-6.22,5.32-4.3,10.39h6.52v6.4c5.01,1.65,7.76-1.16,10.15-4.41-4.12-4.13-8.21-8.22-12.38-12.39ZM54.39,33.2c-.31-.39-.6-1.01-.79-.98-.67,.11-1.48,.26-1.93,.71-9.39,9.32-18.74,18.67-28.04,28.07-.45,.45-.33,1.47-.47,2.22,.71-.18,1.64-.14,2.09-.58,9.4-9.31,18.74-18.67,28.09-28.03,.38-.38,.66-.87,1.06-1.41Z"/>
  <path d="M55.3,19.32c2.84-2.92,5.76-6.11,8.88-9.07,2.37-2.25,5.98-2.41,8.38-.18,4.75,4.43,9.37,9,13.81,13.74,2.39,2.54,2.1,6.33-.32,8.86-2.89,3.02-5.93,5.91-8.72,8.68-7.34-7.34-14.69-14.69-22.04-22.03Z"/>
  <path class="cls-1" d="M18.35,65.74c4.17,4.18,8.26,8.27,12.38,12.39-2.4,3.25-5.15,6.06-10.15,4.41v-6.4h-6.52c-1.92-5.07,1.07-7.84,4.3-10.39Z"/>
  <path class="cls-1" d="M54.39,33.2c-.4,.54-.68,1.03-1.06,1.41-9.34,9.36-18.69,18.72-28.09,28.03-.45,.44-1.38,.4-2.09,.58,.14-.75,.03-1.76,.47-2.22,9.3-9.4,18.66-18.75,28.04-28.07,.45-.45,1.26-.6,1.93-.71,.19-.03,.49,.59,.79,.98Z"/>
</svg>