<?xml version="1.0" encoding="UTF-8"?>
<svg id="Calque_1" data-name="Calque 1" xmlns="http://www.w3.org/2000/svg" viewBox="0 0 96 96">
  <defs>
    <style>
      .cls-1 {
        fill: #fff;
      }
    </style>
  </defs>
  <path class="cls-1" d="M0,96V0H96V96H0ZM45.23,41.73c.73-.79,1.13-1.24,1.55-1.66,4.59-4.6,9.22-9.17,13.78-13.81,3.1-3.15,3.07-6.99,.03-10.17-.95-.99-1.96-1.93-2.93-2.9-3.99-3.96-7.48-3.95-11.5,.07-10.93,10.91-21.85,21.83-32.78,32.75-4.27,4.27-4.28,7.79-.02,12.05,10.92,10.92,21.84,21.85,32.76,32.77,.4,.4,.79,.8,1.22,1.17,2.89,2.47,6.54,2.44,9.34-.12,1.15-1.05,2.23-2.19,3.33-3.3,3.89-3.93,3.88-7.4-.06-11.36-4.41-4.43-8.84-8.84-13.26-13.27-.44-.44-.84-.93-1.5-1.66,1.16,0,1.84,0,2.52,0,11.57,0,23.13,0,34.7,0,3.81,0,6.26-2.18,6.57-5.98,.19-2.3,.15-4.62,.12-6.93-.06-5.33-2.41-7.63-7.72-7.64-11.25,0-22.51,0-33.76,0h-2.38Z"/>
  <path d="M45.23,41.73h2.38c11.25,0,22.51,0,33.76,0,5.31,0,7.66,2.3,7.72,7.64,.03,2.31,.07,4.63-.12,6.93-.31,3.8-2.76,5.97-6.57,5.98-11.57,.01-23.13,0-34.7,0-.68,0-1.37,0-2.52,0,.66,.73,1.06,1.22,1.5,1.66,4.42,4.43,8.85,8.84,13.26,13.27,3.94,3.96,3.95,7.43,.06,11.36-1.1,1.11-2.18,2.25-3.33,3.3-2.8,2.56-6.45,2.59-9.34,.12-.43-.37-.82-.77-1.22-1.17-10.92-10.92-21.84-21.84-32.76-32.77-4.26-4.26-4.25-7.78,.02-12.05,10.92-10.92,21.85-21.83,32.78-32.75,4.02-4.01,7.51-4.03,11.5-.07,.98,.97,1.98,1.91,2.93,2.9,3.04,3.19,3.07,7.02-.03,10.17-4.56,4.64-9.19,9.21-13.78,13.81-.42,.42-.82,.87-1.55,1.66Z"/>
</svg>