<?xml version="1.0" encoding="UTF-8"?>
<svg id="Calque_1" data-name="Calque 1" xmlns="http://www.w3.org/2000/svg" viewBox="0 0 409.06 805">
  <defs>
    <style>
      .cls-1 {
        fill: #f0f0f0;
      }

      .cls-2 {
        fill: #090909;
      }

      .cls-3 {
        fill: #fafafa;
      }

      .cls-4 {
        fill: #0c0c0c;
      }

      .cls-5 {
        fill: #040404;
      }

      .cls-6 {
        fill: #020202;
      }

      .cls-7 {
        fill: #0a0a0a;
      }

      .cls-8 {
        fill: #2f2f2f;
      }

      .cls-9 {
        fill: #dedede;
      }

      .cls-10 {
        fill: #313131;
      }

      .cls-11 {
        fill: #e7e7e7;
      }

      .cls-12 {
        fill: #030303;
      }

      .cls-13 {
        fill: #080808;
      }

      .cls-14 {
        fill: #fdfdfd;
      }

      .cls-15 {
        fill: #fbfbfb;
      }

      .cls-16 {
        fill: #f9f9f9;
      }

      .cls-17 {
        fill: #171717;
      }

      .cls-18 {
        fill: #5c5c5e;
      }

      .cls-19 {
        fill: #0e0e0e;
      }

      .cls-20 {
        fill: #d3d3d3;
      }

      .cls-21 {
        fill: #bebebe;
      }

      .cls-22 {
        fill: #202020;
      }

      .cls-23 {
        fill: #050505;
      }

      .cls-24 {
        fill: #353535;
      }

      .cls-25 {
        fill: #ccc;
      }

      .cls-26 {
        fill: #292929;
      }

      .cls-27 {
        fill: #0b0b0b;
      }

      .cls-28 {
        fill: #191919;
      }

      .cls-29 {
        fill: #f1f1f1;
      }

      .cls-30 {
        fill: #bfbebe;
      }

      .cls-31 {
        fill: #070707;
      }

      .cls-32 {
        fill: #b5b5b5;
      }

      .cls-33 {
        fill: #010101;
      }

      .cls-34 {
        fill: #c0bfbf;
      }

      .cls-35 {
        fill: #fefefe;
      }

      .cls-36 {
        fill: #060606;
      }

      .cls-37 {
        fill: #fcfcfc;
      }

      .cls-38 {
        fill: #ededed;
      }
    </style>
  </defs>
  <path class="cls-21" d="M75.67,0h42.33c.11,.26,.05,.46-.19,.6-1.18,.56-2.44,.34-3.67,.35-3.04,0-6.07,.07-9.11-.03-.24,0-.48,0-.72,0-8.87,.11-17.75,.03-26.62,.04-.62,0-1.24-.03-1.81-.34-.25-.15-.32-.35-.21-.62Z"/>
  <path class="cls-9" d="M118.01,.32c-.01-.11-.02-.21,0-.32h26.22c0,.11,0,.21,0,.32-.67,.76-1.59,.65-2.44,.65-7.11,.02-14.22,.02-21.34,0-.86,0-1.77,.1-2.44-.65Z"/>
  <path class="cls-9" d="M.31,110.2l-.15,.02-.15-.03v-19.86c.27-.11,.47-.04,.62,.21,.4,.75,.35,1.56,.35,2.36,.01,4.9,.02,9.79,0,14.69,0,.91,.16,1.89-.66,2.61Z"/>
  <path class="cls-9" d="M75.67,0c0,.1,0,.21-.01,.31-2.37,1.04-4.75,1.05-7.12,0,0-.1,0-.2,.01-.31h7.12Z"/>
  <path class="cls-32" d="M.31,90.34H.15s-.15-.01-.15-.01v-3c.11,0,.23,0,.34-.02,.78,1.02,.81,2.03-.03,3.03Z"/>
  <path class="cls-33" d="M118.01,.32c8.74,0,17.48,0,26.22,0,10.61,.03,21.22,.06,31.83,.07,30.34,.03,60.68,.05,91.01,.06,30.65,0,61.3-.09,91.95,.06,10.52,.05,20.51,2.53,29.34,8.6,9.48,6.52,14.85,15.73,17.31,26.8,1.05,4.71,1.47,9.5,1.48,14.31,.02,31.98,.01,63.96,0,95.93,0,1.17-.16,2.31,1.22,3,.71,.35,.69,1.25,.69,2.02,0,14.05,0,28.11,0,42.16,0,.7,.07,1.57-.56,1.89-1.53,.75-1.3,2.02-1.3,3.31,.04,22.36,.06,44.71,.1,67.07,.04,26.73,.1,53.46,.15,80.19,.06,31.54,.04,63.08,.19,94.62,.26,52.9,.16,105.8,.17,158.7,0,28.79,.03,57.58-.09,86.38-.09,23.1-.29,46.21-.61,69.31-.1,7.54-.47,15.14-2.55,22.45-3.37,11.85-10.6,20.34-22.51,24.3-5.02,1.67-10.35,1.69-15.56,1.96-19.7,1.03-39.42,1.02-59.14,1.19-.19,0-.37-.03-.56-.05-.73-1.01-.67-2.03-.08-3.07,.59-.44,1.28-.45,1.97-.47,.81-.02,1.62-.03,2.43,0,9.11,.26,18.22-.21,27.31-.49,8.17-.25,16.34-.04,24.51-.28,4.24-.12,8.45-.54,12.66-1.11,7.4-1,12.83-5.2,17.55-10.57,5.73-6.5,8.11-14.34,8.95-22.79,.43-4.36,.37-8.73,.37-13.09,0-26.48-.29-52.95,.09-79.42,.31-21.66,.12-43.32,.29-64.98,0-.81,0-1.62,.17-2.43,.39-1.22,.25-2.48,.25-3.72,0-116.63,0-233.26,0-349.9,0-1-.05-2,.05-2.99,.08-.75,.28-1.42,1-1.35-.84,.03-.99-.8-1.03-1.68-.06-1.25-.03-2.5-.03-3.75,0-9.55,0-19.11,0-28.66,0-.94,.04-1.87-.26-2.78-.37-4.11-.07-8.24-.18-12.35-.81-31.71,.08-63.44-.47-95.15-.33-19.23-.22-38.46-.22-57.69,0-10.12-3.56-18.66-10.04-26.12-7.41-8.53-16.73-13.74-27.99-15.19-3.33-.43-6.7-.63-10.08-.63-81.77,0-163.53,0-245.3,0-1.29,0-2.63,.25-3.86-.43-.71-1.03-.73-2.07,0-3.1,4.37-.04,8.74-.07,13.1-.11Z"/>
  <path class="cls-33" d="M.31,90.34c0-1.01,.02-2.02,.03-3.03,2.52-2.87,1.46-6.35,1.5-9.59,.12-10.17-.22-20.35,.15-30.51,.37-10.17,2.88-19.84,8.99-28.25,4.32-5.95,10.41-9.68,16.62-13.36C34.94,1.24,42.88,.34,51.14,.4c5.8,.05,11.6-.06,17.4-.1,2.37,0,4.74,0,7.12,0,8.56,.02,17.12,.04,25.68,.06,1.05,0,2.11,.03,3.16,.05,.33,1.02,.31,2.04,0,3.07-.71,.52-1.54,.46-2.34,.46-15.35,0-30.71,.2-46.06-.1-5.55-.11-10.96,.17-16.3,1.52-16.3,4.11-26.39,14.66-31.27,30.49-1.33,4.31-1.83,8.77-1.99,13.29-.77,21.97-.52,43.95-.22,65.92,.28,20.29,.45,40.58,.14,60.86-.35,23.04-.04,46.07-.27,69.11,0,.87,.09,1.76-.37,2.56-.62,.63-1.47,.09-2.31,.44-.09,.02,.25,.35,.13,.12-.05-.1-.02-.16,.08-.16,.74-.04,1.53-.38,2.16,.34,.53,1.26,.33,2.59,.33,3.89,0,83.57-.27,167.13,.12,250.7,.2,43.84,.44,87.68,.14,131.51-.26,38.16-.03,76.31-.26,114.46,0,.87,.06,1.75-.29,2.59-.62,.86-1.46,.45-2.3,.41,.72,.32,1.56-.18,2.18,.41,.59,1.99,.64,4.06,.73,6.1,.47,10.61,3.57,20.24,10.57,28.39,5.38,6.26,12.26,10.14,20.14,12.31,4.71,1.3,9.51,1.98,14.42,1.98,83.62-.02,167.24-.01,250.86,0,1.29,0,2.63-.28,3.85,.44,.35,1.03,.32,2.07,.03,3.11-.56,.03-1.12,.07-1.68,.08-17.98,.02-35.96,.03-53.94,.05-17.92,.02-35.83,.05-53.75,.07-38.95,.05-77.91,.23-116.86,.09-11.72-.04-23.47-.14-35.17-1.02-9.4-.71-18.2-3.49-25.9-9.19-8.19-6.06-12.92-14.34-15.35-24.08-1.37-5.48-1.88-11.08-1.88-16.7-.02-35.79-.09-71.58,.08-107.37,.18-37.47,.56-74.95,.19-112.42-.44-44.03-.86-88.05-.67-132.08,.22-53.15,.48-106.3,.4-159.45,0-1.14-.01-2.19-.84-3.13-.59-.66-.68-1.56-.68-2.47,.02-14.49,.01-28.98,.01-43.47,0-.87-.14-1.8,1.05-2.1,.73-.18,.43-.81,.43-1.24,.03-2.56,.02-5.12,0-7.68,0-.42,.2-.99-.22-1.23-1.59-.92-1.24-2.43-1.24-3.83-.01-13.87-.01-27.73-.02-41.6,0-.56-.13-1.23,.34-1.59,1.5-1.15,1.14-2.75,1.15-4.26,.02-4.37-.21-8.76,.09-13.11,.17-2.53-.98-4.51-1.65-6.71,0-6.62,0-13.24,0-19.86Z"/>
  <path class="cls-10" d="M306.41,804.66c0-.97,0-1.95-.01-2.92,.14-.13,.27-.13,.41,0,0,.97,0,1.94-.01,2.91-.13,0-.26,0-.39,.01Z"/>
  <path class="cls-10" d="M104.5,3.33c0-.97,0-1.94,0-2.91,.14,0,.27,0,.41,0,0,.97,0,1.94,0,2.91-.13,.11-.27,.12-.4,0Z"/>
  <path class="cls-34" d="M104.5,3.33c.13,0,.27,0,.4,0,9.3,.03,18.6,.09,27.9,.1,66.74,.02,133.47,.04,200.21,.05,9.3,0,18.6-.29,27.89,.19,17.91,.94,34.26,13.15,40.12,30.09,1.58,4.56,1.76,9.3,1.77,14.05,.02,12.49-.02,24.98,.01,37.48,.06,20.36,.29,40.72,.18,61.08-.08,14.49-.11,28.98,.2,43.46,.15,7.05,.21,14.11,.33,21.16,.19,.68,.1,1.37,.1,2.05,0,130.32,0,260.64,0,390.96,0,.68,.11,1.37-.11,2.05-.04,10.99-.09,21.99-.13,32.98-.09,26.92-.18,53.84-.25,80.76-.04,13.62,.1,27.23-.12,40.85-.14,8.69-1.47,17.24-6.56,24.61-5.3,7.67-11.89,13.58-21.73,14.71-4.72,.54-9.44,.97-14.18,.94-17.92-.11-35.81,.87-53.73,.85h-.41c-.81-.02-1.62-.06-2.43-.06-83.77,0-167.53,0-251.3,0-8.41,0-16.52-1.39-24.06-5.25-11.86-6.06-18.59-16-21.49-28.81-1.16-5.09-1.21-10.27-1.48-15.43-.24-.12-.24-.24,0-.36,.03-.75,.09-1.49,.09-2.24,0-31.16-.03-62.32,.01-93.49,.05-36.22,.31-72.44,.25-108.65-.09-49.58-.61-99.16-.49-148.74,.08-32.53,.12-65.07,.18-97.6,.03-17.05,.04-34.1,.05-51.14,0-.62-.06-1.24-.09-1.87-.24-.12-.24-.24,0-.36,.03-.75,.09-1.49,.09-2.24,0-20.3-.17-40.59,.05-60.89,.23-21.1,.05-42.21,.08-63.31,.04-21.42-.11-42.84-.11-64.25,0-6.55,.12-13.1,1.71-19.53C12.07,18.82,26.15,6.2,45.18,3.67c3.74-.5,7.46-.39,11.2-.36,15.85,.09,31.71,.07,47.56,.08,.19,0,.37-.04,.56-.06Z"/>
  <path class="cls-10" d="M403.5,606.05c0-10.11,0-20.23,0-30.34,0-.75,.02-1.5,.02-2.25,0-110.15,0-220.29,0-330.44,0-9.99-.05-19.98-.08-29.97,0-.68,.05-1.37,.08-2.05,.5,.6,.28,1.32,.28,1.98,.03,10.56,.04,21.11,.06,31.67q0,2.86,2.61,3.28-2.61,.41-2.61,3.28c0,107.19,0,214.38,0,321.57,0,10.43-.03,20.86-.05,31.29,0,.67,.2,1.38-.3,1.98Z"/>
  <path class="cls-8" d="M5.64,247.74c0,.12,0,.24,0,.36-.76-.06-1.55,.17-2.37-.18,.82-.35,1.61-.12,2.37-.18Z"/>
  <path class="cls-8" d="M5.64,751.84c0,.12,0,.24,0,.36-.76-.06-1.55,.17-2.37-.18,.82-.35,1.61-.12,2.37-.18Z"/>
  <path class="cls-33" d="M17.27,247.72c-.02-12.3-.07-24.61-.06-36.91,.01-12.87,.05-25.73,.14-38.6,.19-26.67,.34-53.33,.22-80-.05-11.61-.5-23.23-.27-34.84,.15-7.37,.11-14.9,3.31-21.85,4.76-10.32,12.48-16.97,23.73-19.58,3.66-.85,7.25-.93,10.91-.93,8.49,0,16.98,0,25.47,0,4.38,0,6.65,2.19,6.9,6.6,.1,1.68,.19,3.37,.37,5.04,.65,5.9,4.71,10.01,10.6,10.84,1.99,.28,3.98,.33,5.98,.33,67.79,0,135.59,0,203.38,0,.81,0,1.62-.02,2.43-.08,5.25-.41,7.86-2.52,9.54-7.49,1.25-3.7,1.01-7.52,1.13-11.31,.11-3.48,.19-3.57,3.61-3.6,11.55-.09,23.09-.17,34.64-.29,6.85-.07,13.47,.84,19.28,4.81,7.19,4.92,11.43,11.63,12.16,20.47,.65,7.92,.35,15.85,.38,23.78,.18,37.22,.27,74.44,.4,111.67,.09,23.29,.21,46.59,.31,69.88,0,.69-.04,1.37-.06,2.06-.88,.43-1.82,.07-2.62,.21,.8,.12,1.74-.23,2.62,.2,.04,9.24,.12,18.48,.11,27.73-.02,36.54-.06,73.08-.12,109.61-.05,28.29-.2,56.58-.23,84.87-.02,20.49,.06,40.97,.1,61.46,.03,16.93,.11,33.85,.08,50.78-.07,37.35-.07,74.7-.37,112.05-.17,21.79-.75,43.58-.67,65.38,.05,14.25-8.75,23.81-22.3,28.16-2.97,.95-5.97,1.52-9.15,1.53-10.55,.02-21.09,.25-31.64,.39-.68,0-1.37-.06-2.05-.09-.8-.24-1.61-.11-2.42-.11-90.32,0-180.64,0-270.96-.01-.81,0-1.62,.12-2.42-.11-13.61-.81-23.44-7.46-29.74-19.44-.77-1.46-1.06-3.16-2.05-4.56-.49-.7-.71-1.59-.71-2.49,.01-3.68,.03-7.36,.05-11.04,.88-.43,1.82-.07,2.62-.21-.8-.12-1.74,.23-2.62-.2-.02-.81-.06-1.62-.06-2.43,0-109.5,0-218.99,0-328.49,0-56.84-.02-113.68-.02-170.52,0-.75,.04-1.5,.06-2.24,.89-.42,1.83-.07,2.64-.2-.81-.12-1.75,.22-2.64-.2Z"/>
  <path class="cls-33" d="M204.15,29.55c-5.36,0-10.72,0-16.08,0-.68,0-1.37-.02-2.05-.11-2.67-.38-3.37-1-3.54-3.02-.22-2.74,.75-4.33,3.09-5.06,1.39-.44,2.83-.41,4.26-.41,9.92-.01,19.83,0,29.75,0,1.25,0,2.51,0,3.68,.51,1.6,.68,2.47,2,2.43,3.66-.04,1.68-1.01,2.9-2.7,3.43-.91,.29-1.83,.35-2.77,.33-5.36-.13-10.72,0-16.08,.69Z"/>
  <path class="cls-8" d="M49.73,789.75c1.06-.03,2.11-.09,3.17-.09,83.71,0,167.41,0,251.12-.04,.81,0,2.1,.76,2.43-.86,.04-.18,.25-.32,.31-.05,.35,1.75,1.72,.88,2.58,.9,4.74,.09,9.49,.03,14.23,.05,.66,0,1.38-.24,1.96,.32-6.99,.01-13.98,.03-20.97,.03-83.77,0-167.54,0-251.32,0-1.17,0-2.37,.18-3.51-.26Z"/>
  <path class="cls-33" d="M240.9,30.22c-3.66,.31-5.92-.79-6.75-3.07-.97-2.67,.36-7.2,2.53-8.65,2.34-1.56,5.4-.81,8.35,2.06,2.14,2.07,2.66,4.9,1.28,7.12-1.35,2.16-3.4,2.79-5.41,2.55Z"/>
  <path class="cls-10" d="M391.77,248.13h-2.53c0-.14,0-.28-.01-.41h2.55c0,.14,0,.28,0,.41Z"/>
  <path class="cls-10" d="M17.29,751.81h2.53c0,.14,0,.28,.01,.41h-2.55c0-.14,0-.28,0-.41Z"/>
  <path class="cls-10" d="M17.27,247.72h2.55v.4h-2.55v-.4Z"/>
  <path class="cls-14" d="M387.02,376.46c0,83.89,.01,167.77,0,251.66,0,20.24-.1,40.47-.17,60.71-.02,6.68-.14,13.36-.11,20.04,0,1.48-.17,1.92-1.87,1.81-9.72-.63-19.46-.41-29.19-.47-32.4-.19-64.79-.3-97.19-.48-77.78-.43-155.57-.19-233.35-.26q-3.06,0-3.06-2.99c0-164.9,.02-329.8-.02-494.7,0-25.54-.26-51.08-.53-76.62-.32-29.54-.33-59.08,.62-88.6,.39-11.93,6.21-20.72,17.11-25.79,3.94-1.83,8.3-2.16,12.63-2.15,8.8,.01,17.61,.14,26.41,0,3.73-.06,4.94,.9,5.21,5.33,.24,3.98,.86,7.76,2.85,11.3,1.82,3.26,4.23,5.28,8.12,5.79,5.47,.71,10.94,.84,16.43,.75,4.68-.08,9.36-.17,14.04-.18,27.66-.04,55.31,.14,82.97-.12,33.33-.32,66.67-.16,100-.35,8.72-.05,14.84-4.67,16.71-12.22,.47-1.89,.49-3.83,.49-5.77,0-3.82,.54-4.33,4.31-4.35,9.18-.03,18.35-.05,27.53-.1,3.79-.02,7.56-.07,11.33,.71,8.6,1.77,13.9,7.09,16.79,15.1,1.7,4.7,1.98,9.62,1.98,14.57,0,109.12,0,218.25,0,327.37Z"/>
  <path class="cls-35" d="M22.15,710.4c12.03,.84,24.01,.46,35.97,.55,17.6,.13,35.21,.11,52.81,.14,59.55,.09,119.1,.17,178.65,.26,23.41,.03,46.82,.06,70.23,.12,8.42,.02,16.85,.17,25.27,.19,1.28,0,1.66,.32,1.65,1.65-.1,14.61-.04,29.23-.2,43.84-.14,12.46-5.47,21.79-17.04,27.11-3.75,1.73-7.75,2.34-11.83,2.34-84.21,.01-168.42,0-252.63,0-17.6,0-35.21,.02-52.81,0-14.88-.01-26.15-8.97-29.52-23.42-.44-1.89-.62-3.81-.62-5.75,0-15.36,0-30.73,0-46.09,0-.37,.05-.73,.07-.95Z"/>
  <path class="cls-34" d="M203.32,26.87c-4.86,0-9.72,.04-14.57-.04-.88-.01-2.41,.62-2.49-1-.09-1.85,1.53-1.67,2.73-1.66,5.54,0,11.09,.12,16.63,.1,4.36-.01,8.72,.2,13.08-.19,1.08-.1,2.82-.14,2.87,.97,.05,1.19-1.67,1.16-2.73,1.16-5.17-.02-10.34,.02-15.51,.65Z"/>
  <path class="cls-30" d="M239.48,27.73c-1.76,.02-2.3-.58-2.34-2.58-.04-2.09,1.81-4.6,3.36-4.55,1.34,.04,3.29,2.35,3.28,3.89,0,1.35-2.5,3.23-4.31,3.25Z"/>
  <path class="cls-33" d="M206.05,331.88c-17.6,0-35.2-.02-52.81,0-30.27,.04-60.54,.1-90.81,.15-1.67,0-3.85,.5-4.87-.35-1.08-.89-.35-3.15-.35-4.81-.01-43.72,0-87.43-.01-131.15,0-1.56,.01-3.12-.09-4.67-.1-1.48,.52-2.04,1.95-1.97,1.18,.06,2.37,0,3.55,0,19.97,0,39.95,.01,59.92,0,43.38-.03,86.76-.08,130.14-.12,33.52-.03,67.04-.03,100.56-.1,1.54,0,1.92,.34,1.92,1.91-.05,46.34-.05,92.68,0,139.02,0,1.68-.37,2.14-2.11,2.14-49-.05-97.99-.04-146.99-.04Z"/>
  <path d="M206.24,572.37c41.44,0,82.89-.02,124.33,.01,11.36,0,22.71,.18,34.07,.23,1.19,0,1.71,.28,1.87,1.58,.59,4.72,.7,9.47,.54,14.2-.22,6.62-.38,13.23,.02,19.84,.03,.5,.05,1.01-.02,1.5-.37,2.58-.42,2.56-3.07,2.37-1.62-.12-3.24-.09-4.87-.09-31.4,.03-62.8-.11-94.19,.14-25.78,.2-51.55,.17-77.33,.13-33.08-.05-66.16-.18-99.24-.32-13.79-.06-27.58-.24-41.37-.3-1.41,0-1.99-.38-1.96-1.84,.06-2.62-.14-5.25,0-7.86,.49-8.86,.49-17.72,.03-26.58-.12-2.31,.04-3.34,2.94-3.32,4.3,.04,8.61-.06,12.92-.06,47.44-.03,94.88-.05,142.32-.07,1,0,2,0,3,0v.44Z"/>
  <path class="cls-33" d="M206.24,523.65c41.44,0,82.89-.02,124.33,.01,11.36,0,22.71,.18,34.07,.23,1.2,0,1.71,.3,1.87,1.59,.59,4.72,.7,9.47,.54,14.2-.22,6.62-.38,13.23,.03,19.84,.03,.44,.05,.88,0,1.31-.3,2.66-.45,2.74-3.1,2.55-1.62-.12-3.24-.09-4.87-.09-31.4,.03-62.8-.11-94.19,.14-25.84,.2-51.68,.17-77.52,.13-33.02-.05-66.03-.18-99.05-.32-13.73-.06-27.46-.25-41.19-.29-1.61,0-2.2-.45-2.15-2.05,.08-2.81-.09-5.62,.06-8.42,.45-8.55,.43-17.09,0-25.65-.15-2.93,.16-3.49,3.12-3.5,4.24-.02,8.49-.05,12.73-.05,47.44-.02,94.88-.04,142.32-.06,1,0,2,0,3,0,0,.15,0,.29,0,.44Z"/>
  <path class="cls-33" d="M206.16,473.42c41.44,0,82.89-.02,124.33,.01,11.36,0,22.71,.18,34.07,.22,1.27,0,1.82,.31,1.98,1.69,.58,5.23,.7,10.47,.48,15.7-.24,5.87-.31,11.73,.05,17.59,.03,.56,.06,1.13,.03,1.68-.18,2.79-.46,2.99-3.22,2.8-1.49-.1-2.99-.08-4.49-.08-31.52,.03-63.04-.12-94.56,.14-27.96,.23-55.92,.15-83.88,.13-30.83-.02-61.67-.18-92.5-.31-13.79-.06-27.58-.25-41.37-.29-1.55,0-2.06-.5-2.04-1.97,.05-2.68-.12-5.37,.02-8.05,.47-8.74,.47-17.47,.02-26.21-.14-2.73,.15-3.4,3.05-3.4,4.24,0,8.49-.05,12.73-.05,47.5-.02,95-.04,142.51-.07,.94,0,1.87,0,2.81,0,0,.15,0,.29,0,.44Z"/>
  <path d="M205.09,679.69c-18.23,0-36.45,.04-54.68,0-22.72-.06-45.44-.18-68.15-.3-11.73-.06-23.46-.22-35.2-.25-1.55,0-2.07-.49-2.04-1.96,.05-2.75-.11-5.5,.03-8.24,.46-8.68,.46-17.34,.01-26.02-.14-2.72,.15-3.4,3.04-3.4,4.31,0,8.61-.05,12.92-.05,47.38-.02,94.75-.11,142.13-.05,42.5,.06,85.01,.26,127.51,.43,11.29,.04,22.59,.18,33.88,.23,1.27,0,1.82,.29,1.98,1.69,.58,5.23,.7,10.47,.48,15.7-.24,5.87-.31,11.73,.05,17.59,.03,.56,.06,1.13,.03,1.68-.17,2.8-.46,2.99-3.21,2.81-1.68-.11-3.37-.08-5.05-.08-31.27,.03-62.54-.05-93.82,.13-19.97,.12-39.94,.24-59.91,.09Z"/>
  <path class="cls-33" d="M206.02,422.45c41.51,0,83.01-.02,124.52,.01,11.36,0,22.71,.19,34.07,.22,1.34,0,1.79,.42,1.93,1.74,.57,5.23,.7,10.47,.47,15.7-.25,5.87-.3,11.73,.05,17.59,.04,.68,.08,1.38-.01,2.06-.35,2.59-.43,2.6-3.04,2.4-1.49-.11-2.99-.09-4.49-.09-31.58,.03-63.17-.11-94.75,.14-26.28,.21-52.55,.16-78.83,.13-32.52-.04-65.04-.18-97.55-.32-13.79-.06-27.58-.23-41.37-.31-1.36,0-2.03-.3-1.98-1.81,.07-2.68-.14-5.37,.01-8.05,.48-8.8,.47-17.59,.03-26.39-.14-2.79,.21-3.34,3.09-3.35,4.18-.01,8.36-.05,12.54-.05,47.63-.02,95.25-.04,142.88-.06,.81,0,1.62,0,2.43,0,0,.15,0,.29,0,.44Z"/>
  <path d="M190.85,106.1c-3.83-.06-7.29-1.04-9.79-4.17-1.54-1.93-2.27-4.14-1.7-6.64,.38-1.64,1.85-2.8,3.34-2.69,1.51,.11,2.55,1.29,2.71,3.06,.3,3.25,.99,3.99,4.19,4.32,1.88,.19,3.75,.08,5.5-.74,1.08-.51,1.82-1.32,1.91-2.57,.08-1.18-.74-1.79-1.62-2.31-2.27-1.35-4.84-1.96-7.27-2.88-1.64-.62-3.23-1.32-4.69-2.27-5.09-3.33-5.27-10.07-.39-13.69,5.05-3.75,13.46-3.17,17.97,1.23,1.41,1.37,2.19,3.03,2.06,5.02-.11,1.63-.99,2.67-2.6,2.97-1.59,.29-2.77-.28-3.46-1.83-1.57-3.51-6.81-5.05-10.07-2.99-1.49,.94-1.59,2.68-.13,3.91,1.21,1.02,2.7,1.51,4.17,2.04,2.64,.94,5.31,1.75,7.79,3.11,6.36,3.47,5.84,11.33,.06,14.92-2.46,1.53-5.08,2.32-7.98,2.22Z"/>
  <path d="M105.4,94.73c0,1.99-.02,3.99,0,5.98,.01,.94,.01,1.88-.32,2.77-.44,1.19-1.27,2.01-2.59,2.14-1.23,.12-2.22-.37-2.78-1.48-.3-.59-.39-.99-1.13-.37-5.64,4.68-14.85,.3-14.91-7.25-.05-6,3.89-12.63,9.45-14.2,2.4-.68,4.8-.62,7.11,.45,.17,.08,.33,.24,.5,.24,3.76,.07,4.1,2.69,4.19,5.55,.06,2.06,.22,4.11,.33,6.16,.04,0,.09,0,.13,0Z"/>
  <path d="M279.95,96.3c.24,1.97,1.14,3.43,2.95,4.01,2.32,.74,4.67,.9,6.74-.8,.57-.47,1.04-1.1,1.77-1.34,1.23-.4,2.37-.24,3.22,.8,.87,1.06,.71,2.2,.03,3.3-.19,.31-.47,.58-.74,.84-4.02,3.84-12.01,3.98-16.4,.28-4.32-3.63-5.13-11.22-1.77-16.44,3.1-4.81,9.82-6.53,15.1-3.87,3.61,1.82,5.82,5.81,5.46,9.86-.16,1.79-1.25,2.74-3.42,3.03-3.98,.52-7.97,.37-11.96,.27-.3,0-.61,.03-.98,.05Z"/>
  <path d="M231.1,93.41c.41-4.1,1.63-8.7,6.58-10.88,7.25-3.2,14.84,1.56,15.53,9.54,.29,3.37-.34,6.61-2.15,9.49-3.86,6.14-12.87,6.45-17.3,.66-1.8-2.36-2.65-5.04-2.66-8.81Z"/>
  <path d="M126.49,94.73c.03-3.96,.94-7.03,3.11-9.6,2.28-2.7,5.12-4.02,8.76-3.2,1.75,.4,3.57,.57,5.2,1.4,3.67,1.87,4.7,5.33,5.03,9.02,.29,3.35-.44,6.59-2.34,9.43-3.79,5.67-12.03,6.2-16.6,1.08-2.21-2.47-3.24-5.41-3.15-8.13Z"/>
  <path d="M314.52,103.09c-4.16,4.91-10.96,2.38-13.12-2.08-1.87-3.86-1.54-7.87-1.23-11.91,.11-1.49,.34-2.97,.6-4.44,.34-1.9,1.68-2.89,3.42-2.63,1.66,.25,2.71,1.71,2.51,3.58-.25,2.35-.58,4.7-.79,7.06-.15,1.62-.06,3.25,.5,4.8,1,2.77,4.08,3.41,6.14,1.3,1.12-1.15,1.77-2.37,1.68-4.11-.18-3.17-.12-6.36-.08-9.54,.02-1.51,.76-2.63,2.29-3.02,1.48-.38,2.69,.07,3.53,1.41,.43,.68,.43,1.43,.43,2.16,.01,5.49,.02,10.97,0,16.46,0,2.32-.8,3.69-2.4,3.88-2.02,.25-2.8-1.21-3.46-2.91Z"/>
  <path d="M70.97,91.36c0-3.49-.06-6.99,.03-10.48,.03-1.06-.32-1.27-1.25-1.25-1.62,.04-3.25,.07-4.87-.03-1.85-.11-3.09-1.44-3.08-3.11,0-1.66,1.28-3.02,3.14-3.05,6.11-.1,12.23-.16,18.34-.11,2.16,.02,3.39,1.38,3.32,3.23-.06,1.84-1.33,2.92-3.55,3.01-.5,.02-1,0-1.5,0-4.37,0-4.39,0-4.4,4.41-.01,5.56,.01,11.11,.02,16.67,0,.62,.01,1.25-.03,1.87-.14,1.78-1.29,3.02-2.88,3.14-1.63,.12-3.09-1.05-3.32-2.88-.16-1.29-.09-2.61-.09-3.92-.01-2.5,0-4.99,0-7.49,.04,0,.08,0,.11,0Z"/>
  <path d="M217.62,106.06c-4.16-.29-7.74-2.34-9.88-6.54-2.25-4.42-1.33-8.66,1.39-12.48,4.48-6.27,11.21-6.84,16.63-1.59,1.51,1.47,1.71,3.11,.52,4.44-1.21,1.36-2.87,1.45-4.52,.25-.1-.07-.18-.17-.28-.25-2.55-2.04-3.78-2.31-5.45-1.21-2.15,1.41-3.57,4.7-3.02,6.98,.58,2.4,2.58,4.17,5.01,4.33,1.39,.09,2.57-.34,3.19-1.76,.35-.8,.68-1.62,1.14-2.34,.91-1.43,2.63-1.84,4.1-1.08,1.44,.75,1.94,2.15,1.36,3.8-1.81,5.11-4.91,7.5-10.19,7.46Z"/>
  <path d="M153.54,93.66c0-1.12-.02-2.25,0-3.37,.03-1.48,.46-3.01-1.96-3.19-1.16-.08-1.71-1.43-1.61-2.64,.11-1.37,.89-2.48,2.28-2.57,1.4-.09,1.4-.82,1.33-1.8-.03-.37-.02-.75,0-1.12,.08-2.2,1.22-3.53,3.04-3.56,2-.03,3.26,1.4,3.29,3.73,0,.31,.02,.63-.03,.93-.25,1.3,.26,1.64,1.57,1.66,2.76,.03,4.12,2.46,2.71,4.6-.74,1.13-1.9,1.41-3.11,1.32-1.18-.09-1.48,.32-1.44,1.47,.09,2.43,.06,4.87,0,7.3-.03,1.26,.35,2.13,1.59,2.63,.74,.3,1.45,.74,2.06,1.26,1.29,1.09,1.36,2.47,.55,3.86-.82,1.42-2.09,1.99-3.65,1.35-1.73-.71-3.33-1.68-4.82-2.83-1.24-.96-1.67-2.31-1.72-3.79-.06-1.75-.01-3.49-.01-5.24h-.08Z"/>
  <path d="M257.46,93.98c0-2.43-.02-4.86,.01-7.29,.01-.87,.07-1.76,.28-2.59,.29-1.08,1.03-1.83,2.18-2.04,1.18-.22,2.39-.1,2.95,1.03,.57,1.15,1.15,.89,2.02,.5,1.3-.58,2.63-1.14,3.99-1.53,1.77-.51,3.3,.29,3.77,1.79,.49,1.58-.22,3.06-1.9,3.76-1.66,.69-3.32,1.41-5.04,1.92-1.67,.5-2.13,1.48-2.04,3.14,.15,3.05,.14,6.1,.14,9.15,0,2.43-1.18,3.86-3.09,3.85-1.92,0-3.08-1.41-3.11-3.85-.03-2.62,0-5.23,0-7.85-.05,0-.1,0-.15,0Z"/>
  <path d="M325.47,93.71c0-2.75,0-5.49,0-8.24,0-1.58,.57-2.87,2.16-3.34,1.43-.43,2.77-.12,3.49,1.38,.39,.82,.82,.46,1.35,.24,1.38-.57,2.74-1.19,4.16-1.64,1.9-.6,3.38,.13,3.94,1.76,.56,1.64-.17,3.04-2.04,3.8-1.61,.66-3.21,1.37-4.88,1.86-1.7,.5-2.16,1.53-2.05,3.19,.17,2.49,.16,4.99,.21,7.48,.02,.81,.06,1.63-.04,2.43-.23,1.86-1.56,3.08-3.19,3.04-1.71-.04-3.03-1.41-3.07-3.36-.06-2.87-.01-5.74-.01-8.61-.01,0-.02,0-.03,0Z"/>
  <path d="M110.42,93.87c0-2.81-.02-5.62,0-8.42,.01-1.56,.56-2.87,2.17-3.32,1.45-.41,2.77-.07,3.47,1.42,.41,.86,.86,.39,1.35,.19,1.27-.52,2.52-1.08,3.81-1.52,2-.69,3.64-.07,4.24,1.5,.66,1.73-.14,3.22-2.21,4.04-1.79,.72-3.56,1.47-5.38,2.12-.98,.35-1.33,.93-1.3,1.95,.09,3.37,.13,6.73,.17,10.1,.02,1.63-.52,2.96-2.15,3.58-1.93,.74-4.04-.78-4.1-3.02-.07-2.87-.02-5.74-.02-8.61-.02,0-.05,0-.07,0Z"/>
  <path d="M146.09,164.76c0-3.62,.01-7.23,0-10.85,0-.88,.04-1.71,1.17-1.72,1.13-.01,1.23,.85,1.23,1.7-.02,4.61-.05,9.23-.08,13.84,0,.71-.06,1.43-.91,1.62-.84,.19-1.59,.05-2.12-.75-1.72-2.59-3.45-5.17-5.2-7.75-.86-1.26-1.76-2.5-2.79-3.96,0,3.12,0,5.88,0,8.65,0,.81,.04,1.62,.03,2.43-.01,.77-.35,1.36-1.18,1.41-.96,.05-1.29-.58-1.3-1.44-.04-2.62-.09-5.24-.12-7.85-.02-1.93,0-3.87,0-5.8,0-.86,.16-1.67,1.05-2,.91-.33,1.34,.45,1.8,1.01,2.51,3.1,4.76,6.39,6.86,9.77,.38,.62,.8,1.21,1.21,1.82,.12-.04,.24-.09,.36-.13Z"/>
  <path class="cls-33" d="M256.92,163.1c0-1.62,.01-3.25,0-4.87,0-.6,.07-1.18,.64-1.44,.62-.28,1.31-.2,1.6,.48,.36,.83,.66,.16,.93,.03,2.2-1.09,3.39-1,5.18,.72,.59,.57,.72,.22,1.09-.1,1.42-1.26,3.05-1.63,4.85-.96,1.85,.69,2.4,2.33,2.52,4.04,.16,2.36,.08,4.74,.1,7.11,0,.71-.24,1.22-1.02,1.3-.86,.09-1.23-.4-1.36-1.19-.29-1.74-.17-3.49-.13-5.23,.01-.44,.02-.88-.02-1.31-.11-1.16,0-2.52-1.72-2.58-1.53-.06-3.21,1.52-3.2,2.95,.01,1.87,.06,3.74,.09,5.62,.01,.85-.04,1.73-1.19,1.72-1.12,0-1.2-.85-1.22-1.72-.05-2.12-.09-4.24-.21-6.36-.06-1.05-.13-2.24-1.72-2.09-1.46,.14-2.55,.82-2.64,2.36-.11,1.93-.02,3.87-.03,5.81,0,.97-.07,2.03-1.39,1.98-1.29-.04-1.09-1.12-1.09-1.97-.01-1.44,0-2.87,0-4.31-.02,0-.04,0-.06,0Z"/>
  <path class="cls-33" d="M174.73,158.43c1.48-1.61,3.26-2.28,5.36-1.49,2.18,.82,2.49,2.81,2.61,4.77,.12,2.05,.04,4.12,.07,6.18,0,.76-.15,1.39-1.03,1.5-.98,.12-1.39-.51-1.43-1.33-.08-1.68-.06-3.37-.08-5.05,0-.44,.02-.88-.01-1.31-.09-1.19-.04-2.51-1.72-2.6-1.53-.08-3.19,1.48-3.19,2.95,0,1.75,.06,3.5,.05,5.24,0,.89,.28,2.08-1.16,2.09-1.42,0-1.19-1.22-1.24-2.09-.11-1.93-.09-3.87-.18-5.8-.05-1.11-.02-2.36-1.73-2.28-1.44,.07-2.65,1.12-2.69,2.55-.05,1.93,0,3.87-.02,5.81,0,.91-.1,1.86-1.33,1.82-1.16-.04-1.09-.97-1.1-1.79-.03-2.99-.06-5.99-.08-8.98,0-.69-.08-1.46,.66-1.81,.69-.33,1.37-.17,1.69,.62,.24,.59,.45,.14,.65,.02,2.56-1.5,4.18-.92,5.93,.99Z"/>
  <path class="cls-33" d="M192.82,161.02c0-2.37-.03-4.74,.01-7.1,.02-1.2,.27-1.71,1.92-1.57,2.05,.18,4.18-.41,6.27,.21,1.62,.48,2.91,1.38,3.64,2.96,1.29,2.79,.32,5.26-2.58,6.32-1.89,.69-3.89,.93-5.88,.7-.91-.11-1.06,.12-1.01,.94,.09,1.49,.1,2.99,.11,4.49,0,.75-.26,1.39-1.13,1.43-.98,.05-1.27-.59-1.27-1.45,0-2.31,0-4.61,0-6.92-.02,0-.05,0-.07,0Z"/>
  <path class="cls-33" d="M113.89,383.44c0-2.31-.04-4.62,.02-6.93,.02-1.09,.24-1.86,1.81-1.54,1.28,.27,2.7-.19,4.05-.15,2.18,.07,4.2,.65,5.55,2.56,1.9,2.7,1.01,5.87-2.05,7.05-1.63,.63-3.39,.96-5.13,.74-1.65-.21-1.98,.42-1.78,1.88,.14,1.04,.06,2.12,.09,3.18,.02,.88-.13,1.72-1.19,1.77-1.23,.06-1.31-.9-1.33-1.82,0-.06,0-.12,0-.19,0-2.19,0-4.37,0-6.56,0,0,0,0-.01,0Z"/>
  <path d="M202.06,386.94c-1.18,0-2.37,.02-3.55,0-1.17-.02-1.05,.52-.57,1.23,.92,1.35,3.55,1.86,5.67,1.1,.29-.1,.57-.25,.84-.4,.73-.42,1.34-.25,1.75,.44,.44,.75,.03,1.3-.57,1.74-1.8,1.33-6.12,1.32-8.2,0-2.03-1.29-3.07-3.93-2.59-6.54,.47-2.54,2.52-4.45,5.37-5.02,3.4-.67,7.01,2.24,7.08,5.7,.02,1.16-.52,1.74-1.68,1.74-1.18,0-2.37,0-3.55,0Z"/>
  <path d="M169.47,386.94c-1.18,0-2.37,.02-3.55,0-1.17-.02-1.05,.52-.57,1.23,.92,1.35,3.55,1.86,5.67,1.1,.29-.1,.57-.25,.84-.4,.73-.42,1.34-.25,1.75,.44,.44,.75,.03,1.3-.57,1.74-1.8,1.33-6.12,1.32-8.2,0-2.03-1.29-3.07-3.93-2.59-6.54,.47-2.54,2.52-4.45,5.37-5.02,3.4-.67,7.01,2.24,7.08,5.7,.02,1.16-.52,1.74-1.68,1.74-1.18,0-2.37,0-3.55,0Z"/>
  <path class="cls-33" d="M222.22,164.16c-1.18,0-2.37-.02-3.55,0-.34,0-.81-.2-1,.21-.23,.48,.19,.85,.48,1.11,1.58,1.41,3.45,1.55,5.41,1.1,.36-.08,.7-.25,1.03-.41,.7-.32,1.27-.06,1.58,.54,.33,.63,.04,1.18-.52,1.62-1.64,1.31-6.33,1.06-8.53-.48-2.13-1.5-2.95-4.42-1.96-7.02,.99-2.62,3.77-4.38,6.47-4.11,2.76,.28,5.24,2.6,5.78,5.31,.29,1.44-.09,2.16-1.64,2.12-1.18-.04-2.37,0-3.55,0Z"/>
  <path class="cls-33" d="M137.85,387.17c0,1.43,.07,2.55-.02,3.67-.09,1.18-1.12,1.66-1.91,.84-.6-.62-.85-.63-1.58-.2-1.85,1.07-4.48,.68-6.1-.7-1.58-1.35-2.17-3.65-1.38-5.8,.91-2.48,2.35-4.53,4.97-5.45,2.66-.93,5.18,.58,5.72,3.3,.31,1.55,.25,3.1,.29,4.35Z"/>
  <path class="cls-33" d="M181.03,392.03c-3.01,0-4.35-1.1-4.78-3.6-.14-.81,.02-1.39,.81-1.61,.77-.21,1.28,.15,1.57,.92,.79,2.1,2.99,2.68,4.81,1.28,1.05-.81,.7-1.53-.35-1.9-1.04-.36-2.17-.5-3.25-.77-2.37-.58-3.39-1.86-3.16-3.88,.24-2.08,1.7-3.24,4.07-3.19,1.87,.04,3.54,.58,4.84,2,.56,.6,1.24,1.19,.45,2.05-.77,.84-1.5,.39-2.07-.25-.86-.97-1.97-1.27-3.16-1.37-.77-.06-1.53,.08-1.72,1.04-.2,1.02,.68,1.09,1.27,1.27,1.12,.34,2.3,.5,3.43,.82,1.59,.44,2.59,1.48,2.72,3.17,.14,1.78-1,2.7-2.45,3.35-1.03,.47-2.1,.77-3.05,.66Z"/>
  <path class="cls-33" d="M281.83,392.03c-2.99-.01-4.55-1.32-4.69-3.78-.04-.7,.06-1.28,.82-1.44,.77-.16,1.24,.15,1.54,.95,.77,2.08,3.02,2.64,4.87,1.27,.97-.72,.73-1.45-.19-1.82-1.02-.42-2.15-.57-3.23-.81-2.61-.6-3.66-1.87-3.36-4.07,.28-2.04,1.9-3.18,4.4-3.03,1.94,.11,3.6,.83,4.87,2.37,.45,.55,.64,1.08,.11,1.65-.58,.63-1.24,.62-1.79,.03-.89-.96-1.95-1.53-3.24-1.61-.81-.05-1.68-.11-1.89,1-.22,1.14,.77,1.15,1.4,1.34,1.12,.35,2.3,.49,3.43,.82,1.6,.48,2.5,1.62,2.55,3.29,.05,1.57-.96,2.49-2.28,3.11-1.08,.51-2.2,.83-3.32,.73Z"/>
  <path class="cls-33" d="M157.24,156.65c3.36-.27,5.92,2.29,5.98,6.16,.06,3.65-2.97,6.68-6.26,6.57-2.94-.1-5.28-3.03-5.25-6.6,.03-3.61,2.34-6.18,5.53-6.13Z"/>
  <path class="cls-33" d="M254.32,162.63c.07,3.58-2.79,6.76-6.08,6.76-2.96,0-5.4-2.85-5.47-6.41-.07-3.35,2.26-6.31,5-6.34,4.01-.05,6.49,2.2,6.56,5.99Z"/>
  <path class="cls-33" d="M247.26,379.28c3.71,.06,6.04,2.42,6.01,6.1-.02,3.69-2.83,6.71-6.17,6.64-2.93-.07-5.43-3.03-5.34-6.54,.09-3.51,2.64-6.8,5.5-6.2Z"/>
  <path class="cls-6" d="M212.13,380.82c1.7-1.5,3.6-2.14,5.67-1.08,2.03,1.04,2.4,3.06,2.39,5.12-.01,1.93-.2,3.85-.28,5.78-.04,.9-.4,1.46-1.35,1.37-.87-.08-1.07-.73-1.05-1.48,.06-1.93,.19-3.86,.17-5.79-.02-1.99-.88-3.03-2.3-3.03-1.8,0-3.38,1.57-3.38,3.35,0,1.74-.01,3.49,0,5.23,0,.87-.05,1.71-1.18,1.72-1.09,0-1.28-.82-1.29-1.69-.03-2.99-.05-5.98-.07-8.97,0-.81-.12-1.75,.89-2.02,1.13-.31,1.49,.57,1.77,1.49Z"/>
  <path class="cls-33" d="M232.34,158.28c1.76-1.58,3.6-2.18,5.63-1.22,2.1,.99,2.49,2.98,2.48,5.05,0,1.81-.11,3.61-.22,5.42-.05,.85,.01,1.92-1.28,1.85-1.42-.09-1.12-1.22-1.1-2.12,.04-1.68,.16-3.37,.13-5.05-.05-2.16-.9-3.19-2.4-3.13-1.81,.07-3.33,1.63-3.32,3.43,0,1.81,0,3.62,0,5.43,0,.77-.17,1.39-1.06,1.45-.99,.07-1.31-.59-1.32-1.42-.06-3.18-.08-6.36-.12-9.54,0-.78,.05-1.57,1.01-1.74,1.05-.18,1.41,.54,1.58,1.59Z"/>
  <path class="cls-33" d="M266.26,385.56c-.08,1.68-.17,3.35-.23,5.03-.02,.61-.17,1.12-.77,1.36-.59,.23-1.22,.11-1.43-.49-.31-.87-.66-.37-1.07-.17-2.94,1.41-4.91,.68-6.29-2.32-1.3-2.8-.86-5.73-.56-8.63,.07-.7,.55-1.11,1.3-1.03,.86,.08,1.15,.69,1.12,1.44-.05,1.37-.18,2.73-.25,4.09-.04,.75,.05,1.48,.29,2.21,.45,1.34,.88,2.66,2.72,2.45,1.59-.18,2.59-1.39,2.62-3.29,.02-1.68-.03-3.36-.04-5.04,0-.82-.09-1.75,1.04-1.84,1.24-.1,1.36,.86,1.39,1.76,.04,1.49,0,2.99,0,4.48,.05,0,.11,0,.16,0Z"/>
  <path class="cls-33" d="M234.95,392.03c-3.35-.06-5.58-2.07-5.85-5.29-.27-3.24,2.07-6.87,4.79-7.42,1.76-.35,4.29,.75,5.22,2.26,.33,.54,.39,1.07-.06,1.53-.51,.51-1.12,.49-1.69,.09-.55-.4-1-1.02-1.61-1.24-1.67-.59-2.72,.37-3.49,1.71-1.14,1.99-.99,4.09,.32,5.15,1.13,.91,3.46,1.04,4.38,.25,.41-.35,.55-.78,.55-1.32,0-.91,.5-1.43,1.41-1.32,.97,.12,1.08,.91,1.07,1.69-.03,2.28-2.19,3.95-5.03,3.9Z"/>
  <path class="cls-6" d="M148.67,380.28c1.06-.69,1.65-1.56,1.48-2.92-.1-.81,.25-1.48,1.25-1.45,1.05,.03,1.15,.77,1.11,1.57-.05,.96-.36,2.02,1.29,1.92,.41-.02,.79,.62,.75,1.15-.05,.61-.41,1.08-1.07,1.07-.96-.02-1.09,.5-1.06,1.29,.04,1.12,.02,2.24-.01,3.36-.04,1.59-.1,3.13,2.07,3.43,.66,.09,1.06,.7,.83,1.41-.21,.65-.72,.95-1.45,.89-2.09-.16-3.46-1.33-3.74-3.45-.18-1.41-.22-2.85-.18-4.27,.03-1.24,.06-2.38-1.25-3.03-.21-.33-.19-.66,0-.99Z"/>
  <path class="cls-12" d="M148.67,380.28c0,.33,0,.66,0,.99-.77,.74-1.75,.83-2.74,.93-1.76,.17-2.7,.98-2.56,2.91,.12,1.74,.02,3.49,.03,5.23,0,.9-.17,1.68-1.26,1.67-.95-.01-1.23-.71-1.24-1.54-.02-3.24-.02-6.48-.05-9.72,0-.69,.19-1.26,.91-1.43,.6-.14,1.07,.1,1.41,.65,.16,.26,.1,1.04,.8,.48,1.51-1.2,3.09-.88,4.68-.16Z"/>
  <path class="cls-12" d="M207.17,162.85c0-1.5,.01-3,0-4.49,0-.72,.03-1.43,.86-1.66,.68-.19,1.27,.08,1.5,.77,.27,.81,.6,.46,1.03,.16,.86-.6,1.85-.7,2.86-.57,.69,.09,1.16,.46,1.18,1.21,.03,.79-.47,1.09-1.17,1.16-.56,.06-1.12,.09-1.67,.21-1.38,.29-2.17,1.01-2.08,2.58,.1,1.87,.02,3.74,.03,5.62,0,.84-.23,1.53-1.2,1.55-.96,.02-1.29-.64-1.3-1.48-.02-1.68,0-3.37,0-5.05-.01,0-.03,0-.04,0Z"/>
  <path class="cls-33" d="M271.7,380.82c1.14-.72,2.15-1.28,3.42-1.17,.86,.08,1.49,.37,1.53,1.27,.04,.88-.61,1.05-1.37,1.16-3.52,.53-3.58,.62-3.57,4.24,0,1.37,0,2.74,0,4.12,0,.81-.14,1.55-1.15,1.57-.97,.02-1.25-.61-1.25-1.48,0-3.24-.03-6.48-.05-9.72,0-.74,.1-1.41,1-1.5,.95-.1,1.34,.47,1.43,1.52Z"/>
  <path class="cls-12" d="M159.58,385.68c0,1.55,0,3.1,0,4.66,0,.88-.12,1.68-1.23,1.68-.97,0-1.27-.71-1.26-1.52,.03-3.29,.11-6.57,.17-9.86,.01-.78,.31-1.34,1.18-1.33,.87,0,1.18,.57,1.18,1.35,0,1.68,0,3.35,0,5.03-.02,0-.03,0-.05,0Z"/>
  <path class="cls-7" d="M75.56,32.87q-1.94,2.1-4.07-.15c0,1.36,0,2.43,0,3.49,0,.39-.09,.83-.54,.83-.49,0-.5-.47-.5-.84-.01-1.55-.02-3.11-.01-4.66,0-.29-.11-.65,.3-.77,.33-.09,.59,.04,.81,.31,.66,.8,1.34,1.6,2.04,2.44,.71-.88,1.33-1.66,1.96-2.42,.32-.39,.66-.6,.96,.04,.27,.57-.06,5.18-.52,6.12-.66-1.46-.12-2.88-.43-4.39Z"/>
  <path class="cls-4" d="M43.88,34c-.02,1.92-.86,3.1-2.21,3.11-1.4,.01-2.34-1.29-2.35-3.22,0-2,.9-3.21,2.34-3.17,1.46,.04,2.24,1.19,2.22,3.27Z"/>
  <path class="cls-13" d="M343.47,31.84c-.84-.46-1.08-.88-.14-1.6,2.36-1.81,6.27-1.81,8.49,.1,.25,.22,.73,.37,.49,.83-.3,.56-.75,.79-1.34,.33-1.82-.54-3.64-1.03-5.53-.33-.65,.25-1.27,.56-1.96,.68Z"/>
  <path class="cls-17" d="M367.13,35.3c-2.98,.74-6.07,.55-8.99,.16-1.78-.24-.48-2.56-.76-3.91-.14-.7-.37-1.85,.85-1.89,2.74-.1,5.48-.06,8.22-.02,.93,.01,.99,.76,1,1.48-.07,.39-.05,.86-.66,.79-.79-.78-1.73-1.09-2.85-1.05-1.73,.07-3.46-.05-5.18,.07-1.05,1.04-.51,2.25-.36,3.41,.12,.12,.25,.22,.41,.3,2.46,.18,4.92,.08,7.38,.05,.19-.03,.39-.04,.59-.02,.29,.11,.55,.24,.35,.62Z"/>
  <path class="cls-2" d="M69.35,36.01c.28,.78,.17,.97-.11,1.07-.28,.09-.46-.05-.63-.25q-1.91-2.17-3.43-.06c-.16,.22-.29,.4-.57,.33-.4-.1-.43-.35-.29-.7,.66-1.73,1.29-3.48,1.95-5.21,.23-.59,.74-.6,.96-.14,.83,1.79,1.56,3.63,2.13,4.97Z"/>
  <path d="M337.88,32.64c0,1.12,0,2.25,0,3.37,0,.54,.15,1.14-.78,1.11-.79-.02-.71-.5-.71-.99,0-2.37,0-4.75,0-7.12,0-.57,.06-.93,.79-.92,.79,.01,.71,.5,.71,.99,0,1.19,0,2.37,0,3.56Z"/>
  <path class="cls-7" d="M61.97,36.72c-1.7,.63-3.13,.51-4.46,.27-.84-.16-.8-1.01-.21-1.62,.65-.67,1.37-1.27,2.03-1.93,.42-.43,1.03-.96,.34-1.53-.59-.48-1.19-.08-1.55,.5-.21,.33-.15,1.03-.77,.7-.6-.32-.26-.93,0-1.31,.72-1.05,1.76-1.49,2.87-.74,1.13,.76,.91,1.82,.1,2.72-.66,.73-1.43,1.36-2.27,2.15,1.2,.65,2.53-.14,3.92,.8Z"/>
  <path class="cls-31" d="M47.87,34.43c-1.33,.6-2.34,.63-3.02-.47-.55-.88-.47-1.82,.25-2.56,.83-.85,1.82-.81,2.91-.39,.58,.22,.77,.5,.75,1.06-.03,1.42-.04,2.85-.07,4.27,0,.35,.05,.81-.5,.78-.52-.02-.5-.46-.48-.82,.03-.55,.09-1.09,.16-1.87Z"/>
  <path class="cls-31" d="M53.74,30.73c.48,0,.73-.02,.97,0,.39,.04,1.01-.2,1.03,.42,.02,.61-.6,.45-1,.49-.18,.02-.37,0-.56,0-.57,0-1.19-.07-1.2,.76-.01,.85,.67,.49,1.09,.57,1.41,.27,2.03,1.19,1.83,2.54-.21,1.39-1.26,1.69-2.51,1.61-.65-.04-.98-.47-1.27-.97-.15-.27-.3-.61,.01-.83,.3-.22,.55-.06,.74,.26,.41,.69,.94,.97,1.68,.41,.45-.34,.63-.75,.38-1.29-.41-.89-1.11-.89-1.87-.57-1.34,.57-1.3-.06-1.11-1.11,.22-1.21-.21-2.88,1.78-2.3Z"/>
  <path class="cls-5" d="M223.01,152.43c-.04,.7-2.16,3.05-2.79,3.08-1.03,.05-1.67-.64-1.28-1.49,.5-1.09,1.36-2.11,2.47-2.65,.91-.44,1.52,.1,1.6,1.05Z"/>
  <path class="cls-2" d="M350.64,31.78c.55,.41,.32,.82,0,1.23-1.59,.57-3-.7-4.55-.43-.74,.1-1.58,1.06-2.14-.26,.25-.81,.89-1.16,1.63-1.4,1.84-.6,3.58-.6,5.07,.87Z"/>
  <path d="M334.14,33.96c0-.74,0-1.48,0-2.22,0-.47,.21-.64,.66-.64,.47,0,.84,.02,.83,.66-.02,1.54-.02,3.08,0,4.62,0,.56-.21,.73-.76,.74-.57,0-.76-.21-.74-.76,.02-.8,0-1.6,0-2.4Z"/>
  <path class="cls-7" d="M159.87,376.31c-.16,.81-.49,1.46-1.41,1.47-.98,0-1.49-.56-1.49-1.52,0-.87,.48-1.41,1.36-1.46,1.04-.06,1.35,.68,1.54,1.52Z"/>
  <path class="cls-33" d="M333.38,35.35c0,.43,0,.86,0,1.29-.01,.41-.3,.47-.63,.46-.34-.02-.81,.1-.83-.43-.04-.92-.01-1.84-.02-2.76,0-.51,.33-.56,.73-.56,.38,0,.75,0,.75,.53,0,.49,0,.98,0,1.47Z"/>
  <path class="cls-19" d="M349.53,34.12c-1.15,.62-2.43-.37-3.59,.26-.05,.03-.51-.42-.5-.63,.03-.59,.64-.64,1.04-.86,1.71-.78,2.76-.36,3.05,1.23Z"/>
  <path class="cls-11" d="M350.64,31.78c-1.63-.98-3.35-1.26-5.18-.63-.37,.18-.47,0-.44-.34,2.1-.86,4.12-.91,5.94,.68-.11,.1-.22,.19-.33,.29Z"/>
  <path class="cls-33" d="M331.15,35.91c-.05,.59,.19,1.2-.73,1.21-1.08,.01-.71-.73-.77-1.26-.06-.59-.04-1.06,.81-1.03,.96,.03,.57,.71,.69,1.07Z"/>
  <path class="cls-38" d="M349.53,34.12c-.45-1.82-1.83-1.32-3.05-1.23-.14-.1-.27-.2-.41-.31,1.01-.65,2.04-.49,3.06-.04,.48,.21,.89,.66,1.49,.47-.37,.37-.73,.73-1.1,1.1Z"/>
  <path class="cls-33" d="M327.4,36.38c-.06-.51,.08-.81,.67-.78,.45,.02,.83,0,.83,.64,0,.57-.09,.91-.78,.88-.53-.02-.79-.18-.72-.74Z"/>
  <path class="cls-27" d="M367.11,31.81c.01-.28,.07-.55,.35-.69,.84,.99,.84,1.99,.04,3-.78,.08-.43-.51-.51-.85,.03-.49,.03-.98,.11-1.46Z"/>
  <path class="cls-28" d="M347.56,34.7c.28,.08,.76,.06,.74,.39-.04,.41-.39,.82-.87,.74-.24-.04-.56-.37-.6-.62-.11-.59,.45-.39,.74-.51Z"/>
  <path class="cls-25" d="M345.02,30.82c.15,.11,.29,.23,.44,.34-.51,.39-1.02,.77-1.52,1.16-.15-.16-.31-.32-.46-.48,.52-.34,1.03-.68,1.55-1.02Z"/>
  <path class="cls-22" d="M367.4,33.21c.09,.3-.31,.65,.11,.91-.16,.38,.13,.9-.37,1.18-.14-.15-.28-.3-.42-.45-.48-.84-.56-1.52,.69-1.63Z"/>
  <path class="cls-26" d="M50.39,32.47c.24,.07,.49,.19,.46,.47-.04,.38-.35,.46-.68,.41-.3-.04-.39-.25-.33-.53,.06-.3,.3-.34,.55-.35Z"/>
  <path class="cls-24" d="M50.43,37.11c-.34,.03-.62-.08-.59-.44,.01-.17,.26-.41,.43-.44,.3-.07,.59,.11,.61,.45,.02,.25-.19,.41-.46,.43Z"/>
  <path d="M337.56,753.92c.56-.74,1.1-1.42,1.61-2.12,1.03-1.38,.53-2.71-1.17-3.12-3.12-.75-2.99-.76-3.17-3.92-.11-1.95,.53-2.7,2.43-2.71,.88,0,1.75-.08,2.27-1.21,.56-1.22-.2-1.83-.8-2.4-1.47-1.39-1.18-2.5,.25-3.63,.39-.31,.74-.68,1.06-1.06,.98-1.16,1.98-1.43,3.11-.19,.25,.27,.59,.46,.89,.68,1.28,.95,2.62,.4,2.85-1.15,.6-3.93,.2-3.09,3.74-3.16,2.61-.05,2.61,0,2.95,2.53,.04,.31,.04,.63,.11,.93,.3,1.21,1.63,1.68,2.68,.96,2.83-1.93,2.76-1.86,5.2,.44,1.36,1.29,1.6,2.31,.22,3.67-.61,.6-1.29,1.22-.75,2.41,.51,1.12,1.28,1.18,2.24,1.22,1.68,.07,2.88,.6,2.47,2.66-.09,.48-.07,1,0,1.49,.2,1.54-.31,2.33-2,2.3-.76-.01-1.75,.11-2.25,.58-1.01,.95-.73,1.99,.21,3.05,.54,.6,1.79,1.21,1.04,2.3-.99,1.43-2.12,2.88-3.78,3.51-.68,.26-1.34-.76-1.98-1.23-.69-.5-1.2-1.12-2.3-.64-1.01,.44-.96,1.2-1.06,1.95-.38,2.72-.36,2.73-3,2.73-.69,0-1.37-.03-2.06,0-.85,.05-1.29-.3-1.32-1.16,0-.19-.04-.37-.07-.56-.69-3.79-1.2-4.01-4.33-1.69-.89,.66-1.55,.83-2.34-.11-.68-.81-1.51-1.49-2.23-2.26-.29-.31-.46-.71-.72-1.12Z"/>
  <path d="M185.8,745.46c0-4.68,0-9.36,0-14.04,0-1.9,.22-2.03,1.88-1.11,8.36,4.64,16.71,9.3,25.07,13.95,.47,.26,1.19,.38,1.22,1.02,.03,.76-.76,.92-1.28,1.21-8.25,4.6-16.5,9.18-24.76,13.76-1.94,1.08-2.12,.96-2.13-1.31,0-4.49,0-8.99,0-13.48Z"/>
  <path d="M121.07,761.88c-2.56,0-5.12,.03-7.68,0-3.72-.06-5.43-1.93-5.28-5.65,.09-2.13,.3-4.23,1.21-6.19,1.6-3.47,4.08-4.22,7.31-2.3,3.06,1.82,6.13,1.69,9.14-.17,2.67-1.65,4.95-1.13,6.54,1.63,1.55,2.69,1.93,5.66,1.65,8.68-.24,2.52-2.11,3.93-5.03,4-2.62,.07-5.24,.01-7.86,.01Z"/>
  <path d="M43.69,752.2c-1.11-3.93,.97-6.26,3.95-8.34,2.4-1.67,4.58-3.65,6.8-5.57,.64-.55,1.01-.57,1.66-.02,3.29,2.78,6.61,5.51,9.96,8.22,.65,.53,.9,1.09,.88,1.92-.04,2.5-.06,5,0,7.5,.04,1.62-.5,2.44-2.28,2.33-1.87-.12-3.75-.08-5.62,0-.99,.04-1.3-.29-1.25-1.27,.07-1.75,0-3.5,.03-5.25,.02-.84-.19-1.19-1.13-1.24-3.95-.24-3.95-.27-3.95,3.64s0,4.13-4.19,4.09c-5.39-.05-4.85,.87-4.88-4.87,0-.37,0-.75,0-1.12Z"/>
  <path d="M61.67,736.99c0-.98,0-1.52,0-2.07q0-2.51,2.59-2.51t2.67,2.64c0,.44,.07,.89-.01,1.31-.63,3.55,.45,6.28,3.68,8.07,.95,.52,1.13,1.17,.25,2.05-.72,.72-1.13,1.55-2.33,.51-3.96-3.43-8.05-6.7-12.02-10.13-.98-.84-1.53-.77-2.46,.03-3.88,3.33-7.85,6.56-11.74,9.88-.99,.84-1.61,1.04-2.53-.13-.87-1.09-.59-1.6,.36-2.38,4.35-3.55,8.63-7.18,12.94-10.77,1.81-1.51,2.61-1.51,4.41-.01,1.29,1.07,2.58,2.15,4.2,3.51Z"/>
  <path d="M128.11,740.61c0,3.97-3.18,7.11-7.14,7.08-3.84-.03-7-3.2-7.03-7.03-.03-3.92,3.17-7.17,7.08-7.18,3.95,0,7.1,3.15,7.09,7.13Z"/>
  <path d="M272.71,758.58c-5.49,0-10.99-.04-16.48,.03-1.22,.02-1.54-.3-1.53-1.53,.06-7.99,.03-15.99,.03-23.98,0-.76-.26-1.56,1.12-1.56,1.37,0,1.12,.78,1.12,1.55,0,7.25,.03,14.49-.03,21.74-.01,1.22,.3,1.54,1.53,1.53,10.24-.05,20.48-.04,30.71-.02,.63,0,1.53-.43,1.54,.92,0,1.06-.29,1.35-1.35,1.34-5.56-.05-11.11-.02-16.67-.02Z"/>
  <path d="M286.19,743.96c0,2.87-.06,5.75,.03,8.62,.04,1.22-.3,1.56-1.53,1.54-3-.06-3,0-3-3.03,0-5.18,.06-10.37-.04-15.55-.03-1.4,.31-1.79,1.72-1.73,2.8,.12,2.81,.02,2.81,2.85v7.31Z"/>
  <path d="M272.7,744.91c0,2.62-.05,5.25,.03,7.87,.03,1.08-.31,1.33-1.35,1.33-3.17,0-3.17,.05-3.17-3.04,0-4.5,.05-8.99-.03-13.49-.02-1.25,.35-1.54,1.55-1.52,2.98,.06,2.98,0,2.98,3.05v5.81Z"/>
  <path d="M127.85,745.35c1.05-1.93,1.63-3.74,1.34-5.94,2.42,.81,4.5,.24,6.49-.84,1.17-.63,1.91-.12,2.34,.97,.74,1.9,.76,3.89,.6,5.88-.07,.9-.67,1.54-1.45,1.79-1.88,.62-3.77,1.15-5.53-.51-.96-.91-2.24-1.31-3.79-1.35Z"/>
  <path class="cls-33" d="M114.27,745.36c-1.78,.05-3.04,.73-4.25,1.67-1.6,1.25-3.41,.82-5.09,.19-1.46-.54-1.6-1.88-1.56-3.27,.04-1.44,.11-2.87,.62-4.22,.46-1.21,1.16-1.82,2.58-1.09,1.71,.88,3.51,1.6,5.52,.91,.58-.2,.75,.08,.73,.65-.08,1.79,.48,3.42,1.45,5.15Z"/>
  <path d="M136.35,733.57c-.01,2.59-2.2,4.77-4.75,4.74-2.56-.03-4.68-2.23-4.67-4.82,.01-2.65,2.1-4.71,4.75-4.68,2.66,.03,4.68,2.08,4.66,4.76Z"/>
  <path class="cls-33" d="M115.18,733.58c-.02,2.55-2.27,4.77-4.79,4.73-2.54-.04-4.7-2.27-4.69-4.84,.02-2.58,2.19-4.69,4.8-4.65,2.65,.03,4.7,2.12,4.68,4.77Z"/>
  <path d="M274.95,747.33c0-1.81,.06-3.62-.02-5.43-.05-1.06,.28-1.34,1.34-1.34,3.18,0,3.18-.05,3.18,3.22,0,2.93-.06,5.87,.03,8.8,.04,1.23-.31,1.56-1.53,1.53-2.99-.06-2.99,0-2.99-3.03v-3.75Z"/>
  <path d="M265.96,749.62c0,.75-.11,1.52,.02,2.24,.36,1.97-.53,2.24-2.3,2.3-1.97,.07-2.41-.57-2.25-2.37,.16-1.8,.07-3.62,.02-5.43-.02-.87,.09-1.3,1.17-1.31,3.34-.04,3.34-.11,3.34,3.26v1.31Z"/>
  <path class="cls-35" d="M206.26,190.77c48.32,0,96.63,.01,144.95-.04,1.76,0,2.07,.51,2.07,2.14-.04,45.03-.05,90.06,0,135.1,0,1.75-.49,2.07-2.14,2.07-50.37-.04-100.75-.03-151.12-.02-2.81,0-5.62,.07-8.42,.07-43.01,.03-86.02,.06-129.03,.09q-3.5,0-3.5-3.53c0-43.66,0-87.32,.02-130.97,0-1.48-.75-3.4,.18-4.34,1-1.01,2.95-.34,4.48-.34,19.29-.02,38.58-.02,57.87-.02,28.21,0,56.43,0,84.64,0,0-.06,0-.13,0-.19Z"/>
  <path class="cls-35" d="M206.03,610.34c-18.04,0-36.07,.02-54.11,0-32.27-.05-64.54-.13-96.8-.21-2.25,0-4.49-.07-6.74-.07-1.1,0-1.57-.46-1.53-1.58,.42-11.11,.34-22.22,.34-33.34,0-.84,.27-1.1,1.07-1.02,.55,.06,1.12,0,1.68,0,18.54-.02,37.08-.02,55.61-.05,25.96-.05,51.93-.28,77.89-.16,32.39,.15,64.79,.36,97.18,.09,27.21-.22,54.42,.35,81.62,.07,2.78-.03,2.79,0,2.8,2.69,.03,10.17,.06,20.34,.08,30.52,0,3.05,0,3.06-3.11,3.06-41.88,0-83.77,0-125.65,0h-30.33Z"/>
  <path class="cls-35" d="M206.04,525.34c25.72,0,51.43,.22,77.15-.06,26.65-.3,53.29,.39,79.94,.03,1.5-.02,1.93,.48,1.93,1.92-.01,10.73,0,21.47,.1,32.2,.02,1.86-.65,2.22-2.34,2.21-28.46-.05-56.93-.05-85.39-.03-31.21,.02-62.42,.14-93.62,.11-43.19-.05-86.38-.21-129.57-.32-1.56,0-3.12-.02-4.68-.04-2.71-.03-2.79-.04-2.68-2.69,.32-8.18,.32-16.35,.32-24.53,0-2.31,.09-4.62-.02-6.93-.06-1.4,.24-1.86,1.78-1.86,20.16,.04,40.32,.02,60.48-.02,24.28-.05,48.55-.13,72.83-.19,7.93-.02,15.85,0,23.78,0v.2Z"/>
  <path class="cls-35" d="M205.87,475.12c25.72,0,51.43,.22,77.15-.06,26.65-.3,53.29,.38,79.94,.03,1.51-.02,2.1,.35,2.1,1.95-.02,10.73,0,21.47,.08,32.2,.01,1.63-.37,2.22-2.17,2.2-10.74-.1-21.47-.05-32.21-.04-49.56,.04-99.12,.14-148.68,.11-42.63-.03-85.26-.21-127.88-.32-1.87,0-3.74-.08-5.62-.06-1.24,.01-1.8-.44-1.75-1.76,.44-11.05,.34-22.1,.35-33.15,0-.8,.2-1.15,1.04-1.05,.55,.06,1.12,0,1.68,0,15.92-.02,31.83-.02,47.75-.05,27.09-.06,54.17-.14,81.26-.19,8.99-.02,17.97,0,26.96,0v.2Z"/>
  <path class="cls-35" d="M206.04,641.53c25.72,0,51.43,.22,77.15-.06,26.65-.3,53.29,.39,79.94,.03,1.5-.02,1.93,.48,1.93,1.92-.01,10.73,0,21.47,.1,32.2,.02,1.86-.65,2.22-2.34,2.21-28.46-.05-56.93-.05-85.39-.03-31.4,.02-62.79,.14-94.19,.11-43-.05-86-.21-129.01-.32-1.56,0-3.12-.02-4.68-.04-2.71-.03-2.79-.04-2.68-2.69,.32-8.18,.32-16.35,.32-24.53,0-2.31,.09-4.62-.02-6.93-.06-1.4,.24-1.86,1.78-1.86,20.16,.04,40.32,.02,60.48-.02,24.28-.05,48.55-.13,72.83-.19,7.93-.02,15.85,0,23.78,0v.2Z"/>
  <path class="cls-35" d="M206.31,460.43c-18.1,0-36.2,.02-54.3,0-32.33-.05-64.66-.13-96.99-.21-2.12,0-4.24-.08-6.36-.05-1.36,.02-1.88-.5-1.82-1.89,.17-4.05,.29-8.11,.33-12.17,.06-6.74,.08-13.49,0-20.23-.02-1.45,.39-1.71,1.75-1.7,18.6,.03,37.2,.01,55.8-.02,26.27-.05,52.55-.28,78.82-.16,32.46,.15,64.91,.35,97.36,.09,27.09-.22,54.17,.33,81.25,.07,2.88-.03,2.88,0,2.89,2.79,.03,10.11,.06,20.22,.08,30.33,0,3.15,0,3.16-3.2,3.16-39.76,0-79.52,0-119.28,0h-36.32Z"/>
  <path class="cls-35" d="M98.92,92.79c.03,3.22-1.45,5.5-4.14,6.36-3,.97-5.33-1.01-4.78-4.1,.39-2.19,1.36-4.12,3.01-5.66,1.76-1.64,3.9-1.75,5.34-.33q.54,.53,.57,3.72Z"/>
  <path class="cls-14" d="M285.01,91.9c-1.26-.06-2.56-.13-3.86-.16-.92-.02-1.18-.4-.93-1.29,.52-1.87,2.29-3.02,4.98-3.16,2.8-.14,4.09,.53,4.86,2.48,.44,1.12,.37,1.9-1.09,1.94-1.3,.04-2.6,.12-3.95,.18Z"/>
  <path class="cls-35" d="M246.95,93.58c-.02,1.26-.22,2.47-.73,3.64-.71,1.63-1.58,2.95-3.67,2.85-2.28-.11-3.96-1.14-4.67-3.1-.54-1.5-.62-3.06-.29-4.61,.88-4.14,3.74-5.51,7.5-3.53,1.91,1.01,1.83,2.93,1.86,4.74Z"/>
  <path class="cls-35" d="M142.33,93.42c-.02,1.25-.22,2.48-.7,3.64-1.02,2.5-1.92,3.15-4.12,2.97-2.36-.19-4.02-1.56-4.5-3.79-.27-1.28-.38-2.56-.07-3.89,.7-2.99,2.16-4.51,4.26-4.26,4.13,.49,5.21,1.61,5.13,5.33Z"/>
  <path class="cls-14" d="M195.14,157.21c.17-.68-.41-2.03,.32-2.27,1.63-.53,3.42-.55,5.12,.04,1.29,.45,2.12,1.32,2.11,2.74,0,1.45-1.15,1.7-2.24,2.06-.86,.28-1.71,.26-2.58,.26q-2.75,.02-2.74-2.84Z"/>
  <path class="cls-37" d="M118.57,382.69c-.71-.21-2.06,.46-2.27-.39-.36-1.46-.23-3.08,.1-4.61,.03-.13,.39-.24,.61-.28,1.48-.25,2.98-.32,4.42,.1,1.35,.39,2.31,1.28,2.35,2.78,.04,1.54-1.2,1.79-2.35,2.16-.92,.29-1.84,.18-2.86,.25Z"/>
  <path class="cls-15" d="M197.55,384.39c.78-1.6,1.85-2.49,3.52-2.49,1.67,0,2.78,.82,3.52,2.49h-7.04Z"/>
  <path class="cls-15" d="M172.04,384.48h-6.99c.46-1.59,1.54-2.39,3.05-2.55,1.81-.2,3.08,.64,3.94,2.55Z"/>
  <path class="cls-29" d="M224.85,161.77c-2.3,0-4.33-.02-6.36,0-1.21,.02-.81-.56-.45-1.11,1.61-2.45,4.86-2.05,6.8,1.11Z"/>
  <path class="cls-14" d="M135.33,385.34c.14,2.84-.98,4.22-3.43,4.26-.54,0-1.14-.09-1.62-.33-1.48-.74-1.67-2.69-.53-4.79,1.22-2.22,3.24-3.35,4.63-2.47,1.3,.82,.7,2.27,.95,3.32Z"/>
  <path class="cls-14" d="M154.21,162.72c-.01-2.3,1.11-3.64,3.04-3.65,2.21-.01,3.47,1.33,3.48,3.68,0,2.2-1.49,3.9-3.42,3.87-1.89-.04-3.09-1.55-3.1-3.9Z"/>
  <path class="cls-14" d="M245.3,162.75c-.01-2.29,1.1-3.66,3.01-3.68,2.21-.03,3.47,1.29,3.49,3.66,.02,2.27-1.41,3.92-3.37,3.9-1.9-.02-3.11-1.53-3.13-3.87Z"/>
  <path class="cls-14" d="M247.43,381.7c2.15,.03,3.45,1.48,3.41,3.79-.04,2.08-1.54,3.75-3.37,3.76-1.92,0-3.27-1.66-3.23-4,.04-2.19,1.28-3.57,3.19-3.55Z"/>
  <path class="cls-3" d="M43,33.54c-.24,1.04-.06,2.33-1.28,2.37-1.34,.04-1.4-1.28-1.39-2.24,0-.92-.07-2.22,1.41-2.15,1.38,.07,.85,1.42,1.27,2.02Z"/>
  <path class="cls-16" d="M367.4,33.21c-.91,.26-.59,1.03-.69,1.63h0c-2.87,.36-5.74,.26-8.62,.04l-.02-.02c-.21-1.5-.31-3.01,.05-4.5,2.18,0,4.37,.08,6.54-.04,1.27-.07,2.15,.12,2.44,1.49,.41,.4,.12,.95,.29,1.4Z"/>
  <path class="cls-22" d="M358.1,34.88c2.87-.02,5.74-.03,8.62-.05-2.87,.68-5.74,.6-8.62,.05Z"/>
  <path class="cls-22" d="M358.13,30.36c-.02,1.5-.03,3-.05,4.5-.54-1.51-.62-3.01,.05-4.5Z"/>
  <path class="cls-20" d="M66.89,32.44c.11,.78,.92,1.19,.32,1.82-.13,.14-.7,.1-.82-.05-.44-.57,.11-.99,.5-1.77Z"/>
  <path class="cls-1" d="M47.63,32.5c-.09,.85-.44,1.34-1.31,1.3-.65-.03-.87-.47-.84-.99,.03-.75,.54-1.08,1.25-1.05,.49,.02,1.06,.03,.89,.74Z"/>
  <path class="cls-35" d="M350.23,750.4c-2.92-.02-5.01-2.16-4.99-5.08,.02-2.88,2.21-5.1,5.03-5.11,2.84-.01,5.21,2.4,5.15,5.25-.06,2.81-2.33,4.97-5.2,4.95Z"/>
  <path class="cls-18" d="M208.79,260.55c12.15,5.68,23.95,11.2,35.75,16.7,35.18,16.42,70.37,32.83,105.54,49.28,.58,.27,1.94,.07,1.44,1.59-.47,1.43-1.19,.98-2.09,.56-10.78-5.05-21.56-10.08-32.35-15.11-36.37-16.98-72.74-33.94-109.09-50.95-1.37-.64-2.44-.67-3.83-.02-47.02,21.99-94.07,43.94-141.12,65.86-.59,.28-1.26,1.31-2.08,.35-1-1.18-.33-1.7,.83-2.24,14.58-6.77,29.15-13.57,43.71-20.37,31.85-14.87,63.7-29.73,95.56-44.6,.65-.3,1.29-.64,1.99-.99-.57-.75-1.34-.89-2-1.2-46.36-21.65-92.72-43.28-139.07-64.96-.55-.26-1.79-.08-1.43-1.44,.4-1.52,1.22-1.12,2.22-.65,20.55,9.61,41.11,19.2,61.66,28.79,26.6,12.41,53.2,24.82,79.77,37.27,1.3,.61,2.32,.65,3.64,.03,47.08-22.02,94.18-43.99,141.29-65.95,.59-.27,1.19-1.11,1.97-.38,1,.93,.74,1.55-.93,2.33-18.47,8.62-36.93,17.24-55.4,25.86-28.01,13.07-56.02,26.14-84.02,39.22-.55,.26-1.08,.54-1.96,.98Z"/>
  <path class="cls-6" d="M67.05,593.83c0-2.72,0-5.32,0-7.92,0-.65-.2-1.54,.81-1.58,1.11-.04,1.01,.91,1.01,1.63,.01,3.25,0,6.49-.03,9.74,0,.67,.06,1.45-.83,1.68-.88,.23-1.37-.29-1.82-.97-1.8-2.76-3.63-5.5-5.68-8.6-.32,2.55,.02,4.67-.02,6.79-.02,.96,.73,2.71-.97,2.69-1.49-.02-.8-1.68-.85-2.62-.14-2.74-.16-5.49-.19-8.23,0-.74-.03-1.59,.89-1.85,.84-.24,1.23,.5,1.61,1.03,1.59,2.23,3.14,4.5,4.71,6.74,.34,.48,.49,1.12,1.32,1.47Z"/>
  <path class="cls-6" d="M81.79,592.52c0-1.18,0-2.37,0-3.55,0-.59,.34-1.5,.76-1.22,1.41,.97,2.79-.65,3.87,0,1.6,.96,2.83,.55,4.4,.02,1.78-.6,3.34,.65,3.53,2.61,.2,1.98,.15,3.99,.17,5.98,0,.52-.15,1.02-.82,1.04-.73,.02-1-.51-1.02-1.09-.06-1.56-.02-3.12-.09-4.68-.04-.96,.12-2.27-1.44-2.04-1.19,.17-2.24,.75-2.18,2.29,.06,1.43,.04,2.87,.07,4.3,.01,.64-.2,1.15-.88,1.21-.73,.06-.93-.49-.95-1.11-.06-1.68-.09-3.37-.19-5.05-.05-.87-.08-1.89-1.41-1.68-1.08,.17-1.84,.74-1.85,1.95-.01,1.37,.04,2.75,0,4.12-.02,.71,.09,1.7-.95,1.74-1.16,.05-.9-.96-.92-1.66-.03-1.06,0-2.12,0-3.18-.04,0-.07,0-.11,0Z"/>
  <path class="cls-33" d="M148.21,597.17c0,.99,.01,1.79,0,2.6-.01,.65-.13,1.32-.94,1.37-.89,.06-.94-.65-.94-1.29,.02-3.68,.05-7.35,.08-11.03,0-.51,.37-1.33,.69-1.06,1.33,1.14,2.45-.21,3.67-.11,2.36,.19,4.16,2.67,3.98,5.64-.16,2.57-2.17,4.37-4.73,4.22-.54-.03-1.07-.2-1.81-.34Z"/>
  <path class="cls-6" d="M345.36,591.08c.1,1.5-.18,2.84-.82,4.08-1.5,2.88-4.94,3.13-6.86,.51-1.74-2.38-1.82-6.77-.16-9.2,1.91-2.79,5.61-2.51,7.06,.54,.62,1.31,.91,2.71,.78,4.07Z"/>
  <path class="cls-6" d="M109.52,590.87c0,1.74,.02,3.49,0,5.23-.02,1.08-.39,1.84-1.55,.95-.53-.41-.8,0-1.13,.12-1.78,.6-3.32,.3-4.53-1.15-1.36-1.62-1.53-4.26-.44-6.14,.98-1.67,2.48-2.56,4.37-2.1,1.35,.33,1.46-.12,1.35-1.18-.04-.37-.01-.75,0-1.12,0-.63,.22-1.14,.92-1.16,.73-.02,.9,.51,.9,1.14,0,1.8,0,3.61,0,5.41,.05,0,.09,0,.14,0Z"/>
  <path class="cls-6" d="M113.35,593.65c1.4,2.01,2.72,2.38,4.89,1.54,.72-.28,1.48-.7,1.84,.33,.29,.86-.47,1.22-1.11,1.44-2.09,.73-4.18,.85-5.99-.66-1.53-1.28-1.92-3-1.37-4.91,.61-2.15,2.43-3.44,4.77-3.38,2.22,.05,3.8,1.41,4.34,3.65,.32,1.34-.04,2.06-1.53,2-.93-.04-1.87,0-2.8,0h-3.02Z"/>
  <path class="cls-6" d="M353.18,591.58c-1.92,1.17-3.71,1.42-5.3-.09-1.34-1.27-1.64-2.9-.94-4.63,.86-2.12,3.48-3.03,5.83-2.35,1.81,.52,2.6,1.39,2.44,3.35-.2,2.48-.1,4.98-.18,7.47-.03,.82,.12,2.05-1.11,1.95-1.08-.08-.76-1.19-.74-1.98,.03-1.18,0-2.36,0-3.72Z"/>
  <path class="cls-33" d="M185.02,593.65c1.03,1.95,2.42,2.37,4.59,1.6,.64-.23,1.44-.94,1.86,.17,.42,1.08-.54,1.34-1.27,1.62-3.02,1.16-6.05,.04-7.05-2.59-.92-2.43,.28-5.14,2.73-6.14,2.76-1.13,5.73,.46,6.3,3.36,.26,1.31-.05,2.04-1.57,1.99-1.83-.06-3.67-.02-5.61-.02Z"/>
  <path class="cls-6" d="M164.73,593.77c0,1.16,0,1.84,0,2.53-.01,.74-.67,1.48-1.07,1.04-1.02-1.11-1.73-.1-2.55,.06-3.1,.59-5.6-1.99-4.79-5.05,.37-1.39,1.1-2.63,2.24-3.57,1.16-.97,2.41-1.43,3.94-.87,1.53,.56,2,1.7,2.05,3.19,.03,1.05,.14,2.1,.19,2.68Z"/>
  <path class="cls-6" d="M139.25,593.76c0,1.16,0,1.84,0,2.53-.01,.74-.66,1.48-1.07,1.04-1.02-1.1-1.73-.1-2.55,.06-3.09,.6-5.6-1.98-4.8-5.05,.36-1.39,1.1-2.63,2.24-3.57,1.16-.97,2.41-1.43,3.94-.87,1.53,.55,2.01,1.7,2.06,3.18,.03,1.05,.14,2.1,.19,2.68Z"/>
  <path class="cls-6" d="M75.49,587.67c2.71,.05,4.46,1.89,4.4,4.66-.06,2.75-2.1,4.91-4.6,4.86-2.26-.04-4.13-2.28-4.04-4.93,.09-2.54,1.95-5.11,4.24-4.6Z"/>
  <path class="cls-6" d="M325.2,586.16c-1.84,0-3.21,0-4.58,0-.73,0-1.46-.04-1.44-1.01,.02-.88,.72-.86,1.36-.86,1.68,0,3.37,0,5.05,0,1.47,0,1.81,.82,1.44,2.09-.12,.41-.28,.84-.53,1.18-1.92,2.56-3.26,5.43-4.52,8.35-.29,.67-.54,1.59-1.55,1.13-1.05-.48-.4-1.29-.13-1.92,1.29-3.02,2.73-5.97,4.89-8.98Z"/>
  <path class="cls-5" d="M315.39,588.18c-.74,.22-1.44,.45-2.14,.62-.54,.12-1.02-.04-1.17-.63-.16-.59,.2-1.03,.71-1.13,1.01-.2,1.69-.65,2.03-1.67,.2-.59,.58-1.17,1.35-1.04,.77,.13,.95,.81,.98,1.42,.08,1.43,.06,2.86,.07,4.3,0,1.75,.04,3.49-.02,5.24-.03,.8,.31,2.06-.94,2.08-1.36,.02-.85-1.24-.86-2.02-.03-2.37-.01-4.74-.01-7.15Z"/>
  <path class="cls-12" d="M172.64,588.63c.62-.76,1.53-1.32,1.23-2.58-.14-.6,.32-1.07,1.03-1,.64,.06,.78,.52,.78,1.07,.01,.75-.29,1.51,1,1.74,.78,.14,.74,1.35-.06,1.51-1.25,.25-.98,1.02-.99,1.77-.01,.75,.03,1.5-.01,2.25-.05,1,.04,1.84,1.29,2.05,.59,.1,1.09,.45,.81,1.17-.23,.6-.67,.69-1.36,.55-1.64-.34-2.55-1.18-2.56-2.9,0-1-.15-2.01-.02-2.99,.13-1.03-.33-1.58-1.12-2.02-.16-.2-.17-.4-.02-.61Z"/>
  <path class="cls-12" d="M329.75,597.75c-.78-.24-1.22-.6-.94-1.38,1.33-3.81,2.66-7.62,4.01-11.43,.19-.54,.63-.79,1.19-.58,.58,.22,.67,.74,.49,1.25-1.33,3.81-2.67,7.62-4.04,11.41-.11,.3-.48,.51-.7,.73Z"/>
  <path class="cls-12" d="M127.3,590.89c0-1.74,0-3.48,0-5.22,0-.64,.03-1.33,.89-1.35,.84-.02,.97,.62,.97,1.29,0,3.48,0,6.96,0,10.43,0,.67-.13,1.33-.94,1.35-1.01,.02-.91-.78-.91-1.47,0-1.68,0-3.35,0-5.03-.01,0-.02,0-.03,0Z"/>
  <path class="cls-23" d="M172.64,588.63c0,.2,.02,.41,.02,.61-.4,.24-.66,.62-1.24,.69-2.59,.32-2.6,.38-2.6,3.02,0,1.12,.01,2.25-.02,3.37-.01,.63-.28,1.11-1.01,1.06-.65-.04-.78-.53-.79-1.07-.03-2.56-.06-5.11-.06-7.67,0-.53,.47-1.27,.81-.93,1.23,1.23,2.52,.16,3.74,.34,.4,.06,.76,.37,1.14,.56Z"/>
  <path class="cls-5" d="M180.93,592.55c0,1.24,0,2.48,0,3.72,0,.62-.2,1.14-.92,1.13-.7-.01-.93-.52-.93-1.14,0-2.48,.02-4.96,.04-7.44,0-.62,.23-1.13,.94-1.13,.72,0,.92,.53,.92,1.14,.01,1.24,0,2.48,0,3.72-.02,0-.04,0-.06,0Z"/>
  <path class="cls-27" d="M179.81,584.29c.94,0,1.29,.51,1.29,1.17,0,.58-.34,1.05-1.01,1.07-.78,.03-1.09-.45-1.09-1.15,0-.64,.35-.99,.81-1.09Z"/>
  <path class="cls-6" d="M60.56,539.23c0,2.89,0,5.38,0,7.87,0,.69,.04,1.52-.91,1.56-.99,.05-.96-.79-.97-1.48-.07-3.12-.13-6.24-.17-9.36,0-.74-.07-1.6,.8-1.92,.93-.34,1.31,.51,1.76,1.06,2.07,2.57,3.82,5.35,5.99,8.06,0-2.58-.01-5.15,0-7.73,0-.7-.25-1.7,.89-1.68,1.08,.02,.93,1,.93,1.72,.01,3.18,0,6.37-.03,9.56,0,.67,.1,1.46-.73,1.75-.95,.33-1.49-.27-1.96-1.01-1.31-2.05-2.64-4.08-3.98-6.1-.47-.71-.98-1.39-1.62-2.3Z"/>
  <path class="cls-6" d="M81.79,543.75c0-1.18,0-2.37,0-3.55,0-.59,.33-1.47,.82-1.17,1.79,1.1,4.11-1.35,5.65,.96,.32,.48,.61-.14,.89-.3,2.81-1.68,5.12-.5,5.28,2.77,.08,1.62,.06,3.24,.08,4.87,.01,.65,.03,1.35-.86,1.35-.83,0-.98-.69-1-1.32-.04-1.37,.05-2.75-.05-4.12-.06-.96,.33-2.31-1.32-2.39-1.26-.07-2.29,1.16-2.27,2.56,.02,1.19,0,2.37,.02,3.56,.01,.75,.16,1.68-.91,1.69-1.11,.01-.89-1.01-.93-1.7-.09-1.49-.08-2.99-.18-4.48-.05-.79-.03-1.75-1.27-1.64-1.11,.1-1.92,.67-1.98,1.83-.08,1.49,.04,3,0,4.49-.02,.65-.02,1.52-.99,1.51-1.03,0-.86-.88-.87-1.54-.02-1.12,0-2.25,0-3.37-.04,0-.07,0-.11,0Z"/>
  <path class="cls-33" d="M146.41,545.57c0-1.81-.03-3.62,.01-5.42,.03-1,.46-1.72,1.43-.75,.62,.62,.9,.04,1.25-.13,.84-.41,1.7-.45,2.54-.19,2.21,.68,3.66,3.79,3.02,6.36-.56,2.28-2.68,3.75-5.12,3.22-1.38-.3-1.31,.21-1.35,1.2-.03,.93,.56,2.54-1.04,2.47-1.4-.06-.73-1.59-.79-2.47-.1-1.42-.03-2.86-.03-4.29,.03,0,.06,0,.09,0Z"/>
  <path class="cls-6" d="M345.37,542.24c.09,1.66-.19,3.24-1.1,4.64-1.52,2.34-4.53,2.51-6.33,.39-2.05-2.41-2.16-7.29-.22-9.79,1.88-2.43,5.36-2.12,6.77,.62,.66,1.29,.98,2.68,.88,4.15Z"/>
  <path class="cls-6" d="M107.57,539.26c0-.96-.01-1.76,0-2.57,.01-.63,.26-1.12,.97-1.1,.61,.02,.83,.43,.84,1.01,.04,3.67,.1,7.34,.13,11.01,0,.52-.31,1.28-.77,1-1.17-.73-2.16,.06-3.22,.08-2.54,.05-4.31-1.86-4.35-4.76-.04-2.76,1.78-4.95,4.21-4.97,.67,0,1.34,.17,2.2,.28Z"/>
  <path class="cls-6" d="M113.55,544.93c.92,1.92,2.36,2.4,4.52,1.61,.72-.26,1.63-.94,1.98,.27,.31,1.03-.7,1.27-1.46,1.54-2.9,1.04-5.82,.03-6.86-2.39-.98-2.28,.05-5.1,2.29-6.22,2.83-1.42,5.95,.09,6.68,3.2,.32,1.36-.06,2.03-1.54,2-1.85-.04-3.7,0-5.62,0Z"/>
  <path class="cls-6" d="M353.14,542.98c-3.03,1.35-5.26,.79-6.2-1.53-.67-1.66-.4-3.21,.8-4.51,1.31-1.42,3.01-1.61,4.81-1.2,1.88,.42,2.89,1.36,2.67,3.55-.26,2.53-.14,5.1-.21,7.65-.02,.75-.05,1.71-1.06,1.64-1-.07-.83-1.02-.81-1.77,.03-1.24,0-2.48,0-3.83Z"/>
  <path class="cls-33" d="M184.91,544.93c1.28,2.01,2.57,2.37,4.77,1.56,.67-.25,1.46-.82,1.83,.29,.32,.98-.54,1.25-1.22,1.52-2.95,1.2-6.07,.11-7.11-2.47-.97-2.41,.19-5.15,2.61-6.19,2.74-1.18,5.74,.34,6.37,3.22,.31,1.39-.02,2.16-1.64,2.09-1.79-.08-3.59-.02-5.62-.02Z"/>
  <path class="cls-6" d="M164.72,545.56c0,.62,.03,1.24,0,1.86-.06,1.1-.59,1.79-1.58,.89-.6-.55-.83-.13-1.21,.03-1.64,.68-3.18,.51-4.5-.66-1.36-1.21-1.54-2.8-.98-4.44,.6-1.75,1.6-3.21,3.39-3.98,2.19-.95,4.33,.24,4.62,2.59,.15,1.23,.22,2.47,.33,3.71-.02,0-.04,0-.06,0Z"/>
  <path class="cls-6" d="M139.26,545.04c0,1.21,.04,1.96-.01,2.7-.05,.65-.73,1.27-1.06,.88-.98-1.13-1.72-.12-2.54,.04-3.09,.61-5.6-1.97-4.81-5.04,.36-1.39,1.1-2.63,2.23-3.58,1.16-.97,2.41-1.44,3.94-.88,1.53,.55,2.02,1.69,2.06,3.18,.03,1.05,.14,2.1,.19,2.69Z"/>
  <path class="cls-6" d="M75.4,538.94c2.75,.03,4.49,1.81,4.48,4.58-.01,2.75-2,4.94-4.5,4.95-2.28,.01-4.16-2.14-4.13-4.84,.03-2.46,1.87-5.17,4.15-4.69Z"/>
  <path class="cls-6" d="M325.12,537.44c-1.75,0-3.16,0-4.57,0-.67,0-1.33-.06-1.37-.89-.06-1.02,.72-.98,1.43-.98,1.62,0,3.24,.02,4.87,0,1.57-.02,1.97,.79,1.55,2.16-.12,.41-.3,.83-.55,1.17-1.88,2.51-3.2,5.32-4.44,8.18-.3,.7-.54,1.77-1.66,1.21-1.02-.5-.31-1.33-.05-1.94,1.26-3.03,2.79-5.93,4.8-8.92Z"/>
  <path class="cls-5" d="M315.38,539.47c-.81,.23-1.51,.47-2.22,.61-.55,.11-.99-.11-1.1-.72-.1-.52,.22-.94,.63-1.01,1.19-.19,1.86-.85,2.25-1.94,.17-.49,.54-.85,1.13-.81,.71,.04,.89,.61,1.03,1.15,.09,.36,.11,.74,.11,1.11,0,2.93,.03,5.86-.01,8.79-.01,.79,.29,2.04-1.02,1.99-1.19-.04-.78-1.18-.79-1.92-.02-2.37,0-4.74,0-7.24Z"/>
  <path class="cls-12" d="M172.64,539.91c.62-.76,1.53-1.32,1.23-2.58-.14-.6,.32-1.07,1.03-1,.64,.06,.78,.52,.78,1.07,.01,.75-.29,1.51,1,1.74,.78,.14,.74,1.35-.06,1.51-1.25,.25-.98,1.02-.99,1.77-.01,.75,.03,1.5-.01,2.25-.05,1,.04,1.84,1.29,2.05,.59,.1,1.09,.45,.81,1.17-.23,.6-.67,.69-1.36,.55-1.64-.34-2.55-1.18-2.56-2.9,0-1-.15-2.01-.02-2.99,.13-1.03-.33-1.58-1.12-2.02-.16-.2-.17-.4-.02-.61Z"/>
  <path class="cls-12" d="M334.56,536.67c-.09,.25-.2,.6-.32,.95-1.17,3.34-2.33,6.68-3.5,10.02-.22,.62-.38,1.5-1.29,1.26-1.05-.27-.73-1.14-.49-1.85,1.23-3.52,2.48-7.03,3.73-10.54,.2-.55,.46-1.06,1.18-.93,.52,.09,.69,.48,.7,1.07Z"/>
  <path class="cls-12" d="M127.3,542.32c0-1.8,0-3.6,0-5.4,0-.65,.06-1.33,.92-1.32,.83,0,.94,.66,.94,1.32,0,3.42,.01,6.83,0,10.25,0,.7-.04,1.49-.97,1.5-1.01,0-.88-.82-.87-1.5,0-1.61,0-3.23,0-4.84-.01,0-.02,0-.03,0Z"/>
  <path class="cls-23" d="M172.64,539.91c0,.2,.02,.41,.02,.61-.4,.24-.66,.62-1.24,.69-2.59,.32-2.6,.38-2.6,3.02,0,1.12,.01,2.25-.02,3.37-.01,.63-.28,1.11-1.01,1.06-.65-.04-.78-.53-.79-1.07-.03-2.56-.06-5.11-.06-7.67,0-.53,.47-1.27,.81-.93,1.23,1.23,2.52,.16,3.74,.34,.4,.06,.76,.37,1.14,.56Z"/>
  <path class="cls-5" d="M180.93,543.8c0,1.24,0,2.48,0,3.72,0,.62-.17,1.14-.89,1.16-.71,.01-.95-.49-.95-1.11,0-2.48,.02-4.96,.03-7.44,0-.62,.21-1.15,.91-1.15,.84,0,.95,.63,.95,1.3,0,1.18,0,2.36,0,3.53-.02,0-.04,0-.06,0Z"/>
  <path class="cls-27" d="M181.14,536.74c-.15,.67-.48,1.15-1.24,1.07-.66-.07-.92-.54-.9-1.16,.02-.61,.31-1.06,.99-1.07,.79-.02,1.01,.53,1.15,1.16Z"/>
  <path class="cls-6" d="M67.05,494.77c0-2.59,0-5.19,0-7.78,0-.65-.21-1.54,.8-1.59,1.11-.06,1.02,.89,1.03,1.62,.01,3.25,0,6.49-.03,9.74,0,.67,.07,1.45-.81,1.69-.87,.24-1.37-.27-1.82-.95-1.8-2.76-3.63-5.5-5.66-8.58-.37,2.32,.02,4.26-.09,6.18-.07,1.15,.92,3.15-.92,3.22-1.55,.06-.78-1.89-.85-2.94-.16-2.61-.16-5.24-.19-7.86,0-.74-.04-1.59,.88-1.86,.84-.25,1.21,.5,1.62,1.01,2.09,2.6,3.85,5.43,6.04,8.1Z"/>
  <path class="cls-6" d="M81.79,493.46c0-1.18-.01-2.37,0-3.55,0-.6,.34-1.42,.88-1.12,1.79,1.02,4.1-1.3,5.63,1,.28,.42,.6-.21,.89-.37,2.71-1.63,5.03-.46,5.22,2.68,.1,1.68,.07,3.37,.1,5.05,.01,.58,0,1.2-.74,1.29-.84,.1-1.08-.54-1.11-1.19-.06-1.56-.02-3.12-.07-4.68-.03-.91,.06-2.11-1.36-1.93-1.21,.15-2.28,.71-2.26,2.23,.02,1.43,.04,2.87,.07,4.3,.02,.71-.17,1.29-.99,1.28-.73-.02-.83-.62-.85-1.22-.05-1.62-.06-3.24-.18-4.86-.06-.82,.01-1.94-1.34-1.75-1.14,.16-1.95,.73-1.93,2.06,.03,1.37,.05,2.75,0,4.12-.03,.71,.04,1.68-1.05,1.63-1.01-.04-.8-.94-.81-1.59-.03-1.12,0-2.25,0-3.37-.04,0-.07,0-.11,0Z"/>
  <path class="cls-33" d="M146.41,495.35c0-1.81-.03-3.62,.01-5.42,.03-.99,.45-1.73,1.42-.76,.62,.61,.9,.05,1.25-.12,.84-.41,1.7-.45,2.54-.2,2.21,.68,3.66,3.78,3.03,6.36-.56,2.28-2.68,3.76-5.12,3.23-1.37-.3-1.32,.19-1.35,1.19-.03,.93,.56,2.54-1.03,2.48-1.41-.06-.73-1.58-.8-2.46-.1-1.42-.03-2.86-.03-4.29,.03,0,.06,0,.09,0Z"/>
  <path class="cls-6" d="M345.37,492.08c.09,1.53-.18,2.98-.94,4.31-1.53,2.67-4.77,2.87-6.65,.44-1.84-2.38-1.95-6.86-.24-9.34,1.92-2.77,5.61-2.47,7.06,.6,.59,1.26,.87,2.59,.77,3.99Z"/>
  <path class="cls-6" d="M109.52,492.1c0,1.68,.02,3.36,0,5.04-.02,1.08-.39,1.85-1.54,.97-.53-.4-.81,0-1.13,.1-1.78,.61-3.37,.34-4.53-1.15-1.41-1.82-1.59-3.89-.54-5.96,.83-1.64,2.25-2.74,4.07-2.29,1.91,.47,1.86-.42,1.73-1.71-.02-.18,0-.37,0-.56,0-.63,.21-1.15,.91-1.17,.73-.03,.91,.49,.91,1.12,0,1.87,0,3.73,0,5.6,.05,0,.09,0,.14,0Z"/>
  <path class="cls-6" d="M113.35,494.71c1.4,2.01,2.73,2.38,4.89,1.54,.72-.28,1.48-.7,1.84,.33,.29,.86-.47,1.22-1.11,1.44-2.09,.73-4.18,.85-5.99-.66-1.53-1.28-1.92-3-1.37-4.91,.61-2.15,2.43-3.44,4.77-3.38,2.22,.05,3.8,1.41,4.34,3.65,.32,1.34-.04,2.04-1.53,2-1.85-.04-3.7,0-5.83,0Z"/>
  <path class="cls-6" d="M353.31,492.63c-.43,.22-.69,.36-.96,.49-1.54,.72-3.07,.71-4.35-.45-1.29-1.17-1.74-2.67-1.15-4.41,.58-1.72,1.84-2.54,3.55-2.89,1.51-.31,2.76,.55,4.13,.83,.53,.11,.6,.72,.59,1.25-.05,3.17-.07,6.35-.13,9.52-.01,.72-.19,1.5-1.1,1.4-.77-.08-.81-.82-.77-1.47,.06-1.36,.12-2.72,.19-4.26Z"/>
  <path class="cls-33" d="M185,494.71c1.06,1.96,2.44,2.37,4.61,1.59,.64-.23,1.44-.93,1.86,.19,.41,1.09-.55,1.33-1.29,1.61-3.02,1.16-6.04,.04-7.04-2.6-.92-2.43,.29-5.14,2.74-6.13,2.76-1.12,5.73,.48,6.29,3.38,.26,1.32-.08,2.03-1.58,1.98-1.83-.07-3.66-.02-5.61-.02Z"/>
  <path class="cls-6" d="M164.72,495.34c0,.62,.03,1.24,0,1.86-.06,1.1-.59,1.79-1.58,.9-.6-.55-.83-.14-1.21,.03-1.64,.69-3.18,.51-4.5-.66-1.36-1.21-1.54-2.8-.98-4.44,.6-1.75,1.6-3.21,3.39-3.98,2.19-.95,4.33,.23,4.62,2.59,.15,1.23,.22,2.47,.33,3.71-.02,0-.04,0-.06,0Z"/>
  <path class="cls-6" d="M139.25,494.83c0,1.16,0,1.84,0,2.53-.01,.74-.67,1.48-1.08,1.04-1.02-1.12-1.73-.09-2.55,.06-3.1,.59-5.6-1.99-4.79-5.06,.37-1.39,1.1-2.63,2.24-3.57,1.17-.97,2.41-1.43,3.94-.87,1.53,.56,2,1.7,2.05,3.19,.04,1.05,.14,2.1,.19,2.68Z"/>
  <path class="cls-6" d="M75.47,488.72c2.72,.04,4.46,1.88,4.41,4.65-.05,2.75-2.09,4.91-4.59,4.88-2.26-.03-4.14-2.26-4.05-4.91,.08-2.57,1.98-5.13,4.23-4.61Z"/>
  <path class="cls-6" d="M325.17,487.21c-1.8,0-3.17,0-4.53,0-.72,0-1.47-.02-1.46-.99,0-.87,.69-.88,1.35-.88,1.68,0,3.37,0,5.05,0,1.47,0,1.83,.8,1.47,2.07-.12,.41-.27,.84-.52,1.18-1.92,2.56-3.27,5.43-4.52,8.35-.28,.66-.53,1.6-1.54,1.16-1.07-.46-.42-1.27-.16-1.91,1.26-3.04,2.76-5.96,4.88-9Z"/>
  <path class="cls-5" d="M315.35,489.25c-.7,.21-1.4,.44-2.1,.61-.54,.12-1.02-.04-1.17-.63-.16-.59,.2-1.03,.71-1.13,1.01-.2,1.69-.65,2.03-1.67,.2-.59,.58-1.18,1.35-1.04,.85,.16,.98,.93,1.01,1.6,.07,1.56,.04,3.12,.04,4.67,0,1.81,0,3.62-.03,5.42-.01,.63-.08,1.36-.92,1.37-1.02,0-.91-.83-.91-1.5,0-2.55,0-5.11,0-7.7Z"/>
  <path class="cls-12" d="M172.64,489.69c.62-.76,1.53-1.32,1.23-2.58-.14-.6,.32-1.07,1.03-1,.64,.06,.78,.52,.78,1.07,.01,.75-.29,1.51,1,1.74,.78,.14,.74,1.35-.06,1.51-1.25,.25-.98,1.02-.99,1.77-.01,.75,.03,1.5-.01,2.25-.05,1,.04,1.84,1.29,2.05,.59,.1,1.09,.45,.81,1.17-.23,.6-.67,.69-1.36,.55-1.64-.34-2.55-1.18-2.56-2.9,0-1-.15-2.01-.02-2.99,.13-1.03-.33-1.58-1.12-2.02-.16-.2-.17-.4-.02-.62Z"/>
  <path class="cls-12" d="M334.54,486.5c-.05,.17-.14,.47-.24,.76-1.19,3.4-2.37,6.8-3.58,10.19-.22,.62-.39,1.49-1.31,1.22-1.05-.31-.68-1.19-.44-1.87,1.21-3.46,2.45-6.91,3.67-10.36,.22-.62,.44-1.23,1.26-1.06,.5,.1,.68,.5,.64,1.12Z"/>
  <path class="cls-12" d="M127.3,492.1c0-1.8,0-3.6,0-5.4,0-.65,.06-1.33,.92-1.32,.83,0,.94,.66,.94,1.32,0,3.42,.01,6.83,0,10.25,0,.7-.04,1.49-.97,1.5-1.01,0-.88-.82-.87-1.5,0-1.61,0-3.23,0-4.84-.01,0-.02,0-.03,0Z"/>
  <path class="cls-23" d="M172.64,489.69c0,.21,.02,.41,.02,.62-.4,.24-.66,.62-1.24,.69-2.59,.32-2.6,.38-2.6,3.02,0,1.12,.01,2.25-.02,3.37-.01,.63-.28,1.11-1.01,1.06-.65-.04-.78-.53-.79-1.07-.03-2.56-.06-5.11-.06-7.67,0-.53,.47-1.27,.81-.93,1.23,1.23,2.52,.16,3.74,.34,.4,.06,.76,.37,1.14,.56Z"/>
  <path class="cls-5" d="M180.93,493.58c0,1.24,0,2.48,0,3.72,0,.62-.18,1.14-.9,1.15-.71,0-.95-.49-.95-1.12,0-2.48,.02-4.96,.03-7.44,0-.62,.22-1.15,.92-1.15,.84,0,.95,.64,.95,1.3,0,1.18,0,2.36,0,3.53-.02,0-.04,0-.06,0Z"/>
  <path class="cls-27" d="M181.14,486.52c-.15,.67-.48,1.15-1.24,1.07-.66-.07-.92-.54-.9-1.16,.02-.61,.31-1.06,.99-1.07,.79-.02,1.01,.53,1.15,1.16Z"/>
  <path d="M220.7,661.88c1.19,3.05,4.39,4.17,7.74,2.91,.4-.15,.76-.43,1.16-.59,.85-.32,1.63-.22,2.09,.65,.41,.78,.16,1.55-.54,1.97-3.09,1.85-6.37,2-9.64,.62-2.77-1.18-4.37-4.15-4.2-7.29,.18-3.32,2.25-6.14,5.31-7.22,4.75-1.68,9.76,1.4,10.35,6.38,.21,1.81-.42,2.56-2.22,2.57-3.3,.02-6.6,0-10.06,0Z"/>
  <path d="M190.71,652.13c4.59,.16,7.61,3.26,7.4,7.76-.17,3.74-2.84,8.48-8.17,8.05-3.52-.28-6.33-4-6.15-8.46,.18-4.44,3.05-7.49,6.92-7.35Z"/>
  <path d="M176.76,655.06c0-1.43-.04-2.87,.01-4.3,.04-.98-.34-1.36-1.31-1.25-.49,.06-1,.02-1.49,0-.99-.04-1.52-.63-1.49-1.55,.02-.81,.51-1.43,1.41-1.43,2.62-.02,5.24-.03,7.85,0,.88,.01,1.39,.61,1.38,1.45-.01,.92-.55,1.66-1.51,1.49-1.95-.34-1.91,.75-1.82,2.12,.24,3.61,.29,7.23-.41,10.8-.72,3.7-3.22,5.72-6.78,5.55-3.1-.15-5.19-2.36-5.21-5.45,0-.94,.32-1.6,1.3-1.72,.98-.12,1.58,.43,1.69,1.35,.21,1.66,.69,2.92,2.72,2.81,1.8-.1,2.86-1.07,3.31-3.18,.47-2.21,.5-4.45,.35-6.7Z"/>
  <path class="cls-33" d="M214.03,660.27c0,1.99,0,3.99,0,5.98,0,.88-.22,1.66-1.13,1.94-.82,.25-1.47-.06-1.77-.92-.16-.46-.37-.42-.82-.23-5.07,2.1-8.15,.31-9.11-5.32-.45-2.61-.13-5.23,.09-7.84,.08-.98,.65-1.73,1.68-1.61,1.1,.13,1.55,.98,1.37,2.06-.31,1.86-.25,3.73-.26,5.6,0,1.14,.31,2.21,.77,3.24,.49,1.09,1.19,2.05,2.45,1.99,1.31-.06,2.52-.53,3.21-1.87,1.07-2.08,.46-4.29,.57-6.44,.05-.93-.06-1.87-.11-2.8-.05-.99,.26-1.79,1.34-1.89,1.19-.11,1.69,.69,1.72,1.74,.05,2.12,.01,4.24,.01,6.36,0,0-.02,0-.03,0Z"/>
  <path class="cls-6" d="M235.75,660c0-1.93,0-3.86,0-5.79,0-.92,.1-1.81,1.19-2.04,.9-.19,1.6,.18,1.86,1.12,.26,.95,.61,.36,.98,.11,1.07-.71,2.25-1.02,3.54-.89,.96,.1,1.7,.43,1.72,1.55,.01,1.15-.64,1.45-1.69,1.47-.8,0-1.63,.12-2.38,.38-1.34,.46-2.16,1.35-2.11,2.91,.08,2.3,.07,4.61,.11,6.91,.02,1.16,.08,2.43-1.51,2.48-1.69,.06-1.52-1.34-1.55-2.42-.05-1.93-.02-3.86-.02-5.79-.04,0-.09,0-.13,0Z"/>
  <path class="cls-6" d="M67.05,443.76c0-2.61,0-5.23,0-7.84,0-.68-.11-1.52,.9-1.5,.96,.02,.93,.85,.93,1.54,0,3.31,0,6.62-.03,9.93,0,.61,.02,1.32-.73,1.56-.84,.27-1.4-.14-1.85-.85-1.34-2.1-2.72-4.18-4.09-6.26-.47-.71-.98-1.39-1.66-2.36,0,2.33,0,4.29,0,6.25,0,.75,.05,1.5,.01,2.24-.03,.52-.25,.99-.88,1.02-.63,.03-.93-.4-.94-.94-.08-3.56-.14-7.11-.15-10.67,0-.47,.17-1.01,.75-1.19,.76-.23,1.13,.3,1.53,.79,2.16,2.65,3.99,5.54,6.22,8.28Z"/>
  <path class="cls-6" d="M81.79,442.53c0-1.18,0-2.37,0-3.55,0-.6,.33-1.45,.84-1.15,1.79,1.07,4.09-1.32,5.65,.97,.35,.52,.7-.26,1.03-.45,2.51-1.48,4.86-.35,5.08,2.56,.14,1.8,.1,3.62,.13,5.43,0,.52-.08,1.04-.71,1.14-.73,.11-1.08-.38-1.11-.98-.08-1.62-.04-3.24-.11-4.86-.04-.9,.09-2.11-1.33-1.97-1.22,.13-2.29,.69-2.29,2.2,0,1.43,.04,2.87,.08,4.3,.02,.7-.14,1.3-.95,1.31-.73,0-.86-.58-.88-1.18-.06-1.68-.1-3.36-.2-5.04-.05-.81-.07-1.74-1.29-1.61-1.1,.12-1.91,.68-1.96,1.86-.06,1.43,.04,2.87,0,4.31-.02,.71,.06,1.7-1.02,1.66-1.14-.04-.81-1.05-.84-1.74-.04-1.06-.01-2.12-.01-3.18-.04,0-.07,0-.11,0Z"/>
  <path class="cls-33" d="M146.41,444.36c0-1.81-.04-3.62,.02-5.42,.03-1,.45-1.7,1.44-.72,.51,.51,.75,.12,1.08-.06,.87-.47,1.79-.56,2.7-.26,2.21,.71,3.65,3.81,3,6.37-.58,2.27-2.69,3.74-5.14,3.2-1.41-.31-1.28,.27-1.33,1.22-.05,.93,.56,2.54-1.06,2.45-1.38-.08-.71-1.6-.77-2.49-.1-1.42-.03-2.86-.03-4.29,.03,0,.06,0,.09,0Z"/>
  <path class="cls-6" d="M345.36,441.16c.1,1.5-.18,2.84-.82,4.07-1.49,2.89-4.94,3.13-6.86,.52-1.74-2.38-1.82-6.77-.16-9.2,1.91-2.79,5.61-2.52,7.06,.53,.63,1.31,.91,2.71,.78,4.07Z"/>
  <path class="cls-6" d="M109.52,440.96c0,1.74,.02,3.49,0,5.23-.02,1.08-.4,1.84-1.55,.94-.46-.36-.69-.04-.96,.06-1.82,.67-3.43,.43-4.71-1.1-1.36-1.63-1.51-4.26-.43-6.15,.97-1.69,2.59-2.57,4.56-2.05,1.27,.33,1.19-.2,1.15-1.03-.02-.43,0-.87,0-1.31,0-.63,.22-1.14,.93-1.15,.73,0,.89,.52,.89,1.15,0,1.8,0,3.61,0,5.41,.05,0,.09,0,.14,0Z"/>
  <path class="cls-6" d="M113.5,443.74c1.08,1.95,2.46,2.37,4.62,1.59,.65-.24,1.47-.89,1.89,.17,.42,1.07-.54,1.34-1.28,1.62-2.52,.98-5.27,.3-6.55-1.6-1.25-1.86-1.03-4.37,.55-6.02,1.4-1.46,3.15-1.76,4.98-1.22,1.75,.52,2.71,1.9,3.05,3.69,.23,1.18-.2,1.79-1.46,1.76-.93-.03-1.87,0-2.81,0-.93,0-1.87,0-3,0Z"/>
  <path class="cls-6" d="M353.13,441.8c-.16,.04-.34,.07-.5,.14-2.23,1.01-3.82,.81-5.05-.66-1.19-1.43-1.3-3.47-.26-5.03,1.07-1.6,3.34-2.22,5.31-1.71,1.88,.49,2.74,1.4,2.57,3.44-.21,2.6-.14,5.23-.21,7.84-.02,.76-.11,1.68-1.13,1.55-.86-.11-.75-.97-.74-1.67,.02-1.29,0-2.59,0-3.91Z"/>
  <path class="cls-33" d="M184.99,443.74c1.1,1.97,2.45,2.37,4.64,1.59,.64-.23,1.45-.91,1.85,.2,.4,1.1-.58,1.32-1.31,1.6-3.03,1.16-6.04,.03-7.03-2.61-.91-2.43,.31-5.14,2.76-6.12,2.82-1.14,5.9,.62,6.32,3.58,.16,1.15-.14,1.8-1.44,1.78-1.86-.04-3.73-.01-5.8-.01Z"/>
  <path class="cls-6" d="M164.7,444.23c0,.56,0,1.12,0,1.68,.01,1.34-.27,2.26-1.73,1.05-.57-.48-.77,.11-1.09,.23-1.58,.61-3.05,.45-4.36-.61-1.37-1.11-1.6-2.66-1.18-4.24,.38-1.45,1.18-2.73,2.42-3.66,1.16-.87,2.37-1.22,3.81-.66,1.43,.56,1.91,1.63,1.96,3.05,.04,1.05,.15,2.1,.23,3.15-.02,0-.04,0-.06,0Z"/>
  <path class="cls-6" d="M139.24,444.3c0,.62,.02,1.24,0,1.86-.05,1.24-.54,1.89-1.66,.88-.54-.49-.74-.06-1.07,.08-1.71,.74-3.31,.56-4.65-.72-1.37-1.31-1.45-2.94-.79-4.64,.65-1.68,1.67-3.04,3.38-3.76,2.1-.87,4.23,.34,4.51,2.58,.15,1.23,.22,2.47,.33,3.7h-.06Z"/>
  <path class="cls-6" d="M75.45,437.75c2.73,.04,4.47,1.86,4.43,4.63-.04,2.75-2.06,4.92-4.56,4.9-2.26-.02-4.14-2.22-4.08-4.89,.06-2.52,1.93-5.14,4.2-4.64Z"/>
  <path class="cls-6" d="M325.2,436.24c-1.83,0-3.2,0-4.57,0-.73,0-1.46-.03-1.45-1,.01-.88,.71-.87,1.36-.87,1.68,0,3.37,0,5.05,0,1.47,0,1.82,.82,1.45,2.09-.12,.41-.28,.84-.53,1.18-1.92,2.56-3.26,5.43-4.52,8.35-.29,.66-.54,1.59-1.55,1.15-1.06-.47-.41-1.28-.14-1.91,1.29-3.02,2.72-5.97,4.9-8.99Z"/>
  <path class="cls-5" d="M315.35,438.24c-.72,.24-1.29,.48-1.88,.62-.57,.13-1.19,.11-1.38-.58-.19-.67,.24-1.12,.85-1.21,1.08-.16,1.6-.82,1.95-1.75,.21-.54,.58-1,1.25-.91,.78,.11,.97,.79,1.01,1.39,.09,1.3,.07,2.61,.07,3.92,0,2.12,0,4.24-.03,6.36-.01,.7-.1,1.49-1.07,1.39-.86-.09-.76-.85-.76-1.46,0-2.55,0-5.11,0-7.77Z"/>
  <path class="cls-12" d="M172.64,438.72c.62-.76,1.53-1.32,1.23-2.58-.14-.6,.32-1.07,1.03-1,.64,.06,.78,.52,.78,1.07,.01,.75-.29,1.51,1,1.74,.78,.14,.74,1.35-.06,1.51-1.25,.25-.98,1.02-.99,1.77-.01,.75,.03,1.5-.01,2.25-.05,1,.04,1.84,1.29,2.05,.59,.1,1.09,.45,.81,1.17-.23,.6-.67,.69-1.36,.55-1.64-.34-2.55-1.18-2.56-2.9,0-1-.15-2.01-.02-2.99,.13-1.03-.33-1.58-1.12-2.02-.16-.2-.17-.4-.02-.62Z"/>
  <path class="cls-12" d="M329.58,447.79c-.66-.24-1.04-.62-.76-1.4,1.32-3.75,2.62-7.51,3.93-11.25,.18-.51,.53-.89,1.13-.73,.71,.19,.8,.77,.6,1.34-1.3,3.75-2.63,7.5-3.96,11.24-.15,.43-.44,.74-.94,.8Z"/>
  <path class="cls-12" d="M127.3,440.94c0-1.74,0-3.48,0-5.22,0-.65,.06-1.33,.92-1.32,.83,0,.95,.66,.95,1.32,0,3.42,.01,6.83,0,10.25,0,.7-.03,1.49-.97,1.5-1.01,0-.88-.81-.88-1.5,0-1.68,0-3.35,0-5.03-.01,0-.02,0-.03,0Z"/>
  <path class="cls-23" d="M172.64,438.72l.02,.62c-.4,.24-.66,.62-1.24,.69-2.59,.32-2.6,.38-2.6,3.02,0,1.12,.01,2.25-.02,3.37-.01,.63-.28,1.11-1.01,1.06-.65-.04-.78-.53-.79-1.07-.03-2.56-.06-5.11-.06-7.67,0-.53,.47-1.27,.81-.93,1.23,1.23,2.52,.16,3.74,.34,.4,.06,.76,.37,1.14,.56Z"/>
  <path class="cls-5" d="M180.93,442.67c0,1.18,0,2.36,0,3.53,0,.67-.1,1.3-.95,1.28-.7-.02-.9-.55-.9-1.17,.01-2.48,.02-4.96,.04-7.44,0-.63,.26-1.12,.97-1.09,.72,.03,.89,.57,.89,1.17,0,1.24,0,2.48,0,3.72-.02,0-.04,0-.06,0Z"/>
  <path class="cls-27" d="M181.15,435.47c-.14,.72-.46,1.21-1.21,1.15-.66-.05-.94-.51-.93-1.13,0-.62,.28-1.06,.95-1.11,.79-.05,1,.53,1.19,1.08Z"/>
  <path class="cls-36" d="M361.27,30.8c.4,0,.65,0,.9,0,2.3,0,2.77,.66,2.3,3.01-.12,.61-.42,.66-.89,.65-.99,0-2-.1-2.98,.02-1.65,.2-2.15-.31-2.16-2.06-.02-2.79,1.99-1.13,2.83-1.62Z"/>
  <path class="cls-14" d="M148.28,592.81c0-2.05,.91-3.16,2.42-3.1,1.28,.05,2.21,1.4,2.2,3.19-.01,1.73-1,2.78-2.6,2.7-1.88-.1-2.13-1.39-2.02-2.78Z"/>
  <path class="cls-14" d="M343.52,591.05c.08,1.14-.11,2.23-.68,3.24-.91,1.61-2.46,1.73-3.61,.28-1.35-1.69-1.4-5.56-.09-7.27,.99-1.29,2.95-1.14,3.71,.3,.56,1.07,.76,2.24,.67,3.44Z"/>
  <path class="cls-14" d="M107.63,592.3c0,2.48-.64,3.29-2.32,3.26-1.39-.03-2.32-1.26-2.3-3.03,.02-1.74,1.17-3.05,2.64-2.97,2.02,.11,2.16,1.48,1.98,2.74Z"/>
  <path class="cls-3" d="M113.51,591.72c.64-1.36,1.55-1.94,2.87-1.86,1.17,.07,1.94,.63,2.35,1.86h-5.22Z"/>
  <path class="cls-3" d="M351.18,586.17c.75,.11,1.78-.04,1.78,1.38,0,1.66-1.2,3.16-2.58,3.07-1.26-.08-1.86-.93-1.93-2.1-.08-1.3,1.1-2.32,2.73-2.35Z"/>
  <path class="cls-3" d="M190.25,591.8c-1.48,0-2.77,.01-4.07,0-.34,0-.83,.21-.99-.17-.19-.46,.28-.77,.58-1.05,1.38-1.29,3.32-.83,4.49,1.23Z"/>
  <path class="cls-15" d="M162.82,593.1c.03,1.39-1.05,2.43-2.6,2.44-1.3,0-2.13-.55-2.17-1.96-.05-1.65,1.67-3.86,3.07-3.97,1.2-.09,1.63,.79,1.7,3.49Z"/>
  <path class="cls-15" d="M137.35,592.91c.03,1.58-1.09,2.63-2.63,2.63-1.31,0-2.12-.59-2.14-1.99-.03-1.66,1.72-4.01,3.1-3.91,2.4,.18,1.16,2.29,1.67,3.27Z"/>
  <path class="cls-37" d="M78.03,592.27c0,1.65-1.08,2.9-2.49,2.9-1.41,0-2.44-1.25-2.43-2.94,0-1.59,.98-2.69,2.38-2.7,1.6,0,2.55,1.01,2.54,2.74Z"/>
  <path class="cls-14" d="M152.9,544.14c0,1.74-.96,2.8-2.57,2.73-1.88-.08-2.1-1.35-2.07-2.87,.05-1.96,.87-3.06,2.4-3.02,1.29,.03,2.24,1.37,2.24,3.15Z"/>
  <path class="cls-14" d="M343.52,542.32c.03,.92-.04,1.65-.3,2.37-.38,1.03-.77,2.02-2.05,2.13-1.37,.11-2.05-.83-2.47-1.9-.69-1.73-.74-3.52-.08-5.3,.42-1.12,1.02-1.87,2.44-1.84,1.4,.03,1.77,.9,2.13,1.93,.32,.9,.4,1.82,.34,2.6Z"/>
  <path class="cls-14" d="M107.63,543.75c.22,2.36-.31,2.82-2.19,3.06-1.41,.18-2.39-1.09-2.43-2.88-.03-1.74,1.05-3.08,2.51-3.1,1.56-.03,2.11,.73,2.11,2.92Z"/>
  <path class="cls-3" d="M113.51,542.97c.57-1.22,1.39-1.83,2.62-1.84,1.24-.01,2.12,.5,2.58,1.84h-5.21Z"/>
  <path class="cls-3" d="M352.97,538.84c0,1.61-1.09,3.03-2.43,3.04-1.37,.01-2.01-.87-2.08-2.12-.07-1.3,1.12-2.31,2.61-2.31,.95,0,1.91,.06,1.9,1.39Z"/>
  <path class="cls-3" d="M190.21,542.99h-5.22c.58-1.24,1.4-1.84,2.62-1.86,1.23-.02,2.12,.48,2.59,1.86Z"/>
  <path class="cls-15" d="M162.81,544.16c.05,1.59-1.03,2.63-2.57,2.66-1.29,.02-2.14-.52-2.19-1.93-.07-1.73,1.82-4.19,3.23-3.98,2.17,.32,1.09,2.26,1.53,3.25Z"/>
  <path class="cls-15" d="M137.34,544.11c.06,1.65-.95,2.66-2.53,2.71-1.29,.03-2.16-.48-2.23-1.89-.09-1.72,1.77-4.18,3.19-4.01,2.2,.26,1.12,2.23,1.57,3.2Z"/>
  <path class="cls-37" d="M78.03,543.6c-.02,1.65-1.12,2.88-2.55,2.85-1.4-.03-2.42-1.31-2.38-2.99,.04-1.61,1-2.66,2.43-2.65,1.58,.01,2.52,1.07,2.5,2.79Z"/>
  <path class="cls-14" d="M148.28,493.77c0-1.95,.88-3.05,2.4-3,1.28,.04,2.22,1.39,2.22,3.17,0,1.74-.98,2.76-2.59,2.72-1.48-.03-2.03-.82-2.03-2.89Z"/>
  <path class="cls-14" d="M343.52,492.1c.03,.92-.04,1.65-.3,2.37-.38,1.03-.77,2.02-2.05,2.13-1.37,.11-2.05-.83-2.47-1.9-.69-1.73-.74-3.52-.08-5.3,.42-1.12,1.02-1.87,2.44-1.84,1.4,.03,1.77,.9,2.13,1.93,.32,.9,.4,1.82,.34,2.6Z"/>
  <path class="cls-14" d="M107.63,493.35c0,2.5-.58,3.27-2.27,3.26-1.41,0-2.35-1.21-2.35-2.99,0-1.74,1.12-3.07,2.6-3.01,2,.08,2.22,1.41,2.02,2.74Z"/>
  <path class="cls-3" d="M118.76,492.83h-5.13c.24-1.21,1.08-1.72,2.12-1.88,1.36-.2,2.42,.27,3.01,1.88Z"/>
  <path class="cls-3" d="M352.97,488.64c-.01,1.61-1.11,3.03-2.45,3.02-1.37,0-2.09-.9-2.03-2.14,.07-1.51,1.06-2.31,2.61-2.29,.96,.01,1.91,.08,1.88,1.41Z"/>
  <path class="cls-3" d="M190.23,492.79h-5.25c.59-1.3,1.44-1.9,2.75-1.88,1.25,.02,2.04,.61,2.5,1.88Z"/>
  <path class="cls-15" d="M162.81,493.93c.04,1.61-1.04,2.65-2.59,2.66-1.3,.01-2.13-.55-2.18-1.95-.05-1.65,1.67-4.02,3.07-3.94,2.42,.13,1.2,2.26,1.7,3.23Z"/>
  <path class="cls-15" d="M137.34,493.89c.05,1.62-.98,2.66-2.54,2.7-1.29,.03-2.15-.49-2.22-1.9-.09-1.72,1.78-4.18,3.2-4.01,2.19,.28,1.11,2.23,1.56,3.21Z"/>
  <path class="cls-37" d="M75.57,490.59c1.58,.03,2.5,1.09,2.46,2.83-.04,1.64-1.16,2.86-2.58,2.81-1.39-.05-2.4-1.36-2.35-3.03,.06-1.63,1.01-2.64,2.47-2.61Z"/>
  <path class="cls-14" d="M229.58,658.85h-8.57c.46-1.89,1.98-3.18,3.89-3.34,2.13-.17,3.74,.93,4.68,3.34Z"/>
  <path class="cls-35" d="M190.73,655.13c2.67,.01,4.4,1.88,4.37,4.71-.02,2.57-1.97,4.73-4.27,4.73-2.52,0-4.02-1.9-3.98-5.01,.04-2.78,1.49-4.44,3.88-4.43Z"/>
  <path class="cls-14" d="M148.28,442.75c0-1.91,.76-2.9,2.26-2.95,1.36-.05,2.38,1.34,2.36,3.21-.02,1.66-.92,2.64-2.45,2.68-1.57,.04-2.18-.78-2.18-2.93Z"/>
  <path class="cls-14" d="M343.52,441.04c.08,1.17-.09,2.26-.65,3.28-.93,1.7-2.57,1.81-3.73,.26-1.22-1.63-1.27-5.2-.17-6.97,.54-.87,1.3-.99,2.22-1,1.02-.01,1.46,.59,1.78,1.36,.41,.99,.64,2.02,.53,3.08Z"/>
  <path class="cls-14" d="M107.63,442.37c0,2.51-.56,3.26-2.25,3.27-1.42,0-2.36-1.18-2.37-2.96,0-1.75,1.1-3.08,2.57-3.04,2,.06,2.23,1.39,2.05,2.73Z"/>
  <path class="cls-3" d="M118.74,441.81h-5.24c.56-1.23,1.38-1.84,2.61-1.87,1.24-.03,2.13,.48,2.64,1.87Z"/>
  <path class="cls-3" d="M351.25,436.25c.75,.09,1.75,.01,1.71,1.43-.04,1.59-1.1,3.01-2.45,3.01-1.37,0-2.01-.89-2.06-2.14-.05-1.31,1.14-2.29,2.79-2.3Z"/>
  <path class="cls-3" d="M184.99,441.82c.67-1.42,1.6-1.96,2.91-1.86,1.15,.09,1.93,.63,2.29,1.86h-5.2Z"/>
  <path class="cls-15" d="M162.82,443.16c.04,1.41-1.02,2.44-2.57,2.46-1.29,.02-2.14-.53-2.19-1.93-.07-1.73,1.81-4.05,3.23-4.01,1.08,.03,1.46,.89,1.53,3.48Z"/>
  <path class="cls-15" d="M137.33,442.67c.11,1.8-.8,2.86-2.44,2.95-1.26,.07-2.19-.39-2.31-1.81-.15-1.68,1.65-4.16,3.11-4.09,2.17,.1,1.23,2.01,1.64,2.95Z"/>
  <path class="cls-37" d="M78.03,442.32c.01,1.64-1.05,2.91-2.46,2.93-1.42,.02-2.45-1.2-2.46-2.91,0-1.58,.97-2.71,2.35-2.73,1.61-.02,2.56,.98,2.57,2.71Z"/>
</svg>