<?xml version="1.0" encoding="UTF-8"?>
<svg id="Calque_1" data-name="Calque 1" xmlns="http://www.w3.org/2000/svg" viewBox="0 0 409.06 805">
  <defs>
    <style>
      .cls-1 {
        fill: #f0f0f0;
      }

      .cls-2 {
        fill: #6c6c6c;
      }

      .cls-3 {
        fill: #090909;
      }

      .cls-4 {
        fill: #fafafa;
      }

      .cls-5 {
        fill: #f6f6f6;
      }

      .cls-6 {
        fill: #0c0c0c;
      }

      .cls-7 {
        fill: #f5f5f5;
      }

      .cls-8 {
        fill: #040404;
      }

      .cls-9 {
        fill: #020202;
      }

      .cls-10 {
        fill: #151515;
      }

      .cls-11 {
        fill: #0a0a0a;
      }

      .cls-12 {
        fill: #2f2f2f;
      }

      .cls-13 {
        fill: #dedede;
      }

      .cls-14 {
        fill: #313131;
      }

      .cls-15 {
        fill: #e6e6e6;
      }

      .cls-16 {
        fill: #e7e7e7;
      }

      .cls-17 {
        fill: #030303;
      }

      .cls-18 {
        fill: #080808;
      }

      .cls-19 {
        fill: #fdfdfd;
      }

      .cls-20 {
        fill: #e4e4e4;
      }

      .cls-21 {
        fill: #fbfbfb;
      }

      .cls-22 {
        fill: #f9f9f9;
      }

      .cls-23 {
        fill: #e5e5e5;
      }

      .cls-24 {
        fill: #171717;
      }

      .cls-25 {
        fill: #0e0e0e;
      }

      .cls-26 {
        fill: #d3d3d3;
      }

      .cls-27 {
        fill: #bebebe;
      }

      .cls-28 {
        fill: #202020;
      }

      .cls-29 {
        fill: #050505;
      }

      .cls-30 {
        fill: #353535;
      }

      .cls-31 {
        fill: #ccc;
      }

      .cls-32 {
        fill: #292929;
      }

      .cls-33 {
        fill: #0b0b0b;
      }

      .cls-34 {
        fill: #efefef;
      }

      .cls-35 {
        fill: #191919;
      }

      .cls-36 {
        fill: #bfbebe;
      }

      .cls-37 {
        fill: #070707;
      }

      .cls-38 {
        fill: #b5b5b5;
      }

      .cls-39 {
        fill: #f8f8f8;
      }

      .cls-40 {
        fill: #010101;
      }

      .cls-41 {
        fill: #c0bfbf;
      }

      .cls-42 {
        fill: #fefefe;
      }

      .cls-43 {
        fill: #060606;
      }

      .cls-44 {
        fill: #fcfcfc;
      }

      .cls-45 {
        fill: #ededed;
      }
    </style>
  </defs>
  <path class="cls-27" d="M75.67,0h42.33c.11,.26,.05,.46-.19,.6-1.18,.56-2.44,.34-3.67,.35-3.04,0-6.07,.07-9.11-.03-.24,0-.48,0-.72,0-8.87,.11-17.75,.03-26.62,.04-.62,0-1.24-.03-1.81-.34-.25-.15-.32-.35-.21-.62Z"/>
  <path class="cls-13" d="M118.01,.32c-.01-.11-.02-.21,0-.32h26.22c0,.11,0,.21,0,.32-.67,.76-1.59,.65-2.44,.65-7.11,.02-14.22,.02-21.34,0-.86,0-1.77,.1-2.44-.65Z"/>
  <path class="cls-13" d="M.31,110.2l-.15,.02-.15-.03v-19.86c.27-.11,.47-.04,.62,.21,.4,.75,.35,1.56,.35,2.36,.01,4.9,.02,9.79,0,14.69,0,.91,.16,1.89-.66,2.61Z"/>
  <path class="cls-13" d="M75.67,0c0,.1,0,.21-.01,.31-2.37,1.04-4.75,1.05-7.12,0,0-.1,0-.2,.01-.31h7.12Z"/>
  <path class="cls-38" d="M.31,90.34H.15s-.15-.01-.15-.01v-3c.11,0,.23,0,.34-.02,.78,1.02,.81,2.03-.03,3.03Z"/>
  <path class="cls-40" d="M118.01,.32c8.74,0,17.48,0,26.22,0,10.61,.03,21.22,.06,31.83,.07,30.34,.03,60.68,.05,91.01,.06,30.65,0,61.3-.09,91.95,.06,10.52,.05,20.51,2.53,29.34,8.6,9.48,6.52,14.85,15.73,17.31,26.8,1.05,4.71,1.47,9.5,1.48,14.31,.02,31.98,.01,63.96,0,95.93,0,1.17-.16,2.31,1.22,3,.71,.35,.69,1.25,.69,2.02,0,14.05,0,28.11,0,42.16,0,.7,.07,1.57-.56,1.89-1.53,.75-1.3,2.02-1.3,3.31,.04,22.36,.06,44.71,.1,67.07,.04,26.73,.1,53.46,.15,80.19,.06,31.54,.04,63.08,.19,94.62,.26,52.9,.16,105.8,.17,158.7,0,28.79,.03,57.58-.09,86.38-.09,23.1-.29,46.21-.61,69.31-.1,7.54-.47,15.14-2.55,22.45-3.37,11.85-10.6,20.34-22.51,24.3-5.02,1.67-10.35,1.69-15.56,1.96-19.7,1.03-39.42,1.02-59.14,1.19-.19,0-.37-.03-.56-.05-.73-1.01-.67-2.03-.08-3.07,.59-.44,1.28-.45,1.97-.47,.81-.02,1.62-.03,2.43,0,9.11,.26,18.22-.21,27.31-.49,8.17-.25,16.34-.04,24.51-.28,4.24-.12,8.45-.54,12.66-1.11,7.4-1,12.83-5.2,17.55-10.57,5.73-6.5,8.11-14.34,8.95-22.79,.43-4.36,.37-8.73,.37-13.09,0-26.48-.29-52.95,.09-79.42,.31-21.66,.12-43.32,.29-64.98,0-.81,0-1.62,.17-2.43,.39-1.22,.25-2.48,.25-3.72,0-116.63,0-233.26,0-349.9,0-1-.05-2,.05-2.99,.08-.75,.28-1.42,1-1.35-.84,.03-.99-.8-1.03-1.68-.06-1.25-.03-2.5-.03-3.75,0-9.55,0-19.11,0-28.66,0-.94,.04-1.87-.26-2.78-.37-4.11-.07-8.24-.18-12.35-.81-31.71,.08-63.44-.47-95.15-.33-19.23-.22-38.46-.22-57.69,0-10.12-3.56-18.66-10.04-26.12-7.41-8.53-16.73-13.74-27.99-15.19-3.33-.43-6.7-.63-10.08-.63-81.77,0-163.53,0-245.3,0-1.29,0-2.63,.25-3.86-.43-.71-1.03-.73-2.07,0-3.1,4.37-.04,8.74-.07,13.1-.11Z"/>
  <path class="cls-40" d="M.31,90.34c0-1.01,.02-2.02,.03-3.03,2.52-2.87,1.46-6.35,1.5-9.59,.12-10.17-.22-20.35,.15-30.51,.37-10.17,2.88-19.84,8.99-28.25,4.32-5.95,10.41-9.68,16.62-13.36C34.94,1.24,42.88,.34,51.14,.4c5.8,.05,11.6-.06,17.4-.1,2.37,0,4.74,0,7.12,0,8.56,.02,17.12,.04,25.68,.06,1.05,0,2.11,.03,3.16,.05,.33,1.02,.31,2.04,0,3.07-.71,.52-1.54,.46-2.34,.46-15.35,0-30.71,.2-46.06-.1-5.55-.11-10.96,.17-16.3,1.52-16.3,4.11-26.39,14.66-31.27,30.49-1.33,4.31-1.83,8.77-1.99,13.29-.77,21.97-.52,43.95-.22,65.92,.28,20.29,.45,40.58,.14,60.86-.35,23.04-.04,46.07-.27,69.11,0,.87,.09,1.76-.37,2.56-.62,.63-1.47,.09-2.31,.44-.09,.02,.25,.35,.13,.12-.05-.1-.02-.16,.08-.16,.74-.04,1.53-.38,2.16,.34,.53,1.26,.33,2.59,.33,3.89,0,83.57-.27,167.13,.12,250.7,.2,43.84,.44,87.68,.14,131.51-.26,38.16-.03,76.31-.26,114.46,0,.87,.06,1.75-.29,2.59-.62,.86-1.46,.45-2.3,.41,.72,.32,1.56-.18,2.18,.41,.59,1.99,.64,4.06,.73,6.1,.47,10.61,3.57,20.24,10.57,28.39,5.38,6.26,12.26,10.14,20.14,12.31,4.71,1.3,9.51,1.98,14.42,1.98,83.62-.02,167.24-.01,250.86,0,1.29,0,2.63-.28,3.85,.44,.35,1.03,.32,2.07,.03,3.11-.56,.03-1.12,.07-1.68,.08-17.98,.02-35.96,.03-53.94,.05-17.92,.02-35.83,.05-53.75,.07-38.95,.05-77.91,.23-116.86,.09-11.72-.04-23.47-.14-35.17-1.02-9.4-.71-18.2-3.49-25.9-9.19-8.19-6.06-12.92-14.34-15.35-24.08-1.37-5.48-1.88-11.08-1.88-16.7-.02-35.79-.09-71.58,.08-107.37,.18-37.47,.56-74.95,.19-112.42-.44-44.03-.86-88.05-.67-132.08,.22-53.15,.48-106.3,.4-159.45,0-1.14-.01-2.19-.84-3.13-.59-.66-.68-1.56-.68-2.47,.02-14.49,.01-28.98,.01-43.47,0-.87-.14-1.8,1.05-2.1,.73-.18,.43-.81,.43-1.24,.03-2.56,.02-5.12,0-7.68,0-.42,.2-.99-.22-1.23-1.59-.92-1.24-2.43-1.24-3.83-.01-13.87-.01-27.73-.02-41.6,0-.56-.13-1.23,.34-1.59,1.5-1.15,1.14-2.75,1.15-4.26,.02-4.37-.21-8.76,.09-13.11,.17-2.53-.98-4.51-1.65-6.71,0-6.62,0-13.24,0-19.86Z"/>
  <path class="cls-14" d="M306.41,804.66c0-.97,0-1.95-.01-2.92,.14-.13,.27-.13,.41,0,0,.97,0,1.94-.01,2.91-.13,0-.26,0-.39,.01Z"/>
  <path class="cls-14" d="M104.5,3.33c0-.97,0-1.94,0-2.91,.14,0,.27,0,.41,0,0,.97,0,1.94,0,2.91-.13,.11-.27,.12-.4,0Z"/>
  <path class="cls-41" d="M104.5,3.33c.13,0,.27,0,.4,0,9.3,.03,18.6,.09,27.9,.1,66.74,.02,133.47,.04,200.21,.05,9.3,0,18.6-.29,27.89,.19,17.91,.94,34.26,13.15,40.12,30.09,1.58,4.56,1.76,9.3,1.77,14.05,.02,12.49-.02,24.98,.01,37.48,.06,20.36,.29,40.72,.18,61.08-.08,14.49-.11,28.98,.2,43.46,.15,7.05,.21,14.11,.33,21.16,.19,.68,.1,1.37,.1,2.05,0,130.32,0,260.64,0,390.96,0,.68,.11,1.37-.11,2.05-.04,10.99-.09,21.99-.13,32.98-.09,26.92-.18,53.84-.25,80.76-.04,13.62,.1,27.23-.12,40.85-.14,8.69-1.47,17.24-6.56,24.61-5.3,7.67-11.89,13.58-21.73,14.71-4.72,.54-9.44,.97-14.18,.94-17.92-.11-35.81,.87-53.73,.85h-.41c-.81-.02-1.62-.06-2.43-.06-83.77,0-167.53,0-251.3,0-8.41,0-16.52-1.39-24.06-5.25-11.86-6.06-18.59-16-21.49-28.81-1.16-5.09-1.21-10.27-1.48-15.43-.24-.12-.24-.24,0-.36,.03-.75,.09-1.49,.09-2.24,0-31.16-.03-62.32,.01-93.49,.05-36.22,.31-72.44,.25-108.65-.09-49.58-.61-99.16-.49-148.74,.08-32.53,.12-65.07,.18-97.6,.03-17.05,.04-34.1,.05-51.14,0-.62-.06-1.24-.09-1.87-.24-.12-.24-.24,0-.36,.03-.75,.09-1.49,.09-2.24,0-20.3-.17-40.59,.05-60.89,.23-21.1,.05-42.21,.08-63.31,.04-21.42-.11-42.84-.11-64.25,0-6.55,.12-13.1,1.71-19.53C12.07,18.82,26.15,6.2,45.18,3.67c3.74-.5,7.46-.39,11.2-.36,15.85,.09,31.71,.07,47.56,.08,.19,0,.37-.04,.56-.06Z"/>
  <path class="cls-14" d="M403.5,606.05c0-10.11,0-20.23,0-30.34,0-.75,.02-1.5,.02-2.25,0-110.15,0-220.29,0-330.44,0-9.99-.05-19.98-.08-29.97,0-.68,.05-1.37,.08-2.05,.5,.6,.28,1.32,.28,1.98,.03,10.56,.04,21.11,.06,31.67q0,2.86,2.61,3.28-2.61,.41-2.61,3.28c0,107.19,0,214.38,0,321.57,0,10.43-.03,20.86-.05,31.29,0,.67,.2,1.38-.3,1.98Z"/>
  <path class="cls-12" d="M5.64,751.84c0,.12,0,.24,0,.36-.76-.06-1.55,.17-2.37-.18,.82-.35,1.61-.12,2.37-.18Z"/>
  <path class="cls-12" d="M5.64,247.74c0,.12,0,.24,0,.36-.76-.06-1.55,.17-2.37-.18,.82-.35,1.61-.12,2.37-.18Z"/>
  <path class="cls-40" d="M17.27,247.72c-.02-12.3-.07-24.61-.06-36.91,.01-12.87,.05-25.73,.14-38.6,.19-26.67,.34-53.33,.22-80-.05-11.61-.5-23.23-.27-34.84,.15-7.37,.11-14.9,3.31-21.85,4.76-10.32,12.48-16.97,23.73-19.58,3.66-.85,7.25-.93,10.91-.93,8.49,0,16.98,0,25.47,0,4.38,0,6.65,2.19,6.9,6.6,.1,1.68,.19,3.37,.37,5.04,.65,5.9,4.71,10.01,10.6,10.84,1.99,.28,3.98,.33,5.98,.33,67.79,0,135.59,0,203.38,0,.81,0,1.62-.02,2.43-.08,5.25-.41,7.86-2.52,9.54-7.49,1.25-3.7,1.01-7.52,1.13-11.31,.11-3.48,.19-3.57,3.61-3.6,11.55-.09,23.09-.17,34.64-.29,6.85-.07,13.47,.84,19.28,4.81,7.19,4.92,11.43,11.63,12.16,20.47,.65,7.92,.35,15.85,.38,23.78,.18,37.22,.27,74.44,.4,111.67,.09,23.29,.21,46.59,.31,69.88,0,.69-.04,1.37-.06,2.06-.88,.43-1.82,.07-2.62,.21,.8,.12,1.74-.23,2.62,.2,.04,9.24,.12,18.48,.11,27.73-.02,36.54-.06,73.08-.12,109.61-.05,28.29-.2,56.58-.23,84.87-.03,20.49,.06,40.97,.1,61.46,.03,16.93,.11,33.85,.08,50.78-.07,37.35-.07,74.7-.37,112.05-.17,21.79-.75,43.58-.67,65.38,.05,14.25-8.75,23.81-22.3,28.16-2.97,.95-5.97,1.52-9.15,1.53-10.55,.02-21.09,.25-31.64,.39-.68,0-1.37-.06-2.05-.09-.8-.24-1.61-.11-2.42-.11-90.32,0-180.64,0-270.96-.01-.81,0-1.62,.12-2.42-.11-13.61-.81-23.44-7.45-29.74-19.44-.77-1.46-1.06-3.16-2.05-4.56-.49-.7-.71-1.59-.71-2.49,.01-3.68,.03-7.36,.05-11.04,.88-.44,1.82-.04,2.56-.22-.74-.11-1.68,.24-2.56-.19-.02-.81-.06-1.62-.06-2.43,0-109.5,0-218.99,0-328.49,0-56.84-.02-113.68-.02-170.52,0-.75,.04-1.5,.06-2.24,.89-.42,1.83-.07,2.64-.2-.81-.12-1.75,.22-2.64-.2Z"/>
  <path class="cls-40" d="M203.93,29.55c-5.3,0-10.59,0-15.89,0-.68,0-1.37-.02-2.05-.12-2.66-.39-3.35-1.01-3.51-3.05-.21-2.74,.76-4.31,3.11-5.04,1.4-.43,2.83-.4,4.26-.4,9.92-.01,19.83,0,29.75,0,1.25,0,2.51,0,3.68,.52,1.59,.69,2.46,2.01,2.41,3.68-.05,1.68-1.03,2.89-2.72,3.42-.85,.26-1.71,.35-2.58,.32-5.49-.13-10.97,0-16.45,.69Z"/>
  <path class="cls-12" d="M49.73,789.75c1.06-.03,2.11-.09,3.17-.09,83.71,0,167.41,0,251.12-.04,.81,0,2.1,.76,2.43-.86,.04-.18,.25-.32,.31-.05,.35,1.75,1.72,.88,2.58,.9,4.74,.09,9.49,.03,14.23,.05,.66,0,1.38-.24,1.96,.32-6.99,.01-13.98,.03-20.97,.03-83.77,0-167.54,0-251.32,0-1.17,0-2.37,.18-3.51-.26Z"/>
  <path class="cls-40" d="M240.99,30.21c-3.74,.32-5.99-.78-6.82-3.05-.97-2.66,.33-7.22,2.52-8.65,1.13-.74,2.39-1.13,3.73-.71,2.39,.75,4.38,2.08,5.76,4.22,1.14,1.77,1.32,3.63,.24,5.48-1.05,1.8-2.63,2.78-4.78,2.71-.37-.01-.74,0-.65,0Z"/>
  <path class="cls-14" d="M391.77,248.13h-2.54c0-.14,0-.28,0-.41h2.55c0,.14,0,.28,0,.41Z"/>
  <path class="cls-14" d="M17.27,247.72h2.55c0,.13,0,.27,.01,.4h-2.56c0-.13,0-.27,0-.4Z"/>
  <path class="cls-14" d="M17.29,751.81h2.54c0,.14,0,.28,0,.41h-2.55c0-.14,0-.28,0-.41Z"/>
  <path class="cls-42" d="M386.93,291.97c.03,.75,.08,1.49,.08,2.24,0,111.48,.01,222.97,0,334.45,0,20.05-.1,40.09-.17,60.14-.02,6.81-.14,13.61-.11,20.42,0,1.38-.36,1.54-1.65,1.46-9.78-.61-19.58-.41-29.38-.47-32.39-.19-64.79-.3-97.18-.48-77.84-.43-155.68-.19-233.52-.26q-2.93,0-2.93-2.93c0-138.03,0-276.06,.04-414.09,0-.67-.75-1.83,.74-2.05,.9-.46,1.86-.2,2.75-.09,3.43,.43,6.86,.26,10.28,.26,24.34,.02,48.68-.2,73.02,.05,75.2,.76,150.39,.09,225.59,.35,8.18,.03,16.36-.23,24.52,.11,8.61,.36,17.22,.07,25.82,.31,.74,.02,1.52-.06,2.1,.56Z"/>
  <path class="cls-42" d="M22.15,289.69c-.03-.68-.08-1.37-.08-2.05-.02-30.84,.06-61.68-.06-92.51-.12-31.52-.44-63.03-.65-94.55,0-.6-.57-1.6,.73-1.7,.36-.3,.79-.35,1.23-.34,27.4,.41,54.8-.08,82.2,.2,75.34,.78,150.67,.1,226.01,.36,8.55,.03,17.11-.27,25.65,.12,8.61,.4,17.21-.06,25.81,.34-8.11-.7-16.23-.23-24.35-.4-.44,0-.87-.02-1.31-.03-33.14-.39-66.28-.07-99.42-.37-77.58-.7-155.17-.08-232.75-.34-1.28,0-2.63,.26-3.78-.61-.2-11.74,.18-23.47,.36-35.21,.08-5.37,.08-10.74,.37-16.1,.66-11.84,6.2-20.59,17.02-25.67,4-1.88,8.41-2.21,12.8-2.21,8.8,0,17.6,0,26.4,.06,3.88,.02,4.99,1.15,5.18,5.13,.15,3.25,.36,6.48,1.86,9.47,.39,.78,.78,1.56,1.19,2.33,1.67,3.1,4.11,4.86,7.75,5.4,6.9,1.03,13.81,.73,20.73,.7,8.86-.04,17.73-.09,26.59-.11,23.97-.05,47.94,.09,71.91-.16,31.46-.33,62.92-.1,94.37-.3,8.1-.05,13.7-3.89,16.2-10.65,.93-2.51,.95-5.12,.97-7.75,.03-3.32,.64-3.92,3.96-3.93,10.61-.05,21.22-.11,31.83-.12,5.43,0,10.67,.82,15.3,3.93,5.73,3.85,8.63,9.49,10,16.07,.69,3.32,.83,6.68,.83,10.06,0,80.13,0,160.26,0,240.39,0,.68-.09,1.36-.14,2.04-.62,.48-1.34,.24-1.99,.2-11.6-.64-23.21-.16-34.81-.36-29.95-.51-59.91-.07-89.86-.36-77.26-.75-154.53-.09-231.79-.35-2.1,0-4.25,.3-6.27-.62Z"/>
  <path class="cls-42" d="M22.11,710.33c9.03,.86,17.96,.54,26.87,.59,20.6,.13,41.2,.13,61.8,.16,59.74,.09,119.48,.18,179.21,.26,23.22,.03,46.44,.06,69.66,.12,8.49,.02,16.97,.17,25.46,.19,1.34,0,1.61,.42,1.61,1.69-.09,14.55-.08,29.1-.18,43.65-.08,11.08-4.31,19.97-14.08,25.77-4.74,2.82-9.94,3.84-15.4,3.84-70.6,0-141.21,0-211.81,0-31.02,0-62.05,.01-93.07,0-14.86,0-26.15-9-29.5-23.45-.44-1.89-.61-3.81-.61-5.76,0-15.43,0-30.85,0-46.28,0-.24,.02-.49,.04-.79Z"/>
  <path class="cls-40" d="M21.38,97.81c28.9,0,57.81,0,86.71,.01,35.83,.01,71.67,0,107.5,.07,33.71,.07,67.41,.21,101.12,.37,20.72,.1,41.44,.31,62.16,.5,2.06,.02,4.14,.17,6.23,.81-.33,.68-.74,.5-1.05,.5-16.91-.1-33.83-.29-50.74-.31-47.07-.07-94.14-.07-141.21-.11-19.6-.02-39.2-.03-58.8-.09-32.02-.09-64.04-.19-96.07-.34-5.05-.02-10.11,.19-15.14-.36-.6-.62-1.15,.04-1.73,.05-.61,0-1.43,.14-1.45-.71-.02-.87,.81-.78,1.42-.74,.36,.03,.7,.22,1.05,.33Z"/>
  <path class="cls-40" d="M22.15,289.69c29.34,0,58.68,0,88.02,.02,36.14,.02,72.28,0,108.43,.07,33.7,.07,67.41,.21,101.11,.37,20.72,.1,41.44,.31,62.16,.51,1.67,.02,3.34,.33,5.01,.51,.45-.1,1.06-.38,1.08,.39,.02,.76-.55,.58-1.02,.4-16.66-.11-33.32-.28-49.98-.31-47.25-.07-94.49-.07-141.74-.1-19.66-.02-39.32-.03-58.98-.09-31.95-.09-63.9-.19-95.86-.34-5.05-.02-10.11,.11-15.15-.3-.8-.07-1.59-.27-2.39-.41,.01-.47-.99,.03-.69-.72Z"/>
  <path class="cls-41" d="M203.45,26.87c-4.98,0-9.97,.03-14.95-.03-.82-.01-2.26,.54-2.27-1.05,0-1.73,1.46-1.61,2.62-1.61,7.17,.02,14.33,.09,21.5,.11,2.68,0,5.35,.09,8.03-.17,1.18-.12,3.07-.34,3.16,1.01,.08,1.12-1.82,1.12-2.96,1.11-5.05-.05-10.09,.02-15.13,.64Z"/>
  <path class="cls-36" d="M237.14,24.84c.06-1.89,1.88-4.24,3.29-4.26,1.39-.02,3.47,2.47,3.35,4.01-.1,1.35-2.66,3.16-4.42,3.13-1.73-.03-2.29-.75-2.22-2.88Z"/>
  <path d="M202.41,441.94c41.44,0,82.89-.02,124.33,.01,11.36,0,22.71,.18,34.07,.22,1.26,0,1.83,.28,1.98,1.68,.58,5.23,.7,10.47,.48,15.7-.24,5.87-.31,11.73,.05,17.59,.03,.56,.06,1.13,.03,1.68-.17,2.8-.46,3-3.21,2.81-1.49-.1-2.99-.08-4.49-.08-31.52,.03-63.05-.11-94.57,.14-26.46,.21-52.93,.16-79.39,.13-32.33-.04-64.66-.18-96.99-.32-13.79-.06-27.58-.25-41.37-.29-1.54,0-2.07-.48-2.04-1.96,.05-2.75-.11-5.5,.03-8.24,.46-8.68,.46-17.34,.01-26.02-.14-2.72,.14-3.41,3.04-3.4,4.24,0,8.49-.05,12.73-.05,47.56-.02,95.13-.04,142.69-.07,.87,0,1.75,0,2.62,0,0,.15,0,.29,0,.44Z"/>
  <path d="M200.75,351.99c41.51,0,83.01-.02,124.52,.01,11.36,0,22.71,.18,34.07,.22,1.31,0,1.8,.36,1.95,1.72,.58,5.23,.69,10.47,.48,15.7-.24,5.87-.31,11.73,.05,17.59,.03,.56,.06,1.13,.03,1.68-.19,2.79-.44,2.96-3.24,2.78-1.62-.11-3.24-.08-4.87-.07-31.33,.03-62.67-.11-94,.14-26.46,.21-52.93,.17-79.39,.13-32.39-.04-64.79-.18-97.18-.32-13.67-.06-27.33-.26-41-.28-1.91,0-2.48-.61-2.43-2.38,.08-2.56-.08-5.12,.06-7.68,.48-8.74,.47-17.47,.03-26.21-.14-2.75,.17-3.37,3.07-3.37,4.24,0,8.49-.05,12.73-.05,48.38,0,96.75,0,145.13,0,0,.12,0,.25,0,.37Z"/>
  <path d="M201.67,396.97c41.44,0,82.89-.02,124.33,.01,11.36,0,22.71,.18,34.07,.22,1.27,0,1.82,.3,1.98,1.69,.58,5.23,.7,10.47,.48,15.7-.24,5.87-.31,11.73,.05,17.59,.03,.56,.06,1.13,.03,1.68-.18,2.79-.46,2.99-3.22,2.81-1.49-.1-2.99-.08-4.49-.08-31.52,.03-63.05-.12-94.57,.14-27.96,.23-55.92,.15-83.88,.13-30.83-.02-61.67-.18-92.5-.31-13.79-.06-27.58-.25-41.37-.29-1.55,0-2.06-.49-2.04-1.96,.05-2.68-.12-5.37,.02-8.05,.47-8.74,.47-17.47,.02-26.21-.14-2.73,.15-3.4,3.05-3.4,4.24,0,8.49-.05,12.73-.05,47.5-.02,95-.04,142.51-.07,.94,0,1.87,0,2.81,0,0,.15,0,.29,0,.44Z"/>
  <path d="M200.13,545.38c41.51,0,83.01-.02,124.52,.01,11.29,0,22.59,.19,33.88,.21,1.43,0,1.89,.51,2.04,1.85,.56,5.16,.67,10.34,.46,15.52-.25,5.93-.31,11.85,.05,17.78,.03,.56,.12,1.15,0,1.68-.59,2.8-.32,3.17-3.17,2.69-1.52-.26-3.11-.11-4.67-.11-31.46,.03-62.92-.12-94.38,.14-27.71,.23-55.42,.15-83.13,.13-31.14-.03-62.29-.18-93.43-.31-13.73-.06-27.46-.24-41.19-.29-1.51,0-2.1-.42-2.07-1.93,.06-2.74-.12-5.5,.03-8.24,.46-8.68,.46-17.34,.01-26.02-.14-2.6,.07-3.44,3.01-3.43,4.31,.01,8.61-.05,12.92-.05,47.38-.03,94.75-.04,142.13-.07,1,0,2,0,3,0,0,.15,0,.29,0,.44Z"/>
  <path d="M200.23,493.66c41.44,0,82.89-.02,124.33,.01,11.36,0,22.71,.19,34.07,.22,1.36,0,1.78,.45,1.92,1.76,.56,5.16,.69,10.34,.48,15.52-.25,5.99-.31,11.98,.05,17.97,.04,.62,.07,1.26-.02,1.87-.36,2.58-.43,2.59-3.05,2.39-1.49-.11-2.99-.09-4.49-.09-31.58,.03-63.17-.11-94.75,.14-26.21,.21-52.43,.16-78.64,.13-32.58-.04-65.16-.18-97.74-.32-13.79-.06-27.58-.24-41.37-.31-1.38,0-2.01-.34-1.97-1.83,.07-2.68-.14-5.37,.01-8.05,.49-8.8,.48-17.59,.03-26.39-.12-2.3,.04-3.36,2.92-3.33,4.3,.04,8.61-.06,12.91-.06,47.5-.03,95-.04,142.51-.07,.94,0,1.87,0,2.81,0,0,.15,0,.29,0,.44Z"/>
  <path d="M200.02,640.58c41.51,0,83.01-.02,124.52,.01,11.36,0,22.71,.18,34.07,.22,1.34,0,1.79,.41,1.94,1.74,.57,5.23,.7,10.47,.47,15.7-.25,5.87-.31,11.73,.05,17.59,.04,.68,.08,1.38-.01,2.06-.35,2.59-.43,2.59-3.04,2.41-1.68-.12-3.37-.09-5.05-.09-31.33,.03-62.67-.11-94,.14-26.34,.21-52.68,.17-79.01,.13-32.52-.04-65.04-.18-97.55-.32-13.79-.06-27.58-.23-41.37-.31-1.36,0-2.03-.29-1.99-1.81,.08-2.68-.14-5.37,.01-8.05,.48-8.8,.47-17.59,.03-26.39-.14-2.78,.2-3.35,3.09-3.36,4.18-.01,8.36-.05,12.54-.05,47.63-.02,95.25-.04,142.88-.06,.81,0,1.62,0,2.43,0,0,.15,0,.29,0,.44Z"/>
  <path class="cls-40" d="M200.17,316.32c1.01,2.32,3.01,2.96,5.53,1.96,.74-.3,1.58-.91,2.07,.18,.5,1.12-.46,1.55-1.27,1.88-4.8,1.97-9.24-1-8.71-5.8,.29-2.64,2.85-4.89,5.54-4.86,2.65,.02,4.92,2.01,5.31,4.62,.21,1.39-.2,2.11-1.77,2.05-2.17-.09-4.35-.02-6.7-.02Z"/>
  <path class="cls-9" d="M233.79,309.58c1.26,.08,2.79,.61,3.96,2,.45,.54,.73,1.04,.15,1.63-.56,.57-1.14,.44-1.62-.1-.79-.88-1.73-1.39-2.94-1.36-.63,.02-1.32-.05-1.46,.8-.15,.85,.47,1.02,1.12,1.17,1.03,.23,2.07,.42,3.07,.74,1.28,.41,2.13,1.28,2.25,2.69,.12,1.46-.71,2.36-1.92,2.91-1.49,.68-3.01,.96-4.7,.45-1.6-.48-2.09-1.61-2.38-3.01-.13-.64,.08-1.12,.71-1.33,.77-.26,1.14,.22,1.41,.84,.73,1.66,2.31,2.14,3.97,1.24,.43-.23,.76-.51,.73-.97-.03-.46-.38-.79-.83-.91-1.02-.26-2.06-.44-3.07-.74-2.03-.61-2.8-1.64-2.54-3.3,.28-1.82,1.54-2.78,4.09-2.76Z"/>
  <path class="cls-9" d="M179.09,309.57c3.17,.05,5.23,2.15,5.2,5.32-.02,3.16-2.53,5.9-5.37,5.86-2.56-.04-4.73-2.69-4.72-5.77,.02-3.14,2.1-5.45,4.88-5.41Z"/>
  <path class="cls-9" d="M169.38,312.01c0-.62,0-1.24,0-1.87,0-1.24,.18-2.56-1.85-2.18-.61,.11-1.21-.39-1.16-1.16,.05-.79,.63-.97,1.32-.97,1.62,.01,3.24,.01,4.86,0,.63,0,1.13,.17,1.23,.85,.11,.76-.39,1.31-1.04,1.27-1.41-.09-1.23,.75-1.22,1.65,.05,2.61,.22,5.24-.42,7.81-.57,2.29-2.45,3.59-4.87,3.42-1.87-.14-3.05-1.34-3.37-3.36-.12-.75-.15-1.41,.75-1.59,.87-.17,1.21,.37,1.33,1.16,.16,1.03,.64,1.72,1.84,1.65,1.12-.07,1.85-.56,2.18-1.67,.49-1.64,.41-3.33,.41-5Z"/>
  <path class="cls-9" d="M195.51,315.37c0,1.37,.07,2.75-.02,4.12-.08,1.36-.93,1.76-1.92,.82-.55-.52-.72-.22-1.15-.02-2.27,1.07-3.94,.48-5.13-1.74-1.39-2.59-.97-5.33-.66-8.06,.07-.61,.58-1,1.23-.85,.61,.14,.92,.63,.88,1.27-.07,1.12-.15,2.24-.25,3.35-.08,.89,.09,1.76,.39,2.57,.37,1.02,.89,1.94,2.27,1.75,1.3-.18,2.06-.95,2.17-2.18,.13-1.55,.02-3.11,.06-4.67,.02-.87-.37-2.15,1.08-2.11,1.38,.04,1.04,1.3,1.07,2.18,.04,1.18,.01,2.37,.01,3.56,0,0-.01,0-.02,0Z"/>
  <path class="cls-40" d="M219.56,315.25c0,1.43,.07,2.87-.02,4.3-.08,1.24-.86,1.8-1.79,.81-.66-.7-.91-.2-1.36,0-2.02,.88-3.54,.48-4.69-1.3-1.73-2.67-1.27-5.63-.98-8.54,.05-.55,.55-1.03,1.23-.88,.64,.14,.85,.63,.83,1.27-.04,1.56-.2,3.13-.04,4.67,.14,1.38,.33,3,2.34,2.99,1.53,0,2.4-1.08,2.48-3.13,.06-1.43-.03-2.87-.07-4.3-.02-.74,.04-1.47,.94-1.53,1.04-.07,1.15,.72,1.15,1.53,0,1.37,0,2.75,0,4.12,0,0,0,0,0,0Z"/>
  <path class="cls-40" d="M222.37,315.09c0-1.43,0-2.86,0-4.29,0-.52,.14-1.01,.71-1.18,.44-.13,1.04-.06,1.12,.39,.22,1.13,.68,.71,1.28,.37,.42-.23,.93-.37,1.41-.4,.8-.06,1.78-.16,1.91,.95,.13,1.16-.81,1.15-1.65,1.23-2.2,.2-2.66,.73-2.65,2.89,0,1.43,0,2.86,0,4.29,0,.73-.09,1.44-1.02,1.46-.94,.02-1.05-.68-1.05-1.42,0-1.43,0-2.86,0-4.29-.03,0-.05,0-.08,0Z"/>
  <path d="M201.66,147.36c41.44,0,82.89-.02,124.33,.01,11.36,0,22.71,.18,34.07,.22,1.27,0,1.82,.29,1.98,1.69,.58,5.23,.7,10.47,.48,15.7-.24,5.87-.31,11.73,.05,17.59,.03,.56,.06,1.13,.03,1.68-.17,2.8-.46,3-3.21,2.81-1.49-.1-2.99-.08-4.49-.08-31.52,.03-63.05-.11-94.57,.14-26.4,.21-52.8,.16-79.2,.13-32.39-.04-64.79-.18-97.18-.32-13.79-.06-27.58-.25-41.37-.29-1.55,0-2.07-.49-2.04-1.96,.05-2.75-.11-5.5,.03-8.24,.46-8.68,.46-17.34,.01-26.02-.14-2.72,.15-3.4,3.04-3.4,4.24,0,8.49-.05,12.73-.05,47.5-.02,95-.04,142.51-.07,.94,0,1.87,0,2.81,0v.44Z"/>
  <path d="M201.67,234.31c41.44,0,82.89-.02,124.33,.01,11.36,0,22.71,.18,34.07,.22,1.28,0,1.82,.31,1.97,1.7,.58,5.23,.7,10.47,.48,15.7-.24,5.87-.31,11.73,.05,17.59,.03,.56,.06,1.13,.03,1.68-.18,2.79-.46,2.99-3.22,2.8-1.49-.1-2.99-.08-4.49-.08-31.52,.03-63.05-.11-94.57,.14-26.4,.21-52.8,.16-79.2,.13-32.39-.04-64.79-.18-97.18-.32-13.79-.06-27.58-.25-41.37-.29-1.55,0-2.06-.5-2.03-1.97,.05-2.68-.12-5.37,.02-8.05,.47-8.74,.47-17.47,.02-26.21-.14-2.73,.15-3.39,3.05-3.4,4.24,0,8.49-.05,12.73-.05,47.5-.02,95-.04,142.51-.07,.94,0,1.87,0,2.81,0,0,.15,0,.29,0,.44Z"/>
  <path d="M46.42,63.68c4.87,0,9.15,0,13.42,0,2.51,0,3.17,.67,3.22,3.23,.01,.56,.03,1.12,0,1.68-.12,2.04-.85,2.76-2.94,2.77-4.34,.03-8.69,0-13.3,.4,1.71,1.67,3.44,3.32,5.13,5,1.83,1.83,1.77,2.86-.22,4.87-2.01,2.03-3.08,2.14-4.86,.37-4.11-4.09-8.21-8.2-12.29-12.32-1.52-1.53-1.53-2.83-.01-4.35,4.09-4.12,8.19-8.22,12.31-12.3,1.8-1.78,2.83-1.65,5,.52,1.78,1.78,1.86,2.95,.21,4.61-1.73,1.75-3.52,3.44-5.67,5.52Z"/>
  <path d="M247.47,72.52c0-2.99,0-5.99,0-8.98,0-.77,.04-1.53,.84-1.93,.87-.42,1.45,.04,1.84,.75,.38,.7,.69,.15,1.01,0,3.38-1.51,5.98-1.07,8.08,1.38,2.62,3.07,2.96,7.57,.81,10.76-1.76,2.61-5.3,3.79-8.42,2.63-1.02-.38-1.17-.17-1.16,.76,0,1.31-.07,2.61-.09,3.92-.02,1-.38,1.74-1.49,1.75-1.23,.01-1.57-.86-1.58-1.89-.02-3.05,0-6.11,0-9.16,.06,0,.11,0,.17,0Z"/>
  <path d="M224.29,71.21c.52,2.13,1.71,3.09,4.01,3.34,1.65,.18,3.2-.17,4.67-.97,.79-.43,1.64-.34,2.11,.53,.45,.82,.14,1.55-.58,2.13-2.54,2.04-8.63,1.76-11.23-.53-2.77-2.43-3.35-6.77-1.36-10.08,1.69-2.81,5.15-4.35,8.35-3.72,3.19,.64,5.59,3.2,6.1,6.51,.31,2-.33,2.77-2.35,2.78-3.23,.01-6.46,0-9.72,0Z"/>
  <path d="M311.78,71.21c.93,2.7,3.14,3.84,6.18,3.3,.72-.13,1.46-.36,2.11-.69,1.06-.54,2.09-.83,2.67,.48,.52,1.17-.33,1.87-1.29,2.31-4.36,1.98-11.29,1.52-12.92-4.85-1.11-4.35,1.84-9,6.3-9.86,4.38-.85,8.56,2.19,9.16,6.66,.25,1.87-.41,2.64-2.33,2.64-3.24,.01-6.48,0-9.88,0Z"/>
  <path d="M159.6,71.21c-1.43,0-2.87-.03-4.3,.02-.44,.01-1.1-.3-1.3,.34-.16,.5,.28,.92,.59,1.31,1.38,1.73,4.41,2.24,7.08,1.2,1.1-.43,2.43-1.55,3.12,.22,.72,1.85-1.03,2.24-2.26,2.73-1.84,.74-3.81,.77-5.71,.45-4.24-.71-6.67-4.09-6.28-8.51,.35-3.95,3.65-7.06,7.55-7.12,4.26-.07,7.58,2.79,8.06,6.96,.17,1.5-.55,2.37-2.07,2.4-1.5,.03-2.99,0-4.49,0Z"/>
  <path d="M277.99,72.04c0,1.25-.03,2.5,0,3.74,.02,.76-.16,1.4-.89,1.69-.79,.31-1.56,.1-1.89-.69-.35-.84-.63-.51-1.15-.19-2.46,1.52-5.72,1.32-7.85-.42-2.21-1.81-3.02-4.59-2.02-7.43,.98-2.77,2.53-5.13,5.23-6.55,3.7-1.94,7.55-.01,8.23,4.06,.32,1.93,.25,3.86,.33,5.79Z"/>
  <path d="M114.67,72c0,1.25-.03,2.5,.01,3.74,.03,.84-.21,1.53-1.03,1.78-.71,.22-1.43,0-1.74-.72-.32-.74-.54-.62-1.14-.25-2.47,1.55-5.72,1.35-7.85-.37-2.27-1.84-3.07-4.69-2-7.6,1.02-2.76,2.58-5.11,5.32-6.47,3.66-1.82,7.42,.11,8.08,4.09,.32,1.93,.26,3.86,.34,5.79Z"/>
  <path class="cls-40" d="M207.58,63.67c.67-.53,1.08-.91,1.54-1.22,3.41-2.31,7.54-.76,8.48,3.24,.83,3.53,.15,7.09-.04,10.62-.04,.83-.69,1.32-1.57,1.26-.88-.06-1.39-.59-1.37-1.46,.04-1.56,.1-3.12,.25-4.67,.15-1.57,.12-3.13-.25-4.65-.47-1.96-1.93-2.7-3.82-2.03-2.44,.87-3.17,1.92-3.13,4.49,.03,2.06,.09,4.12,.1,6.17,0,1.04-.14,2.11-1.51,2.13-1.34,.02-1.59-.93-1.6-2.04-.02-3.99-.06-7.99-.1-11.98-.01-1.02,.16-1.95,1.37-2.05,1.31-.11,1.73,.75,1.65,2.17Z"/>
  <path class="cls-40" d="M121.43,63.75c1.21-1.26,2.39-2.04,3.86-2.25,3.24-.46,5.59,1.34,6.2,4.72,.59,3.3,0,6.59-.1,9.88-.03,.91-.59,1.52-1.58,1.47-1.12-.05-1.46-.81-1.44-1.79,.06-2.61,.5-5.21,.21-7.83-.27-2.43-1.31-3.62-3.05-3.47-2.17,.18-4.16,2.18-4.12,4.11,.04,2.3,.07,4.61,.09,6.91,0,1.06-.16,2.1-1.55,2.05-1.34-.04-1.52-1.01-1.52-2.11,0-3.93-.03-7.85-.06-11.78,0-1.06,.02-2.1,1.4-2.18,1.33-.08,1.64,.87,1.66,2.26Z"/>
  <path class="cls-40" d="M200.65,69.65c0,1.99,0,3.99,0,5.98,0,.87-.28,1.64-1.2,1.89-.82,.22-1.46-.06-1.74-.95-.17-.53-.45-.34-.84-.18-5.05,2.14-8.25,.25-9.11-5.53-.38-2.53-.18-5.1,.13-7.64,.12-1,.63-1.74,1.65-1.63,1.09,.11,1.55,.95,1.41,2.04-.32,2.54-.64,5.08,.03,7.6,.61,2.32,1.75,3.45,3.21,3.29,2.1-.23,3.51-1.92,3.53-4.32,0-2.24-.03-4.48-.12-6.72-.04-1.07,.18-1.92,1.39-1.99,1.19-.07,1.65,.78,1.68,1.81,.05,2.12,.02,4.24,.02,6.35h-.03Z"/>
  <path class="cls-40" d="M142.11,77.57c-5.3-.04-8.49-4.32-7.13-9.57,1.02-3.96,3.98-6.67,7.13-6.53,2.23,.1,3.82,1.33,5.16,2.97,.44,.54,.46,1.15,.05,1.73-.46,.66-1.14,.74-1.83,.51-.33-.11-.63-.39-.9-.63-2.51-2.2-4.59-1.74-6.08,1.34-1.79,3.7-.46,6.7,3.2,7.17,2.08,.27,3.24-.57,3.58-2.66,.16-.98,.71-1.44,1.64-1.41,.92,.03,1.25,.7,1.38,1.5,.43,2.63-1.97,5.28-5.07,5.59-.37,.04-.75,0-1.12,0Z"/>
  <path class="cls-40" d="M85.81,66.7c0-2.8,0-5.61,0-8.41,0-1.17-.03-2.42,1.58-2.41,1.52,0,1.44,1.22,1.46,2.31,.08,5.05,.23,10.09,.26,15.14,0,1.14,.42,1.3,1.4,1.28,2.62-.06,5.24,.02,7.85-.04,1.14-.02,1.89,.4,1.89,1.52,0,1.16-.82,1.52-1.91,1.51-3.43-.03-6.86-.04-10.28,0-1.37,.02-1.92-.64-1.91-1.93,0-2.99,0-5.98,0-8.96-.11,0-.21,0-.32,0Z"/>
  <path class="cls-40" d="M290.75,62.82c1.69-.63,2.96-1.5,2.59-3.66-.19-1.08,.18-2.1,1.47-2.15,1.36-.06,1.54,.95,1.51,2.06-.03,1.2-.48,2.64,1.66,2.58,.55-.02,.98,.78,.88,1.47-.1,.73-.51,1.41-1.3,1.32-1.5-.18-1.4,.71-1.38,1.7,.05,1.93,.12,3.87,.05,5.8-.05,1.36,.45,2.07,1.81,2.31,1.02,.18,1.95,.63,1.78,1.94-.1,.79-.72,1.2-1.43,1.26-2.38,.23-4.78-1.82-5.08-4.23-.3-2.36-.25-4.73-.22-7.1,.02-1.68-1.32-1.64-2.38-2-.35-.45-.36-.88,.05-1.29Z"/>
  <path class="cls-9" d="M44.08,126.95c0,2.88,0,5.37,0,7.85,0,.68,.06,1.52-.88,1.59-.99,.08-.99-.75-1-1.45-.07-3.12-.13-6.24-.17-9.36,0-.74-.08-1.6,.78-1.94,.93-.37,1.32,.47,1.77,1.03,2.06,2.58,3.84,5.36,6,8.09,0-2.57-.01-5.14,0-7.71,0-.69-.28-1.7,.86-1.71,1.09-.01,.96,.97,.96,1.69,.01,3.25,0,6.49-.03,9.74,0,.67,.03,1.44-.88,1.64-.78,.17-1.27-.23-1.68-.87-1.35-2.1-2.72-4.18-4.09-6.25-.47-.71-.98-1.41-1.64-2.34Z"/>
  <path class="cls-9" d="M45.08,224.13c-3.13,0-3.11,0-3.07-3.06,.03-2.8,.05-5.6-.01-8.4-.02-1.07,.4-1.67,1.4-1.83,2.77-.44,5.54-.49,7.66,1.69,2.02,2.08,2.14,4.68,1.27,7.33-.98,2.99-3.22,4.27-7.25,4.28Z"/>
  <path class="cls-40" d="M172.08,63.38c1.48-1.17,2.89-1.73,4.54-1.53,.98,.12,1.69,.55,1.64,1.64-.04,.99-.66,1.34-1.63,1.37-.86,.02-1.76,.11-2.56,.4-1.33,.48-2.14,1.42-2.08,2.97,.09,2.37,.15,4.73,.18,7.1,.02,1.12-.15,2.24-1.61,2.23-1.36-.01-1.51-1.07-1.51-2.13-.03-3.93-.05-7.86-.09-11.79,0-.99,.04-1.96,1.26-2.15,1.27-.19,1.76,.62,1.86,1.89Z"/>
  <path class="cls-40" d="M290.75,62.82c-.02,.43-.04,.86-.05,1.29-.3,1.05-1.19,.69-1.87,.73-2.57,.17-4.59,1.31-4.13,4.44,.3,2.01,.11,4.1,.13,6.16,0,1.06-.14,2.1-1.51,2.11-1.34,.01-1.57-.96-1.57-2.06,0-3.92-.03-7.85-.05-11.77,0-1.03-.06-2.1,1.33-2.25,1.28-.13,1.65,.77,1.78,1.84,2.76-1.9,4.55-2.04,5.94-.51Z"/>
  <path class="cls-9" d="M65.31,131.47c0-1.18,0-2.37,0-3.55,0-.59,.33-1.47,.82-1.17,1.79,1.1,4.09-1.34,5.65,.96,.37,.55,.71-.23,1.03-.42,2.51-1.49,4.87-.37,5.1,2.52,.14,1.8,.1,3.62,.13,5.43,0,.6-.1,1.17-.87,1.17-.73,0-.95-.57-.97-1.15-.05-1.43,.03-2.87-.07-4.3-.06-.96,.33-2.31-1.32-2.39-1.26-.06-2.29,1.16-2.27,2.57,.02,1.19,0,2.37,.02,3.56,.01,.75,.16,1.68-.91,1.69-1.11,0-.88-1.02-.93-1.71-.09-1.49-.08-2.99-.18-4.48-.05-.79-.04-1.75-1.27-1.64-1.11,.1-1.92,.67-1.98,1.83-.08,1.49,.04,3,0,4.49-.02,.65-.02,1.52-.99,1.51-1.03-.01-.85-.88-.87-1.54-.02-1.12,0-2.25,0-3.37-.04,0-.07,0-.11,0Z"/>
  <path class="cls-40" d="M129.93,133.3c0-1.81-.03-3.62,.01-5.42,.03-1,.45-1.72,1.42-.76,.62,.61,.9,.04,1.25-.12,.84-.41,1.7-.45,2.54-.2,2.21,.68,3.66,3.78,3.02,6.36-.56,2.28-2.68,3.76-5.12,3.23-1.37-.3-1.32,.19-1.35,1.19-.03,.93,.56,2.54-1.03,2.48-1.41-.06-.73-1.58-.79-2.46-.1-1.42-.03-2.86-.03-4.29,.03,0,.06,0,.09,0Z"/>
  <path class="cls-9" d="M93.52,217.56c0,1.74,.03,3.49-.01,5.23-.03,1.02-.39,1.87-1.56,.99-.52-.39-.79-.05-1.12,.07-1.77,.64-3.37,.37-4.53-1.1-1.41-1.81-1.63-3.86-.58-5.95,.87-1.73,2.33-2.77,4.23-2.33,1.66,.38,1.71-.31,1.58-1.5-.03-.25-.01-.5,0-.75,.01-.61,.19-1.15,.9-1.19,.75-.03,.91,.51,.91,1.13,0,1.8,0,3.6,0,5.41,.06,0,.13,0,.19,0Z"/>
  <path class="cls-9" d="M119.37,217.78c0,1.62,0,3.24,0,4.85,0,1.13-.29,2.02-1.6,1.12-.54-.37-.8,0-1.13,.11-1.77,.61-3.32,.3-4.53-1.14-1.37-1.62-1.56-4.26-.45-6.14,.97-1.66,2.47-2.58,4.36-2.11,1.33,.33,1.47-.11,1.36-1.18-.04-.43-.04-.87,0-1.31,.05-.54,.3-.97,.92-.97,.63,0,.86,.42,.86,.98,0,1.93,0,3.85,0,5.78,.07,0,.13,0,.2,0Z"/>
  <path class="cls-9" d="M91.09,126.95c0-.85-.02-1.71,0-2.57,.02-.63,.3-1.1,1.01-1.06,.62,.04,.79,.49,.8,1.05,.04,3.61,.11,7.22,.13,10.82,0,1.01-.47,1.66-1.48,.91-.42-.31-.63-.13-.94-.05-2.5,.68-3.81,.34-4.95-1.28-1.26-1.8-1.32-4.36-.14-6.16,1.12-1.71,2.65-2.21,5.05-1.65,.11,.03,.24,0,.52-.02Z"/>
  <path class="cls-9" d="M96.94,132.66c1.26,2,2.58,2.38,4.76,1.56,.68-.26,1.48-.79,1.87,.26,.36,.97-.51,1.3-1.21,1.53-2.1,.7-4.2,.79-5.97-.78-1.49-1.32-1.82-3.06-1.24-4.95,.67-2.18,2.6-3.4,5.05-3.24,2.05,.13,3.6,1.6,4.05,3.76,.27,1.28-.14,1.9-1.5,1.88-1.86-.03-3.73,0-5.81,0Z"/>
  <path class="cls-9" d="M134.35,214.78c2.7-.68,4.17-.21,5.3,1.52,1.34,2.06,1.36,4.79,.07,6.48-.94,1.23-2.21,1.47-3.65,1.37-.88-.07-1.68-.57-2.67-.09-.62,.3-.93-.44-.93-1.05-.01-3.61,0-7.21,0-10.82,0-.59,.19-1.16,.92-1.16,.72,0,.93,.53,.94,1.14,.02,.8,0,1.61,0,2.61Z"/>
  <path class="cls-40" d="M97.38,220.36c1.24,1.99,2.55,2.38,4.74,1.57,.68-.25,1.48-.82,1.88,.22,.37,.95-.49,1.27-1.19,1.56-2.44,1.02-5.31,.37-6.6-1.46-1.27-1.81-1.11-4.39,.4-6.04,1.36-1.49,3.11-1.83,4.95-1.34,1.85,.5,2.83,1.96,3.19,3.79,.24,1.19-.34,1.74-1.56,1.69-.93-.04-1.87,0-2.81,0h-3Z"/>
  <path class="cls-40" d="M71.59,220.36c1.12,1.96,2.46,2.37,4.64,1.59,.66-.23,1.48-.89,1.9,.16,.42,1.07-.54,1.35-1.29,1.64-2.43,.94-5.17,.32-6.44-1.45-1.2-1.67-1.16-4.12,.1-5.76,1.29-1.67,3.04-2.08,5-1.73,1.66,.29,3.12,2,3.41,3.82,.19,1.18-.27,1.77-1.51,1.74-1.87-.03-3.74,0-5.81,0Z"/>
  <path class="cls-40" d="M168.42,132.66c1.31,2.01,2.6,2.37,4.8,1.56,.68-.25,1.47-.81,1.82,.3,.31,.97-.56,1.24-1.23,1.51-2.95,1.2-6.07,.1-7.1-2.49-.96-2.41,.2-5.15,2.63-6.19,2.81-1.2,5.88,.45,6.4,3.42,.21,1.23-.09,1.92-1.5,1.89-1.85-.05-3.7-.01-5.81-.01Z"/>
  <path class="cls-40" d="M123.14,220.38c1.32,1.88,2.75,2.36,4.89,1.74,.69-.2,1.41-.58,1.74,.27,.38,.98-.54,1.24-1.21,1.51-2.73,1.08-6.41-.43-7.17-2.91-.8-2.63,.73-5.28,3.49-6.05,2.39-.66,5.29,1.19,5.8,3.69,.23,1.14-.04,1.79-1.38,1.76-1.97-.05-3.95-.01-6.17-.01Z"/>
  <path class="cls-17" d="M305.14,69.68c0,1.99,.02,3.99,0,5.98-.02,1.01-.31,1.92-1.56,1.9-1.22-.02-1.55-.9-1.55-1.93,.03-4.18,.08-8.36,.15-12.54,.01-.91,.43-1.58,1.44-1.62,1.1-.04,1.59,.66,1.61,1.65,.04,2.18,.01,4.37,.01,6.55-.03,0-.06,0-.09,0Z"/>
  <path class="cls-9" d="M122.74,133.19c0,.5,0,.99,0,1.49,.02,1.3,0,2.6-1.76,1.18-.55-.45-.76,.14-1.09,.27-2.97,1.18-5.81-.8-5.65-3.98,.1-2.08,1.96-4.62,3.86-5.31,2.03-.73,4.11,.51,4.38,2.64,.15,1.23,.23,2.47,.34,3.7-.03,0-.05,0-.08,0Z"/>
  <path class="cls-9" d="M148.22,132.87c0,.82,0,1.32,0,1.82,.02,1.31,0,2.59-1.76,1.16-.55-.44-.76,.15-1.09,.28-2.97,1.18-5.89-.82-5.61-3.99,.21-2.38,1.47-4.2,3.69-5.19,2.08-.93,4.22,.31,4.53,2.53,.17,1.23,.33,2.46,.25,3.39Z"/>
  <path class="cls-9" d="M62.44,220.86c0,.56,0,1.12,0,1.68,0,1.34-.29,2.25-1.74,1.03-.57-.47-.76,.12-1.09,.24-1.59,.6-3.06,.44-4.36-.62-1.37-1.11-1.59-2.67-1.17-4.24,.39-1.45,1.19-2.73,2.43-3.66,1.16-.87,2.37-1.22,3.81-.65,1.43,.57,1.9,1.64,1.95,3.06,.04,1.05,.15,2.1,.23,3.15-.02,0-.04,0-.06,0Z"/>
  <path class="cls-9" d="M63.39,131.22c0,2.75-1.97,4.95-4.47,4.98-2.28,.03-4.14-2.1-4.17-4.8-.03-2.59,1.74-4.72,3.94-4.74,2.88-.03,4.69,1.73,4.69,4.56Z"/>
  <path class="cls-9" d="M150.2,219.11c0,1.25,.04,2.49-.01,3.74-.05,1.07-.54,1.79-1.58,.87-.59-.52-.87-.09-1.27,.06-1.83,.69-3.1,.27-4.07-1.43-1.25-2.2-.99-4.57-.7-6.92,.07-.53,.41-.97,1.01-.88,.67,.11,.81,.66,.79,1.28-.05,1.24-.24,2.51-.08,3.72,.15,1.18,.34,2.72,2.01,2.66,1.73-.07,2.16-1.39,2.11-2.93-.04-1.25-.03-2.49-.04-3.74,0-.63,.21-1.14,.92-1.13,.7,.01,.92,.53,.92,1.16,0,1.18,0,2.37,0,3.55,0,0,0,0,0,0Z"/>
  <path class="cls-17" d="M156.16,215.07c.08,.55-.11,.81-.36,.98-.44,.3-1.26,.05-1.17,1.06,.13,1.48,.04,2.99,.23,4.46,.04,.29,.93,.44,1.41,.7,.41,.22,.69,.54,.49,1.05-.18,.44-.51,.67-1.01,.67-1.45,0-2.74-1.12-2.89-2.61-.09-.99-.06-1.99-.08-2.99,0-.31-.08-.65,.01-.93,.38-1.12-1.76-1.28-1-2.25,.57-.73,1.22-1.25,1.09-2.28-.08-.61,.18-1.13,.89-1.17,.61-.04,.94,.32,.92,.91-.02,.92-.19,1.88,1.18,1.97,.14,0,.25,.38,.28,.43Z"/>
  <path class="cls-17" d="M156.16,127.64c.61-.76,1.53-1.32,1.23-2.58-.14-.6,.32-1.07,1.03-1,.64,.06,.78,.52,.78,1.07,.01,.75-.29,1.51,1,1.74,.78,.14,.74,1.35-.06,1.51-1.25,.25-.98,1.02-.99,1.77-.01,.75,.03,1.5-.01,2.25-.05,1,.04,1.84,1.29,2.05,.59,.1,1.09,.45,.81,1.17-.23,.6-.67,.69-1.36,.55-1.64-.34-2.55-1.18-2.56-2.9,0-1-.15-2.01-.02-2.99,.13-1.03-.33-1.58-1.12-2.02-.16-.2-.17-.4-.02-.61Z"/>
  <path class="cls-17" d="M67.42,223.84c-1.52-.2-2.51-1.06-2.58-2.77-.04-1.06-.01-2.12-.04-3.18-.02-.64,.22-1.33-.7-1.71-.62-.26-.66-1.08-.06-1.33,.98-.41,.78-1.14,.82-1.85,.04-.68,.2-1.27,1.04-1.24,.78,.03,.83,.62,.82,1.21-.01,.71-.3,1.38,.93,1.56,.84,.13,.8,1.37,.08,1.51-1.48,.28-1.03,1.24-1.08,2.07-.03,.62,.03,1.25-.02,1.87-.09,1.09,.06,1.98,1.38,2.19,.53,.09,.97,.44,.79,1.04-.17,.6-.62,.91-1.4,.63Z"/>
  <path class="cls-17" d="M112.7,129.79c0,1.74,0,3.48,0,5.22,0,.73-.14,1.45-1.08,1.39-.87-.06-.77-.8-.77-1.42,0-3.29-.03-6.58-.02-9.87,0-.69-.25-1.7,.84-1.75,1.23-.05,1,1.01,1.01,1.78,.02,1.55,0,3.1,0,4.66h0Z"/>
  <path class="cls-29" d="M156.16,127.64c0,.2,.02,.41,.02,.61-.4,.24-.66,.62-1.24,.69-2.59,.33-2.6,.38-2.6,3.02,0,1.12,.01,2.25-.02,3.37-.01,.63-.28,1.11-1.01,1.06-.65-.04-.78-.53-.79-1.07-.03-2.56-.06-5.11-.06-7.67,0-.53,.47-1.27,.81-.93,1.23,1.24,2.52,.16,3.74,.34,.4,.06,.76,.37,1.14,.56Z"/>
  <path class="cls-11" d="M73.53,33.46c.16-.12,.26-.18,.35-.26,.83-.76,1.23-2.63,2.32-2.22,.92,.35,.36,2.14,.31,3.27-.04,.93,.72,2.4-.58,2.66-.49,.1-.13-1.73-.27-2.66-.06-.4-.01-.82-.01-1.37q-2.01,1.97-4.17,.05c0,1.18,0,2.21,0,3.24,0,.38-.04,.82-.49,.88-.52,.07-.55-.39-.55-.76-.02-1.62-.03-3.23-.01-4.85,0-1.01,.59-.84,1.05-.38,.74,.75,1.37,1.6,2.05,2.4Z"/>
  <path class="cls-8" d="M164.45,131.66c0,1.18,0,2.36,0,3.53,0,.6-.11,1.16-.84,1.21-.71,.05-1-.41-1-1.05,0-2.54,.02-5.08,.04-7.63,0-.56,.26-.98,.85-1.02,.72-.05,.99,.43,1,1.05,.02,1.3,0,2.6,0,3.9-.02,0-.03,0-.05,0Z"/>
  <path class="cls-6" d="M43.88,33.96c-.01,1.92-.84,3.11-2.18,3.15-1.4,.04-2.37-1.25-2.38-3.18-.01-1.99,.88-3.23,2.3-3.21,1.48,.02,2.27,1.16,2.26,3.24Z"/>
  <path class="cls-18" d="M343.47,31.84c-.84-.46-1.09-.88-.15-1.6,2.36-1.81,6.28-1.81,8.49,.1,.25,.22,.73,.37,.49,.83-.3,.56-.76,.79-1.34,.33-1.82-.54-3.64-1.03-5.52-.33-.65,.25-1.27,.56-1.96,.68Z"/>
  <path class="cls-24" d="M367.13,35.3c-2.98,.74-6.07,.55-8.99,.16-1.78-.24-.48-2.56-.76-3.91-.14-.7-.37-1.85,.85-1.89,2.74-.1,5.48-.06,8.22-.02,.93,.01,.99,.76,1,1.48-.07,.39-.05,.86-.66,.79-.79-.78-1.73-1.1-2.85-1.05-1.73,.07-3.46-.05-5.18,.07-1.05,1.04-.51,2.25-.36,3.41,.12,.12,.25,.22,.41,.3,2.46,.18,4.92,.08,7.38,.05,.19-.03,.39-.04,.59-.02,.29,.11,.55,.24,.35,.62Z"/>
  <path class="cls-3" d="M69.36,36.05c.28,.73,.18,.94-.1,1.02-.36,.11-.51-.12-.71-.4-1.38-2.01-1.9-1.99-3.36,.09-.16,.22-.28,.4-.57,.34-.4-.09-.44-.34-.31-.69,.66-1.74,1.28-3.48,1.96-5.21,.29-.74,.81-.55,1.06,0,.78,1.75,1.48,3.54,2.03,4.86Z"/>
  <path d="M337.88,32.62c0,1.18,0,2.35,0,3.53,0,.5,.06,.97-.72,.98-.72,0-.79-.34-.79-.91,.02-2.41,.02-4.83,0-7.24,0-.6,.13-.89,.82-.88,.8,0,.68,.52,.69,1,0,1.18,0,2.35,0,3.53Z"/>
  <path class="cls-37" d="M47.86,34.47c-1.28,.53-2.35,.64-3.05-.57-.47-.82-.42-1.7,.22-2.42,.8-.9,1.78-.91,2.88-.51,.63,.23,.89,.51,.86,1.17-.05,1.36-.03,2.73-.07,4.09-.01,.38,.15,.98-.57,.88-.5-.07-.42-.52-.4-.88,.03-.49,.08-.98,.14-1.76Z"/>
  <path class="cls-11" d="M58.13,36.2c1,0,1.91-.02,2.82,.01,.28,0,.67,.03,.64,.46-.03,.4-.38,.43-.69,.44-.06,0-.13,.01-.19,0-1.24-.24-2.99,.74-3.63-.58-.65-1.36,1.26-1.87,1.97-2.8,.41-.54,1.46-1.05,.63-1.78-.66-.59-1.37-.08-1.65,.79-.1,.31-.28,.6-.65,.4-.29-.16-.37-.46-.27-.8,.26-.86,.84-1.39,1.68-1.56,.77-.16,1.47,0,1.93,.77,.45,.77,.26,1.46-.25,2.07-.7,.84-1.46,1.63-2.34,2.59Z"/>
  <path class="cls-37" d="M52.03,32.68c.17-1.7,1.84-2.57,3.39-1.92,.14,.06,.3,.21,.34,.35,.09,.32-.19,.43-.42,.48-.3,.06-.62,.03-.92,.06-.57,.05-1.37-.26-1.41,.72-.04,.97,.78,.49,1.23,.61,1.1,.3,1.68,1.01,1.73,2.13,.04,1-.48,1.69-1.41,1.94-.86,.23-1.75,.24-2.3-.69-.18-.31-.48-.69-.12-1,.4-.34,.63,.02,.84,.35,.41,.63,.92,.78,1.56,.31,.46-.33,.68-.73,.43-1.28-.29-.65-.79-1-1.49-.71-1.93,.82-1.78-.24-1.44-1.35Z"/>
  <path class="cls-29" d="M301.85,57.78c.06-1.14,.54-1.94,1.79-1.93,1.13,.01,1.67,.72,1.7,1.8,.04,1.18-.52,1.92-1.75,1.92-1.14,0-1.63-.73-1.73-1.8Z"/>
  <path class="cls-3" d="M346.08,32.58c-.74,.1-1.58,1.06-2.14-.27,.25-.81,.89-1.16,1.63-1.4,1.84-.6,3.58-.6,5.07,.86,.55,.41,.32,.82,0,1.24-1.59,.57-3-.7-4.55-.44Z"/>
  <path d="M335.63,34.09c0,.74-.01,1.48,0,2.22,0,.49-.07,.83-.69,.81-.49-.02-.83-.05-.82-.68,.02-1.54,.02-3.08,0-4.63,0-.58,.25-.71,.78-.72,.58,0,.74,.25,.73,.77-.02,.74,0,1.48,0,2.22Z"/>
  <path class="cls-43" d="M125.37,213.81c-.87-.09-1.23-.53-1.03-1.04,.41-1.04,1.04-2.02,2.23-2.25,.57-.11,.94,.43,.77,.99-.35,1.11-1.26,1.74-1.98,2.3Z"/>
  <path class="cls-40" d="M331.9,35.25c0-.43,.01-.86,0-1.29-.02-.66,.44-.64,.87-.59,1.17,.13,.61,1.07,.58,1.57-.05,.72,.63,1.75-.55,2.15-.37,.12-.9,.13-.89-.55,0-.43,0-.86,0-1.29Z"/>
  <path class="cls-25" d="M349.53,34.12c-1.15,.62-2.43-.37-3.59,.26-.05,.03-.51-.42-.5-.63,.03-.59,.64-.64,1.05-.86,1.71-.78,2.76-.36,3.05,1.23Z"/>
  <path class="cls-33" d="M164.65,124.46c-.13,.66-.44,1.15-1.2,1.09-.66-.05-.94-.51-.93-1.13,0-.62,.28-1.06,.95-1.11,.78-.05,1.03,.49,1.18,1.14Z"/>
  <path class="cls-16" d="M350.64,31.78c-1.63-.98-3.35-1.26-5.18-.63-.37,.18-.47,0-.44-.34,2.1-.86,4.12-.91,5.94,.68-.11,.1-.22,.19-.33,.29Z"/>
  <path class="cls-40" d="M329.64,35.97c.02-.56-.16-1.14,.75-1.14,1.08,0,.67,.77,.74,1.28,.08,.62-.02,1.04-.84,1-.96-.05-.56-.73-.66-1.15Z"/>
  <path class="cls-45" d="M349.53,34.12c-.45-1.82-1.83-1.32-3.05-1.23-.14-.1-.27-.2-.41-.31,1.01-.65,2.04-.49,3.06-.04,.48,.21,.89,.66,1.49,.47-.37,.37-.73,.73-1.1,1.1Z"/>
  <path class="cls-40" d="M328.89,36.41c.08,.58-.24,.69-.75,.71-.72,.04-.75-.37-.75-.91,0-.67,.43-.58,.86-.61,.62-.04,.7,.33,.64,.81Z"/>
  <path class="cls-33" d="M367.11,31.81c.01-.28,.07-.55,.35-.69,.84,.99,.84,1.99,.04,3-.78,.08-.43-.51-.51-.85,.03-.49,.03-.98,.11-1.47Z"/>
  <path class="cls-35" d="M348.37,35.09c-.36,.35-.48,1.16-1.24,.56-.22-.17-.59-.46-.27-.72,.47-.37,1.02-.33,1.51,.15Z"/>
  <path class="cls-31" d="M345.02,30.82c.15,.11,.29,.23,.44,.34-.51,.39-1.02,.77-1.52,1.16-.15-.16-.31-.32-.46-.48,.52-.34,1.03-.68,1.55-1.02Z"/>
  <path class="cls-28" d="M367.4,33.21c.09,.3-.31,.65,.11,.91-.16,.38,.13,.9-.37,1.18-.14-.15-.28-.3-.42-.45-.48-.84-.56-1.52,.69-1.63Z"/>
  <path class="cls-32" d="M50.84,33.01c-.07,.3-.32,.34-.56,.35-.28,.01-.48-.15-.46-.43,.03-.36,.27-.52,.63-.43,.25,.06,.44,.2,.39,.51Z"/>
  <path class="cls-30" d="M50.15,36.08c.46,.22,.79,.27,.73,.68-.05,.31-.31,.36-.53,.36-.32,0-.6-.14-.5-.53,.05-.21,.22-.38,.3-.51Z"/>
  <path d="M363,736.8c-.47,.62-.95,1.26-1.43,1.91-.45,.63-1.03,1.11-.54,2.13,.47,.97,1.07,1.17,2.01,1.29,.91,.11,2.31-.19,2.55,.93,.35,1.61,.53,3.43-.13,4.97-.38,.89-1.81,.5-2.76,.72-1.85,.44-2.32,1.54-1.24,3.09,.54,.78,1.88,1.44,1.37,2.44-.79,1.54-2.06,2.87-3.65,3.64-.92,.45-1.46-.69-2.16-1.12-.71-.43-1.18-1.15-2.29-.68-1.1,.46-1.01,1.29-1.12,2.1-.33,2.59-.32,2.59-2.94,2.59-.44,0-.88-.05-1.31,0-1.43,.19-2.29-.23-2.23-1.85,.02-.49-.16-.98-.24-1.47-.23-1.38-1.51-1.94-2.69-1.15-.57,.38-1.14,.78-1.64,1.24-.71,.66-1.28,.56-1.89-.12-.37-.42-.8-.78-1.21-1.17q-2.13-2.07-.34-4.46c1.11-1.49,.6-2.77-1.27-3.19-2.99-.67-2.88-.68-3.03-3.83-.09-1.86,.38-2.78,2.37-2.76,.87,.01,1.76-.03,2.3-1.16,.58-1.21-.13-1.82-.74-2.41-1.41-1.34-1.31-2.47,.18-3.63,.49-.38,.91-.85,1.33-1.31,.87-.95,1.72-1.15,2.68-.11,.29,.31,.69,.53,1.04,.79,1.37,1.02,2.64,.45,2.92-1.25,.16-1-.16-2.48,.9-2.83,1.57-.52,3.35-.42,4.98-.03,.86,.21,.61,1.39,.74,2.13,.47,2.77,1.5,3.34,3.52,1.57,1.55-1.35,2.63-1.21,3.81,.32,.67,.87,1.68,1.48,2.14,2.67Z"/>
  <path d="M185.8,745.39c0-4.68-.01-9.36,0-14.04,0-1.76,.27-1.93,1.78-1.09,8.47,4.7,16.93,9.42,25.41,14.1,1.37,.76,1.23,1.3-.04,2-8.48,4.69-16.95,9.4-25.42,14.12-1.27,.71-1.77,.48-1.76-1.05,.05-4.68,.02-9.36,.02-14.04Z"/>
  <path d="M120.99,761.88c-2.56,0-5.12,.04-7.68,0-3.62-.07-5.34-1.94-5.21-5.54,.08-2.32,.34-4.6,1.39-6.72,1.3-2.6,4.3-4.11,7.08-2.01,2.88,2.18,6.18,1.83,9.25-.09,2.49-1.57,4.78-1.1,6.33,1.41,1.7,2.76,2.11,5.86,1.79,9.01-.26,2.51-2.14,3.87-5.09,3.93-2.62,.06-5.24,.01-7.86,.01Z"/>
  <path d="M43.69,752.19c-1.12-3.94,.99-6.25,3.96-8.33,2.39-1.68,4.59-3.65,6.8-5.57,.66-.57,1.02-.54,1.66,0,3.29,2.77,6.62,5.51,9.96,8.22,.65,.53,.89,1.1,.87,1.92-.04,2.56-.04,5.12,0,7.68,.02,1.45-.49,2.2-2.09,2.12-1.93-.1-3.87-.08-5.8,0-1.01,.04-1.28-.32-1.24-1.28,.07-1.75-.01-3.5,.03-5.25,.02-.85-.21-1.18-1.14-1.23-3.94-.23-3.93-.26-3.93,3.65s0,4.12-4.01,4.08c-5.66-.06-5.02,.93-5.06-5.07,0-.31,0-.62,0-.94Z"/>
  <path d="M61.67,736.99c0-1,0-1.5,0-2q0-2.58,2.52-2.58,2.74,0,2.74,2.77c0,.44,.06,.88,0,1.31-.55,3.45,.41,6.18,3.63,7.91,1.06,.57,1.08,1.24,.23,2.2-.8,.9-1.29,1.25-2.36,.33-3.88-3.34-7.88-6.52-11.72-9.9-1.18-1.04-1.82-.87-2.9,.07-3.82,3.31-7.75,6.48-11.59,9.77-.96,.83-1.55,.88-2.4-.16-.83-1.01-.76-1.56,.26-2.39,4.35-3.54,8.64-7.17,12.95-10.77,1.88-1.57,2.66-1.56,4.55,.02,1.27,1.06,2.54,2.13,4.11,3.43Z"/>
  <path d="M128.11,740.62c0,3.97-3.18,7.11-7.14,7.07-3.84-.04-7-3.2-7.03-7.04-.03-3.92,3.17-7.16,7.09-7.17,3.95,0,7.09,3.16,7.08,7.14Z"/>
  <path d="M272.87,758.58c-5.49,0-10.99-.03-16.48,.03-1.21,.01-1.71-.14-1.7-1.56,.08-7.99,.04-15.99,.03-23.98,0-.82-.17-1.53,1.15-1.52,1.39,0,1.09,.82,1.09,1.58,0,7.18,.05,14.37-.04,21.55-.02,1.46,.41,1.7,1.76,1.7,10.11-.06,20.23-.04,30.34-.02,.78,0,1.72-.4,1.71,1.14-.01,1.59-1.03,1.08-1.76,1.08-5.37,.03-10.74,.02-16.11,.02Z"/>
  <path d="M286.19,744.05c0,2.87-.06,5.75,.03,8.62,.04,1.16-.27,1.46-1.44,1.44-3.09-.05-3.09,.02-3.09-3.13,0-5.25,.04-10.49-.03-15.74-.01-1.16,.27-1.46,1.43-1.44,3.09,.05,3.09-.02,3.09,3.13v7.12Z"/>
  <path d="M272.7,745.27c0,2.5-.05,5,.02,7.49,.03,1.06-.28,1.34-1.34,1.34-3.18,0-3.18,.05-3.18-3.22,0-4.43,.05-8.87-.03-13.3-.02-1.22,.3-1.56,1.53-1.53,2.99,.06,3,0,3,3.03v6.18Z"/>
  <path d="M127.87,745.35c.99-1.94,1.64-3.73,1.29-5.95,2.45,.82,4.52,.25,6.52-.83,1.17-.63,1.91-.12,2.34,.97,.74,1.9,.76,3.89,.6,5.88-.07,.9-.68,1.54-1.45,1.79-1.88,.61-3.77,1.15-5.53-.51-.96-.91-2.24-1.3-3.77-1.35Z"/>
  <path class="cls-40" d="M114.27,745.34c-1.79,.06-3.09,.78-4.36,1.76-1.54,1.2-3.31,.7-4.93,.13-1.47-.51-1.65-1.83-1.61-3.23,.04-1.38,.1-2.75,.53-4.05,.45-1.35,1.18-2.12,2.79-1.27,1.65,.87,3.4,1.54,5.34,.88,.75-.25,.8,.18,.78,.77-.06,1.72,.48,3.3,1.45,5.01Z"/>
  <path d="M136.35,733.49c.02,2.6-2.1,4.8-4.66,4.83-2.54,.03-4.73-2.16-4.76-4.74-.02-2.66,2.01-4.74,4.67-4.76,2.66-.02,4.73,2.01,4.75,4.67Z"/>
  <path class="cls-40" d="M115.17,733.52c.02,2.56-2.18,4.79-4.72,4.79-2.53,0-4.73-2.21-4.75-4.78-.02-2.58,2.13-4.72,4.73-4.72,2.66,0,4.72,2.04,4.74,4.71Z"/>
  <path d="M279.45,747.47c0,1.62-.12,3.26,.03,4.87,.15,1.56-.47,1.83-1.85,1.78-2.67-.1-2.68-.03-2.68-2.79,0-3.12,.03-6.24-.02-9.36-.02-.98,.13-1.4,1.28-1.4,3.24,0,3.24-.06,3.24,3.17v3.75Z"/>
  <path d="M265.96,749.61c0,.75-.11,1.52,.02,2.24,.35,1.95-.5,2.26-2.29,2.31-1.95,.05-2.43-.54-2.26-2.36,.17-1.79,.07-3.62,.02-5.43-.02-.86,.06-1.31,1.16-1.32,3.34-.05,3.34-.11,3.34,3.25v1.31Z"/>
  <path class="cls-42" d="M60.15,443.7c-8.19,4.37-12.2,12.44-10.26,21.01,1.78,7.85,9.18,13.76,17.36,13.88,8.15,.12,15.72-5.75,17.67-13.73,1.99-8.16-1.81-17.04-10.25-21.22,1.18,0,2.36,0,3.53,0,12.55-.02,25.09-.05,37.64-.07,21.97-.04,43.94-.23,65.91-.09,31.96,.2,63.92,.35,95.87,.09,26.96-.22,53.92,.37,80.88,.08,2.78-.03,2.8,0,2.8,2.69,.03,10.17,.06,20.35,.08,30.52,0,3.06,0,3.07-3.1,3.07-41.63,0-83.27,0-124.9,0-23.28,0-46.56,.1-69.84,.06-39.13-.07-78.27-.2-117.4-.31-3.06,0-3.13-.02-3-3.13,.45-10.42,.29-20.85,.3-31.28,0-1.36,.4-1.61,1.66-1.6,5.02,.07,10.05,.03,15.07,.03Z"/>
  <path class="cls-42" d="M79.91,469.36c-.55-1.54-.92-2.99-1.86-4.2-1.66-2.15-3.47-2.42-5.74-1.01-3.19,1.98-6.48,2.02-9.69,.07-2.5-1.51-4.41-1.14-6.09,1.3-.78,1.14-1.05,2.49-1.6,3.75-4.47-5.54-3.67-14.53,1.73-19.79,5.74-5.59,14.87-5.8,21.02-.46,5.77,5,6.82,13.97,2.22,20.34Z"/>
  <path class="cls-42" d="M58.95,353.74c-9.35,5.79-12.86,13.45-10.26,21.93,2.41,7.87,9.68,13.21,17.65,12.95,8.19-.26,15.36-6.1,17.14-13.92,1.77-7.77-1.57-16.59-10.31-21.01,1.18,0,2.37,0,3.55,0,12.61-.02,25.22-.05,37.82-.07,21.78-.04,43.57-.23,65.35-.09,31.77,.2,63.54,.35,95.31,.1,27.46-.22,54.92,.37,82.37,.03,1.72-.02,2.26,.47,2.25,2.19-.04,10.36,.02,20.72,.05,31.08,0,3.03,0,3.04-3.13,3.04-34.64,0-69.29-.01-103.93,0-25.53,.02-51.06,.14-76.59,.11-42.44-.06-84.88-.21-127.33-.33-1.81,0-3.62-.09-5.43-.04-1.47,.04-1.94-.59-1.88-2.02,.34-8.36,.39-16.73,.35-25.1-.01-2.56,0-5.12,.02-7.68,0-.5-.25-1.18,.7-1.18,5.33,.01,10.66,0,16.28,0Z"/>
  <path class="cls-42" d="M78.41,379.35c-.54-1.35-.85-2.74-1.67-3.91-1.63-2.3-3.6-2.65-5.99-1.18-3.21,1.96-6.49,1.94-9.69-.03-2.32-1.43-4.22-1.12-5.86,1.11-.86,1.18-1.23,2.57-1.7,3.93-4.45-4.69-3.8-13.96,1.34-19.4,5.6-5.92,15.16-6.25,21.42-.74,5.73,5.04,6.76,14.34,2.15,20.22Z"/>
  <path class="cls-42" d="M59.39,398.72c-8.23,4.52-12.07,12.15-10.29,20.81,1.59,7.71,8.62,13.59,16.81,14.05,7.81,.44,15.3-4.76,17.88-12.41,2.87-8.53-.47-16.11-10.15-22.5,1.4,0,2.5,0,3.59,0,31.08-.08,62.16-.31,93.25-.2,35.02,.13,70.03,.41,105.05,.13,27.59-.22,55.17,.33,82.75,.03,1.67-.02,2.3,.37,2.3,2.14-.04,10.67,0,21.34,.07,32.02,.01,1.63-.38,2.2-2.17,2.2-33.96-.06-67.91-.06-101.87-.04-26.59,.02-53.18,.14-79.77,.11-42.38-.06-84.76-.21-127.14-.33-1.75,0-3.5-.09-5.24-.02-1.59,.06-2.21-.51-2.13-2.18,.41-8.36,.36-16.73,.36-25.09,0-2.5,0-5,.01-7.49,0-.59-.2-1.24,.85-1.23,5.28,.04,10.56,.02,15.84,.02Z"/>
  <path class="cls-42" d="M79.17,424.3c-.56-1.25-.82-2.6-1.6-3.74-1.67-2.45-3.61-2.83-6.09-1.32-3.21,1.96-6.5,1.92-9.69-.05-2.28-1.41-4.1-1.18-5.73,1-.44,.59-.77,1.28-1.07,1.95-.3,.68-.51,1.4-.76,2.11-4.48-4.91-3.76-14.19,1.5-19.56,5.67-5.79,15.1-6.05,21.29-.58,5.73,5.05,6.74,14.43,2.15,20.18Z"/>
  <path class="cls-42" d="M200.25,583.36c-18.1,0-36.2,.02-54.3,0-32.27-.05-64.54-.13-96.8-.21-2.18,0-4.37-.08-6.55-.06-1.24,.01-1.8-.44-1.75-1.76,.44-11.05,.34-22.1,.35-33.15,0-.8,.2-1.15,1.04-1.05,.55,.06,1.12,0,1.68,0,15.98-.02,31.96-.02,47.94-.05,28.08-.06,56.17-.28,84.25-.16,33.2,.14,66.41,.36,99.61,.09,27.02-.22,54.04,.38,81.06,.04,1.67-.02,2.3,.37,2.3,2.14-.04,10.67,0,21.34,.07,32.02,.01,1.63-.38,2.22-2.17,2.2-10.74-.09-21.47-.04-32.21-.04-41.51,0-83.01,0-124.52,0Z"/>
  <path class="cls-42" d="M199.81,495.36c25.47,0,50.93,.22,76.4-.06,26.9-.3,53.79,.36,80.69,.03,1.59-.02,2.19,.36,2.19,2.06-.04,10.73-.01,21.47,.07,32.2,.01,1.61-.46,2.08-2.09,2.08-32.08-.05-64.17-.05-96.25-.03-27.96,.02-55.92,.14-83.89,.11-42.88-.06-85.75-.21-128.63-.33-1.87,0-3.74-.08-5.62-.05-1.35,.03-1.89-.48-1.83-1.88,.17-4.05,.29-8.11,.33-12.17,.06-6.74,.08-13.49,0-20.23-.02-1.42,.35-1.72,1.74-1.72,18.85,.03,37.7,.01,56.55-.02,25.77-.05,51.55-.13,77.32-.19,7.68-.02,15.35,0,23.03,0v.2Z"/>
  <path class="cls-42" d="M200.01,678.56c-17.97,0-35.95,.02-53.92,0-31.89-.05-63.79-.13-95.68-.21-2.56,0-5.12-.08-7.68-.04-1.46,.02-1.95-.58-1.89-2.01,.46-10.92,.36-21.85,.33-32.78,0-1.51,.87-1.17,1.67-1.17,22.28-.03,44.57-.02,66.85-.07,22.9-.04,45.81-.28,68.71-.16,31.77,.17,63.54,.35,95.3,.1,27.71-.22,55.41,.33,83.12,.03,1.73-.02,2.25,.48,2.25,2.19-.04,10.55,.03,21.09,.04,31.64,0,2.45-.03,2.48-2.75,2.48-35.27,0-70.53,0-105.8,0-16.85,0-33.7,0-50.55,0Z"/>
  <path class="cls-22" d="M206.23,314.07h-5.93c.56-1.5,1.62-2.18,2.97-2.17,1.35,0,2.49,.58,2.96,2.17Z"/>
  <path class="cls-19" d="M176.41,314.87c.01-2.06,.98-3.14,2.8-3.12,1.94,.02,2.95,1.16,2.91,3.27-.04,1.86-1.24,3.22-2.86,3.24-1.75,.02-2.85-1.3-2.84-3.39Z"/>
  <path class="cls-42" d="M201.5,185.33c-17.97,0-35.95,.02-53.92,0-31.96-.05-63.91-.14-95.87-.21-2.43,0-4.87-.07-7.3-.03-1.45,.02-2.14-.42-2.07-2.04,.48-10.92,.37-21.85,.34-32.78,0-1.52,.9-1.16,1.68-1.16,22.28-.03,44.57-.03,66.85-.07,22.72-.04,45.43-.28,68.15-.16,31.96,.17,63.91,.35,95.87,.1,27.71-.22,55.41,.35,83.12,.03,1.74-.02,2.24,.51,2.23,2.2-.03,10.55,.03,21.09,.04,31.64,0,2.44-.03,2.46-2.76,2.47-36.39,0-72.78,0-109.17,0-15.73,0-31.46,0-47.18,0Z"/>
  <path class="cls-42" d="M201.5,272.28c-17.97,0-35.95,.02-53.92,0-32.45-.05-64.91-.13-97.36-.21-2,0-3.99-.09-5.99-.04-1.47,.04-1.95-.58-1.89-2.02,.46-10.92,.36-21.85,.33-32.78,0-1.51,.88-1.17,1.68-1.17,21.66-.03,43.32-.03,64.98-.07,23.9-.05,47.81-.29,71.71-.16,32.02,.18,64.04,.35,96.05,.09,27.09-.22,54.17,.4,81.25,.04,1.73-.02,2.25,.49,2.24,2.2-.04,10.17,.02,20.34,.05,30.52q0,3.6-3.51,3.6c-34.89,0-69.78,0-104.68,0h-50.93Z"/>
  <path class="cls-19" d="M250.54,69.48c0-3.14,.6-4.01,3.23-4.8,.49-.15,.94-.22,1.45-.07,1.99,.57,3.54,3.4,3.23,5.93-.29,2.32-2.11,3.99-4.4,4.03-1.66,.03-3.4-1.55-3.5-3.22-.04-.62,0-1.24,0-1.87Z"/>
  <path class="cls-19" d="M232.94,68.13h-8.5c.54-1.97,2.13-3.23,4.11-3.29,2.12-.06,3.62,1.04,4.39,3.29Z"/>
  <path class="cls-19" d="M320.56,68.14c-2.87,0-5.71,0-8.56,0,.58-1.98,2.16-3.24,4.14-3.3,2.14-.07,3.58,1,4.41,3.3Z"/>
  <path class="cls-44" d="M162.62,68.14h-8.53c.68-2.07,2.32-3.32,4.33-3.3,2.09,.02,3.53,1.13,4.19,3.3Z"/>
  <path class="cls-42" d="M275.01,70.3c.37,1.72-.56,2.71-1.91,3.47-1.48,.83-3,1.17-4.6,.32-.16-.09-.32-.19-.47-.31-1.58-1.28-1.5-3.66,.18-6.27,1.53-2.37,3.69-3.4,5.39-2.57,.6,.3,.93,.77,1,1.46,.12,1.3,.27,2.6,.41,3.9Z"/>
  <path class="cls-42" d="M111.68,70.2c0,2.8-2.83,5.01-5.55,4.28-1.63-.44-2.68-1.54-2.55-3.23,.19-2.61,1.41-4.77,3.75-6.09,2.12-1.19,3.73-.3,4.02,2.08,.12,.99,.23,1.98,.35,2.97Z"/>
  <path class="cls-19" d="M43.88,217.56c0-1.12,.08-2.25-.02-3.36-.1-1.19,.28-1.73,1.52-1.71,1.94,.03,3.79,.27,4.82,2.16,1.08,1.98,.81,3.99-.39,5.83-1.24,1.89-3.24,1.8-5.19,1.79-.74,0-.75-.45-.75-.98,.01-1.24,0-2.49,0-3.73Z"/>
  <path class="cls-19" d="M131.79,131.55c0-1.78,.93-2.87,2.39-2.83,1.29,.04,2.23,1.37,2.23,3.16,0,1.74-.97,2.77-2.58,2.74-1.53-.03-2.06-.82-2.05-3.07Z"/>
  <path class="cls-4" d="M91.64,219.23c0,2.23-.6,3.02-2.29,3.04-1.41,.02-2.38-1.18-2.39-2.96-.01-1.75,1.1-3.06,2.58-3.05,1.55,.01,2.1,.79,2.1,2.97Z"/>
  <path class="cls-4" d="M117.48,219.38c0,2.08-.6,2.84-2.25,2.89-1.41,.04-2.4-1.15-2.43-2.92-.03-1.75,1.06-3.08,2.54-3.09,1.59-.02,2.15,.8,2.14,3.12Z"/>
  <path class="cls-19" d="M91.15,131.59c0,2.2-.62,3-2.3,2.97-1.4-.02-2.33-1.24-2.32-3.02,.02-1.74,1.15-3.03,2.63-2.99,1.54,.05,1.99,.74,1.99,3.03Z"/>
  <path class="cls-4" d="M97.03,130.73c.64-1.36,1.55-1.94,2.87-1.86,1.17,.07,1.94,.63,2.35,1.86h-5.22Z"/>
  <path class="cls-19" d="M134.42,219.1c-.15-1.35,.11-2.65,1.93-2.82,1.3-.12,2.53,1.59,2.47,3.41-.05,1.39-.39,2.62-2.21,2.58-1.84-.04-2.19-.48-2.19-3.17Z"/>
  <path class="cls-22" d="M102.71,218.44h-5.26c.56-1.19,1.32-1.84,2.55-1.88,1.24-.04,2.13,.45,2.71,1.88Z"/>
  <path class="cls-22" d="M76.87,218.44h-5.23c.52-1.29,1.39-1.88,2.68-1.88,1.25,0,2.03,.61,2.54,1.88Z"/>
  <path class="cls-4" d="M173.74,130.73h-5.22c.56-1.24,1.37-1.84,2.59-1.87,1.23-.02,2.13,.46,2.63,1.87Z"/>
  <path class="cls-22" d="M128.52,218.49h-5.07c.33-1.4,1.24-1.92,2.51-1.92,1.27,0,2.2,.51,2.56,1.92Z"/>
  <path class="cls-21" d="M120.86,131.89c.05,1.59-1.03,2.63-2.57,2.66-1.29,.02-2.14-.52-2.19-1.93-.07-1.73,1.82-4.19,3.23-3.98,2.17,.32,1.09,2.26,1.53,3.25Z"/>
  <path class="cls-21" d="M146.34,131.91c.03,1.59-1.09,2.63-2.62,2.63-1.3,0-2.12-.58-2.15-1.98-.04-1.66,1.71-4.01,3.1-3.92,2.4,.17,1.16,2.29,1.68,3.26Z"/>
  <path class="cls-21" d="M60.54,219.53c.06,1.65-.95,2.67-2.52,2.71-1.28,.04-2.16-.47-2.24-1.89-.1-1.72,1.76-4.18,3.19-4.02,2.21,.26,1.13,2.22,1.57,3.19Z"/>
  <path class="cls-44" d="M61.55,131.28c0,1.65-1.08,2.9-2.49,2.9-1.41,0-2.44-1.25-2.43-2.94,0-1.59,.98-2.69,2.38-2.7,1.6,0,2.55,1.01,2.55,2.74Z"/>
  <path class="cls-4" d="M42.98,33.59c-.23,.96,0,2.31-1.36,2.31-1.19,0-1.28-1.24-1.28-2.15,0-.94-.08-2.2,1.32-2.22,1.37-.02,1,1.3,1.33,2.06Z"/>
  <path class="cls-22" d="M367.4,33.21c-.91,.26-.59,1.03-.69,1.63h0c-2.87,.36-5.74,.26-8.62,.04l-.02-.02c-.21-1.5-.31-3.01,.05-4.5,2.18,0,4.37,.08,6.54-.04,1.27-.07,2.15,.12,2.44,1.49,.41,.4,.12,.95,.29,1.4Z"/>
  <path class="cls-28" d="M358.1,34.88c2.87-.02,5.74-.03,8.62-.05-2.87,.68-5.74,.6-8.62,.05Z"/>
  <path class="cls-28" d="M358.13,30.36c-.02,1.5-.03,3-.05,4.5-.54-1.51-.62-3.01,.05-4.5Z"/>
  <path class="cls-26" d="M66.78,32.4c.29,.78,.94,1.2,.48,1.83-.1,.14-.7,.15-.82,0-.56-.65,.2-1.05,.34-1.84Z"/>
  <path class="cls-1" d="M46.46,33.8c-.63,.03-.95-.3-.97-.88-.02-.86,.5-1.21,1.31-1.16,.41,.02,.9,0,.84,.68-.07,.75-.32,1.32-1.18,1.36Z"/>
  <path class="cls-42" d="M350.29,750.4c-2.95,0-5.05-2.09-5.04-5.03,0-2.89,2.16-5.12,4.98-5.17,2.84-.04,5.23,2.34,5.21,5.19-.02,2.81-2.28,5-5.14,5Z"/>
  <path d="M343.11,455.94c1.63,1.71,3.18,3.41,4.81,5.03,.62,.61,.48,.97-.06,1.5-3.32,3.29-6.62,6.6-9.93,9.89-.47,.47-5.26,.84-5.76,.49-.09-.07-.17-.17-.23-.27-.53-.92,.16-5.57,.93-6.34,3.34-3.36,6.68-6.72,10.24-10.3Z"/>
  <path class="cls-40" d="M102.64,451.01c0,2,0,3.48,0,4.96,0,.69-.13,1.29-.98,1.25-.7-.03-.89-.55-.9-1.18-.04-2.37-.1-4.73-.12-7.1,0-.54,.03-1.18,.7-1.39,.64-.2,1.03,.19,1.4,.66,1.27,1.59,2.55,3.16,4.08,5.05,0-1.67,0-3.05,0-4.44,0-.67,.15-1.31,.98-1.3,.84,0,.96,.68,.95,1.33,0,2.37-.04,4.73-.06,7.1,0,.52-.08,1.04-.63,1.23-.62,.22-1.06-.11-1.42-.61-1.23-1.71-2.47-3.42-4.01-5.56Z"/>
  <path class="cls-17" d="M118.08,453.4c.04-3.42,1.08-4.15,4.42-2.93,.61,.22,1.01,.09,1.53-.09,2.19-.76,3.89,.29,4.11,2.58,.11,1.11,.03,2.24,0,3.35-.01,.57-.3,.96-.92,.92-.62-.03-.84-.48-.86-1.03-.05-1.05,.19-2.1-.02-3.16-.15-.75-.49-1.08-1.25-1.05-.9,.04-1.01,.69-.93,1.31,.13,.94,.02,1.86-.04,2.79-.04,.6-.22,1.17-.95,1.14-.86-.03-.88-.67-.87-1.34,.02-.93,0-1.87-.04-2.8-.04-.71-.38-1.12-1.19-1.11-.92,.01-.96,.58-.94,1.25,.02,1,.06,1.99,.02,2.99-.03,.62-.38,1.06-1.08,1.02-.63-.04-.81-.5-.84-1.04-.06-.93-.1-1.86-.15-2.79Z"/>
  <path class="cls-9" d="M170.06,453.61c0-.12,0-.25,0-.37,0-3.13,1.13-3.96,4.1-2.9,.67,.24,1.15,.3,1.84,.03,1.93-.75,3.72,.25,4.03,2.28,.18,1.16,.08,2.36,.07,3.54,0,.65-.33,1.09-1.03,1.04-.62-.04-.78-.51-.78-1.06,0-1,.03-1.99-.02-2.99-.04-.8-.47-1.25-1.33-1.19-.87,.07-.92,.66-.91,1.33,0,1,.02,1.99-.03,2.99-.03,.55-.36,.94-.96,.93-.62-.01-.85-.42-.85-.99,0-1,.02-1.99,0-2.99-.02-.78-.31-1.3-1.23-1.27-1,.03-1.05,.64-1.01,1.4,.04,.87,.04,1.74,.04,2.61,0,.68-.18,1.28-1.02,1.24-.7-.04-.89-.55-.89-1.18,.01-.81,0-1.62,0-2.43,0,0-.02,0-.03,0Z"/>
  <path class="cls-40" d="M133.59,452.45c0-.44-.04-.87,0-1.31,.11-1.15-.56-2.75,.5-3.33,1.38-.75,3.16-.52,4.71-.07,1.46,.43,2.22,1.58,2.06,3.15-.18,1.76-1.56,2.55-2.98,2.52-1.94-.04-2.65,.52-2.33,2.44,.12,.74-.12,1.43-1.06,1.37-.86-.06-.82-.78-.83-1.41,0-1.12,0-2.24,0-3.35-.03,0-.06,0-.08,0Z"/>
  <path class="cls-40" d="M352.16,457.33c0,.69-2.06,3.21-2.62,3.31-.4,.07-.55-.25-.75-.45-1.42-1.4-2.8-2.84-4.25-4.22-.59-.56-.62-.93,.02-1.45,.58-.47,1.04-1.08,1.61-1.56,.55-.47,1.27-.71,1.89-.23,1.47,1.16,2.79,2.48,3.95,3.94,.14,.17,.12,.48,.16,.65Z"/>
  <path class="cls-17" d="M148.78,454.6c.96,1.62,2.02,1.44,3.1,.74,.53-.34,.93-.3,1.3,.14,.41,.48,.21,.98-.19,1.31-1.23,1-2.62,1.11-4.03,.44-1.58-.75-2.34-2.28-2.17-3.78,.18-1.55,1.04-3.1,3.02-3.32,1.67-.18,2.94,.38,3.62,1.98,.68,1.6,.21,2.37-1.52,2.48-.97,.06-1.94,.01-3.14,.01Z"/>
  <path class="cls-17" d="M116.93,453.58c-.02,2.27-1.33,3.89-3.15,3.89-2.01,0-3.6-1.64-3.58-3.72,.02-2.03,1.44-3.72,3.14-3.73,2.3,0,3.61,1.29,3.59,3.56Z"/>
  <path class="cls-17" d="M162.14,453.81c0-2.15,1.27-3.74,3.03-3.78,2.22-.05,3.71,1.36,3.71,3.5,0,2.14-1.43,3.94-3.15,3.96-2.09,.02-3.57-1.5-3.58-3.69Z"/>
  <path class="cls-29" d="M154.77,453.53c0-.69,0-1.37,0-2.06-.01-.99,.26-1.65,1.41-1.18,.29,.12,.5,.21,.84,.15,2.72-.5,3.61,.15,3.9,2.87,.1,.92,.05,1.87-.01,2.8-.04,.57-.25,1.14-1,1.11-.78-.03-.84-.63-.85-1.2,0-.87,.07-1.74,.02-2.61-.05-.77-.22-1.5-1.28-1.46-1.07,.05-.9,.81-.91,1.48,0,.75,0,1.5,0,2.24,0,.72-.03,1.49-.94,1.54-.97,.06-1-.74-1.01-1.45-.01-.75,0-1.49,0-2.24-.06,0-.11,0-.17,0Z"/>
  <path class="cls-29" d="M132.98,469.22c0,.44,.12,.92-.02,1.3-.35,.91,.92,2.58-.75,2.72-3.49,.3-4.68-.59-4.79-2.87-.09-1.95,1.15-3.41,3.12-3.33,1.13,.04,1.23-.4,1.18-1.26-.02-.41-.04-.97,.56-.99,.73-.03,.67,.58,.67,1.07,0,1.12,0,2.24,0,3.36h.03Z"/>
  <path class="cls-8" d="M100.71,469.15c0-.5,0-1,0-1.49,.03-3.15,.06-3.18,3.25-2.91,1.75,.15,3.05,1.27,3.02,2.72-.03,1.79-1.43,2.41-2.79,2.39-1.85-.02-2.61,.47-2.19,2.37,.1,.43,.1,1.13-.64,1.08-.7-.05-.57-.7-.58-1.17-.02-1,0-1.99,0-2.99h-.08Z"/>
  <path class="cls-29" d="M114.87,470.77c.93,1.48,1.94,1.65,3.18,1.15,.43-.17,1.01-.54,1.28,.12,.31,.77-.43,.91-.92,1.1-1.84,.75-3.87,0-4.59-1.66-.7-1.63,.04-3.4,1.74-4.15,1.63-.73,3.29-.09,4.03,1.54,.65,1.44,.38,1.87-1.23,1.89-1.06,.02-2.12,0-3.49,0Z"/>
  <path class="cls-33" d="M141.71,453.54c0-.62-.04-1.25,0-1.87,.08-1.13,.25-2.14,1.77-1.16,.51,.33,1-.11,1.49-.3,.6-.23,1.15-.1,1.4,.54,.22,.58-.18,1.09-.66,1.15-2.1,.26-2.11,1.68-1.99,3.27,.06,.83,.35,1.99-.94,2.03-1.27,.03-1.04-1.14-1.07-1.97-.02-.56,0-1.12,0-1.68Z"/>
  <path class="cls-29" d="M109.87,473.39c-.88,0-1.64-.22-2.03-1.07-.21-.48-.65-1.09,.04-1.48,.64-.36,.86,.23,1.03,.7,.34,.92,1.04,.75,1.71,.55,.34-.1,.79-.25,.78-.69-.01-.41-.39-.57-.78-.64-.37-.06-.74-.1-1.1-.2-1.03-.29-1.88-.74-1.67-2.05,.17-1.04,.82-1.49,1.82-1.52,1.27-.04,2.38,.37,2.95,1.56,.29,.59-.3,.79-.74,.66-.39-.12-.68-.54-1.06-.71-.48-.22-1.02-.61-1.54-.08-.11,.12-.24,.36-.19,.47,.22,.55,.85,.38,1.25,.64,.05,.03,.12,.03,.18,.04,1.22,.14,2.36,.58,2.18,2-.19,1.56-1.57,1.71-2.84,1.82Z"/>
  <path class="cls-43" d="M137.23,466.98c1.78,.06,2.95,1.38,2.85,3.22-.1,1.76-1.5,3.2-3.07,3.16-1.55-.04-2.75-1.6-2.66-3.44,.1-1.88,1.19-2.99,2.89-2.93Z"/>
  <path class="cls-3" d="M126.18,470.24c0,.19,.04,.39,0,.56-.24,.86,.68,2.31-.78,2.5-2.89,.38-3.89-.25-4.37-2.21-.25-1.04-.13-2.1-.04-3.16,.04-.45,.07-.94,.67-.91,.62,.03,.54,.53,.54,.97,0,.93-.06,1.87,.08,2.78,.1,.66,.46,1.43,1.29,1.33,.79-.09,1.31-.65,1.3-1.56-.01-.81-.01-1.62,.01-2.43,.02-.48-.06-1.13,.67-1.08,.65,.04,.64,.64,.65,1.15,0,.68,0,1.37,0,2.05Z"/>
  <path class="cls-3" d="M151.93,447.65c-.56,.77-.99,1.84-2.17,1.95-.51,.05-.94-.53-.76-1.04,.34-.93,.92-1.77,1.99-1.94,.54-.08,.89,.35,.94,1.03Z"/>
  <path d="M67.36,464.37c-4.26-.02-7.68-3.46-7.68-7.72,0-4.34,3.47-7.71,7.9-7.67,4.25,.04,7.65,3.54,7.58,7.8-.07,4.27-3.5,7.61-7.8,7.6Z"/>
  <path d="M330.39,379.59c-.41-1.61,.44-2.92,1.83-4.21,2.87-2.67,5.6-5.5,8.34-8.32,.68-.7,1.09-.93,1.85-.08,1.2,1.35,2.5,2.61,3.82,3.84,.69,.64,.81,1.04,.06,1.77-3.25,3.18-6.44,6.42-9.67,9.63-.58,.58-5.17,1.1-5.9,.71-.42-.23-.33-.62-.34-.98-.01-.69,0-1.37,0-2.37Z"/>
  <path class="cls-40" d="M105.32,363.32c0-1.66,0-3.01,0-4.35,0-.66,.08-1.33,.9-1.38,.97-.06,1.05,.71,1.04,1.42,0,2.3-.04,4.61-.06,6.91,0,.57-.03,1.16-.72,1.35-.66,.18-1.04-.24-1.39-.71-1.22-1.69-2.44-3.38-3.95-5.48,0,1.94,0,3.4,0,4.86,0,.66-.04,1.32-.89,1.34-.83,.02-.98-.59-.99-1.27-.04-2.3-.11-4.61-.12-6.91,0-.59-.02-1.31,.79-1.5,.67-.16,1.01,.31,1.37,.75,1.24,1.55,2.5,3.1,4.02,4.98Z"/>
  <path class="cls-17" d="M116.58,363.39c.04-3.28,1.18-4.1,4.31-2.95,.57,.21,.98,.24,1.53,.04,2.42-.84,4.03,.2,4.26,2.75,.07,.8,.08,1.62,.02,2.42-.05,.69,.12,1.72-1.03,1.58-1.07-.12-.85-1.1-.79-1.8,.07-.82,.05-1.61-.06-2.42-.11-.79-.56-1.04-1.29-1-.78,.04-.94,.62-.87,1.17,.14,1.07,.04,2.11-.07,3.16-.05,.53-.35,.94-.98,.91-.66-.03-.82-.54-.84-1.04-.03-.93,.07-1.87,.03-2.8-.04-.77-.21-1.49-1.29-1.42-1.1,.07-.86,.83-.86,1.49,0,.87,.04,1.74,.02,2.62-.02,.61-.26,1.12-.96,1.15-.74,.04-.94-.47-.97-1.09-.05-.93-.1-1.86-.15-2.79Z"/>
  <path class="cls-9" d="M168.57,363.56v-.37c0-2.97,1.16-3.83,4.03-2.83,.74,.26,1.27,.28,2,0,1.74-.66,3.46,.29,3.9,2.08,.32,1.28,.17,2.6,.11,3.9-.03,.56-.34,.95-.94,.94-.61-.01-.86-.41-.85-.99,0-.87,.02-1.74,0-2.61-.02-.85-.12-1.67-1.28-1.64-1.16,.04-.97,.88-.98,1.62,0,.87,0,1.74-.03,2.61-.03,.65-.38,1.07-1.07,1-.62-.06-.75-.55-.75-1.09,0-1,.02-1.99,0-2.99-.03-.83-.47-1.23-1.33-1.16-.87,.07-.93,.63-.91,1.31,.03,.99,.04,1.99,.02,2.98,0,.57-.32,.95-.92,.95-.59,0-.93-.34-.94-.92-.03-.93,0-1.87,0-2.8-.01,0-.02,0-.04,0Z"/>
  <path class="cls-40" d="M132.09,362.49c0-.44-.04-.87,0-1.31,.11-1.15-.56-2.76,.51-3.33,1.38-.74,3.16-.52,4.71-.06,1.46,.44,2.22,1.58,2.06,3.15-.18,1.76-1.57,2.55-2.99,2.51-1.96-.05-2.65,.55-2.32,2.45,.11,.66-.08,1.32-.89,1.37-1,.06-1-.72-1-1.42,0-1.12,0-2.24,0-3.35-.03,0-.06,0-.08,0Z"/>
  <path class="cls-40" d="M345.84,362.54c.5,.14,.95,.29,1.32,.68,.56,.59,1.15,1.15,1.73,1.71,2.42,2.38,2.39,2.7,.02,5.06-.74,.73-1.16,.83-1.9,.02-1.25-1.39-2.6-2.69-3.97-3.97-.59-.55-.64-.93,.01-1.44,.91-.72,1.48-1.89,2.79-2.05Z"/>
  <path class="cls-17" d="M147.33,364.61c.76,1.62,1.81,1.47,2.85,.89,.63-.35,1.16-.6,1.56,.14,.45,.84-.2,1.3-.81,1.59-1.54,.74-3.12,.67-4.32-.57-1.19-1.24-1.82-2.72-.88-4.52,.81-1.54,2.01-2.13,3.66-1.96,1.5,.15,2.72,1.51,2.81,3.02,.06,1.02-.56,1.35-1.36,1.4-1.1,.07-2.22,.02-3.51,.02Z"/>
  <path class="cls-17" d="M115.43,363.56c.01,2.28-1.25,3.91-3.07,3.96-2.03,.06-3.63-1.53-3.66-3.64-.03-2.01,1.38-3.76,3.07-3.8,2.3-.06,3.65,1.23,3.66,3.48Z"/>
  <path class="cls-17" d="M160.65,363.75c.04-2.16,1.33-3.68,3.13-3.66,2.24,.02,3.67,1.45,3.6,3.6-.07,2.2-1.5,3.87-3.26,3.83-2.13-.05-3.51-1.56-3.47-3.77Z"/>
  <path class="cls-29" d="M153.3,363.65c0-.56,.02-1.12,0-1.68-.05-1.18-.12-2.33,1.64-1.46,.11,.05,.27,.11,.35,.06,1.08-.6,2.18-.68,3.11,.2,1.1,1.03,1.07,2.46,1.09,3.83,.01,.62-.03,1.25-.14,1.86-.09,.54-.43,.9-1.05,.81-.54-.08-.7-.49-.71-.95-.02-.99,.05-1.99-.01-2.98-.04-.7-.24-1.35-1.2-1.34-1.05,0-.99,.71-.98,1.41,0,.87,0,1.75,0,2.62-.01,.69-.24,1.27-1.05,1.24-.73-.02-.87-.61-.89-1.2-.02-.81,0-1.62,0-2.43-.05,0-.1,0-.15,0Z"/>
  <path class="cls-29" d="M131.49,379.16c0,.5,.15,1.06-.03,1.48-.37,.88,1.04,2.57-.8,2.64-3.62,.14-4.67-.67-4.73-2.92-.05-1.89,1.17-3.34,3.01-3.26,1.15,.05,1.4-.32,1.3-1.33-.04-.42,.01-.95,.62-.93,.6,.02,.6,.52,.6,.97,0,1.12,0,2.24,0,3.36,0,0,.02,0,.03,0Z"/>
  <path class="cls-29" d="M113.38,380.83c.89,1.47,1.89,1.64,3.14,1.16,.49-.19,1.15-.58,1.37,.25,.16,.6-.49,.77-.94,.95-1.83,.75-3.88,.03-4.61-1.62-.72-1.62,0-3.41,1.7-4.18,1.62-.74,3.3-.12,4.05,1.5,.67,1.44,.39,1.89-1.18,1.92-.56,.01-1.12,0-1.68,0h-1.83Z"/>
  <path class="cls-8" d="M99.21,379.22c0-.5-.09-1.02,.02-1.49,.21-.96-.6-2.5,.64-2.79,1.56-.36,3.38-.55,4.79,.75,1.38,1.27,1.04,3.24-.68,3.93-.46,.18-.97,.41-1.43,.36-1.65-.18-2.4,.34-2.02,2.11,.1,.47,.21,1.3-.62,1.27-.8-.03-.57-.82-.59-1.34-.03-.93,0-1.87,0-2.8-.02,0-.05,0-.07,0Z"/>
  <path class="cls-33" d="M140.21,363.65c0-.69-.04-1.38,.01-2.06,.09-1.08,.4-1.92,1.72-1.07,.58,.37,1-.07,1.48-.25,.59-.21,1.15-.17,1.42,.46,.29,.69-.17,1.17-.74,1.24-2.23,.27-1.88,1.89-1.86,3.35,.01,.8,.24,1.84-.89,1.91-1.29,.08-1.11-1.06-1.13-1.91-.02-.56,0-1.12,0-1.68Z"/>
  <path class="cls-29" d="M108.54,383.43c-1.22,.07-2.08-.35-2.41-1.59-.1-.37-.17-.77,.26-.97,.4-.19,.73-.04,.88,.39,.2,.54,.4,1.08,1.13,1.02,.63-.05,1.4-.11,1.47-.84,.05-.57-.65-.58-1.14-.67-.49-.08-.97-.21-1.43-.4-.7-.29-1.04-.85-.98-1.63,.06-.86,.51-1.44,1.3-1.62,1.17-.27,2.24,.05,3.09,.89,.28,.28,.75,.64,.31,1.1-.38,.41-.77,.2-1.13-.14-.22-.2-.5-.35-.77-.49-.52-.27-1.18-.51-1.46,.16-.41,.96,.7,.55,1.01,.9,.07,.08,.23,.08,.36,.09,1.22,.14,2.33,.59,2.17,2.01-.16,1.47-1.47,1.66-2.67,1.79Z"/>
  <path class="cls-43" d="M135.73,377.03c1.78,.06,2.95,1.38,2.85,3.22-.1,1.76-1.5,3.2-3.07,3.16-1.55-.04-2.75-1.6-2.66-3.44,.1-1.88,1.19-2.99,2.89-2.93Z"/>
  <path class="cls-3" d="M124.68,380.19c0,.19,.04,.38,0,.56-.21,.89,.63,2.28-.69,2.59-2.72,.64-4.13-.23-4.49-2.47-.14-.91-.04-1.85-.02-2.78,0-.5,.02-1.1,.75-1,.61,.08,.44,.62,.44,1.04,0,.87-.1,1.76,.06,2.6,.13,.69,.42,1.56,1.4,1.41,.81-.13,1.25-.74,1.23-1.62-.02-.81,0-1.62,0-2.43,0-.43,0-.97,.57-1,.68-.03,.74,.54,.75,1.05,.01,.68,0,1.37,0,2.05Z"/>
  <path class="cls-3" d="M149.24,356.62c.77,.08,1.29,.41,1.14,.93-.31,1.02-.96,1.91-2.08,2.1-.5,.09-.94-.47-.8-1.01,.27-.99,1.03-1.59,1.74-2.02Z"/>
  <path d="M65.88,359.02c4.3-.02,7.73,3.33,7.78,7.6,.05,4.26-3.36,7.77-7.6,7.8-4.41,.04-7.88-3.36-7.88-7.71,0-4.27,3.4-7.67,7.69-7.69Z"/>
  <path d="M331.16,424.96c-.6-2.09,.55-3.37,1.92-4.68,2.83-2.71,5.59-5.51,8.32-8.33,.66-.68,1.06-.73,1.72-.01,1.27,1.37,2.59,2.7,3.96,3.97,.68,.63,.64,1.01,0,1.64-3.29,3.23-6.53,6.51-9.8,9.76-.55,.55-5.47,1.05-5.87,.53-.66-.86-.04-1.93-.25-2.86Z"/>
  <path class="cls-40" d="M106.07,408.29c0-1.66,0-3,0-4.34,0-.65,.07-1.33,.89-1.39,.97-.07,1.05,.7,1.05,1.41,0,2.31-.04,4.61-.06,6.91,0,.57-.02,1.16-.71,1.35-.66,.19-1.05-.23-1.39-.7-1.22-1.69-2.44-3.39-3.96-5.49,0,1.93,0,3.39,0,4.85,0,.66-.03,1.32-.89,1.35-.83,.03-.98-.57-1-1.27-.04-2.3-.11-4.61-.12-6.91,0-.59-.02-1.31,.78-1.51,.66-.17,1.01,.3,1.37,.75,1.24,1.55,2.5,3.1,4.02,4.98Z"/>
  <path class="cls-17" d="M117.33,408.47c.04-3.46,1.08-4.21,4.38-3.01,.59,.22,1,.14,1.53-.04,2.28-.8,3.94,.27,4.18,2.69,.08,.86,.07,1.74,.03,2.61-.03,.65,.07,1.55-.93,1.51-1.1-.04-.94-.99-.89-1.71,.06-.81,.08-1.61-.04-2.42-.11-.74-.42-1.12-1.21-1.1-.89,.01-1.06,.64-.97,1.26,.14,1.01,.03,1.99-.05,2.98-.05,.61-.34,1.09-1.07,1-.64-.08-.74-.6-.75-1.11,0-.87,.09-1.75,.03-2.61-.05-.73-.08-1.54-1.2-1.52-1.23,.01-.97,.85-.96,1.57,0,.81,.03,1.62,.02,2.43-.01,.69-.24,1.26-1.05,1.25-.74,0-.86-.57-.89-1.17-.04-.87-.1-1.74-.15-2.61Z"/>
  <path class="cls-9" d="M169.32,408.55v-.37c0-2.98,1.15-3.85,4.01-2.86,.73,.25,1.26,.3,2,.02,1.88-.71,3.69,.39,3.98,2.42,.16,1.1,.06,2.23,.06,3.35,0,.63-.24,1.14-.94,1.14-.73,0-.88-.53-.87-1.15,0-1,.03-1.99-.03-2.98-.04-.7-.44-1.12-1.22-1.1-.85,.02-1.02,.53-1.01,1.24,.01,1,.02,1.99-.02,2.99-.02,.65-.37,1.07-1.06,1.02-.63-.05-.77-.53-.77-1.08,0-1,.02-1.99,0-2.99-.02-.82-.44-1.24-1.31-1.18-.87,.06-.96,.6-.93,1.3,.04,.93,.04,1.87,.04,2.8,0,.62-.2,1.13-.92,1.15-.7,.02-.97-.44-.98-1.09,0-.87,0-1.74,0-2.61,0,0-.02,0-.03,0Z"/>
  <path class="cls-40" d="M132.84,407.45c0-.44-.04-.87,0-1.31,.11-1.15-.56-2.76,.51-3.33,1.38-.73,3.17-.52,4.71-.05,1.46,.44,2.23,1.59,2.04,3.16-.22,1.84-1.67,2.58-3.17,2.52-1.86-.07-2.42,.51-2.13,2.26,.11,.69,.04,1.5-.89,1.54-1.14,.05-.98-.89-.99-1.61-.02-1.06,0-2.11,0-3.17-.03,0-.06,0-.08,0Z"/>
  <path class="cls-40" d="M351.4,412.78c-.33,1.18-1.56,1.92-2.54,2.83-.34,.32-.64-.22-.89-.46-1.03-1-2.06-2.01-3.04-3.05-.59-.62-1.86-1.32-1.59-1.87,.47-.99,1.59-1.68,2.47-2.47,.17-.15,.46-.22,.7-.23,1.1-.05,4.95,3.88,4.88,5.25Z"/>
  <path class="cls-17" d="M148.03,409.62c.96,1.62,2.02,1.44,3.1,.74,.53-.34,.93-.3,1.3,.14,.41,.48,.21,.98-.19,1.31-1.23,1-2.62,1.11-4.03,.44-1.58-.75-2.34-2.28-2.17-3.78,.18-1.55,1.04-3.1,3.02-3.32,1.67-.18,2.94,.38,3.62,1.98,.68,1.6,.21,2.37-1.52,2.48-.97,.06-1.94,.01-3.14,.01Z"/>
  <path class="cls-17" d="M116.18,408.5c.02,2.28-1.23,3.91-3.05,3.98-2.03,.08-3.64-1.5-3.69-3.61-.04-2,1.36-3.77,3.04-3.82,2.3-.08,3.67,1.21,3.69,3.45Z"/>
  <path class="cls-17" d="M161.4,408.78c.01-2.15,1.3-3.71,3.08-3.72,2.23-.01,3.69,1.41,3.66,3.55-.03,2.18-1.46,3.91-3.2,3.9-2.11-.01-3.54-1.53-3.53-3.73Z"/>
  <path class="cls-29" d="M154.04,408.6c0-.56,.02-1.12,0-1.68-.06-1.2-.07-2.31,1.66-1.42,.1,.05,.27,.09,.36,.04,1.33-.69,2.64-.68,3.45,.65,1.03,1.67,.86,3.58,.52,5.44-.09,.49-.51,.69-1.01,.61-.54-.09-.68-.51-.69-.97-.02-.99,.05-1.99-.01-2.98-.04-.72-.27-1.34-1.22-1.32-1.06,.02-.96,.74-.96,1.43,0,.94,.02,1.87-.02,2.81-.03,.63-.36,1.07-1.06,1.04-.63-.03-.83-.52-.86-1.04-.04-.87-.01-1.74-.01-2.61-.05,0-.1,0-.15,0Z"/>
  <path class="cls-29" d="M132.23,424.32c0,.44,.14,.93-.03,1.3-.4,.87,1.04,2.57-.81,2.63-3.63,.13-4.67-.67-4.73-2.92-.04-1.89,1.17-3.34,3.01-3.26,1.15,.05,1.39-.33,1.3-1.33-.04-.42,.02-.95,.62-.93,.6,.02,.59,.53,.6,.97,0,.12,0,.25,0,.37,0,1.06,0,2.12,0,3.18h.02Z"/>
  <path class="cls-29" d="M114.07,425.8c1.11,1.59,2.24,1.64,3.49,1.05,.38-.18,.73-.24,1,.12,.3,.41,.03,.77-.29,.93-1.36,.68-2.77,.79-4.08-.05-1.16-.74-1.61-1.91-1.29-3.25,.36-1.47,1.39-2.39,2.88-2.54,1.43-.14,2.51,.56,3.1,1.91,.5,1.17,.4,1.93-1.17,1.83-1.1-.07-2.2-.01-3.64-.01Z"/>
  <path class="cls-8" d="M101.72,419.73c1.14,.07,1.81,0,2.49,.24,1.26,.45,2.02,1.3,2.02,2.61,0,1.33-.94,1.94-2.14,2.2-.36,.08-.74,.25-1.09,.2-1.43-.19-2.06,.27-1.74,1.81,.11,.52,.3,1.45-.54,1.52-.97,.08-.65-.87-.67-1.41-.06-1.68,.04-3.37-.1-5.04-.14-1.75,.54-2.4,1.77-2.12Z"/>
  <path class="cls-33" d="M140.96,408.64c0-.56-.03-1.12,0-1.68,.08-1.17,0-2.55,1.86-1.35,.42,.27,.9-.17,1.34-.34,.59-.23,1.14-.19,1.42,.45,.3,.69-.16,1.17-.72,1.25-2.01,.28-1.95,1.68-1.89,3.16,.04,.82,.38,2.02-.86,2.1-1.41,.09-1.09-1.2-1.14-2.08-.03-.5,0-1,0-1.5Z"/>
  <path class="cls-29" d="M109.24,428.42c-1.23,.05-2.06-.42-2.37-1.65-.1-.37-.14-.76,.31-.94,.43-.17,.72,.01,.86,.43,.19,.55,.43,1.06,1.14,.99,.62-.06,1.4-.12,1.45-.85,.04-.55-.65-.58-1.14-.66-.48-.08-.97-.21-1.42-.4-.78-.33-1.08-.95-.97-1.8,.12-.86,.64-1.35,1.43-1.49,1.02-.18,1.98,.07,2.77,.77,.35,.31,.91,.68,.51,1.21-.4,.53-.84,.19-1.25-.18-.26-.24-.63-.37-.96-.53-.52-.24-1.04-.2-1.24,.37-.24,.7,.49,.52,.81,.71,.16,.09,.34,.16,.52,.18,1.28,.15,2.47,.57,2.25,2.11-.2,1.44-1.55,1.56-2.71,1.73Z"/>
  <path class="cls-43" d="M136.42,422.01c1.79,.04,2.98,1.33,2.91,3.16-.07,1.75-1.45,3.22-3.01,3.22-1.57,0-2.79-1.52-2.72-3.38,.07-1.88,1.15-3.03,2.83-3Z"/>
  <path class="cls-3" d="M125.43,425.21c0,.19,.04,.38,0,.56-.23,.87,.65,2.29-.73,2.55-2.78,.52-3.99-.24-4.45-2.33-.23-1.05-.08-2.11-.01-3.16,.03-.4,.14-.78,.6-.79,.64-.01,.6,.47,.59,.92-.02,.81-.11,1.62-.02,2.42,.09,.81,.38,1.78,1.33,1.75,.98-.03,1.42-.85,1.36-1.87-.04-.81-.02-1.62,0-2.43,.01-.37,.12-.77,.61-.78,.46,0,.66,.35,.68,.74,.04,.81,.01,1.62,.01,2.43h.02Z"/>
  <path class="cls-3" d="M151.15,402.68c-.41,.74-.92,1.69-2.01,1.96-.5,.13-.98-.4-.88-.94,.19-1.03,.92-1.75,1.87-2.06,.44-.15,.98,.16,1.02,1.04Z"/>
  <path d="M66.69,403.99c4.29,0,7.71,3.39,7.73,7.66,.02,4.27-3.4,7.72-7.66,7.74-4.38,.02-7.85-3.43-7.82-7.77,.03-4.27,3.44-7.63,7.75-7.63Z"/>
  <path class="cls-40" d="M256.83,566.68c-1.06,0-2.12,.02-3.18,0-1.1-.03-.96,.46-.5,1.12,.86,1.25,3.13,1.62,5.14,.83,.73-.29,1.57-.91,2.04,.23,.47,1.14-.48,1.6-1.3,1.85-2.53,.79-5.07,.96-7.14-1.05-1.67-1.61-2.04-3.65-1.26-5.85,.81-2.28,3.22-3.91,5.47-3.74,2.63,.19,4.47,1.81,5.05,4.43,.36,1.64-.04,2.16-1.71,2.19-.87,.02-1.74,0-2.61,0Z"/>
  <path class="cls-40" d="M124.46,566.68c-1.83-.54-2.93,.4-3.27,2.48-.07,.42-.31,.81-.44,1.22-.23,.76-.79,.97-1.45,.77-.77-.24-.77-.91-.55-1.54,.69-1.99,1.39-3.98,2.13-5.95,.76-2.03,1.57-4.04,2.34-6.07,.25-.65,.41-1.4,1.27-1.39,.86,.01,1.25,.65,1.55,1.39,1.58,3.91,3.16,7.81,4.77,11.71,.32,.77,.49,1.5-.46,1.84-.77,.27-1.3-.14-1.52-.93-.1-.36-.27-.69-.41-1.04q-1.02-2.49-3.97-2.49Z"/>
  <path class="cls-40" d="M169.23,566.68c1.12,2.33,3.11,2.94,5.6,1.94,.74-.3,1.56-.89,2.03,.24,.48,1.14-.5,1.59-1.29,1.84-2.46,.79-4.96,.95-7.03-.92-1.72-1.55-2.14-3.6-1.45-5.82,.73-2.35,3.23-4.08,5.55-3.9,2.71,.22,4.85,2.19,5.17,4.8,.15,1.23-.36,1.86-1.68,1.83-2.24-.05-4.47-.01-6.91-.01Z"/>
  <path class="cls-40" d="M141.9,559.93c3.17,.04,5.28,2.15,5.28,5.28,0,3.11-2.53,5.9-5.35,5.9-2.64,0-4.79-2.7-4.73-5.92,.06-3.1,2.07-5.3,4.8-5.27Z"/>
  <path class="cls-9" d="M231.55,559.92c3.25,.03,5.4,2.22,5.32,5.41-.07,3.1-2.47,5.73-5.26,5.77-2.61,.04-4.92-2.75-4.85-5.84,.07-3.04,2.16-5.37,4.79-5.35Z"/>
  <path class="cls-9" d="M272.2,565.67c0,1.37,0,2.75,0,4.12,0,.61-.24,1.13-.83,1.35-.53,.19-1.03-.03-1.24-.55-.34-.86-.69-.11-.93,0-2.51,1.12-4.31,.47-5.44-2.04-1.1-2.45-.86-4.99-.49-7.54,.09-.64,.47-1.07,1.12-1.01,.77,.07,.98,.67,.96,1.35-.04,1.25-.11,2.49-.15,3.74-.02,.62,.05,1.23,.26,1.84,.42,1.18,.89,2.26,2.45,2.01,1.47-.24,2.1-1.26,2.17-2.63,.07-1.56,.02-3.12,0-4.68,0-.75-.12-1.64,.96-1.65,.99-.02,1.16,.77,1.17,1.58,0,1.37,0,2.75,0,4.12,0,0,0,0,0,0Z"/>
  <path class="cls-9" d="M204.65,565.54c0-1.43,0-2.87,0-4.3,0-.6,.17-1.16,.84-1.28,.61-.11,1.17,.11,1.25,.79,.1,.92,.38,.39,.73,.17,3.34-2.16,6.22-.77,6.48,3.21,.13,1.92-.06,3.86-.12,5.79-.02,.69-.3,1.25-1.09,1.24-.91,0-1.07-.64-1.08-1.41-.04-1.8,.52-3.58,.17-5.4-.24-1.24-.55-2.35-2.17-2.23-1.56,.11-2.82,1.32-2.82,2.79,0,1.62,0,3.24,0,4.86,0,.76-.15,1.42-1.08,1.38-.82-.03-.98-.66-.98-1.32-.01-1.43,0-2.86,0-4.3-.04,0-.07,0-.11,0Z"/>
  <path class="cls-9" d="M158.39,565.65c0,1.37,0,2.74,0,4.11,0,.62-.23,1.11-.8,1.35-.53,.23-1.06,.01-1.25-.48-.31-.78-.6-.22-.92-.07-2.49,1.17-4.3,.52-5.45-1.97-1.16-2.5-.86-5.1-.49-7.7,.1-.65,.58-1.01,1.19-.89,.71,.14,.95,.74,.91,1.43-.07,1.18-.22,2.35-.22,3.53,0,.73,.13,1.49,.36,2.19,.34,1.03,.85,1.95,2.22,1.8,1.41-.16,2.15-1.03,2.25-2.31,.13-1.67,.04-3.36,.03-5.04,0-.77-.05-1.62,1.01-1.63,.97,0,1.17,.75,1.16,1.57,0,1.37,0,2.74,0,4.11Z"/>
  <path class="cls-9" d="M201.9,565.64c0,1.43,.02,2.86,0,4.29-.02,1.05-.84,1.71-1.54,1.05-.83-.79-1.3-.43-2.01-.13-1.84,.77-3.44,.14-4.52-1.73-1.5-2.61-1.03-5.43-.79-8.21,.05-.58,.56-1.03,1.2-.91,.61,.11,.94,.56,.9,1.22-.03,.5-.08,.99-.09,1.49-.04,.99-.21,2.01-.05,2.97,.24,1.4,.24,3.16,2.32,3.25,1.65,.07,2.49-1.05,2.56-3.4,.04-1.37-.06-2.73-.11-4.1-.02-.75,.14-1.43,1.03-1.47,.89-.03,1.12,.6,1.11,1.38-.01,1.43,0,2.86,0,4.29Z"/>
  <path class="cls-40" d="M248.03,565.59c0,1.44,.03,2.87,0,4.31-.03,1.01-.77,1.79-1.5,1.07-.84-.83-1.3-.43-2.01-.13-1.78,.75-3.25,.28-4.35-1.4-1.74-2.67-1.27-5.63-1-8.54,.05-.55,.54-1.03,1.22-.9,.64,.13,.87,.61,.85,1.25-.04,1.56-.2,3.13-.05,4.67,.14,1.38,.32,3,2.32,3.01,1.53,0,2.42-1.07,2.5-3.11,.06-1.49-.05-2.99-.08-4.49-.02-.68,.15-1.3,.94-1.37,.9-.07,1.16,.54,1.16,1.32,0,1.44,0,2.87,0,4.31,0,0,0,0,0,0Z"/>
  <path class="cls-9" d="M162.54,556.82c1.05,.14,1.04,.9,1.03,1.68,0,.7-.27,1.55,.98,1.52,.46-.01,.69,.48,.7,.96,.01,.59-.34,1.05-.85,1.05-1.19,0-1.04,.77-1.03,1.51,.02,1.06,.04,2.12,.04,3.18,0,1.16,.22,2.07,1.63,2.25,.71,.09,1.1,.64,.87,1.37-.22,.7-.72,.86-1.47,.7-2.03-.44-2.88-1.3-3.07-3.38-.13-1.36-.3-2.73-.09-4.1,.02-.12,0-.25,.03-.37,.33-1.16-2.43-1.39-1.02-2.52,1.02-.82,1.14-1.59,1.16-2.62,0-.76,.37-1.15,1.1-1.22Z"/>
  <path class="cls-17" d="M134.8,566.53c0,1.68,.05,3.36-.01,5.03-.06,1.55-.76,2.73-2.29,3.27-.62,.22-1.25,.29-1.61-.43-.3-.62-.05-1.16,.53-1.38,1.18-.45,1.27-1.39,1.26-2.43-.03-2.98-.04-5.97-.08-8.95,0-.76-.14-1.62,.93-1.67,.98-.05,1.21,.71,1.21,1.52,0,1.68,0,3.36,0,5.03,.02,0,.04,0,.06,0Z"/>
  <path class="cls-17" d="M224.64,565.85c.14,2.12,.01,4.22-.24,6.33-.19,1.54-1.14,2.27-2.44,2.72-.47,.16-1.02,.17-1.29-.41-.26-.56-.25-1.16,.39-1.42,1.3-.53,1.34-1.65,1.4-2.77,.14-2.8,0-5.59-.2-8.39-.06-.87-.24-1.92,1.06-1.94,1.17-.02,1.04,.98,1.08,1.78,.07,1.36,.16,2.73,.24,4.09Z"/>
  <path class="cls-17" d="M276.14,559.93c1.06,1.99,2.62,.13,4,.37,.7,.12,1.21,.31,1.23,1.1,.02,.82-.53,1-1.21,1.1-3.03,.48-3.02,.49-3.02,3.46,0,1.25,0,2.49,0,3.74,0,.76-.15,1.42-1.05,1.45-.91,.03-1.11-.6-1.11-1.37,0-2.87-.01-5.74-.03-8.61,0-.71,.22-1.21,1.19-1.25Z"/>
  <path class="cls-17" d="M179.8,565.42c0-1.43,.01-2.87,0-4.3,0-.48,.14-.91,.56-1.09,.48-.2,1.09-.17,1.31,.36,.37,.91,.84,.57,1.41,.29,.38-.18,.82-.32,1.24-.34,.78-.03,1.77-.22,1.9,.95,.13,1.2-.81,1.16-1.64,1.24-2.18,.2-2.59,.69-2.58,2.95,0,1.43,0,2.87,0,4.3,0,.78-.22,1.4-1.12,1.39-.92-.01-1.05-.69-1.05-1.44,0-1.43,0-2.87,0-4.3h-.02Z"/>
  <path class="cls-35" d="M133.43,558.37c-.61-.17-1.09-.51-1.05-1.13,.04-.68,.46-1.14,1.22-1.04,.66,.08,.93,.51,.89,1.16-.04,.68-.51,.91-1.06,1.02Z"/>
  <path class="cls-10" d="M223.23,556.18c.65,.07,1.02,.47,1.01,1.08,0,.62-.44,1.08-1.03,1.07-.65-.02-1.15-.41-1.08-1.18,.06-.65,.45-.96,1.1-.97Z"/>
  <path class="cls-40" d="M124.58,504.47c.7,.15,1.13,.59,1.41,1.29,1.6,3.97,3.21,7.93,4.85,11.88,.3,.72,.42,1.4-.36,1.75-.84,.37-1.43-.06-1.66-.94-.02-.06-.04-.12-.06-.18-1.61-3.57-1.96-3.75-5.91-3.33-.7,.08-.95,.38-1.13,.97-.27,.89-.61,1.76-.9,2.64-.26,.79-.79,1.15-1.56,.87-.76-.27-.7-.95-.49-1.57,.56-1.64,1.13-3.28,1.74-4.91,.91-2.44,1.85-4.86,2.79-7.29,.23-.59,.47-1.17,1.29-1.18Z"/>
  <path class="cls-40" d="M256.69,514.96c-.93,0-1.87-.02-2.8,0-.34,.01-.8-.2-.99,.22-.22,.48,.17,.84,.47,1.12,1.47,1.37,3.16,1.12,4.88,.6,.41-.12,.8-.37,1.21-.41,.48-.05,.8,.29,.94,.75,.19,.65-.16,1.07-.65,1.41-1.59,1.12-5.35,1.07-7.13-.09-1.77-1.16-2.72-3.6-2.23-5.74,.56-2.43,2.36-4.05,4.93-4.43,2.88-.42,6.01,2.19,5.99,5.04,0,.9-.37,1.56-1.45,1.52-1.06-.03-2.12,0-3.18,0Z"/>
  <path class="cls-40" d="M173.07,514.96c-.81,0-1.62-.04-2.43,.02-.44,.03-1.11-.34-1.27,.33-.12,.51,.36,.93,.75,1.22,1.5,1.11,3.15,.95,4.78,.34,.79-.3,1.57-.79,2,.33,.4,1.05-.48,1.49-1.21,1.74-2.46,.84-4.95,1-7.05-.8-1.68-1.44-2.21-3.4-1.6-5.6,.69-2.5,3.06-4.34,5.51-4.22,2.66,.13,4.83,2.05,5.26,4.72,.19,1.18-.16,1.97-1.54,1.94-1.06-.02-2.12,0-3.18,0Z"/>
  <path class="cls-40" d="M141.89,508.2c3.18,.04,5.28,2.13,5.29,5.27,.01,3.11-2.51,5.9-5.34,5.91-2.64,0-4.8-2.68-4.74-5.9,.06-3.1,2.07-5.32,4.79-5.28Z"/>
  <path class="cls-9" d="M231.58,508.2c3.24,.04,5.39,2.25,5.29,5.44-.09,3.11-2.51,5.72-5.29,5.74-2.61,.01-4.92-2.8-4.82-5.87,.1-3.06,2.17-5.34,4.82-5.31Z"/>
  <path class="cls-9" d="M272.2,514.02c0,1.37,.09,2.75-.02,4.12-.11,1.36-1.13,1.8-1.94,.78-.58-.74-.78-.16-1.1-.02-2.37,1.08-4.08,.51-5.24-1.81-1.27-2.54-1.01-5.21-.6-7.88,.1-.65,.53-1.02,1.17-.93,.65,.09,.9,.62,.88,1.24-.04,1.25-.11,2.49-.15,3.74-.03,.69,.04,1.36,.29,2.02,.42,1.09,.84,2.13,2.31,1.95,1.5-.18,2.18-1.17,2.26-2.53,.1-1.62,.03-3.25,.01-4.87,0-.7-.07-1.49,.86-1.58,.99-.09,1.26,.64,1.27,1.46,.02,1.44,0,2.87,0,4.31h0Z"/>
  <path class="cls-9" d="M206.88,509.71c1.51-1.42,3.04-1.93,4.79-1.22,1.84,.74,2.27,2.38,2.31,4.13,.04,1.8-.08,3.61-.14,5.41-.02,.74-.22,1.43-1.12,1.41-1.05-.02-1.05-.82-1.06-1.61-.01-1.74,.51-3.46,.16-5.21-.25-1.25-.57-2.34-2.19-2.21-1.57,.12-2.8,1.33-2.81,2.81,0,1.62,0,3.24,0,4.86,0,.77-.17,1.41-1.1,1.36-.82-.04-.96-.68-.97-1.34-.04-2.74-.08-5.48-.11-8.22,0-.7-.02-1.47,.87-1.63,1.01-.18,1.26,.55,1.36,1.47Z"/>
  <path class="cls-9" d="M158.38,513.87c0,1.43,.08,2.87-.02,4.29-.1,1.33-1.1,1.75-1.96,.76-.57-.66-.74-.17-1.09,0-2.29,1.08-3.93,.56-5.14-1.66-1.43-2.63-1.08-5.42-.67-8.2,.08-.54,.56-.87,1.1-.78,.73,.12,1,.69,.97,1.38-.06,1.12-.2,2.23-.22,3.35-.02,.61,.05,1.25,.21,1.84,.34,1.29,.73,2.64,2.51,2.37,1.67-.25,2.17-1.46,2.18-2.97,0-1.49,0-2.99-.03-4.48-.01-.73,.03-1.47,.95-1.51,.97-.04,1.22,.68,1.22,1.51,0,1.37,0,2.74,0,4.11,0,0,0,0,0,0Z"/>
  <path class="cls-9" d="M201.91,513.82c0,1.43,.05,2.87-.02,4.29-.07,1.38-.8,1.74-1.87,.85-.57-.47-.78-.19-1.23,0-2.34,1.05-3.97,.37-5.16-1.98-1.26-2.49-.78-5.11-.62-7.7,.04-.6,.5-1.07,1.13-1.01,.73,.06,1.04,.59,1,1.32-.07,1.55-.44,3.11-.11,4.65,.29,1.36,.37,3,2.38,2.98,1.55-.01,2.35-.99,2.45-3.12,.07-1.42-.04-2.86-.08-4.29-.02-.82,.09-1.58,1.11-1.56,.89,.02,1.03,.71,1.03,1.46-.01,1.37,0,2.74,0,4.11Z"/>
  <path class="cls-40" d="M248.03,513.99c0,1.37,.06,2.75-.02,4.12-.08,1.42-.79,1.77-1.86,.82-.61-.54-.82-.13-1.23,.04-2.23,.96-3.88,.42-5.02-1.67-1.41-2.57-.99-5.33-.75-8.06,.05-.58,.52-1.06,1.17-.98,.75,.1,.94,.68,.92,1.38-.04,1.62-.17,3.26,0,4.86,.12,1.2,.41,2.58,2.03,2.7,1.72,.13,2.53-.95,2.67-2.49,.13-1.42,0-2.87,.03-4.3,.02-.86-.44-2.15,1.02-2.15,1.43,0,1,1.32,1.06,2.16,.08,1.18,.02,2.37,.02,3.56-.01,0-.03,0-.04,0Z"/>
  <path class="cls-9" d="M162.55,505.1c1.05,.14,1.04,.91,1.03,1.68,0,.71-.26,1.55,.99,1.52,.46-.01,.69,.48,.7,.97,.01,.59-.35,1.05-.86,1.05-1.2,0-1.03,.77-1.02,1.51,.01,1,.01,2,.02,2.99,.01,1.17,.09,2.25,1.65,2.43,.71,.08,1.09,.64,.86,1.37-.22,.7-.73,.85-1.47,.69-2.04-.45-2.88-1.3-3.07-3.38-.13-1.36-.3-2.73-.09-4.1,.02-.12,0-.25,.03-.37,.32-1.16-2.43-1.39-1.02-2.52,1.03-.82,1.14-1.6,1.15-2.62,.01-.76,.37-1.15,1.1-1.22Z"/>
  <path class="cls-17" d="M134.8,514.77c0,1.68,.05,3.36-.01,5.03-.06,1.63-.81,2.84-2.44,3.36-.55,.17-1.13,.19-1.45-.45-.31-.62-.09-1.17,.48-1.39,1.28-.49,1.3-1.52,1.29-2.6-.02-2.92-.04-5.84-.08-8.77,0-.75-.17-1.64,.89-1.71,1.11-.07,1.25,.81,1.26,1.67,.01,1.62,0,3.23,0,4.85h.05Z"/>
  <path class="cls-17" d="M224.64,514.19c.15,2.12,0,4.22-.25,6.33-.18,1.46-1.1,2.17-2.31,2.63-.52,.2-1.15,.25-1.43-.44-.24-.58-.18-1.14,.47-1.4,1.22-.49,1.28-1.54,1.34-2.61,.14-2.8,.02-5.59-.19-8.39-.06-.83-.33-1.94,.94-2.05,1.31-.12,1.16,.98,1.2,1.84,.08,1.36,.16,2.73,.24,4.09Z"/>
  <path class="cls-17" d="M180.93,508.2c1.12,2.03,2.75,.09,4.19,.39,.62,.13,1.06,.35,1.11,1.03,.05,.8-.45,1.04-1.15,1.16-3.09,.54-3.08,.55-3.08,3.59,0,1.25,0,2.49,0,3.74,0,.8-.29,1.37-1.17,1.33-.79-.04-.99-.62-.99-1.31,0-2.87-.01-5.74-.03-8.61,0-.69,.15-1.23,1.13-1.32Z"/>
  <path class="cls-17" d="M274.95,513.63c0-1.37,.01-2.74,0-4.12,0-.54,.09-1.04,.62-1.23,.49-.19,1.09-.09,1.29,.44,.32,.82,.72,.6,1.25,.28,.48-.3,1.02-.43,1.6-.41,.77,.02,1.59-.02,1.65,1.04,.06,1.08-.74,1.09-1.52,1.17-2.36,.23-2.71,.64-2.7,3.02,0,1.43,0,2.87,0,4.3,0,.8-.3,1.37-1.18,1.32-.79-.04-.98-.63-.98-1.32,0-1.5,0-2.99,0-4.49h-.03Z"/>
  <path class="cls-35" d="M134.5,505.44c-.02,.81-.45,1.19-1.04,1.17-.68-.02-1.17-.52-1.08-1.21,.07-.56,.47-1.01,1.16-.94,.66,.07,.96,.45,.96,.98Z"/>
  <path class="cls-10" d="M223.21,506.65c-.51-.16-1.04-.32-1.08-1.01-.04-.64,.22-1.09,.88-1.17,.74-.09,1.19,.33,1.24,1.03,.04,.63-.42,.97-1.03,1.15Z"/>
  <path d="M139.75,658.04c0-2.68,.1-5.37-.04-8.04-.1-1.9,.68-2.89,2.47-2.99,2.79-.16,5.61-.42,8.35,.42,6.55,1.99,9.2,9.99,5.45,16.47-1.52,2.63-3.76,4.18-6.77,4.79-2.49,.5-4.97,.27-7.46,.3-1.33,.02-2.02-.75-2.01-2.14,.02-2.93,0-5.87,0-8.8Z"/>
  <path d="M189.37,655.16c1.09-1.28,2.35-2.05,3.89-2.26,3.34-.44,5.64,1.53,5.98,5.12,.29,3.11-.15,6.23,.18,9.35,.09,.87-.38,1.58-1.41,1.62-1.12,.04-1.59-.71-1.63-1.66-.08-2.18-.05-4.37-.07-6.55-.01-1.18,.05-2.36-.33-3.52-.36-1.09-1.09-1.46-2.14-1.35-2.05,.21-3.7,2.08-3.67,4.11,.03,2.25,.03,4.49,.09,6.74,.03,1.09-.07,2.13-1.39,2.2-1.46,.09-1.64-1.04-1.67-2.17-.07-2.68-.09-5.36-.23-8.04-.07-1.35-.07-2.9-2.09-2.88-1.7,.02-3.48,1.61-3.5,3.21-.04,2.62-.01,5.24-.01,7.85,0,1.11-.27,2.06-1.6,2.04-1.24-.02-1.43-.94-1.43-1.97-.01-4.05-.04-8.11-.08-12.16,0-.82,.18-1.53,.96-1.85,.78-.31,1.48-.08,1.91,.69,.21,.38,.24,.65,.85,.28,3.09-1.89,4.79-1.59,7.41,1.2Z"/>
  <path d="M243.8,662.8c.52,1.98,1.7,2.93,4,3.17,1.66,.17,3.2-.18,4.67-.98,.79-.43,1.65-.32,2.1,.55,.44,.83,.12,1.56-.6,2.13-2.56,2.03-8.64,1.74-11.23-.55-2.83-2.5-3.35-6.88-1.23-10.24,1.72-2.73,5.11-4.18,8.25-3.55,3.19,.64,5.59,3.21,6.09,6.53,.3,2-.33,2.75-2.37,2.76-3.12,.02-6.24,.02-9.35,.04-.11,0-.21,.08-.32,.13Z"/>
  <path d="M163.14,662.63c.94,2.76,3.4,3.94,6.45,3.23,.83-.19,1.61-.63,2.42-.93,.77-.28,1.51-.23,1.98,.53,.45,.74,.25,1.44-.35,2.03-2.35,2.33-9.31,1.91-11.78-.7-3.1-3.27-2.88-8.56,.5-11.56,3.31-2.94,8.41-2.64,11.17,.69,.47,.57,.88,1.22,1.16,1.9,1.54,3.79,.85,4.8-3.16,4.8-2.74,0-5.48,0-8.39,0Z"/>
  <path d="M216.27,663.18c0,1.37,0,2.74,0,4.11,0,.75-.23,1.38-.98,1.63-.71,.23-1.45,.08-1.77-.63-.4-.88-.69-.6-1.31-.2-2.2,1.4-5.5,1.21-7.56-.33-2.14-1.6-3.11-4.3-2.36-7,.85-3.04,2.47-5.57,5.33-7.12,3.67-1.98,7.53-.12,8.28,3.95,.34,1.86,.25,3.73,.36,5.6Z"/>
  <path class="cls-40" d="M223.01,654.79c1.43-1.07,2.75-1.69,4.34-1.54,1.04,.1,1.87,.42,1.86,1.62-.01,1.13-.77,1.35-1.78,1.4-3.69,.21-4.45,1.08-4.4,4.83,.03,1.87,.08,3.74,.1,5.61,0,1.12-.12,2.25-1.58,2.26-1.36,.01-1.54-1.02-1.55-2.09-.03-3.99-.05-7.98-.09-11.98,0-1.02,.17-1.92,1.41-2.01,1.21-.09,1.63,.7,1.69,1.89Z"/>
  <path class="cls-40" d="M233.87,654.79c1.43-1.07,2.74-1.69,4.34-1.54,1.04,.1,1.87,.42,1.86,1.62-.01,1.13-.77,1.35-1.78,1.41-3.69,.21-4.46,1.07-4.4,4.82,.03,1.87,.08,3.74,.1,5.61,0,1.12-.11,2.25-1.58,2.26-1.36,.02-1.54-1.02-1.55-2.09-.03-3.99-.05-7.98-.09-11.97,0-1.02,.17-1.92,1.41-2.01,1.21-.09,1.63,.69,1.69,1.89Z"/>
  <path d="M261.89,654.82c1.39-1.18,2.79-1.72,4.44-1.56,.98,.1,1.72,.52,1.71,1.57-.01,1.05-.66,1.47-1.73,1.45-.79-.01-1.63,.11-2.38,.38-1.32,.47-2.18,1.33-2.13,2.9,.08,2.43,.06,4.86,.1,7.29,.02,1.08-.14,2.1-1.49,2.12-1.34,.02-1.56-.94-1.56-2.05,0-3.99-.04-7.98-.07-11.96,0-.91,0-1.85,1.14-2.04,1.23-.21,1.85,.48,1.96,1.9Z"/>
  <path d="M337.14,267.64c-2.93,0-5.86-.05-8.79,.02-1.73,.04-2.49-.6-2.47-2.4,.06-5.3,.05-10.6,0-15.9-.01-1.57,.67-2.38,2.2-2.33,.97,.03,1.23-.25,1.25-1.23,.03-1.51,1.01-2.15,2.47-2.17,1.53-.02,2.62,.57,2.64,2.19,.02,1.01,.33,1.29,1.28,1.2,.74-.07,1.5-.06,2.24,0,.99,.08,1.57-.05,1.65-1.29,.1-1.59,1.21-2.16,2.74-2.1,1.51,.06,2.35,.83,2.38,2.3,.02,.97,.41,1.14,1.24,1.1,1.58-.07,2.27,.85,2.27,2.32,.02,5.36,.02,10.72,0,16.09,0,1.5-.71,2.26-2.32,2.23-2.93-.06-5.86-.02-8.79-.02Z"/>
  <path class="cls-9" d="M135.53,253.9c-.12,1.48-.32,2.95-1.11,4.27-1.44,2.38-4.45,2.67-6.32,.61-2.22-2.44-2.31-7.55-.19-10.08,1.85-2.2,5.16-1.86,6.56,.68,.77,1.4,.99,2.93,1.05,4.52Z"/>
  <path class="cls-9" d="M149.32,258.25c2.57,0,4.54,.01,6.52,0,.67,0,1.35,.06,1.4,.86,.05,.94-.69,1.02-1.43,1.01-1.93-.01-3.87-.04-5.8,.01-.98,.03-1.68-.32-2.14-1.17-.46-.87-.07-1.61,.47-2.22,.74-.84,1.58-1.59,2.39-2.37,.8-.78,1.67-1.51,2.41-2.35,.57-.64,1.15-1.37,.64-2.35-.33-.63-.85-.88-1.54-.81-1.01,.11-1.76,.58-2.14,1.55-.09,.23-.16,.48-.18,.72-.06,.63-.43,.89-1,.83-.59-.06-.87-.49-.82-1.05,.18-1.78,1.11-2.98,2.8-3.61,1.55-.58,2.97-.48,4.07,.83,1.13,1.35,1.17,2.87,.17,4.31-.56,.81-1.26,1.55-1.96,2.24-1.1,1.09-2.27,2.11-3.85,3.57Z"/>
  <path class="cls-9" d="M138.67,258.25c2.54,0,4.51,.01,6.49,0,.75,0,1.47,.07,1.42,1.01-.04,.81-.72,.87-1.4,.86-1.93-.02-3.87-.04-5.8,0-.99,.03-1.74-.32-2.14-1.18-.38-.81-.1-1.6,.49-2.24,.68-.73,1.4-1.42,2.12-2.11,.85-.82,1.75-1.6,2.57-2.46,.65-.68,1.22-1.45,.72-2.5-.32-.68-.88-.84-1.54-.76-1.08,.12-1.86,.66-2.2,1.73-.06,.17-.04,.37-.06,.56-.08,.62-.49,.86-1.04,.81-.6-.06-.82-.49-.79-1.07,.11-1.75,1.05-2.88,2.62-3.54,1.57-.66,3.08-.62,4.24,.77,1.07,1.29,1.06,2.75,.26,4.19-.52,.94-1.29,1.68-2.07,2.4-1.15,1.05-2.3,2.1-3.87,3.54Z"/>
  <path class="cls-9" d="M97.34,254.29c-.02,.95-.26,2.47-1.08,3.85-1.43,2.4-4.44,2.71-6.31,.66-2.22-2.43-2.33-7.56-.21-10.08,1.86-2.21,5.14-1.9,6.56,.63,.64,1.13,1.03,2.75,1.04,4.94Z"/>
  <path class="cls-9" d="M69.72,253.74c.06,1.58-.19,3.11-1.05,4.47-1.5,2.38-4.46,2.62-6.32,.52-2.2-2.48-2.25-7.57-.11-10.08,1.79-2.11,5.06-1.81,6.46,.6,.8,1.38,1.08,2.9,1.01,4.49Z"/>
  <path class="cls-9" d="M117.71,258.25c2.38,0,4.35,0,6.32,0,.74,0,1.47,.07,1.41,1.02-.05,.81-.74,.86-1.4,.85-1.93-.01-3.86-.04-5.8,0-.97,.02-1.71-.27-2.15-1.15-.46-.93-.06-1.73,.57-2.38,1.08-1.11,2.25-2.15,3.38-3.22,.41-.39,.82-.77,1.19-1.19,.61-.72,1.24-1.47,.77-2.51-.29-.63-.83-.9-1.53-.82-1.07,.13-1.88,.62-2.19,1.72-.07,.24-.11,.49-.16,.73-.12,.52-.49,.7-.97,.65-.63-.06-.82-.51-.79-1.06,.11-1.82,1.11-2.97,2.77-3.61,1.54-.59,2.97-.48,4.07,.83,1.13,1.36,1.12,2.88,.17,4.33-1.42,2.16-3.67,3.53-5.65,5.79Z"/>
  <path class="cls-9" d="M105.29,254.29c-2.92,1.27-4.66,1.09-5.9-.51-1.14-1.48-1.17-3.52-.08-5.04,1.08-1.51,3.31-2.11,5.19-1.6,1.9,.52,2.84,1.42,2.65,3.6-.22,2.66-.04,5.35-.33,8.01-.07,.67-.2,1.34-1,1.26-.74-.08-.91-.74-.86-1.43,.1-1.36,.21-2.72,.33-4.29Z"/>
  <path class="cls-40" d="M77.15,254.45c-2.17,1.11-3.83,.97-5.1-.42-1.21-1.33-1.4-3.5-.44-5.04,1.03-1.64,3.31-2.42,5.26-1.89,1.84,.5,2.93,1.36,2.73,3.55-.24,2.6-.18,5.23-.24,7.85-.02,.74-.16,1.52-1.02,1.49-.93-.02-.87-.87-.84-1.57,.03-.81,.06-1.62,.1-2.43,0-.56,.62-1.3-.44-1.56Z"/>
  <path class="cls-37" d="M111.68,255.99c-.44,0-.87,0-1.31,0-.58,0-.96-.25-.99-.86-.03-.7,.38-1,1.05-1,.75,0,1.49,.02,2.24,0,.75-.03,1.49,.11,1.47,1-.01,.95-.84,.89-1.53,.88-.31,0-.62,0-.93,0Z"/>
  <path class="cls-37" d="M84.1,255.99c-.43,0-.87,0-1.3,0-.6,.01-.97-.3-.99-.87-.02-.66,.37-1.01,1.05-1,.75,0,1.49,.01,2.24,0,.73-.01,1.47,.04,1.45,.99-.02,1.01-.84,.87-1.52,.88-.31,0-.62,0-.93,0Z"/>
  <path class="cls-2" d="M77.15,254.45c.82-.13,.87,.03,.44,1.56-.29-.48,.23-1.19-.44-1.56Z"/>
  <path class="cls-43" d="M361.53,30.81c.25,0,.5,0,.75,0,2.09,0,2.79,1.02,2.18,3.11-.1,.35-.24,.54-.6,.54-1.61,0-3.28,.24-4.83-.09-1.1-.24-.34-1.58-.5-2.42-.1-.54-.11-1.16,.76-1.14,.74,.02,1.49,0,2.24,0Z"/>
  <path class="cls-22" d="M337.74,470.03c-.47,.46-.78,1.07-1.6,1.1-.86,.03-.86-.47-.82-1.06,.03-.55-.22-.8-.77-.75-.57,.05-.94-.08-.92-.79,.02-.65,.43-1,.84-1.36,.61-.53,.86,.14,1.18,.42,.6,.53,1.15,1.12,1.7,1.7,.19,.2,.55,.33,.39,.74Z"/>
  <path class="cls-23" d="M335.98,466.07c.05-.16,.04-.37,.14-.47,2.4-2.41,4.81-4.8,6.99-7.45-2.5,2.49-5,4.99-7.5,7.48,.12,.15,.25,.29,.37,.44Z"/>
  <path class="cls-21" d="M136.84,449.38c1.02-.04,2.09,.06,2.06,1.16-.03,1.09-1.15,1.05-2.03,1.09-.83,.04-1.4-.01-1.37-1.15,.04-1.12,.61-1.19,1.33-1.1Z"/>
  <path class="cls-34" d="M152.04,453.07h-3.14c.91-1.83,1.75-1.88,3.14,0Z"/>
  <path class="cls-4" d="M115.02,453.63c-.14,.77-.08,1.81-1.45,1.81-1.11,0-1.39-.79-1.36-1.62,.03-.82,.05-1.84,1.33-1.83,.98,.01,1.49,.5,1.48,1.63Z"/>
  <path class="cls-21" d="M164.04,453.67c.19-.77,.22-1.71,1.47-1.68,1.05,.03,1.45,.67,1.36,1.58-.08,.81-.03,1.85-1.32,1.86-1.16,.02-1.45-.73-1.51-1.77Z"/>
  <path class="cls-5" d="M131.77,470.01c.23,1.23-.22,2.07-1.43,2.15-1.19,.08-1.55-.82-1.6-1.85-.05-1.13,.38-2.05,1.58-2.1,1.09-.04,1.72,.64,1.45,1.79Z"/>
  <path class="cls-1" d="M103.48,468.67c-1.25,.19-1.55-.24-1.58-1.22-.04-1.16,.41-1.67,1.5-1.54,.96,.12,2.24,.15,2.24,1.47,0,1.61-1.55,.99-2.16,1.28Z"/>
  <path class="cls-39" d="M118.52,469.56h-3.36c1.1-1.6,1.91-1.65,3.36,0Z"/>
  <path class="cls-4" d="M135.56,469.94c.15-.97,.46-1.86,1.69-1.77,1.16,.08,1.61,.93,1.55,1.94-.05,.98-.48,1.84-1.7,1.79-1.25-.05-1.44-.96-1.54-1.96Z"/>
  <path class="cls-22" d="M334.62,381.16c-.29-.02-.76,.05-.74-.32,.03-1.02-.19-1.53-1.4-1.57-.6-.02-.44-.99-.12-1.38,.31-.38,.63-1.3,1.41-.61,.79,.69,1.49,1.47,2.24,2.21,.23,.23,.44,.45,.12,.76-.43,.41-.75,1.02-1.5,.92Z"/>
  <path class="cls-15" d="M334.64,376.23c2.5-2.51,5-5.03,7.5-7.54-.14-.15-.29-.3-.43-.44-2.51,2.51-5.03,5.02-7.54,7.52,.15,.15,.31,.3,.46,.46Z"/>
  <path class="cls-21" d="M135.29,359.43c1.15-.04,2.21,.12,2.12,1.22-.09,1.04-1.22,1.01-2.1,1.03-.73,.01-1.31,.04-1.3-1.03,.01-1.15,.51-1.42,1.28-1.22Z"/>
  <path class="cls-34" d="M150.55,363.11h-3.14c.9-1.83,1.74-1.88,3.14,0Z"/>
  <path class="cls-4" d="M113.52,363.74c-.14,.71-.09,1.68-1.32,1.75-1.2,.07-1.54-.77-1.49-1.68,.04-.81,.11-1.83,1.4-1.77,1,.05,1.45,.58,1.42,1.69Z"/>
  <path class="cls-21" d="M165.4,363.64c-.22,.76-.04,1.83-1.33,1.85-1.15,.02-1.54-.7-1.5-1.68,.04-.87,.19-1.78,1.42-1.77,1.05,0,1.38,.65,1.41,1.59Z"/>
  <path class="cls-5" d="M130.29,380.23c.21,1.26-.4,1.99-1.58,1.98-1.17,0-1.47-.97-1.47-1.98,0-1.14,.5-2.01,1.71-1.97,1.16,.04,1.53,.88,1.33,1.96Z"/>
  <path class="cls-39" d="M113.49,379.48c1.58-1.48,2.18-1.46,3.49,.15-1.24,.01-2.3,.17-3.49-.15Z"/>
  <path class="cls-1" d="M100.47,377.39c-.22-1.39,.65-1.52,1.49-1.42,.96,.11,2.26,.18,2.18,1.52-.08,1.54-1.55,1.09-2.5,1.26-1.17,.2-1.41-.51-1.17-1.36Z"/>
  <path class="cls-4" d="M135.63,378.18c1.2,.14,1.7,.9,1.67,1.92-.03,.98-.43,1.86-1.65,1.85-1.23-.01-1.56-.87-1.56-1.89,0-1.03,.41-1.8,1.53-1.88Z"/>
  <path class="cls-22" d="M337.24,424.75c-.63,.69-.93,1.32-1.73,1.39-.71,.06-1.05-.18-.95-.92,.08-.61-.17-.94-.83-.88-.47,.04-.82-.04-.86-.66-.04-.73,.41-1.13,.89-1.52,.52-.43,.76,.11,1.05,.37,.82,.73,1.62,1.48,2.43,2.23Z"/>
  <path class="cls-23" d="M335.38,421.2c2.5-2.52,5-5.03,7.49-7.55-.12-.13-.24-.25-.37-.38-2.53,2.5-5.05,4.99-7.58,7.49,.15,.15,.3,.29,.45,.44Z"/>
  <path class="cls-21" d="M136.2,404.41c.96-.06,1.96,.12,1.95,1.07-.02,1.24-1.2,1.13-2.12,1.18-.77,.04-1.26-.04-1.27-1.07,0-1.23,.66-1.27,1.44-1.18Z"/>
  <path class="cls-34" d="M151.25,408.11h-3.05c-.07-1.02,.64-1.32,1.35-1.4,.8-.09,1.37,.38,1.71,1.4Z"/>
  <path class="cls-4" d="M114.26,408.79c-.14,.69-.12,1.64-1.37,1.68-1.22,.03-1.49-.85-1.45-1.73,.04-.81,.16-1.83,1.46-1.72,1.01,.08,1.41,.65,1.36,1.77Z"/>
  <path class="cls-21" d="M166.15,408.61c-.22,.76-.04,1.83-1.33,1.86-1.15,.03-1.55-.69-1.5-1.67,.04-.87,.19-1.78,1.41-1.77,1.05,0,1.38,.64,1.41,1.59Z"/>
  <path class="cls-5" d="M131.04,425.23c.21,1.29-.45,1.99-1.61,1.95-1.16-.03-1.43-1.01-1.43-2.02,0-1.06,.48-1.9,1.57-1.93,1.26-.04,1.69,.83,1.48,2Z"/>
  <path class="cls-39" d="M114.24,424.5c1.54-1.52,2.13-1.52,3.45,0h-3.45Z"/>
  <path class="cls-1" d="M102.73,423.68c-1.54,.25-1.52-.53-1.57-1.43-.07-1.2,.65-1.41,1.52-1.31,.96,.11,2.25,.17,2.21,1.5-.05,1.58-1.58,.97-2.16,1.24Z"/>
  <path class="cls-4" d="M134.81,425.08c.11-.97,.35-1.88,1.57-1.88,1.16,0,1.67,.81,1.66,1.83,0,.98-.38,1.87-1.59,1.91-1.24,.04-1.52-.83-1.65-1.85Z"/>
  <path class="cls-39" d="M258.79,564.45h-5.99c.67-1.5,1.73-2.27,3.18-2.19,1.32,.07,2.46,.64,2.81,2.19Z"/>
  <path class="cls-5" d="M124.64,560.02c.69,1.66,1.22,2.95,1.82,4.4h-3.55c.54-1.37,1.05-2.66,1.73-4.4Z"/>
  <path class="cls-22" d="M175.35,564.43h-5.93c.5-1.47,1.58-2.18,3-2.18,1.35,0,2.45,.62,2.93,2.18Z"/>
  <path class="cls-19" d="M139.29,565.17c.03-2.08,.98-3.1,2.84-3.05,1.86,.04,2.94,1.3,2.86,3.33-.07,1.84-1.32,3.18-2.95,3.18-1.73,0-2.79-1.33-2.76-3.46Z"/>
  <path class="cls-19" d="M234.73,565.3c0,1.85-1.36,3.35-3.01,3.33-1.64-.02-2.74-1.32-2.78-3.3-.04-1.9,1.08-3.21,2.76-3.21,1.92,0,3.02,1.16,3.03,3.18Z"/>
  <path class="cls-5" d="M124.54,508.58c.91,1.03,1.11,2.3,1.65,3.39,.35,.72-.13,.83-.72,.82-.8-.02-1.61,0-2.59,0,.59-1.49,1.1-2.81,1.66-4.21Z"/>
  <path class="cls-39" d="M258.83,512.69h-6.05c.71-1.43,1.71-2.18,3.09-2.16,1.35,.02,2.47,.61,2.96,2.16Z"/>
  <path class="cls-22" d="M175.41,512.73h-6.04c.52-1.43,1.56-2.14,2.9-2.2,1.36-.05,2.48,.56,3.14,2.2Z"/>
  <path class="cls-19" d="M139.29,513.62c-.03-2.12,.88-3.22,2.67-3.23,1.94,0,3.03,1.13,3.04,3.16,0,1.92-1.27,3.36-2.96,3.35-1.68,0-2.72-1.25-2.74-3.29Z"/>
  <path class="cls-19" d="M231.7,510.39c1.92,0,3.02,1.16,3.03,3.18,0,1.85-1.36,3.35-3.01,3.33-1.64-.02-2.74-1.33-2.78-3.3-.04-1.9,1.08-3.21,2.76-3.21Z"/>
  <path class="cls-42" d="M143.08,657.98c-.1-2.18-.16-4.36-.32-6.53-.07-.95,.28-1.34,1.19-1.45,2.27-.27,4.5-.1,6.59,.8,2.84,1.22,4.19,4.19,3.8,8.01-.35,3.41-2.57,6.19-5.46,6.81-1.59,.34-3.21,.37-4.83,.42-1.06,.03-1.23-.41-1.2-1.32,.05-2.24,.02-4.49,.02-6.73,.07,0,.15,0,.22,0Z"/>
  <path class="cls-19" d="M252.52,659.55h-8.65c.75-2.09,2.27-3.26,4.22-3.29,2.02-.03,3.41,.96,4.42,3.29Z"/>
  <path class="cls-19" d="M171.86,659.56h-8.5c.69-2.12,2.34-3.35,4.37-3.3,2.09,.04,3.5,1.16,4.13,3.3Z"/>
  <path class="cls-42" d="M213.23,661.4c-.02,2.75-1.64,4.47-4.39,4.6-2.25,.11-3.89-1.46-3.64-3.69,.27-2.4,1.44-4.37,3.51-5.65,2.11-1.3,3.86-.44,4.21,1.97,.13,.92,.21,1.85,.31,2.78Z"/>
  <path class="cls-44" d="M336.48,259.49c.6,2.05-.9,1.63-2.21,1.79-1.97,.25-1.89-.78-2.02-2.24-.2-2.14,.97-1.9,2.41-2.06,2.21-.26,1.88,1.08,1.81,2.51Z"/>
  <path class="cls-39" d="M339.45,265.89c-1.76,.46-1.92-.4-2.04-1.93-.17-2.17,1.04-1.85,2.42-2,1.87-.21,1.8,.72,1.94,2.11,.21,2.09-.92,2.05-2.31,1.83Z"/>
  <path class="cls-42" d="M341.63,259.36c.69,2.41-1.08,1.69-2.33,1.9-2.22,.38-1.66-1.11-1.85-2.32-.36-2.26,1.13-1.76,2.42-1.95,2.18-.32,1.93,1.01,1.76,2.37Z"/>
  <path class="cls-5" d="M334.43,265.9c-1.71,.45-2.14-.23-2.19-1.98-.05-1.83,.67-1.94,2.14-1.96,1.57-.02,2.26,.22,2.22,2.06-.04,1.71-.56,2.25-2.17,1.88Z"/>
  <path class="cls-42" d="M339.44,255.94c-1.81,.49-1.9-.45-2.02-1.94-.19-2.29,1.25-1.62,2.43-1.79,1.63-.23,1.81,.47,1.92,1.93,.17,2.14-.98,1.99-2.33,1.8Z"/>
  <path class="cls-21" d="M327.69,258.98c-.47-1.77,.44-1.89,1.95-2.02,2.27-.19,1.68,1.22,1.84,2.43,.23,1.66-.52,1.8-1.96,1.92-2.07,.16-2.06-.9-1.84-2.32Z"/>
  <path class="cls-44" d="M334.24,255.97c-1.6,.4-1.88-.32-2-1.93-.16-2.26,1.21-1.64,2.4-1.84,1.86-.3,1.81,.69,1.93,2.08,.18,2.07-1.05,1.78-2.34,1.68Z"/>
  <path class="cls-21" d="M342.67,259.02c-.39-1.63,.26-1.98,1.91-2.07,2.17-.12,1.75,1.09,1.91,2.38,.24,1.87-.7,1.84-2.11,1.96-2.04,.17-1.88-.96-1.71-2.27Z"/>
  <path class="cls-7" d="M346.41,264.14c.49,1.8-.6,1.73-1.93,1.87-1.95,.2-1.8-.86-1.91-2.2-.14-1.73,.65-1.76,2.03-1.86,1.89-.14,2.06,.76,1.81,2.2Z"/>
  <path class="cls-7" d="M331.42,264.02c.5,1.81-.49,1.92-1.99,1.99-1.76,.09-1.75-.72-1.86-2.08-.14-1.78,.58-1.95,2.1-1.99,1.68-.04,2.08,.59,1.75,2.08Z"/>
  <path class="cls-21" d="M329.61,252.28c1.67-.47,1.8,.4,1.91,1.84,.15,1.87-.73,1.84-2.13,1.94-1.77,.13-1.74-.71-1.81-2.04-.08-1.65,.54-2.08,2.03-1.74Z"/>
  <path class="cls-21" d="M346.4,254.16c.5,1.74-.48,1.79-1.86,1.9-1.77,.14-1.91-.58-1.98-2.07-.09-1.77,.71-1.76,2.05-1.8,1.54-.04,2.21,.38,1.79,1.97Z"/>
  <path class="cls-20" d="M341.29,247.81c0-.31-.02-.62,0-.93,.05-.62-.28-1.45,.88-1.43,1.16,.02,.79,.87,.84,1.48,.04,.62,.01,1.24,0,1.86,0,.62,.09,1.27-.89,1.25-1.01-.02-.82-.7-.84-1.3-.01-.31,0-.62,0-.93Z"/>
  <path class="cls-42" d="M331.08,247.57c0-.43,.02-.86,0-1.29-.04-.66,.29-.82,.89-.82,.58,0,.74,.27,.74,.78,0,.92-.02,1.85,0,2.77,.02,.65-.1,1.03-.9,1.01-.75-.02-.74-.46-.74-.97,0-.49,0-.98,0-1.48Z"/>
  <path class="cls-19" d="M133.65,253.49c0,1.29-.15,2.4-.68,3.41-.93,1.77-2.67,1.85-3.81,.19-1.23-1.79-1.26-5.1-.06-6.9,1-1.51,3.09-1.4,3.88,.23,.5,1.02,.63,2.13,.67,3.08Z"/>
  <path class="cls-19" d="M95.49,253.74c.01,1.13-.18,2.23-.73,3.22-.91,1.67-2.58,1.76-3.71,.21-1.23-1.68-1.29-5.09-.19-6.92,.52-.87,1.24-1.05,2.18-1.06,.98,0,1.46,.48,1.81,1.29,.44,1.04,.65,2.12,.64,3.25Z"/>
  <path class="cls-19" d="M67.86,253.88c.07,1.03-.09,2.19-.73,3.23-.87,1.42-2.25,1.56-3.38,.35-1.59-1.7-1.65-5.94-.12-7.64,.97-1.08,2.88-.83,3.59,.47,.45,.83,.64,1.83,.64,3.59Z"/>
  <path class="cls-21" d="M103.01,248.84c.87,.12,1.9,.02,1.9,1.42,0,1.64-1.25,3.17-2.63,3.04-1.22-.12-1.93-.9-1.88-2.13,.06-1.58,1.08-2.26,2.61-2.34Z"/>
  <path class="cls-21" d="M72.83,251.21c0-1.33,1.07-2.34,2.58-2.34,.93,0,1.95-.03,1.94,1.36,0,1.67-1.23,3.17-2.59,3.08-1.25-.09-1.82-.91-1.93-2.1Z"/>
</svg>