<?xml version="1.0" encoding="UTF-8"?>
<svg id="Calque_1" data-name="Calque 1" xmlns="http://www.w3.org/2000/svg" viewBox="0 0 409.06 805">
  <defs>
    <style>
      .cls-1 {
        fill: #e9e9e9;
      }

      .cls-2 {
        fill: #f0f0f0;
      }

      .cls-3 {
        fill: #090909;
      }

      .cls-4 {
        fill: #fafafa;
      }

      .cls-5 {
        fill: #0c0c0c;
      }

      .cls-6 {
        fill: #040404;
      }

      .cls-7 {
        fill: #a6a6a6;
      }

      .cls-8 {
        fill: #020202;
      }

      .cls-9 {
        fill: #0a0a0a;
      }

      .cls-10 {
        fill: #2f2f2f;
      }

      .cls-11 {
        fill: #dedede;
      }

      .cls-12 {
        fill: #313131;
      }

      .cls-13 {
        fill: #e6e6e6;
      }

      .cls-14 {
        fill: #e7e7e7;
      }

      .cls-15 {
        fill: #030303;
      }

      .cls-16 {
        fill: #101010;
      }

      .cls-17 {
        fill: #080808;
      }

      .cls-18 {
        fill: #fdfdfd;
      }

      .cls-19 {
        fill: #e4e4e4;
      }

      .cls-20 {
        fill: #fbfbfb;
      }

      .cls-21 {
        fill: #f9f9f9;
      }

      .cls-22 {
        fill: #e5e5e5;
      }

      .cls-23 {
        fill: #171717;
      }

      .cls-24 {
        fill: #0e0e0e;
      }

      .cls-25 {
        fill: #d3d3d3;
      }

      .cls-26 {
        fill: #ebebeb;
      }

      .cls-27 {
        fill: #bebebe;
      }

      .cls-28 {
        fill: #202020;
      }

      .cls-29 {
        fill: #050505;
      }

      .cls-30 {
        fill: #353535;
      }

      .cls-31 {
        fill: #ccc;
      }

      .cls-32 {
        fill: #292929;
      }

      .cls-33 {
        fill: #0b0b0b;
      }

      .cls-34 {
        fill: #f7f7f7;
      }

      .cls-35 {
        fill: #191919;
      }

      .cls-36 {
        fill: #bfbebe;
      }

      .cls-37 {
        fill: #070707;
      }

      .cls-38 {
        fill: #b5b5b5;
      }

      .cls-39 {
        fill: #f8f8f8;
      }

      .cls-40 {
        fill: #eee;
      }

      .cls-41 {
        fill: #010101;
      }

      .cls-42 {
        fill: #c0bfbf;
      }

      .cls-43 {
        fill: #fefefe;
      }

      .cls-44 {
        fill: #060606;
      }

      .cls-45 {
        fill: #fcfcfc;
      }

      .cls-46 {
        fill: #ededed;
      }
    </style>
  </defs>
  <path class="cls-27" d="M75.67,0h42.33c.11,.26,.05,.46-.19,.6-1.18,.56-2.44,.34-3.67,.35-3.04,0-6.07,.07-9.11-.03-.24,0-.48,0-.72,0-8.87,.11-17.75,.03-26.62,.04-.62,0-1.24-.03-1.81-.34-.25-.15-.32-.35-.21-.62Z"/>
  <path class="cls-11" d="M118.01,.32c-.01-.11-.02-.21,0-.32h26.22c0,.11,0,.21,0,.32-.67,.76-1.59,.65-2.44,.65-7.11,.02-14.22,.02-21.34,0-.86,0-1.77,.1-2.44-.65Z"/>
  <path class="cls-11" d="M.31,110.2l-.15,.02-.15-.03v-19.86c.27-.11,.47-.04,.62,.21,.4,.75,.35,1.56,.35,2.36,.01,4.9,.02,9.79,0,14.69,0,.91,.16,1.89-.66,2.61Z"/>
  <path class="cls-11" d="M75.67,0c0,.1,0,.21-.01,.31-2.37,1.04-4.75,1.05-7.12,0,0-.1,0-.2,.01-.31h7.12Z"/>
  <path class="cls-38" d="M.31,90.34H.15s-.15-.01-.15-.01v-3c.11,0,.23,0,.34-.02,.78,1.02,.81,2.03-.03,3.03Z"/>
  <path class="cls-41" d="M118.01,.32c8.74,0,17.48,0,26.22,0,10.61,.03,21.22,.06,31.83,.07,30.34,.03,60.68,.05,91.01,.06,30.65,0,61.3-.09,91.95,.06,10.52,.05,20.51,2.53,29.34,8.6,9.48,6.52,14.85,15.73,17.31,26.8,1.05,4.71,1.47,9.5,1.48,14.31,.02,31.98,.01,63.96,0,95.93,0,1.17-.16,2.31,1.22,3,.71,.35,.69,1.25,.69,2.02,0,14.05,0,28.11,0,42.16,0,.7,.07,1.57-.56,1.89-1.53,.75-1.3,2.02-1.3,3.31,.04,22.36,.06,44.71,.1,67.07,.04,26.73,.1,53.46,.15,80.19,.06,31.54,.04,63.08,.19,94.62,.26,52.9,.16,105.8,.17,158.7,0,28.79,.03,57.58-.09,86.38-.09,23.1-.29,46.21-.61,69.31-.1,7.54-.47,15.14-2.55,22.45-3.37,11.85-10.6,20.34-22.51,24.3-5.02,1.67-10.35,1.69-15.56,1.96-19.7,1.03-39.42,1.02-59.14,1.19-.19,0-.37-.03-.56-.05-.73-1.01-.67-2.03-.08-3.07,.59-.44,1.28-.45,1.97-.47,.81-.02,1.62-.03,2.43,0,9.11,.26,18.22-.21,27.31-.49,8.17-.25,16.34-.04,24.51-.28,4.24-.12,8.45-.54,12.66-1.11,7.4-1,12.83-5.2,17.55-10.57,5.73-6.5,8.11-14.34,8.95-22.79,.43-4.36,.37-8.73,.37-13.09,0-26.48-.29-52.95,.09-79.42,.31-21.66,.12-43.32,.29-64.98,0-.81,0-1.62,.17-2.43,.39-1.22,.25-2.48,.25-3.72,0-116.63,0-233.27,0-349.9,0-1-.05-2,.05-2.99,.08-.75,.29-1.42,1-1.35-.84,.03-.99-.8-1.03-1.68-.06-1.25-.03-2.5-.03-3.75,0-9.55,0-19.11,0-28.66,0-.94,.04-1.87-.26-2.78-.37-4.11-.07-8.24-.18-12.35-.81-31.71,.08-63.44-.47-95.15-.33-19.23-.22-38.46-.22-57.69,0-10.12-3.56-18.66-10.04-26.12-7.41-8.53-16.73-13.74-27.99-15.19-3.33-.43-6.7-.63-10.08-.63-81.77,0-163.53,0-245.3,0-1.29,0-2.63,.25-3.86-.43-.71-1.03-.73-2.07,0-3.1,4.37-.04,8.74-.07,13.1-.11Z"/>
  <path class="cls-41" d="M.31,90.34c0-1.01,.02-2.02,.03-3.03,2.52-2.87,1.46-6.35,1.5-9.59,.12-10.17-.22-20.35,.15-30.51,.37-10.17,2.88-19.84,8.99-28.25,4.32-5.95,10.41-9.68,16.62-13.36C34.94,1.24,42.88,.34,51.14,.4c5.8,.05,11.6-.06,17.4-.1,2.37,0,4.74,0,7.12,0,8.56,.02,17.12,.04,25.68,.06,1.05,0,2.11,.03,3.16,.05,.33,1.02,.31,2.04,0,3.07-.71,.52-1.54,.46-2.34,.46-15.35,0-30.71,.2-46.06-.1-5.55-.11-10.96,.17-16.3,1.52-16.3,4.11-26.39,14.66-31.27,30.49-1.33,4.31-1.83,8.77-1.99,13.29-.77,21.97-.52,43.95-.22,65.92,.28,20.29,.45,40.58,.14,60.86-.35,23.04-.04,46.07-.27,69.11,0,.87,.09,1.76-.37,2.56-.63,.59-1.46,.16-2.16,.37-.24,.09,.1,.41-.01,.19-.05-.1-.02-.16,.08-.16,.74-.04,1.53-.38,2.16,.34,.53,1.26,.33,2.59,.33,3.89,0,83.69-.27,167.38,.12,251.07,.2,43.71,.44,87.43,.14,131.14-.26,38.16-.03,76.31-.26,114.46,0,.87,.06,1.75-.29,2.59-.62,.86-1.46,.45-2.3,.41,.72,.32,1.56-.18,2.18,.41,.59,1.99,.64,4.06,.73,6.1,.47,10.61,3.57,20.24,10.57,28.39,5.38,6.26,12.26,10.14,20.14,12.31,4.71,1.3,9.51,1.98,14.42,1.98,83.62-.02,167.24-.01,250.86,0,1.29,0,2.63-.28,3.85,.44,.35,1.03,.32,2.07,.03,3.11-.56,.03-1.12,.07-1.68,.08-17.79,.02-35.58,.03-53.38,.05-18.1,.02-36.21,.05-54.31,.07-38.95,.05-77.91,.23-116.86,.09-11.72-.04-23.47-.14-35.17-1.02-9.4-.71-18.2-3.49-25.9-9.19-8.19-6.06-12.92-14.34-15.35-24.08-1.35-5.42-1.87-10.95-1.88-16.52-.02-35.92-.1-71.83,.07-107.75,.18-37.47,.57-74.95,.19-112.42-.44-44.03-.86-88.05-.67-132.08,.22-53.09,.48-106.18,.4-159.26,0-1.14-.02-2.19-.84-3.13-.59-.67-.68-1.56-.68-2.47,.02-14.49,.01-28.98,.01-43.47,0-.87-.14-1.8,1.05-2.1,.73-.18,.43-.81,.43-1.24,.03-2.56,.02-5.12,0-7.68,0-.42,.2-.99-.22-1.23-1.59-.92-1.24-2.43-1.24-3.83-.01-13.87-.01-27.73-.02-41.6,0-.56-.13-1.23,.34-1.59,1.5-1.15,1.14-2.75,1.15-4.26,.02-4.18-.21-8.38,.08-12.55,.19-2.69-.78-4.92-1.64-7.27,0-6.62,0-13.24,0-19.86Z"/>
  <path class="cls-12" d="M306.41,804.66c0-.97,0-1.95-.01-2.92,.14-.13,.27-.13,.41,0,0,.97,0,1.94-.01,2.91-.13,0-.26,0-.39,.01Z"/>
  <path class="cls-12" d="M104.5,3.33c0-.97,0-1.94,0-2.91,.14,0,.27,0,.41,0,0,.97,0,1.94,0,2.91-.13,.11-.27,.12-.4,0Z"/>
  <path class="cls-42" d="M104.5,3.33c.13,0,.27,0,.4,0,9.3,.03,18.6,.09,27.9,.1,66.74,.02,133.47,.04,200.21,.05,9.3,0,18.6-.29,27.89,.19,17.91,.94,34.26,13.15,40.12,30.09,1.58,4.56,1.76,9.3,1.77,14.05,.02,12.49-.02,24.98,.01,37.48,.06,20.36,.29,40.72,.18,61.08-.08,14.49-.11,28.98,.2,43.46,.15,7.05,.21,14.11,.33,21.16,.19,.68,.1,1.37,.1,2.05,0,130.32,0,260.64,0,390.96,0,.68,.11,1.37-.11,2.05-.04,10.99-.09,21.99-.13,32.98-.09,26.92-.18,53.84-.25,80.76-.04,13.62,.1,27.23-.12,40.85-.14,8.69-1.47,17.24-6.56,24.6-5.3,7.67-11.89,13.58-21.73,14.71-4.72,.54-9.44,.97-14.18,.94-17.92-.11-35.81,.87-53.73,.85h-.41c-.81-.02-1.62-.06-2.43-.06-83.77,0-167.53,0-251.3,0-8.41,0-16.52-1.39-24.06-5.25-11.86-6.06-18.59-16-21.49-28.81-1.16-5.09-1.21-10.27-1.48-15.43-.24-.12-.24-.24,0-.36,.03-.75,.09-1.49,.09-2.24,0-31.16-.03-62.32,.01-93.49,.05-36.22,.31-72.44,.25-108.65-.09-49.58-.61-99.16-.49-148.74,.08-32.53,.12-65.07,.18-97.6,.03-17.05,.04-34.1,.05-51.14,0-.62-.06-1.24-.09-1.87-.24-.12-.24-.24,0-.36,.03-.75,.09-1.49,.09-2.24,0-20.3-.17-40.59,.05-60.89,.23-21.1,.05-42.21,.08-63.31,.04-21.42-.11-42.84-.11-64.25,0-6.55,.12-13.1,1.71-19.53C12.07,18.82,26.15,6.2,45.18,3.67c3.74-.5,7.46-.39,11.2-.36,15.85,.09,31.71,.07,47.56,.08,.19,0,.37-.04,.56-.06Z"/>
  <path class="cls-12" d="M403.5,606.05c0-10.11,0-20.23,0-30.34,0-.75,.02-1.5,.02-2.25,0-110.15,0-220.29,0-330.44,0-9.99-.05-19.98-.08-29.97,0-.68,.05-1.37,.08-2.05,.5,.6,.28,1.32,.28,1.98,.03,10.56,.04,21.11,.06,31.67q0,2.86,2.61,3.28-2.61,.42-2.61,3.28c0,107.06,0,214.13,0,321.19,0,10.56-.03,21.11-.05,31.67,0,.67,.2,1.38-.3,1.98Z"/>
  <path class="cls-10" d="M5.64,247.74c0,.12,0,.24,0,.36-.76-.06-1.55,.17-2.37-.18,.82-.35,1.61-.12,2.37-.18Z"/>
  <path class="cls-10" d="M5.64,751.84c0,.12,0,.24,0,.36-.76-.06-1.55,.17-2.37-.18,.82-.35,1.61-.12,2.37-.18Z"/>
  <path class="cls-41" d="M391.77,248.13c.04,9.24,.12,18.48,.11,27.73-.02,36.54-.06,73.08-.12,109.61-.05,28.29-.2,56.58-.23,84.87-.02,20.49,.06,40.97,.1,61.46,.03,16.93,.11,33.85,.08,50.78-.07,37.35-.07,74.7-.37,112.05-.17,21.79-.75,43.58-.67,65.38,.05,14.25-8.75,23.81-22.3,28.16-2.97,.95-5.97,1.52-9.15,1.53-10.55,.02-21.09,.25-31.64,.39-.68,0-1.37-.06-2.05-.09-.8-.24-1.61-.11-2.42-.11-90.32,0-180.64,0-270.96-.01-.81,0-1.62,.12-2.42-.11-13.61-.81-23.44-7.46-29.74-19.44-.77-1.46-1.06-3.16-2.05-4.56-.49-.7-.71-1.59-.71-2.49,.01-3.68,.03-7.36,.05-11.04,.88-.43,1.82-.07,2.62-.21-.8-.12-1.74,.23-2.62-.2-.02-.81-.06-1.62-.06-2.43,0-109.5,0-218.99,0-328.49,0-56.84-.02-113.68-.02-170.52,0-.75,.04-1.5,.06-2.24,.89-.45,1.84-.01,2.58-.21-.75-.11-1.69,.23-2.58-.19-.02-12.3-.07-24.61-.06-36.91,.01-12.87,.05-25.73,.14-38.6,.19-26.67,.34-53.33,.22-80-.05-11.61-.5-23.23-.27-34.84,.15-7.37,.11-14.9,3.31-21.85,4.76-10.32,12.48-16.97,23.73-19.58,3.66-.85,7.25-.93,10.91-.93,8.49,0,16.98,0,25.47,0,4.38,0,6.65,2.19,6.9,6.6,.1,1.68,.19,3.37,.37,5.04,.65,5.9,4.71,10.01,10.6,10.84,1.99,.28,3.98,.33,5.98,.33,67.79,0,135.59,0,203.38,0,.81,0,1.62-.02,2.43-.08,5.25-.41,7.86-2.52,9.54-7.49,1.25-3.7,1.01-7.52,1.13-11.31,.11-3.48,.19-3.57,3.61-3.6,11.55-.09,23.09-.17,34.64-.29,6.85-.07,13.47,.84,19.28,4.81,7.19,4.92,11.43,11.63,12.15,20.47,.65,7.92,.35,15.85,.38,23.78,.18,37.22,.27,74.44,.4,111.67,.09,23.29,.21,46.59,.31,69.88,0,.69-.04,1.37-.06,2.06-.88,.43-1.82,.07-2.62,.21,.8,.12,1.74-.23,2.62,.2Z"/>
  <path class="cls-41" d="M204.04,29.55c-5.36,0-10.72,0-16.08,0-.68,0-1.37-.03-2.05-.13-2.57-.39-3.25-.98-3.43-2.92-.25-2.66,.67-4.31,2.82-5.07,1.44-.51,2.95-.49,4.44-.49,9.98-.01,19.96,0,29.93,0,1.19,0,2.38,.01,3.5,.48,1.68,.69,2.59,2.04,2.5,3.79-.08,1.68-1.09,2.86-2.79,3.36-.85,.25-1.71,.32-2.59,.3-5.43-.13-10.85,0-16.27,.69Z"/>
  <path class="cls-10" d="M49.73,789.75c1.06-.03,2.11-.09,3.17-.09,83.71,0,167.41,0,251.12-.04,.81,0,2.1,.76,2.43-.86,.04-.18,.25-.32,.31-.05,.35,1.75,1.72,.88,2.58,.9,4.74,.09,9.49,.03,14.23,.05,.66,0,1.38-.24,1.96,.32-6.99,.01-13.98,.03-20.97,.03-83.77,0-167.54,0-251.32,0-1.17,0-2.37,.18-3.51-.26Z"/>
  <path class="cls-41" d="M240.99,30.21c-3.75,.32-6-.78-6.83-3.06-.97-2.66,.34-7.22,2.52-8.65,1.13-.73,2.39-1.13,3.73-.71,2.39,.75,4.38,2.08,5.75,4.22,1.14,1.77,1.31,3.63,.23,5.48-1.05,1.8-2.63,2.78-4.78,2.71-.37-.01-.74,0-.64,0Z"/>
  <path class="cls-12" d="M17.27,247.72h2.55v.4h-2.55v-.4Z"/>
  <path class="cls-12" d="M391.77,248.13h-2.53c0-.14,0-.28-.01-.41h2.55c0,.14,0,.28,0,.41Z"/>
  <path class="cls-12" d="M17.29,751.81h2.54c0,.14,0,.28,0,.41h-2.55c0-.14,0-.28,0-.41Z"/>
  <path class="cls-18" d="M21.38,97.81c-.2-11.74,.18-23.48,.36-35.21,.08-5.37,.08-10.75,.38-16.1,.66-11.84,6.21-20.59,17.03-25.66,4-1.88,8.41-2.21,12.81-2.2,8.8,0,17.61,.11,26.41,0,3.3-.04,4.71,.27,5.14,5.2,.28,3.24,.39,6.48,1.89,9.46,.14,.28,.27,.56,.4,.85,1.93,4.5,5.28,6.68,10.22,7.16,6.37,.61,12.71,.44,19.07,.41,8.61-.04,17.23-.09,25.84-.11,24.22-.05,48.45,.09,72.66-.16,31.46-.33,62.92-.1,94.39-.3,8.07-.05,13.71-3.92,16.17-10.69,.82-2.27,.95-4.62,.95-7,0-4.2,.45-4.63,4.58-4.64,10.36-.04,20.72-.09,31.09-.12,5.3-.02,10.44,.75,15.01,3.66,6,3.83,9.04,9.61,10.43,16.4,.67,3.26,.82,6.56,.82,9.87,0,193.51,0,387.03,0,580.54,0,19.86-.1,39.72-.17,59.59-.02,6.81-.14,13.61-.11,20.42,0,1.49-.39,1.61-1.77,1.53-9.78-.61-19.59-.41-29.38-.47-32.4-.19-64.79-.3-97.19-.48-77.16-.42-154.32-.19-231.48-.26-.81,0-1.64-.1-2.43,.02-1.92,.29-2.45-.37-2.45-2.36,.05-166.59,.07-333.18,.02-499.77,0-24.1-.34-48.21-.51-72.31-.08-11.62-.14-23.23-.2-34.85,0-.57-.27-1.33,.76-1.33,.36-.3,.79-.35,1.23-.34,27.4,.41,54.8-.08,82.2,.2,75.34,.78,150.68,.1,226.01,.36,8.49,.03,16.99-.27,25.46,.12,8.67,.4,17.34-.05,26,.25-16.03-.43-32.08-.04-48.11-.4-20.03-.45-40.07-.07-60.1-.25-4.62-.04-9.24,.04-13.86-.01-78.64-.85-157.29-.13-235.94-.38-1.22,0-2.52,.24-3.62-.61Z"/>
  <path class="cls-43" d="M204.31,786.62c-50.69,0-101.38,0-152.07,0-13.04,0-23.2-6.71-28.09-18.56-1.44-3.49-2.08-7.16-2.08-10.95,.02-15.11,.02-30.23-.02-45.34,0-1.32,.21-1.6,1.63-1.39,5.57,.83,11.21,.49,16.82,.52,23.47,.12,46.94,.16,70.41,.2,59.61,.1,119.23,.18,178.84,.27,23.35,.03,46.69,.06,70.04,.12,8.36,.02,16.72,.16,25.09,.18,1.37,0,1.88,.27,1.87,1.82-.12,14.49-.11,28.98-.19,43.47-.04,8.09-2.27,15.38-8.13,21.24-5.87,5.88-13.06,8.45-21.29,8.45-50.94-.01-101.88,0-152.82,0Z"/>
  <path class="cls-41" d="M21.38,97.81c28.9,0,57.81,0,86.71,.01,35.83,.01,71.67,0,107.5,.07,33.71,.07,67.41,.21,101.12,.37,20.72,.1,41.44,.31,62.16,.5,2.06,.02,4.15,.1,6.21,.86-.31,.63-.71,.45-1.02,.45-16.91-.1-33.83-.29-50.74-.31-47.07-.07-94.14-.07-141.21-.11-19.6-.02-39.2-.03-58.8-.09-32.02-.09-64.04-.19-96.07-.34-5.05-.02-10.11,.18-15.14-.36-.66-.83-1.13,.42-1.79,.16-.6-.23-1.55-.06-1.46-1.01,.08-.9,.95-.53,1.5-.54,.35,0,.69,.21,1.04,.33Z"/>
  <path class="cls-42" d="M203.47,26.87c-4.86,0-9.72,.05-14.57-.04-.92-.02-2.56,.74-2.64-1.03-.08-1.84,1.57-1.63,2.76-1.63,8.72,.02,17.45,.06,26.17,.14,1.68,.02,3.35-.52,5.02-.12,.58,.14,1.43,.15,1.46,.9,.02,.77-.85,.8-1.41,.94-.66,.16-1.36,.22-2.03,.21-4.92-.1-9.84,.03-14.76,.62Z"/>
  <path class="cls-36" d="M239.5,27.73c-1.76,.02-2.31-.57-2.35-2.57-.05-2.11,1.78-4.6,3.35-4.57,1.34,.03,3.29,2.32,3.29,3.87,0,1.35-2.48,3.24-4.29,3.26Z"/>
  <path d="M204.54,224.01c-26.42-.09-47.98-21.7-47.93-48.06,.06-26.4,21.83-48.1,48.06-47.88,26.6,.22,47.93,21.69,47.81,48.11-.12,26.38-21.71,47.91-47.94,47.83Z"/>
  <path class="cls-41" d="M203.96,552.13c41.44,0,82.89-.02,124.33,.01,11.36,0,22.71,.18,34.07,.22,1.34,0,1.79,.42,1.93,1.74,.57,5.23,.7,10.47,.47,15.7-.25,5.87-.3,11.73,.05,17.59,.04,.68,.08,1.38-.01,2.06-.35,2.59-.43,2.59-3.04,2.4-1.68-.12-3.37-.09-5.05-.09-31.33,.03-62.67-.11-94,.14-26.34,.21-52.68,.17-79.01,.13-32.52-.04-65.04-.18-97.55-.32-13.79-.06-27.58-.23-41.37-.31-1.36,0-2.03-.3-1.98-1.81,.07-2.68-.14-5.37,.01-8.05,.48-8.8,.47-17.59,.03-26.39-.14-2.79,.21-3.34,3.09-3.35,4.24-.02,8.49-.05,12.73-.05,47.5-.02,95-.04,142.51-.07,.94,0,1.87,0,2.81,0v.44Z"/>
  <path d="M203.88,451.69c41.51,0,83.01-.02,124.52,.01,11.36,0,22.71,.19,34.07,.23,1.28,0,1.66,.45,1.81,1.66,.64,5.22,.71,10.46,.5,15.7-.24,5.93-.31,11.85,.06,17.78,.03,.56,.12,1.15,0,1.68-.6,2.82-.34,3.17-3.17,2.69-1.52-.26-3.11-.11-4.67-.11-31.46,.03-62.92-.12-94.38,.14-27.71,.23-55.42,.15-83.13,.13-31.14-.03-62.29-.18-93.43-.31-13.73-.06-27.46-.24-41.19-.29-1.51,0-2.1-.41-2.07-1.93,.06-2.74-.12-5.5,.03-8.24,.46-8.68,.46-17.34,.01-26.02-.13-2.59,.06-3.44,3.01-3.43,4.31,.02,8.61-.05,12.92-.05,47.38-.03,94.75-.04,142.13-.07,1,0,2,0,3,0,0,.15,0,.29,0,.44Z"/>
  <path d="M203.78,502.66c41.51,0,83.01-.02,124.52,.01,11.36,0,22.71,.19,34.07,.22,1.35,0,1.79,.43,1.93,1.75,.57,5.23,.7,10.47,.47,15.7-.25,5.87-.3,11.73,.05,17.59,.04,.68,.08,1.38-.01,2.06-.35,2.59-.43,2.59-3.04,2.4-1.49-.11-2.99-.09-4.49-.09-31.58,.03-63.17-.11-94.75,.14-26.28,.21-52.55,.16-78.83,.13-32.52-.04-65.04-.18-97.55-.32-13.79-.06-27.58-.24-41.37-.31-1.37,0-2.02-.31-1.98-1.82,.07-2.68-.14-5.37,.01-8.05,.48-8.8,.49-17.59,.03-26.39-.12-2.3,.03-3.37,2.92-3.34,4.24,.05,8.48-.06,12.73-.06,47.63-.03,95.25-.05,142.88-.07,.81,0,1.62,0,2.43,0v.44Z"/>
  <path d="M203.95,654.07c41.44,0,82.89-.02,124.33,.01,11.36,0,22.71,.18,34.07,.22,1.32,0,1.8,.38,1.95,1.73,.57,5.23,.69,10.47,.48,15.7-.24,5.81-.31,11.61,.04,17.41,.03,.56,.06,1.12,.04,1.68-.11,2.86-.47,3.14-3.25,2.96-1.62-.1-3.24-.07-4.87-.07-31.33,.03-62.67-.11-94,.14-26.34,.21-52.68,.17-79.01,.13-32.52-.04-65.04-.18-97.55-.32-13.79-.06-27.58-.23-41.37-.31-1.34,0-2.04-.26-2-1.8,.08-2.68-.14-5.37,.01-8.05,.48-8.8,.47-17.59,.03-26.39-.14-2.76,.18-3.36,3.08-3.36,4.24-.01,8.49-.05,12.73-.05,47.5-.02,95-.04,142.5-.07,.94,0,1.87,0,2.81,0,0,.15,0,.29,0,.44Z"/>
  <path class="cls-41" d="M203.97,603.1c41.44,0,82.89-.02,124.33,.01,11.36,0,22.71,.19,34.07,.22,1.36,0,1.78,.44,1.93,1.75,.57,5.23,.69,10.47,.47,15.7-.25,5.87-.3,11.73,.05,17.59,.04,.68,.08,1.38-.01,2.06-.35,2.59-.43,2.59-3.05,2.39-1.49-.11-2.99-.09-4.49-.09-31.58,.03-63.17-.11-94.75,.14-26.28,.21-52.55,.16-78.83,.13-32.52-.04-65.04-.18-97.55-.32-13.79-.06-27.58-.24-41.37-.31-1.38,0-2.01-.33-1.97-1.82,.07-2.68-.14-5.37,.01-8.05,.49-8.8,.48-17.59,.03-26.39-.12-2.3,.03-3.36,2.92-3.33,4.3,.04,8.61-.06,12.91-.06,47.5-.03,95-.05,142.51-.07,.94,0,1.87,0,2.81,0v.44Z"/>
  <path d="M83.93,339.38c-.2-26.7,21.67-48.74,48.53-48.89,26.67-.15,48.6,21.56,48.84,48.37,.24,26.88-21.55,48.92-48.5,49.05-26.79,.13-48.66-21.59-48.86-48.53Z"/>
  <path d="M46.82,71.83c1.75,1.68,3.52,3.34,5.24,5.05,1.75,1.75,1.64,2.8-.43,4.86-1.91,1.91-2.99,2.01-4.73,.28-4.12-4.09-8.21-8.2-12.29-12.31-1.57-1.59-1.55-2.86,.07-4.49,4.05-4.07,8.1-8.12,12.18-12.16,1.81-1.79,2.85-1.67,5,.48,1.84,1.84,1.89,2.97,.13,4.75-1.7,1.71-3.43,3.37-5.51,5.41,4.8,0,9.07,0,13.34,0,2.52,0,3.19,.67,3.25,3.19,.01,.56,.03,1.12,0,1.68-.12,2.05-.85,2.79-2.91,2.8-4.35,.03-8.7,0-13.05,0-.1,.15-.19,.31-.29,.46Z"/>
  <path d="M359.86,117.24c2.64,2.67,5.12,5.21,7.64,7.71,.54,.54,.62,.84,.02,1.44-5.14,5.09-10.25,10.21-15.36,15.33-.35,.35-.66,.69-1.24,.69-2.31-.03-4.61-.04-6.92,0-.83,.02-.88-.39-.88-1.03,.02-2.18,.04-4.37,0-6.55-.02-.71,.29-1.14,.75-1.59,5.3-5.28,10.58-10.58,16-16Z"/>
  <path d="M170.76,65.67c-.28-3.06-.4-6.11-.11-9.16,.14-1.46,.38-2.33,2.43-1.94,1.53,.29,3.3-.24,4.99-.23,1.52,0,2.95,.35,4.3,1.03,2.53,1.28,4.1,4.13,3.74,6.76-.33,2.46-2.51,4.37-5.65,4.93-1.84,.33-3.71,.57-5.57,.34-1.07-.13-1.27,.28-1.23,1.21,.08,1.87,.08,3.74,.11,5.61,.02,1.08-.39,1.87-1.59,1.84-1.11-.03-1.44-.79-1.43-1.79,0-2.87,0-5.73,0-8.6Z"/>
  <path d="M205.15,59.96c4.61,.16,7.71,3.24,7.45,7.72-.23,4.1-3,8.48-8.15,8.09-3.49-.27-6.41-4.06-6.23-8.43,.14-3.34,2.77-8.13,6.92-7.38Z"/>
  <path class="cls-41" d="M222,53.97c1.17-.09,2.37,.18,3.46,.84,.88,.52,1.18,1.33,.73,2.23-.44,.88-1.19,1.2-2.18,.76-.68-.3-1.37-.62-2.08-.78-1.74-.38-2.73,.48-2.83,2.26-.04,.78,.13,1.16,1,1.07,1.05-.11,1.68,.41,1.7,1.49,.01,1.1-.64,1.6-1.69,1.48-1.17-.14-1.12,.56-1.11,1.37,.05,2.99,.06,5.98,.12,8.97,.02,1.12-.03,2.28-1.45,2.38-1.56,.11-1.51-1.15-1.54-2.22-.09-2.99-.16-5.98-.24-8.96-.02-.7,.23-1.47-.91-1.65-.69-.11-.88-.84-.83-1.5,.04-.59,.29-1.22,.9-1.27,.93-.07,1.01-.54,1.08-1.31,.34-3.56,2.18-5.17,5.86-5.16Z"/>
  <path d="M373.52,119.16c.02,1.72-1.3,2.44-2.22,3.4-1.8,1.87-1.83,1.85-3.65,.03-1.93-1.93-3.84-3.89-5.82-5.79-.63-.61-.69-.97,0-1.57,.94-.81,1.73-1.79,2.67-2.6,1.07-.92,2.35-.99,3.38-.06,1.75,1.58,3.37,3.31,5.03,4.99,.46,.46,.64,1.06,.6,1.59Z"/>
  <path class="cls-8" d="M153.46,240.8c0,2.86,.02,5.27,0,7.68,0,.76,.23,1.85-.99,1.83-1.09-.02-.86-1.03-.88-1.74-.07-3.06-.13-6.11-.17-9.17,0-.74-.04-1.59,.88-1.86,.84-.24,1.21,.5,1.62,1.01,2.09,2.59,3.85,5.43,6.04,8.1,0-2.59,0-5.19,0-7.78,0-.65-.21-1.54,.8-1.59,1.12-.06,1.02,.89,1.03,1.62,.01,3.25,0,6.49-.03,9.74,0,.67,.06,1.45-.82,1.69-.87,.24-1.37-.27-1.82-.96-1.8-2.76-3.63-5.5-5.66-8.58Z"/>
  <path class="cls-8" d="M217.33,363.73c0-1.62,.05-3.24-.02-4.85-.04-1.04,.31-1.68,1.36-1.86,2.77-.46,5.53-.51,7.67,1.64,1.98,2,2.15,4.53,1.37,7.14-.84,2.79-3.08,4.47-6.15,4.48-4.43,0-4.36,.71-4.17-4.11,.03-.81,0-1.62,0-2.43-.02,0-.04,0-.06,0Z"/>
  <path class="cls-8" d="M191.82,61.79c1.32-1.06,2.71-1.63,4.32-1.44,.96,.11,1.69,.46,1.68,1.59,0,1.17-.71,1.37-1.72,1.43-3.67,.2-4.42,1.04-4.38,4.63,.02,1.99,.02,3.99,.04,5.98,.01,1.11-.23,2.06-1.55,2.08-1.24,.02-1.48-.86-1.49-1.91-.04-3.92-.12-7.84-.17-11.77-.01-1-.09-2.11,1.22-2.39,1.26-.26,1.75,.64,2.05,1.79Z"/>
  <path class="cls-8" d="M174.69,245.35c0-1.18-.01-2.37,0-3.55,0-.6,.34-1.42,.88-1.12,1.79,1.01,4.1-1.3,5.63,1,.28,.42,.6-.21,.88-.38,2.71-1.63,5.03-.46,5.22,2.68,.1,1.68,.07,3.37,.1,5.05,.01,.58,.01,1.2-.74,1.28-.85,.1-1.08-.55-1.1-1.2-.06-1.56-.02-3.12-.07-4.68-.03-.91,.06-2.11-1.36-1.93-1.21,.15-2.28,.71-2.25,2.23,.02,1.43,.04,2.87,.07,4.3,.02,.71-.17,1.29-.99,1.27-.73-.02-.83-.63-.85-1.22-.05-1.62-.06-3.24-.18-4.86-.06-.83,0-1.94-1.35-1.75-1.14,.16-1.95,.73-1.93,2.06,.03,1.37,.05,2.75,0,4.12-.03,.71,.04,1.68-1.05,1.63-1.01-.04-.79-.94-.81-1.59-.03-1.12,0-2.25,0-3.37-.04,0-.07,0-.11,0Z"/>
  <path class="cls-41" d="M243.11,245.46c0-1.18,0-2.37,0-3.55,0-.59,.26-1.5,.73-1.2,1.42,.9,2.8-.68,3.89,0,1.57,.96,2.76,.59,4.31,.02,1.66-.61,2.98,.42,3.47,2.21,.59,2.14,.15,4.34,.28,6.52,.03,.56-.34,.94-.95,.9-.6-.04-.85-.46-.86-1.02-.02-1.43,.05-2.87-.05-4.3-.07-1.02,.27-2.58-1.44-2.48-1.37,.08-2.42,.85-2.29,2.56,.1,1.3,.01,2.62,.04,3.93,.01,.6-.02,1.2-.73,1.29-.81,.1-1.08-.48-1.09-1.18-.03-1.5,.02-3-.06-4.49-.05-.92,.17-2.24-1.37-2.14-1.36,.09-2.08,.91-2.02,2.37,.06,1.43,0,2.87,0,4.3,0,.63-.22,1.15-.92,1.15-.71,0-.92-.5-.91-1.14,0-1.25,0-2.49,0-3.74,0,0-.02,0-.03,0Z"/>
  <path d="M230.32,65.31c0-2.93,0-5.86,0-8.79,0-1.07,.07-2.12,1.45-2.15,1.33-.03,1.59,.92,1.59,2.04,0,5.86,0,11.73,0,17.59,0,1.12-.3,2.06-1.6,2.06-1.41,0-1.44-1.09-1.43-2.14,0-2.87,0-5.74,0-8.61Z"/>
  <path class="cls-8" d="M217.39,309.25c0-1.68-.01-3.36,0-5.04,.01-1.14,.3-1.81,1.76-1.7,1.59,.12,3.21-.3,4.79,.31,1.83,.7,2.88,2.13,2.8,3.97-.08,1.94-1.35,2.81-3.07,3.22-.42,.1-.84,.21-1.27,.29-1.02,.19-2.43-.48-2.97,.37-.47,.74-.05,2.04-.06,3.1,0,.72,.17,1.71-.87,1.76-1.24,.06-.98-1.04-1-1.79-.04-1.49-.01-2.98-.01-4.48-.04,0-.07,0-.11,0Z"/>
  <path class="cls-8" d="M44.33,427.69c0-1.68-.01-3.36,0-5.04,.01-1.14,.3-1.81,1.76-1.7,1.59,.12,3.21-.3,4.79,.31,1.83,.7,2.88,2.13,2.8,3.97-.08,1.94-1.35,2.81-3.07,3.22-.42,.1-.84,.21-1.27,.29-1.02,.19-2.43-.48-2.97,.37-.47,.74-.05,2.04-.06,3.1,0,.72,.17,1.71-.87,1.76-1.24,.06-.98-1.04-1-1.79-.04-1.49-.01-2.98-.01-4.48-.04,0-.07,0-.11,0Z"/>
  <path class="cls-8" d="M194.92,243.86c0-1.62-.01-3.24,0-4.86,.01-1.14,.29-1.82,1.76-1.71,1.59,.12,3.21-.3,4.79,.31,1.83,.7,2.88,2.12,2.81,3.96-.08,1.94-1.34,2.81-3.06,3.22-.42,.1-.84,.21-1.27,.29-1.02,.19-2.43-.48-2.97,.36-.47,.74-.05,2.04-.06,3.09,0,.72,.17,1.71-.87,1.77-1.24,.07-.99-1.03-1-1.79-.04-1.55-.01-3.11-.01-4.66-.04,0-.07,0-.11,0Z"/>
  <path class="cls-8" d="M269.27,340.29c1.22,2,2.55,2.38,4.73,1.57,.68-.25,1.47-.81,1.87,.24,.37,.97-.51,1.26-1.18,1.55-2.44,1.02-5.28,.38-6.6-1.46-1.31-1.84-1.15-4.33,.38-6.02,1.36-1.51,3.12-1.85,4.94-1.36,1.75,.47,2.76,1.81,3.14,3.6,.27,1.27-.12,1.91-1.48,1.89-1.87-.03-3.73,0-5.81,0Z"/>
  <path class="cls-41" d="M266.75,366.53c1.28,2,2.62,2.38,4.8,1.56,.7-.26,1.46-.78,1.84,.29,.3,.86-.47,1.2-1.09,1.48-2.79,1.26-6.1,.2-7.2-2.28-1.08-2.44,.09-5.29,2.59-6.34,2.85-1.19,6.07,.61,6.45,3.63,.13,1.04-.2,1.69-1.39,1.68-1.92-.02-3.84,0-6,0Z"/>
  <path class="cls-8" d="M304.18,364.42c-3.39,1.66-6.06,.77-6.66-2.13-.33-1.58,.1-3,1.34-4.06,1.34-1.15,2.9-1.25,4.57-.88,1.98,.43,2.81,1.47,2.64,3.61-.21,2.6-.05,5.24-.33,7.85-.07,.65-.1,1.38-.9,1.38-.89,0-1.03-.75-.97-1.5,.1-1.37,.2-2.74,.31-4.28Z"/>
  <path class="cls-8" d="M305,331.25c3.21-.03,4.74,2.47,3.21,5.38-.28,.54-.17,.7,.18,1.03,1.33,1.24,1.41,2.73,.62,4.25-.83,1.59-3.12,2.49-5.21,2.12-1.68-.3-2.74-1.35-3.26-2.97-.19-.62-.1-1.18,.52-1.41,.64-.24,.96,.2,1.25,.78,.96,1.84,2.17,2.24,3.93,1.47,.8-.36,1.36-.83,1.36-1.79,0-.94-.68-1.26-1.36-1.58-1.67-.79-1.75-1.15-.44-2.24,.76-.63,1.84-1.17,.96-2.37-.87-1.18-2.04-.9-3.17-.38-.61,.28-.9,.83-1.17,1.4-.24,.52-.55,1.08-1.25,.74-.72-.35-.62-.94-.38-1.59,.65-1.71,2.23-2.8,4.2-2.82Z"/>
  <path class="cls-8" d="M302.46,302.76c3.11,0,4.7,2.58,3.19,5.3-.32,.58-.25,.77,.17,1.17,1.31,1.26,1.35,2.76,.53,4.26-.85,1.56-3.22,2.44-5.25,2.03-1.68-.34-2.72-1.41-3.2-3.04-.18-.63-.04-1.17,.61-1.35,.67-.18,.92,.31,1.2,.87,.88,1.76,2.24,2.19,3.98,1.36,.72-.34,1.24-.79,1.28-1.66,.06-1.04-.67-1.46-1.44-1.7-1.54-.48-1.68-1.17-.44-2.15,.89-.71,2.01-1.33,.9-2.66-.71-.86-2.6-.72-3.54,.22-.17,.17-.31,.38-.44,.59-.36,.59-.51,1.65-1.52,1.1-1.05-.56-.39-1.42-.02-2.09,.84-1.57,2.23-2.26,3.99-2.26Z"/>
  <path class="cls-41" d="M255.69,311.81c1.33,2.01,2.62,2.37,4.81,1.56,.68-.25,1.47-.8,1.82,.31,.3,.97-.56,1.24-1.24,1.51-2.96,1.19-6.07,.09-7.1-2.49-.96-2.41,.21-5.15,2.63-6.18,2.81-1.2,5.88,.46,6.39,3.43,.21,1.23-.11,1.92-1.51,1.88-1.85-.05-3.7-.01-5.81-.01Z"/>
  <path class="cls-41" d="M82.6,430.24c1.38,2.02,2.66,2.37,4.86,1.55,.69-.26,1.46-.77,1.81,.33,.28,.87-.48,1.17-1.09,1.44-2.81,1.26-6.12,.2-7.21-2.28-1.07-2.42,.11-5.3,2.6-6.35,2.82-1.19,5.88,.49,6.38,3.46,.21,1.25-.14,1.9-1.53,1.86-1.85-.05-3.69-.01-5.82-.01Z"/>
  <path class="cls-8" d="M296.6,311.2c-.12,.76-.6,1.1-1.32,.97-1.38-.24-1.53,.5-1.48,1.6,.03,.68,.28,1.7-.83,1.75-1.26,.06-1.1-1.03-1.01-1.78,.17-1.37-.4-1.63-1.66-1.61-1.23,.02-2.85,.67-3.6-.76-.75-1.44,.95-2.11,1.54-3.12,.97-1.66,2.11-3.23,3.13-4.87,.36-.57,.73-1.05,1.46-.91,.77,.15,.85,.8,.88,1.45,.09,1.68,.28,3.37,.22,5.04-.04,1.07,.18,1.51,1.27,1.36,.67-.09,1.25,.05,1.38,.87Z"/>
  <path class="cls-8" d="M231.43,366.54c1.04,1.85,2.48,2.36,4.68,1.76,.65-.18,1.38-.67,1.75,.23,.4,.98-.47,1.36-1.18,1.53-2.2,.51-4.37,.44-6.11-1.22-1.34-1.27-1.6-2.89-.98-4.65,.72-2.01,2.72-3.4,4.73-3.26,2.09,.15,4.18,2.05,4.55,4.09,.19,1.06-.22,1.52-1.27,1.51-1.99-.01-3.98,0-6.17,0Z"/>
  <path class="cls-8" d="M213.44,246.61c1.18,1.88,2.58,2.36,4.78,1.75,.66-.18,1.39-.64,1.74,.26,.38,.99-.51,1.34-1.2,1.51-2.13,.53-4.24,.43-5.98-1.08-1.33-1.16-1.69-2.7-1.21-4.43,.59-2.12,2.56-3.66,4.66-3.61,2.09,.05,4.26,1.89,4.67,3.95,.22,1.08-.08,1.69-1.3,1.67-1.99-.03-3.99,0-6.19,0Z"/>
  <path class="cls-41" d="M317.55,344.06c-.99-.06-1.1-.77-.97-1.47,.33-1.75-.49-2.06-2.03-1.96-1.1,.07-2.55,.58-3.23-.72-.72-1.38,.82-2.02,1.39-2.96,1.04-1.69,2.16-3.34,3.23-5.01,.38-.6,.78-1.2,1.61-.93,.69,.23,.82,.87,.83,1.52,.04,1.68,.18,3.36,.1,5.04-.05,1,.2,1.37,1.2,1.26,.7-.07,1.49-.07,1.45,.94-.03,.8-.67,1.02-1.35,.9-1.49-.27-1.4,.66-1.37,1.65,.02,.7,.25,1.57-.84,1.76Z"/>
  <path class="cls-8" d="M62.44,430.74c0,.56,0,1.12,0,1.68,.01,1.34-.27,2.26-1.73,1.04-.57-.48-.76,.11-1.09,.24-1.58,.6-3.05,.45-4.36-.61-1.37-1.11-1.6-2.66-1.18-4.24,.38-1.45,1.18-2.73,2.42-3.66,1.16-.87,2.37-1.22,3.81-.66,1.43,.56,1.91,1.63,1.96,3.05,.04,1.05,.15,2.1,.23,3.15-.02,0-.04,0-.06,0Z"/>
  <path class="cls-8" d="M235.5,312.3c0,.56,0,1.12,0,1.68,.02,1.33-.26,2.28-1.73,1.06-.58-.48-.77,.1-1.09,.23-1.58,.61-3.05,.45-4.36-.6-1.38-1.11-1.6-2.66-1.19-4.23,.38-1.45,1.18-2.73,2.42-3.67,1.15-.87,2.37-1.23,3.81-.67,1.43,.56,1.92,1.62,1.97,3.05,.04,1.05,.15,2.1,.23,3.15-.02,0-.04,0-.06,0Z"/>
  <path class="cls-41" d="M223.66,68.21c0-2.06,0-4.12,0-6.18,0-1.12,.29-2.05,1.61-2.04,1.25,.01,1.44,.93,1.43,1.97-.03,4.06-.06,8.11-.05,12.17,0,1.08-.3,1.89-1.5,1.94-1.25,.05-1.53-.78-1.52-1.86,.03-2,0-3.99,0-5.99,0,0,.02,0,.03,0Z"/>
  <path class="cls-8" d="M253.37,365.99c0,1.17,0,1.79,0,2.42,0,1.26,.17,2.74-1.78,1.28-.44-.33-.66,.15-.97,.27-1.65,.66-3.2,.48-4.52-.71-1.37-1.23-1.44-2.85-.94-4.48,.31-1.01,.86-1.94,1.63-2.69,1.21-1.18,2.55-1.94,4.35-1.32,1.74,.6,2.11,1.93,2.13,3.54,0,.75,.08,1.49,.09,1.69Z"/>
  <path class="cls-8" d="M221.27,340.65c1.06-2.68,2.06-5.22,3.07-7.75,.16-.4,.3-.82,.51-1.2,.29-.51,.75-.63,1.27-.37,.46,.24,.57,.65,.39,1.11-1.44,3.64-2.85,7.29-4.35,10.91-.47,1.13-1.34,.96-1.77,.02-1.63-3.56-2.97-7.24-4.21-10.95-.16-.49-.12-1.02,.53-1.2,.82-.24,1.08,.29,1.31,.93,.89,2.45,1.79,4.9,2.7,7.35,.12,.34,.3,.65,.54,1.16Z"/>
  <path class="cls-8" d="M278.86,360.54c1.31,.06,2.56,.5,3.54,1.58,.41,.45,.73,.91,.26,1.46-.49,.58-1.04,.34-1.46-.08-.75-.75-1.61-1.12-2.67-1.09-.57,.02-.95,.2-1.02,.84-.06,.61,.38,.73,.79,.84,.9,.23,1.82,.36,2.71,.63,1.16,.36,1.93,1.18,2.02,2.42,.09,1.21-.69,1.93-1.69,2.45-2.55,1.31-5.43,.53-5.93-1.63-.12-.52-.36-1.17,.2-1.56,.78-.54,1.21-.1,1.53,.67,.6,1.43,2.4,1.85,3.57,.83,.63-.55,.58-1.11-.24-1.4-.81-.28-1.66-.47-2.51-.65-1.62-.35-2.58-1.2-2.3-2.99,.28-1.74,1.45-2.34,3.18-2.32Z"/>
  <path class="cls-8" d="M281.62,334.31c.98,.04,2.25,.44,3.25,1.51,.45,.48,.9,.96,.25,1.58-.55,.53-1.04,.22-1.46-.2-.75-.76-1.64-1.06-2.69-1.03-.51,.01-.82,.23-.93,.72-.12,.57,.22,.79,.69,.91,.9,.23,1.81,.39,2.7,.66,1.15,.35,1.97,1.04,2.07,2.35,.11,1.34-.66,2.05-1.75,2.57-2.77,1.31-5.42,.41-5.86-1.96-.11-.61-.19-1.17,.46-1.41,.78-.29,1.07,.27,1.33,.91,.57,1.37,2.59,1.73,3.63,.66,.64-.66,.32-1.14-.42-1.37-.82-.26-1.68-.43-2.52-.63-1.52-.36-2.47-1.2-2.23-2.89,.22-1.57,1.3-2.37,3.48-2.37Z"/>
  <path class="cls-8" d="M95.18,424.27c.73,.03,2,.44,3,1.49,.44,.46,.92,.93,.28,1.58-.54,.54-1.04,.25-1.46-.17-.6-.6-1.29-.96-2.13-1.03-.62-.05-1.34-.14-1.54,.66-.24,.94,.64,.94,1.16,1.12,.76,.25,1.59,.28,2.35,.53,1.14,.37,1.93,1.14,2.02,2.41,.09,1.24-.67,1.92-1.68,2.43-2.6,1.31-5.28,.57-5.91-1.62-.2-.7-.42-1.42,.47-1.72,.77-.26,1.11,.29,1.24,1,.15,.77,.62,1.18,1.43,1.19,.9,.02,1.8-.11,2.4-.78,.57-.65-.05-1.01-.6-1.18-.82-.26-1.67-.44-2.51-.64-1.53-.36-2.49-1.21-2.22-2.88,.27-1.67,1.37-2.42,3.72-2.37Z"/>
  <path class="cls-8" d="M268.14,305.83c.83,.03,2.1,.44,3.1,1.49,.44,.46,.93,.93,.29,1.57-.54,.54-1.04,.26-1.46-.16-.75-.74-1.63-1.09-2.68-1.05-.58,.02-.95,.26-1.02,.85-.08,.61,.44,.7,.83,.81,.89,.24,1.82,.37,2.7,.65,1.15,.37,1.93,1.14,2.03,2.41,.09,1.24-.66,1.93-1.67,2.44-2.67,1.35-5.42,.52-5.98-1.79-.16-.67-.24-1.31,.52-1.55,.77-.25,1.11,.27,1.25,.99,.15,.77,.61,1.18,1.43,1.2,.9,.02,1.8-.11,2.4-.78,.58-.64-.03-1.01-.59-1.19-.82-.26-1.67-.44-2.51-.64-1.52-.36-2.5-1.2-2.23-2.88,.26-1.67,1.36-2.43,3.61-2.38Z"/>
  <path class="cls-8" d="M172.78,245.18c-.01,2.75-2,4.94-4.5,4.95-2.28,.01-4.16-2.14-4.13-4.83,.03-2.46,1.85-4.96,4.16-4.75,2.73,.25,4.48,1.86,4.47,4.63Z"/>
  <path class="cls-8" d="M250.99,334.31c2.69,.05,4.51,1.95,4.44,4.65-.07,2.68-2.18,4.91-4.62,4.88-2.28-.02-3.98-2.18-4.02-4.92-.03-2.23,1.87-5.15,4.2-4.61Z"/>
  <path class="cls-8" d="M236.69,240.61c2.68,.05,4.54,1.98,4.46,4.65-.08,2.68-2.19,4.9-4.64,4.88-2.28-.02-4.06-2.19-4.03-4.91,.03-2.59,2.04-5.14,4.2-4.61Z"/>
  <path class="cls-15" d="M222.76,245.32c0-1.25-.02-2.5,0-3.74,.02-.8,.8-1.35,1.18-.82,.87,1.22,1.49,.37,2.25,.07,2.05-.81,4.05,.31,4.41,2.63,.3,1.91,.17,3.86-.05,5.78-.07,.57-.23,1.15-1,1.1-.77-.06-.83-.66-.82-1.23,.03-1.5,.17-2.99,.11-4.48-.04-1.08-.34-2.29-1.79-2.1-1.23,.17-2.44,.64-2.43,2.28,0,1.44,0,2.87,0,4.31,0,.6-.13,1.18-.85,1.23-.89,.05-.95-.62-.95-1.28,0-1.25,0-2.49,0-3.74-.02,0-.04,0-.07,0Z"/>
  <path class="cls-8" d="M231.88,339.07c.09-1.37,.74-2.95,2.24-4.07,1.7-1.26,4.13-.76,5.23,1.02,.25,.4,.4,.78,.02,1.18-.41,.43-.84,.51-1.3,.1-.78-.7-1.49-1.65-2.72-.81-1.25,.86-1.71,2.1-1.62,3.56,.09,1.35,1,1.96,2.22,2.11,1.12,.13,2.19,.02,2.26-1.5,.03-.64,.45-.88,1-.83,.6,.05,.83,.49,.83,1.05,.02,1.34-.67,2.23-1.82,2.8-2.99,1.47-6.41-.77-6.35-4.61Z"/>
  <path class="cls-15" d="M243.06,357.18c.84-.04,1.54,.12,1.66,.97,.13,.91-.52,.99-1.21,.91-.73-.08-.76,.41-.84,.93-.09,.6,0,.95,.72,.96,.5,0,.8,.37,.8,.85,0,.57-.31,.99-.91,.96-.87-.04-.82,.45-.79,1.07,.1,1.68,.17,3.36,.24,5.05,.03,.63,.11,1.34-.8,1.4-.87,.06-.99-.59-1.03-1.25-.1-1.49-.2-2.99-.28-4.48-.04-.77,.23-1.63-.76-2.08-.17-.08-.33-.59-.3-.62,1.49-1.06,.98-3.21,2.36-4.31,.35-.27,.77-.42,1.13-.36Z"/>
  <path class="cls-15" d="M70.37,425.23c.61-.76,1.53-1.32,1.23-2.58-.14-.6,.32-1.07,1.03-1.01,.64,.06,.78,.52,.79,1.07,.01,.75-.3,1.51,.99,1.74,.78,.14,.74,1.35-.06,1.51-1.25,.25-.98,1.02-.99,1.77-.01,.75,.03,1.5-.01,2.25-.05,1,.04,1.85,1.29,2.06,.58,.1,1.09,.45,.81,1.17-.23,.6-.67,.69-1.36,.55-1.64-.34-2.55-1.18-2.55-2.9,0-1-.15-2.01-.02-2.99,.13-1.03-.33-1.58-1.12-2.02-.16-.2-.17-.4-.02-.61Z"/>
  <path class="cls-15" d="M243.44,306.79c.61-.76,1.53-1.32,1.23-2.58-.14-.6,.32-1.07,1.03-1.01,.64,.06,.78,.52,.79,1.07,.01,.75-.3,1.51,.99,1.74,.78,.14,.74,1.35-.06,1.51-1.25,.25-.98,1.02-.99,1.77-.01,.75,.03,1.5-.01,2.25-.05,1,.04,1.85,1.29,2.06,.58,.1,1.09,.45,.81,1.17-.23,.6-.67,.69-1.36,.55-1.64-.34-2.55-1.18-2.55-2.9,0-1-.15-2.01-.02-2.99,.13-1.03-.33-1.58-1.12-2.02-.16-.2-.17-.4-.02-.61Z"/>
  <path class="cls-15" d="M246.07,342.85c-.13,.73-.49,1.13-1.15,1.02-1.52-.25-2.76-.88-2.88-2.64-.08-1.18-.02-2.37-.06-3.55-.02-.46,.22-1.03-.34-1.35-1.11-.64-1.14-1.16,.03-1.81,.64-.35,.3-1.14,.38-1.73,.08-.61,.28-1.11,1-1.1,.78,.01,.93,.59,.84,1.17-.14,.92,0,1.39,1.07,1.65,.67,.16,.64,1.32-.02,1.44-1.42,.26-1.09,1.19-1.11,2.05-.01,.62,.02,1.25,0,1.87-.05,1.05-.03,2.03,1.34,2.21,.48,.06,.74,.4,.9,.76Z"/>
  <path class="cls-15" d="M261.25,357.93c.77,.14,.76,.79,.7,1.42-.07,.66-.1,1.07,.8,1.29,.95,.24,1.03,1.39,.16,1.58-1.35,.29-1.04,1.08-1.06,1.88-.02,.75,0,1.49,0,2.24,0,.91,.05,1.73,1.23,1.94,.64,.11,1.25,.5,.91,1.29-.31,.72-.94,.53-1.58,.4-1.52-.31-2.24-1.25-2.35-2.71-.08-1.05-.06-2.11-.05-3.17,0-.75,.08-1.45-.82-1.85-.42-.19-.48-.91-.04-1.09,1.08-.46,.9-1.34,.98-2.18,.06-.61,.32-1.08,1.13-1.04Z"/>
  <path class="cls-29" d="M261.53,339.08c0-1.24-.02-2.49,0-3.73,.02-.75,.82-1.42,1.11-.94,.9,1.49,1.8,.3,2.69,.29,.71,0,1.62-.24,1.72,.88,.09,1.04-.72,.95-1.41,.98-1.57,.08-2.37,.82-2.27,2.48,.08,1.3,.02,2.61,.01,3.91,0,.53-.13,1.02-.77,1.07-.72,.06-1.01-.42-1.02-1.04-.03-1.3,0-2.61,0-3.91-.02,0-.04,0-.06,0Z"/>
  <path class="cls-29" d="M205.72,245.33c0-1.24-.07-2.49,.02-3.73,.07-.98,.87-1.45,1.46-.67,.57,.75,.89,.67,1.49,.29,.51-.33,1.08-.24,1.63-.22,.58,.03,.93,.33,.93,.93,0,.61-.34,.81-.92,.93-2.77,.54-2.77,.56-2.77,3.28,0,.99,0,1.99,0,2.98,0,.58-.06,1.17-.83,1.21-.73,.03-.96-.48-.97-1.1-.02-1.3,0-2.61,0-3.91-.02,0-.04,0-.06,0Z"/>
  <path class="cls-29" d="M70.37,425.23c0,.2,.02,.41,.02,.61-.41,.24-.66,.62-1.24,.69-2.59,.33-2.6,.38-2.6,3.02,0,1.12,.01,2.25-.02,3.37-.01,.63-.28,1.11-1.01,1.07-.65-.04-.78-.53-.79-1.07-.03-2.56-.06-5.11-.06-7.67,0-.54,.47-1.27,.81-.93,1.23,1.25,2.52,.15,3.74,.34,.4,.06,.76,.37,1.14,.56Z"/>
  <path class="cls-29" d="M243.44,306.79c0,.2,.02,.41,.02,.61-.41,.24-.66,.62-1.24,.69-2.59,.33-2.6,.38-2.6,3.02,0,1.12,.01,2.25-.02,3.37-.01,.63-.28,1.11-1.01,1.07-.65-.04-.78-.53-.79-1.07-.03-2.56-.06-5.11-.06-7.67,0-.54,.47-1.27,.81-.93,1.23,1.25,2.52,.15,3.74,.34,.4,.06,.76,.37,1.14,.56Z"/>
  <path class="cls-9" d="M75.5,32.93q-1.89,2.04-4.02-.21c0,1.36,0,2.43,0,3.49,0,.39-.09,.83-.54,.83-.49,0-.5-.47-.5-.84-.01-1.55-.02-3.11-.01-4.66,0-.29-.11-.65,.3-.77,.33-.1,.59,.04,.81,.3,.66,.8,1.34,1.6,2.04,2.44,.71-.88,1.33-1.66,1.96-2.42,.32-.39,.88-.61,.92,.04,.13,1.98,.29,3.98-.32,5.93-.89-1.27-.19-2.71-.65-4.15Z"/>
  <path class="cls-6" d="M251.72,310.81c0,1.24,0,2.48,0,3.72,0,.55-.22,.99-.83,1.03-.71,.04-1-.41-1-1.05,0-2.54,.02-5.08,.04-7.62,0-.56,.25-.98,.85-1.03,.72-.06,.99,.43,1,1.05,.02,1.3,0,2.6,0,3.9-.02,0-.04,0-.06,0Z"/>
  <path class="cls-6" d="M78.67,429.13c0,1.24,0,2.48,0,3.72,0,.62-.19,1.14-.91,1.14-.71,0-.94-.51-.94-1.13,0-2.48,.02-4.96,.04-7.44,0-.62,.22-1.13,.93-1.14,.71,0,.93,.51,.93,1.13,.01,1.24,0,2.48,0,3.72-.02,0-.04,0-.06,0Z"/>
  <path class="cls-44" d="M229.94,339.2c0,1.24,.02,2.48-.01,3.72-.02,.59-.25,1.13-.97,1.12-.74-.01-.89-.56-.88-1.16,.01-2.48,.04-4.96,.05-7.44,0-.64,.2-1.14,.92-1.11,.68,.03,.93,.53,.93,1.15,0,1.24,0,2.48,0,3.72-.01,0-.03,0-.04,0Z"/>
  <path class="cls-6" d="M257.41,339.1c0-1.24-.01-2.48,0-3.72,0-.64,.31-1.09,1.01-1.04,.61,.04,.83,.5,.83,1.04,0,2.54-.03,5.08-.05,7.62,0,.55-.2,1-.81,1.04-.7,.05-1.01-.39-1.02-1.03-.02-1.3,0-2.6,0-3.91,.01,0,.03,0,.04,0Z"/>
  <path class="cls-3" d="M255.7,365.29c0-1.18-.01-2.35,0-3.53,0-.58,.08-1.16,.85-1.2,.73-.03,1.02,.5,1.02,1.08,0,2.54-.05,5.08-.11,7.62-.01,.5-.19,1-.85,1.02-.73,.01-.98-.49-1-1.08-.04-1.3-.01-2.6-.01-3.91,.03,0,.06,0,.1,0Z"/>
  <path class="cls-5" d="M43.88,33.99c-.02,1.92-.85,3.1-2.2,3.13-1.4,.02-2.35-1.28-2.36-3.21,0-2,.89-3.22,2.33-3.18,1.47,.04,2.25,1.18,2.23,3.26Z"/>
  <path class="cls-17" d="M343.47,31.84c-.84-.46-1.08-.88-.14-1.6,2.36-1.81,6.27-1.81,8.48,.1,.25,.22,.73,.37,.49,.83-.3,.56-.75,.79-1.34,.33-1.82-.54-3.64-1.03-5.53-.33-.65,.25-1.27,.56-1.96,.68Z"/>
  <path class="cls-23" d="M367.13,35.3c-2.98,.74-6.06,.55-8.99,.16-1.78-.24-.48-2.56-.76-3.91-.14-.7-.37-1.85,.85-1.89,2.74-.1,5.48-.06,8.22-.02,.93,.01,.99,.76,1,1.48-.07,.39-.05,.86-.66,.79-.79-.78-1.73-1.09-2.85-1.05-1.73,.07-3.46-.05-5.18,.07-1.05,1.04-.51,2.25-.36,3.41,.12,.12,.25,.22,.41,.3,2.46,.18,4.92,.08,7.38,.05,.19-.03,.39-.04,.59-.02,.29,.11,.55,.24,.35,.62Z"/>
  <path class="cls-3" d="M69.56,36.49c.07,.3-.03,.49-.31,.58-.28,.09-.46-.05-.63-.25q-1.92-2.18-3.43-.07c-.16,.22-.29,.4-.57,.33-.4-.09-.43-.35-.3-.7,.66-1.73,1.29-3.48,1.95-5.21,.22-.59,.74-.61,.96-.14,.83,1.79,1.56,3.63,2.33,5.45Z"/>
  <path d="M337.88,32.79c0,1.19-.01,2.37,0,3.56,0,.54-.17,.77-.75,.77-.57,0-.76-.21-.76-.76,.02-2.5,.02-5,0-7.49,0-.55,.17-.77,.75-.77,.57,0,.77,.21,.76,.76-.02,1.31,0,2.62,0,3.93Z"/>
  <path class="cls-9" d="M57.99,35.97c1.35,.49,2.59-.16,4.01,.76-1.77,.59-3.27,.59-4.67,.15-.73-.22-.52-1.04-.01-1.54,.66-.66,1.38-1.26,2.03-1.93,.42-.43,1.02-.98,.29-1.53-.59-.44-1.19-.05-1.53,.55-.19,.34-.14,1.02-.79,.66-.49-.27-.24-.77-.04-1.16,.4-.79,1.06-1.17,1.95-1.2,.68-.02,1.18,.26,1.52,.87,.49,.87,.13,1.59-.44,2.2-.68,.72-1.43,1.36-2.31,2.18Z"/>
  <path class="cls-37" d="M47.86,34.43c-1.31,.59-2.32,.63-3.01-.47-.55-.88-.48-1.81,.24-2.56,.83-.86,1.82-.82,2.9-.4,.57,.22,.78,.48,.76,1.05-.03,1.36-.03,2.73-.07,4.09-.01,.38,.19,.99-.49,.97-.65-.02-.49-.58-.47-.99,.03-.48,.07-.97,.13-1.69Z"/>
  <path class="cls-37" d="M53.8,30.73c.48,0,.73-.03,.97,0,.38,.05,1-.2,.98,.48-.02,.45-.53,.41-.89,.43-.19,0-.37,0-.56,0-.52,.04-1.21-.2-1.31,.64-.12,1.02,.68,.59,1.14,.7,1.4,.32,1.98,1.25,1.75,2.6-.22,1.28-1.2,1.6-2.38,1.56-.65-.02-1.03-.38-1.33-.87-.19-.32-.4-.72,0-.98,.29-.18,.54,.04,.73,.35,.43,.73,.99,.87,1.69,.31,.46-.37,.57-.78,.3-1.31-.39-.77-1.01-.85-1.72-.54-1.33,.57-1.41,.06-1.23-1.15,.19-1.33-.01-2.78,1.85-2.23Z"/>
  <path class="cls-3" d="M346.08,32.58c-.74,.1-1.58,1.06-2.14-.26,.25-.81,.89-1.16,1.63-1.4,1.84-.6,3.58-.6,5.07,.87,.55,.41,.32,.82,0,1.23-1.59,.57-3-.7-4.55-.43Z"/>
  <path d="M335.63,34.16c0,.69-.02,1.38,0,2.06,.03,.6-.1,.92-.81,.9-.62-.02-.7-.33-.7-.82,.01-1.44,.02-2.87,0-4.31-.01-.6,.1-.91,.81-.9,.81,.01,.69,.53,.69,1.01,0,.69,0,1.37,0,2.06Z"/>
  <path class="cls-16" d="M235.56,357.53c.03,.66-1.67,2.49-2.29,2.44-.5-.03-.79-.35-.88-.81-.12-.61,1.56-2.53,2.2-2.52,.55,0,.92,.29,.98,.89Z"/>
  <path class="cls-33" d="M215.3,240.03c-.6-.09-.96-.57-.76-1.03,.44-1,1.04-2,2.2-2.27,.47-.11,.91,.29,.88,.92-.03,.69-1.71,2.42-2.32,2.37Z"/>
  <path class="cls-41" d="M331.9,35.21c0-.43,0-.86,0-1.29,0-.68,.54-.68,.89-.54,1.23,.47,.42,1.55,.55,2.34,.07,.44,.5,1.32-.58,1.38-.43,.02-.89,.06-.87-.6,.01-.43,0-.86,0-1.29Z"/>
  <path class="cls-24" d="M349.53,34.12c-1.15,.62-2.43-.37-3.59,.26-.05,.03-.51-.42-.5-.63,.03-.59,.64-.64,1.04-.86,1.71-.78,2.76-.36,3.05,1.23Z"/>
  <path class="cls-23" d="M257.7,358.15c-.03,.73-.32,1.18-.96,1.27-.75,.1-1.19-.32-1.24-1.05-.05-.63,.27-1.09,.92-1.18,.78-.11,1.09,.4,1.28,.97Z"/>
  <path class="cls-33" d="M250.63,304.7c-.52-.06-.83-.47-.83-1.09,0-.7,.32-1.19,1.09-1.14,.77,.05,1.06,.63,1,1.27-.05,.57-.45,1-1.26,.96Z"/>
  <path class="cls-33" d="M78.87,422.04c-.13,.66-.44,1.15-1.2,1.09-.66-.05-.94-.51-.93-1.13,0-.62,.28-1.06,.95-1.11,.78-.05,1.03,.49,1.18,1.14Z"/>
  <path class="cls-24" d="M291.31,369.2c-.17,.58-.4,1.1-1.09,1.09-.8-.02-1.07-.56-1.01-1.26,.05-.63,.42-1.04,1.11-.98,.68,.06,.87,.6,1,1.15Z"/>
  <path class="cls-24" d="M290.13,362.8c-.63-.06-.94-.44-.95-1.09-.01-.64,.25-1.11,.92-1.14,.78-.04,1.13,.5,1.11,1.17-.02,.58-.35,1.05-1.08,1.06Z"/>
  <path class="cls-33" d="M258.35,330.94c.75,.06,1.07,.59,1.04,1.24-.03,.57-.4,1.03-1.08,1.01-.78-.02-1.05-.54-1.02-1.22,.03-.62,.37-1.01,1.06-1.02Z"/>
  <path class="cls-33" d="M229.01,333.21c-.82-.12-1.18-.63-1.1-1.29,.07-.55,.43-1.03,1.12-.98,.78,.06,1.03,.59,.99,1.27-.04,.66-.48,.93-1.01,1Z"/>
  <path class="cls-24" d="M280.21,314.29c-.04,.76-.29,1.22-.97,1.28-.71,.06-1.06-.44-1.1-1-.05-.66,.26-1.22,1.06-1.23,.71,0,.89,.53,1.02,.96Z"/>
  <path class="cls-5" d="M280.19,307.01c-.1,.61-.37,1.05-1.06,1.06-.7,0-1.02-.5-1.04-1.07-.01-.68,.35-1.22,1.13-1.15,.65,.06,.92,.54,.96,1.17Z"/>
  <path class="cls-44" d="M293.73,342.88c-.02,.62-.25,1.09-.92,1.16-.69,.08-1.04-.37-1.09-.97-.06-.67,.2-1.24,.99-1.25,.68-.01,.94,.45,1.02,1.06Z"/>
  <path class="cls-17" d="M292.66,334.31c.64,.05,1,.42,1.03,1.05,.04,.72-.29,1.2-1.06,1.18-.69-.01-.95-.52-.94-1.12,0-.6,.29-1.05,.97-1.12Z"/>
  <path class="cls-41" d="M331.13,36.02c-.04,.42,.28,1.14-.79,1.1-.93-.03-.68-.66-.69-1.15,0-.49-.23-1.11,.7-1.14,.88-.02,.81,.5,.78,1.18Z"/>
  <path class="cls-14" d="M350.64,31.78c-1.63-.98-3.35-1.26-5.18-.63-.37,.18-.47,0-.44-.34,2.1-.86,4.12-.91,5.94,.68-.11,.1-.22,.19-.33,.29Z"/>
  <path class="cls-46" d="M349.53,34.12c-.45-1.82-1.83-1.32-3.05-1.23-.14-.1-.27-.2-.41-.31,1.01-.65,2.04-.49,3.06-.04,.48,.21,.89,.66,1.49,.47-.37,.37-.73,.73-1.1,1.1Z"/>
  <path class="cls-41" d="M328.15,35.62c.67-.08,.73,.27,.76,.76,.04,.74-.4,.73-.92,.73-.67,0-.56-.46-.59-.87-.03-.63,.34-.69,.75-.62Z"/>
  <path class="cls-33" d="M367.11,31.81c.01-.28,.07-.55,.35-.69,.84,.99,.84,1.99,.04,3-.78,.08-.43-.51-.51-.85,.03-.49,.03-.98,.11-1.46Z"/>
  <path class="cls-35" d="M348.43,34.99c-.4,.47-.53,1.21-1.28,.68-.19-.13-.45-.5-.41-.56,.4-.57,.94-.42,1.68-.11Z"/>
  <path class="cls-28" d="M367.4,33.21c.09,.3-.31,.65,.11,.91-.16,.38,.13,.9-.37,1.18-.14-.15-.28-.3-.42-.45-.48-.84-.56-1.52,.69-1.63Z"/>
  <path class="cls-31" d="M345.02,30.82c.15,.11,.29,.23,.44,.34-.51,.39-1.02,.78-1.52,1.16-.15-.16-.31-.32-.46-.48,.52-.34,1.03-.68,1.55-1.02Z"/>
  <path class="cls-30" d="M50.91,36.54c-.05,.4-.22,.56-.5,.57-.25,.01-.51-.02-.57-.33-.08-.42,.21-.58,.53-.57,.2,.01,.39,.23,.54,.32Z"/>
  <path class="cls-32" d="M50.86,32.96c-.05,.29-.27,.39-.52,.4-.24,0-.5-.05-.51-.38,0-.39,.23-.54,.57-.5,.25,.03,.44,.19,.45,.48Z"/>
  <path d="M339.8,740.03c-.17-.78-.77-1.38-1.33-1.92-1.12-1.09-.97-2,.15-2.92,.24-.2,.44-.44,.66-.67,2.18-2.21,2.19-2.23,4.63-.35,.61,.47,1.07,.87,1.95,.43,.82-.4,.93-.95,1.07-1.73,.17-.98-.21-2.47,.96-2.78,1.6-.42,3.38-.44,4.98,.06,.73,.23,.55,1.42,.67,2.18,.41,2.62,1.41,3.09,3.46,1.56q2.04-1.53,3.91,.32c.4,.4,.77,.82,1.19,1.19,.93,.81,.99,1.59,.11,2.52-.55,.58-1.34,1.29-1.35,1.95-.02,1.05,.35,2.21,1.9,2.23,1,.02,2.47-.14,2.78,.88,.48,1.57,.52,3.4-.04,4.97-.36,1.01-1.79,.55-2.71,.78-1.97,.49-2.43,1.55-1.27,3.19,.54,.76,1.89,1.4,1.28,2.45-.86,1.49-2.08,2.89-3.71,3.58-.86,.37-1.46-.74-2.14-1.21-.71-.49-1.23-1.06-2.31-.58-1.01,.45-.92,1.23-1.02,1.97-.37,2.68-.34,2.68-3.04,2.68-.44,0-.88-.05-1.31,0-1.37,.19-2-.27-2.17-1.76-.1-.89,.25-2.05-.77-2.72-1-.66-1.78-.3-2.66,.38-2.43,1.87-1.71,1.86-3.99-.23-.23-.21-.43-.46-.68-.64-1.54-1.16-1.46-2.25-.17-3.66,1.66-1.82,1.04-3.47-1.42-3.59-2.17-.1-2.7-.9-2.58-2.94,.18-3.06,.04-3.12,3.03-3.6,1.23-.2,1.63-.96,1.93-2.01Z"/>
  <path d="M185.8,745.3c0-4.62,0-9.24,0-13.86,0-1.94,.2-2.07,1.85-1.15,8.42,4.67,16.83,9.35,25.24,14.03,1.51,.84,1.51,1.2-.02,2.06-8.41,4.69-16.83,9.37-25.25,14.04-1.5,.83-1.82,.63-1.82-1.07-.01-4.68,0-9.36,0-14.04Z"/>
  <path d="M121.03,761.88c-2.43,0-4.87,.01-7.3,0-4.08-.02-5.81-1.85-5.62-5.88,.09-2,.32-3.98,1.14-5.83,1.58-3.57,4.1-4.37,7.41-2.42,3.07,1.81,6.14,1.67,9.14-.21,2.61-1.63,4.83-1.15,6.43,1.52,1.63,2.72,2.03,5.76,1.73,8.84-.25,2.51-2.13,3.9-5.06,3.97-2.62,.06-5.24,.01-7.86,.01Z"/>
  <path d="M66.93,752.46c0,1.25-.01,2.5,0,3.75,.01,1.37-.51,2.08-2.01,2.01-1.93-.09-3.87-.09-5.8,0-1.12,.05-1.36-.39-1.32-1.4,.07-1.75,0-3.5,.03-5.25,.02-.79-.23-1.19-1.06-1.09-.12,.01-.25,0-.37,0q-3.63-.1-3.63,3.55,0,4.16-4.12,4.16c-.94,0-1.88-.06-2.81,.01-1.51,.13-2.19-.46-2.15-2.02,.06-2.62,.04-5.25,0-7.87-.01-.83,.26-1.38,.9-1.9,3.35-2.71,6.68-5.43,9.97-8.21,.62-.52,.94-.45,1.51,.02,3.35,2.8,6.72,5.58,10.11,8.33,.6,.49,.81,1.02,.79,1.77-.05,1.37-.01,2.75-.01,4.12Z"/>
  <path d="M61.67,736.66c0-.39,0-.63,0-.88,.05-3.75-.59-3.31,3.61-3.38,1.21-.02,1.74,.41,1.66,1.63-.05,.68,.08,1.39-.02,2.06-.55,3.62,.26,6.59,3.75,8.42,1.08,.56,.85,1.23,.14,2.07-.75,.88-1.25,1.34-2.35,.38-3.97-3.42-8.05-6.71-12.02-10.13-.92-.79-1.44-.72-2.31,.02-3.93,3.37-7.95,6.64-11.89,10-.93,.8-1.53,.98-2.4-.11-.78-.99-.85-1.55,.2-2.4,4.4-3.58,8.73-7.25,13.1-10.88,1.73-1.44,2.54-1.43,4.26-.02,1.25,1.03,2.49,2.08,3.74,3.11,.08,.07,.22,.06,.54,.13Z"/>
  <path d="M128.11,740.54c.02,3.98-3.12,7.15-7.07,7.15-3.92,0-7.13-3.23-7.1-7.15,.03-3.84,3.18-7.02,7.01-7.06,3.96-.04,7.14,3.1,7.16,7.06Z"/>
  <path d="M272.71,758.58c-5.49,0-10.99-.04-16.48,.03-1.22,.02-1.54-.3-1.53-1.53,.06-7.99,.03-15.99,.03-23.98,0-.76-.26-1.56,1.12-1.56,1.37,0,1.12,.78,1.12,1.55,0,7.25,.03,14.49-.03,21.74-.01,1.22,.3,1.54,1.53,1.53,10.24-.05,20.48-.04,30.71-.02,.63,0,1.53-.43,1.54,.92,0,1.06-.29,1.35-1.35,1.34-5.56-.05-11.11-.02-16.67-.02Z"/>
  <path d="M286.19,743.96c0,2.87-.06,5.75,.03,8.62,.04,1.22-.3,1.56-1.53,1.54-3-.06-3,0-3-3.03,0-5.18,.06-10.37-.04-15.55-.03-1.4,.31-1.79,1.72-1.73,2.8,.12,2.81,.02,2.81,2.85v7.31Z"/>
  <path d="M268.21,745.09c0-2.56,.05-5.12-.02-7.68-.03-1.05,.25-1.35,1.33-1.35,3.19,0,3.19-.05,3.19,3.21,0,4.43-.04,8.87,.03,13.3,.02,1.2-.28,1.57-1.52,1.54-3-.07-3,0-3-3.03v-5.99Z"/>
  <path d="M129.21,739.34c2.36,.91,4.36,.34,6.27-.68,1.35-.72,2.14-.26,2.61,1.02,.66,1.78,.66,3.66,.58,5.52-.04,.97-.61,1.7-1.46,1.99-1.88,.66-3.77,1.14-5.53-.48-.97-.9-2.23-1.32-3.77-1.36,.94-1.91,1.59-3.8,1.31-6.02Z"/>
  <path class="cls-41" d="M114.24,745.33c-1.79,.09-3.09,.89-4.43,1.85-1.52,1.08-3.32,.69-4.94,.02-1.35-.56-1.53-1.79-1.5-3.13,.03-1.38,.1-2.74,.51-4.06,.53-1.7,1.29-2.01,2.92-1.26,1.65,.75,3.31,1.45,5.18,.82,.64-.21,.89,0,.85,.7-.1,1.79,.52,3.41,1.42,5.06Z"/>
  <path d="M126.93,733.56c-.02-2.66,2.03-4.73,4.69-4.74,2.66-.01,4.72,2.03,4.73,4.69,.01,2.6-2.12,4.79-4.68,4.81-2.54,.02-4.72-2.17-4.74-4.76Z"/>
  <path class="cls-41" d="M110.47,728.82c2.66,.02,4.71,2.08,4.71,4.74,0,2.55-2.23,4.78-4.76,4.76-2.54-.02-4.72-2.24-4.72-4.81,0-2.58,2.16-4.7,4.77-4.68Z"/>
  <path d="M279.45,747.37c0,1.75-.05,3.5,.02,5.24,.05,1.05-.1,1.53-1.37,1.51-3.15-.05-3.15,.03-3.15-3.07s.04-5.99-.02-8.99c-.02-1.05,.1-1.53,1.37-1.51,3.15,.05,3.15-.03,3.15,3.07v3.75Z"/>
  <path d="M265.96,749.65v1.87c0,2.56,0,2.45-2.5,2.59-1.59,.09-2.2-.27-2.04-1.98,.18-1.92,.09-3.87,.02-5.8-.03-.93,.18-1.27,1.21-1.28,3.3-.04,3.3-.09,3.3,3.29v1.31Z"/>
  <path class="cls-43" d="M204.26,217.16c-13.32-.32-24.13-5.82-32.42-16.36-.54-.68-.81-1.31-.65-2.2,.76-4.46,2.07-8.71,4.48-12.58,2.04-3.28,4.91-5.38,8.72-6.21,.82-.18,1.37-.09,1.98,.54,9.79,10.15,26.53,10.19,36.38,.02,.6-.62,1.14-.73,1.97-.56,5.13,1.06,8.16,4.48,10.25,8.98,1.45,3.12,2.4,6.4,2.94,9.8,.13,.8,.02,1.41-.49,2.06-8.41,10.72-19.36,16.31-33.14,16.52Z"/>
  <path class="cls-43" d="M225.1,162.26c.02,11.4-9.13,20.6-20.5,20.61-11.38,.02-20.6-9.15-20.62-20.51-.02-11.37,9.16-20.6,20.52-20.63,11.37-.03,20.58,9.15,20.6,20.52Z"/>
  <path class="cls-43" d="M203.78,590.1c-18.04,0-36.07,.02-54.11,0-32.27-.05-64.54-.13-96.8-.21-2.25,0-4.49-.07-6.74-.07-1.1,0-1.56-.47-1.52-1.59,.42-11.11,.34-22.22,.34-33.34,0-.84,.28-1.1,1.08-1.02,.56,.06,1.12,0,1.68,0,18.54-.02,37.08-.02,55.61-.05,25.96-.05,51.93-.28,77.89-.16,32.39,.15,64.79,.36,97.18,.09,27.21-.22,54.42,.35,81.62,.07,2.78-.03,2.79,0,2.79,2.69,.03,10.17,.06,20.34,.08,30.52,0,3.05,0,3.06-3.11,3.06-41.88,0-83.77,0-125.65,0h-30.33Z"/>
  <path class="cls-43" d="M203.58,453.38c25.59,0,51.18,.22,76.77-.06,26.77-.3,53.54,.38,80.31,.03,1.63-.02,2.16,.42,2.16,2.09-.04,10.36,.02,20.72,.05,31.08,0,3.13,0,3.14-3.22,3.14-40.82,0-81.64,0-122.47,0-23.28,0-46.56,.1-69.84,.06-39.88-.07-79.76-.2-119.64-.31-3.15,0-3.22-.02-3.08-3.23,.45-10.36,.3-20.73,.29-31.09,0-1.48,.44-1.69,1.77-1.69,18.85,.03,37.7,.01,56.55-.03,25.59-.05,51.18-.13,76.76-.19,7.86-.02,15.73,0,23.59,0v.2Z"/>
  <path class="cls-43" d="M203.57,504.36c25.47,0,50.93,.22,76.4-.06,26.84-.3,53.67,.38,80.5,.03,1.78-.02,2.37,.41,2.36,2.27-.06,10.3,.01,20.59,.04,30.89,0,3.14,0,3.15-3.21,3.15-40.32,0-80.64,0-120.97,0-23.41,0-46.81,.1-70.22,.06-40.26-.07-80.51-.2-120.77-.31-.56,0-1.12-.06-1.68-.05-1.02,.02-1.46-.46-1.42-1.49,.08-2.12,.14-4.24,.16-6.36,.07-8.74,.18-17.48,.14-26.22,0-1.62,.47-1.89,1.95-1.89,18.79,.03,37.57,.02,56.36-.02,25.59-.05,51.18-.13,76.76-.19,7.86-.02,15.73,0,23.59,0v.2Z"/>
  <path class="cls-43" d="M203.97,692.05c-18.1,0-36.2,.02-54.3,0-32.27-.05-64.54-.13-96.8-.21-2.25,0-4.49-.07-6.74-.07-1.1,0-1.57-.46-1.53-1.58,.41-11.11,.34-22.22,.34-33.34,0-.83,.26-1.11,1.07-1.02,.55,.06,1.12,0,1.68,0,18.54-.02,37.08-.02,55.61-.05,25.96-.05,51.93-.28,77.89-.16,32.39,.15,64.79,.36,97.18,.09,27.21-.22,54.42,.35,81.62,.07,2.78-.03,2.79,0,2.8,2.69,.03,10.17,.06,20.34,.08,30.52,0,3.05,0,3.06-3.1,3.06-41.88,0-83.77,0-125.65,0h-30.14Z"/>
  <path class="cls-43" d="M203.78,641.08c-18.04,0-36.07,.02-54.11,0-32.27-.05-64.54-.13-96.8-.21-2.25,0-4.49-.07-6.74-.07-1.1,0-1.56-.47-1.52-1.59,.42-11.11,.34-22.22,.34-33.34,0-.84,.28-1.1,1.08-1.02,.56,.06,1.12,0,1.68,0,18.54-.02,37.08-.02,55.61-.05,26.02-.05,52.05-.28,78.07-.16,32.33,.15,64.66,.36,96.99,.09,27.21-.22,54.42,.35,81.62,.07,2.78-.03,2.79,0,2.79,2.69,.03,10.17,.06,20.34,.08,30.52,0,3.05,0,3.06-3.11,3.06-41.88,0-83.77,0-125.65,0h-30.33Z"/>
  <path class="cls-43" d="M132.47,368.04c-16.04-.06-29.1-13.22-29.05-29.28,.05-16.14,13.25-29.25,29.38-29.16,16.13,.08,29.13,13.3,29.03,29.49-.1,16.05-13.25,29.02-29.36,28.95Z"/>
  <path class="cls-22" d="M130.59,384.9c-5.05-.06-11.66-1.57-17.95-4.58-1.13-.54-1.61-.91-.76-2.25,2.15-3.43,4.12-6.97,6.09-10.51,.55-.98,.94-1.25,2.1-.73,21.27,9.53,44.84-7.06,43.2-30.36-1.01-14.35-12.3-26.28-26.65-28-1.96-.24-2.69-.74-2.56-2.85,.22-3.55,.11-7.12,.03-10.67-.02-1.17,.28-1.43,1.46-1.35,20.54,1.27,38.19,16.73,41.95,36.81,4.01,21.4-7.04,42.29-26.98,50.89-5.73,2.47-11.76,3.66-19.92,3.62Z"/>
  <path class="cls-7" d="M131.11,300.79c0,1.94-.07,3.87,.02,5.81,.05,1.16-.27,1.57-1.49,1.7-7.9,.81-14.52,4.18-19.88,10.06-11.89,13.03-9.93,34.2,4.16,44.81q2.2,1.65,.82,4.05c-1.8,3.13-3.66,6.24-5.39,9.42-.62,1.14-1.14,1.37-2.23,.57-15.31-11.25-22.2-26.22-19.53-45.17,2.59-18.38,16.84-33.64,35.84-37.62,2.01-.42,4.07-.55,6.1-.86,1.17-.18,1.69,.11,1.61,1.43-.11,1.93-.03,3.87-.03,5.81Z"/>
  <path class="cls-20" d="M349.48,139.78c-.9,.2-1.35-.17-1.17-1.17,.21-1.17-.29-1.63-1.43-1.42-1.09,.2-1.15-.4-1.18-1.27-.05-1.24,.86-1.82,1.62-2.31,.68-.44,1.04,.6,1.51,1,.76,.64,1.47,1.35,2.11,2.11,.39,.46,1.42,.81,.94,1.52-.51,.74-1.08,1.75-2.39,1.54Z"/>
  <path class="cls-1" d="M360.47,120.48c.58,1.01,.04,1.29-.28,1.62-3.21,3.23-6.44,6.45-9.67,9.66-.32,.31-.69,1.02-1.19,.55-.55-.52,.22-.84,.52-1.14,3.49-3.54,7.01-7.06,10.62-10.68Z"/>
  <path class="cls-18" d="M177.61,57.34c1.7,.09,3.99,.21,5.14,2.63,.78,1.64,.25,3.02-1.43,3.61-2.18,.76-4.44,1.06-6.77,.67-.78-.13-1.07-.47-1.05-1.2,.03-.81,.04-1.61,.07-2.42q.13-3.28,4.04-3.29Z"/>
  <path class="cls-43" d="M209.52,67.67c-.01,2.69-1.83,4.74-4.2,4.74-2.49,0-4.08-1.98-4.03-5,.05-2.69,1.6-4.45,3.9-4.44,2.69,0,4.34,1.8,4.32,4.7Z"/>
  <path class="cls-18" d="M219.2,363.71c0-1.06,.08-2.12-.02-3.17-.13-1.34,.28-1.96,1.72-1.89,1.94,.1,3.77,.39,4.72,2.34,.98,2.02,.68,4.02-.6,5.81-1.26,1.76-3.21,1.64-5.09,1.63-.75,0-.74-.47-.73-.99,0-1.24,0-2.49,0-3.73Z"/>
  <path class="cls-20" d="M219.16,306.5c.19-.94-.45-2.14,1.29-2.21,2.59-.1,4.05,.46,4.36,1.9,.21,.98-.24,1.55-1.09,1.88-1.19,.46-2.44,.46-3.68,.37-1.58-.11-.48-1.38-.88-1.94Z"/>
  <path class="cls-20" d="M48.23,422.74c.75,.05,1.41,0,2.08,.29,.98,.43,1.51,1.1,1.48,2.14-.04,1.01-.84,1.28-1.66,1.46-.42,.1-.84,.22-1.27,.25-2.69,.2-3.36-.64-2.7-3.31,.33-1.36,1.43-.56,2.07-.83Z"/>
  <path class="cls-20" d="M198.88,239.1c.77,.02,1.43,.01,2.09,.32,.9,.42,1.38,1.04,1.4,2,.01,1.03-.74,1.34-1.56,1.53-.48,.11-.96,.25-1.45,.28-2.56,.17-3.38-.91-2.6-3.4,.4-1.27,1.49-.47,2.13-.73Z"/>
  <path class="cls-4" d="M269.35,338.31c.54-1.17,1.35-1.79,2.58-1.82,1.25-.04,2.11,.51,2.66,1.82h-5.24Z"/>
  <path class="cls-45" d="M272.14,364.58h-5.28c.62-1.32,1.5-1.89,2.82-1.85,1.2,.03,1.87,.68,2.46,1.85Z"/>
  <path class="cls-20" d="M299.28,361.62c0-1.6,1.01-2.55,2.56-2.56,.93,0,1.94-.01,1.97,1.35,.04,1.6-1.23,3.18-2.6,3.08-1.23-.09-1.85-.87-1.93-1.87Z"/>
  <path class="cls-4" d="M255.79,309.85c.59-1.23,1.41-1.81,2.64-1.84,1.25-.02,2.08,.55,2.62,1.84h-5.25Z"/>
  <path class="cls-4" d="M87.99,428.31h-5.27c.58-1.24,1.39-1.84,2.62-1.86,1.24-.03,2.1,.51,2.65,1.86Z"/>
  <path class="cls-26" d="M289.09,310.33c.95-1.41,1.76-2.62,2.72-4.06,.49,1.42,.67,2.78,.09,3.8-.4,.71-1.68,.19-2.81,.25Z"/>
  <path class="cls-4" d="M231.57,364.55c1.39-2.48,3.43-2.51,5.2,0h-5.2Z"/>
  <path class="cls-20" d="M213.54,244.66c.51-1.22,1.31-1.82,2.53-1.86,1.29-.03,2.16,.55,2.8,1.86h-5.34Z"/>
  <path class="cls-4" d="M316.44,334.72q.6,4.3-2.62,3.93c.84-1.26,1.64-2.46,2.62-3.93Z"/>
  <path class="cls-20" d="M60.54,429.22c.1,1.77-.85,2.84-2.47,2.91-1.27,.05-2.17-.43-2.28-1.85-.12-1.7,1.7-4.16,3.15-4.06,2.15,.15,1.2,2.05,1.6,2.99Z"/>
  <path class="cls-20" d="M233.6,310.79c.1,1.76-.86,2.84-2.48,2.9-1.28,.05-2.17-.44-2.27-1.85-.12-1.7,1.71-4.16,3.15-4.05,2.14,.16,1.19,2.05,1.6,3Z"/>
  <path class="cls-18" d="M251.47,365.32c.11,1.97-.69,2.99-2.38,3.09-1.26,.08-2.18-.36-2.3-1.79-.14-1.7,1.61-4.15,3.07-4.11,2.05,.06,1.36,1.79,1.61,2.81Z"/>
  <path class="cls-45" d="M168.39,248.11c-1.4-.03-2.42-1.31-2.39-2.98,.03-1.61,1-2.66,2.42-2.65,1.58,.01,2.53,1.06,2.5,2.78-.02,1.65-1.12,2.88-2.54,2.85Z"/>
  <path class="cls-18" d="M248.67,338.84c.02-1.73,.87-2.68,2.35-2.67,1.53,.01,2.59,1.15,2.57,2.77-.02,1.53-1.23,2.88-2.58,2.87-1.46-.01-2.37-1.16-2.34-2.97Z"/>
  <path class="cls-45" d="M234.37,245.15c.02-1.7,.88-2.69,2.35-2.68,1.52,0,2.59,1.16,2.58,2.76-.01,1.54-1.21,2.88-2.57,2.87-1.46,0-2.37-1.16-2.35-2.96Z"/>
  <path class="cls-4" d="M42.98,33.76c-.27,.86-.05,2.18-1.33,2.14-1.32-.03-1.34-1.36-1.33-2.3,0-.85-.05-2.1,1.3-2.08,1.47,.02,1.08,1.37,1.37,2.24Z"/>
  <path class="cls-21" d="M367.4,33.21c-.91,.26-.59,1.03-.69,1.63h0c-2.87,.36-5.74,.26-8.62,.04l-.02-.02c-.21-1.5-.31-3.01,.05-4.5,2.18,0,4.37,.08,6.54-.04,1.27-.07,2.15,.12,2.44,1.49,.41,.4,.12,.95,.29,1.4Z"/>
  <path class="cls-28" d="M358.1,34.88c2.87-.02,5.74-.03,8.62-.05-2.87,.68-5.74,.6-8.62,.05Z"/>
  <path class="cls-28" d="M358.13,30.36c-.02,1.5-.03,3-.05,4.5-.54-1.51-.62-3.01,.05-4.5Z"/>
  <path class="cls-25" d="M66.76,32.41c.32,.77,.94,1.19,.5,1.82-.1,.14-.69,.16-.82,.02-.59-.65,.2-1.05,.32-1.84Z"/>
  <path class="cls-2" d="M47.64,32.41c-.07,.77-.29,1.36-1.18,1.39-.61,.02-.94-.29-.96-.87-.03-.74,.36-1.17,1.12-1.16,.44,0,1.07-.15,1.03,.64Z"/>
  <path class="cls-43" d="M350.22,750.4c-2.91-.03-5-2.17-4.97-5.09,.03-2.87,2.22-5.09,5.04-5.1,2.84,0,5.21,2.42,5.14,5.26-.07,2.81-2.34,4.96-5.21,4.93Z"/>
  <path class="cls-41" d="M335.58,577.93c-3.51,0-5.23-2.65-3.68-5.76,.3-.6,.21-.96-.01-1.5-.84-2.02-.28-3.91,1.43-5.11,1.57-1.1,3.76-1.01,5.2,.2,1.41,1.19,1.75,2.99,.81,4.91-.25,.51-.37,.81,.02,1.3,2.3,2.92-.74,6.19-3.77,5.96Z"/>
  <path class="cls-41" d="M346.74,564.81c.81,0,1.62,0,2.43,0,.85,0,1.31,.51,1.34,1.25,.03,.76-.47,1.29-1.26,1.34-.99,.05-1.99,.01-2.99,.02-.54,0-1.13-.13-1.23,.73-.12,.96,.52,.74,1.04,.82,.49,.07,.99,.18,1.43,.39,1.86,.89,3.18,2.24,3.22,4.42,.03,1.91-1.1,3.09-2.77,3.82-1.61,.71-4.43,.22-5.62-.95-.44-.44-.59-.94-.31-1.52,.35-.73,1-.71,1.61-.53,.7,.2,1.28,.72,2.08,.76,1.18,.07,2.31-.18,2.47-1.42,.18-1.36-.83-2.12-2.12-2.4-.57-.12-1.06,.12-1.6,.34-1.47,.6-2.13,.13-2.1-1.44,.01-.62,.05-1.25,.15-1.86,.62-4.04,.02-3.8,4.25-3.77Z"/>
  <path class="cls-8" d="M60.56,568.58c0,2.74,0,5.22,0,7.7,0,.74,.06,1.67-1.05,1.6-.95-.07-.82-.94-.83-1.61-.07-2.93-.13-5.86-.17-8.8,0-.84-.24-1.91,.76-2.31,1.1-.45,1.47,.67,1.98,1.3,2.01,2.46,3.67,5.18,5.8,7.8,0-2.56-.01-5.13,0-7.69,0-.69-.3-1.69,.85-1.72,1.1-.03,.97,.95,.98,1.67,.01,3.25,0,6.49-.03,9.74,0,.67,.04,1.45-.86,1.65-.77,.18-1.24-.24-1.7-.85-2-2.69-3.46-5.75-5.73-8.48Z"/>
  <path class="cls-8" d="M81.79,572.94c0-1.18-.01-2.37,0-3.55,0-.6,.4-1.46,.84-1.13,1.24,.92,2.4-.5,3.32-.02,1.86,.97,3.5,.41,5.31,0,1.6-.35,2.89,.81,3.06,2.54,.2,2.04,.15,4.11,.18,6.17,0,.56-.26,.97-.9,.95-.63-.02-.89-.5-.91-1-.07-1.56-.01-3.12-.1-4.67-.05-.93,.21-2.29-1.34-2.14-1.28,.13-2.35,.74-2.25,2.38,.08,1.37,.02,2.75,.05,4.12,.01,.7-.15,1.3-.97,1.3-.73,0-.85-.6-.87-1.2-.05-1.62-.06-3.24-.18-4.86-.06-.81,.04-1.95-1.33-1.77-1.14,.14-1.97,.71-1.95,2.04,.02,1.31,.05,2.62,0,3.93-.03,.76,.15,1.85-1.04,1.83-1.13-.02-.8-1.06-.83-1.75-.04-1.06-.01-2.12-.01-3.18-.04,0-.07,0-.11,0Z"/>
  <path class="cls-41" d="M148.21,577.68c0,.99,.01,1.79,0,2.6-.01,.65-.13,1.32-.94,1.37-.89,.05-.94-.65-.94-1.29,.02-3.68,.05-7.35,.08-11.03,0-.51,.37-1.33,.69-1.06,1.27,1.09,2.33-.13,3.48-.1,2.4,.06,4.28,2.46,4.18,5.45-.09,2.67-2.11,4.56-4.74,4.4-.54-.03-1.07-.2-1.81-.34Z"/>
  <path class="cls-8" d="M107.57,568.58c0-.99-.02-1.85,0-2.71,.02-.64,.32-1.09,1.03-1.03,.62,.05,.77,.52,.78,1.07,.04,3.61,.11,7.22,.12,10.82,0,1.01-.51,1.66-1.49,.87-.52-.41-.8-.07-1.12,.04-1.77,.65-3.32,.35-4.55-1.07-1.43-1.65-1.59-4.4-.42-6.3,1.02-1.65,2.52-2.33,4.44-2.02,.35,.06,.68,.18,1.21,.32Z"/>
  <path class="cls-8" d="M113.47,574.16c1.15,1.99,2.48,2.38,4.67,1.58,.66-.24,1.49-.86,1.88,.21,.39,1.05-.56,1.36-1.32,1.6-2.12,.69-4.22,.71-5.94-.91-1.38-1.3-1.7-2.99-1.14-4.82,.67-2.19,2.57-3.43,5.02-3.29,2.06,.12,3.61,1.56,4.08,3.72,.27,1.25-.06,1.93-1.45,1.92-1.87-.02-3.74,0-5.81,0Z"/>
  <path class="cls-41" d="M185.03,574.16c1,1.94,2.4,2.37,4.58,1.6,.63-.22,1.43-.95,1.87,.16,.43,1.08-.52,1.34-1.26,1.63-3.01,1.16-6.05,.05-7.05-2.58-.93-2.42,.28-5.14,2.72-6.14,2.76-1.13,5.73,.45,6.31,3.35,.26,1.3-.03,2.05-1.56,2-1.83-.06-3.67-.02-5.61-.02Z"/>
  <path class="cls-8" d="M139.24,574.73c0,.62,.02,1.24,0,1.86-.05,1.24-.55,1.89-1.66,.87-.55-.5-.75-.05-1.07,.09-1.71,.74-3.31,.55-4.65-.73-1.37-1.31-1.45-2.94-.78-4.64,.63-1.61,1.59-2.94,3.22-3.67,2.18-.99,4.38,.18,4.67,2.51,.15,1.23,.22,2.47,.33,3.7-.02,0-.04,0-.06,0Z"/>
  <path class="cls-8" d="M164.7,574.7c0,.5,0,.99,0,1.49,.02,1.32-.01,2.59-1.77,1.16-.54-.44-.76,.15-1.09,.28-2.97,1.18-5.89-.82-5.61-3.99,.21-2.38,1.47-4.2,3.69-5.19,2.08-.93,4.24,.3,4.52,2.54,.15,1.23,.23,2.47,.33,3.7-.03,0-.05,0-.08,0Z"/>
  <path class="cls-8" d="M75.41,568.17c2.75,.03,4.49,1.82,4.47,4.59-.02,2.75-2.01,4.93-4.51,4.94-2.28,0-4.16-2.15-4.12-4.85,.03-2.46,1.87-5.16,4.16-4.68Z"/>
  <path class="cls-15" d="M172.64,569.14c.62-.76,1.53-1.32,1.23-2.58-.14-.6,.32-1.07,1.03-1,.64,.06,.78,.52,.78,1.07,.01,.75-.29,1.51,1,1.74,.78,.14,.74,1.35-.06,1.51-1.25,.25-.98,1.02-.99,1.77-.01,.75,.03,1.5-.01,2.25-.05,1,.04,1.84,1.29,2.05,.59,.1,1.09,.45,.81,1.17-.23,.6-.67,.69-1.36,.55-1.64-.34-2.55-1.18-2.56-2.9,0-1-.15-2.01-.02-2.99,.13-1.03-.33-1.58-1.12-2.02-.16-.2-.17-.4-.02-.61Z"/>
  <path class="cls-15" d="M127.3,571.4c0-1.74,0-3.48,0-5.22,0-.64,.03-1.33,.89-1.35,.84-.02,.97,.62,.97,1.29,0,3.48,0,6.96,0,10.43,0,.67-.13,1.33-.94,1.35-1.01,.02-.91-.78-.91-1.47,0-1.68,0-3.35,0-5.03-.01,0-.02,0-.03,0Z"/>
  <path class="cls-29" d="M172.64,569.14c0,.2,.02,.41,.02,.61-.4,.24-.66,.62-1.24,.69-2.59,.32-2.6,.38-2.6,3.02,0,1.12,.01,2.25-.02,3.37-.01,.63-.28,1.11-1.01,1.06-.65-.04-.78-.53-.79-1.07-.03-2.56-.06-5.11-.06-7.67,0-.53,.47-1.27,.81-.93,1.23,1.23,2.52,.16,3.74,.34,.4,.06,.76,.37,1.14,.56Z"/>
  <path class="cls-6" d="M180.93,573.29c0,1.12,0,2.23,0,3.35,0,.67-.11,1.3-.97,1.26-.71-.03-.89-.56-.89-1.18,.01-2.48,.02-4.96,.04-7.44,0-.63,.27-1.11,.98-1.08,.72,.03,.88,.58,.88,1.18,0,1.3,0,2.6,0,3.91-.02,0-.04,0-.06,0Z"/>
  <path class="cls-15" d="M326.62,574.21c-1.12-.19-2.81,.52-2.78-1.3,.03-1.63,1.65-1.15,2.65-1.1,1.02,.05,2.73-.72,2.76,1.15,.04,1.95-1.74,.92-2.64,1.25Z"/>
  <path class="cls-33" d="M179.81,564.8c.94,0,1.29,.51,1.29,1.17,0,.58-.34,1.05-1.01,1.07-.78,.03-1.09-.45-1.09-1.15,0-.64,.35-.99,.81-1.09Z"/>
  <path class="cls-41" d="M338.69,477.48c-3.51-.02-5.19-2.59-3.65-5.77,.35-.72,.09-1.13-.13-1.69-.71-1.86-.1-3.74,1.56-4.9,1.58-1.11,3.75-1.03,5.17,.19,1.45,1.24,1.79,3.06,.88,4.88-.2,.41-.59,.65-.13,1.23,2.43,3.04-.63,6.29-3.71,6.06Z"/>
  <path class="cls-41" d="M349.8,464.37c.81,0,1.62,0,2.43,0,.81-.01,1.33,.34,1.38,1.18,.05,.92-.48,1.38-1.36,1.42-.93,.04-1.87,0-2.81,.02-.53,0-1.11-.16-1.23,.71-.14,.99,.5,.74,1.02,.83,.42,.07,.84,.2,1.25,.35,1.96,.74,3.51,2.69,3.42,4.48-.09,1.87-1.17,3.09-2.85,3.81-1.62,.7-4.43,.2-5.63-.96-.47-.46-.55-.98-.3-1.53,.33-.72,.99-.69,1.61-.53,.65,.17,1.17,.68,1.89,.75,.98,.08,1.87,0,2.5-.87,.5-.7,.21-1.32-.23-1.88-.66-.85-1.53-1.27-2.62-1.02-.41,.1-.78,.38-1.2,.49-.89,.26-1.63-.16-1.62-1,.02-1.79,.18-3.6,.65-5.35,.19-.71,.74-.93,1.44-.91,.75,.02,1.5,0,2.24,0Z"/>
  <path class="cls-8" d="M67.05,473.74c0-2.55-.01-5.11,0-7.66,0-.7-.25-1.68,.9-1.67,.96,0,.92,.86,.92,1.54,0,3.31,0,6.62-.03,9.93,0,.61,.02,1.32-.74,1.56-.84,.26-1.4-.15-1.85-.86-1.34-2.1-2.71-4.18-4.09-6.26-.47-.71-.98-1.38-1.66-2.35,0,2.33,0,4.29,0,6.25,0,.75,.05,1.5,0,2.24-.03,.53-.26,.99-.89,1.01-.64,.03-.92-.41-.93-.95-.07-3.56-.13-7.11-.15-10.67,0-.47,.17-1.01,.75-1.18,.66-.2,1.07,.18,1.41,.65,1.46,2.02,2.92,4.04,4.35,6.08,.56,.8,1.06,1.65,1.58,2.48,.13-.05,.26-.1,.4-.15Z"/>
  <path class="cls-41" d="M327.33,464.36c3.21,0,5.13,2.42,4.13,5.4-.27,.79,.22,.99,.49,1.39,1.45,2.19,.99,4.65-1.1,5.81-2.49,1.38-5.59,.61-6.62-1.63-.36-.78-.65-1.61,.28-2.14,.97-.56,1.48,.11,1.82,.94,.26,.63,.72,1.04,1.4,1.08,1.08,.06,2.32,.03,2.59-1.25,.27-1.27-.69-1.93-1.85-2.12-.91-.15-1.8-.27-1.81-1.44,0-1.17,.9-1.1,1.72-1.22,.63-.09,1.25-.43,.94-1.26-.36-.97-1.18-1.2-2.13-1.08-.53,.07-.88,.37-1.18,.82-.42,.64-1,.97-1.72,.46-.78-.55-.69-1.23-.22-1.95,.77-1.18,1.8-1.87,3.26-1.8Z"/>
  <path class="cls-8" d="M81.79,472.6c0-1.18,0-2.37,0-3.55,0-.59,.34-1.51,.74-1.23,1.41,.97,2.78-.65,3.87,0,1.59,.93,2.82,.54,4.4,.03,1.93-.63,3.42,.74,3.58,2.96,.14,1.8,.1,3.62,.13,5.43,.01,.59-.04,1.18-.8,1.23-.73,.05-1-.49-1.03-1.08-.07-1.56-.02-3.12-.09-4.68-.04-.95,.13-2.27-1.42-2.05-1.2,.17-2.25,.74-2.19,2.28,.05,1.37,.02,2.75,.06,4.12,.02,.69-.06,1.33-.86,1.4-.86,.07-.95-.61-.97-1.27-.06-1.62-.08-3.24-.18-4.86-.05-.86-.06-1.9-1.4-1.7-1.08,.16-1.85,.73-1.87,1.94-.02,1.44,.04,2.87,0,4.31-.02,.66,0,1.55-.93,1.57-1.16,.04-.92-.95-.94-1.65-.03-1.06,0-2.12,0-3.18-.04,0-.07,0-.11,0Z"/>
  <path class="cls-41" d="M148.19,477.18c0,1.16,.04,2.09-.01,3.01-.04,.61-.36,1.09-1.08,1.01-.65-.07-.76-.59-.76-1.1,.02-3.8,.03-7.6,.11-11.4,.02-.85,.62-1.38,1.32-.63,.53,.58,.78,.24,1.21,.06,1.96-.82,3.66-.29,4.83,1.48,1.24,1.85,1.31,4.53,.09,6.16-1.42,1.9-3.35,2.12-5.72,1.4Z"/>
  <path class="cls-8" d="M109.52,471.11c0,1.68,.02,3.36,0,5.04-.02,1.08-.39,1.85-1.54,.97-.53-.41-.81,0-1.13,.11-1.78,.61-3.37,.34-4.52-1.15-1.41-1.82-1.59-3.89-.54-5.96,.87-1.72,2.35-2.71,4.26-2.29,1.44,.32,1.74-.05,1.54-1.34-.05-.3-.01-.62,0-.93,0-.63,.21-1.14,.91-1.17,.73-.02,.91,.49,.91,1.13,0,1.87,0,3.73,0,5.6,.05,0,.09,0,.14,0Z"/>
  <path class="cls-8" d="M113.41,473.72c1.29,2,2.61,2.38,4.79,1.56,.69-.26,1.49-.77,1.86,.27,.34,.96-.53,1.29-1.23,1.52-2.1,.69-4.2,.79-5.97-.79-1.49-1.33-1.81-3.07-1.22-4.96,.68-2.17,2.61-3.39,5.06-3.23,2.05,.14,3.6,1.62,4.04,3.77,.26,1.29-.17,1.89-1.52,1.86-1.86-.03-3.72,0-5.81,0Z"/>
  <path class="cls-41" d="M185,473.72c1.06,1.96,2.44,2.37,4.61,1.59,.64-.23,1.44-.93,1.86,.19,.41,1.09-.55,1.33-1.29,1.61-3.02,1.16-6.04,.04-7.04-2.6-.92-2.43,.29-5.14,2.74-6.13,2.77-1.12,5.73,.48,6.29,3.38,.26,1.32-.08,2.03-1.58,1.98-1.83-.07-3.67-.02-5.61-.02Z"/>
  <path class="cls-8" d="M164.73,473.83c0,1.21,.04,1.96-.01,2.7-.05,.65-.73,1.27-1.06,.88-.98-1.13-1.72-.12-2.54,.04-3.09,.61-5.6-1.97-4.81-5.04,.36-1.39,1.1-2.63,2.23-3.58,1.16-.97,2.41-1.44,3.94-.88,1.53,.55,2.02,1.69,2.06,3.18,.03,1.05,.14,2.1,.19,2.69Z"/>
  <path class="cls-8" d="M139.24,474.29c0,.62,.02,1.24,0,1.86-.05,1.24-.55,1.88-1.66,.87-.55-.5-.75-.04-1.07,.09-1.71,.73-3.31,.55-4.65-.73-1.37-1.31-1.44-2.94-.78-4.64,.63-1.61,1.59-2.93,3.22-3.67,2.18-.99,4.38,.18,4.67,2.51,.15,1.23,.22,2.47,.33,3.7-.02,0-.04,0-.06,0Z"/>
  <path class="cls-8" d="M75.45,467.73c2.73,.04,4.47,1.85,4.43,4.62-.04,2.75-2.06,4.92-4.56,4.9-2.26-.02-4.14-2.22-4.08-4.89,.06-2.52,1.93-5.14,4.2-4.64Z"/>
  <path class="cls-15" d="M172.64,468.7c.62-.76,1.53-1.32,1.23-2.58-.14-.6,.32-1.07,1.03-1,.64,.06,.78,.52,.78,1.07,.01,.75-.29,1.51,1,1.74,.78,.14,.74,1.35-.06,1.51-1.25,.25-.98,1.02-.99,1.77-.01,.75,.03,1.5-.01,2.25-.05,1,.04,1.84,1.29,2.05,.59,.1,1.09,.45,.81,1.17-.23,.6-.67,.69-1.36,.55-1.64-.34-2.55-1.18-2.56-2.9,0-1-.15-2.01-.02-2.99,.13-1.03-.33-1.58-1.12-2.02-.16-.2-.17-.4-.02-.61Z"/>
  <path class="cls-15" d="M127.3,471.11c0-1.8,0-3.6,0-5.4,0-.65,.06-1.33,.92-1.32,.83,0,.94,.66,.94,1.32,0,3.42,.01,6.83,0,10.25,0,.7-.04,1.49-.97,1.5-1.01,0-.88-.82-.87-1.5,0-1.61,0-3.23,0-4.84-.01,0-.02,0-.03,0Z"/>
  <path class="cls-29" d="M172.64,468.7c0,.2,.02,.41,.02,.61-.4,.24-.66,.62-1.24,.69-2.59,.32-2.6,.38-2.6,3.02,0,1.12,.01,2.25-.02,3.37-.01,.63-.28,1.11-1.01,1.06-.65-.04-.78-.53-.79-1.07-.03-2.56-.06-5.11-.06-7.67,0-.53,.47-1.27,.81-.93,1.23,1.23,2.52,.16,3.74,.34,.4,.06,.76,.37,1.14,.56Z"/>
  <path class="cls-6" d="M180.93,472.69c0,1.24,0,2.48,0,3.72,0,.63-.26,1.11-.98,1.06-.6-.04-.85-.46-.85-1.02,0-2.54,.01-5.08,.04-7.63,0-.64,.3-1.1,1-1.06,.72,.05,.85,.61,.86,1.2,0,1.24,0,2.48,0,3.72-.02,0-.04,0-.06,0Z"/>
  <path class="cls-33" d="M179.84,466.61c-.52-.05-.83-.46-.83-1.08,0-.7,.31-1.19,1.08-1.15,.78,.04,1.07,.63,1.02,1.26-.05,.56-.44,1-1.26,.97Z"/>
  <path class="cls-41" d="M344.6,520.15c3.41-.89,5.97,.47,6.38,3.2,.33,2.23-.69,4.12-2.61,4.83-1.91,.71-4.39-.31-5.58-2.3-1.53-2.55-1.25-6.7,.61-9.01,1.69-2.09,4.41-2.3,6.42-.52,.57,.5,.93,1.03,.47,1.77-.5,.83-1.2,.73-1.94,.37-2.2-1.05-2.66-.86-3.75,1.65Z"/>
  <path class="cls-8" d="M60.56,519c0,2.89,0,5.38,0,7.87,0,.69,.03,1.52-.92,1.55-.99,.04-.95-.8-.96-1.49-.07-3.12-.13-6.24-.17-9.36,0-.74-.07-1.6,.81-1.91,.93-.33,1.3,.52,1.75,1.08,2.07,2.56,3.82,5.35,5.98,8.05,0-2.58-.01-5.16,0-7.74,0-.7-.25-1.68,.91-1.67,.96,0,.92,.86,.92,1.54,0,3.31,0,6.62-.03,9.93,0,.61,.02,1.32-.74,1.56-.84,.26-1.4-.15-1.85-.86-1.34-2.1-2.71-4.18-4.09-6.26-.47-.71-.98-1.38-1.62-2.29Z"/>
  <path class="cls-41" d="M334.99,515.33c2.62-.14,5.57,2.74,4.05,5.4-.42,.74,.2,.99,.47,1.41,.92,1.41,1.2,2.91,.33,4.4-1,1.7-2.7,2.1-4.53,2.03-1.69-.07-2.97-.81-3.63-2.45-.3-.74-.48-1.49,.37-1.97,.87-.49,1.43,0,1.74,.79,.41,1.06,1.21,1.39,2.23,1.24,.86-.13,1.8-.27,1.87-1.43,.07-1.06-.66-1.56-1.51-1.88-.46-.17-.99-.15-1.44-.33-.57-.23-.86-.73-.76-1.36,.09-.53,.44-.94,1-.96,.79-.03,1.61-.1,1.79-.97,.11-.53-.37-1.04-.93-1.27-.88-.35-1.69-.36-2.34,.48-.22,.29-.52,.52-.81,.74-.45,.33-.87,.05-1.18-.22-.46-.4-.57-.92-.26-1.51,.73-1.39,1.81-2.18,3.54-2.15Z"/>
  <path class="cls-8" d="M81.79,523.44c0-1.18-.01-2.37,0-3.55,0-.6,.34-1.41,.89-1.11,1.79,1,4.09-1.29,5.63,1.01,.27,.41,.6-.22,.88-.38,2.71-1.63,5.03-.45,5.22,2.69,.1,1.68,.07,3.37,.1,5.05,.01,.58,0,1.2-.75,1.28-.84,.09-1.08-.55-1.1-1.2-.06-1.56-.02-3.12-.07-4.68-.03-.91,.05-2.11-1.37-1.92-1.21,.16-2.27,.71-2.24,2.24,.03,1.43,.04,2.87,.07,4.3,.02,.71-.18,1.29-1,1.26-.73-.03-.82-.64-.84-1.23-.05-1.62-.07-3.24-.18-4.86-.06-.83,0-1.94-1.35-1.74-1.14,.16-1.94,.75-1.91,2.07,.03,1.37,.05,2.75,0,4.12-.03,.71,.03,1.68-1.06,1.62-1-.05-.79-.95-.8-1.6-.03-1.12,0-2.25,0-3.37-.04,0-.07,0-.11,0Z"/>
  <path class="cls-41" d="M146.41,525.3c0-1.75-.02-3.49,0-5.24,.02-1.01,.26-1.94,1.45-.88,.54,.48,.76,.09,1.09-.08,.87-.47,1.79-.55,2.7-.25,2.21,.72,3.65,3.82,2.99,6.38-.58,2.27-2.7,3.73-5.15,3.19-1.42-.31-1.28,.3-1.31,1.23-.04,.91,.48,2.43-.89,2.45-1.65,.02-.86-1.6-.94-2.5-.13-1.42-.03-2.86-.03-4.29,.03,0,.06,0,.08,0Z"/>
  <path class="cls-8" d="M107.57,519.04c0-.99-.02-1.79,0-2.6,.02-.63,.28-1.11,.99-1.08,.62,.03,.81,.46,.82,1.03,.04,3.67,.09,7.34,.13,11.01,0,.52-.34,1.28-.78,.99-1.17-.77-2.16,.07-3.23,.08-2.53,.04-4.3-1.88-4.33-4.78-.03-2.85,1.89-5.02,4.41-4.95,.61,.02,1.21,.18,1.99,.3Z"/>
  <path class="cls-8" d="M113.51,524.69c1.04,1.94,2.45,2.37,4.6,1.6,.65-.23,1.46-.91,1.89,.15,.44,1.07-.53,1.34-1.26,1.63-2.52,.99-5.27,.31-6.55-1.58-1.26-1.86-1.04-4.37,.53-6.02,1.39-1.46,3.15-1.77,4.97-1.23,1.75,.52,2.71,1.89,3.06,3.68,.23,1.17-.18,1.79-1.44,1.77-1.9-.02-3.8,0-5.8,0Z"/>
  <path class="cls-41" d="M184.92,524.69c1.27,2.01,2.56,2.37,4.77,1.56,.67-.24,1.46-.83,1.83,.28,.33,.98-.54,1.25-1.21,1.52-2.94,1.2-6.07,.11-7.11-2.47-.97-2.41,.18-5.15,2.61-6.19,2.74-1.18,5.74,.34,6.38,3.22,.31,1.38-.01,2.16-1.63,2.09-1.79-.08-3.59-.02-5.62-.02Z"/>
  <path class="cls-8" d="M164.73,524.81c0,1.16,0,1.84,0,2.53-.01,.74-.67,1.48-1.07,1.04-1.02-1.11-1.73-.1-2.55,.06-3.1,.59-5.6-1.99-4.79-5.05,.37-1.39,1.1-2.63,2.24-3.57,1.16-.97,2.41-1.43,3.94-.87,1.53,.56,2,1.7,2.05,3.19,.03,1.05,.14,2.1,.19,2.68Z"/>
  <path class="cls-8" d="M139.23,525.18c0,.56,0,1.12,0,1.68,.02,1.34-.27,2.26-1.73,1.05-.58-.48-.77,.11-1.08,.23-1.58,.61-3.05,.45-4.37-.61-1.38-1.11-1.6-2.66-1.19-4.23,.38-1.45,1.18-2.73,2.42-3.67,1.16-.87,2.37-1.23,3.81-.66,1.43,.56,1.91,1.63,1.96,3.05,.04,1.05,.15,2.1,.23,3.15-.02,0-.04,0-.06,0Z"/>
  <path class="cls-8" d="M75.55,518.71c2.69,.06,4.42,1.95,4.33,4.73-.09,2.75-2.16,4.88-4.66,4.8-2.23-.07-4.1-2.38-3.97-4.99,.12-2.34,1.8-5.04,4.31-4.53Z"/>
  <path class="cls-8" d="M326.33,520.54c-1.06,.33-2.06,.98-2.63-.22-.49-1.03,.3-1.59,1.11-2.04,.7-.39,1-1.02,1.26-1.77,.25-.74,.82-1.31,1.71-1.15,.89,.17,1.11,.89,1.12,1.7,.02,3.24,.04,6.49,.05,9.73,0,.91-.27,1.67-1.34,1.63-1.05-.04-1.27-.82-1.27-1.71,0-1.99,0-3.98,0-6.18Z"/>
  <path class="cls-15" d="M172.64,519.67c.62-.76,1.53-1.32,1.23-2.58-.14-.6,.32-1.07,1.03-1,.64,.06,.78,.52,.78,1.07,.01,.75-.29,1.51,1,1.74,.78,.14,.74,1.35-.06,1.51-1.25,.25-.98,1.02-.99,1.77-.01,.75,.03,1.5-.01,2.25-.05,1,.04,1.84,1.29,2.05,.59,.1,1.09,.45,.81,1.17-.23,.6-.67,.69-1.36,.55-1.64-.34-2.55-1.18-2.56-2.9,0-1-.15-2.01-.02-2.99,.13-1.03-.33-1.58-1.12-2.02-.16-.2-.17-.4-.02-.61Z"/>
  <path class="cls-15" d="M127.3,521.74c0-1.68,0-3.35,0-5.03,0-.64,.02-1.33,.89-1.35,.84-.02,.98,.62,.98,1.28,0,3.48,0,6.96,0,10.43,0,.75-.18,1.45-1.12,1.34-.85-.1-.73-.84-.73-1.46,0-1.74,0-3.48,0-5.22-.01,0-.02,0-.03,0Z"/>
  <path class="cls-29" d="M172.64,519.67c0,.2,.02,.41,.02,.61-.4,.24-.66,.62-1.24,.69-2.59,.32-2.6,.38-2.6,3.02,0,1.12,.01,2.25-.02,3.37-.01,.63-.28,1.11-1.01,1.06-.65-.04-.78-.53-.79-1.07-.03-2.56-.06-5.11-.06-7.67,0-.53,.47-1.27,.81-.93,1.23,1.23,2.52,.16,3.74,.34,.4,.06,.76,.37,1.14,.56Z"/>
  <path class="cls-6" d="M180.93,523.69c0,1.24,0,2.48,0,3.72,0,.55-.22,.99-.83,1.03-.71,.04-1.01-.41-1.01-1.05,0-2.54,.01-5.08,.04-7.63,0-.65,.33-1.08,1.03-1.02,.61,.05,.81,.51,.82,1.05,.02,1.3,0,2.6,0,3.9-.02,0-.04,0-.06,0Z"/>
  <path class="cls-33" d="M181.15,516.47c-.18,.64-.43,1.11-1.11,1.11-.78,0-1.07-.5-1.04-1.2,.03-.61,.34-1.04,1.02-1.04,.81,0,.95,.6,1.13,1.13Z"/>
  <path class="cls-41" d="M338.73,679.87c-3.51,0-5.24-2.6-3.71-5.75,.34-.71,.14-1.11-.09-1.68-.74-1.86-.13-3.75,1.51-4.92,1.56-1.11,3.76-1.04,5.18,.15,1.48,1.25,1.8,3.06,.82,5.03-.19,.39-.45,.61-.05,1.08,2.44,2.9-.49,6.31-3.65,6.09Z"/>
  <path class="cls-41" d="M349.18,679.87c-1.2,.13-2.29-.48-3.4-1.05-.74-.38-.98-.99-.69-1.7,.33-.81,1.08-.75,1.77-.54,.59,.18,1.12,.55,1.71,.67,1.03,.22,2,.05,2.62-.95,.4-.63,.12-1.21-.27-1.72-.7-.92-1.62-1.35-2.78-1.03-.35,.1-.67,.33-1.02,.44-1,.31-1.53-.17-1.71-1.11-.05-.24,0-.5,.02-.74,.38-5.44,1.35-6.18,6.92-5.38,.83,.12,1.26,.51,1.24,1.32-.02,.82-.53,1.25-1.31,1.28-1,.04-2,.04-2.99,0-.65-.02-1.04,.09-1.11,.86-.07,.9,.55,.61,.98,.68,1.19,.21,2.27,.65,3.13,1.52,1.3,1.33,2.04,2.83,1.29,4.72-.65,1.63-2.4,2.73-4.41,2.73Z"/>
  <path class="cls-8" d="M60.56,670.43c0,2.72,.02,5.12,0,7.52,0,.76,.24,1.87-.95,1.87-1.22,0-.9-1.12-.92-1.87-.08-2.74-.15-5.49-.17-8.24,0-.95-.37-2.21,.84-2.62,1.15-.39,1.51,.86,2.07,1.54,1.97,2.39,3.55,5.06,5.63,7.55,0-2.58-.01-5.17,0-7.75,0-.7-.23-1.68,.94-1.64,.96,.04,.89,.9,.89,1.57,0,3.31,0,6.62-.03,9.93,0,.61,0,1.32-.77,1.53-.74,.21-1.3-.07-1.73-.75-1.38-2.15-2.78-4.28-4.19-6.41-.46-.7-.97-1.37-1.6-2.24Z"/>
  <path class="cls-41" d="M327.33,666.75c3.21,0,5.13,2.42,4.13,5.4-.27,.79,.22,.99,.49,1.39,1.45,2.19,1,4.65-1.1,5.81-2.49,1.38-5.59,.61-6.62-1.63-.36-.78-.65-1.6,.27-2.14,.97-.56,1.48,.1,1.83,.93,.26,.63,.72,1.05,1.4,1.08,1.08,.06,2.32,.03,2.59-1.25,.27-1.27-.68-1.93-1.84-2.12-.91-.15-1.8-.27-1.81-1.44,0-1.17,.9-1.1,1.71-1.22,.63-.09,1.25-.43,.94-1.26-.36-.97-1.18-1.2-2.13-1.08-.53,.07-.88,.37-1.18,.82-.42,.64-1,.97-1.72,.46-.78-.55-.69-1.23-.22-1.95,.77-1.18,1.8-1.87,3.26-1.81Z"/>
  <path class="cls-8" d="M81.79,675.03c0-1.25-.05-2.5,.01-3.74,.05-1.06,.65-1.6,1.56-.84,.5,.42,.7,.23,1.07,.04,1.22-.61,2.44-.65,3.44,.37,.56,.57,.84,.29,1.36-.03,2.67-1.68,5.01-.46,5.19,2.69,.1,1.68,.07,3.37,.1,5.05,0,.58,0,1.2-.76,1.27-.85,.08-1.06-.57-1.09-1.22-.06-1.5,0-3-.07-4.49-.05-.94,.17-2.29-1.38-2.09-1.27,.16-2.35,.76-2.21,2.43,.11,1.3,0,2.62,.05,3.93,.02,.67-.02,1.35-.82,1.43-1,.1-.99-.72-1.01-1.41-.05-1.5,0-3-.15-4.49-.08-.84,.11-2.12-1.39-1.91-1.24,.17-1.99,.86-1.91,2.27,.08,1.31,.06,2.62,0,3.93-.03,.71,.03,1.68-1.07,1.61-1-.07-.77-.96-.79-1.61-.03-1.06,0-2.12,0-3.18-.04,0-.07,0-.11,0Z"/>
  <path class="cls-41" d="M146.41,676.73c0-1.81-.04-3.62,.02-5.42,.03-1,.46-1.7,1.44-.72,.51,.51,.75,.12,1.08-.06,.87-.47,1.79-.56,2.7-.26,2.21,.71,3.65,3.81,3,6.37-.58,2.27-2.69,3.74-5.14,3.2-1.41-.31-1.28,.27-1.33,1.22-.05,.93,.56,2.54-1.06,2.45-1.38-.08-.71-1.6-.77-2.49-.1-1.42-.03-2.86-.03-4.29,.03,0,.06,0,.09,0Z"/>
  <path class="cls-8" d="M109.52,673.34c0,1.68,0,3.36,0,5.04,0,1.09-.24,2.03-1.57,1.11-.47-.32-.69-.03-.96,.07-1.83,.68-3.43,.42-4.7-1.1-1.36-1.64-1.51-4.26-.42-6.15,.97-1.69,2.59-2.57,4.56-2.05,1.29,.34,1.18-.23,1.14-1.04-.02-.44-.01-.87,0-1.31,0-.63,.23-1.14,.94-1.14,.73,0,.88,.53,.88,1.15,0,.93,.04,1.87,.05,2.8,0,.87,0,1.74,0,2.61h.08Z"/>
  <path class="cls-8" d="M113.49,676.11c1.12,1.97,2.46,2.38,4.64,1.58,.66-.24,1.48-.88,1.88,.19,.4,1.06-.55,1.33-1.3,1.62-2.53,.97-5.27,.29-6.54-1.61-1.25-1.86-1.02-4.38,.56-6.02,1.4-1.45,3.16-1.75,4.98-1.2,1.75,.53,2.7,1.91,3.04,3.7,.23,1.18-.23,1.78-1.47,1.75-.93-.03-1.87,0-2.8,0-.93,0-1.87,0-3,0Z"/>
  <path class="cls-41" d="M184.86,676.11c1.38,2.02,2.67,2.37,4.86,1.54,.69-.26,1.46-.76,1.81,.34,.28,.87-.48,1.17-1.09,1.44-2.81,1.26-6.12,.2-7.21-2.29-1.07-2.42,.11-5.3,2.6-6.35,2.82-1.19,5.89,.49,6.38,3.46,.21,1.25-.14,1.9-1.53,1.86-1.85-.05-3.69-.01-5.82-.01Z"/>
  <path class="cls-8" d="M164.72,676.75c0,.62,.03,1.24,0,1.86-.07,1.11-.62,1.77-1.59,.86-.61-.58-.84-.1-1.21,.05-1.64,.67-3.18,.49-4.5-.69-1.36-1.22-1.52-2.81-.96-4.45,.57-1.69,1.56-3.1,3.23-3.91,2.2-1.07,4.49,.14,4.78,2.55,.15,1.23,.22,2.47,.32,3.71-.02,0-.04,0-.06,0Z"/>
  <path class="cls-8" d="M139.26,676.78c0,.68,.02,1.37,0,2.05-.02,.64-.56,1.34-.98,.98-1.03-.87-1.8-.16-2.73,.02-2.97,.58-5.35-1.75-4.75-4.74,.4-2.01,1.51-3.66,3.44-4.6,2.2-1.07,4.47,.15,4.76,2.58,.15,1.23,.21,2.47,.32,3.71-.02,0-.03,0-.05,0Z"/>
  <path class="cls-8" d="M75.54,670.12c2.69,.06,4.42,1.94,4.34,4.72-.09,2.75-2.15,4.88-4.65,4.81-2.24-.07-4.11-2.36-3.98-4.98,.11-2.36,1.82-5.05,4.3-4.54Z"/>
  <path class="cls-15" d="M172.64,671.09c.62-.76,1.53-1.32,1.23-2.58-.14-.6,.32-1.07,1.03-1,.64,.06,.78,.52,.78,1.07,.01,.75-.29,1.51,1,1.74,.78,.14,.74,1.35-.06,1.51-1.25,.25-.98,1.02-.99,1.77-.01,.75,.03,1.5-.01,2.25-.05,1,.04,1.84,1.29,2.05,.59,.1,1.09,.45,.81,1.17-.23,.6-.67,.69-1.36,.55-1.64-.34-2.55-1.18-2.56-2.9,0-1-.15-2.01-.02-2.99,.13-1.03-.33-1.58-1.12-2.02-.16-.2-.17-.4-.02-.61Z"/>
  <path class="cls-15" d="M127.3,673.49c0-1.8,0-3.6,0-5.4,0-.65,.07-1.33,.93-1.31,.83,.02,.93,.67,.94,1.33,0,3.42,.01,6.83,0,10.25,0,.7-.04,1.49-.98,1.49-1.01,0-.87-.83-.86-1.51,0-1.61,0-3.23,0-4.84-.01,0-.02,0-.03,0Z"/>
  <path class="cls-29" d="M172.64,671.09c0,.21,.02,.41,.02,.61-.4,.24-.66,.62-1.24,.69-2.59,.32-2.6,.38-2.6,3.02,0,1.12,.01,2.25-.02,3.37-.01,.63-.28,1.11-1.01,1.06-.65-.04-.78-.53-.79-1.07-.03-2.56-.06-5.11-.06-7.67,0-.53,.47-1.27,.81-.93,1.24,1.23,2.52,.16,3.74,.34,.4,.06,.76,.37,1.14,.56Z"/>
  <path class="cls-6" d="M180.93,675.02c0,1.18,0,2.36,0,3.53,0,.66-.09,1.31-.94,1.29-.7,0-.91-.53-.91-1.16,.01-2.48,.02-4.96,.04-7.44,0-.62,.24-1.13,.96-1.11,.72,.02,.9,.55,.91,1.16,0,1.24,0,2.48,0,3.72-.02,0-.04,0-.06,0Z"/>
  <path class="cls-33" d="M181.13,667.88c-.11,.63-.39,1.13-1.15,1.11-.68-.02-.96-.47-.98-1.08-.02-.62,.25-1.08,.91-1.15,.77-.08,1.06,.44,1.22,1.12Z"/>
  <path class="cls-41" d="M336.1,615.78c.75,0,1.5,.03,2.25,0,.89-.04,1.51,.31,1.53,1.23,.02,1.01-.64,1.4-1.6,1.39-.94-.01-1.87,0-2.81,0-.51,0-.97-.06-1.01,.71-.03,.7,.25,.8,.86,.84,1.22,.07,2.26,.61,3.16,1.43,1.65,1.51,2.12,3.56,1.2,5.22-1.02,1.84-3.51,2.81-5.67,2.15-.65-.2-1.25-.54-1.86-.84-.75-.37-1.23-.91-.77-1.78,.46-.87,1.22-.72,1.94-.41,.57,.25,1.08,.59,1.73,.62,1.21,.05,2.41-.09,2.48-1.57,.06-1.4-.96-2.07-2.27-2.26-.43-.06-.82,.1-1.24,.27-1.84,.74-2.48,.19-2.23-1.86,.04-.37,.08-.74,.11-1.12q.32-4.01,4.2-4.01Z"/>
  <path class="cls-8" d="M67.05,625.16c0-2.61,0-5.22,0-7.83,0-.67-.13-1.52,.89-1.51,.97,0,.94,.84,.94,1.52,0,3.31,0,6.62-.03,9.93,0,.67,.02,1.44-.89,1.62-.79,.16-1.27-.25-1.68-.89-1.35-2.1-2.72-4.18-4.09-6.25-.47-.71-.98-1.4-1.71-2.43-.23,2.57-.02,4.71,.07,6.85,.03,.62,.02,1.25-.05,1.87-.05,.45-.31,.83-.84,.85-.63,.03-.94-.38-.95-.93-.08-3.56-.14-7.11-.16-10.67,0-.47,.16-1.01,.74-1.2,.76-.25,1.14,.28,1.53,.77,2.15,2.66,4.01,5.53,6.23,8.29Z"/>
  <path class="cls-8" d="M81.79,624.04c0-1.18,0-2.37,0-3.55,0-.59,.33-1.51,.73-1.25,1.41,.95,2.62-.38,3.91-.07,.41,.1,.91,.21,1.18,.49,.62,.66,1.03,.62,1.81,.1,2.33-1.54,4.74-.34,4.97,2.44,.15,1.8,.1,3.62,.14,5.43,.01,.58-.02,1.19-.78,1.25-.85,.06-1.05-.59-1.07-1.24-.05-1.37,.06-2.75-.06-4.11-.08-.99,.41-2.61-1.41-2.44-1.37,.13-2.42,.88-2.19,2.62,.14,1.11,.03,2.24,.03,3.37,0,.73,.23,1.71-.82,1.77-1.26,.08-.96-1.07-1.01-1.8-.1-1.43-.06-2.87-.16-4.3-.06-.85-.04-1.91-1.38-1.72-1.08,.15-1.86,.72-1.88,1.92-.03,1.44,.05,2.87,0,4.31-.03,.71,.01,1.68-1.09,1.59-.99-.09-.75-.98-.77-1.63-.03-1.06,0-2.12,0-3.18-.04,0-.07,0-.11,0Z"/>
  <path class="cls-41" d="M154.76,624.3c.01,3.11-2.28,5.15-5.38,4.56-1.1-.21-1.25,.06-1.18,.98,.04,.56,.03,1.12-.02,1.68-.05,.6-.28,1.12-1.01,1.11-.78-.02-.85-.62-.85-1.2,0-1.87,.06-3.74,.07-5.61,.01-1.81-.03-3.62,.02-5.42,.02-.93,.3-1.77,1.41-.84,.35,.29,.49,.29,.9,.14,3.43-1.21,6.01,.78,6.02,4.6Z"/>
  <path class="cls-8" d="M109.52,622.36c0,1.74,.02,3.49,0,5.23-.02,1.08-.4,1.84-1.55,.94-.46-.36-.69-.04-.96,.06-1.82,.67-3.43,.43-4.71-1.1-1.36-1.63-1.51-4.26-.43-6.15,.97-1.69,2.59-2.57,4.56-2.05,1.27,.33,1.19-.2,1.15-1.03-.02-.43,0-.87,0-1.31,0-.63,.22-1.14,.93-1.15,.73,0,.89,.52,.89,1.15,0,1.8,0,3.61,0,5.41,.05,0,.09,0,.14,0Z"/>
  <path class="cls-8" d="M113.36,625.14c1.38,2.01,2.71,2.38,4.87,1.54,.72-.28,1.48-.71,1.84,.32,.3,.86-.47,1.23-1.1,1.45-2.09,.73-4.18,.85-5.99-.65-1.53-1.28-1.92-2.99-1.38-4.91,.61-2.15,2.43-3.44,4.76-3.39,2.22,.05,3.8,1.4,4.34,3.64,.32,1.34-.03,2.04-1.52,2.01-1.85-.04-3.7,0-5.82,0Z"/>
  <path class="cls-41" d="M184.83,625.14c1.44,2.02,2.72,2.35,4.91,1.54,.61-.23,1.3-.76,1.72,.19,.45,1-.39,1.3-1.05,1.6-2.83,1.25-6.11,.19-7.19-2.31-1.06-2.43,.13-5.3,2.63-6.34,2.87-1.2,6.09,.66,6.4,3.67,.11,1.06-.21,1.67-1.4,1.65-1.9-.03-3.81,0-6.02,0Z"/>
  <path class="cls-8" d="M139.23,625.63c0,.56,0,1.12,0,1.68,.01,1.34-.28,2.26-1.74,1.04-.57-.48-.76,.12-1.09,.24-1.58,.6-3.06,.44-4.36-.61-1.37-1.11-1.6-2.66-1.18-4.24,.38-1.45,1.18-2.73,2.42-3.66,1.16-.87,2.37-1.22,3.81-.66,1.43,.56,1.91,1.63,1.96,3.06,.04,1.05,.15,2.1,.23,3.15-.02,0-.04,0-.06,0Z"/>
  <path class="cls-8" d="M164.7,625.66c0,.5,0,.99,0,1.49,.02,1.29,.02,2.61-1.75,1.19-.56-.45-.77,.13-1.09,.26-2.98,1.19-5.81-.79-5.65-3.97,.1-2.08,1.95-4.62,3.86-5.31,2.03-.73,4.12,.5,4.38,2.63,.15,1.23,.23,2.47,.34,3.7-.03,0-.05,0-.08,0Z"/>
  <path class="cls-8" d="M75.6,619.15c2.67,.07,4.39,2,4.27,4.77-.12,2.76-2.2,4.86-4.7,4.75-2.22-.1-4.08-2.45-3.93-5.04,.13-2.16,1.67-4.99,4.35-4.48Z"/>
  <path class="cls-8" d="M326.33,621.02c-1.05,.23-2.09,1.04-2.68-.37-.34-.82,3.18-5,4.07-4.84,.91,.16,1.16,.84,1.17,1.66,.02,3.24,.04,6.49,.06,9.73,0,.89-.21,1.69-1.28,1.68-1.18-.01-1.33-.9-1.33-1.84,0-1.98,0-3.97,0-6.02Z"/>
  <path class="cls-15" d="M172.64,620.12c.62-.76,1.53-1.32,1.23-2.58-.14-.6,.32-1.07,1.03-1,.64,.06,.78,.52,.78,1.07,.01,.75-.29,1.51,1,1.74,.78,.14,.74,1.35-.06,1.51-1.25,.25-.98,1.02-.99,1.77-.01,.75,.03,1.5-.01,2.25-.05,1,.04,1.84,1.29,2.05,.59,.1,1.09,.45,.81,1.17-.23,.6-.67,.69-1.36,.55-1.64-.34-2.55-1.18-2.56-2.9,0-1-.15-2.01-.02-2.99,.13-1.03-.33-1.58-1.12-2.02-.16-.2-.17-.4-.02-.61Z"/>
  <path class="cls-15" d="M127.3,622.34c0-1.74,0-3.48,0-5.22,0-.65,.06-1.33,.92-1.32,.83,0,.95,.66,.95,1.32,0,3.42,.01,6.83,0,10.25,0,.7-.03,1.49-.97,1.5-1.01,0-.88-.81-.88-1.5,0-1.68,0-3.35,0-5.03-.01,0-.02,0-.03,0Z"/>
  <path class="cls-29" d="M172.64,620.12c0,.2,.02,.41,.02,.61-.4,.24-.66,.62-1.24,.69-2.59,.32-2.6,.38-2.6,3.02,0,1.12,.01,2.25-.02,3.37-.01,.63-.28,1.11-1.01,1.06-.65-.04-.78-.53-.79-1.07-.03-2.56-.06-5.11-.06-7.67,0-.53,.47-1.27,.81-.93,1.23,1.23,2.52,.16,3.74,.34,.4,.06,.76,.37,1.14,.56Z"/>
  <path class="cls-6" d="M180.93,623.98c0,1.18,0,2.36,0,3.54,0,.65-.03,1.33-.88,1.36-.83,.03-.98-.6-.98-1.27,.01-2.42,.03-4.84,.04-7.26,0-.62,.2-1.15,.9-1.17,.84-.02,.97,.61,.97,1.28,0,1.18,0,2.36,0,3.53-.02,0-.04,0-.06,0Z"/>
  <path class="cls-33" d="M180.19,618.04c-.82-.04-1.15-.43-1.18-1.05-.03-.69,.26-1.19,1.04-1.2,.69-.01,1,.48,1.05,1.04,.07,.71-.38,1.1-.91,1.21Z"/>
  <path class="cls-41" d="M128.01,330.94c.86,.09,1.21,.62,1.22,1.5,.02,1.43,.1,2.87,.11,4.3,0,.82,.03,1.46,1.17,1.36,.9-.08,1.38,.5,1.33,1.41-.05,.84-.56,1.25-1.37,1.16-.98-.11-1.11,.37-1.13,1.2-.02,.94,.17,2.23-1.36,2.15-1.3-.07-1.3-1.19-1.23-2.12,.08-.99-.27-1.36-1.25-1.22-.37,.05-.75,.02-1.12-.01-.89-.07-1.81-.2-2.2-1.11-.39-.91,.1-1.67,.71-2.37,1.36-1.55,2.54-3.23,3.55-5.03,.34-.61,.7-1.19,1.57-1.22Z"/>
  <path class="cls-41" d="M117.8,333.55c-1.48,0-2.67-.03-3.85,0-1.02,.03-1.81-.34-1.8-1.39,.01-.96,.78-1.27,1.72-1.24,1.74,.05,3.49,.01,5.23,.01,1.47,0,2.26,.91,1.75,2.15-1.45,3.49-3.11,6.9-4.76,10.3-.27,.57-.89,.86-1.59,.45-.83-.49-.81-1.21-.49-1.94,.9-2.04,1.84-4.07,2.76-6.11,.3-.66,.6-1.33,1.02-2.25Z"/>
  <path class="cls-8" d="M137.43,344.42c-1.01-.21-1.54-.92-1.05-1.87,1.94-3.74,3.98-7.44,6.01-11.13,.35-.64,.94-.97,1.72-.52,.74,.43,.85,1.05,.48,1.73-1.97,3.66-3.95,7.31-5.93,10.96-.25,.47-.62,.76-1.23,.82Z"/>
  <path class="cls-8" d="M148.34,340.73c0,1.77-1.7,3.36-3.56,3.33-1.85-.03-3.13-1.33-3.16-3.21-.03-1.91,1.55-3.56,3.37-3.52,1.57,.04,3.35,1.85,3.35,3.4Z"/>
  <path class="cls-8" d="M139.72,334.06c0,2.02-1.73,3.96-3.5,3.93-1.57-.03-3.11-1.71-3.12-3.4-.01-1.73,1.82-3.46,3.7-3.51,1.63-.04,2.91,1.28,2.91,2.98Z"/>
  <path class="cls-44" d="M361.39,34.47c-.19,0-.37,0-.56,0-2.38,0-3.18-.71-2.21-2.88,.84-1.9,3.07-.38,4.63-.76,.62-.15,1.14-.06,1.23,.88,.27,2.76,.32,2.76-3.09,2.76Z"/>
  <path class="cls-39" d="M335.61,575.53c-.75-.23-1.88-.03-1.87-1.29,.02-1.32,1-1.49,2.07-1.54,1.04-.05,1.79,.47,1.83,1.39,.05,1.22-1.11,1.26-2.04,1.45Z"/>
  <path class="cls-4" d="M335.41,570.09c-1,.13-1.55-.28-1.48-1.2,.09-1.09,.86-1.63,1.89-1.64,.86,0,1.65,.46,1.64,1.41-.01,1.35-1.1,1.42-2.04,1.43Z"/>
  <path class="cls-18" d="M152.9,573.39c0,1.74-.98,2.79-2.59,2.72-2.03-.1-2.08-1.54-2.04-3.07,.04-1.77,.95-2.86,2.41-2.82,1.28,.04,2.22,1.39,2.22,3.17Z"/>
  <path class="cls-18" d="M107.63,573.03c0,2.27-.55,3.02-2.23,3.04-1.42,.02-2.37-1.16-2.39-2.95-.01-1.74,1.09-3.06,2.56-3.06,1.56,0,2.06,.73,2.06,2.97Z"/>
  <path class="cls-4" d="M118.75,572.29h-5.16c.35-1.27,1.19-1.83,2.37-1.91,1.3-.09,2.26,.42,2.79,1.91Z"/>
  <path class="cls-4" d="M190.27,572.28h-5.19c.37-1.28,1.22-1.84,2.42-1.91,1.29-.07,2.22,.47,2.78,1.91Z"/>
  <path class="cls-20" d="M137.34,573.55c.05,1.42-.98,2.46-2.53,2.5-1.29,.03-2.16-.48-2.23-1.89-.09-1.72,1.75-4.05,3.2-4.04,1.09,0,1.48,.86,1.57,3.44Z"/>
  <path class="cls-20" d="M162.81,573.34c.06,1.65-.95,2.66-2.53,2.71-1.29,.03-2.16-.48-2.23-1.89-.09-1.72,1.77-4.18,3.19-4.01,2.2,.26,1.12,2.23,1.57,3.2Z"/>
  <path class="cls-45" d="M78.03,572.84c-.03,1.65-1.13,2.87-2.56,2.84-1.39-.04-2.41-1.33-2.37-3,.04-1.61,1-2.65,2.44-2.64,1.58,.02,2.52,1.08,2.49,2.8Z"/>
  <path class="cls-34" d="M338.95,472.26c1.02-.08,1.84,.45,1.86,1.37,.02,1.17-1.11,1.41-2.03,1.41-.83,0-1.94-.08-1.93-1.24,0-1.25,1-1.57,2.11-1.54Z"/>
  <path class="cls-20" d="M338.66,469.64c-1.03,.12-1.64-.16-1.57-1.18,.08-1.16,.88-1.63,1.89-1.64,.88,0,1.61,.43,1.56,1.46-.06,1.3-1.06,1.34-1.89,1.35Z"/>
  <path class="cls-18" d="M148.28,472.74c0-1.91,.76-2.9,2.26-2.95,1.36-.05,2.38,1.34,2.36,3.21-.02,1.66-.92,2.64-2.45,2.68-1.57,.04-2.18-.78-2.18-2.93Z"/>
  <path class="cls-18" d="M107.63,472.39c0,2.46-.62,3.26-2.3,3.23-1.4-.02-2.33-1.24-2.32-3.02,.01-1.74,1.15-3.05,2.63-2.98,2.02,.1,2.16,1.47,1.99,2.77Z"/>
  <path class="cls-4" d="M118.78,471.8h-5.28c.55-1.23,1.35-1.84,2.58-1.88,1.24-.04,2.12,.5,2.7,1.88Z"/>
  <path class="cls-4" d="M184.99,471.76c.59-1.23,1.41-1.82,2.64-1.83,1.23,0,2.11,.49,2.56,1.83h-5.2Z"/>
  <path class="cls-20" d="M162.81,473.08c.05,1.44-.95,2.47-2.51,2.52-1.28,.04-2.17-.45-2.25-1.87-.1-1.71,1.72-4.05,3.17-4.07,1.1-.01,1.5,.84,1.59,3.41Z"/>
  <path class="cls-20" d="M137.33,472.65c.11,1.81-.8,2.86-2.43,2.95-1.26,.07-2.19-.39-2.31-1.81-.15-1.68,1.65-4.16,3.1-4.09,2.17,.1,1.24,2.01,1.64,2.95Z"/>
  <path class="cls-45" d="M75.48,469.6c1.6,0,2.55,1.01,2.55,2.74,0,1.65-1.07,2.9-2.49,2.9-1.41,0-2.44-1.24-2.44-2.94,0-1.59,.98-2.69,2.38-2.7Z"/>
  <path class="cls-21" d="M348.46,524.31c-.05,.91-.45,1.56-1.45,1.51-1.17-.06-2.16-.78-2.17-1.86,0-.87,.99-1.52,2-1.49,1.11,.03,1.64,.72,1.62,1.84Z"/>
  <path class="cls-18" d="M148.28,523.66c0-1.86,.81-2.89,2.31-2.91,1.3-.02,2.29,1.29,2.31,3.07,.03,1.76-.9,2.8-2.49,2.82-1.55,.02-2.13-.8-2.13-2.98Z"/>
  <path class="cls-18" d="M107.63,523.5c0,2.31-.51,3.04-2.17,3.1-1.43,.05-2.41-1.1-2.45-2.89-.04-1.74,1.04-3.08,2.5-3.12,1.56-.03,2.12,.73,2.12,2.91Z"/>
  <path class="cls-4" d="M118.74,522.76h-5.24c.57-1.23,1.38-1.84,2.61-1.87,1.24-.03,2.13,.48,2.63,1.87Z"/>
  <path class="cls-4" d="M190.23,522.78h-5.26c.61-1.29,1.46-1.91,2.77-1.88,1.24,.02,2.04,.61,2.49,1.88Z"/>
  <path class="cls-20" d="M162.81,523.91c.05,1.6-1.01,2.64-2.55,2.67-1.29,.02-2.15-.51-2.21-1.92-.08-1.73,1.81-4.19,3.22-3.99,2.18,.3,1.1,2.25,1.55,3.24Z"/>
  <path class="cls-20" d="M137.34,524.09c.05,1.41-1,2.45-2.55,2.49-1.29,.03-2.15-.5-2.22-1.91-.08-1.72,1.77-4.05,3.21-4.03,1.09,.01,1.47,.86,1.56,3.45Z"/>
  <path class="cls-45" d="M75.54,526.21c-1.41,0-2.44-1.25-2.43-2.94,0-1.59,.98-2.69,2.38-2.7,1.6,0,2.55,1.01,2.54,2.74,0,1.65-1.08,2.9-2.49,2.9Z"/>
  <path class="cls-34" d="M338.63,677.48c-.9-.22-1.91-.29-1.79-1.37,.15-1.37,1.25-1.51,2.38-1.46,.93,.04,1.68,.61,1.59,1.45-.13,1.25-1.33,1.24-2.18,1.38Z"/>
  <path class="cls-20" d="M338.69,672.02c-1.05,.09-1.62-.16-1.6-1.07,.03-1.27,.87-1.76,1.97-1.74,.9,.02,1.58,.52,1.48,1.53-.12,1.3-1.16,1.25-1.86,1.28Z"/>
  <path class="cls-18" d="M148.28,675.17c0-1.95,.88-3.05,2.4-3.01,1.28,.04,2.23,1.38,2.22,3.16,0,1.74-.97,2.76-2.58,2.73-1.49-.03-2.04-.81-2.04-2.89Z"/>
  <path class="cls-18" d="M107.63,675.02c0,2.23-.59,3-2.28,2.99-1.4,0-2.35-1.22-2.34-3,0-1.74,1.13-3.04,2.61-3.01,1.54,.03,2.02,.75,2.01,3.01Z"/>
  <path class="cls-4" d="M118.75,674.23h-5.16c.35-1.27,1.19-1.83,2.37-1.91,1.3-.09,2.26,.42,2.79,1.91Z"/>
  <path class="cls-4" d="M190.28,674.22h-5.2c.37-1.28,1.21-1.84,2.41-1.91,1.29-.07,2.21,.48,2.79,1.91Z"/>
  <path class="cls-20" d="M162.81,675.25c.1,1.6-.84,2.67-2.47,2.74-1.27,.06-2.18-.42-2.29-1.83-.13-1.7,1.68-4.04,3.14-4.1,1.14-.04,1.47,.61,1.62,3.19Z"/>
  <path class="cls-20" d="M137.33,675.04c.11,1.8-.8,2.86-2.43,2.95-1.26,.07-2.19-.39-2.31-1.81-.15-1.68,1.65-4.16,3.11-4.09,2.17,.1,1.24,2.01,1.64,2.95Z"/>
  <path class="cls-45" d="M75.43,671.98c1.62-.03,2.57,.96,2.59,2.69,.02,1.64-1.04,2.92-2.44,2.95-1.43,.03-2.46-1.18-2.49-2.89-.02-1.57,.96-2.73,2.33-2.75Z"/>
  <path class="cls-18" d="M148.28,624.11c0-1.87,.81-2.89,2.31-2.91,1.3-.02,2.29,1.29,2.31,3.07,.03,1.76-.9,2.8-2.49,2.82-1.55,.02-2.13-.8-2.13-2.98Z"/>
  <path class="cls-18" d="M107.63,624.11c0,2.15-.66,2.98-2.35,2.93-1.39-.04-2.31-1.28-2.27-3.06,.03-1.65,1.09-2.91,2.48-2.95,1.6-.05,2.14,.73,2.14,3.08Z"/>
  <path class="cls-4" d="M113.51,623.21c.65-1.37,1.56-1.94,2.88-1.86,1.17,.07,1.93,.64,2.35,1.86h-5.22Z"/>
  <path class="cls-4" d="M190.23,623.25h-5.11c.34-1.37,1.23-1.89,2.5-1.91,1.3-.02,2.17,.56,2.61,1.91Z"/>
  <path class="cls-20" d="M137.34,624.5c.05,1.44-.95,2.47-2.52,2.51-1.28,.04-2.16-.46-2.25-1.88-.1-1.71,1.73-4.05,3.18-4.06,1.1,0,1.49,.85,1.58,3.42Z"/>
  <path class="cls-20" d="M162.82,624.56c.04,1.4-1.03,2.44-2.58,2.46-1.3,.02-2.14-.53-2.19-1.94-.06-1.74,1.81-4.05,3.24-4,1.09,.03,1.46,.88,1.53,3.49Z"/>
  <path class="cls-45" d="M78.03,623.7c.02,1.64-1.04,2.92-2.44,2.95-1.42,.03-2.46-1.18-2.48-2.89-.02-1.57,.96-2.72,2.33-2.75,1.62-.02,2.57,.96,2.59,2.69Z"/>
  <path class="cls-40" d="M125.66,337.92c.2-.54,.58-.89,1.11-1.19q-.02,1.22-1.11,1.19Z"/>
  <path class="cls-13" d="M144.93,341.45c-.55-.04-.78-.36-.76-.85,.02-.32,.21-.67,.54-.54,.35,.14,.95,.03,1,.59,.04,.5-.36,.71-.78,.79Z"/>
  <path class="cls-19" d="M137.16,333.96c-.11,.54-.25,1.02-.84,1.1-.36,.05-.58-.27-.62-.55-.09-.63,.45-.79,.89-.96,.38-.14,.54,.09,.57,.41Z"/>
</svg>